<?xml version="1.0" encoding="UTF-8" standalone="no"?>
<!DOCTYPE svg PUBLIC "-//W3C//DTD SVG 1.1//EN"
 "http://www.w3.org/Graphics/SVG/1.1/DTD/svg11.dtd">
<!-- Generated by graphviz version 2.36.0 (20140111.2315)
 -->
<!-- Title: /home/travis/build/AliceO2Group/AliceO2/Framework/Core/include/Framework/ErrorContext.h Pages: 1 -->
<!--zoomable 342 -->
<svg id="main" version="1.1" xmlns="http://www.w3.org/2000/svg" xmlns:xlink="http://www.w3.org/1999/xlink" xml:space="preserve" onload="init(evt)">
<style type="text/css"><![CDATA[
.edge:hover path { stroke: red; }
.edge:hover polygon { stroke: red; fill: red; }
]]></style>
<script type="text/javascript"><![CDATA[
var edges = document.getElementsByTagName('g');
if (edges && edges.length) {
  for (var i=0;i<edges.length;i++) {
    if (edges[i].id.substr(0,4)=='edge') {
      edges[i].setAttribute('class','edge');
    }
  }
}
]]></script>
        <defs>
                <circle id="rim" cx="0" cy="0" r="7"/>
                <circle id="rim2" cx="0" cy="0" r="3.5"/>
                <g id="zoomPlus">
                        <use xlink:href="#rim" fill="#404040">
                                <set attributeName="fill" to="#808080" begin="zoomplus.mouseover" end="zoomplus.mouseout"/>
                        </use>
                        <path d="M-4,0h8M0,-4v8" fill="none" stroke="white" stroke-width="1.5" pointer-events="none"/>
                </g>
                <g id="zoomMin">
                        <use xlink:href="#rim" fill="#404040">
                                <set attributeName="fill" to="#808080" begin="zoomminus.mouseover" end="zoomminus.mouseout"/>
                        </use>
                        <path d="M-4,0h8" fill="none" stroke="white" stroke-width="1.5" pointer-events="none"/>
                </g>
                <g id="dirArrow">
                        <path fill="none" stroke="white" stroke-width="1.5" d="M0,-3.0v7 M-2.5,-0.5L0,-3.0L2.5,-0.5"/>
                </g>
               <g id="resetDef">
                       <use xlink:href="#rim2" fill="#404040">
                               <set attributeName="fill" to="#808080" begin="reset.mouseover" end="reset.mouseout"/>
                       </use>
               </g>
        </defs>

<script type="text/javascript">
var viewWidth = 1967;
var viewHeight = 342;
var sectionId = 'dynsection-0';
</script>
<script xlink:href="../../svgpan.js"/>
<svg id="graph" class="graph">
<g id="viewport">
<title>/home/travis/build/AliceO2Group/AliceO2/Framework/Core/include/Framework/ErrorContext.h</title>
<!-- Node1 -->
<g id="node1" class="node"><title>Node1</title>
<polygon fill="#bfbfbf" stroke="black" points="1535.77,-281 1535.77,-333 1670.77,-333 1670.77,-281 1535.77,-281"/>
<text text-anchor="start" x="1543.77" y="-321" font-family="Helvetica,sans-Serif" font-size="10.00">/home/travis/build</text>
<text text-anchor="start" x="1543.77" y="-310" font-family="Helvetica,sans-Serif" font-size="10.00">/AliceO2Group/AliceO2</text>
<text text-anchor="start" x="1543.77" y="-299" font-family="Helvetica,sans-Serif" font-size="10.00">/Framework/Core/include</text>
<text text-anchor="middle" x="1603.27" y="-288" font-family="Helvetica,sans-Serif" font-size="10.00">/Framework/ErrorContext.h</text>
</g>
<!-- Node2 -->
<g id="node2" class="node"><title>Node2</title>
<g id="a_node2"><a xlink:href="../../d6/d5c/InputRecord_8h.html" target="_top" xlink:title="Framework/InputRecord.h">
<polygon fill="none" stroke="black" points="1111.27,-224.5 1111.27,-243.5 1241.27,-243.5 1241.27,-224.5 1111.27,-224.5"/>
<text text-anchor="middle" x="1176.27" y="-231.5" font-family="Helvetica,sans-Serif" font-size="10.00">Framework/InputRecord.h</text>
</a>
</g>
</g>
<!-- Node1&#45;&gt;Node2 -->
<g id="edge1" class="edge"><title>Node1&#45;&gt;Node2</title>
<path fill="none" stroke="midnightblue" d="M1535.61,-294.75C1453.69,-281.128 1316.9,-258.383 1237.82,-245.235"/>
<polygon fill="midnightblue" stroke="midnightblue" points="1237.97,-241.711 1227.53,-243.523 1236.82,-248.616 1237.97,-241.711"/>
</g>
<!-- Node32 -->
<g id="node32" class="node"><title>Node32</title>
<polygon fill="none" stroke="#bfbfbf" points="1576.77,-168.5 1576.77,-187.5 1635.77,-187.5 1635.77,-168.5 1576.77,-168.5"/>
<text text-anchor="middle" x="1606.27" y="-175.5" font-family="Helvetica,sans-Serif" font-size="10.00">exception</text>
</g>
<!-- Node1&#45;&gt;Node32 -->
<g id="edge53" class="edge"><title>Node1&#45;&gt;Node32</title>
<path fill="none" stroke="midnightblue" d="M1603.86,-280.909C1604.44,-256.409 1605.31,-219.69 1605.83,-197.664"/>
<polygon fill="midnightblue" stroke="midnightblue" points="1609.33,-197.708 1606.07,-187.628 1602.33,-197.542 1609.33,-197.708"/>
</g>
<!-- Node33 -->
<g id="node33" class="node"><title>Node33</title>
<g id="a_node33"><a xlink:href="../../d8/d17/ServiceRegistry_8h.html" target="_top" xlink:title="Framework/ServiceRegistry.h">
<polygon fill="none" stroke="black" points="1631.27,-224.5 1631.27,-243.5 1777.27,-243.5 1777.27,-224.5 1631.27,-224.5"/>
<text text-anchor="middle" x="1704.27" y="-231.5" font-family="Helvetica,sans-Serif" font-size="10.00">Framework/ServiceRegistry.h</text>
</a>
</g>
</g>
<!-- Node1&#45;&gt;Node33 -->
<g id="edge46" class="edge"><title>Node1&#45;&gt;Node33</title>
<path fill="none" stroke="midnightblue" d="M1638.88,-280.968C1653.83,-270.458 1670.69,-258.603 1683.55,-249.565"/>
<polygon fill="midnightblue" stroke="midnightblue" points="1685.57,-252.424 1691.74,-243.81 1681.54,-246.697 1685.57,-252.424"/>
</g>
<!-- Node3 -->
<g id="node3" class="node"><title>Node3</title>
<g id="a_node3"><a xlink:href="../../d5/dfb/DataRef_8h.html" target="_top" xlink:title="Framework/DataRef.h">
<polygon fill="none" stroke="black" points="581.77,-112.5 581.77,-131.5 694.77,-131.5 694.77,-112.5 581.77,-112.5"/>
<text text-anchor="middle" x="638.27" y="-119.5" font-family="Helvetica,sans-Serif" font-size="10.00">Framework/DataRef.h</text>
</a>
</g>
</g>
<!-- Node2&#45;&gt;Node3 -->
<g id="edge2" class="edge"><title>Node2&#45;&gt;Node3</title>
<path fill="none" stroke="midnightblue" d="M1111,-229.551C1037.51,-224.606 914.935,-213.152 812.27,-188 759.104,-174.975 699.943,-150.645 666.112,-135.729"/>
<polygon fill="midnightblue" stroke="midnightblue" points="667.423,-132.481 656.864,-131.607 664.573,-138.875 667.423,-132.481"/>
</g>
<!-- Node4 -->
<g id="node4" class="node"><title>Node4</title>
<g id="a_node4"><a xlink:href="../../d5/db8/DataRefUtils_8h.html" target="_top" xlink:title="Framework/DataRefUtils.h">
<polygon fill="none" stroke="black" points="821.27,-168.5 821.27,-187.5 955.27,-187.5 955.27,-168.5 821.27,-168.5"/>
<text text-anchor="middle" x="888.27" y="-175.5" font-family="Helvetica,sans-Serif" font-size="10.00">Framework/DataRefUtils.h</text>
</a>
</g>
</g>
<!-- Node2&#45;&gt;Node4 -->
<g id="edge3" class="edge"><title>Node2&#45;&gt;Node4</title>
<path fill="none" stroke="midnightblue" d="M1130.64,-224.444C1079.97,-214.944 998.195,-199.611 943.842,-189.42"/>
<polygon fill="midnightblue" stroke="midnightblue" points="944.165,-185.919 933.691,-187.516 942.874,-192.799 944.165,-185.919"/>
</g>
<!-- Node7 -->
<g id="node7" class="node"><title>Node7</title>
<polygon fill="none" stroke="#bfbfbf" points="743.27,-0.5 743.27,-19.5 795.27,-19.5 795.27,-0.5 743.27,-0.5"/>
<text text-anchor="middle" x="769.27" y="-7.5" font-family="Helvetica,sans-Serif" font-size="10.00">memory</text>
</g>
<!-- Node2&#45;&gt;Node7 -->
<g id="edge44" class="edge"><title>Node2&#45;&gt;Node7</title>
<path fill="none" stroke="midnightblue" d="M1111.19,-232.958C968.283,-231.261 634.809,-217.978 572.27,-132 567.041,-124.812 566.646,-118.883 572.27,-112 623.064,-49.8354 689.797,-129.921 749.27,-76 762.234,-64.2456 766.891,-44.3132 768.514,-29.6129"/>
<polygon fill="midnightblue" stroke="midnightblue" points="772.006,-29.8436 769.251,-19.6134 765.025,-29.329 772.006,-29.8436"/>
</g>
<!-- Node8 -->
<g id="node8" class="node"><title>Node8</title>
<polygon fill="none" stroke="#bfbfbf" points="318.77,-0.5 318.77,-19.5 367.77,-19.5 367.77,-0.5 318.77,-0.5"/>
<text text-anchor="middle" x="343.27" y="-7.5" font-family="Helvetica,sans-Serif" font-size="10.00">cassert</text>
</g>
<!-- Node2&#45;&gt;Node8 -->
<g id="edge42" class="edge"><title>Node2&#45;&gt;Node8</title>
<path fill="none" stroke="midnightblue" d="M1111,-231.032C949.992,-225.886 537.089,-210.823 401.27,-188 220.473,-157.619 114.915,-222.179 4.2698,-76 -1.09486,-68.9125 -1.58747,-62.6862 4.2698,-56 24.1336,-33.3251 225.848,-18.3053 308.368,-13.0659"/>
<polygon fill="midnightblue" stroke="midnightblue" points="308.744,-16.5493 318.507,-12.4335 308.308,-9.5629 308.744,-16.5493"/>
</g>
<!-- Node9 -->
<g id="node9" class="node"><title>Node9</title>
<polygon fill="none" stroke="#bfbfbf" points="1101.27,-0.5 1101.27,-19.5 1147.27,-19.5 1147.27,-0.5 1101.27,-0.5"/>
<text text-anchor="middle" x="1124.27" y="-7.5" font-family="Helvetica,sans-Serif" font-size="10.00">cstring</text>
</g>
<!-- Node2&#45;&gt;Node9 -->
<g id="edge41" class="edge"><title>Node2&#45;&gt;Node9</title>
<path fill="none" stroke="midnightblue" d="M1187.76,-224.418C1197.72,-216.259 1211.56,-203.027 1218.27,-188 1242.22,-134.357 1246.93,-102.688 1211.27,-56 1197.88,-38.4735 1175.73,-27.1558 1157.13,-20.2543"/>
<polygon fill="midnightblue" stroke="midnightblue" points="1158.11,-16.8908 1147.52,-16.9507 1155.84,-23.5108 1158.11,-16.8908"/>
</g>
<!-- Node11 -->
<g id="node11" class="node"><title>Node11</title>
<g id="a_node11"><a xlink:href="../../d8/d3c/TMessageSerializer_8h.html" target="_top" xlink:title="Framework/TMessageSerializer.h">
<polygon fill="none" stroke="black" points="361.77,-112.5 361.77,-131.5 524.77,-131.5 524.77,-112.5 361.77,-112.5"/>
<text text-anchor="middle" x="443.27" y="-119.5" font-family="Helvetica,sans-Serif" font-size="10.00">Framework/TMessageSerializer.h</text>
</a>
</g>
</g>
<!-- Node2&#45;&gt;Node11 -->
<g id="edge36" class="edge"><title>Node2&#45;&gt;Node11</title>
<path fill="none" stroke="midnightblue" d="M1111.1,-232.661C970.612,-231.242 643.527,-224.043 539.27,-188 508.536,-177.375 478.359,-154.272 460.276,-138.673"/>
<polygon fill="midnightblue" stroke="midnightblue" points="462.225,-135.723 452.422,-131.705 457.58,-140.959 462.225,-135.723"/>
</g>
<!-- Node12 -->
<g id="node12" class="node"><title>Node12</title>
<polygon fill="none" stroke="#bfbfbf" points="13.7698,-56.5 13.7698,-75.5 140.77,-75.5 140.77,-56.5 13.7698,-56.5"/>
<text text-anchor="middle" x="77.2698" y="-63.5" font-family="Helvetica,sans-Serif" font-size="10.00">fairmq/FairMQMessage.h</text>
</g>
<!-- Node2&#45;&gt;Node12 -->
<g id="edge35" class="edge"><title>Node2&#45;&gt;Node12</title>
<path fill="none" stroke="midnightblue" d="M1111.02,-233.323C989.234,-232.902 719.435,-227.137 496.27,-188 349.131,-162.196 179.918,-104.296 110.051,-79.099"/>
<polygon fill="midnightblue" stroke="midnightblue" points="111.072,-75.7463 100.478,-75.6264 108.685,-82.3268 111.072,-75.7463"/>
</g>
<!-- Node20 -->
<g id="node20" class="node"><title>Node20</title>
<g id="a_node20"><a xlink:href="../../d0/d95/TypeTraits_8h.html" target="_top" xlink:title="Framework/TypeTraits.h">
<polygon fill="none" stroke="black" points="1075.77,-112.5 1075.77,-131.5 1198.77,-131.5 1198.77,-112.5 1075.77,-112.5"/>
<text text-anchor="middle" x="1137.27" y="-119.5" font-family="Helvetica,sans-Serif" font-size="10.00">Framework/TypeTraits.h</text>
</a>
</g>
</g>
<!-- Node2&#45;&gt;Node20 -->
<g id="edge34" class="edge"><title>Node2&#45;&gt;Node20</title>
<path fill="none" stroke="midnightblue" d="M1173.21,-224.368C1166.89,-206.537 1152.27,-165.295 1143.75,-141.272"/>
<polygon fill="midnightblue" stroke="midnightblue" points="1146.96,-139.847 1140.32,-131.591 1140.36,-142.186 1146.96,-139.847"/>
</g>
<!-- Node21 -->
<g id="node21" class="node"><title>Node21</title>
<polygon fill="none" stroke="#bfbfbf" points="1141.27,-56.5 1141.27,-75.5 1203.27,-75.5 1203.27,-56.5 1141.27,-56.5"/>
<text text-anchor="middle" x="1172.27" y="-63.5" font-family="Helvetica,sans-Serif" font-size="10.00">type_traits</text>
</g>
<!-- Node2&#45;&gt;Node21 -->
<g id="edge45" class="edge"><title>Node2&#45;&gt;Node21</title>
<path fill="none" stroke="midnightblue" d="M1181.91,-224.354C1194.24,-204.308 1221.42,-153.228 1207.27,-112 1203.55,-101.161 1196.04,-90.9216 1188.92,-82.9566"/>
<polygon fill="midnightblue" stroke="midnightblue" points="1191.27,-80.3498 1181.83,-75.5497 1186.22,-85.1922 1191.27,-80.3498"/>
</g>
<!-- Node22 -->
<g id="node22" class="node"><title>Node22</title>
<polygon fill="none" stroke="#bfbfbf" points="1001.27,-112.5 1001.27,-131.5 1057.27,-131.5 1057.27,-112.5 1001.27,-112.5"/>
<text text-anchor="middle" x="1029.27" y="-119.5" font-family="Helvetica,sans-Serif" font-size="10.00">TClass.h</text>
</g>
<!-- Node2&#45;&gt;Node22 -->
<g id="edge37" class="edge"><title>Node2&#45;&gt;Node22</title>
<path fill="none" stroke="midnightblue" d="M1164.73,-224.368C1139.72,-205.653 1080.25,-161.151 1049.09,-137.832"/>
<polygon fill="midnightblue" stroke="midnightblue" points="1050.85,-134.78 1040.75,-131.591 1046.66,-140.385 1050.85,-134.78"/>
</g>
<!-- Node26 -->
<g id="node26" class="node"><title>Node26</title>
<g id="a_node26"><a xlink:href="../../d5/d19/InputRoute_8h.html" target="_top" xlink:title="Framework/InputRoute.h">
<polygon fill="none" stroke="black" points="1394.77,-168.5 1394.77,-187.5 1519.77,-187.5 1519.77,-168.5 1394.77,-168.5"/>
<text text-anchor="middle" x="1457.27" y="-175.5" font-family="Helvetica,sans-Serif" font-size="10.00">Framework/InputRoute.h</text>
</a>
</g>
</g>
<!-- Node2&#45;&gt;Node26 -->
<g id="edge28" class="edge"><title>Node2&#45;&gt;Node26</title>
<path fill="none" stroke="midnightblue" d="M1220.8,-224.444C1270.23,-214.944 1350.02,-199.611 1403.05,-189.42"/>
<polygon fill="midnightblue" stroke="midnightblue" points="1403.79,-192.841 1412.95,-187.516 1402.47,-185.967 1403.79,-192.841"/>
</g>
<!-- Node28 -->
<g id="node28" class="node"><title>Node28</title>
<polygon fill="none" stroke="#bfbfbf" points="1508.77,-56.5 1508.77,-75.5 1549.77,-75.5 1549.77,-56.5 1508.77,-56.5"/>
<text text-anchor="middle" x="1529.27" y="-63.5" font-family="Helvetica,sans-Serif" font-size="10.00">string</text>
</g>
<!-- Node2&#45;&gt;Node28 -->
<g id="edge39" class="edge"><title>Node2&#45;&gt;Node28</title>
<path fill="none" stroke="midnightblue" d="M1241.65,-229.226C1338.2,-222.979 1509.58,-209.05 1528.27,-188 1553.29,-159.819 1543.74,-111.724 1535.78,-85.4575"/>
<polygon fill="midnightblue" stroke="midnightblue" points="1539.01,-84.0735 1532.57,-75.6586 1532.36,-86.2513 1539.01,-84.0735"/>
</g>
<!-- Node30 -->
<g id="node30" class="node"><title>Node30</title>
<polygon fill="none" stroke="#bfbfbf" points="1267.77,-168.5 1267.77,-187.5 1314.77,-187.5 1314.77,-168.5 1267.77,-168.5"/>
<text text-anchor="middle" x="1291.27" y="-175.5" font-family="Helvetica,sans-Serif" font-size="10.00">iterator</text>
</g>
<!-- Node2&#45;&gt;Node30 -->
<g id="edge38" class="edge"><title>Node2&#45;&gt;Node30</title>
<path fill="none" stroke="midnightblue" d="M1194.49,-224.444C1213.17,-215.675 1242.43,-201.935 1263.89,-191.858"/>
<polygon fill="midnightblue" stroke="midnightblue" points="1265.57,-194.935 1273.13,-187.516 1262.59,-188.599 1265.57,-194.935"/>
</g>
<!-- Node31 -->
<g id="node31" class="node"><title>Node31</title>
<polygon fill="none" stroke="#bfbfbf" points="1333.27,-168.5 1333.27,-187.5 1377.27,-187.5 1377.27,-168.5 1333.27,-168.5"/>
<text text-anchor="middle" x="1355.27" y="-175.5" font-family="Helvetica,sans-Serif" font-size="10.00">vector</text>
</g>
<!-- Node2&#45;&gt;Node31 -->
<g id="edge40" class="edge"><title>Node2&#45;&gt;Node31</title>
<path fill="none" stroke="midnightblue" d="M1204.63,-224.444C1236.97,-214.687 1289.71,-198.776 1323.44,-188.604"/>
<polygon fill="midnightblue" stroke="midnightblue" points="1324.68,-191.883 1333.25,-185.644 1322.66,-185.181 1324.68,-191.883"/>
</g>
<!-- Node2&#45;&gt;Node32 -->
<g id="edge43" class="edge"><title>Node2&#45;&gt;Node32</title>
<path fill="none" stroke="midnightblue" d="M1241.39,-227.127C1318.31,-219.793 1450.02,-205.989 1562.27,-188 1563.71,-187.769 1565.18,-187.523 1566.66,-187.266"/>
<polygon fill="midnightblue" stroke="midnightblue" points="1567.31,-190.705 1576.51,-185.447 1566.04,-183.822 1567.31,-190.705"/>
</g>
<!-- Node4&#45;&gt;Node3 -->
<g id="edge4" class="edge"><title>Node4&#45;&gt;Node3</title>
<path fill="none" stroke="midnightblue" d="M848.657,-168.444C805.045,-159.023 734.87,-143.866 687.692,-133.675"/>
<polygon fill="midnightblue" stroke="midnightblue" points="688.211,-130.207 677.698,-131.516 686.733,-137.049 688.211,-130.207"/>
</g>
<!-- Node5 -->
<g id="node5" class="node"><title>Node5</title>
<g id="a_node5"><a xlink:href="../../dc/dcd/DataHeader_8h.html" target="_top" xlink:title="Headers/DataHeader.h">
<polygon fill="none" stroke="black" points="797.77,-56.5 797.77,-75.5 914.77,-75.5 914.77,-56.5 797.77,-56.5"/>
<text text-anchor="middle" x="856.27" y="-63.5" font-family="Helvetica,sans-Serif" font-size="10.00">Headers/DataHeader.h</text>
</a>
</g>
</g>
<!-- Node4&#45;&gt;Node5 -->
<g id="edge5" class="edge"><title>Node4&#45;&gt;Node5</title>
<path fill="none" stroke="midnightblue" d="M821.052,-173.486C791.96,-168.214 760.464,-156.647 742.27,-132 722.645,-105.415 761.85,-88.0897 799.523,-78.0652"/>
<polygon fill="midnightblue" stroke="midnightblue" points="800.695,-81.3797 809.543,-75.5513 798.992,-74.5901 800.695,-81.3797"/>
</g>
<!-- Node4&#45;&gt;Node11 -->
<g id="edge11" class="edge"><title>Node4&#45;&gt;Node11</title>
<path fill="none" stroke="midnightblue" d="M821.167,-168.857C741.489,-159.188 608.708,-143.076 523.627,-132.751"/>
<polygon fill="midnightblue" stroke="midnightblue" points="523.843,-129.252 513.494,-131.522 523,-136.201 523.843,-129.252"/>
</g>
<!-- Node4&#45;&gt;Node20 -->
<g id="edge21" class="edge"><title>Node4&#45;&gt;Node20</title>
<path fill="none" stroke="midnightblue" d="M927.725,-168.444C971.162,-159.023 1041.06,-143.866 1088.05,-133.675"/>
<polygon fill="midnightblue" stroke="midnightblue" points="1088.97,-137.056 1098,-131.516 1087.48,-130.215 1088.97,-137.056"/>
</g>
<!-- Node4&#45;&gt;Node21 -->
<g id="edge26" class="edge"><title>Node4&#45;&gt;Node21</title>
<path fill="none" stroke="midnightblue" d="M899.466,-168.329C917.848,-154.49 956.017,-127.404 992.27,-112 1037.93,-92.5983 1093.8,-80.2536 1131.07,-73.4972"/>
<polygon fill="midnightblue" stroke="midnightblue" points="1131.82,-76.9187 1141.07,-71.7385 1130.61,-70.0246 1131.82,-76.9187"/>
</g>
<!-- Node4&#45;&gt;Node22 -->
<g id="edge23" class="edge"><title>Node4&#45;&gt;Node22</title>
<path fill="none" stroke="midnightblue" d="M910.612,-168.444C934.023,-159.478 971.005,-145.314 997.459,-135.183"/>
<polygon fill="midnightblue" stroke="midnightblue" points="998.946,-138.361 1007.03,-131.516 996.442,-131.824 998.946,-138.361"/>
</g>
<!-- Node23 -->
<g id="node23" class="node"><title>Node23</title>
<polygon fill="none" stroke="#bfbfbf" points="751.77,-112.5 751.77,-131.5 810.77,-131.5 810.77,-112.5 751.77,-112.5"/>
<text text-anchor="middle" x="781.27" y="-119.5" font-family="Helvetica,sans-Serif" font-size="10.00">stdexcept</text>
</g>
<!-- Node4&#45;&gt;Node23 -->
<g id="edge24" class="edge"><title>Node4&#45;&gt;Node23</title>
<path fill="none" stroke="midnightblue" d="M871.078,-168.324C853.919,-159.664 827.324,-146.242 807.523,-136.249"/>
<polygon fill="midnightblue" stroke="midnightblue" points="808.923,-133.035 798.419,-131.655 805.769,-139.285 808.923,-133.035"/>
</g>
<!-- Node24 -->
<g id="node24" class="node"><title>Node24</title>
<polygon fill="none" stroke="#bfbfbf" points="829.27,-112.5 829.27,-131.5 881.27,-131.5 881.27,-112.5 829.27,-112.5"/>
<text text-anchor="middle" x="855.27" y="-119.5" font-family="Helvetica,sans-Serif" font-size="10.00">sstream</text>
</g>
<!-- Node4&#45;&gt;Node24 -->
<g id="edge25" class="edge"><title>Node4&#45;&gt;Node24</title>
<path fill="none" stroke="midnightblue" d="M882.821,-168.083C878.255,-160.613 871.601,-149.724 865.976,-140.52"/>
<polygon fill="midnightblue" stroke="midnightblue" points="868.819,-138.459 860.618,-131.751 862.846,-142.109 868.819,-138.459"/>
</g>
<!-- Node25 -->
<g id="node25" class="node"><title>Node25</title>
<polygon fill="none" stroke="#bfbfbf" points="899.77,-112.5 899.77,-131.5 944.77,-131.5 944.77,-112.5 899.77,-112.5"/>
<text text-anchor="middle" x="922.27" y="-119.5" font-family="Helvetica,sans-Serif" font-size="10.00">gsl/gsl</text>
</g>
<!-- Node4&#45;&gt;Node25 -->
<g id="edge27" class="edge"><title>Node4&#45;&gt;Node25</title>
<path fill="none" stroke="midnightblue" d="M893.884,-168.083C898.637,-160.534 905.588,-149.495 911.421,-140.23"/>
<polygon fill="midnightblue" stroke="midnightblue" points="914.394,-142.078 916.76,-131.751 908.47,-138.349 914.394,-142.078"/>
</g>
<!-- Node6 -->
<g id="node6" class="node"><title>Node6</title>
<polygon fill="none" stroke="#bfbfbf" points="823.27,-0.5 823.27,-19.5 869.27,-19.5 869.27,-0.5 823.27,-0.5"/>
<text text-anchor="middle" x="846.27" y="-7.5" font-family="Helvetica,sans-Serif" font-size="10.00">cstdint</text>
</g>
<!-- Node5&#45;&gt;Node6 -->
<g id="edge6" class="edge"><title>Node5&#45;&gt;Node6</title>
<path fill="none" stroke="midnightblue" d="M854.619,-56.083C853.293,-48.9272 851.387,-38.6353 849.731,-29.6911"/>
<polygon fill="midnightblue" stroke="midnightblue" points="853.153,-28.9466 847.89,-19.7511 846.27,-30.2212 853.153,-28.9466"/>
</g>
<!-- Node5&#45;&gt;Node7 -->
<g id="edge7" class="edge"><title>Node5&#45;&gt;Node7</title>
<path fill="none" stroke="midnightblue" d="M842.292,-56.324C828.72,-47.9002 807.89,-34.9709 791.945,-25.0741"/>
<polygon fill="midnightblue" stroke="midnightblue" points="793.555,-21.9544 783.213,-19.6545 789.864,-27.9019 793.555,-21.9544"/>
</g>
<!-- Node5&#45;&gt;Node8 -->
<g id="edge8" class="edge"><title>Node5&#45;&gt;Node8</title>
<path fill="none" stroke="midnightblue" d="M797.422,-58.8055C689.796,-47.4765 464.369,-23.7473 377.981,-14.6538"/>
<polygon fill="midnightblue" stroke="midnightblue" points="378.227,-11.1605 367.916,-13.5943 377.494,-18.122 378.227,-11.1605"/>
</g>
<!-- Node5&#45;&gt;Node9 -->
<g id="edge9" class="edge"><title>Node5&#45;&gt;Node9</title>
<path fill="none" stroke="midnightblue" d="M898.735,-56.4435C952.087,-45.6935 1042.52,-27.4714 1091.09,-17.6863"/>
<polygon fill="midnightblue" stroke="midnightblue" points="1091.96,-21.0813 1101.07,-15.6749 1090.57,-14.2192 1091.96,-21.0813"/>
</g>
<!-- Node10 -->
<g id="node10" class="node"><title>Node10</title>
<polygon fill="none" stroke="#bfbfbf" points="887.27,-0.5 887.27,-19.5 943.27,-19.5 943.27,-0.5 887.27,-0.5"/>
<text text-anchor="middle" x="915.27" y="-7.5" font-family="Helvetica,sans-Serif" font-size="10.00">algorithm</text>
</g>
<!-- Node5&#45;&gt;Node10 -->
<g id="edge10" class="edge"><title>Node5&#45;&gt;Node10</title>
<path fill="none" stroke="midnightblue" d="M865.749,-56.324C874.471,-48.3414 887.613,-36.3128 898.168,-26.6529"/>
<polygon fill="midnightblue" stroke="midnightblue" points="900.604,-29.1674 905.618,-19.8339 895.878,-24.0036 900.604,-29.1674"/>
</g>
<!-- Node11&#45;&gt;Node7 -->
<g id="edge19" class="edge"><title>Node11&#45;&gt;Node7</title>
<path fill="none" stroke="midnightblue" d="M361.755,-117.69C295.727,-113.095 210.193,-102.131 188.27,-76 182.557,-69.1903 182.232,-62.5236 188.27,-56 225.292,-15.9991 611.68,-11.4554 733.02,-11.019"/>
<polygon fill="midnightblue" stroke="midnightblue" points="733.275,-14.5184 743.265,-10.9898 733.255,-7.51838 733.275,-14.5184"/>
</g>
<!-- Node11&#45;&gt;Node12 -->
<g id="edge12" class="edge"><title>Node11&#45;&gt;Node12</title>
<path fill="none" stroke="midnightblue" d="M385.276,-112.444C319.956,-102.806 213.933,-87.1635 144.9,-76.9782"/>
<polygon fill="midnightblue" stroke="midnightblue" points="145.396,-73.5136 134.992,-75.5164 144.374,-80.4386 145.396,-73.5136"/>
</g>
<!-- Node13 -->
<g id="node13" class="node"><title>Node13</title>
<polygon fill="none" stroke="#bfbfbf" points="517.77,-56.5 517.77,-75.5 564.77,-75.5 564.77,-56.5 517.77,-56.5"/>
<text text-anchor="middle" x="541.27" y="-63.5" font-family="Helvetica,sans-Serif" font-size="10.00">TList.h</text>
</g>
<!-- Node11&#45;&gt;Node13 -->
<g id="edge13" class="edge"><title>Node11&#45;&gt;Node13</title>
<path fill="none" stroke="midnightblue" d="M459.015,-112.324C474.588,-103.743 498.647,-90.486 516.729,-80.5224"/>
<polygon fill="midnightblue" stroke="midnightblue" points="518.494,-83.546 525.563,-75.6545 515.116,-77.4152 518.494,-83.546"/>
</g>
<!-- Node14 -->
<g id="node14" class="node"><title>Node14</title>
<polygon fill="none" stroke="#bfbfbf" points="582.77,-56.5 582.77,-75.5 653.77,-75.5 653.77,-56.5 582.77,-56.5"/>
<text text-anchor="middle" x="618.27" y="-63.5" font-family="Helvetica,sans-Serif" font-size="10.00">TMessage.h</text>
</g>
<!-- Node11&#45;&gt;Node14 -->
<g id="edge14" class="edge"><title>Node11&#45;&gt;Node14</title>
<path fill="none" stroke="midnightblue" d="M470.999,-112.444C500.695,-103.28 547.986,-88.6876 580.939,-78.5192"/>
<polygon fill="midnightblue" stroke="midnightblue" points="582.147,-81.8094 590.67,-75.5164 580.083,-75.1206 582.147,-81.8094"/>
</g>
<!-- Node15 -->
<g id="node15" class="node"><title>Node15</title>
<polygon fill="none" stroke="#bfbfbf" points="671.77,-56.5 671.77,-75.5 740.77,-75.5 740.77,-56.5 671.77,-56.5"/>
<text text-anchor="middle" x="706.27" y="-63.5" font-family="Helvetica,sans-Serif" font-size="10.00">TObjArray.h</text>
</g>
<!-- Node11&#45;&gt;Node15 -->
<g id="edge15" class="edge"><title>Node11&#45;&gt;Node15</title>
<path fill="none" stroke="midnightblue" d="M484.943,-112.444C533.082,-102.559 611.987,-86.3585 661.429,-76.2068"/>
<polygon fill="midnightblue" stroke="midnightblue" points="662.419,-79.5767 671.511,-74.1368 661.011,-72.7197 662.419,-79.5767"/>
</g>
<!-- Node16 -->
<g id="node16" class="node"><title>Node16</title>
<polygon fill="none" stroke="#bfbfbf" points="197.77,-56.5 197.77,-75.5 284.77,-75.5 284.77,-56.5 197.77,-56.5"/>
<text text-anchor="middle" x="241.27" y="-63.5" font-family="Helvetica,sans-Serif" font-size="10.00">TStreamerInfo.h</text>
</g>
<!-- Node11&#45;&gt;Node16 -->
<g id="edge16" class="edge"><title>Node11&#45;&gt;Node16</title>
<path fill="none" stroke="midnightblue" d="M411.262,-112.444C376.541,-103.162 320.982,-88.3093 282.893,-78.127"/>
<polygon fill="midnightblue" stroke="midnightblue" points="283.692,-74.7178 273.128,-75.5164 281.884,-81.4803 283.692,-74.7178"/>
</g>
<!-- Node17 -->
<g id="node17" class="node"><title>Node17</title>
<polygon fill="none" stroke="#bfbfbf" points="302.77,-56.5 302.77,-75.5 365.77,-75.5 365.77,-56.5 302.77,-56.5"/>
<text text-anchor="middle" x="334.27" y="-63.5" font-family="Helvetica,sans-Serif" font-size="10.00">gsl/gsl_util</text>
</g>
<!-- Node11&#45;&gt;Node17 -->
<g id="edge17" class="edge"><title>Node11&#45;&gt;Node17</title>
<path fill="none" stroke="midnightblue" d="M425.757,-112.324C408.197,-103.625 380.938,-90.1202 360.739,-80.113"/>
<polygon fill="midnightblue" stroke="midnightblue" points="362.253,-76.9575 351.739,-75.6545 359.146,-83.23 362.253,-76.9575"/>
</g>
<!-- Node18 -->
<g id="node18" class="node"><title>Node18</title>
<polygon fill="none" stroke="#bfbfbf" points="383.77,-56.5 383.77,-75.5 436.77,-75.5 436.77,-56.5 383.77,-56.5"/>
<text text-anchor="middle" x="410.27" y="-63.5" font-family="Helvetica,sans-Serif" font-size="10.00">gsl/span</text>
</g>
<!-- Node11&#45;&gt;Node18 -->
<g id="edge18" class="edge"><title>Node11&#45;&gt;Node18</title>
<path fill="none" stroke="midnightblue" d="M437.821,-112.083C433.255,-104.613 426.601,-93.7244 420.976,-84.5199"/>
<polygon fill="midnightblue" stroke="midnightblue" points="423.819,-82.4588 415.618,-75.7511 417.846,-86.109 423.819,-82.4588"/>
</g>
<!-- Node19 -->
<g id="node19" class="node"><title>Node19</title>
<polygon fill="none" stroke="#bfbfbf" points="455.27,-56.5 455.27,-75.5 499.27,-75.5 499.27,-56.5 455.27,-56.5"/>
<text text-anchor="middle" x="477.27" y="-63.5" font-family="Helvetica,sans-Serif" font-size="10.00">mutex</text>
</g>
<!-- Node11&#45;&gt;Node19 -->
<g id="edge20" class="edge"><title>Node11&#45;&gt;Node19</title>
<path fill="none" stroke="midnightblue" d="M448.884,-112.083C453.637,-104.534 460.588,-93.4948 466.421,-84.2298"/>
<polygon fill="midnightblue" stroke="midnightblue" points="469.394,-86.0783 471.76,-75.7511 463.47,-82.3486 469.394,-86.0783"/>
</g>
<!-- Node20&#45;&gt;Node21 -->
<g id="edge22" class="edge"><title>Node20&#45;&gt;Node21</title>
<path fill="none" stroke="midnightblue" d="M1143.05,-112.083C1147.94,-104.534 1155.1,-93.4948 1161.1,-84.2298"/>
<polygon fill="midnightblue" stroke="midnightblue" points="1164.1,-86.0463 1166.6,-75.7511 1158.22,-82.239 1164.1,-86.0463"/>
</g>
<!-- Node27 -->
<g id="node27" class="node"><title>Node27</title>
<g id="a_node27"><a xlink:href="../../d5/d3f/InputSpec_8h.html" target="_top" xlink:title="Framework/InputSpec.h">
<polygon fill="none" stroke="black" points="1293.77,-112.5 1293.77,-131.5 1414.77,-131.5 1414.77,-112.5 1293.77,-112.5"/>
<text text-anchor="middle" x="1354.27" y="-119.5" font-family="Helvetica,sans-Serif" font-size="10.00">Framework/InputSpec.h</text>
</a>
</g>
</g>
<!-- Node26&#45;&gt;Node27 -->
<g id="edge29" class="edge"><title>Node26&#45;&gt;Node27</title>
<path fill="none" stroke="midnightblue" d="M1440.72,-168.324C1424.28,-159.703 1398.83,-146.364 1379.8,-136.386"/>
<polygon fill="midnightblue" stroke="midnightblue" points="1381.26,-133.198 1370.78,-131.655 1378.01,-139.398 1381.26,-133.198"/>
</g>
<!-- Node26&#45;&gt;Node28 -->
<g id="edge33" class="edge"><title>Node26&#45;&gt;Node28</title>
<path fill="none" stroke="midnightblue" d="M1464.09,-168.208C1470.94,-159.26 1481.69,-144.91 1490.27,-132 1500.72,-116.279 1511.7,-97.7689 1519.34,-84.5307"/>
<polygon fill="midnightblue" stroke="midnightblue" points="1522.54,-85.9869 1524.47,-75.5685 1516.46,-82.5119 1522.54,-85.9869"/>
</g>
<!-- Node29 -->
<g id="node29" class="node"><title>Node29</title>
<polygon fill="none" stroke="#bfbfbf" points="1432.77,-112.5 1432.77,-131.5 1481.77,-131.5 1481.77,-112.5 1432.77,-112.5"/>
<text text-anchor="middle" x="1457.27" y="-119.5" font-family="Helvetica,sans-Serif" font-size="10.00">cstddef</text>
</g>
<!-- Node26&#45;&gt;Node29 -->
<g id="edge32" class="edge"><title>Node26&#45;&gt;Node29</title>
<path fill="none" stroke="midnightblue" d="M1457.27,-168.083C1457.27,-161.006 1457.27,-150.861 1457.27,-141.986"/>
<polygon fill="midnightblue" stroke="midnightblue" points="1460.77,-141.751 1457.27,-131.751 1453.77,-141.751 1460.77,-141.751"/>
</g>
<!-- Node27&#45;&gt;Node5 -->
<g id="edge31" class="edge"><title>Node27&#45;&gt;Node5</title>
<path fill="none" stroke="midnightblue" d="M1293.7,-114.433C1200.57,-104.334 1022.74,-85.0514 924.947,-74.447"/>
<polygon fill="midnightblue" stroke="midnightblue" points="925.192,-70.953 914.873,-73.3545 924.437,-77.9122 925.192,-70.953"/>
</g>
<!-- Node27&#45;&gt;Node28 -->
<g id="edge30" class="edge"><title>Node27&#45;&gt;Node28</title>
<path fill="none" stroke="midnightblue" d="M1382,-112.444C1413.88,-102.606 1466.04,-86.5122 1498.96,-76.3518"/>
<polygon fill="midnightblue" stroke="midnightblue" points="1500,-79.6956 1508.52,-73.4026 1497.93,-73.0068 1500,-79.6956"/>
</g>
<!-- Node33&#45;&gt;Node21 -->
<g id="edge50" class="edge"><title>Node33&#45;&gt;Node21</title>
<path fill="none" stroke="midnightblue" d="M1698.28,-224.182C1688.5,-210.384 1667.8,-183.653 1644.27,-168 1506.5,-76.3355 1300.42,-65.9895 1213.4,-66.05"/>
<polygon fill="midnightblue" stroke="midnightblue" points="1213.37,-62.55 1203.39,-66.1042 1213.41,-69.5499 1213.37,-62.55"/>
</g>
<!-- Node33&#45;&gt;Node28 -->
<g id="edge49" class="edge"><title>Node33&#45;&gt;Node28</title>
<path fill="none" stroke="midnightblue" d="M1705.14,-224.363C1706.84,-202.497 1708.12,-144.391 1678.27,-112 1647.87,-79.0073 1594.23,-69.8818 1560.28,-67.5425"/>
<polygon fill="midnightblue" stroke="midnightblue" points="1560.17,-64.0322 1550,-66.9998 1559.8,-71.0224 1560.17,-64.0322"/>
</g>
<!-- Node33&#45;&gt;Node32 -->
<g id="edge47" class="edge"><title>Node33&#45;&gt;Node32</title>
<path fill="none" stroke="midnightblue" d="M1688.52,-224.324C1672.95,-215.743 1648.89,-202.486 1630.81,-192.522"/>
<polygon fill="midnightblue" stroke="midnightblue" points="1632.42,-189.415 1621.98,-187.655 1629.05,-195.546 1632.42,-189.415"/>
</g>
<!-- Node34 -->
<g id="node34" class="node"><title>Node34</title>
<polygon fill="none" stroke="#bfbfbf" points="1730.77,-168.5 1730.77,-187.5 1789.77,-187.5 1789.77,-168.5 1730.77,-168.5"/>
<text text-anchor="middle" x="1760.27" y="-175.5" font-family="Helvetica,sans-Serif" font-size="10.00">functional</text>
</g>
<!-- Node33&#45;&gt;Node34 -->
<g id="edge48" class="edge"><title>Node33&#45;&gt;Node34</title>
<path fill="none" stroke="midnightblue" d="M1713.27,-224.324C1721.46,-216.42 1733.78,-204.548 1743.74,-194.938"/>
<polygon fill="midnightblue" stroke="midnightblue" points="1746.34,-197.295 1751.11,-187.834 1741.48,-192.256 1746.34,-197.295"/>
</g>
<!-- Node35 -->
<g id="node35" class="node"><title>Node35</title>
<polygon fill="none" stroke="#bfbfbf" points="1807.77,-168.5 1807.77,-187.5 1858.77,-187.5 1858.77,-168.5 1807.77,-168.5"/>
<text text-anchor="middle" x="1833.27" y="-175.5" font-family="Helvetica,sans-Serif" font-size="10.00">typeinfo</text>
</g>
<!-- Node33&#45;&gt;Node35 -->
<g id="edge51" class="edge"><title>Node33&#45;&gt;Node35</title>
<path fill="none" stroke="midnightblue" d="M1724.71,-224.444C1745.94,-215.557 1779.37,-201.563 1803.52,-191.451"/>
<polygon fill="midnightblue" stroke="midnightblue" points="1805.05,-194.606 1812.92,-187.516 1802.35,-188.149 1805.05,-194.606"/>
</g>
<!-- Node36 -->
<g id="node36" class="node"><title>Node36</title>
<polygon fill="none" stroke="#bfbfbf" points="1876.77,-168.5 1876.77,-187.5 1959.77,-187.5 1959.77,-168.5 1876.77,-168.5"/>
<text text-anchor="middle" x="1918.27" y="-175.5" font-family="Helvetica,sans-Serif" font-size="10.00">unordered_map</text>
</g>
<!-- Node33&#45;&gt;Node36 -->
<g id="edge52" class="edge"><title>Node33&#45;&gt;Node36</title>
<path fill="none" stroke="midnightblue" d="M1738.18,-224.444C1775.12,-215.122 1834.32,-200.183 1874.69,-189.997"/>
<polygon fill="midnightblue" stroke="midnightblue" points="1875.68,-193.357 1884.52,-187.516 1873.97,-186.57 1875.68,-193.357"/>
</g>
</g>
</svg>
        <g id="navigator" transform="translate(0 0)" fill="#404254">
                <rect fill="#f2f5e9" fill-opacity="0.5" stroke="#606060" stroke-width=".5" x="0" y="0" width="60" height="60"/>
                <use id="zoomplus" xlink:href="#zoomPlus" x="17" y="9" onmousedown="handleZoom(evt,'in')"/>
                <use id="zoomminus" xlink:href="#zoomMin" x="42" y="9" onmousedown="handleZoom(evt,'out')"/>
                <use id="reset" xlink:href="#resetDef" x="30" y="36" onmousedown="handleReset()"/>
                <g id="arrowUp" xlink:href="#dirArrow" transform="translate(30 24)" onmousedown="handlePan(0,-1)">
                  <use xlink:href="#rim" fill="#404040">
                        <set attributeName="fill" to="#808080" begin="arrowUp.mouseover" end="arrowUp.mouseout"/>
                  </use>
                  <path fill="none" stroke="white" stroke-width="1.5" d="M0,-3.0v7 M-2.5,-0.5L0,-3.0L2.5,-0.5"/>
                </g>
                <g id="arrowRight" xlink:href="#dirArrow" transform="rotate(90) translate(36 -43)" onmousedown="handlePan(1,0)">
                  <use xlink:href="#rim" fill="#404040">
                        <set attributeName="fill" to="#808080" begin="arrowRight.mouseover" end="arrowRight.mouseout"/>
                  </use>
                  <path fill="none" stroke="white" stroke-width="1.5" d="M0,-3.0v7 M-2.5,-0.5L0,-3.0L2.5,-0.5"/>
                </g>
                <g id="arrowDown" xlink:href="#dirArrow" transform="rotate(180) translate(-30 -48)" onmousedown="handlePan(0,1)">
                  <use xlink:href="#rim" fill="#404040">
                        <set attributeName="fill" to="#808080" begin="arrowDown.mouseover" end="arrowDown.mouseout"/>
                  </use>
                  <path fill="none" stroke="white" stroke-width="1.5" d="M0,-3.0v7 M-2.5,-0.5L0,-3.0L2.5,-0.5"/>
                </g>
                <g id="arrowLeft" xlink:href="#dirArrow" transform="rotate(270) translate(-36 17)" onmousedown="handlePan(-1,0)">
                  <use xlink:href="#rim" fill="#404040">
                        <set attributeName="fill" to="#808080" begin="arrowLeft.mouseover" end="arrowLeft.mouseout"/>
                  </use>
                  <path fill="none" stroke="white" stroke-width="1.5" d="M0,-3.0v7 M-2.5,-0.5L0,-3.0L2.5,-0.5"/>
                </g>
        </g>
        <svg viewBox="0 0 15 15" width="100%" height="30px" preserveAspectRatio="xMaxYMin meet">
         <g id="arrow_out" transform="scale(0.3 0.3)">
          <a xlink:href="ErrorContext_8h__incl_org.svg" target="_base">
           <rect id="button" ry="5" rx="5" y="6" x="6" height="38" width="38"
                fill="#f2f5e9" fill-opacity="0.5" stroke="#606060" stroke-width="1.0"/>
           <path id="arrow"
             d="M 11.500037,31.436501 C 11.940474,20.09759 22.043105,11.32322 32.158766,21.979434 L 37.068811,17.246167 C 37.068811,17.246167 37.088388,32 37.088388,32 L 22.160133,31.978069 C 22.160133,31.978069 26.997745,27.140456 26.997745,27.140456 C 18.528582,18.264221 13.291696,25.230495 11.500037,31.436501 z"
             style="fill:#404040;"/>
          </a>
         </g>
        </svg>
</svg>
