<?xml version="1.0" encoding="UTF-8" standalone="no"?>
<!DOCTYPE svg PUBLIC "-//W3C//DTD SVG 1.1//EN"
 "http://www.w3.org/Graphics/SVG/1.1/DTD/svg11.dtd">
<!-- Generated by graphviz version 2.36.0 (20140111.2315)
 -->
<!-- Title: /home/travis/build/AliceO2Group/AliceO2/Common/Field/include/Field/MagFieldFast.h Pages: 1 -->
<svg width="3885pt" height="320pt"
 viewBox="0.00 0.00 3885.00 320.00" xmlns="http://www.w3.org/2000/svg" xmlns:xlink="http://www.w3.org/1999/xlink">
<g id="graph0" class="graph" transform="scale(1 1) rotate(0) translate(4 316)">
<title>/home/travis/build/AliceO2Group/AliceO2/Common/Field/include/Field/MagFieldFast.h</title>
<!-- Node1 -->
<g id="node1" class="node"><title>Node1</title>
<polygon fill="#bfbfbf" stroke="black" points="1387,-259 1387,-311 1505,-311 1505,-259 1387,-259"/>
<text text-anchor="start" x="1395" y="-299" font-family="Helvetica,sans-Serif" font-size="10.00">/home/travis/build</text>
<text text-anchor="start" x="1395" y="-288" font-family="Helvetica,sans-Serif" font-size="10.00">/AliceO2Group/AliceO2</text>
<text text-anchor="start" x="1395" y="-277" font-family="Helvetica,sans-Serif" font-size="10.00">/Common/Field/include</text>
<text text-anchor="middle" x="1446" y="-266" font-family="Helvetica,sans-Serif" font-size="10.00">/Field/MagFieldFast.h</text>
</g>
<!-- Node2 -->
<g id="node2" class="node"><title>Node2</title>
<g id="a_node2"><a xlink:href="../../db/d4b/MagneticField_8h.html" target="_top" xlink:title="Definition of the MagF class. ">
<polygon fill="none" stroke="black" points="1809,-169 1809,-221 1927,-221 1927,-169 1809,-169"/>
<text text-anchor="start" x="1817" y="-209" font-family="Helvetica,sans-Serif" font-size="10.00">/home/travis/build</text>
<text text-anchor="start" x="1817" y="-198" font-family="Helvetica,sans-Serif" font-size="10.00">/AliceO2Group/AliceO2</text>
<text text-anchor="start" x="1817" y="-187" font-family="Helvetica,sans-Serif" font-size="10.00">/Common/Field/include</text>
<text text-anchor="middle" x="1868" y="-176" font-family="Helvetica,sans-Serif" font-size="10.00">/Field/MagneticField.h</text>
</a>
</g>
</g>
<!-- Node1&#45;&gt;Node2 -->
<g id="edge1" class="edge"><title>Node1&#45;&gt;Node2</title>
<path fill="none" stroke="midnightblue" d="M1515.07,-269.596C1596.89,-252.535 1731.77,-224.407 1808.94,-208.316"/>
<polygon fill="midnightblue" stroke="midnightblue" points="1514.2,-266.204 1505.12,-271.671 1515.63,-273.056 1514.2,-266.204"/>
</g>
<!-- Node7 -->
<g id="node7" class="node"><title>Node7</title>
<g id="a_node7"><a xlink:href="../../d6/dda/testMagneticField_8cxx.html" target="_top" xlink:title="/home/travis/build\l/AliceO2Group/AliceO2\l/Common/Field/test/testMagnetic\lField.cxx">
<polygon fill="none" stroke="black" points="0,-79 0,-131 162,-131 162,-79 0,-79"/>
<text text-anchor="start" x="8" y="-119" font-family="Helvetica,sans-Serif" font-size="10.00">/home/travis/build</text>
<text text-anchor="start" x="8" y="-108" font-family="Helvetica,sans-Serif" font-size="10.00">/AliceO2Group/AliceO2</text>
<text text-anchor="start" x="8" y="-97" font-family="Helvetica,sans-Serif" font-size="10.00">/Common/Field/test/testMagnetic</text>
<text text-anchor="middle" x="81" y="-86" font-family="Helvetica,sans-Serif" font-size="10.00">Field.cxx</text>
</a>
</g>
</g>
<!-- Node1&#45;&gt;Node7 -->
<g id="edge31" class="edge"><title>Node1&#45;&gt;Node7</title>
<path fill="none" stroke="midnightblue" d="M1376.68,-279.713C1183.92,-266.941 625.769,-224.16 171,-132 168.131,-131.419 165.22,-130.79 162.288,-130.125"/>
<polygon fill="midnightblue" stroke="midnightblue" points="1376.47,-283.207 1386.68,-280.37 1376.93,-276.222 1376.47,-283.207"/>
</g>
<!-- Node9 -->
<g id="node9" class="node"><title>Node9</title>
<g id="a_node9"><a xlink:href="../../d8/dee/Propagator_8cxx.html" target="_top" xlink:title="/home/travis/build\l/AliceO2Group/AliceO2\l/Detectors/Base/src/Propagator.cxx">
<polygon fill="none" stroke="black" points="180.5,-84.5 180.5,-125.5 353.5,-125.5 353.5,-84.5 180.5,-84.5"/>
<text text-anchor="start" x="188.5" y="-113.5" font-family="Helvetica,sans-Serif" font-size="10.00">/home/travis/build</text>
<text text-anchor="start" x="188.5" y="-102.5" font-family="Helvetica,sans-Serif" font-size="10.00">/AliceO2Group/AliceO2</text>
<text text-anchor="middle" x="267" y="-91.5" font-family="Helvetica,sans-Serif" font-size="10.00">/Detectors/Base/src/Propagator.cxx</text>
</a>
</g>
</g>
<!-- Node1&#45;&gt;Node9 -->
<g id="edge32" class="edge"><title>Node1&#45;&gt;Node9</title>
<path fill="none" stroke="midnightblue" d="M1377.02,-265.004C1278.02,-238.573 1089.56,-191.328 926,-168 677.779,-132.597 610.362,-172.979 363,-132 352.949,-130.335 342.432,-128.056 332.198,-125.536"/>
<polygon fill="midnightblue" stroke="midnightblue" points="1376.33,-268.444 1386.89,-267.652 1378.14,-261.682 1376.33,-268.444"/>
</g>
<!-- Node29 -->
<g id="node29" class="node"><title>Node29</title>
<g id="a_node29"><a xlink:href="../../d7/dd5/MagFieldFast_8cxx.html" target="_top" xlink:title="Implementation of the fast magnetic field parametrization MagFieldFast. ">
<polygon fill="none" stroke="black" points="1945.5,-174.5 1945.5,-215.5 2126.5,-215.5 2126.5,-174.5 1945.5,-174.5"/>
<text text-anchor="start" x="1953.5" y="-203.5" font-family="Helvetica,sans-Serif" font-size="10.00">/home/travis/build</text>
<text text-anchor="start" x="1953.5" y="-192.5" font-family="Helvetica,sans-Serif" font-size="10.00">/AliceO2Group/AliceO2</text>
<text text-anchor="middle" x="2036" y="-181.5" font-family="Helvetica,sans-Serif" font-size="10.00">/Common/Field/src/MagFieldFast.cxx</text>
</a>
</g>
</g>
<!-- Node1&#45;&gt;Node29 -->
<g id="edge30" class="edge"><title>Node1&#45;&gt;Node29</title>
<path fill="none" stroke="midnightblue" d="M1515.31,-278.06C1610.64,-269.249 1787.33,-250.611 1936,-222 1945.6,-220.153 1955.65,-217.913 1965.51,-215.533"/>
<polygon fill="midnightblue" stroke="midnightblue" points="1514.86,-274.587 1505.22,-278.984 1515.5,-281.558 1514.86,-274.587"/>
</g>
<!-- Node3 -->
<g id="node3" class="node"><title>Node3</title>
<g id="a_node3"><a xlink:href="../../da/d34/MagFieldFact_8h.html" target="_top" xlink:title="Definition of the MagFieldFact: factory for ALIDE mag. field from MagFieldParam. ">
<polygon fill="none" stroke="black" points="2949,-79 2949,-131 3067,-131 3067,-79 2949,-79"/>
<text text-anchor="start" x="2957" y="-119" font-family="Helvetica,sans-Serif" font-size="10.00">/home/travis/build</text>
<text text-anchor="start" x="2957" y="-108" font-family="Helvetica,sans-Serif" font-size="10.00">/AliceO2Group/AliceO2</text>
<text text-anchor="start" x="2957" y="-97" font-family="Helvetica,sans-Serif" font-size="10.00">/Common/Field/include</text>
<text text-anchor="middle" x="3008" y="-86" font-family="Helvetica,sans-Serif" font-size="10.00">/Field/MagFieldFact.h</text>
</a>
</g>
</g>
<!-- Node2&#45;&gt;Node3 -->
<g id="edge2" class="edge"><title>Node2&#45;&gt;Node3</title>
<path fill="none" stroke="midnightblue" d="M1936.69,-168.062C1936.8,-168.041 1936.9,-168.02 1937,-168 2374.34,-80.2038 2502.87,-220.855 2940,-132 2942.85,-131.421 2945.73,-130.736 2948.63,-129.969"/>
<polygon fill="midnightblue" stroke="midnightblue" points="1936.03,-164.622 1927.11,-170.336 1937.65,-171.433 1936.03,-164.622"/>
</g>
<!-- Node4 -->
<g id="node4" class="node"><title>Node4</title>
<g id="a_node4"><a xlink:href="../../d0/dec/MagFieldFact_8cxx.html" target="_top" xlink:title="/home/travis/build\l/AliceO2Group/AliceO2\l/Common/Field/src/MagFieldFact.cxx">
<polygon fill="none" stroke="black" points="2960.5,-0.5 2960.5,-41.5 3141.5,-41.5 3141.5,-0.5 2960.5,-0.5"/>
<text text-anchor="start" x="2968.5" y="-29.5" font-family="Helvetica,sans-Serif" font-size="10.00">/home/travis/build</text>
<text text-anchor="start" x="2968.5" y="-18.5" font-family="Helvetica,sans-Serif" font-size="10.00">/AliceO2Group/AliceO2</text>
<text text-anchor="middle" x="3051" y="-7.5" font-family="Helvetica,sans-Serif" font-size="10.00">/Common/Field/src/MagFieldFact.cxx</text>
</a>
</g>
</g>
<!-- Node2&#45;&gt;Node4 -->
<g id="edge4" class="edge"><title>Node2&#45;&gt;Node4</title>
<path fill="none" stroke="midnightblue" d="M1936.69,-168.061C1936.8,-168.041 1936.9,-168.02 1937,-168 1999.1,-155.672 3031.95,-177.468 3076,-132 3099.58,-107.667 3079.87,-65.9869 3064.61,-41.5176"/>
<polygon fill="midnightblue" stroke="midnightblue" points="1936.04,-164.62 1927.1,-170.32 1937.64,-171.434 1936.04,-164.62"/>
</g>
<!-- Node5 -->
<g id="node5" class="node"><title>Node5</title>
<g id="a_node5"><a xlink:href="../../df/d54/MagFieldParam_8cxx.html" target="_top" xlink:title="Implementation of the MagFieldParam class. ">
<polygon fill="none" stroke="black" points="3123,-84.5 3123,-125.5 3313,-125.5 3313,-84.5 3123,-84.5"/>
<text text-anchor="start" x="3131" y="-113.5" font-family="Helvetica,sans-Serif" font-size="10.00">/home/travis/build</text>
<text text-anchor="start" x="3131" y="-102.5" font-family="Helvetica,sans-Serif" font-size="10.00">/AliceO2Group/AliceO2</text>
<text text-anchor="middle" x="3218" y="-91.5" font-family="Helvetica,sans-Serif" font-size="10.00">/Common/Field/src/MagFieldParam.cxx</text>
</a>
</g>
</g>
<!-- Node2&#45;&gt;Node5 -->
<g id="edge5" class="edge"><title>Node2&#45;&gt;Node5</title>
<path fill="none" stroke="midnightblue" d="M1936.69,-168.061C1936.8,-168.041 1936.9,-168.02 1937,-168 2192.6,-117.375 2850.71,-166.407 3109,-132 3120.76,-130.433 3133.11,-128.137 3145.09,-125.547"/>
<polygon fill="midnightblue" stroke="midnightblue" points="1936.04,-164.62 1927.1,-170.316 1937.64,-171.434 1936.04,-164.62"/>
</g>
<!-- Node6 -->
<g id="node6" class="node"><title>Node6</title>
<g id="a_node6"><a xlink:href="../../d2/d78/MagneticField_8cxx.html" target="_top" xlink:title="/home/travis/build\l/AliceO2Group/AliceO2\l/Common/Field/src/MagneticField.cxx">
<polygon fill="none" stroke="black" points="3331,-84.5 3331,-125.5 3513,-125.5 3513,-84.5 3331,-84.5"/>
<text text-anchor="start" x="3339" y="-113.5" font-family="Helvetica,sans-Serif" font-size="10.00">/home/travis/build</text>
<text text-anchor="start" x="3339" y="-102.5" font-family="Helvetica,sans-Serif" font-size="10.00">/AliceO2Group/AliceO2</text>
<text text-anchor="middle" x="3422" y="-91.5" font-family="Helvetica,sans-Serif" font-size="10.00">/Common/Field/src/MagneticField.cxx</text>
</a>
</g>
</g>
<!-- Node2&#45;&gt;Node6 -->
<g id="edge6" class="edge"><title>Node2&#45;&gt;Node6</title>
<path fill="none" stroke="midnightblue" d="M1936.69,-168.06C1936.8,-168.04 1936.9,-168.02 1937,-168 2239.16,-108.895 3017.14,-175.017 3322,-132 3332.92,-130.459 3344.37,-128.157 3355.46,-125.55"/>
<polygon fill="midnightblue" stroke="midnightblue" points="1936.04,-164.618 1927.1,-170.297 1937.63,-171.435 1936.04,-164.618"/>
</g>
<!-- Node2&#45;&gt;Node7 -->
<g id="edge7" class="edge"><title>Node2&#45;&gt;Node7</title>
<path fill="none" stroke="midnightblue" d="M1798.72,-191.943C1490.16,-182.719 252.493,-145.057 171,-132 168.109,-131.537 165.18,-131.01 162.232,-130.432"/>
<polygon fill="midnightblue" stroke="midnightblue" points="1798.77,-195.446 1808.87,-192.246 1798.98,-188.449 1798.77,-195.446"/>
</g>
<!-- Node8 -->
<g id="node8" class="node"><title>Node8</title>
<g id="a_node8"><a xlink:href="../../d3/dee/Base_2src_2Detector_8cxx.html" target="_top" xlink:title="/home/travis/build\l/AliceO2Group/AliceO2\l/Detectors/Base/src/Detector.cxx">
<polygon fill="none" stroke="black" points="3531,-84.5 3531,-125.5 3695,-125.5 3695,-84.5 3531,-84.5"/>
<text text-anchor="start" x="3539" y="-113.5" font-family="Helvetica,sans-Serif" font-size="10.00">/home/travis/build</text>
<text text-anchor="start" x="3539" y="-102.5" font-family="Helvetica,sans-Serif" font-size="10.00">/AliceO2Group/AliceO2</text>
<text text-anchor="middle" x="3613" y="-91.5" font-family="Helvetica,sans-Serif" font-size="10.00">/Detectors/Base/src/Detector.cxx</text>
</a>
</g>
</g>
<!-- Node2&#45;&gt;Node8 -->
<g id="edge8" class="edge"><title>Node2&#45;&gt;Node8</title>
<path fill="none" stroke="midnightblue" d="M1936.69,-168.06C1936.8,-168.04 1936.9,-168.02 1937,-168 2282.87,-100.932 3173.67,-184.825 3522,-132 3532.07,-130.473 3542.6,-128.16 3552.78,-125.532"/>
<polygon fill="midnightblue" stroke="midnightblue" points="1936.05,-164.617 1927.1,-170.284 1937.63,-171.436 1936.05,-164.617"/>
</g>
<!-- Node2&#45;&gt;Node9 -->
<g id="edge9" class="edge"><title>Node2&#45;&gt;Node9</title>
<path fill="none" stroke="midnightblue" d="M1798.5,-192.051C1521.68,-184.162 505.66,-153.974 363,-132 352.675,-130.41 341.869,-128.119 331.385,-125.548"/>
<polygon fill="midnightblue" stroke="midnightblue" points="1798.72,-195.558 1808.81,-192.344 1798.91,-188.561 1798.72,-195.558"/>
</g>
<!-- Node10 -->
<g id="node10" class="node"><title>Node10</title>
<g id="a_node10"><a xlink:href="../../d3/d85/Detectors_2EMCAL_2testsimulation_2run__sim__emcal_8C.html" target="_top" xlink:title="/home/travis/build\l/AliceO2Group/AliceO2\l/Detectors/EMCAL/testsimulation\l/run_sim_emcal.C">
<polygon fill="none" stroke="black" points="3713,-79 3713,-131 3877,-131 3877,-79 3713,-79"/>
<text text-anchor="start" x="3721" y="-119" font-family="Helvetica,sans-Serif" font-size="10.00">/home/travis/build</text>
<text text-anchor="start" x="3721" y="-108" font-family="Helvetica,sans-Serif" font-size="10.00">/AliceO2Group/AliceO2</text>
<text text-anchor="start" x="3721" y="-97" font-family="Helvetica,sans-Serif" font-size="10.00">/Detectors/EMCAL/testsimulation</text>
<text text-anchor="middle" x="3795" y="-86" font-family="Helvetica,sans-Serif" font-size="10.00">/run_sim_emcal.C</text>
</a>
</g>
</g>
<!-- Node2&#45;&gt;Node10 -->
<g id="edge10" class="edge"><title>Node2&#45;&gt;Node10</title>
<path fill="none" stroke="midnightblue" d="M1936.69,-168.059C1936.8,-168.039 1936.9,-168.02 1937,-168 2322.65,-93.6855 3315.62,-190.433 3704,-132 3706.92,-131.56 3709.89,-131.053 3712.87,-130.491"/>
<polygon fill="midnightblue" stroke="midnightblue" points="1936.05,-164.615 1927.1,-170.275 1937.63,-171.436 1936.05,-164.615"/>
</g>
<!-- Node11 -->
<g id="node11" class="node"><title>Node11</title>
<g id="a_node11"><a xlink:href="../../d7/dca/CookedTracker_8cxx.html" target="_top" xlink:title="Implementation of the &quot;Cooked Matrix&quot; ITS tracker. ">
<polygon fill="none" stroke="black" points="372,-79 372,-131 558,-131 558,-79 372,-79"/>
<text text-anchor="start" x="380" y="-119" font-family="Helvetica,sans-Serif" font-size="10.00">/home/travis/build</text>
<text text-anchor="start" x="380" y="-108" font-family="Helvetica,sans-Serif" font-size="10.00">/AliceO2Group/AliceO2</text>
<text text-anchor="start" x="380" y="-97" font-family="Helvetica,sans-Serif" font-size="10.00">/Detectors/ITSMFT/ITS</text>
<text text-anchor="middle" x="465" y="-86" font-family="Helvetica,sans-Serif" font-size="10.00">/reconstruction/src/CookedTracker.cxx</text>
</a>
</g>
</g>
<!-- Node2&#45;&gt;Node11 -->
<g id="edge11" class="edge"><title>Node2&#45;&gt;Node11</title>
<path fill="none" stroke="midnightblue" d="M1798.86,-192.548C1565.48,-187.357 808.015,-168.082 567,-132 564.108,-131.567 561.18,-131.087 558.23,-130.567"/>
<polygon fill="midnightblue" stroke="midnightblue" points="1798.84,-196.048 1808.92,-192.77 1799,-189.05 1798.84,-196.048"/>
</g>
<!-- Node12 -->
<g id="node12" class="node"><title>Node12</title>
<g id="a_node12"><a xlink:href="../../dd/d56/run__simu_8C.html" target="_top" xlink:title="/home/travis/build\l/AliceO2Group/AliceO2\l/Detectors/ITSMFT/MFT\l/macros/run_simu.C">
<polygon fill="none" stroke="black" points="575.5,-79 575.5,-131 700.5,-131 700.5,-79 575.5,-79"/>
<text text-anchor="start" x="583.5" y="-119" font-family="Helvetica,sans-Serif" font-size="10.00">/home/travis/build</text>
<text text-anchor="start" x="583.5" y="-108" font-family="Helvetica,sans-Serif" font-size="10.00">/AliceO2Group/AliceO2</text>
<text text-anchor="start" x="583.5" y="-97" font-family="Helvetica,sans-Serif" font-size="10.00">/Detectors/ITSMFT/MFT</text>
<text text-anchor="middle" x="638" y="-86" font-family="Helvetica,sans-Serif" font-size="10.00">/macros/run_simu.C</text>
</a>
</g>
</g>
<!-- Node2&#45;&gt;Node12 -->
<g id="edge12" class="edge"><title>Node2&#45;&gt;Node12</title>
<path fill="none" stroke="midnightblue" d="M1798.41,-192.94C1581.56,-189.217 920.031,-174.579 710,-132 706.874,-131.366 703.701,-130.623 700.518,-129.796"/>
<polygon fill="midnightblue" stroke="midnightblue" points="1798.64,-196.444 1808.7,-193.114 1798.76,-189.445 1798.64,-196.444"/>
</g>
<!-- Node13 -->
<g id="node13" class="node"><title>Node13</title>
<g id="a_node13"><a xlink:href="../../d0/d6b/ITSMFT_2MFT_2simulation_2src_2Detector_8cxx.html" target="_top" xlink:title="/home/travis/build\l/AliceO2Group/AliceO2\l/Detectors/ITSMFT/MFT\l/simulation/src/Detector.cxx">
<polygon fill="none" stroke="black" points="719,-79 719,-131 859,-131 859,-79 719,-79"/>
<text text-anchor="start" x="727" y="-119" font-family="Helvetica,sans-Serif" font-size="10.00">/home/travis/build</text>
<text text-anchor="start" x="727" y="-108" font-family="Helvetica,sans-Serif" font-size="10.00">/AliceO2Group/AliceO2</text>
<text text-anchor="start" x="727" y="-97" font-family="Helvetica,sans-Serif" font-size="10.00">/Detectors/ITSMFT/MFT</text>
<text text-anchor="middle" x="789" y="-86" font-family="Helvetica,sans-Serif" font-size="10.00">/simulation/src/Detector.cxx</text>
</a>
</g>
</g>
<!-- Node2&#45;&gt;Node13 -->
<g id="edge13" class="edge"><title>Node2&#45;&gt;Node13</title>
<path fill="none" stroke="midnightblue" d="M1798.72,-192.011C1602.72,-186.019 1046.93,-166.4 868,-132 865.164,-131.455 862.289,-130.836 859.399,-130.159"/>
<polygon fill="midnightblue" stroke="midnightblue" points="1798.79,-195.515 1808.89,-192.32 1799,-188.518 1798.79,-195.515"/>
</g>
<!-- Node14 -->
<g id="node14" class="node"><title>Node14</title>
<g id="a_node14"><a xlink:href="../../de/da5/FrameStructure_8cxx.html" target="_top" xlink:title="/home/travis/build\l/AliceO2Group/AliceO2\l/Detectors/Passive/src\l/FrameStructure.cxx">
<polygon fill="none" stroke="black" points="877,-79 877,-131 995,-131 995,-79 877,-79"/>
<text text-anchor="start" x="885" y="-119" font-family="Helvetica,sans-Serif" font-size="10.00">/home/travis/build</text>
<text text-anchor="start" x="885" y="-108" font-family="Helvetica,sans-Serif" font-size="10.00">/AliceO2Group/AliceO2</text>
<text text-anchor="start" x="885" y="-97" font-family="Helvetica,sans-Serif" font-size="10.00">/Detectors/Passive/src</text>
<text text-anchor="middle" x="936" y="-86" font-family="Helvetica,sans-Serif" font-size="10.00">/FrameStructure.cxx</text>
</a>
</g>
</g>
<!-- Node2&#45;&gt;Node14 -->
<g id="edge14" class="edge"><title>Node2&#45;&gt;Node14</title>
<path fill="none" stroke="midnightblue" d="M1798.73,-191.649C1621.51,-185.214 1155.05,-165.528 1004,-132 1001.04,-131.343 998.035,-130.58 995.023,-129.738"/>
<polygon fill="midnightblue" stroke="midnightblue" points="1798.85,-195.155 1808.97,-192.017 1799.1,-188.16 1798.85,-195.155"/>
</g>
<!-- Node15 -->
<g id="node15" class="node"><title>Node15</title>
<g id="a_node15"><a xlink:href="../../d5/d3a/run__sim__phos_8C.html" target="_top" xlink:title="/home/travis/build\l/AliceO2Group/AliceO2\l/Detectors/PHOS/testsimulation\l/run_sim_phos.C">
<polygon fill="none" stroke="black" points="1013,-79 1013,-131 1171,-131 1171,-79 1013,-79"/>
<text text-anchor="start" x="1021" y="-119" font-family="Helvetica,sans-Serif" font-size="10.00">/home/travis/build</text>
<text text-anchor="start" x="1021" y="-108" font-family="Helvetica,sans-Serif" font-size="10.00">/AliceO2Group/AliceO2</text>
<text text-anchor="start" x="1021" y="-97" font-family="Helvetica,sans-Serif" font-size="10.00">/Detectors/PHOS/testsimulation</text>
<text text-anchor="middle" x="1092" y="-86" font-family="Helvetica,sans-Serif" font-size="10.00">/run_sim_phos.C</text>
</a>
</g>
</g>
<!-- Node2&#45;&gt;Node15 -->
<g id="edge15" class="edge"><title>Node2&#45;&gt;Node15</title>
<path fill="none" stroke="midnightblue" d="M1798.48,-192.18C1673.76,-187.929 1404.17,-174.253 1181,-132 1177.84,-131.401 1174.62,-130.737 1171.39,-130.022"/>
<polygon fill="midnightblue" stroke="midnightblue" points="1798.54,-195.684 1808.65,-192.516 1798.77,-188.688 1798.54,-195.684"/>
</g>
<!-- Node16 -->
<g id="node16" class="node"><title>Node16</title>
<g id="a_node16"><a xlink:href="../../dd/d2b/o2__sim__its__ALP3_8cxx.html" target="_top" xlink:title="/home/travis/build\l/AliceO2Group/AliceO2\l/Framework/TestWorkflows\l/src/o2_sim_its_ALP3.cxx">
<polygon fill="none" stroke="black" points="1189.5,-79 1189.5,-131 1326.5,-131 1326.5,-79 1189.5,-79"/>
<text text-anchor="start" x="1197.5" y="-119" font-family="Helvetica,sans-Serif" font-size="10.00">/home/travis/build</text>
<text text-anchor="start" x="1197.5" y="-108" font-family="Helvetica,sans-Serif" font-size="10.00">/AliceO2Group/AliceO2</text>
<text text-anchor="start" x="1197.5" y="-97" font-family="Helvetica,sans-Serif" font-size="10.00">/Framework/TestWorkflows</text>
<text text-anchor="middle" x="1258" y="-86" font-family="Helvetica,sans-Serif" font-size="10.00">/src/o2_sim_its_ALP3.cxx</text>
</a>
</g>
</g>
<!-- Node2&#45;&gt;Node16 -->
<g id="edge16" class="edge"><title>Node2&#45;&gt;Node16</title>
<path fill="none" stroke="midnightblue" d="M1798.49,-190.468C1696.16,-184.243 1499.44,-168.357 1336,-132 1332.93,-131.318 1329.82,-130.561 1326.69,-129.748"/>
<polygon fill="midnightblue" stroke="midnightblue" points="1798.5,-193.975 1808.69,-191.075 1798.92,-186.987 1798.5,-193.975"/>
</g>
<!-- Node17 -->
<g id="node17" class="node"><title>Node17</title>
<g id="a_node17"><a xlink:href="../../d7/d11/o2__sim__tpc_8cxx.html" target="_top" xlink:title="/home/travis/build\l/AliceO2Group/AliceO2\l/Framework/TestWorkflows\l/src/o2_sim_tpc.cxx">
<polygon fill="none" stroke="black" points="1344.5,-79 1344.5,-131 1481.5,-131 1481.5,-79 1344.5,-79"/>
<text text-anchor="start" x="1352.5" y="-119" font-family="Helvetica,sans-Serif" font-size="10.00">/home/travis/build</text>
<text text-anchor="start" x="1352.5" y="-108" font-family="Helvetica,sans-Serif" font-size="10.00">/AliceO2Group/AliceO2</text>
<text text-anchor="start" x="1352.5" y="-97" font-family="Helvetica,sans-Serif" font-size="10.00">/Framework/TestWorkflows</text>
<text text-anchor="middle" x="1413" y="-86" font-family="Helvetica,sans-Serif" font-size="10.00">/src/o2_sim_tpc.cxx</text>
</a>
</g>
</g>
<!-- Node2&#45;&gt;Node17 -->
<g id="edge17" class="edge"><title>Node2&#45;&gt;Node17</title>
<path fill="none" stroke="midnightblue" d="M1799.02,-185.998C1722.92,-176.397 1597.15,-158.244 1491,-132 1487.95,-131.246 1484.85,-130.43 1481.73,-129.568"/>
<polygon fill="midnightblue" stroke="midnightblue" points="1798.61,-189.474 1808.97,-187.239 1799.48,-182.528 1798.61,-189.474"/>
</g>
<!-- Node18 -->
<g id="node18" class="node"><title>Node18</title>
<g id="a_node18"><a xlink:href="../../d0/d17/initSimGeomAndField_8C.html" target="_top" xlink:title="/home/travis/build\l/AliceO2Group/AliceO2\l/macro/initSimGeomAndField.C">
<polygon fill="none" stroke="black" points="1499.5,-84.5 1499.5,-125.5 1654.5,-125.5 1654.5,-84.5 1499.5,-84.5"/>
<text text-anchor="start" x="1507.5" y="-113.5" font-family="Helvetica,sans-Serif" font-size="10.00">/home/travis/build</text>
<text text-anchor="start" x="1507.5" y="-102.5" font-family="Helvetica,sans-Serif" font-size="10.00">/AliceO2Group/AliceO2</text>
<text text-anchor="middle" x="1577" y="-91.5" font-family="Helvetica,sans-Serif" font-size="10.00">/macro/initSimGeomAndField.C</text>
</a>
</g>
</g>
<!-- Node2&#45;&gt;Node18 -->
<g id="edge18" class="edge"><title>Node2&#45;&gt;Node18</title>
<path fill="none" stroke="midnightblue" d="M1799.14,-173.176C1751.48,-158.763 1688.46,-139.706 1641.72,-125.572"/>
<polygon fill="midnightblue" stroke="midnightblue" points="1798.18,-176.541 1808.76,-176.086 1800.2,-169.841 1798.18,-176.541"/>
</g>
<!-- Node19 -->
<g id="node19" class="node"><title>Node19</title>
<g id="a_node19"><a xlink:href="../../d3/db7/run__digi__tpc_8C.html" target="_top" xlink:title="/home/travis/build\l/AliceO2Group/AliceO2\l/macro/run_digi_tpc.C">
<polygon fill="none" stroke="black" points="1809,-84.5 1809,-125.5 1927,-125.5 1927,-84.5 1809,-84.5"/>
<text text-anchor="start" x="1817" y="-113.5" font-family="Helvetica,sans-Serif" font-size="10.00">/home/travis/build</text>
<text text-anchor="start" x="1817" y="-102.5" font-family="Helvetica,sans-Serif" font-size="10.00">/AliceO2Group/AliceO2</text>
<text text-anchor="middle" x="1868" y="-91.5" font-family="Helvetica,sans-Serif" font-size="10.00">/macro/run_digi_tpc.C</text>
</a>
</g>
</g>
<!-- Node2&#45;&gt;Node19 -->
<g id="edge19" class="edge"><title>Node2&#45;&gt;Node19</title>
<path fill="none" stroke="midnightblue" d="M1868,-158.515C1868,-147.257 1868,-135.227 1868,-125.525"/>
<polygon fill="midnightblue" stroke="midnightblue" points="1864.5,-158.547 1868,-168.547 1871.5,-158.547 1864.5,-158.547"/>
</g>
<!-- Node21 -->
<g id="node21" class="node"><title>Node21</title>
<g id="a_node21"><a xlink:href="../../d9/d71/run__sim_8C.html" target="_top" xlink:title="/home/travis/build\l/AliceO2Group/AliceO2\l/macro/run_sim.C">
<polygon fill="none" stroke="black" points="1945,-84.5 1945,-125.5 2063,-125.5 2063,-84.5 1945,-84.5"/>
<text text-anchor="start" x="1953" y="-113.5" font-family="Helvetica,sans-Serif" font-size="10.00">/home/travis/build</text>
<text text-anchor="start" x="1953" y="-102.5" font-family="Helvetica,sans-Serif" font-size="10.00">/AliceO2Group/AliceO2</text>
<text text-anchor="middle" x="2004" y="-91.5" font-family="Helvetica,sans-Serif" font-size="10.00">/macro/run_sim.C</text>
</a>
</g>
</g>
<!-- Node2&#45;&gt;Node21 -->
<g id="edge21" class="edge"><title>Node2&#45;&gt;Node21</title>
<path fill="none" stroke="midnightblue" d="M1915.38,-163.345C1934.72,-150.828 1956.53,-136.719 1973.67,-125.628"/>
<polygon fill="midnightblue" stroke="midnightblue" points="1913.47,-160.412 1906.97,-168.783 1917.27,-166.289 1913.47,-160.412"/>
</g>
<!-- Node22 -->
<g id="node22" class="node"><title>Node22</title>
<g id="a_node22"><a xlink:href="../../db/df3/macro_2run__sim__emcal_8C.html" target="_top" xlink:title="/home/travis/build\l/AliceO2Group/AliceO2\l/macro/run_sim_emcal.C">
<polygon fill="none" stroke="black" points="2081,-84.5 2081,-125.5 2207,-125.5 2207,-84.5 2081,-84.5"/>
<text text-anchor="start" x="2089" y="-113.5" font-family="Helvetica,sans-Serif" font-size="10.00">/home/travis/build</text>
<text text-anchor="start" x="2089" y="-102.5" font-family="Helvetica,sans-Serif" font-size="10.00">/AliceO2Group/AliceO2</text>
<text text-anchor="middle" x="2144" y="-91.5" font-family="Helvetica,sans-Serif" font-size="10.00">/macro/run_sim_emcal.C</text>
</a>
</g>
</g>
<!-- Node2&#45;&gt;Node22 -->
<g id="edge22" class="edge"><title>Node2&#45;&gt;Node22</title>
<path fill="none" stroke="midnightblue" d="M1936.7,-168.096C1936.8,-168.064 1936.9,-168.032 1937,-168 1996.13,-149.028 2012.74,-150.563 2072,-132 2078.34,-130.014 2084.95,-127.811 2091.49,-125.553"/>
<polygon fill="midnightblue" stroke="midnightblue" points="1935.72,-164.734 1927.33,-171.213 1937.93,-171.376 1935.72,-164.734"/>
</g>
<!-- Node23 -->
<g id="node23" class="node"><title>Node23</title>
<g id="a_node23"><a xlink:href="../../d5/dd2/run__sim__its__ALP3_8C.html" target="_top" xlink:title="/home/travis/build\l/AliceO2Group/AliceO2\l/macro/run_sim_its_ALP3.C">
<polygon fill="none" stroke="black" points="2225,-84.5 2225,-125.5 2365,-125.5 2365,-84.5 2225,-84.5"/>
<text text-anchor="start" x="2233" y="-113.5" font-family="Helvetica,sans-Serif" font-size="10.00">/home/travis/build</text>
<text text-anchor="start" x="2233" y="-102.5" font-family="Helvetica,sans-Serif" font-size="10.00">/AliceO2Group/AliceO2</text>
<text text-anchor="middle" x="2295" y="-91.5" font-family="Helvetica,sans-Serif" font-size="10.00">/macro/run_sim_its_ALP3.C</text>
</a>
</g>
</g>
<!-- Node2&#45;&gt;Node23 -->
<g id="edge23" class="edge"><title>Node2&#45;&gt;Node23</title>
<path fill="none" stroke="midnightblue" d="M1936.7,-168.076C1936.8,-168.05 1936.9,-168.025 1937,-168 2058.31,-137.754 2094.07,-159.667 2216,-132 2223.89,-130.211 2232.1,-127.96 2240.13,-125.536"/>
<polygon fill="midnightblue" stroke="midnightblue" points="1935.9,-164.666 1927.19,-170.7 1937.76,-171.413 1935.9,-164.666"/>
</g>
<!-- Node24 -->
<g id="node24" class="node"><title>Node24</title>
<g id="a_node24"><a xlink:href="../../d4/d5f/run__sim__mft_8C.html" target="_top" xlink:title="/home/travis/build\l/AliceO2Group/AliceO2\l/macro/run_sim_mft.C">
<polygon fill="none" stroke="black" points="2383,-84.5 2383,-125.5 2501,-125.5 2501,-84.5 2383,-84.5"/>
<text text-anchor="start" x="2391" y="-113.5" font-family="Helvetica,sans-Serif" font-size="10.00">/home/travis/build</text>
<text text-anchor="start" x="2391" y="-102.5" font-family="Helvetica,sans-Serif" font-size="10.00">/AliceO2Group/AliceO2</text>
<text text-anchor="middle" x="2442" y="-91.5" font-family="Helvetica,sans-Serif" font-size="10.00">/macro/run_sim_mft.C</text>
</a>
</g>
</g>
<!-- Node2&#45;&gt;Node24 -->
<g id="edge24" class="edge"><title>Node2&#45;&gt;Node24</title>
<path fill="none" stroke="midnightblue" d="M1936.7,-168.069C1936.8,-168.046 1936.9,-168.023 1937,-168 2127.13,-125.229 2183.98,-175.232 2374,-132 2381.27,-130.346 2388.8,-128.073 2396.09,-125.555"/>
<polygon fill="midnightblue" stroke="midnightblue" points="1935.96,-164.643 1927.15,-170.519 1937.7,-171.424 1935.96,-164.643"/>
</g>
<!-- Node25 -->
<g id="node25" class="node"><title>Node25</title>
<g id="a_node25"><a xlink:href="../../d3/dcc/run__sim__pythia8hi_8C.html" target="_top" xlink:title="/home/travis/build\l/AliceO2Group/AliceO2\l/macro/run_sim_pythia8hi.C">
<polygon fill="none" stroke="black" points="2519.5,-84.5 2519.5,-125.5 2658.5,-125.5 2658.5,-84.5 2519.5,-84.5"/>
<text text-anchor="start" x="2527.5" y="-113.5" font-family="Helvetica,sans-Serif" font-size="10.00">/home/travis/build</text>
<text text-anchor="start" x="2527.5" y="-102.5" font-family="Helvetica,sans-Serif" font-size="10.00">/AliceO2Group/AliceO2</text>
<text text-anchor="middle" x="2589" y="-91.5" font-family="Helvetica,sans-Serif" font-size="10.00">/macro/run_sim_pythia8hi.C</text>
</a>
</g>
</g>
<!-- Node2&#45;&gt;Node25 -->
<g id="edge25" class="edge"><title>Node2&#45;&gt;Node25</title>
<path fill="none" stroke="midnightblue" d="M1936.69,-168.066C1936.8,-168.044 1936.9,-168.022 1937,-168 2186.48,-114.42 2259.44,-180.278 2510,-132 2518.51,-130.361 2527.37,-128.062 2535.94,-125.502"/>
<polygon fill="midnightblue" stroke="midnightblue" points="1935.99,-164.634 1927.13,-170.442 1937.68,-171.428 1935.99,-164.634"/>
</g>
<!-- Node26 -->
<g id="node26" class="node"><title>Node26</title>
<g id="a_node26"><a xlink:href="../../dc/d6a/run__sim__tof_8C.html" target="_top" xlink:title="/home/travis/build\l/AliceO2Group/AliceO2\l/macro/run_sim_tof.C">
<polygon fill="none" stroke="black" points="2677,-84.5 2677,-125.5 2795,-125.5 2795,-84.5 2677,-84.5"/>
<text text-anchor="start" x="2685" y="-113.5" font-family="Helvetica,sans-Serif" font-size="10.00">/home/travis/build</text>
<text text-anchor="start" x="2685" y="-102.5" font-family="Helvetica,sans-Serif" font-size="10.00">/AliceO2Group/AliceO2</text>
<text text-anchor="middle" x="2736" y="-91.5" font-family="Helvetica,sans-Serif" font-size="10.00">/macro/run_sim_tof.C</text>
</a>
</g>
</g>
<!-- Node2&#45;&gt;Node26 -->
<g id="edge26" class="edge"><title>Node2&#45;&gt;Node26</title>
<path fill="none" stroke="midnightblue" d="M1936.69,-168.064C1936.8,-168.042 1936.9,-168.021 1937,-168 2255.05,-101.932 2348.95,-198.068 2667,-132 2674.65,-130.412 2682.57,-128.104 2690.19,-125.51"/>
<polygon fill="midnightblue" stroke="midnightblue" points="1936.01,-164.628 1927.12,-170.389 1937.66,-171.431 1936.01,-164.628"/>
</g>
<!-- Node27 -->
<g id="node27" class="node"><title>Node27</title>
<g id="a_node27"><a xlink:href="../../d7/d08/run__sim__tpc_8C.html" target="_top" xlink:title="/home/travis/build\l/AliceO2Group/AliceO2\l/macro/run_sim_tpc.C">
<polygon fill="none" stroke="black" points="1673,-84.5 1673,-125.5 1791,-125.5 1791,-84.5 1673,-84.5"/>
<text text-anchor="start" x="1681" y="-113.5" font-family="Helvetica,sans-Serif" font-size="10.00">/home/travis/build</text>
<text text-anchor="start" x="1681" y="-102.5" font-family="Helvetica,sans-Serif" font-size="10.00">/AliceO2Group/AliceO2</text>
<text text-anchor="middle" x="1732" y="-91.5" font-family="Helvetica,sans-Serif" font-size="10.00">/macro/run_sim_tpc.C</text>
</a>
</g>
</g>
<!-- Node2&#45;&gt;Node27 -->
<g id="edge27" class="edge"><title>Node2&#45;&gt;Node27</title>
<path fill="none" stroke="midnightblue" d="M1820.62,-163.345C1801.28,-150.828 1779.47,-136.719 1762.33,-125.628"/>
<polygon fill="midnightblue" stroke="midnightblue" points="1818.73,-166.289 1829.03,-168.783 1822.53,-160.412 1818.73,-166.289"/>
</g>
<!-- Node28 -->
<g id="node28" class="node"><title>Node28</title>
<g id="a_node28"><a xlink:href="../../dd/d4e/run__trac__its_8C.html" target="_top" xlink:title="/home/travis/build\l/AliceO2Group/AliceO2\l/macro/run_trac_its.C">
<polygon fill="none" stroke="black" points="2813,-84.5 2813,-125.5 2931,-125.5 2931,-84.5 2813,-84.5"/>
<text text-anchor="start" x="2821" y="-113.5" font-family="Helvetica,sans-Serif" font-size="10.00">/home/travis/build</text>
<text text-anchor="start" x="2821" y="-102.5" font-family="Helvetica,sans-Serif" font-size="10.00">/AliceO2Group/AliceO2</text>
<text text-anchor="middle" x="2872" y="-91.5" font-family="Helvetica,sans-Serif" font-size="10.00">/macro/run_trac_its.C</text>
</a>
</g>
</g>
<!-- Node2&#45;&gt;Node28 -->
<g id="edge29" class="edge"><title>Node2&#45;&gt;Node28</title>
<path fill="none" stroke="midnightblue" d="M1936.69,-168.063C1936.8,-168.042 1936.9,-168.021 1937,-168 2314.91,-91.0293 2426.28,-209.886 2804,-132 2811.55,-130.443 2819.36,-128.152 2826.89,-125.565"/>
<polygon fill="midnightblue" stroke="midnightblue" points="1936.02,-164.625 1927.11,-170.359 1937.65,-171.432 1936.02,-164.625"/>
</g>
<!-- Node3&#45;&gt;Node4 -->
<g id="edge3" class="edge"><title>Node3&#45;&gt;Node4</title>
<path fill="none" stroke="midnightblue" d="M3025.85,-69.9541C3030.9,-60.3259 3036.23,-50.1706 3040.67,-41.6965"/>
<polygon fill="midnightblue" stroke="midnightblue" points="3022.68,-68.4701 3021.14,-78.9517 3028.88,-71.721 3022.68,-68.4701"/>
</g>
<!-- Node20 -->
<g id="node20" class="node"><title>Node20</title>
<g id="a_node20"><a xlink:href="../../d3/d56/runTPC_8cxx.html" target="_top" xlink:title="/home/travis/build\l/AliceO2Group/AliceO2\l/run/runTPC.cxx">
<polygon fill="none" stroke="black" points="1741,-0.5 1741,-41.5 1859,-41.5 1859,-0.5 1741,-0.5"/>
<text text-anchor="start" x="1749" y="-29.5" font-family="Helvetica,sans-Serif" font-size="10.00">/home/travis/build</text>
<text text-anchor="start" x="1749" y="-18.5" font-family="Helvetica,sans-Serif" font-size="10.00">/AliceO2Group/AliceO2</text>
<text text-anchor="middle" x="1800" y="-7.5" font-family="Helvetica,sans-Serif" font-size="10.00">/run/runTPC.cxx</text>
</a>
</g>
</g>
<!-- Node19&#45;&gt;Node20 -->
<g id="edge20" class="edge"><title>Node19&#45;&gt;Node20</title>
<path fill="none" stroke="midnightblue" d="M1844.96,-76.2137C1835.55,-64.8686 1824.89,-52.0121 1816.31,-41.6671"/>
<polygon fill="midnightblue" stroke="midnightblue" points="1842.46,-78.6867 1851.54,-84.1501 1847.85,-74.2183 1842.46,-78.6867"/>
</g>
<!-- Node27&#45;&gt;Node20 -->
<g id="edge28" class="edge"><title>Node27&#45;&gt;Node20</title>
<path fill="none" stroke="midnightblue" d="M1755.04,-76.2137C1764.45,-64.8686 1775.11,-52.0121 1783.69,-41.6671"/>
<polygon fill="midnightblue" stroke="midnightblue" points="1752.15,-74.2183 1748.46,-84.1501 1757.54,-78.6867 1752.15,-74.2183"/>
</g>
</g>
</svg>
