<?xml version="1.0" encoding="UTF-8" standalone="no"?>
<!DOCTYPE svg PUBLIC "-//W3C//DTD SVG 1.1//EN"
 "http://www.w3.org/Graphics/SVG/1.1/DTD/svg11.dtd">
<!-- Generated by graphviz version 2.36.0 (20140111.2315)
 -->
<!-- Title: /home/travis/build/AliceO2Group/AliceO2/Common/Field/include/Field/MagFieldParam.h Pages: 1 -->
<svg width="4105pt" height="320pt"
 viewBox="0.00 0.00 4105.00 320.00" xmlns="http://www.w3.org/2000/svg" xmlns:xlink="http://www.w3.org/1999/xlink">
<g id="graph0" class="graph" transform="scale(1 1) rotate(0) translate(4 316)">
<title>/home/travis/build/AliceO2Group/AliceO2/Common/Field/include/Field/MagFieldParam.h</title>
<!-- Node1 -->
<g id="node1" class="node"><title>Node1</title>
<polygon fill="#bfbfbf" stroke="black" points="3804,-259 3804,-311 3924,-311 3924,-259 3804,-259"/>
<text text-anchor="start" x="3812" y="-299" font-family="Helvetica,sans-Serif" font-size="10.00">/home/travis/build</text>
<text text-anchor="start" x="3812" y="-288" font-family="Helvetica,sans-Serif" font-size="10.00">/AliceO2Group/AliceO2</text>
<text text-anchor="start" x="3812" y="-277" font-family="Helvetica,sans-Serif" font-size="10.00">/Common/Field/include</text>
<text text-anchor="middle" x="3864" y="-266" font-family="Helvetica,sans-Serif" font-size="10.00">/Field/MagFieldParam.h</text>
</g>
<!-- Node2 -->
<g id="node2" class="node"><title>Node2</title>
<g id="a_node2"><a xlink:href="../../db/d4b/MagneticField_8h.html" target="_top" xlink:title="Definition of the MagF class. ">
<polygon fill="none" stroke="black" points="2160,-169 2160,-221 2278,-221 2278,-169 2160,-169"/>
<text text-anchor="start" x="2168" y="-209" font-family="Helvetica,sans-Serif" font-size="10.00">/home/travis/build</text>
<text text-anchor="start" x="2168" y="-198" font-family="Helvetica,sans-Serif" font-size="10.00">/AliceO2Group/AliceO2</text>
<text text-anchor="start" x="2168" y="-187" font-family="Helvetica,sans-Serif" font-size="10.00">/Common/Field/include</text>
<text text-anchor="middle" x="2219" y="-176" font-family="Helvetica,sans-Serif" font-size="10.00">/Field/MagneticField.h</text>
</a>
</g>
</g>
<!-- Node1&#45;&gt;Node2 -->
<g id="edge1" class="edge"><title>Node1&#45;&gt;Node2</title>
<path fill="none" stroke="midnightblue" d="M3793.82,-280.246C3520.72,-265.636 2531.6,-212.722 2278.38,-199.176"/>
<polygon fill="midnightblue" stroke="midnightblue" points="3793.82,-283.751 3803.99,-280.79 3794.19,-276.761 3793.82,-283.751"/>
</g>
<!-- Node4 -->
<g id="node4" class="node"><title>Node4</title>
<g id="a_node4"><a xlink:href="../../d0/dec/MagFieldFact_8cxx.html" target="_top" xlink:title="/home/travis/build\l/AliceO2Group/AliceO2\l/Common/Field/src/MagFieldFact.cxx">
<polygon fill="none" stroke="black" points="3568.5,-0.5 3568.5,-41.5 3749.5,-41.5 3749.5,-0.5 3568.5,-0.5"/>
<text text-anchor="start" x="3576.5" y="-29.5" font-family="Helvetica,sans-Serif" font-size="10.00">/home/travis/build</text>
<text text-anchor="start" x="3576.5" y="-18.5" font-family="Helvetica,sans-Serif" font-size="10.00">/AliceO2Group/AliceO2</text>
<text text-anchor="middle" x="3659" y="-7.5" font-family="Helvetica,sans-Serif" font-size="10.00">/Common/Field/src/MagFieldFact.cxx</text>
</a>
</g>
</g>
<!-- Node1&#45;&gt;Node4 -->
<g id="edge31" class="edge"><title>Node1&#45;&gt;Node4</title>
<path fill="none" stroke="midnightblue" d="M3881.13,-249.464C3900.5,-204.922 3924.64,-127.33 3886,-78 3868.89,-56.1506 3805.28,-41.6647 3749.74,-32.9101"/>
<polygon fill="midnightblue" stroke="midnightblue" points="3877.88,-248.156 3876.97,-258.711 3884.27,-251.027 3877.88,-248.156"/>
</g>
<!-- Node5 -->
<g id="node5" class="node"><title>Node5</title>
<g id="a_node5"><a xlink:href="../../df/d54/MagFieldParam_8cxx.html" target="_top" xlink:title="Implementation of the MagFieldParam class. ">
<polygon fill="none" stroke="black" points="3687,-84.5 3687,-125.5 3877,-125.5 3877,-84.5 3687,-84.5"/>
<text text-anchor="start" x="3695" y="-113.5" font-family="Helvetica,sans-Serif" font-size="10.00">/home/travis/build</text>
<text text-anchor="start" x="3695" y="-102.5" font-family="Helvetica,sans-Serif" font-size="10.00">/AliceO2Group/AliceO2</text>
<text text-anchor="middle" x="3782" y="-91.5" font-family="Helvetica,sans-Serif" font-size="10.00">/Common/Field/src/MagFieldParam.cxx</text>
</a>
</g>
</g>
<!-- Node1&#45;&gt;Node5 -->
<g id="edge32" class="edge"><title>Node1&#45;&gt;Node5</title>
<path fill="none" stroke="midnightblue" d="M3848.11,-249.499C3831.1,-212.58 3804.72,-155.319 3790.99,-125.52"/>
<polygon fill="midnightblue" stroke="midnightblue" points="3845.06,-251.256 3852.43,-258.874 3851.42,-248.327 3845.06,-251.256"/>
</g>
<!-- Node29 -->
<g id="node29" class="node"><title>Node29</title>
<g id="a_node29"><a xlink:href="../../da/d9c/MagFieldContFact_8cxx.html" target="_top" xlink:title="Implementation of the MagFieldContFact: factory for ALICE mag. field. ">
<polygon fill="none" stroke="black" points="3933,-169 3933,-221 4097,-221 4097,-169 3933,-169"/>
<text text-anchor="start" x="3941" y="-209" font-family="Helvetica,sans-Serif" font-size="10.00">/home/travis/build</text>
<text text-anchor="start" x="3941" y="-198" font-family="Helvetica,sans-Serif" font-size="10.00">/AliceO2Group/AliceO2</text>
<text text-anchor="start" x="3941" y="-187" font-family="Helvetica,sans-Serif" font-size="10.00">/Common/Field/src/MagFieldCont</text>
<text text-anchor="middle" x="4015" y="-176" font-family="Helvetica,sans-Serif" font-size="10.00">Fact.cxx</text>
</a>
</g>
</g>
<!-- Node1&#45;&gt;Node29 -->
<g id="edge30" class="edge"><title>Node1&#45;&gt;Node29</title>
<path fill="none" stroke="midnightblue" d="M3916.04,-253.67C3934.29,-243.038 3954.56,-231.222 3971.98,-221.069"/>
<polygon fill="midnightblue" stroke="midnightblue" points="3914.15,-250.724 3907.27,-258.783 3917.67,-256.771 3914.15,-250.724"/>
</g>
<!-- Node3 -->
<g id="node3" class="node"><title>Node3</title>
<g id="a_node3"><a xlink:href="../../da/d34/MagFieldFact_8h.html" target="_top" xlink:title="Definition of the MagFieldFact: factory for ALIDE mag. field from MagFieldParam. ">
<polygon fill="none" stroke="black" points="3513,-79 3513,-131 3631,-131 3631,-79 3513,-79"/>
<text text-anchor="start" x="3521" y="-119" font-family="Helvetica,sans-Serif" font-size="10.00">/home/travis/build</text>
<text text-anchor="start" x="3521" y="-108" font-family="Helvetica,sans-Serif" font-size="10.00">/AliceO2Group/AliceO2</text>
<text text-anchor="start" x="3521" y="-97" font-family="Helvetica,sans-Serif" font-size="10.00">/Common/Field/include</text>
<text text-anchor="middle" x="3572" y="-86" font-family="Helvetica,sans-Serif" font-size="10.00">/Field/MagFieldFact.h</text>
</a>
</g>
</g>
<!-- Node2&#45;&gt;Node3 -->
<g id="edge2" class="edge"><title>Node2&#45;&gt;Node3</title>
<path fill="none" stroke="midnightblue" d="M2288.27,-193.539C2520.29,-191.544 3268.68,-181.346 3504,-132 3506.97,-131.377 3509.98,-130.643 3513,-129.823"/>
<polygon fill="midnightblue" stroke="midnightblue" points="2288.24,-190.039 2278.27,-193.622 2288.3,-197.039 2288.24,-190.039"/>
</g>
<!-- Node2&#45;&gt;Node4 -->
<g id="edge4" class="edge"><title>Node2&#45;&gt;Node4</title>
<path fill="none" stroke="midnightblue" d="M2288.43,-193.369C2566.69,-190.533 3588.78,-177.073 3640,-132 3665.31,-109.722 3664.99,-66.911 3662.19,-41.7708"/>
<polygon fill="midnightblue" stroke="midnightblue" points="2288.03,-189.872 2278.06,-193.473 2288.1,-196.872 2288.03,-189.872"/>
</g>
<!-- Node2&#45;&gt;Node5 -->
<g id="edge5" class="edge"><title>Node2&#45;&gt;Node5</title>
<path fill="none" stroke="midnightblue" d="M2288.5,-192.802C2539.76,-188.193 3400.57,-169.943 3673,-132 3684.56,-130.39 3696.69,-128.106 3708.49,-125.553"/>
<polygon fill="midnightblue" stroke="midnightblue" points="2288.34,-189.304 2278.4,-192.985 2288.46,-196.303 2288.34,-189.304"/>
</g>
<!-- Node6 -->
<g id="node6" class="node"><title>Node6</title>
<g id="a_node6"><a xlink:href="../../d2/d78/MagneticField_8cxx.html" target="_top" xlink:title="/home/travis/build\l/AliceO2Group/AliceO2\l/Common/Field/src/MagneticField.cxx">
<polygon fill="none" stroke="black" points="0,-84.5 0,-125.5 182,-125.5 182,-84.5 0,-84.5"/>
<text text-anchor="start" x="8" y="-113.5" font-family="Helvetica,sans-Serif" font-size="10.00">/home/travis/build</text>
<text text-anchor="start" x="8" y="-102.5" font-family="Helvetica,sans-Serif" font-size="10.00">/AliceO2Group/AliceO2</text>
<text text-anchor="middle" x="91" y="-91.5" font-family="Helvetica,sans-Serif" font-size="10.00">/Common/Field/src/MagneticField.cxx</text>
</a>
</g>
</g>
<!-- Node2&#45;&gt;Node6 -->
<g id="edge6" class="edge"><title>Node2&#45;&gt;Node6</title>
<path fill="none" stroke="midnightblue" d="M2149.47,-193.961C1839.44,-193.464 581.229,-187.973 191,-132 180.08,-130.434 168.635,-128.119 157.548,-125.507"/>
<polygon fill="midnightblue" stroke="midnightblue" points="2149.66,-197.461 2159.67,-193.976 2149.67,-190.461 2149.66,-197.461"/>
</g>
<!-- Node7 -->
<g id="node7" class="node"><title>Node7</title>
<g id="a_node7"><a xlink:href="../../d6/dda/testMagneticField_8cxx.html" target="_top" xlink:title="/home/travis/build\l/AliceO2Group/AliceO2\l/Common/Field/test/testMagnetic\lField.cxx">
<polygon fill="none" stroke="black" points="200,-79 200,-131 362,-131 362,-79 200,-79"/>
<text text-anchor="start" x="208" y="-119" font-family="Helvetica,sans-Serif" font-size="10.00">/home/travis/build</text>
<text text-anchor="start" x="208" y="-108" font-family="Helvetica,sans-Serif" font-size="10.00">/AliceO2Group/AliceO2</text>
<text text-anchor="start" x="208" y="-97" font-family="Helvetica,sans-Serif" font-size="10.00">/Common/Field/test/testMagnetic</text>
<text text-anchor="middle" x="281" y="-86" font-family="Helvetica,sans-Serif" font-size="10.00">Field.cxx</text>
</a>
</g>
</g>
<!-- Node2&#45;&gt;Node7 -->
<g id="edge7" class="edge"><title>Node2&#45;&gt;Node7</title>
<path fill="none" stroke="midnightblue" d="M2149.93,-193.967C1857.91,-193.478 723.497,-187.94 371,-132 368.109,-131.541 365.179,-131.018 362.231,-130.443"/>
<polygon fill="midnightblue" stroke="midnightblue" points="2149.95,-197.467 2159.96,-193.983 2149.96,-190.467 2149.95,-197.467"/>
</g>
<!-- Node8 -->
<g id="node8" class="node"><title>Node8</title>
<g id="a_node8"><a xlink:href="../../d3/dee/Base_2src_2Detector_8cxx.html" target="_top" xlink:title="/home/travis/build\l/AliceO2Group/AliceO2\l/Detectors/Base/src/Detector.cxx">
<polygon fill="none" stroke="black" points="380,-84.5 380,-125.5 544,-125.5 544,-84.5 380,-84.5"/>
<text text-anchor="start" x="388" y="-113.5" font-family="Helvetica,sans-Serif" font-size="10.00">/home/travis/build</text>
<text text-anchor="start" x="388" y="-102.5" font-family="Helvetica,sans-Serif" font-size="10.00">/AliceO2Group/AliceO2</text>
<text text-anchor="middle" x="462" y="-91.5" font-family="Helvetica,sans-Serif" font-size="10.00">/Detectors/Base/src/Detector.cxx</text>
</a>
</g>
</g>
<!-- Node2&#45;&gt;Node8 -->
<g id="edge8" class="edge"><title>Node2&#45;&gt;Node8</title>
<path fill="none" stroke="midnightblue" d="M2149.64,-193.644C1875.61,-191.893 868.021,-182.111 553,-132 543.102,-130.425 532.754,-128.125 522.732,-125.534"/>
<polygon fill="midnightblue" stroke="midnightblue" points="2149.82,-197.145 2159.84,-193.708 2149.87,-190.145 2149.82,-197.145"/>
</g>
<!-- Node9 -->
<g id="node9" class="node"><title>Node9</title>
<g id="a_node9"><a xlink:href="../../d8/dee/Propagator_8cxx.html" target="_top" xlink:title="/home/travis/build\l/AliceO2Group/AliceO2\l/Detectors/Base/src/Propagator.cxx">
<polygon fill="none" stroke="black" points="562.5,-84.5 562.5,-125.5 735.5,-125.5 735.5,-84.5 562.5,-84.5"/>
<text text-anchor="start" x="570.5" y="-113.5" font-family="Helvetica,sans-Serif" font-size="10.00">/home/travis/build</text>
<text text-anchor="start" x="570.5" y="-102.5" font-family="Helvetica,sans-Serif" font-size="10.00">/AliceO2Group/AliceO2</text>
<text text-anchor="middle" x="649" y="-91.5" font-family="Helvetica,sans-Serif" font-size="10.00">/Detectors/Base/src/Propagator.cxx</text>
</a>
</g>
</g>
<!-- Node2&#45;&gt;Node9 -->
<g id="edge9" class="edge"><title>Node2&#45;&gt;Node9</title>
<path fill="none" stroke="midnightblue" d="M2149.8,-193.129C1896.61,-189.627 1021.04,-174.641 745,-132 734.676,-130.405 723.87,-128.112 713.386,-125.54"/>
<polygon fill="midnightblue" stroke="midnightblue" points="2149.92,-196.631 2159.97,-193.269 2150.02,-189.632 2149.92,-196.631"/>
</g>
<!-- Node10 -->
<g id="node10" class="node"><title>Node10</title>
<g id="a_node10"><a xlink:href="../../d3/d85/Detectors_2EMCAL_2testsimulation_2run__sim__emcal_8C.html" target="_top" xlink:title="/home/travis/build\l/AliceO2Group/AliceO2\l/Detectors/EMCAL/testsimulation\l/run_sim_emcal.C">
<polygon fill="none" stroke="black" points="754,-79 754,-131 918,-131 918,-79 754,-79"/>
<text text-anchor="start" x="762" y="-119" font-family="Helvetica,sans-Serif" font-size="10.00">/home/travis/build</text>
<text text-anchor="start" x="762" y="-108" font-family="Helvetica,sans-Serif" font-size="10.00">/AliceO2Group/AliceO2</text>
<text text-anchor="start" x="762" y="-97" font-family="Helvetica,sans-Serif" font-size="10.00">/Detectors/EMCAL/testsimulation</text>
<text text-anchor="middle" x="836" y="-86" font-family="Helvetica,sans-Serif" font-size="10.00">/run_sim_emcal.C</text>
</a>
</g>
</g>
<!-- Node2&#45;&gt;Node10 -->
<g id="edge10" class="edge"><title>Node2&#45;&gt;Node10</title>
<path fill="none" stroke="midnightblue" d="M2149.9,-192.782C1917.54,-188.356 1165.67,-171.282 927,-132 924.082,-131.52 921.124,-130.978 918.147,-130.387"/>
<polygon fill="midnightblue" stroke="midnightblue" points="2149.85,-196.281 2159.91,-192.971 2149.98,-189.282 2149.85,-196.281"/>
</g>
<!-- Node11 -->
<g id="node11" class="node"><title>Node11</title>
<g id="a_node11"><a xlink:href="../../d7/dca/CookedTracker_8cxx.html" target="_top" xlink:title="Implementation of the &quot;Cooked Matrix&quot; ITS tracker. ">
<polygon fill="none" stroke="black" points="936,-79 936,-131 1122,-131 1122,-79 936,-79"/>
<text text-anchor="start" x="944" y="-119" font-family="Helvetica,sans-Serif" font-size="10.00">/home/travis/build</text>
<text text-anchor="start" x="944" y="-108" font-family="Helvetica,sans-Serif" font-size="10.00">/AliceO2Group/AliceO2</text>
<text text-anchor="start" x="944" y="-97" font-family="Helvetica,sans-Serif" font-size="10.00">/Detectors/ITSMFT/ITS</text>
<text text-anchor="middle" x="1029" y="-86" font-family="Helvetica,sans-Serif" font-size="10.00">/reconstruction/src/CookedTracker.cxx</text>
</a>
</g>
</g>
<!-- Node2&#45;&gt;Node11 -->
<g id="edge11" class="edge"><title>Node2&#45;&gt;Node11</title>
<path fill="none" stroke="midnightblue" d="M2149.67,-194.658C1976.66,-195.305 1512.36,-190.907 1131,-132 1128.11,-131.554 1125.18,-131.062 1122.24,-130.531"/>
<polygon fill="midnightblue" stroke="midnightblue" points="2149.92,-198.157 2159.91,-194.613 2149.89,-191.157 2149.92,-198.157"/>
</g>
<!-- Node12 -->
<g id="node12" class="node"><title>Node12</title>
<g id="a_node12"><a xlink:href="../../dd/d56/run__simu_8C.html" target="_top" xlink:title="/home/travis/build\l/AliceO2Group/AliceO2\l/Detectors/ITSMFT/MFT\l/macros/run_simu.C">
<polygon fill="none" stroke="black" points="1139.5,-79 1139.5,-131 1264.5,-131 1264.5,-79 1139.5,-79"/>
<text text-anchor="start" x="1147.5" y="-119" font-family="Helvetica,sans-Serif" font-size="10.00">/home/travis/build</text>
<text text-anchor="start" x="1147.5" y="-108" font-family="Helvetica,sans-Serif" font-size="10.00">/AliceO2Group/AliceO2</text>
<text text-anchor="start" x="1147.5" y="-97" font-family="Helvetica,sans-Serif" font-size="10.00">/Detectors/ITSMFT/MFT</text>
<text text-anchor="middle" x="1202" y="-86" font-family="Helvetica,sans-Serif" font-size="10.00">/macros/run_simu.C</text>
</a>
</g>
</g>
<!-- Node2&#45;&gt;Node12 -->
<g id="edge12" class="edge"><title>Node2&#45;&gt;Node12</title>
<path fill="none" stroke="midnightblue" d="M2149.91,-191.982C1961.46,-186.078 1441.51,-167.009 1274,-132 1270.88,-131.347 1267.71,-130.589 1264.53,-129.75"/>
<polygon fill="midnightblue" stroke="midnightblue" points="2149.86,-195.482 2159.97,-192.295 2150.08,-188.486 2149.86,-195.482"/>
</g>
<!-- Node13 -->
<g id="node13" class="node"><title>Node13</title>
<g id="a_node13"><a xlink:href="../../d0/d6b/ITSMFT_2MFT_2simulation_2src_2Detector_8cxx.html" target="_top" xlink:title="/home/travis/build\l/AliceO2Group/AliceO2\l/Detectors/ITSMFT/MFT\l/simulation/src/Detector.cxx">
<polygon fill="none" stroke="black" points="1283,-79 1283,-131 1423,-131 1423,-79 1283,-79"/>
<text text-anchor="start" x="1291" y="-119" font-family="Helvetica,sans-Serif" font-size="10.00">/home/travis/build</text>
<text text-anchor="start" x="1291" y="-108" font-family="Helvetica,sans-Serif" font-size="10.00">/AliceO2Group/AliceO2</text>
<text text-anchor="start" x="1291" y="-97" font-family="Helvetica,sans-Serif" font-size="10.00">/Detectors/ITSMFT/MFT</text>
<text text-anchor="middle" x="1353" y="-86" font-family="Helvetica,sans-Serif" font-size="10.00">/simulation/src/Detector.cxx</text>
</a>
</g>
</g>
<!-- Node2&#45;&gt;Node13 -->
<g id="edge13" class="edge"><title>Node2&#45;&gt;Node13</title>
<path fill="none" stroke="midnightblue" d="M2149.57,-194.074C2011.49,-193.009 1693.2,-184.48 1432,-132 1429.17,-131.431 1426.3,-130.792 1423.41,-130.098"/>
<polygon fill="midnightblue" stroke="midnightblue" points="2149.57,-197.574 2159.59,-194.141 2149.62,-190.575 2149.57,-197.574"/>
</g>
<!-- Node14 -->
<g id="node14" class="node"><title>Node14</title>
<g id="a_node14"><a xlink:href="../../de/da5/FrameStructure_8cxx.html" target="_top" xlink:title="/home/travis/build\l/AliceO2Group/AliceO2\l/Detectors/Passive/src\l/FrameStructure.cxx">
<polygon fill="none" stroke="black" points="1441,-79 1441,-131 1559,-131 1559,-79 1441,-79"/>
<text text-anchor="start" x="1449" y="-119" font-family="Helvetica,sans-Serif" font-size="10.00">/home/travis/build</text>
<text text-anchor="start" x="1449" y="-108" font-family="Helvetica,sans-Serif" font-size="10.00">/AliceO2Group/AliceO2</text>
<text text-anchor="start" x="1449" y="-97" font-family="Helvetica,sans-Serif" font-size="10.00">/Detectors/Passive/src</text>
<text text-anchor="middle" x="1500" y="-86" font-family="Helvetica,sans-Serif" font-size="10.00">/FrameStructure.cxx</text>
</a>
</g>
</g>
<!-- Node2&#45;&gt;Node14 -->
<g id="edge14" class="edge"><title>Node2&#45;&gt;Node14</title>
<path fill="none" stroke="midnightblue" d="M2149.63,-193.504C2029.55,-191.298 1775.84,-180.681 1568,-132 1565.05,-131.308 1562.05,-130.518 1559.04,-129.653"/>
<polygon fill="midnightblue" stroke="midnightblue" points="2149.73,-197.006 2159.79,-193.676 2149.85,-190.007 2149.73,-197.006"/>
</g>
<!-- Node15 -->
<g id="node15" class="node"><title>Node15</title>
<g id="a_node15"><a xlink:href="../../d5/d3a/run__sim__phos_8C.html" target="_top" xlink:title="/home/travis/build\l/AliceO2Group/AliceO2\l/Detectors/PHOS/testsimulation\l/run_sim_phos.C">
<polygon fill="none" stroke="black" points="1577,-79 1577,-131 1735,-131 1735,-79 1577,-79"/>
<text text-anchor="start" x="1585" y="-119" font-family="Helvetica,sans-Serif" font-size="10.00">/home/travis/build</text>
<text text-anchor="start" x="1585" y="-108" font-family="Helvetica,sans-Serif" font-size="10.00">/AliceO2Group/AliceO2</text>
<text text-anchor="start" x="1585" y="-97" font-family="Helvetica,sans-Serif" font-size="10.00">/Detectors/PHOS/testsimulation</text>
<text text-anchor="middle" x="1656" y="-86" font-family="Helvetica,sans-Serif" font-size="10.00">/run_sim_phos.C</text>
</a>
</g>
</g>
<!-- Node2&#45;&gt;Node15 -->
<g id="edge15" class="edge"><title>Node2&#45;&gt;Node15</title>
<path fill="none" stroke="midnightblue" d="M2149.65,-188.304C2056.8,-179.913 1887.28,-161.902 1745,-132 1741.85,-131.338 1738.65,-130.621 1735.42,-129.861"/>
<polygon fill="midnightblue" stroke="midnightblue" points="2149.49,-191.804 2159.76,-189.208 2150.11,-184.832 2149.49,-191.804"/>
</g>
<!-- Node16 -->
<g id="node16" class="node"><title>Node16</title>
<g id="a_node16"><a xlink:href="../../dd/d2b/o2__sim__its__ALP3_8cxx.html" target="_top" xlink:title="/home/travis/build\l/AliceO2Group/AliceO2\l/Framework/TestWorkflows\l/src/o2_sim_its_ALP3.cxx">
<polygon fill="none" stroke="black" points="1753.5,-79 1753.5,-131 1890.5,-131 1890.5,-79 1753.5,-79"/>
<text text-anchor="start" x="1761.5" y="-119" font-family="Helvetica,sans-Serif" font-size="10.00">/home/travis/build</text>
<text text-anchor="start" x="1761.5" y="-108" font-family="Helvetica,sans-Serif" font-size="10.00">/AliceO2Group/AliceO2</text>
<text text-anchor="start" x="1761.5" y="-97" font-family="Helvetica,sans-Serif" font-size="10.00">/Framework/TestWorkflows</text>
<text text-anchor="middle" x="1822" y="-86" font-family="Helvetica,sans-Serif" font-size="10.00">/src/o2_sim_its_ALP3.cxx</text>
</a>
</g>
</g>
<!-- Node2&#45;&gt;Node16 -->
<g id="edge16" class="edge"><title>Node2&#45;&gt;Node16</title>
<path fill="none" stroke="midnightblue" d="M2149.85,-183.226C2084.84,-172.47 1985.08,-154.346 1900,-132 1896.96,-131.202 1893.87,-130.35 1890.76,-129.457"/>
<polygon fill="midnightblue" stroke="midnightblue" points="2149.55,-186.722 2159.98,-184.888 2150.68,-179.815 2149.55,-186.722"/>
</g>
<!-- Node17 -->
<g id="node17" class="node"><title>Node17</title>
<g id="a_node17"><a xlink:href="../../d7/d11/o2__sim__tpc_8cxx.html" target="_top" xlink:title="/home/travis/build\l/AliceO2Group/AliceO2\l/Framework/TestWorkflows\l/src/o2_sim_tpc.cxx">
<polygon fill="none" stroke="black" points="1908.5,-79 1908.5,-131 2045.5,-131 2045.5,-79 1908.5,-79"/>
<text text-anchor="start" x="1916.5" y="-119" font-family="Helvetica,sans-Serif" font-size="10.00">/home/travis/build</text>
<text text-anchor="start" x="1916.5" y="-108" font-family="Helvetica,sans-Serif" font-size="10.00">/AliceO2Group/AliceO2</text>
<text text-anchor="start" x="1916.5" y="-97" font-family="Helvetica,sans-Serif" font-size="10.00">/Framework/TestWorkflows</text>
<text text-anchor="middle" x="1977" y="-86" font-family="Helvetica,sans-Serif" font-size="10.00">/src/o2_sim_tpc.cxx</text>
</a>
</g>
</g>
<!-- Node2&#45;&gt;Node17 -->
<g id="edge17" class="edge"><title>Node2&#45;&gt;Node17</title>
<path fill="none" stroke="midnightblue" d="M2150.31,-169.023C2117.61,-157.133 2078.6,-142.947 2045.88,-131.047"/>
<polygon fill="midnightblue" stroke="midnightblue" points="2149.21,-172.345 2159.8,-172.473 2151.6,-165.766 2149.21,-172.345"/>
</g>
<!-- Node18 -->
<g id="node18" class="node"><title>Node18</title>
<g id="a_node18"><a xlink:href="../../d0/d17/initSimGeomAndField_8C.html" target="_top" xlink:title="/home/travis/build\l/AliceO2Group/AliceO2\l/macro/initSimGeomAndField.C">
<polygon fill="none" stroke="black" points="2063.5,-84.5 2063.5,-125.5 2218.5,-125.5 2218.5,-84.5 2063.5,-84.5"/>
<text text-anchor="start" x="2071.5" y="-113.5" font-family="Helvetica,sans-Serif" font-size="10.00">/home/travis/build</text>
<text text-anchor="start" x="2071.5" y="-102.5" font-family="Helvetica,sans-Serif" font-size="10.00">/AliceO2Group/AliceO2</text>
<text text-anchor="middle" x="2141" y="-91.5" font-family="Helvetica,sans-Serif" font-size="10.00">/macro/initSimGeomAndField.C</text>
</a>
</g>
</g>
<!-- Node2&#45;&gt;Node18 -->
<g id="edge18" class="edge"><title>Node2&#45;&gt;Node18</title>
<path fill="none" stroke="midnightblue" d="M2189.67,-160.914C2179.1,-148.988 2167.52,-135.92 2158.31,-125.525"/>
<polygon fill="midnightblue" stroke="midnightblue" points="2187.19,-163.385 2196.44,-168.547 2192.43,-158.742 2187.19,-163.385"/>
</g>
<!-- Node19 -->
<g id="node19" class="node"><title>Node19</title>
<g id="a_node19"><a xlink:href="../../d3/db7/run__digi__tpc_8C.html" target="_top" xlink:title="/home/travis/build\l/AliceO2Group/AliceO2\l/macro/run_digi_tpc.C">
<polygon fill="none" stroke="black" points="2237,-84.5 2237,-125.5 2355,-125.5 2355,-84.5 2237,-84.5"/>
<text text-anchor="start" x="2245" y="-113.5" font-family="Helvetica,sans-Serif" font-size="10.00">/home/travis/build</text>
<text text-anchor="start" x="2245" y="-102.5" font-family="Helvetica,sans-Serif" font-size="10.00">/AliceO2Group/AliceO2</text>
<text text-anchor="middle" x="2296" y="-91.5" font-family="Helvetica,sans-Serif" font-size="10.00">/macro/run_digi_tpc.C</text>
</a>
</g>
</g>
<!-- Node2&#45;&gt;Node19 -->
<g id="edge19" class="edge"><title>Node2&#45;&gt;Node19</title>
<path fill="none" stroke="midnightblue" d="M2247.95,-160.914C2258.39,-148.988 2269.82,-135.92 2278.92,-125.525"/>
<polygon fill="midnightblue" stroke="midnightblue" points="2245.22,-158.716 2241.27,-168.547 2250.49,-163.326 2245.22,-158.716"/>
</g>
<!-- Node21 -->
<g id="node21" class="node"><title>Node21</title>
<g id="a_node21"><a xlink:href="../../d9/d71/run__sim_8C.html" target="_top" xlink:title="/home/travis/build\l/AliceO2Group/AliceO2\l/macro/run_sim.C">
<polygon fill="none" stroke="black" points="2373,-84.5 2373,-125.5 2491,-125.5 2491,-84.5 2373,-84.5"/>
<text text-anchor="start" x="2381" y="-113.5" font-family="Helvetica,sans-Serif" font-size="10.00">/home/travis/build</text>
<text text-anchor="start" x="2381" y="-102.5" font-family="Helvetica,sans-Serif" font-size="10.00">/AliceO2Group/AliceO2</text>
<text text-anchor="middle" x="2432" y="-91.5" font-family="Helvetica,sans-Serif" font-size="10.00">/macro/run_sim.C</text>
</a>
</g>
</g>
<!-- Node2&#45;&gt;Node21 -->
<g id="edge21" class="edge"><title>Node2&#45;&gt;Node21</title>
<path fill="none" stroke="midnightblue" d="M2287.7,-165.618C2319.36,-152.537 2356.15,-137.339 2384.65,-125.561"/>
<polygon fill="midnightblue" stroke="midnightblue" points="2285.96,-162.551 2278.05,-169.604 2288.63,-169.02 2285.96,-162.551"/>
</g>
<!-- Node22 -->
<g id="node22" class="node"><title>Node22</title>
<g id="a_node22"><a xlink:href="../../db/df3/macro_2run__sim__emcal_8C.html" target="_top" xlink:title="/home/travis/build\l/AliceO2Group/AliceO2\l/macro/run_sim_emcal.C">
<polygon fill="none" stroke="black" points="2509,-84.5 2509,-125.5 2635,-125.5 2635,-84.5 2509,-84.5"/>
<text text-anchor="start" x="2517" y="-113.5" font-family="Helvetica,sans-Serif" font-size="10.00">/home/travis/build</text>
<text text-anchor="start" x="2517" y="-102.5" font-family="Helvetica,sans-Serif" font-size="10.00">/AliceO2Group/AliceO2</text>
<text text-anchor="middle" x="2572" y="-91.5" font-family="Helvetica,sans-Serif" font-size="10.00">/macro/run_sim_emcal.C</text>
</a>
</g>
</g>
<!-- Node2&#45;&gt;Node22 -->
<g id="edge22" class="edge"><title>Node2&#45;&gt;Node22</title>
<path fill="none" stroke="midnightblue" d="M2288.25,-181.317C2345.51,-170.211 2428.7,-152.645 2500,-132 2506.64,-130.078 2513.55,-127.864 2520.35,-125.556"/>
<polygon fill="midnightblue" stroke="midnightblue" points="2287.38,-177.92 2278.22,-183.247 2288.7,-184.793 2287.38,-177.92"/>
</g>
<!-- Node23 -->
<g id="node23" class="node"><title>Node23</title>
<g id="a_node23"><a xlink:href="../../d5/dd2/run__sim__its__ALP3_8C.html" target="_top" xlink:title="/home/travis/build\l/AliceO2Group/AliceO2\l/macro/run_sim_its_ALP3.C">
<polygon fill="none" stroke="black" points="2653,-84.5 2653,-125.5 2793,-125.5 2793,-84.5 2653,-84.5"/>
<text text-anchor="start" x="2661" y="-113.5" font-family="Helvetica,sans-Serif" font-size="10.00">/home/travis/build</text>
<text text-anchor="start" x="2661" y="-102.5" font-family="Helvetica,sans-Serif" font-size="10.00">/AliceO2Group/AliceO2</text>
<text text-anchor="middle" x="2723" y="-91.5" font-family="Helvetica,sans-Serif" font-size="10.00">/macro/run_sim_its_ALP3.C</text>
</a>
</g>
</g>
<!-- Node2&#45;&gt;Node23 -->
<g id="edge23" class="edge"><title>Node2&#45;&gt;Node23</title>
<path fill="none" stroke="midnightblue" d="M2288.05,-187.639C2372.71,-178.992 2520.21,-161.169 2644,-132 2651.73,-130.179 2659.78,-127.94 2667.67,-125.547"/>
<polygon fill="midnightblue" stroke="midnightblue" points="2287.64,-184.163 2278.04,-188.649 2288.34,-191.127 2287.64,-184.163"/>
</g>
<!-- Node24 -->
<g id="node24" class="node"><title>Node24</title>
<g id="a_node24"><a xlink:href="../../d4/d5f/run__sim__mft_8C.html" target="_top" xlink:title="/home/travis/build\l/AliceO2Group/AliceO2\l/macro/run_sim_mft.C">
<polygon fill="none" stroke="black" points="2811,-84.5 2811,-125.5 2929,-125.5 2929,-84.5 2811,-84.5"/>
<text text-anchor="start" x="2819" y="-113.5" font-family="Helvetica,sans-Serif" font-size="10.00">/home/travis/build</text>
<text text-anchor="start" x="2819" y="-102.5" font-family="Helvetica,sans-Serif" font-size="10.00">/AliceO2Group/AliceO2</text>
<text text-anchor="middle" x="2870" y="-91.5" font-family="Helvetica,sans-Serif" font-size="10.00">/macro/run_sim_mft.C</text>
</a>
</g>
</g>
<!-- Node2&#45;&gt;Node24 -->
<g id="edge24" class="edge"><title>Node2&#45;&gt;Node24</title>
<path fill="none" stroke="midnightblue" d="M2288.52,-192.408C2398.82,-188.593 2620.06,-175.67 2802,-132 2809.13,-130.289 2816.52,-128.019 2823.68,-125.53"/>
<polygon fill="midnightblue" stroke="midnightblue" points="2288.07,-188.921 2278.19,-192.749 2288.3,-195.917 2288.07,-188.921"/>
</g>
<!-- Node25 -->
<g id="node25" class="node"><title>Node25</title>
<g id="a_node25"><a xlink:href="../../d3/dcc/run__sim__pythia8hi_8C.html" target="_top" xlink:title="/home/travis/build\l/AliceO2Group/AliceO2\l/macro/run_sim_pythia8hi.C">
<polygon fill="none" stroke="black" points="2947.5,-84.5 2947.5,-125.5 3086.5,-125.5 3086.5,-84.5 2947.5,-84.5"/>
<text text-anchor="start" x="2955.5" y="-113.5" font-family="Helvetica,sans-Serif" font-size="10.00">/home/travis/build</text>
<text text-anchor="start" x="2955.5" y="-102.5" font-family="Helvetica,sans-Serif" font-size="10.00">/AliceO2Group/AliceO2</text>
<text text-anchor="middle" x="3017" y="-91.5" font-family="Helvetica,sans-Serif" font-size="10.00">/macro/run_sim_pythia8hi.C</text>
</a>
</g>
</g>
<!-- Node2&#45;&gt;Node25 -->
<g id="edge25" class="edge"><title>Node2&#45;&gt;Node25</title>
<path fill="none" stroke="midnightblue" d="M2288.53,-193.336C2417.76,-190.928 2703.17,-180.087 2938,-132 2946.2,-130.32 2954.75,-128.067 2963.05,-125.586"/>
<polygon fill="midnightblue" stroke="midnightblue" points="2288.32,-189.839 2278.38,-193.513 2288.44,-196.838 2288.32,-189.839"/>
</g>
<!-- Node26 -->
<g id="node26" class="node"><title>Node26</title>
<g id="a_node26"><a xlink:href="../../dc/d6a/run__sim__tof_8C.html" target="_top" xlink:title="/home/travis/build\l/AliceO2Group/AliceO2\l/macro/run_sim_tof.C">
<polygon fill="none" stroke="black" points="3105,-84.5 3105,-125.5 3223,-125.5 3223,-84.5 3105,-84.5"/>
<text text-anchor="start" x="3113" y="-113.5" font-family="Helvetica,sans-Serif" font-size="10.00">/home/travis/build</text>
<text text-anchor="start" x="3113" y="-102.5" font-family="Helvetica,sans-Serif" font-size="10.00">/AliceO2Group/AliceO2</text>
<text text-anchor="middle" x="3164" y="-91.5" font-family="Helvetica,sans-Serif" font-size="10.00">/macro/run_sim_tof.C</text>
</a>
</g>
</g>
<!-- Node2&#45;&gt;Node26 -->
<g id="edge26" class="edge"><title>Node2&#45;&gt;Node26</title>
<path fill="none" stroke="midnightblue" d="M2288.32,-191.683C2467.28,-185.288 2941.5,-165.602 3095,-132 3102.38,-130.385 3110.02,-128.133 3117.41,-125.624"/>
<polygon fill="midnightblue" stroke="midnightblue" points="2288.1,-188.188 2278.23,-192.041 2288.35,-195.184 2288.1,-188.188"/>
</g>
<!-- Node27 -->
<g id="node27" class="node"><title>Node27</title>
<g id="a_node27"><a xlink:href="../../d7/d08/run__sim__tpc_8C.html" target="_top" xlink:title="/home/travis/build\l/AliceO2Group/AliceO2\l/macro/run_sim_tpc.C">
<polygon fill="none" stroke="black" points="3241,-84.5 3241,-125.5 3359,-125.5 3359,-84.5 3241,-84.5"/>
<text text-anchor="start" x="3249" y="-113.5" font-family="Helvetica,sans-Serif" font-size="10.00">/home/travis/build</text>
<text text-anchor="start" x="3249" y="-102.5" font-family="Helvetica,sans-Serif" font-size="10.00">/AliceO2Group/AliceO2</text>
<text text-anchor="middle" x="3300" y="-91.5" font-family="Helvetica,sans-Serif" font-size="10.00">/macro/run_sim_tpc.C</text>
</a>
</g>
</g>
<!-- Node2&#45;&gt;Node27 -->
<g id="edge27" class="edge"><title>Node2&#45;&gt;Node27</title>
<path fill="none" stroke="midnightblue" d="M2288.57,-192.488C2486.72,-187.746 3051.4,-171.092 3232,-132 3239.41,-130.396 3247.08,-128.115 3254.49,-125.564"/>
<polygon fill="midnightblue" stroke="midnightblue" points="2288.2,-188.995 2278.29,-192.731 2288.37,-195.994 2288.2,-188.995"/>
</g>
<!-- Node28 -->
<g id="node28" class="node"><title>Node28</title>
<g id="a_node28"><a xlink:href="../../dd/d4e/run__trac__its_8C.html" target="_top" xlink:title="/home/travis/build\l/AliceO2Group/AliceO2\l/macro/run_trac_its.C">
<polygon fill="none" stroke="black" points="3377,-84.5 3377,-125.5 3495,-125.5 3495,-84.5 3377,-84.5"/>
<text text-anchor="start" x="3385" y="-113.5" font-family="Helvetica,sans-Serif" font-size="10.00">/home/travis/build</text>
<text text-anchor="start" x="3385" y="-102.5" font-family="Helvetica,sans-Serif" font-size="10.00">/AliceO2Group/AliceO2</text>
<text text-anchor="middle" x="3436" y="-91.5" font-family="Helvetica,sans-Serif" font-size="10.00">/macro/run_trac_its.C</text>
</a>
</g>
</g>
<!-- Node2&#45;&gt;Node28 -->
<g id="edge29" class="edge"><title>Node2&#45;&gt;Node28</title>
<path fill="none" stroke="midnightblue" d="M2288.46,-193.075C2504.11,-189.759 3160.13,-176.209 3368,-132 3375.42,-130.422 3383.09,-128.156 3390.5,-125.611"/>
<polygon fill="midnightblue" stroke="midnightblue" points="2288.17,-189.579 2278.22,-193.23 2288.27,-196.578 2288.17,-189.579"/>
</g>
<!-- Node3&#45;&gt;Node4 -->
<g id="edge3" class="edge"><title>Node3&#45;&gt;Node4</title>
<path fill="none" stroke="midnightblue" d="M3605.92,-72.0295C3616.77,-61.8003 3628.46,-50.7821 3638.1,-41.6965"/>
<polygon fill="midnightblue" stroke="midnightblue" points="3603.45,-69.5459 3598.58,-78.9517 3608.25,-74.6398 3603.45,-69.5459"/>
</g>
<!-- Node20 -->
<g id="node20" class="node"><title>Node20</title>
<g id="a_node20"><a xlink:href="../../d3/d56/runTPC_8cxx.html" target="_top" xlink:title="/home/travis/build\l/AliceO2Group/AliceO2\l/run/runTPC.cxx">
<polygon fill="none" stroke="black" points="2739,-0.5 2739,-41.5 2857,-41.5 2857,-0.5 2739,-0.5"/>
<text text-anchor="start" x="2747" y="-29.5" font-family="Helvetica,sans-Serif" font-size="10.00">/home/travis/build</text>
<text text-anchor="start" x="2747" y="-18.5" font-family="Helvetica,sans-Serif" font-size="10.00">/AliceO2Group/AliceO2</text>
<text text-anchor="middle" x="2798" y="-7.5" font-family="Helvetica,sans-Serif" font-size="10.00">/run/runTPC.cxx</text>
</a>
</g>
</g>
<!-- Node19&#45;&gt;Node20 -->
<g id="edge20" class="edge"><title>Node19&#45;&gt;Node20</title>
<path fill="none" stroke="midnightblue" d="M2352.38,-81.2894C2356.28,-80.0759 2360.18,-78.9624 2364,-78 2495.5,-44.8752 2654.62,-30.7179 2738.91,-25.182"/>
<polygon fill="midnightblue" stroke="midnightblue" points="2351.12,-78.0202 2342.72,-84.483 2353.32,-84.6662 2351.12,-78.0202"/>
</g>
<!-- Node27&#45;&gt;Node20 -->
<g id="edge28" class="edge"><title>Node27&#45;&gt;Node20</title>
<path fill="none" stroke="midnightblue" d="M3243.62,-81.2894C3239.72,-80.0759 3235.82,-78.9624 3232,-78 3100.5,-44.8752 2941.38,-30.7179 2857.09,-25.182"/>
<polygon fill="midnightblue" stroke="midnightblue" points="3242.68,-84.6662 3253.28,-84.483 3244.88,-78.0202 3242.68,-84.6662"/>
</g>
</g>
</svg>
