<?xml version="1.0" encoding="UTF-8" standalone="no"?>
<!DOCTYPE svg PUBLIC "-//W3C//DTD SVG 1.1//EN"
 "http://www.w3.org/Graphics/SVG/1.1/DTD/svg11.dtd">
<!-- Generated by graphviz version 2.36.0 (20140111.2315)
 -->
<!-- Title: /home/travis/build/AliceO2Group/AliceO2/Detectors/TPC/base/test/testTPCMapper.cxx Pages: 1 -->
<!--zoomable 590 -->
<svg id="main" version="1.1" xmlns="http://www.w3.org/2000/svg" xmlns:xlink="http://www.w3.org/1999/xlink" xml:space="preserve" onload="init(evt)">
<style type="text/css"><![CDATA[
.edge:hover path { stroke: red; }
.edge:hover polygon { stroke: red; fill: red; }
]]></style>
<script type="text/javascript"><![CDATA[
var edges = document.getElementsByTagName('g');
if (edges && edges.length) {
  for (var i=0;i<edges.length;i++) {
    if (edges[i].id.substr(0,4)=='edge') {
      edges[i].setAttribute('class','edge');
    }
  }
}
]]></script>
        <defs>
                <circle id="rim" cx="0" cy="0" r="7"/>
                <circle id="rim2" cx="0" cy="0" r="3.5"/>
                <g id="zoomPlus">
                        <use xlink:href="#rim" fill="#404040">
                                <set attributeName="fill" to="#808080" begin="zoomplus.mouseover" end="zoomplus.mouseout"/>
                        </use>
                        <path d="M-4,0h8M0,-4v8" fill="none" stroke="white" stroke-width="1.5" pointer-events="none"/>
                </g>
                <g id="zoomMin">
                        <use xlink:href="#rim" fill="#404040">
                                <set attributeName="fill" to="#808080" begin="zoomminus.mouseover" end="zoomminus.mouseout"/>
                        </use>
                        <path d="M-4,0h8" fill="none" stroke="white" stroke-width="1.5" pointer-events="none"/>
                </g>
                <g id="dirArrow">
                        <path fill="none" stroke="white" stroke-width="1.5" d="M0,-3.0v7 M-2.5,-0.5L0,-3.0L2.5,-0.5"/>
                </g>
               <g id="resetDef">
                       <use xlink:href="#rim2" fill="#404040">
                               <set attributeName="fill" to="#808080" begin="reset.mouseover" end="reset.mouseout"/>
                       </use>
               </g>
        </defs>

<script type="text/javascript">
var viewWidth = 1372;
var viewHeight = 590;
var sectionId = 'dynsection-0';
</script>
<script xlink:href="../../svgpan.js"/>
<svg id="graph" class="graph">
<g id="viewport">
<title>/home/travis/build/AliceO2Group/AliceO2/Detectors/TPC/base/test/testTPCMapper.cxx</title>
<!-- Node1 -->
<g id="node1" class="node"><title>Node1</title>
<polygon fill="#bfbfbf" stroke="black" points="698.5,-529 698.5,-581 827.5,-581 827.5,-529 698.5,-529"/>
<text text-anchor="start" x="706.5" y="-569" font-family="Helvetica,sans-Serif" font-size="10.00">/home/travis/build</text>
<text text-anchor="start" x="706.5" y="-558" font-family="Helvetica,sans-Serif" font-size="10.00">/AliceO2Group/AliceO2</text>
<text text-anchor="start" x="706.5" y="-547" font-family="Helvetica,sans-Serif" font-size="10.00">/Detectors/TPC/base/test</text>
<text text-anchor="middle" x="763" y="-536" font-family="Helvetica,sans-Serif" font-size="10.00">/testTPCMapper.cxx</text>
</g>
<!-- Node2 -->
<g id="node2" class="node"><title>Node2</title>
<polygon fill="none" stroke="#bfbfbf" points="484.5,-472.5 484.5,-491.5 603.5,-491.5 603.5,-472.5 484.5,-472.5"/>
<text text-anchor="middle" x="544" y="-479.5" font-family="Helvetica,sans-Serif" font-size="10.00">boost/test/unit_test.hpp</text>
</g>
<!-- Node1&#45;&gt;Node2 -->
<g id="edge1" class="edge"><title>Node1&#45;&gt;Node2</title>
<path fill="none" stroke="midnightblue" d="M698.477,-533.082C659.882,-520.569 612.264,-505.131 580.181,-494.73"/>
<polygon fill="midnightblue" stroke="midnightblue" points="580.934,-491.295 570.342,-491.54 578.775,-497.953 580.934,-491.295"/>
</g>
<!-- Node3 -->
<g id="node3" class="node"><title>Node3</title>
<polygon fill="none" stroke="#bfbfbf" points="621.5,-472.5 621.5,-491.5 666.5,-491.5 666.5,-472.5 621.5,-472.5"/>
<text text-anchor="middle" x="644" y="-479.5" font-family="Helvetica,sans-Serif" font-size="10.00">cstdlib</text>
</g>
<!-- Node1&#45;&gt;Node3 -->
<g id="edge2" class="edge"><title>Node1&#45;&gt;Node3</title>
<path fill="none" stroke="midnightblue" d="M721.045,-528.968C702.98,-518.19 682.545,-505.997 667.262,-496.879"/>
<polygon fill="midnightblue" stroke="midnightblue" points="668.86,-493.757 658.479,-491.639 665.274,-499.768 668.86,-493.757"/>
</g>
<!-- Node4 -->
<g id="node4" class="node"><title>Node4</title>
<polygon fill="none" stroke="#bfbfbf" points="685,-472.5 685,-491.5 735,-491.5 735,-472.5 685,-472.5"/>
<text text-anchor="middle" x="710" y="-479.5" font-family="Helvetica,sans-Serif" font-size="10.00">fstream</text>
</g>
<!-- Node1&#45;&gt;Node4 -->
<g id="edge3" class="edge"><title>Node1&#45;&gt;Node4</title>
<path fill="none" stroke="midnightblue" d="M744.165,-528.768C737.01,-519.183 729.04,-508.506 722.598,-499.877"/>
<polygon fill="midnightblue" stroke="midnightblue" points="725.324,-497.677 716.537,-491.757 719.714,-501.864 725.324,-497.677"/>
</g>
<!-- Node5 -->
<g id="node5" class="node"><title>Node5</title>
<polygon fill="none" stroke="#bfbfbf" points="1298,-74.5 1298,-93.5 1352,-93.5 1352,-74.5 1298,-74.5"/>
<text text-anchor="middle" x="1325" y="-81.5" font-family="Helvetica,sans-Serif" font-size="10.00">iostream</text>
</g>
<!-- Node1&#45;&gt;Node5 -->
<g id="edge4" class="edge"><title>Node1&#45;&gt;Node5</title>
<path fill="none" stroke="midnightblue" d="M827.603,-553.869C982.827,-551.817 1364,-535.711 1364,-427 1364,-427 1364,-427 1364,-201 1364,-164.519 1346.46,-124.791 1334.9,-102.583"/>
<polygon fill="midnightblue" stroke="midnightblue" points="1337.93,-100.824 1330.1,-93.6868 1331.77,-104.149 1337.93,-100.824"/>
</g>
<!-- Node6 -->
<g id="node6" class="node"><title>Node6</title>
<polygon fill="none" stroke="#bfbfbf" points="791,-472.5 791,-491.5 843,-491.5 843,-472.5 791,-472.5"/>
<text text-anchor="middle" x="817" y="-479.5" font-family="Helvetica,sans-Serif" font-size="10.00">sstream</text>
</g>
<!-- Node1&#45;&gt;Node6 -->
<g id="edge5" class="edge"><title>Node1&#45;&gt;Node6</title>
<path fill="none" stroke="midnightblue" d="M782.19,-528.768C789.48,-519.183 797.601,-508.506 804.164,-499.877"/>
<polygon fill="midnightblue" stroke="midnightblue" points="807.072,-501.835 810.34,-491.757 801.5,-497.598 807.072,-501.835"/>
</g>
<!-- Node7 -->
<g id="node7" class="node"><title>Node7</title>
<polygon fill="none" stroke="#bfbfbf" points="249.5,-416.5 249.5,-435.5 290.5,-435.5 290.5,-416.5 249.5,-416.5"/>
<text text-anchor="middle" x="270" y="-423.5" font-family="Helvetica,sans-Serif" font-size="10.00">string</text>
</g>
<!-- Node1&#45;&gt;Node7 -->
<g id="edge6" class="edge"><title>Node1&#45;&gt;Node7</title>
<path fill="none" stroke="midnightblue" d="M764.425,-528.932C764.001,-510.319 760.035,-485.851 744,-472 706.963,-440.007 353.263,-444.124 305,-436 303.531,-435.753 302.033,-435.474 300.524,-435.171"/>
<polygon fill="midnightblue" stroke="midnightblue" points="301.13,-431.72 290.603,-432.917 299.579,-438.546 301.13,-431.72"/>
</g>
<!-- Node8 -->
<g id="node8" class="node"><title>Node8</title>
<g id="a_node8"><a xlink:href="../../d7/d2c/Mapper_8h.html" target="_top" xlink:title="TPCBase/Mapper.h">
<polygon fill="none" stroke="black" points="861.5,-472.5 861.5,-491.5 964.5,-491.5 964.5,-472.5 861.5,-472.5"/>
<text text-anchor="middle" x="913" y="-479.5" font-family="Helvetica,sans-Serif" font-size="10.00">TPCBase/Mapper.h</text>
</a>
</g>
</g>
<!-- Node1&#45;&gt;Node8 -->
<g id="edge7" class="edge"><title>Node1&#45;&gt;Node8</title>
<path fill="none" stroke="midnightblue" d="M815.884,-528.968C839.407,-517.834 866.118,-505.191 885.565,-495.986"/>
<polygon fill="midnightblue" stroke="midnightblue" points="887.208,-499.081 894.749,-491.639 884.213,-492.754 887.208,-499.081"/>
</g>
<!-- Node8&#45;&gt;Node7 -->
<g id="edge11" class="edge"><title>Node8&#45;&gt;Node7</title>
<path fill="none" stroke="midnightblue" d="M861.453,-473.096C858.257,-472.699 855.087,-472.329 852,-472 609.733,-446.198 545.575,-474.504 305,-436 303.529,-435.765 302.029,-435.495 300.519,-435.201"/>
<polygon fill="midnightblue" stroke="midnightblue" points="301.118,-431.748 290.594,-432.974 299.585,-438.578 301.118,-431.748"/>
</g>
<!-- Node9 -->
<g id="node9" class="node"><title>Node9</title>
<polygon fill="none" stroke="#bfbfbf" points="1168.5,-416.5 1168.5,-435.5 1203.5,-435.5 1203.5,-416.5 1168.5,-416.5"/>
<text text-anchor="middle" x="1186" y="-423.5" font-family="Helvetica,sans-Serif" font-size="10.00">map</text>
</g>
<!-- Node8&#45;&gt;Node9 -->
<g id="edge8" class="edge"><title>Node8&#45;&gt;Node9</title>
<path fill="none" stroke="midnightblue" d="M964.815,-473.694C1012.76,-466.446 1086.13,-454.123 1158.63,-435.775"/>
<polygon fill="midnightblue" stroke="midnightblue" points="1159.57,-439.146 1168.39,-433.267 1157.83,-432.366 1159.57,-439.146"/>
</g>
<!-- Node10 -->
<g id="node10" class="node"><title>Node10</title>
<polygon fill="none" stroke="#bfbfbf" points="935,-360.5 935,-379.5 979,-379.5 979,-360.5 935,-360.5"/>
<text text-anchor="middle" x="957" y="-367.5" font-family="Helvetica,sans-Serif" font-size="10.00">vector</text>
</g>
<!-- Node8&#45;&gt;Node10 -->
<g id="edge9" class="edge"><title>Node8&#45;&gt;Node10</title>
<path fill="none" stroke="midnightblue" d="M919.447,-472.485C925.773,-463.753 935.281,-449.566 941,-436 947.285,-421.091 951.466,-403.175 953.973,-389.931"/>
<polygon fill="midnightblue" stroke="midnightblue" points="957.489,-390.14 955.755,-379.688 950.593,-388.94 957.489,-390.14"/>
</g>
<!-- Node11 -->
<g id="node11" class="node"><title>Node11</title>
<polygon fill="none" stroke="#bfbfbf" points="1298,-416.5 1298,-435.5 1336,-435.5 1336,-416.5 1298,-416.5"/>
<text text-anchor="middle" x="1317" y="-423.5" font-family="Helvetica,sans-Serif" font-size="10.00">array</text>
</g>
<!-- Node8&#45;&gt;Node11 -->
<g id="edge10" class="edge"><title>Node8&#45;&gt;Node11</title>
<path fill="none" stroke="midnightblue" d="M964.684,-477.122C1036.71,-471.177 1171.14,-458.112 1284,-436 1285.28,-435.75 1286.58,-435.476 1287.89,-435.185"/>
<polygon fill="midnightblue" stroke="midnightblue" points="1289.05,-438.505 1297.92,-432.711 1287.37,-431.709 1289.05,-438.505"/>
</g>
<!-- Node12 -->
<g id="node12" class="node"><title>Node12</title>
<polygon fill="none" stroke="#bfbfbf" points="1017,-136.5 1017,-155.5 1061,-155.5 1061,-136.5 1017,-136.5"/>
<text text-anchor="middle" x="1039" y="-143.5" font-family="Helvetica,sans-Serif" font-size="10.00">cmath</text>
</g>
<!-- Node8&#45;&gt;Node12 -->
<g id="edge12" class="edge"><title>Node8&#45;&gt;Node12</title>
<path fill="none" stroke="midnightblue" d="M964.688,-479.111C1043.57,-475.344 1189.33,-464.63 1232,-436 1259.79,-417.356 1270,-404.463 1270,-371 1270,-371 1270,-371 1270,-257 1270,-170.081 1135.03,-151.77 1071.43,-147.966"/>
<polygon fill="midnightblue" stroke="midnightblue" points="1071.31,-144.456 1061.15,-147.441 1070.96,-151.447 1071.31,-144.456"/>
</g>
<!-- Node13 -->
<g id="node13" class="node"><title>Node13</title>
<g id="a_node13"><a xlink:href="../../d1/d73/Defs_8h.html" target="_top" xlink:title="Common definitions for 2D coordinates. ">
<polygon fill="none" stroke="black" points="468,-192.5 468,-211.5 560,-211.5 560,-192.5 468,-192.5"/>
<text text-anchor="middle" x="514" y="-199.5" font-family="Helvetica,sans-Serif" font-size="10.00">TPCBase/Defs.h</text>
</a>
</g>
</g>
<!-- Node8&#45;&gt;Node13 -->
<g id="edge13" class="edge"><title>Node8&#45;&gt;Node13</title>
<path fill="none" stroke="midnightblue" d="M861.438,-473.22C858.247,-472.792 855.081,-472.382 852,-472 732.362,-457.184 319,-491.552 319,-371 319,-371 319,-371 319,-313 319,-248.832 400.093,-221.68 457.69,-210.487"/>
<polygon fill="midnightblue" stroke="midnightblue" points="458.581,-213.882 467.788,-208.639 457.321,-206.997 458.581,-213.882"/>
</g>
<!-- Node25 -->
<g id="node25" class="node"><title>Node25</title>
<g id="a_node25"><a xlink:href="../../de/d41/PadPos_8h.html" target="_top" xlink:title="TPCBase/PadPos.h">
<polygon fill="none" stroke="black" points="638.5,-304.5 638.5,-323.5 743.5,-323.5 743.5,-304.5 638.5,-304.5"/>
<text text-anchor="middle" x="691" y="-311.5" font-family="Helvetica,sans-Serif" font-size="10.00">TPCBase/PadPos.h</text>
</a>
</g>
</g>
<!-- Node8&#45;&gt;Node25 -->
<g id="edge28" class="edge"><title>Node8&#45;&gt;Node25</title>
<path fill="none" stroke="midnightblue" d="M873.846,-472.434C845.504,-465.231 806.908,-453.309 776,-436 742.435,-417.204 730.946,-412.267 710,-380 700.898,-365.978 696.045,-347.481 693.53,-333.805"/>
<polygon fill="midnightblue" stroke="midnightblue" points="696.944,-332.985 691.924,-323.655 690.03,-334.079 696.944,-332.985"/>
</g>
<!-- Node26 -->
<g id="node26" class="node"><title>Node26</title>
<g id="a_node26"><a xlink:href="../../dd/d0b/PadSecPos_8h.html" target="_top" xlink:title="TPCBase/PadSecPos.h">
<polygon fill="none" stroke="black" points="719,-360.5 719,-379.5 841,-379.5 841,-360.5 719,-360.5"/>
<text text-anchor="middle" x="780" y="-367.5" font-family="Helvetica,sans-Serif" font-size="10.00">TPCBase/PadSecPos.h</text>
</a>
</g>
</g>
<!-- Node8&#45;&gt;Node26 -->
<g id="edge29" class="edge"><title>Node8&#45;&gt;Node26</title>
<path fill="none" stroke="midnightblue" d="M876.758,-472.444C844.036,-463.955 799.334,-450.193 788,-436 777.699,-423.101 776.509,-403.926 777.409,-389.742"/>
<polygon fill="midnightblue" stroke="midnightblue" points="780.905,-389.958 778.445,-379.653 773.942,-389.244 780.905,-389.958"/>
</g>
<!-- Node27 -->
<g id="node27" class="node"><title>Node27</title>
<g id="a_node27"><a xlink:href="../../d3/dd6/Sector_8h.html" target="_top" xlink:title="TPCBase/Sector.h">
<polygon fill="none" stroke="black" points="583.5,-248.5 583.5,-267.5 682.5,-267.5 682.5,-248.5 583.5,-248.5"/>
<text text-anchor="middle" x="633" y="-255.5" font-family="Helvetica,sans-Serif" font-size="10.00">TPCBase/Sector.h</text>
</a>
</g>
</g>
<!-- Node8&#45;&gt;Node27 -->
<g id="edge55" class="edge"><title>Node8&#45;&gt;Node27</title>
<path fill="none" stroke="midnightblue" d="M925.488,-472.42C953.566,-452.087 1016.96,-399.705 987,-360 951.564,-313.04 784.022,-281.389 692.703,-267.313"/>
<polygon fill="midnightblue" stroke="midnightblue" points="693.178,-263.845 682.766,-265.805 692.127,-270.766 693.178,-263.845"/>
</g>
<!-- Node29 -->
<g id="node29" class="node"><title>Node29</title>
<g id="a_node29"><a xlink:href="../../da/d61/PadROCPos_8h.html" target="_top" xlink:title="TPCBase/PadROCPos.h">
<polygon fill="none" stroke="black" points="347,-360.5 347,-379.5 475,-379.5 475,-360.5 347,-360.5"/>
<text text-anchor="middle" x="411" y="-367.5" font-family="Helvetica,sans-Serif" font-size="10.00">TPCBase/PadROCPos.h</text>
</a>
</g>
</g>
<!-- Node8&#45;&gt;Node29 -->
<g id="edge34" class="edge"><title>Node8&#45;&gt;Node29</title>
<path fill="none" stroke="midnightblue" d="M861.43,-473.283C858.241,-472.839 855.078,-472.408 852,-472 716.25,-454.004 677.494,-474.227 546,-436 504.399,-423.906 459.789,-400.037 433.692,-384.833"/>
<polygon fill="midnightblue" stroke="midnightblue" points="435.344,-381.743 424.955,-379.661 431.778,-387.767 435.344,-381.743"/>
</g>
<!-- Node31 -->
<g id="node31" class="node"><title>Node31</title>
<g id="a_node31"><a xlink:href="../../d3/d54/DigitPos_8h.html" target="_top" xlink:title="TPCBase/DigitPos.h">
<polygon fill="none" stroke="black" points="555,-416.5 555,-435.5 663,-435.5 663,-416.5 555,-416.5"/>
<text text-anchor="middle" x="609" y="-423.5" font-family="Helvetica,sans-Serif" font-size="10.00">TPCBase/DigitPos.h</text>
</a>
</g>
</g>
<!-- Node8&#45;&gt;Node31 -->
<g id="edge40" class="edge"><title>Node8&#45;&gt;Node31</title>
<path fill="none" stroke="midnightblue" d="M864.83,-472.444C811.131,-462.905 724.314,-447.483 666.946,-437.293"/>
<polygon fill="midnightblue" stroke="midnightblue" points="667.402,-433.819 656.944,-435.516 666.178,-440.712 667.402,-433.819"/>
</g>
<!-- Node33 -->
<g id="node33" class="node"><title>Node33</title>
<g id="a_node33"><a xlink:href="../../d1/d1f/FECInfo_8h.html" target="_top" xlink:title="TPCBase/FECInfo.h">
<polygon fill="none" stroke="black" points="1134.5,-248.5 1134.5,-267.5 1241.5,-267.5 1241.5,-248.5 1134.5,-248.5"/>
<text text-anchor="middle" x="1188" y="-255.5" font-family="Helvetica,sans-Serif" font-size="10.00">TPCBase/FECInfo.h</text>
</a>
</g>
</g>
<!-- Node8&#45;&gt;Node33 -->
<g id="edge48" class="edge"><title>Node8&#45;&gt;Node33</title>
<path fill="none" stroke="midnightblue" d="M964.744,-480.985C1041.72,-479.736 1180.71,-472.354 1212,-436 1251.4,-390.223 1216.95,-311.644 1198.22,-276.675"/>
<polygon fill="midnightblue" stroke="midnightblue" points="1201.14,-274.711 1193.22,-267.668 1195.02,-278.11 1201.14,-274.711"/>
</g>
<!-- Node34 -->
<g id="node34" class="node"><title>Node34</title>
<g id="a_node34"><a xlink:href="../../da/d9d/PadRegionInfo_8h.html" target="_top" xlink:title="TPCBase/PadRegionInfo.h">
<polygon fill="none" stroke="black" points="797.5,-416.5 797.5,-435.5 932.5,-435.5 932.5,-416.5 797.5,-416.5"/>
<text text-anchor="middle" x="865" y="-423.5" font-family="Helvetica,sans-Serif" font-size="10.00">TPCBase/PadRegionInfo.h</text>
</a>
</g>
</g>
<!-- Node8&#45;&gt;Node34 -->
<g id="edge50" class="edge"><title>Node8&#45;&gt;Node34</title>
<path fill="none" stroke="midnightblue" d="M905.074,-472.083C898.154,-464.298 887.935,-452.801 879.548,-443.367"/>
<polygon fill="midnightblue" stroke="midnightblue" points="882.038,-440.9 872.779,-435.751 876.806,-445.55 882.038,-440.9"/>
</g>
<!-- Node35 -->
<g id="node35" class="node"><title>Node35</title>
<g id="a_node35"><a xlink:href="../../d6/d42/PartitionInfo_8h.html" target="_top" xlink:title="TPCBase/PartitionInfo.h">
<polygon fill="none" stroke="black" points="1027.5,-416.5 1027.5,-435.5 1150.5,-435.5 1150.5,-416.5 1027.5,-416.5"/>
<text text-anchor="middle" x="1089" y="-423.5" font-family="Helvetica,sans-Serif" font-size="10.00">TPCBase/PartitionInfo.h</text>
</a>
</g>
</g>
<!-- Node8&#45;&gt;Node35 -->
<g id="edge54" class="edge"><title>Node8&#45;&gt;Node35</title>
<path fill="none" stroke="midnightblue" d="M940.888,-472.444C970.754,-463.28 1018.31,-448.688 1051.46,-438.519"/>
<polygon fill="midnightblue" stroke="midnightblue" points="1052.71,-441.796 1061.24,-435.516 1050.66,-435.104 1052.71,-441.796"/>
</g>
<!-- Node13&#45;&gt;Node12 -->
<g id="edge14" class="edge"><title>Node13&#45;&gt;Node12</title>
<path fill="none" stroke="midnightblue" d="M560.181,-193.214C563.162,-192.782 566.121,-192.373 569,-192 732.871,-170.771 930.096,-155.072 1006.53,-149.358"/>
<polygon fill="midnightblue" stroke="midnightblue" points="1007.2,-152.818 1016.92,-148.587 1006.69,-145.837 1007.2,-152.818"/>
</g>
<!-- Node14 -->
<g id="node14" class="node"><title>Node14</title>
<g id="a_node14"><a xlink:href="../../d2/dd0/Cartesian2D_8h.html" target="_top" xlink:title="MathUtils/Cartesian2D.h">
<polygon fill="none" stroke="black" points="103.5,-74.5 103.5,-93.5 228.5,-93.5 228.5,-74.5 103.5,-74.5"/>
<text text-anchor="middle" x="166" y="-81.5" font-family="Helvetica,sans-Serif" font-size="10.00">MathUtils/Cartesian2D.h</text>
</a>
</g>
</g>
<!-- Node13&#45;&gt;Node14 -->
<g id="edge15" class="edge"><title>Node13&#45;&gt;Node14</title>
<path fill="none" stroke="midnightblue" d="M488.411,-192.47C427.072,-172.024 271.548,-120.183 201.344,-96.7814"/>
<polygon fill="midnightblue" stroke="midnightblue" points="202.22,-93.3842 191.627,-93.5423 200.007,-100.025 202.22,-93.3842"/>
</g>
<!-- Node17 -->
<g id="node17" class="node"><title>Node17</title>
<g id="a_node17"><a xlink:href="../../dd/d76/Cartesian3D_8h.html" target="_top" xlink:title="MathUtils/Cartesian3D.h">
<polygon fill="none" stroke="black" points="668.5,-136.5 668.5,-155.5 793.5,-155.5 793.5,-136.5 668.5,-136.5"/>
<text text-anchor="middle" x="731" y="-143.5" font-family="Helvetica,sans-Serif" font-size="10.00">MathUtils/Cartesian3D.h</text>
</a>
</g>
</g>
<!-- Node13&#45;&gt;Node17 -->
<g id="edge18" class="edge"><title>Node13&#45;&gt;Node17</title>
<path fill="none" stroke="midnightblue" d="M548.384,-192.444C585.922,-183.102 646.131,-168.119 687.067,-157.933"/>
<polygon fill="midnightblue" stroke="midnightblue" points="687.918,-161.328 696.777,-155.516 686.227,-154.535 687.918,-161.328"/>
</g>
<!-- Node15 -->
<g id="node15" class="node"><title>Node15</title>
<polygon fill="none" stroke="#bfbfbf" points="-0.5,-1 -0.5,-31 150.5,-31 150.5,-1 -0.5,-1"/>
<text text-anchor="start" x="7.5" y="-19" font-family="Helvetica,sans-Serif" font-size="10.00">Math/GenVector/Displacement</text>
<text text-anchor="middle" x="75" y="-8" font-family="Helvetica,sans-Serif" font-size="10.00">Vector2D.h</text>
</g>
<!-- Node14&#45;&gt;Node15 -->
<g id="edge16" class="edge"><title>Node14&#45;&gt;Node15</title>
<path fill="none" stroke="midnightblue" d="M154.103,-74.3717C141.221,-65.0286 120.22,-49.7966 103.093,-37.375"/>
<polygon fill="midnightblue" stroke="midnightblue" points="104.703,-34.2194 94.5532,-31.1815 100.593,-39.8859 104.703,-34.2194"/>
</g>
<!-- Node16 -->
<g id="node16" class="node"><title>Node16</title>
<polygon fill="none" stroke="#bfbfbf" points="169,-6.5 169,-25.5 345,-25.5 345,-6.5 169,-6.5"/>
<text text-anchor="middle" x="257" y="-13.5" font-family="Helvetica,sans-Serif" font-size="10.00">Math/GenVector/PositionVector2D.h</text>
</g>
<!-- Node14&#45;&gt;Node16 -->
<g id="edge17" class="edge"><title>Node14&#45;&gt;Node16</title>
<path fill="none" stroke="midnightblue" d="M177.897,-74.3717C192.884,-63.5015 218.862,-44.6602 236.942,-31.5474"/>
<polygon fill="midnightblue" stroke="midnightblue" points="239.06,-34.3349 245.1,-25.6305 234.95,-28.6684 239.06,-34.3349"/>
</g>
<!-- Node17&#45;&gt;Node5 -->
<g id="edge26" class="edge"><title>Node17&#45;&gt;Node5</title>
<path fill="none" stroke="midnightblue" d="M793.682,-142.337C918.84,-136.626 1195.61,-121.914 1288,-100 1291.07,-99.2716 1294.22,-98.3279 1297.32,-97.2684"/>
<polygon fill="midnightblue" stroke="midnightblue" points="1298.82,-100.443 1306.92,-93.6115 1296.33,-93.9018 1298.82,-100.443"/>
</g>
<!-- Node17&#45;&gt;Node14 -->
<g id="edge27" class="edge"><title>Node17&#45;&gt;Node14</title>
<path fill="none" stroke="midnightblue" d="M668.332,-141.655C574.261,-136.101 391.136,-123.22 237,-100 228.94,-98.7858 220.42,-97.2273 212.186,-95.5761"/>
<polygon fill="midnightblue" stroke="midnightblue" points="212.838,-92.1369 202.335,-93.5329 211.416,-98.991 212.838,-92.1369"/>
</g>
<!-- Node18 -->
<g id="node18" class="node"><title>Node18</title>
<polygon fill="none" stroke="#bfbfbf" points="934.5,-69 934.5,-99 1085.5,-99 1085.5,-69 934.5,-69"/>
<text text-anchor="start" x="942.5" y="-87" font-family="Helvetica,sans-Serif" font-size="10.00">Math/GenVector/Displacement</text>
<text text-anchor="middle" x="1010" y="-76" font-family="Helvetica,sans-Serif" font-size="10.00">Vector3D.h</text>
</g>
<!-- Node17&#45;&gt;Node18 -->
<g id="edge19" class="edge"><title>Node17&#45;&gt;Node18</title>
<path fill="none" stroke="midnightblue" d="M770.678,-136.467C813.219,-127.318 881.77,-112.576 934.625,-101.21"/>
<polygon fill="midnightblue" stroke="midnightblue" points="935.597,-104.581 944.637,-99.0565 934.125,-97.7373 935.597,-104.581"/>
</g>
<!-- Node19 -->
<g id="node19" class="node"><title>Node19</title>
<polygon fill="none" stroke="#bfbfbf" points="1104,-74.5 1104,-93.5 1280,-93.5 1280,-74.5 1104,-74.5"/>
<text text-anchor="middle" x="1192" y="-81.5" font-family="Helvetica,sans-Serif" font-size="10.00">Math/GenVector/PositionVector3D.h</text>
</g>
<!-- Node17&#45;&gt;Node19 -->
<g id="edge20" class="edge"><title>Node17&#45;&gt;Node19</title>
<path fill="none" stroke="midnightblue" d="M793.701,-137.778C866.117,-129.309 988.795,-114.569 1094,-100 1105.08,-98.466 1116.84,-96.7446 1128.24,-95.0296"/>
<polygon fill="midnightblue" stroke="midnightblue" points="1128.76,-98.4897 1138.12,-93.529 1127.71,-91.569 1128.76,-98.4897"/>
</g>
<!-- Node20 -->
<g id="node20" class="node"><title>Node20</title>
<polygon fill="none" stroke="#bfbfbf" points="246.5,-74.5 246.5,-93.5 395.5,-93.5 395.5,-74.5 246.5,-74.5"/>
<text text-anchor="middle" x="321" y="-81.5" font-family="Helvetica,sans-Serif" font-size="10.00">Math/GenVector/Rotation3D.h</text>
</g>
<!-- Node17&#45;&gt;Node20 -->
<g id="edge21" class="edge"><title>Node17&#45;&gt;Node20</title>
<path fill="none" stroke="midnightblue" d="M668.395,-137.105C602.683,-128.644 496.419,-114.466 405,-100 395.866,-98.5547 386.193,-96.9224 376.785,-95.2802"/>
<polygon fill="midnightblue" stroke="midnightblue" points="377.176,-91.7952 366.72,-93.5028 375.959,-98.6885 377.176,-91.7952"/>
</g>
<!-- Node21 -->
<g id="node21" class="node"><title>Node21</title>
<polygon fill="none" stroke="#bfbfbf" points="414,-74.5 414,-93.5 570,-93.5 570,-74.5 414,-74.5"/>
<text text-anchor="middle" x="492" y="-81.5" font-family="Helvetica,sans-Serif" font-size="10.00">Math/GenVector/Transform3D.h</text>
</g>
<!-- Node17&#45;&gt;Node21 -->
<g id="edge22" class="edge"><title>Node17&#45;&gt;Node21</title>
<path fill="none" stroke="midnightblue" d="M697.011,-136.467C654.628,-125.827 582.109,-107.622 535.654,-95.9593"/>
<polygon fill="midnightblue" stroke="midnightblue" points="536.423,-92.5437 525.872,-93.5034 534.719,-99.333 536.423,-92.5437"/>
</g>
<!-- Node22 -->
<g id="node22" class="node"><title>Node22</title>
<polygon fill="none" stroke="#bfbfbf" points="588,-74.5 588,-93.5 748,-93.5 748,-74.5 588,-74.5"/>
<text text-anchor="middle" x="668" y="-81.5" font-family="Helvetica,sans-Serif" font-size="10.00">Math/GenVector/Translation3D.h</text>
</g>
<!-- Node17&#45;&gt;Node22 -->
<g id="edge23" class="edge"><title>Node17&#45;&gt;Node22</title>
<path fill="none" stroke="midnightblue" d="M721.974,-136.403C712.243,-127.136 696.542,-112.183 684.577,-100.788"/>
<polygon fill="midnightblue" stroke="midnightblue" points="686.665,-97.9427 677.01,-93.5806 681.837,-103.012 686.665,-97.9427"/>
</g>
<!-- Node23 -->
<g id="node23" class="node"><title>Node23</title>
<polygon fill="none" stroke="#bfbfbf" points="766,-74.5 766,-93.5 822,-93.5 822,-74.5 766,-74.5"/>
<text text-anchor="middle" x="794" y="-81.5" font-family="Helvetica,sans-Serif" font-size="10.00">Rtypes.h</text>
</g>
<!-- Node17&#45;&gt;Node23 -->
<g id="edge24" class="edge"><title>Node17&#45;&gt;Node23</title>
<path fill="none" stroke="midnightblue" d="M740.026,-136.403C749.757,-127.136 765.458,-112.183 777.423,-100.788"/>
<polygon fill="midnightblue" stroke="midnightblue" points="780.163,-103.012 784.99,-93.5806 775.335,-97.9427 780.163,-103.012"/>
</g>
<!-- Node24 -->
<g id="node24" class="node"><title>Node24</title>
<polygon fill="none" stroke="#bfbfbf" points="840,-74.5 840,-93.5 916,-93.5 916,-74.5 840,-74.5"/>
<text text-anchor="middle" x="878" y="-81.5" font-family="Helvetica,sans-Serif" font-size="10.00">TGeoMatrix.h</text>
</g>
<!-- Node17&#45;&gt;Node24 -->
<g id="edge25" class="edge"><title>Node17&#45;&gt;Node24</title>
<path fill="none" stroke="midnightblue" d="M752.062,-136.403C777.059,-126.2 818.942,-109.105 847.487,-97.4544"/>
<polygon fill="midnightblue" stroke="midnightblue" points="849.042,-100.6 856.978,-93.5806 846.396,-94.1192 849.042,-100.6"/>
</g>
<!-- Node26&#45;&gt;Node25 -->
<g id="edge33" class="edge"><title>Node26&#45;&gt;Node25</title>
<path fill="none" stroke="midnightblue" d="M765.701,-360.324C751.817,-351.9 730.508,-338.971 714.196,-329.074"/>
<polygon fill="midnightblue" stroke="midnightblue" points="715.629,-325.85 705.264,-323.655 711.998,-331.834 715.629,-325.85"/>
</g>
<!-- Node26&#45;&gt;Node27 -->
<g id="edge30" class="edge"><title>Node26&#45;&gt;Node27</title>
<path fill="none" stroke="midnightblue" d="M778.48,-360.174C775.658,-346.366 768.344,-319.621 752,-304 734.899,-287.656 711.28,-277.111 689.589,-270.374"/>
<polygon fill="midnightblue" stroke="midnightblue" points="690.367,-266.955 679.788,-267.539 688.422,-273.68 690.367,-266.955"/>
</g>
<!-- Node27&#45;&gt;Node13 -->
<g id="edge32" class="edge"><title>Node27&#45;&gt;Node13</title>
<path fill="none" stroke="midnightblue" d="M614.144,-248.444C594.734,-239.636 564.27,-225.812 542.035,-215.722"/>
<polygon fill="midnightblue" stroke="midnightblue" points="543.32,-212.462 532.768,-211.516 540.428,-218.836 543.32,-212.462"/>
</g>
<!-- Node28 -->
<g id="node28" class="node"><title>Node28</title>
<g id="a_node28"><a xlink:href="../../d6/d51/TPC_2base_2include_2TPCBase_2Constants_8h.html" target="_top" xlink:title="TPCBase/Constants.h">
<polygon fill="none" stroke="black" points="578,-192.5 578,-211.5 694,-211.5 694,-192.5 578,-192.5"/>
<text text-anchor="middle" x="636" y="-199.5" font-family="Helvetica,sans-Serif" font-size="10.00">TPCBase/Constants.h</text>
</a>
</g>
</g>
<!-- Node27&#45;&gt;Node28 -->
<g id="edge31" class="edge"><title>Node27&#45;&gt;Node28</title>
<path fill="none" stroke="midnightblue" d="M633.495,-248.083C633.889,-241.006 634.452,-230.861 634.945,-221.986"/>
<polygon fill="midnightblue" stroke="midnightblue" points="638.454,-221.93 635.514,-211.751 631.464,-221.542 638.454,-221.93"/>
</g>
<!-- Node29&#45;&gt;Node13 -->
<g id="edge35" class="edge"><title>Node29&#45;&gt;Node13</title>
<path fill="none" stroke="midnightblue" d="M402.482,-360.463C391.048,-347.919 373.241,-323.847 383,-304 403.958,-261.377 452.514,-231.672 484.261,-215.983"/>
<polygon fill="midnightblue" stroke="midnightblue" points="486.004,-219.029 493.524,-211.565 482.991,-212.711 486.004,-219.029"/>
</g>
<!-- Node29&#45;&gt;Node25 -->
<g id="edge39" class="edge"><title>Node29&#45;&gt;Node25</title>
<path fill="none" stroke="midnightblue" d="M455.367,-360.444C504.622,-350.944 584.128,-335.611 636.971,-325.42"/>
<polygon fill="midnightblue" stroke="midnightblue" points="637.684,-328.847 646.841,-323.516 636.359,-321.974 637.684,-328.847"/>
</g>
<!-- Node30 -->
<g id="node30" class="node"><title>Node30</title>
<g id="a_node30"><a xlink:href="../../dc/d14/ROC_8h.html" target="_top" xlink:title="TPCBase/ROC.h">
<polygon fill="none" stroke="black" points="392.5,-304.5 392.5,-323.5 485.5,-323.5 485.5,-304.5 392.5,-304.5"/>
<text text-anchor="middle" x="439" y="-311.5" font-family="Helvetica,sans-Serif" font-size="10.00">TPCBase/ROC.h</text>
</a>
</g>
</g>
<!-- Node29&#45;&gt;Node30 -->
<g id="edge36" class="edge"><title>Node29&#45;&gt;Node30</title>
<path fill="none" stroke="midnightblue" d="M415.624,-360.083C419.456,-352.691 425.024,-341.953 429.765,-332.811"/>
<polygon fill="midnightblue" stroke="midnightblue" points="432.966,-334.24 434.462,-323.751 426.752,-331.018 432.966,-334.24"/>
</g>
<!-- Node30&#45;&gt;Node13 -->
<g id="edge37" class="edge"><title>Node30&#45;&gt;Node13</title>
<path fill="none" stroke="midnightblue" d="M444.885,-304.368C457.262,-286.215 486.181,-243.802 502.416,-219.99"/>
<polygon fill="midnightblue" stroke="midnightblue" points="505.401,-221.825 508.142,-211.591 499.617,-217.882 505.401,-221.825"/>
</g>
<!-- Node30&#45;&gt;Node27 -->
<g id="edge38" class="edge"><title>Node30&#45;&gt;Node27</title>
<path fill="none" stroke="midnightblue" d="M469.74,-304.444C502.944,-295.201 555.991,-280.436 592.557,-270.257"/>
<polygon fill="midnightblue" stroke="midnightblue" points="593.709,-273.57 602.404,-267.516 591.832,-266.826 593.709,-273.57"/>
</g>
<!-- Node31&#45;&gt;Node13 -->
<g id="edge41" class="edge"><title>Node31&#45;&gt;Node13</title>
<path fill="none" stroke="midnightblue" d="M574.74,-416.405C555.824,-409.759 533.825,-398.477 522,-380 490.269,-330.419 501.507,-256.057 509.204,-221.669"/>
<polygon fill="midnightblue" stroke="midnightblue" points="512.683,-222.173 511.612,-211.633 505.876,-220.54 512.683,-222.173"/>
</g>
<!-- Node31&#45;&gt;Node25 -->
<g id="edge46" class="edge"><title>Node31&#45;&gt;Node25</title>
<path fill="none" stroke="midnightblue" d="M615.434,-416.368C629.027,-398.135 660.864,-355.426 678.569,-331.675"/>
<polygon fill="midnightblue" stroke="midnightblue" points="681.425,-333.701 684.595,-323.591 675.813,-329.517 681.425,-333.701"/>
</g>
<!-- Node31&#45;&gt;Node26 -->
<g id="edge47" class="edge"><title>Node31&#45;&gt;Node26</title>
<path fill="none" stroke="midnightblue" d="M636.095,-416.444C664.988,-407.32 710.925,-392.813 743.105,-382.651"/>
<polygon fill="midnightblue" stroke="midnightblue" points="744.549,-385.865 753.031,-379.516 742.441,-379.19 744.549,-385.865"/>
</g>
<!-- Node32 -->
<g id="node32" class="node"><title>Node32</title>
<g id="a_node32"><a xlink:href="../../df/d26/CRU_8h.html" target="_top" xlink:title="TPCBase/CRU.h">
<polygon fill="none" stroke="black" points="531.5,-360.5 531.5,-379.5 624.5,-379.5 624.5,-360.5 531.5,-360.5"/>
<text text-anchor="middle" x="578" y="-367.5" font-family="Helvetica,sans-Serif" font-size="10.00">TPCBase/CRU.h</text>
</a>
</g>
</g>
<!-- Node31&#45;&gt;Node32 -->
<g id="edge42" class="edge"><title>Node31&#45;&gt;Node32</title>
<path fill="none" stroke="midnightblue" d="M603.881,-416.083C599.592,-408.613 593.342,-397.724 588.058,-388.52"/>
<polygon fill="midnightblue" stroke="midnightblue" points="591.038,-386.681 583.024,-379.751 584.967,-390.166 591.038,-386.681"/>
</g>
<!-- Node32&#45;&gt;Node13 -->
<g id="edge43" class="edge"><title>Node32&#45;&gt;Node13</title>
<path fill="none" stroke="midnightblue" d="M574.559,-360.075C564.441,-333.832 534.644,-256.545 520.985,-221.117"/>
<polygon fill="midnightblue" stroke="midnightblue" points="524.166,-219.64 517.303,-211.568 517.635,-222.158 524.166,-219.64"/>
</g>
<!-- Node32&#45;&gt;Node27 -->
<g id="edge44" class="edge"><title>Node32&#45;&gt;Node27</title>
<path fill="none" stroke="midnightblue" d="M582.316,-360.368C591.312,-342.376 612.225,-300.55 624.187,-276.627"/>
<polygon fill="midnightblue" stroke="midnightblue" points="627.363,-278.101 628.704,-267.591 621.102,-274.97 627.363,-278.101"/>
</g>
<!-- Node32&#45;&gt;Node30 -->
<g id="edge45" class="edge"><title>Node32&#45;&gt;Node30</title>
<path fill="none" stroke="midnightblue" d="M555.975,-360.444C532.896,-351.478 496.438,-337.314 470.359,-327.183"/>
<polygon fill="midnightblue" stroke="midnightblue" points="471.511,-323.875 460.922,-323.516 468.976,-330.4 471.511,-323.875"/>
</g>
<!-- Node33&#45;&gt;Node5 -->
<g id="edge49" class="edge"><title>Node33&#45;&gt;Node5</title>
<path fill="none" stroke="midnightblue" d="M1194.98,-248.234C1216.7,-220.971 1283.29,-137.36 1311.81,-101.554"/>
<polygon fill="midnightblue" stroke="midnightblue" points="1314.7,-103.547 1318.19,-93.5442 1309.23,-99.1856 1314.7,-103.547"/>
</g>
<!-- Node34&#45;&gt;Node10 -->
<g id="edge51" class="edge"><title>Node34&#45;&gt;Node10</title>
<path fill="none" stroke="midnightblue" d="M879.781,-416.324C894.267,-407.822 916.573,-394.729 933.493,-384.797"/>
<polygon fill="midnightblue" stroke="midnightblue" points="935.403,-387.735 942.255,-379.655 931.859,-381.698 935.403,-387.735"/>
</g>
<!-- Node34&#45;&gt;Node13 -->
<g id="edge52" class="edge"><title>Node34&#45;&gt;Node13</title>
<path fill="none" stroke="midnightblue" d="M868.514,-416.363C873.243,-403.27 879.981,-378.019 870,-360 824.527,-277.908 777.289,-284.893 691,-248 652.127,-231.38 605.73,-219.865 570.193,-212.646"/>
<polygon fill="midnightblue" stroke="midnightblue" points="570.493,-209.138 560.005,-210.633 569.137,-216.005 570.493,-209.138"/>
</g>
<!-- Node34&#45;&gt;Node25 -->
<g id="edge53" class="edge"><title>Node34&#45;&gt;Node25</title>
<path fill="none" stroke="midnightblue" d="M865.595,-416.13C866.015,-402.26 864.694,-375.433 850,-360 825.259,-334.016 786.745,-322.68 753.819,-317.882"/>
<polygon fill="midnightblue" stroke="midnightblue" points="754.167,-314.398 743.802,-316.593 753.274,-321.341 754.167,-314.398"/>
</g>
</g>
</svg>
        <g id="navigator" transform="translate(0 0)" fill="#404254">
                <rect fill="#f2f5e9" fill-opacity="0.5" stroke="#606060" stroke-width=".5" x="0" y="0" width="60" height="60"/>
                <use id="zoomplus" xlink:href="#zoomPlus" x="17" y="9" onmousedown="handleZoom(evt,'in')"/>
                <use id="zoomminus" xlink:href="#zoomMin" x="42" y="9" onmousedown="handleZoom(evt,'out')"/>
                <use id="reset" xlink:href="#resetDef" x="30" y="36" onmousedown="handleReset()"/>
                <g id="arrowUp" xlink:href="#dirArrow" transform="translate(30 24)" onmousedown="handlePan(0,-1)">
                  <use xlink:href="#rim" fill="#404040">
                        <set attributeName="fill" to="#808080" begin="arrowUp.mouseover" end="arrowUp.mouseout"/>
                  </use>
                  <path fill="none" stroke="white" stroke-width="1.5" d="M0,-3.0v7 M-2.5,-0.5L0,-3.0L2.5,-0.5"/>
                </g>
                <g id="arrowRight" xlink:href="#dirArrow" transform="rotate(90) translate(36 -43)" onmousedown="handlePan(1,0)">
                  <use xlink:href="#rim" fill="#404040">
                        <set attributeName="fill" to="#808080" begin="arrowRight.mouseover" end="arrowRight.mouseout"/>
                  </use>
                  <path fill="none" stroke="white" stroke-width="1.5" d="M0,-3.0v7 M-2.5,-0.5L0,-3.0L2.5,-0.5"/>
                </g>
                <g id="arrowDown" xlink:href="#dirArrow" transform="rotate(180) translate(-30 -48)" onmousedown="handlePan(0,1)">
                  <use xlink:href="#rim" fill="#404040">
                        <set attributeName="fill" to="#808080" begin="arrowDown.mouseover" end="arrowDown.mouseout"/>
                  </use>
                  <path fill="none" stroke="white" stroke-width="1.5" d="M0,-3.0v7 M-2.5,-0.5L0,-3.0L2.5,-0.5"/>
                </g>
                <g id="arrowLeft" xlink:href="#dirArrow" transform="rotate(270) translate(-36 17)" onmousedown="handlePan(-1,0)">
                  <use xlink:href="#rim" fill="#404040">
                        <set attributeName="fill" to="#808080" begin="arrowLeft.mouseover" end="arrowLeft.mouseout"/>
                  </use>
                  <path fill="none" stroke="white" stroke-width="1.5" d="M0,-3.0v7 M-2.5,-0.5L0,-3.0L2.5,-0.5"/>
                </g>
        </g>
        <svg viewBox="0 0 15 15" width="100%" height="30px" preserveAspectRatio="xMaxYMin meet">
         <g id="arrow_out" transform="scale(0.3 0.3)">
          <a xlink:href="testTPCMapper_8cxx__incl_org.svg" target="_base">
           <rect id="button" ry="5" rx="5" y="6" x="6" height="38" width="38"
                fill="#f2f5e9" fill-opacity="0.5" stroke="#606060" stroke-width="1.0"/>
           <path id="arrow"
             d="M 11.500037,31.436501 C 11.940474,20.09759 22.043105,11.32322 32.158766,21.979434 L 37.068811,17.246167 C 37.068811,17.246167 37.088388,32 37.088388,32 L 22.160133,31.978069 C 22.160133,31.978069 26.997745,27.140456 26.997745,27.140456 C 18.528582,18.264221 13.291696,25.230495 11.500037,31.436501 z"
             style="fill:#404040;"/>
          </a>
         </g>
        </svg>
</svg>
