<?xml version="1.0" encoding="UTF-8" standalone="no"?>
<!DOCTYPE svg PUBLIC "-//W3C//DTD SVG 1.1//EN"
 "http://www.w3.org/Graphics/SVG/1.1/DTD/svg11.dtd">
<!-- Generated by graphviz version 2.36.0 (20140111.2315)
 -->
<!-- Title: TriviallyCopyable Pages: 1 -->
<svg width="100pt" height="182pt"
 viewBox="0.00 0.00 100.00 182.00" xmlns="http://www.w3.org/2000/svg" xmlns:xlink="http://www.w3.org/1999/xlink">
<g id="graph0" class="graph" transform="scale(1 1) rotate(0) translate(4 178)">
<title>TriviallyCopyable</title>
<!-- Node1 -->
<g id="node1" class="node"><title>Node1</title>
<polygon fill="#bfbfbf" stroke="black" points="0,-0.5 0,-57.5 92,-57.5 92,-0.5 0,-0.5"/>
<text text-anchor="middle" x="46" y="-45.5" font-family="Helvetica,sans-Serif" font-size="10.00">TriviallyCopyable</text>
<polyline fill="none" stroke="black" points="0,-38.5 92,-38.5 "/>
<text text-anchor="middle" x="46" y="-26.5" font-family="Helvetica,sans-Serif" font-size="10.00"> </text>
<polyline fill="none" stroke="black" points="0,-19.5 92,-19.5 "/>
<text text-anchor="middle" x="46" y="-7.5" font-family="Helvetica,sans-Serif" font-size="10.00"> </text>
</g>
<!-- Node2 -->
<g id="node2" class="node"><title>Node2</title>
<polygon fill="none" stroke="#bfbfbf" points="31.5,-116.5 31.5,-173.5 60.5,-173.5 60.5,-116.5 31.5,-116.5"/>
<text text-anchor="middle" x="46" y="-161.5" font-family="Helvetica,sans-Serif" font-size="10.00">int</text>
<polyline fill="none" stroke="#bfbfbf" points="31.5,-154.5 60.5,-154.5 "/>
<text text-anchor="middle" x="46" y="-142.5" font-family="Helvetica,sans-Serif" font-size="10.00"> </text>
<polyline fill="none" stroke="#bfbfbf" points="31.5,-135.5 60.5,-135.5 "/>
<text text-anchor="middle" x="46" y="-123.5" font-family="Helvetica,sans-Serif" font-size="10.00"> </text>
</g>
<!-- Node2&#45;&gt;Node1 -->
<g id="edge1" class="edge"><title>Node2&#45;&gt;Node1</title>
<path fill="none" stroke="#404040" d="M46,-116.404C46,-102.504 46,-85.3915 46,-70.073"/>
<polygon fill="none" stroke="#404040" points="46.0001,-69.7372 42,-63.7372 46,-57.7372 50,-63.7372 46.0001,-69.7372"/>
<text text-anchor="middle" x="58.5" y="-90" font-family="Helvetica,sans-Serif" font-size="10.00"> +mX</text>
<text text-anchor="middle" x="58.5" y="-79" font-family="Helvetica,sans-Serif" font-size="10.00">+mY</text>
</g>
</g>
</svg>
