<?xml version="1.0" encoding="UTF-8" standalone="no"?>
<!DOCTYPE svg PUBLIC "-//W3C//DTD SVG 1.1//EN"
 "http://www.w3.org/Graphics/SVG/1.1/DTD/svg11.dtd">
<!-- Generated by graphviz version 2.36.0 (20140111.2315)
 -->
<!-- Title: /home/travis/build/AliceO2Group/AliceO2/Detectors/TPC/base/src/Mapper.cxx Pages: 1 -->
<!--zoomable 590 -->
<svg id="main" version="1.1" xmlns="http://www.w3.org/2000/svg" xmlns:xlink="http://www.w3.org/1999/xlink" xml:space="preserve" onload="init(evt)">
<style type="text/css"><![CDATA[
.edge:hover path { stroke: red; }
.edge:hover polygon { stroke: red; fill: red; }
]]></style>
<script type="text/javascript"><![CDATA[
var edges = document.getElementsByTagName('g');
if (edges && edges.length) {
  for (var i=0;i<edges.length;i++) {
    if (edges[i].id.substr(0,4)=='edge') {
      edges[i].setAttribute('class','edge');
    }
  }
}
]]></script>
        <defs>
                <circle id="rim" cx="0" cy="0" r="7"/>
                <circle id="rim2" cx="0" cy="0" r="3.5"/>
                <g id="zoomPlus">
                        <use xlink:href="#rim" fill="#404040">
                                <set attributeName="fill" to="#808080" begin="zoomplus.mouseover" end="zoomplus.mouseout"/>
                        </use>
                        <path d="M-4,0h8M0,-4v8" fill="none" stroke="white" stroke-width="1.5" pointer-events="none"/>
                </g>
                <g id="zoomMin">
                        <use xlink:href="#rim" fill="#404040">
                                <set attributeName="fill" to="#808080" begin="zoomminus.mouseover" end="zoomminus.mouseout"/>
                        </use>
                        <path d="M-4,0h8" fill="none" stroke="white" stroke-width="1.5" pointer-events="none"/>
                </g>
                <g id="dirArrow">
                        <path fill="none" stroke="white" stroke-width="1.5" d="M0,-3.0v7 M-2.5,-0.5L0,-3.0L2.5,-0.5"/>
                </g>
               <g id="resetDef">
                       <use xlink:href="#rim2" fill="#404040">
                               <set attributeName="fill" to="#808080" begin="reset.mouseover" end="reset.mouseout"/>
                       </use>
               </g>
        </defs>

<script type="text/javascript">
var viewWidth = 1316;
var viewHeight = 590;
var sectionId = 'dynsection-0';
</script>
<script xlink:href="../../svgpan.js"/>
<svg id="graph" class="graph">
<g id="viewport">
<title>/home/travis/build/AliceO2Group/AliceO2/Detectors/TPC/base/src/Mapper.cxx</title>
<!-- Node1 -->
<g id="node1" class="node"><title>Node1</title>
<polygon fill="#bfbfbf" stroke="black" points="392,-529 392,-581 518,-581 518,-529 392,-529"/>
<text text-anchor="start" x="400" y="-569" font-family="Helvetica,sans-Serif" font-size="10.00">/home/travis/build</text>
<text text-anchor="start" x="400" y="-558" font-family="Helvetica,sans-Serif" font-size="10.00">/AliceO2Group/AliceO2</text>
<text text-anchor="start" x="400" y="-547" font-family="Helvetica,sans-Serif" font-size="10.00">/Detectors/TPC/base/src</text>
<text text-anchor="middle" x="455" y="-536" font-family="Helvetica,sans-Serif" font-size="10.00">/Mapper.cxx</text>
</g>
<!-- Node2 -->
<g id="node2" class="node"><title>Node2</title>
<polygon fill="none" stroke="#bfbfbf" points="274,-472.5 274,-491.5 324,-491.5 324,-472.5 274,-472.5"/>
<text text-anchor="middle" x="299" y="-479.5" font-family="Helvetica,sans-Serif" font-size="10.00">fstream</text>
</g>
<!-- Node1&#45;&gt;Node2 -->
<g id="edge1" class="edge"><title>Node1&#45;&gt;Node2</title>
<path fill="none" stroke="midnightblue" d="M400,-528.968C375.425,-517.783 347.503,-505.075 327.256,-495.86"/>
<polygon fill="midnightblue" stroke="midnightblue" points="328.533,-492.596 317.981,-491.639 325.633,-498.967 328.533,-492.596"/>
</g>
<!-- Node3 -->
<g id="node3" class="node"><title>Node3</title>
<polygon fill="none" stroke="#bfbfbf" points="1199,-74.5 1199,-93.5 1253,-93.5 1253,-74.5 1199,-74.5"/>
<text text-anchor="middle" x="1226" y="-81.5" font-family="Helvetica,sans-Serif" font-size="10.00">iostream</text>
</g>
<!-- Node1&#45;&gt;Node3 -->
<g id="edge2" class="edge"><title>Node1&#45;&gt;Node3</title>
<path fill="none" stroke="midnightblue" d="M518.07,-551.252C715.407,-541.825 1308,-506.868 1308,-427 1308,-427 1308,-427 1308,-201 1308,-158.201 1270.32,-120.122 1246.04,-100.031"/>
<polygon fill="midnightblue" stroke="midnightblue" points="1248.1,-97.1952 1238.1,-93.6971 1243.74,-102.668 1248.1,-97.1952"/>
</g>
<!-- Node4 -->
<g id="node4" class="node"><title>Node4</title>
<polygon fill="none" stroke="#bfbfbf" points="380.5,-416.5 380.5,-435.5 421.5,-435.5 421.5,-416.5 380.5,-416.5"/>
<text text-anchor="middle" x="401" y="-423.5" font-family="Helvetica,sans-Serif" font-size="10.00">string</text>
</g>
<!-- Node1&#45;&gt;Node4 -->
<g id="edge3" class="edge"><title>Node1&#45;&gt;Node4</title>
<path fill="none" stroke="midnightblue" d="M438.989,-528.728C432.489,-517.737 425.284,-504.528 420,-492 413.575,-476.766 408.475,-458.655 405.184,-445.425"/>
<polygon fill="midnightblue" stroke="midnightblue" points="408.573,-444.548 402.855,-435.629 401.763,-446.168 408.573,-444.548"/>
</g>
<!-- Node5 -->
<g id="node5" class="node"><title>Node5</title>
<polygon fill="none" stroke="#bfbfbf" points="429,-472.5 429,-491.5 481,-491.5 481,-472.5 429,-472.5"/>
<text text-anchor="middle" x="455" y="-479.5" font-family="Helvetica,sans-Serif" font-size="10.00">sstream</text>
</g>
<!-- Node1&#45;&gt;Node5 -->
<g id="edge4" class="edge"><title>Node1&#45;&gt;Node5</title>
<path fill="none" stroke="midnightblue" d="M455,-528.768C455,-519.89 455,-510.074 455,-501.816"/>
<polygon fill="midnightblue" stroke="midnightblue" points="458.5,-501.757 455,-491.757 451.5,-501.757 458.5,-501.757"/>
</g>
<!-- Node6 -->
<g id="node6" class="node"><title>Node6</title>
<polygon fill="none" stroke="#bfbfbf" points="499.5,-472.5 499.5,-491.5 544.5,-491.5 544.5,-472.5 499.5,-472.5"/>
<text text-anchor="middle" x="522" y="-479.5" font-family="Helvetica,sans-Serif" font-size="10.00">cstdlib</text>
</g>
<!-- Node1&#45;&gt;Node6 -->
<g id="edge5" class="edge"><title>Node1&#45;&gt;Node6</title>
<path fill="none" stroke="midnightblue" d="M478.81,-528.768C488.141,-518.881 498.568,-507.831 506.84,-499.066"/>
<polygon fill="midnightblue" stroke="midnightblue" points="509.418,-501.432 513.736,-491.757 504.327,-496.628 509.418,-501.432"/>
</g>
<!-- Node7 -->
<g id="node7" class="node"><title>Node7</title>
<polygon fill="none" stroke="#bfbfbf" points="428,-136.5 428,-155.5 472,-155.5 472,-136.5 428,-136.5"/>
<text text-anchor="middle" x="450" y="-143.5" font-family="Helvetica,sans-Serif" font-size="10.00">cmath</text>
</g>
<!-- Node1&#45;&gt;Node7 -->
<g id="edge6" class="edge"><title>Node1&#45;&gt;Node7</title>
<path fill="none" stroke="midnightblue" d="M416.939,-528.839C387.598,-506.108 352,-469.725 352,-427 352,-427 352,-427 352,-257 352,-213.38 395.492,-179.06 424.529,-161.007"/>
<polygon fill="midnightblue" stroke="midnightblue" points="426.583,-163.858 433.376,-155.727 422.995,-157.847 426.583,-163.858"/>
</g>
<!-- Node8 -->
<g id="node8" class="node"><title>Node8</title>
<g id="a_node8"><a xlink:href="../../d7/d2c/Mapper_8h.html" target="_top" xlink:title="TPCBase/Mapper.h">
<polygon fill="none" stroke="black" points="750.5,-472.5 750.5,-491.5 853.5,-491.5 853.5,-472.5 750.5,-472.5"/>
<text text-anchor="middle" x="802" y="-479.5" font-family="Helvetica,sans-Serif" font-size="10.00">TPCBase/Mapper.h</text>
</a>
</g>
</g>
<!-- Node1&#45;&gt;Node8 -->
<g id="edge7" class="edge"><title>Node1&#45;&gt;Node8</title>
<path fill="none" stroke="midnightblue" d="M518.242,-541.06C584.904,-527.42 688.646,-506.193 750.502,-493.537"/>
<polygon fill="midnightblue" stroke="midnightblue" points="751.334,-496.939 760.429,-491.506 749.931,-490.082 751.334,-496.939"/>
</g>
<!-- Node8&#45;&gt;Node4 -->
<g id="edge11" class="edge"><title>Node8&#45;&gt;Node4</title>
<path fill="none" stroke="midnightblue" d="M750.456,-476.781C679.307,-470.477 547.183,-457.038 436,-436 434.536,-435.723 433.042,-435.42 431.537,-435.098"/>
<polygon fill="midnightblue" stroke="midnightblue" points="432.163,-431.65 421.629,-432.776 430.567,-438.465 432.163,-431.65"/>
</g>
<!-- Node8&#45;&gt;Node7 -->
<g id="edge12" class="edge"><title>Node8&#45;&gt;Node7</title>
<path fill="none" stroke="midnightblue" d="M750.245,-476.907C678.572,-470.571 553.358,-456.895 513,-436 477.273,-417.502 450,-411.231 450,-371 450,-371 450,-371 450,-257 450,-224.948 450,-187.643 450,-165.749"/>
<polygon fill="midnightblue" stroke="midnightblue" points="453.5,-165.558 450,-155.558 446.5,-165.558 453.5,-165.558"/>
</g>
<!-- Node9 -->
<g id="node9" class="node"><title>Node9</title>
<polygon fill="none" stroke="#bfbfbf" points="920.5,-416.5 920.5,-435.5 955.5,-435.5 955.5,-416.5 920.5,-416.5"/>
<text text-anchor="middle" x="938" y="-423.5" font-family="Helvetica,sans-Serif" font-size="10.00">map</text>
</g>
<!-- Node8&#45;&gt;Node9 -->
<g id="edge8" class="edge"><title>Node8&#45;&gt;Node9</title>
<path fill="none" stroke="midnightblue" d="M823.55,-472.444C847.221,-463.045 885.278,-447.934 910.941,-437.744"/>
<polygon fill="midnightblue" stroke="midnightblue" points="912.441,-440.914 920.443,-433.971 909.858,-434.408 912.441,-440.914"/>
</g>
<!-- Node10 -->
<g id="node10" class="node"><title>Node10</title>
<polygon fill="none" stroke="#bfbfbf" points="1148,-360.5 1148,-379.5 1192,-379.5 1192,-360.5 1148,-360.5"/>
<text text-anchor="middle" x="1170" y="-367.5" font-family="Helvetica,sans-Serif" font-size="10.00">vector</text>
</g>
<!-- Node8&#45;&gt;Node10 -->
<g id="edge9" class="edge"><title>Node8&#45;&gt;Node10</title>
<path fill="none" stroke="midnightblue" d="M853.535,-481.5C940.927,-481.234 1112.92,-475.534 1156,-436 1168.61,-424.431 1171.31,-404.469 1171.35,-389.711"/>
<polygon fill="midnightblue" stroke="midnightblue" points="1174.84,-389.531 1170.98,-379.666 1167.85,-389.787 1174.84,-389.531"/>
</g>
<!-- Node11 -->
<g id="node11" class="node"><title>Node11</title>
<polygon fill="none" stroke="#bfbfbf" points="1204,-416.5 1204,-435.5 1242,-435.5 1242,-416.5 1204,-416.5"/>
<text text-anchor="middle" x="1223" y="-423.5" font-family="Helvetica,sans-Serif" font-size="10.00">array</text>
</g>
<!-- Node8&#45;&gt;Node11 -->
<g id="edge10" class="edge"><title>Node8&#45;&gt;Node11</title>
<path fill="none" stroke="midnightblue" d="M853.531,-477.509C928.212,-471.889 1070.65,-459.059 1190,-436 1191.28,-435.753 1192.58,-435.482 1193.89,-435.193"/>
<polygon fill="midnightblue" stroke="midnightblue" points="1195.04,-438.514 1203.92,-432.728 1193.37,-431.717 1195.04,-438.514"/>
</g>
<!-- Node12 -->
<g id="node12" class="node"><title>Node12</title>
<g id="a_node12"><a xlink:href="../../d1/d73/Defs_8h.html" target="_top" xlink:title="Common definitions for 2D coordinates. ">
<polygon fill="none" stroke="black" points="695,-192.5 695,-211.5 787,-211.5 787,-192.5 695,-192.5"/>
<text text-anchor="middle" x="741" y="-199.5" font-family="Helvetica,sans-Serif" font-size="10.00">TPCBase/Defs.h</text>
</a>
</g>
</g>
<!-- Node8&#45;&gt;Node12 -->
<g id="edge13" class="edge"><title>Node8&#45;&gt;Node12</title>
<path fill="none" stroke="midnightblue" d="M750.111,-479.319C699.52,-475.881 621.568,-465.711 561,-436 521.998,-416.868 488,-414.442 488,-371 488,-371 488,-371 488,-313 488,-278.605 501.683,-267.524 530,-248 554.697,-230.972 631.092,-217.636 684.824,-210.037"/>
<polygon fill="midnightblue" stroke="midnightblue" points="685.485,-213.479 694.91,-208.64 684.524,-206.546 685.485,-213.479"/>
</g>
<!-- Node24 -->
<g id="node24" class="node"><title>Node24</title>
<g id="a_node24"><a xlink:href="../../de/d41/PadPos_8h.html" target="_top" xlink:title="TPCBase/PadPos.h">
<polygon fill="none" stroke="black" points="844.5,-304.5 844.5,-323.5 949.5,-323.5 949.5,-304.5 844.5,-304.5"/>
<text text-anchor="middle" x="897" y="-311.5" font-family="Helvetica,sans-Serif" font-size="10.00">TPCBase/PadPos.h</text>
</a>
</g>
</g>
<!-- Node8&#45;&gt;Node24 -->
<g id="edge28" class="edge"><title>Node8&#45;&gt;Node24</title>
<path fill="none" stroke="midnightblue" d="M824.041,-472.393C839.836,-465.078 860.307,-453.032 872,-436 893.372,-404.868 897.172,-359.335 897.462,-333.928"/>
<polygon fill="midnightblue" stroke="midnightblue" points="900.961,-333.773 897.398,-323.795 893.961,-333.817 900.961,-333.773"/>
</g>
<!-- Node25 -->
<g id="node25" class="node"><title>Node25</title>
<g id="a_node25"><a xlink:href="../../dd/d0b/PadSecPos_8h.html" target="_top" xlink:title="TPCBase/PadSecPos.h">
<polygon fill="none" stroke="black" points="554,-360.5 554,-379.5 676,-379.5 676,-360.5 554,-360.5"/>
<text text-anchor="middle" x="615" y="-367.5" font-family="Helvetica,sans-Serif" font-size="10.00">TPCBase/PadSecPos.h</text>
</a>
</g>
</g>
<!-- Node8&#45;&gt;Node25 -->
<g id="edge29" class="edge"><title>Node8&#45;&gt;Node25</title>
<path fill="none" stroke="midnightblue" d="M750.43,-476.403C698.277,-470.561 622.88,-458.424 605,-436 594.461,-422.782 599.458,-403.111 605.545,-388.872"/>
<polygon fill="midnightblue" stroke="midnightblue" points="608.806,-390.166 609.964,-379.635 602.491,-387.146 608.806,-390.166"/>
</g>
<!-- Node26 -->
<g id="node26" class="node"><title>Node26</title>
<g id="a_node26"><a xlink:href="../../d3/dd6/Sector_8h.html" target="_top" xlink:title="TPCBase/Sector.h">
<polygon fill="none" stroke="black" points="539.5,-248.5 539.5,-267.5 638.5,-267.5 638.5,-248.5 539.5,-248.5"/>
<text text-anchor="middle" x="589" y="-255.5" font-family="Helvetica,sans-Serif" font-size="10.00">TPCBase/Sector.h</text>
</a>
</g>
</g>
<!-- Node8&#45;&gt;Node26 -->
<g id="edge55" class="edge"><title>Node8&#45;&gt;Node26</title>
<path fill="none" stroke="midnightblue" d="M750.306,-478.619C706.369,-474.607 642.97,-463.978 595,-436 560.074,-415.63 536.752,-399.582 545,-360 551.445,-329.067 567.896,-295.997 578.754,-276.43"/>
<polygon fill="midnightblue" stroke="midnightblue" points="581.926,-277.932 583.839,-267.511 575.845,-274.464 581.926,-277.932"/>
</g>
<!-- Node28 -->
<g id="node28" class="node"><title>Node28</title>
<g id="a_node28"><a xlink:href="../../da/d61/PadROCPos_8h.html" target="_top" xlink:title="TPCBase/PadROCPos.h">
<polygon fill="none" stroke="black" points="920,-360.5 920,-379.5 1048,-379.5 1048,-360.5 920,-360.5"/>
<text text-anchor="middle" x="984" y="-367.5" font-family="Helvetica,sans-Serif" font-size="10.00">TPCBase/PadROCPos.h</text>
</a>
</g>
</g>
<!-- Node8&#45;&gt;Node28 -->
<g id="edge34" class="edge"><title>Node8&#45;&gt;Node28</title>
<path fill="none" stroke="midnightblue" d="M853.6,-479.207C889.005,-475.283 934.708,-464.496 964,-436 976.287,-424.047 981.07,-404.745 982.909,-390.274"/>
<polygon fill="midnightblue" stroke="midnightblue" points="986.428,-390.211 983.839,-379.938 979.457,-389.584 986.428,-390.211"/>
</g>
<!-- Node30 -->
<g id="node30" class="node"><title>Node30</title>
<g id="a_node30"><a xlink:href="../../d3/d54/DigitPos_8h.html" target="_top" xlink:title="TPCBase/DigitPos.h">
<polygon fill="none" stroke="black" points="614,-416.5 614,-435.5 722,-435.5 722,-416.5 614,-416.5"/>
<text text-anchor="middle" x="668" y="-423.5" font-family="Helvetica,sans-Serif" font-size="10.00">TPCBase/DigitPos.h</text>
</a>
</g>
</g>
<!-- Node8&#45;&gt;Node30 -->
<g id="edge40" class="edge"><title>Node8&#45;&gt;Node30</title>
<path fill="none" stroke="midnightblue" d="M780.767,-472.444C758.616,-463.517 723.681,-449.439 698.564,-439.317"/>
<polygon fill="midnightblue" stroke="midnightblue" points="699.717,-436.008 689.133,-435.516 697.1,-442.501 699.717,-436.008"/>
</g>
<!-- Node32 -->
<g id="node32" class="node"><title>Node32</title>
<g id="a_node32"><a xlink:href="../../d1/d1f/FECInfo_8h.html" target="_top" xlink:title="TPCBase/FECInfo.h">
<polygon fill="none" stroke="black" points="1172.5,-248.5 1172.5,-267.5 1279.5,-267.5 1279.5,-248.5 1172.5,-248.5"/>
<text text-anchor="middle" x="1226" y="-255.5" font-family="Helvetica,sans-Serif" font-size="10.00">TPCBase/FECInfo.h</text>
</a>
</g>
</g>
<!-- Node8&#45;&gt;Node32 -->
<g id="edge48" class="edge"><title>Node8&#45;&gt;Node32</title>
<path fill="none" stroke="midnightblue" d="M853.705,-479.639C966.102,-476.146 1224.75,-465.01 1251,-436 1291.55,-391.177 1255.93,-312.1 1236.57,-276.839"/>
<polygon fill="midnightblue" stroke="midnightblue" points="1239.38,-274.714 1231.4,-267.753 1233.3,-278.175 1239.38,-274.714"/>
</g>
<!-- Node33 -->
<g id="node33" class="node"><title>Node33</title>
<g id="a_node33"><a xlink:href="../../da/d9d/PadRegionInfo_8h.html" target="_top" xlink:title="TPCBase/PadRegionInfo.h">
<polygon fill="none" stroke="black" points="1012.5,-416.5 1012.5,-435.5 1147.5,-435.5 1147.5,-416.5 1012.5,-416.5"/>
<text text-anchor="middle" x="1080" y="-423.5" font-family="Helvetica,sans-Serif" font-size="10.00">TPCBase/PadRegionInfo.h</text>
</a>
</g>
</g>
<!-- Node8&#45;&gt;Node33 -->
<g id="edge50" class="edge"><title>Node8&#45;&gt;Node33</title>
<path fill="none" stroke="midnightblue" d="M846.05,-472.444C894.851,-462.964 973.563,-447.675 1026.03,-437.483"/>
<polygon fill="midnightblue" stroke="midnightblue" points="1027.01,-440.859 1036.16,-435.516 1025.67,-433.988 1027.01,-440.859"/>
</g>
<!-- Node34 -->
<g id="node34" class="node"><title>Node34</title>
<g id="a_node34"><a xlink:href="../../d6/d42/PartitionInfo_8h.html" target="_top" xlink:title="TPCBase/PartitionInfo.h">
<polygon fill="none" stroke="black" points="740.5,-416.5 740.5,-435.5 863.5,-435.5 863.5,-416.5 740.5,-416.5"/>
<text text-anchor="middle" x="802" y="-423.5" font-family="Helvetica,sans-Serif" font-size="10.00">TPCBase/PartitionInfo.h</text>
</a>
</g>
</g>
<!-- Node8&#45;&gt;Node34 -->
<g id="edge54" class="edge"><title>Node8&#45;&gt;Node34</title>
<path fill="none" stroke="midnightblue" d="M802,-472.083C802,-465.006 802,-454.861 802,-445.986"/>
<polygon fill="midnightblue" stroke="midnightblue" points="805.5,-445.751 802,-435.751 798.5,-445.751 805.5,-445.751"/>
</g>
<!-- Node12&#45;&gt;Node7 -->
<g id="edge14" class="edge"><title>Node12&#45;&gt;Node7</title>
<path fill="none" stroke="midnightblue" d="M694.89,-192.444C635.517,-181.426 533.848,-162.559 482.179,-152.971"/>
<polygon fill="midnightblue" stroke="midnightblue" points="482.713,-149.511 472.242,-151.127 481.436,-156.393 482.713,-149.511"/>
</g>
<!-- Node13 -->
<g id="node13" class="node"><title>Node13</title>
<g id="a_node13"><a xlink:href="../../d2/dd0/Cartesian2D_8h.html" target="_top" xlink:title="MathUtils/Cartesian2D.h">
<polygon fill="none" stroke="black" points="1050.5,-74.5 1050.5,-93.5 1175.5,-93.5 1175.5,-74.5 1050.5,-74.5"/>
<text text-anchor="middle" x="1113" y="-81.5" font-family="Helvetica,sans-Serif" font-size="10.00">MathUtils/Cartesian2D.h</text>
</a>
</g>
</g>
<!-- Node12&#45;&gt;Node13 -->
<g id="edge15" class="edge"><title>Node12&#45;&gt;Node13</title>
<path fill="none" stroke="midnightblue" d="M768.354,-192.47C834.058,-171.982 1000.85,-119.97 1075.68,-96.6379"/>
<polygon fill="midnightblue" stroke="midnightblue" points="1077.1,-99.8606 1085.61,-93.5423 1075.02,-93.1779 1077.1,-99.8606"/>
</g>
<!-- Node16 -->
<g id="node16" class="node"><title>Node16</title>
<g id="a_node16"><a xlink:href="../../dd/d76/Cartesian3D_8h.html" target="_top" xlink:title="MathUtils/Cartesian3D.h">
<polygon fill="none" stroke="black" points="678.5,-136.5 678.5,-155.5 803.5,-155.5 803.5,-136.5 678.5,-136.5"/>
<text text-anchor="middle" x="741" y="-143.5" font-family="Helvetica,sans-Serif" font-size="10.00">MathUtils/Cartesian3D.h</text>
</a>
</g>
</g>
<!-- Node12&#45;&gt;Node16 -->
<g id="edge18" class="edge"><title>Node12&#45;&gt;Node16</title>
<path fill="none" stroke="midnightblue" d="M741,-192.083C741,-185.006 741,-174.861 741,-165.986"/>
<polygon fill="midnightblue" stroke="midnightblue" points="744.5,-165.751 741,-155.751 737.5,-165.751 744.5,-165.751"/>
</g>
<!-- Node14 -->
<g id="node14" class="node"><title>Node14</title>
<polygon fill="none" stroke="#bfbfbf" points="946.5,-1 946.5,-31 1097.5,-31 1097.5,-1 946.5,-1"/>
<text text-anchor="start" x="954.5" y="-19" font-family="Helvetica,sans-Serif" font-size="10.00">Math/GenVector/Displacement</text>
<text text-anchor="middle" x="1022" y="-8" font-family="Helvetica,sans-Serif" font-size="10.00">Vector2D.h</text>
</g>
<!-- Node13&#45;&gt;Node14 -->
<g id="edge16" class="edge"><title>Node13&#45;&gt;Node14</title>
<path fill="none" stroke="midnightblue" d="M1101.1,-74.3717C1088.22,-65.0286 1067.22,-49.7966 1050.09,-37.375"/>
<polygon fill="midnightblue" stroke="midnightblue" points="1051.7,-34.2194 1041.55,-31.1815 1047.59,-39.8859 1051.7,-34.2194"/>
</g>
<!-- Node15 -->
<g id="node15" class="node"><title>Node15</title>
<polygon fill="none" stroke="#bfbfbf" points="1116,-6.5 1116,-25.5 1292,-25.5 1292,-6.5 1116,-6.5"/>
<text text-anchor="middle" x="1204" y="-13.5" font-family="Helvetica,sans-Serif" font-size="10.00">Math/GenVector/PositionVector2D.h</text>
</g>
<!-- Node13&#45;&gt;Node15 -->
<g id="edge17" class="edge"><title>Node13&#45;&gt;Node15</title>
<path fill="none" stroke="midnightblue" d="M1124.9,-74.3717C1139.88,-63.5015 1165.86,-44.6602 1183.94,-31.5474"/>
<polygon fill="midnightblue" stroke="midnightblue" points="1186.06,-34.3349 1192.1,-25.6305 1181.95,-28.6684 1186.06,-34.3349"/>
</g>
<!-- Node16&#45;&gt;Node3 -->
<g id="edge26" class="edge"><title>Node16&#45;&gt;Node3</title>
<path fill="none" stroke="midnightblue" d="M803.76,-143.387C890.306,-140.089 1050.72,-130.102 1184,-100 1187.69,-99.1663 1191.5,-98.1042 1195.26,-96.9313"/>
<polygon fill="midnightblue" stroke="midnightblue" points="1196.58,-100.177 1204.93,-93.6485 1194.33,-93.5484 1196.58,-100.177"/>
</g>
<!-- Node16&#45;&gt;Node13 -->
<g id="edge27" class="edge"><title>Node16&#45;&gt;Node13</title>
<path fill="none" stroke="midnightblue" d="M803.509,-136.672C864.312,-128.325 959.219,-114.64 1041,-100 1048.43,-98.6702 1056.26,-97.1549 1063.92,-95.6107"/>
<polygon fill="midnightblue" stroke="midnightblue" points="1064.75,-99.0144 1073.84,-93.5771 1063.34,-92.1571 1064.75,-99.0144"/>
</g>
<!-- Node17 -->
<g id="node17" class="node"><title>Node17</title>
<polygon fill="none" stroke="#bfbfbf" points="881.5,-69 881.5,-99 1032.5,-99 1032.5,-69 881.5,-69"/>
<text text-anchor="start" x="889.5" y="-87" font-family="Helvetica,sans-Serif" font-size="10.00">Math/GenVector/Displacement</text>
<text text-anchor="middle" x="957" y="-76" font-family="Helvetica,sans-Serif" font-size="10.00">Vector3D.h</text>
</g>
<!-- Node16&#45;&gt;Node17 -->
<g id="edge19" class="edge"><title>Node16&#45;&gt;Node17</title>
<path fill="none" stroke="midnightblue" d="M771.948,-136.403C804.385,-127.393 856.173,-113.007 896.724,-101.743"/>
<polygon fill="midnightblue" stroke="midnightblue" points="897.81,-105.074 906.509,-99.0253 895.937,-98.3295 897.81,-105.074"/>
</g>
<!-- Node18 -->
<g id="node18" class="node"><title>Node18</title>
<polygon fill="none" stroke="#bfbfbf" points="0,-74.5 0,-93.5 176,-93.5 176,-74.5 0,-74.5"/>
<text text-anchor="middle" x="88" y="-81.5" font-family="Helvetica,sans-Serif" font-size="10.00">Math/GenVector/PositionVector3D.h</text>
</g>
<!-- Node16&#45;&gt;Node18 -->
<g id="edge20" class="edge"><title>Node16&#45;&gt;Node18</title>
<path fill="none" stroke="midnightblue" d="M678.2,-141.454C574.892,-135.278 362.718,-121.152 184,-100 172.469,-98.6352 160.198,-96.9199 148.418,-95.1411"/>
<polygon fill="midnightblue" stroke="midnightblue" points="148.641,-91.6342 138.225,-93.5689 147.574,-98.5524 148.641,-91.6342"/>
</g>
<!-- Node19 -->
<g id="node19" class="node"><title>Node19</title>
<polygon fill="none" stroke="#bfbfbf" points="193.5,-74.5 193.5,-93.5 342.5,-93.5 342.5,-74.5 193.5,-74.5"/>
<text text-anchor="middle" x="268" y="-81.5" font-family="Helvetica,sans-Serif" font-size="10.00">Math/GenVector/Rotation3D.h</text>
</g>
<!-- Node16&#45;&gt;Node19 -->
<g id="edge21" class="edge"><title>Node16&#45;&gt;Node19</title>
<path fill="none" stroke="midnightblue" d="M678.187,-138.935C601.156,-131.221 466.682,-116.856 352,-100 342.536,-98.609 332.503,-96.9654 322.788,-95.2851"/>
<polygon fill="midnightblue" stroke="midnightblue" points="323.274,-91.8168 312.818,-93.5299 322.06,-98.7108 323.274,-91.8168"/>
</g>
<!-- Node20 -->
<g id="node20" class="node"><title>Node20</title>
<polygon fill="none" stroke="#bfbfbf" points="361,-74.5 361,-93.5 517,-93.5 517,-74.5 361,-74.5"/>
<text text-anchor="middle" x="439" y="-81.5" font-family="Helvetica,sans-Serif" font-size="10.00">Math/GenVector/Transform3D.h</text>
</g>
<!-- Node16&#45;&gt;Node20 -->
<g id="edge22" class="edge"><title>Node16&#45;&gt;Node20</title>
<path fill="none" stroke="midnightblue" d="M698.051,-136.467C643.823,-125.693 550.55,-107.162 491.962,-95.5223"/>
<polygon fill="midnightblue" stroke="midnightblue" points="492.291,-92.0192 481.8,-93.5034 490.927,-98.885 492.291,-92.0192"/>
</g>
<!-- Node21 -->
<g id="node21" class="node"><title>Node21</title>
<polygon fill="none" stroke="#bfbfbf" points="535,-74.5 535,-93.5 695,-93.5 695,-74.5 535,-74.5"/>
<text text-anchor="middle" x="615" y="-81.5" font-family="Helvetica,sans-Serif" font-size="10.00">Math/GenVector/Translation3D.h</text>
</g>
<!-- Node16&#45;&gt;Node21 -->
<g id="edge23" class="edge"><title>Node16&#45;&gt;Node21</title>
<path fill="none" stroke="midnightblue" d="M722.947,-136.403C701.802,-126.334 666.56,-109.552 642.122,-97.9151"/>
<polygon fill="midnightblue" stroke="midnightblue" points="643.553,-94.72 633.019,-93.5806 640.543,-101.04 643.553,-94.72"/>
</g>
<!-- Node22 -->
<g id="node22" class="node"><title>Node22</title>
<polygon fill="none" stroke="#bfbfbf" points="713,-74.5 713,-93.5 769,-93.5 769,-74.5 713,-74.5"/>
<text text-anchor="middle" x="741" y="-81.5" font-family="Helvetica,sans-Serif" font-size="10.00">Rtypes.h</text>
</g>
<!-- Node16&#45;&gt;Node22 -->
<g id="edge24" class="edge"><title>Node16&#45;&gt;Node22</title>
<path fill="none" stroke="midnightblue" d="M741,-136.403C741,-127.938 741,-114.728 741,-103.82"/>
<polygon fill="midnightblue" stroke="midnightblue" points="744.5,-103.581 741,-93.5806 737.5,-103.581 744.5,-103.581"/>
</g>
<!-- Node23 -->
<g id="node23" class="node"><title>Node23</title>
<polygon fill="none" stroke="#bfbfbf" points="787,-74.5 787,-93.5 863,-93.5 863,-74.5 787,-74.5"/>
<text text-anchor="middle" x="825" y="-81.5" font-family="Helvetica,sans-Serif" font-size="10.00">TGeoMatrix.h</text>
</g>
<!-- Node16&#45;&gt;Node23 -->
<g id="edge25" class="edge"><title>Node16&#45;&gt;Node23</title>
<path fill="none" stroke="midnightblue" d="M753.035,-136.403C766.508,-126.78 788.566,-111.024 804.715,-99.4891"/>
<polygon fill="midnightblue" stroke="midnightblue" points="806.884,-102.241 812.987,-93.5806 802.815,-96.5449 806.884,-102.241"/>
</g>
<!-- Node25&#45;&gt;Node24 -->
<g id="edge33" class="edge"><title>Node25&#45;&gt;Node24</title>
<path fill="none" stroke="midnightblue" d="M659.684,-360.444C709.29,-350.944 789.365,-335.611 842.585,-325.42"/>
<polygon fill="midnightblue" stroke="midnightblue" points="843.362,-328.835 852.525,-323.516 842.045,-321.96 843.362,-328.835"/>
</g>
<!-- Node25&#45;&gt;Node26 -->
<g id="edge30" class="edge"><title>Node25&#45;&gt;Node26</title>
<path fill="none" stroke="midnightblue" d="M612.96,-360.368C608.764,-342.617 599.085,-301.666 593.396,-277.597"/>
<polygon fill="midnightblue" stroke="midnightblue" points="596.737,-276.518 591.031,-267.591 589.925,-278.128 596.737,-276.518"/>
</g>
<!-- Node26&#45;&gt;Node12 -->
<g id="edge32" class="edge"><title>Node26&#45;&gt;Node12</title>
<path fill="none" stroke="midnightblue" d="M613.085,-248.444C638.545,-239.399 678.894,-225.064 707.459,-214.916"/>
<polygon fill="midnightblue" stroke="midnightblue" points="708.777,-218.162 717.028,-211.516 706.433,-211.566 708.777,-218.162"/>
</g>
<!-- Node27 -->
<g id="node27" class="node"><title>Node27</title>
<g id="a_node27"><a xlink:href="../../d6/d51/TPC_2base_2include_2TPCBase_2Constants_8h.html" target="_top" xlink:title="TPCBase/Constants.h">
<polygon fill="none" stroke="black" points="531,-192.5 531,-211.5 647,-211.5 647,-192.5 531,-192.5"/>
<text text-anchor="middle" x="589" y="-199.5" font-family="Helvetica,sans-Serif" font-size="10.00">TPCBase/Constants.h</text>
</a>
</g>
</g>
<!-- Node26&#45;&gt;Node27 -->
<g id="edge31" class="edge"><title>Node26&#45;&gt;Node27</title>
<path fill="none" stroke="midnightblue" d="M589,-248.083C589,-241.006 589,-230.861 589,-221.986"/>
<polygon fill="midnightblue" stroke="midnightblue" points="592.5,-221.751 589,-211.751 585.5,-221.751 592.5,-221.751"/>
</g>
<!-- Node28&#45;&gt;Node12 -->
<g id="edge35" class="edge"><title>Node28&#45;&gt;Node12</title>
<path fill="none" stroke="midnightblue" d="M982.635,-360.322C980.078,-346.716 973.372,-320.243 958,-304 911.868,-255.253 837.571,-227.813 789.01,-214.198"/>
<polygon fill="midnightblue" stroke="midnightblue" points="789.625,-210.739 779.058,-211.5 787.794,-217.495 789.625,-210.739"/>
</g>
<!-- Node28&#45;&gt;Node24 -->
<g id="edge39" class="edge"><title>Node28&#45;&gt;Node24</title>
<path fill="none" stroke="midnightblue" d="M970.022,-360.324C956.45,-351.9 935.62,-338.971 919.675,-329.074"/>
<polygon fill="midnightblue" stroke="midnightblue" points="921.286,-325.954 910.943,-323.655 917.594,-331.902 921.286,-325.954"/>
</g>
<!-- Node29 -->
<g id="node29" class="node"><title>Node29</title>
<g id="a_node29"><a xlink:href="../../dc/d14/ROC_8h.html" target="_top" xlink:title="TPCBase/ROC.h">
<polygon fill="none" stroke="black" points="694.5,-304.5 694.5,-323.5 787.5,-323.5 787.5,-304.5 694.5,-304.5"/>
<text text-anchor="middle" x="741" y="-311.5" font-family="Helvetica,sans-Serif" font-size="10.00">TPCBase/ROC.h</text>
</a>
</g>
</g>
<!-- Node28&#45;&gt;Node29 -->
<g id="edge36" class="edge"><title>Node28&#45;&gt;Node29</title>
<path fill="none" stroke="midnightblue" d="M945.496,-360.444C903.194,-351.043 835.181,-335.929 789.327,-325.739"/>
<polygon fill="midnightblue" stroke="midnightblue" points="789.845,-322.269 779.324,-323.516 788.327,-329.102 789.845,-322.269"/>
</g>
<!-- Node29&#45;&gt;Node12 -->
<g id="edge37" class="edge"><title>Node29&#45;&gt;Node12</title>
<path fill="none" stroke="midnightblue" d="M741,-304.368C741,-286.617 741,-245.666 741,-221.597"/>
<polygon fill="midnightblue" stroke="midnightblue" points="744.5,-221.591 741,-211.591 737.5,-221.591 744.5,-221.591"/>
</g>
<!-- Node29&#45;&gt;Node26 -->
<g id="edge38" class="edge"><title>Node29&#45;&gt;Node26</title>
<path fill="none" stroke="midnightblue" d="M716.915,-304.444C691.455,-295.399 651.106,-281.064 622.541,-270.916"/>
<polygon fill="midnightblue" stroke="midnightblue" points="623.567,-267.566 612.972,-267.516 621.223,-274.162 623.567,-267.566"/>
</g>
<!-- Node30&#45;&gt;Node12 -->
<g id="edge41" class="edge"><title>Node30&#45;&gt;Node12</title>
<path fill="none" stroke="midnightblue" d="M707.122,-416.47C740.749,-408.251 785.447,-394.896 796,-380 832.371,-328.66 781.099,-252.49 754.846,-219.37"/>
<polygon fill="midnightblue" stroke="midnightblue" points="757.519,-217.109 748.488,-211.57 752.093,-221.532 757.519,-217.109"/>
</g>
<!-- Node30&#45;&gt;Node24 -->
<g id="edge46" class="edge"><title>Node30&#45;&gt;Node24</title>
<path fill="none" stroke="midnightblue" d="M722.051,-416.97C754.866,-410.444 796.7,-399.093 830,-380 851.86,-367.466 871.882,-346.18 884.234,-331.396"/>
<polygon fill="midnightblue" stroke="midnightblue" points="887.007,-333.534 890.577,-323.559 881.565,-329.131 887.007,-333.534"/>
</g>
<!-- Node30&#45;&gt;Node25 -->
<g id="edge47" class="edge"><title>Node30&#45;&gt;Node25</title>
<path fill="none" stroke="midnightblue" d="M659.248,-416.083C651.53,-408.22 640.095,-396.569 630.783,-387.081"/>
<polygon fill="midnightblue" stroke="midnightblue" points="633.092,-384.436 623.589,-379.751 628.096,-389.34 633.092,-384.436"/>
</g>
<!-- Node31 -->
<g id="node31" class="node"><title>Node31</title>
<g id="a_node31"><a xlink:href="../../df/d26/CRU_8h.html" target="_top" xlink:title="TPCBase/CRU.h">
<polygon fill="none" stroke="black" points="694.5,-360.5 694.5,-379.5 787.5,-379.5 787.5,-360.5 694.5,-360.5"/>
<text text-anchor="middle" x="741" y="-367.5" font-family="Helvetica,sans-Serif" font-size="10.00">TPCBase/CRU.h</text>
</a>
</g>
</g>
<!-- Node30&#45;&gt;Node31 -->
<g id="edge42" class="edge"><title>Node30&#45;&gt;Node31</title>
<path fill="none" stroke="midnightblue" d="M679.729,-416.324C690.837,-408.107 707.742,-395.602 720.983,-385.807"/>
<polygon fill="midnightblue" stroke="midnightblue" points="723.1,-388.595 729.058,-379.834 718.937,-382.967 723.1,-388.595"/>
</g>
<!-- Node31&#45;&gt;Node12 -->
<g id="edge43" class="edge"><title>Node31&#45;&gt;Node12</title>
<path fill="none" stroke="midnightblue" d="M723.498,-360.465C710.213,-352.917 692.924,-340.533 685,-324 681.158,-315.984 682.774,-312.606 685,-304 693.328,-271.805 714.371,-238.932 728.158,-219.774"/>
<polygon fill="midnightblue" stroke="midnightblue" points="731.121,-221.654 734.255,-211.533 725.494,-217.49 731.121,-221.654"/>
</g>
<!-- Node31&#45;&gt;Node26 -->
<g id="edge44" class="edge"><title>Node31&#45;&gt;Node26</title>
<path fill="none" stroke="midnightblue" d="M719.363,-360.479C700.596,-352.541 673.194,-339.602 652,-324 632.925,-309.958 614.474,-289.92 602.523,-275.813"/>
<polygon fill="midnightblue" stroke="midnightblue" points="605.048,-273.375 595.975,-267.903 599.656,-277.838 605.048,-273.375"/>
</g>
<!-- Node31&#45;&gt;Node29 -->
<g id="edge45" class="edge"><title>Node31&#45;&gt;Node29</title>
<path fill="none" stroke="midnightblue" d="M741,-360.083C741,-353.006 741,-342.861 741,-333.986"/>
<polygon fill="midnightblue" stroke="midnightblue" points="744.5,-333.751 741,-323.751 737.5,-333.751 744.5,-333.751"/>
</g>
<!-- Node32&#45;&gt;Node3 -->
<g id="edge49" class="edge"><title>Node32&#45;&gt;Node3</title>
<path fill="none" stroke="midnightblue" d="M1226,-248.234C1226,-221.548 1226,-140.877 1226,-103.893"/>
<polygon fill="midnightblue" stroke="midnightblue" points="1229.5,-103.544 1226,-93.5442 1222.5,-103.544 1229.5,-103.544"/>
</g>
<!-- Node33&#45;&gt;Node10 -->
<g id="edge51" class="edge"><title>Node33&#45;&gt;Node10</title>
<path fill="none" stroke="midnightblue" d="M1094.46,-416.324C1108.5,-407.9 1130.05,-394.971 1146.54,-385.074"/>
<polygon fill="midnightblue" stroke="midnightblue" points="1148.8,-387.801 1155.58,-379.655 1145.2,-381.798 1148.8,-387.801"/>
</g>
<!-- Node33&#45;&gt;Node12 -->
<g id="edge52" class="edge"><title>Node33&#45;&gt;Node12</title>
<path fill="none" stroke="midnightblue" d="M1082.1,-416.35C1084.78,-403.239 1087.97,-377.965 1078,-360 1034.44,-281.541 991.788,-284.929 910,-248 874.013,-231.751 830.976,-220.398 797.339,-213.16"/>
<polygon fill="midnightblue" stroke="midnightblue" points="797.725,-209.665 787.22,-211.045 796.292,-216.517 797.725,-209.665"/>
</g>
<!-- Node33&#45;&gt;Node24 -->
<g id="edge53" class="edge"><title>Node33&#45;&gt;Node24</title>
<path fill="none" stroke="midnightblue" d="M1079.43,-416.491C1078.03,-402.634 1073.25,-375.216 1057,-360 1030.85,-335.516 992.427,-324.196 959.791,-319.031"/>
<polygon fill="midnightblue" stroke="midnightblue" points="960.262,-315.563 949.869,-317.617 959.275,-322.493 960.262,-315.563"/>
</g>
</g>
</svg>
        <g id="navigator" transform="translate(0 0)" fill="#404254">
                <rect fill="#f2f5e9" fill-opacity="0.5" stroke="#606060" stroke-width=".5" x="0" y="0" width="60" height="60"/>
                <use id="zoomplus" xlink:href="#zoomPlus" x="17" y="9" onmousedown="handleZoom(evt,'in')"/>
                <use id="zoomminus" xlink:href="#zoomMin" x="42" y="9" onmousedown="handleZoom(evt,'out')"/>
                <use id="reset" xlink:href="#resetDef" x="30" y="36" onmousedown="handleReset()"/>
                <g id="arrowUp" xlink:href="#dirArrow" transform="translate(30 24)" onmousedown="handlePan(0,-1)">
                  <use xlink:href="#rim" fill="#404040">
                        <set attributeName="fill" to="#808080" begin="arrowUp.mouseover" end="arrowUp.mouseout"/>
                  </use>
                  <path fill="none" stroke="white" stroke-width="1.5" d="M0,-3.0v7 M-2.5,-0.5L0,-3.0L2.5,-0.5"/>
                </g>
                <g id="arrowRight" xlink:href="#dirArrow" transform="rotate(90) translate(36 -43)" onmousedown="handlePan(1,0)">
                  <use xlink:href="#rim" fill="#404040">
                        <set attributeName="fill" to="#808080" begin="arrowRight.mouseover" end="arrowRight.mouseout"/>
                  </use>
                  <path fill="none" stroke="white" stroke-width="1.5" d="M0,-3.0v7 M-2.5,-0.5L0,-3.0L2.5,-0.5"/>
                </g>
                <g id="arrowDown" xlink:href="#dirArrow" transform="rotate(180) translate(-30 -48)" onmousedown="handlePan(0,1)">
                  <use xlink:href="#rim" fill="#404040">
                        <set attributeName="fill" to="#808080" begin="arrowDown.mouseover" end="arrowDown.mouseout"/>
                  </use>
                  <path fill="none" stroke="white" stroke-width="1.5" d="M0,-3.0v7 M-2.5,-0.5L0,-3.0L2.5,-0.5"/>
                </g>
                <g id="arrowLeft" xlink:href="#dirArrow" transform="rotate(270) translate(-36 17)" onmousedown="handlePan(-1,0)">
                  <use xlink:href="#rim" fill="#404040">
                        <set attributeName="fill" to="#808080" begin="arrowLeft.mouseover" end="arrowLeft.mouseout"/>
                  </use>
                  <path fill="none" stroke="white" stroke-width="1.5" d="M0,-3.0v7 M-2.5,-0.5L0,-3.0L2.5,-0.5"/>
                </g>
        </g>
        <svg viewBox="0 0 15 15" width="100%" height="30px" preserveAspectRatio="xMaxYMin meet">
         <g id="arrow_out" transform="scale(0.3 0.3)">
          <a xlink:href="Mapper_8cxx__incl_org.svg" target="_base">
           <rect id="button" ry="5" rx="5" y="6" x="6" height="38" width="38"
                fill="#f2f5e9" fill-opacity="0.5" stroke="#606060" stroke-width="1.0"/>
           <path id="arrow"
             d="M 11.500037,31.436501 C 11.940474,20.09759 22.043105,11.32322 32.158766,21.979434 L 37.068811,17.246167 C 37.068811,17.246167 37.088388,32 37.088388,32 L 22.160133,31.978069 C 22.160133,31.978069 26.997745,27.140456 26.997745,27.140456 C 18.528582,18.264221 13.291696,25.230495 11.500037,31.436501 z"
             style="fill:#404040;"/>
          </a>
         </g>
        </svg>
</svg>
