<?xml version="1.0" encoding="UTF-8" standalone="no"?>
<!DOCTYPE svg PUBLIC "-//W3C//DTD SVG 1.1//EN"
 "http://www.w3.org/Graphics/SVG/1.1/DTD/svg11.dtd">
<!-- Generated by graphviz version 2.36.0 (20140111.2315)
 -->
<!-- Title: /home/travis/build/AliceO2Group/AliceO2/Detectors/TPC/simulation/include/TPCSimulation/PadResponse.h Pages: 1 -->
<!--zoomable 590 -->
<svg id="main" version="1.1" xmlns="http://www.w3.org/2000/svg" xmlns:xlink="http://www.w3.org/1999/xlink" xml:space="preserve" onload="init(evt)">
<style type="text/css"><![CDATA[
.edge:hover path { stroke: red; }
.edge:hover polygon { stroke: red; fill: red; }
]]></style>
<script type="text/javascript"><![CDATA[
var edges = document.getElementsByTagName('g');
if (edges && edges.length) {
  for (var i=0;i<edges.length;i++) {
    if (edges[i].id.substr(0,4)=='edge') {
      edges[i].setAttribute('class','edge');
    }
  }
}
]]></script>
        <defs>
                <circle id="rim" cx="0" cy="0" r="7"/>
                <circle id="rim2" cx="0" cy="0" r="3.5"/>
                <g id="zoomPlus">
                        <use xlink:href="#rim" fill="#404040">
                                <set attributeName="fill" to="#808080" begin="zoomplus.mouseover" end="zoomplus.mouseout"/>
                        </use>
                        <path d="M-4,0h8M0,-4v8" fill="none" stroke="white" stroke-width="1.5" pointer-events="none"/>
                </g>
                <g id="zoomMin">
                        <use xlink:href="#rim" fill="#404040">
                                <set attributeName="fill" to="#808080" begin="zoomminus.mouseover" end="zoomminus.mouseout"/>
                        </use>
                        <path d="M-4,0h8" fill="none" stroke="white" stroke-width="1.5" pointer-events="none"/>
                </g>
                <g id="dirArrow">
                        <path fill="none" stroke="white" stroke-width="1.5" d="M0,-3.0v7 M-2.5,-0.5L0,-3.0L2.5,-0.5"/>
                </g>
               <g id="resetDef">
                       <use xlink:href="#rim2" fill="#404040">
                               <set attributeName="fill" to="#808080" begin="reset.mouseover" end="reset.mouseout"/>
                       </use>
               </g>
        </defs>

<script type="text/javascript">
var viewWidth = 1359;
var viewHeight = 590;
var sectionId = 'dynsection-0';
</script>
<script xlink:href="../../svgpan.js"/>
<svg id="graph" class="graph">
<g id="viewport">
<title>/home/travis/build/AliceO2Group/AliceO2/Detectors/TPC/simulation/include/TPCSimulation/PadResponse.h</title>
<!-- Node1 -->
<g id="node1" class="node"><title>Node1</title>
<polygon fill="#bfbfbf" stroke="black" points="435,-529 435,-581 627,-581 627,-529 435,-529"/>
<text text-anchor="start" x="443" y="-569" font-family="Helvetica,sans-Serif" font-size="10.00">/home/travis/build</text>
<text text-anchor="start" x="443" y="-558" font-family="Helvetica,sans-Serif" font-size="10.00">/AliceO2Group/AliceO2</text>
<text text-anchor="start" x="443" y="-547" font-family="Helvetica,sans-Serif" font-size="10.00">/Detectors/TPC/simulation</text>
<text text-anchor="middle" x="531" y="-536" font-family="Helvetica,sans-Serif" font-size="10.00">/include/TPCSimulation/PadResponse.h</text>
</g>
<!-- Node2 -->
<g id="node2" class="node"><title>Node2</title>
<polygon fill="none" stroke="#bfbfbf" points="444,-472.5 444,-491.5 514,-491.5 514,-472.5 444,-472.5"/>
<text text-anchor="middle" x="479" y="-479.5" font-family="Helvetica,sans-Serif" font-size="10.00">TGraph2D.h</text>
</g>
<!-- Node1&#45;&gt;Node2 -->
<g id="edge1" class="edge"><title>Node1&#45;&gt;Node2</title>
<path fill="none" stroke="midnightblue" d="M512.52,-528.768C505.501,-519.183 497.681,-508.506 491.361,-499.877"/>
<polygon fill="midnightblue" stroke="midnightblue" points="494.146,-497.757 485.414,-491.757 488.499,-501.893 494.146,-497.757"/>
</g>
<!-- Node3 -->
<g id="node3" class="node"><title>Node3</title>
<g id="a_node3"><a xlink:href="../../d7/d2c/Mapper_8h.html" target="_top" xlink:title="TPCBase/Mapper.h">
<polygon fill="none" stroke="black" points="532.5,-472.5 532.5,-491.5 635.5,-491.5 635.5,-472.5 532.5,-472.5"/>
<text text-anchor="middle" x="584" y="-479.5" font-family="Helvetica,sans-Serif" font-size="10.00">TPCBase/Mapper.h</text>
</a>
</g>
</g>
<!-- Node1&#45;&gt;Node3 -->
<g id="edge2" class="edge"><title>Node1&#45;&gt;Node3</title>
<path fill="none" stroke="midnightblue" d="M549.835,-528.768C556.99,-519.183 564.96,-508.506 571.402,-499.877"/>
<polygon fill="midnightblue" stroke="midnightblue" points="574.286,-501.864 577.463,-491.757 568.676,-497.677 574.286,-501.864"/>
</g>
<!-- Node4 -->
<g id="node4" class="node"><title>Node4</title>
<polygon fill="none" stroke="#bfbfbf" points="184.5,-416.5 184.5,-435.5 219.5,-435.5 219.5,-416.5 184.5,-416.5"/>
<text text-anchor="middle" x="202" y="-423.5" font-family="Helvetica,sans-Serif" font-size="10.00">map</text>
</g>
<!-- Node3&#45;&gt;Node4 -->
<g id="edge3" class="edge"><title>Node3&#45;&gt;Node4</title>
<path fill="none" stroke="midnightblue" d="M532.427,-473.307C529.238,-472.858 526.076,-472.418 523,-472 394.744,-454.553 360.881,-461.594 234,-436 232.55,-435.708 231.07,-435.384 229.58,-435.037"/>
<polygon fill="midnightblue" stroke="midnightblue" points="230.382,-431.629 219.825,-432.524 228.636,-438.408 230.382,-431.629"/>
</g>
<!-- Node5 -->
<g id="node5" class="node"><title>Node5</title>
<polygon fill="none" stroke="#bfbfbf" points="422,-360.5 422,-379.5 466,-379.5 466,-360.5 422,-360.5"/>
<text text-anchor="middle" x="444" y="-367.5" font-family="Helvetica,sans-Serif" font-size="10.00">vector</text>
</g>
<!-- Node3&#45;&gt;Node5 -->
<g id="edge4" class="edge"><title>Node3&#45;&gt;Node5</title>
<path fill="none" stroke="midnightblue" d="M532.464,-474.216C506.946,-468.249 477.681,-457.043 459,-436 447.837,-423.426 444.511,-404.207 443.724,-389.925"/>
<polygon fill="midnightblue" stroke="midnightblue" points="447.22,-389.684 443.535,-379.751 440.221,-389.814 447.22,-389.684"/>
</g>
<!-- Node6 -->
<g id="node6" class="node"><title>Node6</title>
<polygon fill="none" stroke="#bfbfbf" points="276,-416.5 276,-435.5 314,-435.5 314,-416.5 276,-416.5"/>
<text text-anchor="middle" x="295" y="-423.5" font-family="Helvetica,sans-Serif" font-size="10.00">array</text>
</g>
<!-- Node3&#45;&gt;Node6 -->
<g id="edge5" class="edge"><title>Node3&#45;&gt;Node6</title>
<path fill="none" stroke="midnightblue" d="M532.499,-473C472.304,-463.506 375.329,-447.732 324.09,-435.934"/>
<polygon fill="midnightblue" stroke="midnightblue" points="324.719,-432.486 314.178,-433.556 323.085,-439.292 324.719,-432.486"/>
</g>
<!-- Node7 -->
<g id="node7" class="node"><title>Node7</title>
<polygon fill="none" stroke="#bfbfbf" points="332.5,-416.5 332.5,-435.5 373.5,-435.5 373.5,-416.5 332.5,-416.5"/>
<text text-anchor="middle" x="353" y="-423.5" font-family="Helvetica,sans-Serif" font-size="10.00">string</text>
</g>
<!-- Node3&#45;&gt;Node7 -->
<g id="edge6" class="edge"><title>Node3&#45;&gt;Node7</title>
<path fill="none" stroke="midnightblue" d="M545.623,-472.499C506.058,-463.662 442.617,-449.289 388,-436 386.552,-435.648 385.072,-435.283 383.577,-434.912"/>
<polygon fill="midnightblue" stroke="midnightblue" points="384.258,-431.474 373.706,-432.419 382.544,-438.261 384.258,-431.474"/>
</g>
<!-- Node8 -->
<g id="node8" class="node"><title>Node8</title>
<polygon fill="none" stroke="#bfbfbf" points="460,-136.5 460,-155.5 504,-155.5 504,-136.5 460,-136.5"/>
<text text-anchor="middle" x="482" y="-143.5" font-family="Helvetica,sans-Serif" font-size="10.00">cmath</text>
</g>
<!-- Node3&#45;&gt;Node8 -->
<g id="edge7" class="edge"><title>Node3&#45;&gt;Node8</title>
<path fill="none" stroke="midnightblue" d="M532.419,-473.365C529.232,-472.901 526.073,-472.443 523,-472 466.139,-463.807 310.452,-473.58 267,-436 244.235,-416.311 248,-401.098 248,-371 248,-371 248,-371 248,-257 248,-168.948 385.38,-151.25 449.613,-147.788"/>
<polygon fill="midnightblue" stroke="midnightblue" points="450.154,-151.267 459.986,-147.319 449.838,-144.274 450.154,-151.267"/>
</g>
<!-- Node9 -->
<g id="node9" class="node"><title>Node9</title>
<g id="a_node9"><a xlink:href="../../d1/d73/Defs_8h.html" target="_top" xlink:title="Common definitions for 2D coordinates. ">
<polygon fill="none" stroke="black" points="815,-192.5 815,-211.5 907,-211.5 907,-192.5 815,-192.5"/>
<text text-anchor="middle" x="861" y="-199.5" font-family="Helvetica,sans-Serif" font-size="10.00">TPCBase/Defs.h</text>
</a>
</g>
</g>
<!-- Node3&#45;&gt;Node9 -->
<g id="edge8" class="edge"><title>Node3&#45;&gt;Node9</title>
<path fill="none" stroke="midnightblue" d="M635.885,-480.438C763.436,-477.659 1082,-461.645 1082,-371 1082,-371 1082,-371 1082,-313 1082,-239.468 982.734,-215.09 917.258,-207.008"/>
<polygon fill="midnightblue" stroke="midnightblue" points="917.392,-203.501 907.06,-205.846 916.599,-210.456 917.392,-203.501"/>
</g>
<!-- Node22 -->
<g id="node22" class="node"><title>Node22</title>
<g id="a_node22"><a xlink:href="../../de/d41/PadPos_8h.html" target="_top" xlink:title="TPCBase/PadPos.h">
<polygon fill="none" stroke="black" points="649.5,-304.5 649.5,-323.5 754.5,-323.5 754.5,-304.5 649.5,-304.5"/>
<text text-anchor="middle" x="702" y="-311.5" font-family="Helvetica,sans-Serif" font-size="10.00">TPCBase/PadPos.h</text>
</a>
</g>
</g>
<!-- Node3&#45;&gt;Node22 -->
<g id="edge23" class="edge"><title>Node3&#45;&gt;Node22</title>
<path fill="none" stroke="midnightblue" d="M597.845,-472.372C621.266,-456.97 668.359,-422.352 691,-380 698.672,-365.648 701.215,-347.187 701.96,-333.609"/>
<polygon fill="midnightblue" stroke="midnightblue" points="705.46,-333.641 702.236,-323.549 698.463,-333.449 705.46,-333.641"/>
</g>
<!-- Node23 -->
<g id="node23" class="node"><title>Node23</title>
<g id="a_node23"><a xlink:href="../../dd/d0b/PadSecPos_8h.html" target="_top" xlink:title="TPCBase/PadSecPos.h">
<polygon fill="none" stroke="black" points="560,-360.5 560,-379.5 682,-379.5 682,-360.5 560,-360.5"/>
<text text-anchor="middle" x="621" y="-367.5" font-family="Helvetica,sans-Serif" font-size="10.00">TPCBase/PadSecPos.h</text>
</a>
</g>
</g>
<!-- Node3&#45;&gt;Node23 -->
<g id="edge24" class="edge"><title>Node3&#45;&gt;Node23</title>
<path fill="none" stroke="midnightblue" d="M590.994,-472.276C597.548,-463.608 607.055,-449.671 612,-436 617.395,-421.085 619.584,-403.169 620.458,-389.927"/>
<polygon fill="midnightblue" stroke="midnightblue" points="623.966,-389.838 620.936,-379.686 616.974,-389.512 623.966,-389.838"/>
</g>
<!-- Node24 -->
<g id="node24" class="node"><title>Node24</title>
<g id="a_node24"><a xlink:href="../../d3/dd6/Sector_8h.html" target="_top" xlink:title="TPCBase/Sector.h">
<polygon fill="none" stroke="black" points="690.5,-248.5 690.5,-267.5 789.5,-267.5 789.5,-248.5 690.5,-248.5"/>
<text text-anchor="middle" x="740" y="-255.5" font-family="Helvetica,sans-Serif" font-size="10.00">TPCBase/Sector.h</text>
</a>
</g>
</g>
<!-- Node3&#45;&gt;Node24 -->
<g id="edge50" class="edge"><title>Node3&#45;&gt;Node24</title>
<path fill="none" stroke="midnightblue" d="M532.395,-473.639C504.134,-467.46 469.902,-456.235 445,-436 416.557,-412.887 391.242,-389.492 413,-360 444.905,-316.754 594.998,-284.194 680.319,-268.812"/>
<polygon fill="midnightblue" stroke="midnightblue" points="681.157,-272.218 690.391,-267.021 679.932,-265.326 681.157,-272.218"/>
</g>
<!-- Node26 -->
<g id="node26" class="node"><title>Node26</title>
<g id="a_node26"><a xlink:href="../../da/d61/PadROCPos_8h.html" target="_top" xlink:title="TPCBase/PadROCPos.h">
<polygon fill="none" stroke="black" points="888,-360.5 888,-379.5 1016,-379.5 1016,-360.5 888,-360.5"/>
<text text-anchor="middle" x="952" y="-367.5" font-family="Helvetica,sans-Serif" font-size="10.00">TPCBase/PadROCPos.h</text>
</a>
</g>
</g>
<!-- Node3&#45;&gt;Node26 -->
<g id="edge29" class="edge"><title>Node3&#45;&gt;Node26</title>
<path fill="none" stroke="midnightblue" d="M635.672,-478.911C691.521,-475.188 782.29,-464.828 855,-436 885.421,-423.939 916.048,-401.241 934.524,-386.119"/>
<polygon fill="midnightblue" stroke="midnightblue" points="936.918,-388.679 942.338,-379.576 932.424,-383.312 936.918,-388.679"/>
</g>
<!-- Node28 -->
<g id="node28" class="node"><title>Node28</title>
<g id="a_node28"><a xlink:href="../../d3/d54/DigitPos_8h.html" target="_top" xlink:title="TPCBase/DigitPos.h">
<polygon fill="none" stroke="black" points="738,-416.5 738,-435.5 846,-435.5 846,-416.5 738,-416.5"/>
<text text-anchor="middle" x="792" y="-423.5" font-family="Helvetica,sans-Serif" font-size="10.00">TPCBase/DigitPos.h</text>
</a>
</g>
</g>
<!-- Node3&#45;&gt;Node28 -->
<g id="edge35" class="edge"><title>Node3&#45;&gt;Node28</title>
<path fill="none" stroke="midnightblue" d="M616.958,-472.444C652.787,-463.142 710.163,-448.246 749.391,-438.062"/>
<polygon fill="midnightblue" stroke="midnightblue" points="750.396,-441.417 759.196,-435.516 748.637,-434.642 750.396,-441.417"/>
</g>
<!-- Node30 -->
<g id="node30" class="node"><title>Node30</title>
<g id="a_node30"><a xlink:href="../../d1/d1f/FECInfo_8h.html" target="_top" xlink:title="TPCBase/FECInfo.h">
<polygon fill="none" stroke="black" points="1190.5,-248.5 1190.5,-267.5 1297.5,-267.5 1297.5,-248.5 1190.5,-248.5"/>
<text text-anchor="middle" x="1244" y="-255.5" font-family="Helvetica,sans-Serif" font-size="10.00">TPCBase/FECInfo.h</text>
</a>
</g>
</g>
<!-- Node3&#45;&gt;Node30 -->
<g id="edge43" class="edge"><title>Node3&#45;&gt;Node30</title>
<path fill="none" stroke="midnightblue" d="M635.852,-481.409C749.561,-481.518 1016.99,-477.235 1096,-436 1166.11,-399.408 1216.11,-313.977 1235.32,-276.805"/>
<polygon fill="midnightblue" stroke="midnightblue" points="1238.54,-278.187 1239.91,-267.681 1232.29,-275.041 1238.54,-278.187"/>
</g>
<!-- Node31 -->
<g id="node31" class="node"><title>Node31</title>
<g id="a_node31"><a xlink:href="../../da/d9d/PadRegionInfo_8h.html" target="_top" xlink:title="TPCBase/PadRegionInfo.h">
<polygon fill="none" stroke="black" points="468.5,-416.5 468.5,-435.5 603.5,-435.5 603.5,-416.5 468.5,-416.5"/>
<text text-anchor="middle" x="536" y="-423.5" font-family="Helvetica,sans-Serif" font-size="10.00">TPCBase/PadRegionInfo.h</text>
</a>
</g>
</g>
<!-- Node3&#45;&gt;Node31 -->
<g id="edge45" class="edge"><title>Node3&#45;&gt;Node31</title>
<path fill="none" stroke="midnightblue" d="M576.074,-472.083C569.154,-464.298 558.935,-452.801 550.548,-443.367"/>
<polygon fill="midnightblue" stroke="midnightblue" points="553.038,-440.9 543.779,-435.751 547.806,-445.55 553.038,-440.9"/>
</g>
<!-- Node32 -->
<g id="node32" class="node"><title>Node32</title>
<g id="a_node32"><a xlink:href="../../d6/d42/PartitionInfo_8h.html" target="_top" xlink:title="TPCBase/PartitionInfo.h">
<polygon fill="none" stroke="black" points="1148.5,-416.5 1148.5,-435.5 1271.5,-435.5 1271.5,-416.5 1148.5,-416.5"/>
<text text-anchor="middle" x="1210" y="-423.5" font-family="Helvetica,sans-Serif" font-size="10.00">TPCBase/PartitionInfo.h</text>
</a>
</g>
</g>
<!-- Node3&#45;&gt;Node32 -->
<g id="edge49" class="edge"><title>Node3&#45;&gt;Node32</title>
<path fill="none" stroke="midnightblue" d="M635.619,-477.404C733.109,-470.472 950.969,-454.319 1134,-436 1135.3,-435.87 1136.62,-435.736 1137.94,-435.6"/>
<polygon fill="midnightblue" stroke="midnightblue" points="1138.65,-439.044 1148.22,-434.506 1137.9,-432.084 1138.65,-439.044"/>
</g>
<!-- Node9&#45;&gt;Node8 -->
<g id="edge9" class="edge"><title>Node9&#45;&gt;Node8</title>
<path fill="none" stroke="midnightblue" d="M814.867,-193.507C811.529,-192.989 808.214,-192.482 805,-192 698.788,-176.068 572.632,-159.039 514.406,-151.286"/>
<polygon fill="midnightblue" stroke="midnightblue" points="514.718,-147.797 504.344,-149.949 513.796,-154.736 514.718,-147.797"/>
</g>
<!-- Node10 -->
<g id="node10" class="node"><title>Node10</title>
<g id="a_node10"><a xlink:href="../../d2/dd0/Cartesian2D_8h.html" target="_top" xlink:title="MathUtils/Cartesian2D.h">
<polygon fill="none" stroke="black" points="103.5,-74.5 103.5,-93.5 228.5,-93.5 228.5,-74.5 103.5,-74.5"/>
<text text-anchor="middle" x="166" y="-81.5" font-family="Helvetica,sans-Serif" font-size="10.00">MathUtils/Cartesian2D.h</text>
</a>
</g>
</g>
<!-- Node9&#45;&gt;Node10 -->
<g id="edge10" class="edge"><title>Node9&#45;&gt;Node10</title>
<path fill="none" stroke="midnightblue" d="M819.223,-192.464C753.871,-179.282 623.397,-153.652 512,-136 390.254,-116.708 358.505,-120.756 237,-100 229.488,-98.7167 221.561,-97.2024 213.836,-95.6378"/>
<polygon fill="midnightblue" stroke="midnightblue" points="214.35,-92.1701 203.848,-93.5673 212.929,-99.0243 214.35,-92.1701"/>
</g>
<!-- Node13 -->
<g id="node13" class="node"><title>Node13</title>
<g id="a_node13"><a xlink:href="../../dd/d76/Cartesian3D_8h.html" target="_top" xlink:title="MathUtils/Cartesian3D.h">
<polygon fill="none" stroke="black" points="798.5,-136.5 798.5,-155.5 923.5,-155.5 923.5,-136.5 798.5,-136.5"/>
<text text-anchor="middle" x="861" y="-143.5" font-family="Helvetica,sans-Serif" font-size="10.00">MathUtils/Cartesian3D.h</text>
</a>
</g>
</g>
<!-- Node9&#45;&gt;Node13 -->
<g id="edge13" class="edge"><title>Node9&#45;&gt;Node13</title>
<path fill="none" stroke="midnightblue" d="M861,-192.083C861,-185.006 861,-174.861 861,-165.986"/>
<polygon fill="midnightblue" stroke="midnightblue" points="864.5,-165.751 861,-155.751 857.5,-165.751 864.5,-165.751"/>
</g>
<!-- Node11 -->
<g id="node11" class="node"><title>Node11</title>
<polygon fill="none" stroke="#bfbfbf" points="-0.5,-1 -0.5,-31 150.5,-31 150.5,-1 -0.5,-1"/>
<text text-anchor="start" x="7.5" y="-19" font-family="Helvetica,sans-Serif" font-size="10.00">Math/GenVector/Displacement</text>
<text text-anchor="middle" x="75" y="-8" font-family="Helvetica,sans-Serif" font-size="10.00">Vector2D.h</text>
</g>
<!-- Node10&#45;&gt;Node11 -->
<g id="edge11" class="edge"><title>Node10&#45;&gt;Node11</title>
<path fill="none" stroke="midnightblue" d="M154.103,-74.3717C141.221,-65.0286 120.22,-49.7966 103.093,-37.375"/>
<polygon fill="midnightblue" stroke="midnightblue" points="104.703,-34.2194 94.5532,-31.1815 100.593,-39.8859 104.703,-34.2194"/>
</g>
<!-- Node12 -->
<g id="node12" class="node"><title>Node12</title>
<polygon fill="none" stroke="#bfbfbf" points="169,-6.5 169,-25.5 345,-25.5 345,-6.5 169,-6.5"/>
<text text-anchor="middle" x="257" y="-13.5" font-family="Helvetica,sans-Serif" font-size="10.00">Math/GenVector/PositionVector2D.h</text>
</g>
<!-- Node10&#45;&gt;Node12 -->
<g id="edge12" class="edge"><title>Node10&#45;&gt;Node12</title>
<path fill="none" stroke="midnightblue" d="M177.897,-74.3717C192.884,-63.5015 218.862,-44.6602 236.942,-31.5474"/>
<polygon fill="midnightblue" stroke="midnightblue" points="239.06,-34.3349 245.1,-25.6305 234.95,-28.6684 239.06,-34.3349"/>
</g>
<!-- Node13&#45;&gt;Node10 -->
<g id="edge22" class="edge"><title>Node13&#45;&gt;Node10</title>
<path fill="none" stroke="midnightblue" d="M798.398,-141.574C662.513,-133.959 344.147,-115.11 237,-100 228.752,-98.8368 220.028,-97.2739 211.625,-95.5954"/>
<polygon fill="midnightblue" stroke="midnightblue" points="212.09,-92.1173 201.587,-93.5096 210.666,-98.9709 212.09,-92.1173"/>
</g>
<!-- Node14 -->
<g id="node14" class="node"><title>Node14</title>
<polygon fill="none" stroke="#bfbfbf" points="1127.5,-69 1127.5,-99 1278.5,-99 1278.5,-69 1127.5,-69"/>
<text text-anchor="start" x="1135.5" y="-87" font-family="Helvetica,sans-Serif" font-size="10.00">Math/GenVector/Displacement</text>
<text text-anchor="middle" x="1203" y="-76" font-family="Helvetica,sans-Serif" font-size="10.00">Vector3D.h</text>
</g>
<!-- Node13&#45;&gt;Node14 -->
<g id="edge14" class="edge"><title>Node13&#45;&gt;Node14</title>
<path fill="none" stroke="midnightblue" d="M909.794,-136.476C959.371,-127.811 1038.67,-113.94 1117.37,-100.11"/>
<polygon fill="midnightblue" stroke="midnightblue" points="1118.21,-103.515 1127.46,-98.3365 1117,-96.6205 1118.21,-103.515"/>
</g>
<!-- Node15 -->
<g id="node15" class="node"><title>Node15</title>
<polygon fill="none" stroke="#bfbfbf" points="246,-74.5 246,-93.5 422,-93.5 422,-74.5 246,-74.5"/>
<text text-anchor="middle" x="334" y="-81.5" font-family="Helvetica,sans-Serif" font-size="10.00">Math/GenVector/PositionVector3D.h</text>
</g>
<!-- Node13&#45;&gt;Node15 -->
<g id="edge15" class="edge"><title>Node13&#45;&gt;Node15</title>
<path fill="none" stroke="midnightblue" d="M798.43,-139.475C714.462,-131.831 560.742,-117.028 430,-100 418.744,-98.534 406.773,-96.8023 395.24,-95.046"/>
<polygon fill="midnightblue" stroke="midnightblue" points="395.664,-91.57 385.247,-93.5022 394.595,-98.488 395.664,-91.57"/>
</g>
<!-- Node16 -->
<g id="node16" class="node"><title>Node16</title>
<polygon fill="none" stroke="#bfbfbf" points="439.5,-74.5 439.5,-93.5 588.5,-93.5 588.5,-74.5 439.5,-74.5"/>
<text text-anchor="middle" x="514" y="-81.5" font-family="Helvetica,sans-Serif" font-size="10.00">Math/GenVector/Rotation3D.h</text>
</g>
<!-- Node13&#45;&gt;Node16 -->
<g id="edge16" class="edge"><title>Node13&#45;&gt;Node16</title>
<path fill="none" stroke="midnightblue" d="M810.562,-136.482C757.606,-127.512 671.922,-112.924 598,-100 589.412,-98.4985 580.333,-96.8946 571.443,-95.3148"/>
<polygon fill="midnightblue" stroke="midnightblue" points="571.981,-91.8557 561.523,-93.5481 570.754,-98.7472 571.981,-91.8557"/>
</g>
<!-- Node17 -->
<g id="node17" class="node"><title>Node17</title>
<polygon fill="none" stroke="#bfbfbf" points="607,-74.5 607,-93.5 763,-93.5 763,-74.5 607,-74.5"/>
<text text-anchor="middle" x="685" y="-81.5" font-family="Helvetica,sans-Serif" font-size="10.00">Math/GenVector/Transform3D.h</text>
</g>
<!-- Node13&#45;&gt;Node17 -->
<g id="edge17" class="edge"><title>Node13&#45;&gt;Node17</title>
<path fill="none" stroke="midnightblue" d="M835.783,-136.403C805.332,-126.022 753.951,-108.506 719.757,-96.849"/>
<polygon fill="midnightblue" stroke="midnightblue" points="720.764,-93.4946 710.17,-93.5806 718.505,-100.12 720.764,-93.4946"/>
</g>
<!-- Node18 -->
<g id="node18" class="node"><title>Node18</title>
<polygon fill="none" stroke="#bfbfbf" points="781,-74.5 781,-93.5 941,-93.5 941,-74.5 781,-74.5"/>
<text text-anchor="middle" x="861" y="-81.5" font-family="Helvetica,sans-Serif" font-size="10.00">Math/GenVector/Translation3D.h</text>
</g>
<!-- Node13&#45;&gt;Node18 -->
<g id="edge18" class="edge"><title>Node13&#45;&gt;Node18</title>
<path fill="none" stroke="midnightblue" d="M861,-136.403C861,-127.938 861,-114.728 861,-103.82"/>
<polygon fill="midnightblue" stroke="midnightblue" points="864.5,-103.581 861,-93.5806 857.5,-103.581 864.5,-103.581"/>
</g>
<!-- Node19 -->
<g id="node19" class="node"><title>Node19</title>
<polygon fill="none" stroke="#bfbfbf" points="959,-74.5 959,-93.5 1015,-93.5 1015,-74.5 959,-74.5"/>
<text text-anchor="middle" x="987" y="-81.5" font-family="Helvetica,sans-Serif" font-size="10.00">Rtypes.h</text>
</g>
<!-- Node13&#45;&gt;Node19 -->
<g id="edge19" class="edge"><title>Node13&#45;&gt;Node19</title>
<path fill="none" stroke="midnightblue" d="M879.053,-136.403C900.198,-126.334 935.44,-109.552 959.878,-97.9151"/>
<polygon fill="midnightblue" stroke="midnightblue" points="961.457,-101.04 968.981,-93.5806 958.447,-94.72 961.457,-101.04"/>
</g>
<!-- Node20 -->
<g id="node20" class="node"><title>Node20</title>
<polygon fill="none" stroke="#bfbfbf" points="1033,-74.5 1033,-93.5 1109,-93.5 1109,-74.5 1033,-74.5"/>
<text text-anchor="middle" x="1071" y="-81.5" font-family="Helvetica,sans-Serif" font-size="10.00">TGeoMatrix.h</text>
</g>
<!-- Node13&#45;&gt;Node20 -->
<g id="edge20" class="edge"><title>Node13&#45;&gt;Node20</title>
<path fill="none" stroke="midnightblue" d="M893.053,-136.42C925.797,-127.58 978.065,-113.258 1023,-100 1026.76,-98.892 1030.67,-97.7119 1034.57,-96.519"/>
<polygon fill="midnightblue" stroke="midnightblue" points="1035.62,-99.8583 1044.14,-93.561 1033.55,-93.1705 1035.62,-99.8583"/>
</g>
<!-- Node21 -->
<g id="node21" class="node"><title>Node21</title>
<polygon fill="none" stroke="#bfbfbf" points="1297,-74.5 1297,-93.5 1351,-93.5 1351,-74.5 1297,-74.5"/>
<text text-anchor="middle" x="1324" y="-81.5" font-family="Helvetica,sans-Serif" font-size="10.00">iostream</text>
</g>
<!-- Node13&#45;&gt;Node21 -->
<g id="edge21" class="edge"><title>Node13&#45;&gt;Node21</title>
<path fill="none" stroke="midnightblue" d="M923.677,-143.836C1007.6,-141.048 1160.57,-131.638 1287,-100 1290.06,-99.2339 1293.2,-98.2658 1296.3,-97.1918"/>
<polygon fill="midnightblue" stroke="midnightblue" points="1297.81,-100.363 1305.9,-93.5179 1295.31,-93.8261 1297.81,-100.363"/>
</g>
<!-- Node23&#45;&gt;Node22 -->
<g id="edge28" class="edge"><title>Node23&#45;&gt;Node22</title>
<path fill="none" stroke="midnightblue" d="M634.014,-360.324C646.532,-351.979 665.682,-339.212 680.471,-329.352"/>
<polygon fill="midnightblue" stroke="midnightblue" points="682.639,-332.114 689.018,-323.655 678.756,-326.289 682.639,-332.114"/>
</g>
<!-- Node23&#45;&gt;Node24 -->
<g id="edge25" class="edge"><title>Node23&#45;&gt;Node24</title>
<path fill="none" stroke="midnightblue" d="M621.293,-360.34C622.196,-346.758 625.798,-320.318 640,-304 653.73,-288.224 674.09,-277.702 692.862,-270.828"/>
<polygon fill="midnightblue" stroke="midnightblue" points="694.147,-274.088 702.49,-267.558 691.895,-267.46 694.147,-274.088"/>
</g>
<!-- Node24&#45;&gt;Node9 -->
<g id="edge27" class="edge"><title>Node24&#45;&gt;Node9</title>
<path fill="none" stroke="midnightblue" d="M759.173,-248.444C778.909,-239.636 809.885,-225.812 832.493,-215.722"/>
<polygon fill="midnightblue" stroke="midnightblue" points="834.211,-218.788 841.917,-211.516 831.359,-212.396 834.211,-218.788"/>
</g>
<!-- Node25 -->
<g id="node25" class="node"><title>Node25</title>
<g id="a_node25"><a xlink:href="../../d6/d51/TPC_2base_2include_2TPCBase_2Constants_8h.html" target="_top" xlink:title="TPCBase/Constants.h">
<polygon fill="none" stroke="black" points="681,-192.5 681,-211.5 797,-211.5 797,-192.5 681,-192.5"/>
<text text-anchor="middle" x="739" y="-199.5" font-family="Helvetica,sans-Serif" font-size="10.00">TPCBase/Constants.h</text>
</a>
</g>
</g>
<!-- Node24&#45;&gt;Node25 -->
<g id="edge26" class="edge"><title>Node24&#45;&gt;Node25</title>
<path fill="none" stroke="midnightblue" d="M739.835,-248.083C739.704,-241.006 739.516,-230.861 739.352,-221.986"/>
<polygon fill="midnightblue" stroke="midnightblue" points="742.847,-221.685 739.162,-211.751 735.848,-221.814 742.847,-221.685"/>
</g>
<!-- Node26&#45;&gt;Node9 -->
<g id="edge30" class="edge"><title>Node26&#45;&gt;Node9</title>
<path fill="none" stroke="midnightblue" d="M953.738,-360.22C955.874,-347.374 958.377,-322.928 951,-304 936.77,-267.488 902.857,-235.666 880.964,-217.93"/>
<polygon fill="midnightblue" stroke="midnightblue" points="882.98,-215.063 872.955,-211.634 878.654,-220.566 882.98,-215.063"/>
</g>
<!-- Node26&#45;&gt;Node22 -->
<g id="edge34" class="edge"><title>Node26&#45;&gt;Node22</title>
<path fill="none" stroke="midnightblue" d="M912.387,-360.444C868.775,-351.023 798.6,-335.866 751.422,-325.675"/>
<polygon fill="midnightblue" stroke="midnightblue" points="751.941,-322.207 741.428,-323.516 750.464,-329.049 751.941,-322.207"/>
</g>
<!-- Node27 -->
<g id="node27" class="node"><title>Node27</title>
<g id="a_node27"><a xlink:href="../../dc/d14/ROC_8h.html" target="_top" xlink:title="TPCBase/ROC.h">
<polygon fill="none" stroke="black" points="849.5,-304.5 849.5,-323.5 942.5,-323.5 942.5,-304.5 849.5,-304.5"/>
<text text-anchor="middle" x="896" y="-311.5" font-family="Helvetica,sans-Serif" font-size="10.00">TPCBase/ROC.h</text>
</a>
</g>
</g>
<!-- Node26&#45;&gt;Node27 -->
<g id="edge31" class="edge"><title>Node26&#45;&gt;Node27</title>
<path fill="none" stroke="midnightblue" d="M943.003,-360.324C934.806,-352.42 922.494,-340.548 912.528,-330.938"/>
<polygon fill="midnightblue" stroke="midnightblue" points="914.789,-328.256 905.161,-323.834 909.93,-333.295 914.789,-328.256"/>
</g>
<!-- Node27&#45;&gt;Node9 -->
<g id="edge32" class="edge"><title>Node27&#45;&gt;Node9</title>
<path fill="none" stroke="midnightblue" d="M893.254,-304.368C887.58,-286.537 874.458,-245.295 866.814,-221.272"/>
<polygon fill="midnightblue" stroke="midnightblue" points="870.101,-220.059 863.734,-211.591 863.43,-222.182 870.101,-220.059"/>
</g>
<!-- Node27&#45;&gt;Node24 -->
<g id="edge33" class="edge"><title>Node27&#45;&gt;Node24</title>
<path fill="none" stroke="midnightblue" d="M871.281,-304.444C845.152,-295.399 803.741,-281.064 774.424,-270.916"/>
<polygon fill="midnightblue" stroke="midnightblue" points="775.198,-267.48 764.603,-267.516 772.908,-274.095 775.198,-267.48"/>
</g>
<!-- Node28&#45;&gt;Node9 -->
<g id="edge36" class="edge"><title>Node28&#45;&gt;Node9</title>
<path fill="none" stroke="midnightblue" d="M846.216,-422.282C907.836,-417.925 1002.77,-406.929 1025,-380 1078.05,-315.729 949.627,-244.467 889.73,-215.887"/>
<polygon fill="midnightblue" stroke="midnightblue" points="890.947,-212.592 880.407,-211.519 887.977,-218.931 890.947,-212.592"/>
</g>
<!-- Node28&#45;&gt;Node22 -->
<g id="edge41" class="edge"><title>Node28&#45;&gt;Node22</title>
<path fill="none" stroke="midnightblue" d="M784.938,-416.368C769.954,-398.055 734.767,-355.049 715.387,-331.362"/>
<polygon fill="midnightblue" stroke="midnightblue" points="718.071,-329.115 709.029,-323.591 712.653,-333.547 718.071,-329.115"/>
</g>
<!-- Node28&#45;&gt;Node23 -->
<g id="edge42" class="edge"><title>Node28&#45;&gt;Node23</title>
<path fill="none" stroke="midnightblue" d="M764.905,-416.444C736.012,-407.32 690.075,-392.813 657.895,-382.651"/>
<polygon fill="midnightblue" stroke="midnightblue" points="658.559,-379.19 647.969,-379.516 656.451,-385.865 658.559,-379.19"/>
</g>
<!-- Node29 -->
<g id="node29" class="node"><title>Node29</title>
<g id="a_node29"><a xlink:href="../../df/d26/CRU_8h.html" target="_top" xlink:title="TPCBase/CRU.h">
<polygon fill="none" stroke="black" points="776.5,-360.5 776.5,-379.5 869.5,-379.5 869.5,-360.5 776.5,-360.5"/>
<text text-anchor="middle" x="823" y="-367.5" font-family="Helvetica,sans-Serif" font-size="10.00">TPCBase/CRU.h</text>
</a>
</g>
</g>
<!-- Node28&#45;&gt;Node29 -->
<g id="edge37" class="edge"><title>Node28&#45;&gt;Node29</title>
<path fill="none" stroke="midnightblue" d="M797.119,-416.083C801.408,-408.613 807.658,-397.724 812.942,-388.52"/>
<polygon fill="midnightblue" stroke="midnightblue" points="816.033,-390.166 817.976,-379.751 809.962,-386.681 816.033,-390.166"/>
</g>
<!-- Node29&#45;&gt;Node9 -->
<g id="edge38" class="edge"><title>Node29&#45;&gt;Node9</title>
<path fill="none" stroke="midnightblue" d="M825.043,-360.075C831.025,-333.945 848.59,-257.211 856.747,-221.577"/>
<polygon fill="midnightblue" stroke="midnightblue" points="860.219,-222.097 859.039,-211.568 853.395,-220.535 860.219,-222.097"/>
</g>
<!-- Node29&#45;&gt;Node24 -->
<g id="edge39" class="edge"><title>Node29&#45;&gt;Node24</title>
<path fill="none" stroke="midnightblue" d="M816.487,-360.368C802.729,-342.135 770.503,-299.426 752.582,-275.675"/>
<polygon fill="midnightblue" stroke="midnightblue" points="755.3,-273.466 746.483,-267.591 749.712,-277.682 755.3,-273.466"/>
</g>
<!-- Node29&#45;&gt;Node27 -->
<g id="edge40" class="edge"><title>Node29&#45;&gt;Node27</title>
<path fill="none" stroke="midnightblue" d="M834.729,-360.324C845.837,-352.107 862.742,-339.602 875.983,-329.807"/>
<polygon fill="midnightblue" stroke="midnightblue" points="878.1,-332.595 884.058,-323.834 873.937,-326.967 878.1,-332.595"/>
</g>
<!-- Node30&#45;&gt;Node21 -->
<g id="edge44" class="edge"><title>Node30&#45;&gt;Node21</title>
<path fill="none" stroke="midnightblue" d="M1248.08,-248.234C1260.6,-221.317 1298.66,-139.476 1315.65,-102.942"/>
<polygon fill="midnightblue" stroke="midnightblue" points="1318.98,-104.087 1320.03,-93.5442 1312.64,-101.135 1318.98,-104.087"/>
</g>
<!-- Node31&#45;&gt;Node5 -->
<g id="edge46" class="edge"><title>Node31&#45;&gt;Node5</title>
<path fill="none" stroke="midnightblue" d="M521.219,-416.324C506.733,-407.822 484.427,-394.729 467.507,-384.797"/>
<polygon fill="midnightblue" stroke="midnightblue" points="469.141,-381.698 458.745,-379.655 465.597,-387.735 469.141,-381.698"/>
</g>
<!-- Node31&#45;&gt;Node9 -->
<g id="edge47" class="edge"><title>Node31&#45;&gt;Node9</title>
<path fill="none" stroke="midnightblue" d="M533.905,-416.454C531.195,-403.48 527.834,-378.382 537,-360 573.181,-287.442 608.099,-283.486 681,-248 703.281,-237.154 763.802,-223.09 808.547,-213.594"/>
<polygon fill="midnightblue" stroke="midnightblue" points="809.339,-217.004 818.405,-211.521 807.899,-210.154 809.339,-217.004"/>
</g>
<!-- Node31&#45;&gt;Node22 -->
<g id="edge48" class="edge"><title>Node31&#45;&gt;Node22</title>
<path fill="none" stroke="midnightblue" d="M535.43,-416.154C535.046,-402.317 536.413,-375.534 551,-360 573.628,-335.904 608.538,-324.529 639.094,-319.235"/>
<polygon fill="midnightblue" stroke="midnightblue" points="639.917,-322.65 649.266,-317.664 638.848,-315.732 639.917,-322.65"/>
</g>
</g>
</svg>
        <g id="navigator" transform="translate(0 0)" fill="#404254">
                <rect fill="#f2f5e9" fill-opacity="0.5" stroke="#606060" stroke-width=".5" x="0" y="0" width="60" height="60"/>
                <use id="zoomplus" xlink:href="#zoomPlus" x="17" y="9" onmousedown="handleZoom(evt,'in')"/>
                <use id="zoomminus" xlink:href="#zoomMin" x="42" y="9" onmousedown="handleZoom(evt,'out')"/>
                <use id="reset" xlink:href="#resetDef" x="30" y="36" onmousedown="handleReset()"/>
                <g id="arrowUp" xlink:href="#dirArrow" transform="translate(30 24)" onmousedown="handlePan(0,-1)">
                  <use xlink:href="#rim" fill="#404040">
                        <set attributeName="fill" to="#808080" begin="arrowUp.mouseover" end="arrowUp.mouseout"/>
                  </use>
                  <path fill="none" stroke="white" stroke-width="1.5" d="M0,-3.0v7 M-2.5,-0.5L0,-3.0L2.5,-0.5"/>
                </g>
                <g id="arrowRight" xlink:href="#dirArrow" transform="rotate(90) translate(36 -43)" onmousedown="handlePan(1,0)">
                  <use xlink:href="#rim" fill="#404040">
                        <set attributeName="fill" to="#808080" begin="arrowRight.mouseover" end="arrowRight.mouseout"/>
                  </use>
                  <path fill="none" stroke="white" stroke-width="1.5" d="M0,-3.0v7 M-2.5,-0.5L0,-3.0L2.5,-0.5"/>
                </g>
                <g id="arrowDown" xlink:href="#dirArrow" transform="rotate(180) translate(-30 -48)" onmousedown="handlePan(0,1)">
                  <use xlink:href="#rim" fill="#404040">
                        <set attributeName="fill" to="#808080" begin="arrowDown.mouseover" end="arrowDown.mouseout"/>
                  </use>
                  <path fill="none" stroke="white" stroke-width="1.5" d="M0,-3.0v7 M-2.5,-0.5L0,-3.0L2.5,-0.5"/>
                </g>
                <g id="arrowLeft" xlink:href="#dirArrow" transform="rotate(270) translate(-36 17)" onmousedown="handlePan(-1,0)">
                  <use xlink:href="#rim" fill="#404040">
                        <set attributeName="fill" to="#808080" begin="arrowLeft.mouseover" end="arrowLeft.mouseout"/>
                  </use>
                  <path fill="none" stroke="white" stroke-width="1.5" d="M0,-3.0v7 M-2.5,-0.5L0,-3.0L2.5,-0.5"/>
                </g>
        </g>
        <svg viewBox="0 0 15 15" width="100%" height="30px" preserveAspectRatio="xMaxYMin meet">
         <g id="arrow_out" transform="scale(0.3 0.3)">
          <a xlink:href="PadResponse_8h__incl_org.svg" target="_base">
           <rect id="button" ry="5" rx="5" y="6" x="6" height="38" width="38"
                fill="#f2f5e9" fill-opacity="0.5" stroke="#606060" stroke-width="1.0"/>
           <path id="arrow"
             d="M 11.500037,31.436501 C 11.940474,20.09759 22.043105,11.32322 32.158766,21.979434 L 37.068811,17.246167 C 37.068811,17.246167 37.088388,32 37.088388,32 L 22.160133,31.978069 C 22.160133,31.978069 26.997745,27.140456 26.997745,27.140456 C 18.528582,18.264221 13.291696,25.230495 11.500037,31.436501 z"
             style="fill:#404040;"/>
          </a>
         </g>
        </svg>
</svg>
