<?xml version="1.0" encoding="UTF-8" standalone="no"?>
<!DOCTYPE svg PUBLIC "-//W3C//DTD SVG 1.1//EN"
 "http://www.w3.org/Graphics/SVG/1.1/DTD/svg11.dtd">
<!-- Generated by graphviz version 2.36.0 (20140111.2315)
 -->
<!-- Title: /home/travis/build/AliceO2Group/AliceO2/Framework/Core/src/InputRecord.cxx Pages: 1 -->
<!--zoomable 330 -->
<svg id="main" version="1.1" xmlns="http://www.w3.org/2000/svg" xmlns:xlink="http://www.w3.org/1999/xlink" xml:space="preserve" onload="init(evt)">
<style type="text/css"><![CDATA[
.edge:hover path { stroke: red; }
.edge:hover polygon { stroke: red; fill: red; }
]]></style>
<script type="text/javascript"><![CDATA[
var edges = document.getElementsByTagName('g');
if (edges && edges.length) {
  for (var i=0;i<edges.length;i++) {
    if (edges[i].id.substr(0,4)=='edge') {
      edges[i].setAttribute('class','edge');
    }
  }
}
]]></script>
        <defs>
                <circle id="rim" cx="0" cy="0" r="7"/>
                <circle id="rim2" cx="0" cy="0" r="3.5"/>
                <g id="zoomPlus">
                        <use xlink:href="#rim" fill="#404040">
                                <set attributeName="fill" to="#808080" begin="zoomplus.mouseover" end="zoomplus.mouseout"/>
                        </use>
                        <path d="M-4,0h8M0,-4v8" fill="none" stroke="white" stroke-width="1.5" pointer-events="none"/>
                </g>
                <g id="zoomMin">
                        <use xlink:href="#rim" fill="#404040">
                                <set attributeName="fill" to="#808080" begin="zoomminus.mouseover" end="zoomminus.mouseout"/>
                        </use>
                        <path d="M-4,0h8" fill="none" stroke="white" stroke-width="1.5" pointer-events="none"/>
                </g>
                <g id="dirArrow">
                        <path fill="none" stroke="white" stroke-width="1.5" d="M0,-3.0v7 M-2.5,-0.5L0,-3.0L2.5,-0.5"/>
                </g>
               <g id="resetDef">
                       <use xlink:href="#rim2" fill="#404040">
                               <set attributeName="fill" to="#808080" begin="reset.mouseover" end="reset.mouseout"/>
                       </use>
               </g>
        </defs>

<script type="text/javascript">
var viewWidth = 1419;
var viewHeight = 330;
var sectionId = 'dynsection-0';
</script>
<script xlink:href="../../svgpan.js"/>
<svg id="graph" class="graph">
<g id="viewport">
<title>/home/travis/build/AliceO2Group/AliceO2/Framework/Core/src/InputRecord.cxx</title>
<!-- Node1 -->
<g id="node1" class="node"><title>Node1</title>
<polygon fill="#bfbfbf" stroke="black" points="899,-280.5 899,-321.5 1083,-321.5 1083,-280.5 899,-280.5"/>
<text text-anchor="start" x="907" y="-309.5" font-family="Helvetica,sans-Serif" font-size="10.00">/home/travis/build</text>
<text text-anchor="start" x="907" y="-298.5" font-family="Helvetica,sans-Serif" font-size="10.00">/AliceO2Group/AliceO2</text>
<text text-anchor="middle" x="991" y="-287.5" font-family="Helvetica,sans-Serif" font-size="10.00">/Framework/Core/src/InputRecord.cxx</text>
</g>
<!-- Node2 -->
<g id="node2" class="node"><title>Node2</title>
<g id="a_node2"><a xlink:href="../../d6/d5c/InputRecord_8h.html" target="_top" xlink:title="Framework/InputRecord.h">
<polygon fill="none" stroke="black" points="602,-224.5 602,-243.5 732,-243.5 732,-224.5 602,-224.5"/>
<text text-anchor="middle" x="667" y="-231.5" font-family="Helvetica,sans-Serif" font-size="10.00">Framework/InputRecord.h</text>
</a>
</g>
</g>
<!-- Node1&#45;&gt;Node2 -->
<g id="edge1" class="edge"><title>Node1&#45;&gt;Node2</title>
<path fill="none" stroke="midnightblue" d="M898.588,-281.461C840.614,-269.83 767.959,-255.254 719.645,-245.562"/>
<polygon fill="midnightblue" stroke="midnightblue" points="720.212,-242.106 709.719,-243.57 718.835,-248.969 720.212,-242.106"/>
</g>
<!-- Node8 -->
<g id="node8" class="node"><title>Node8</title>
<polygon fill="none" stroke="#bfbfbf" points="1348.5,-0.5 1348.5,-19.5 1397.5,-19.5 1397.5,-0.5 1348.5,-0.5"/>
<text text-anchor="middle" x="1373" y="-7.5" font-family="Helvetica,sans-Serif" font-size="10.00">cassert</text>
</g>
<!-- Node1&#45;&gt;Node8 -->
<g id="edge48" class="edge"><title>Node1&#45;&gt;Node8</title>
<path fill="none" stroke="midnightblue" d="M1083.17,-292.067C1206.8,-278.833 1411,-246.725 1411,-179 1411,-179 1411,-179 1411,-121 1411,-86.8131 1394.4,-49.7639 1383.14,-28.5707"/>
<polygon fill="midnightblue" stroke="midnightblue" points="1386.18,-26.832 1378.28,-19.769 1380.05,-30.2151 1386.18,-26.832"/>
</g>
<!-- Node12 -->
<g id="node12" class="node"><title>Node12</title>
<polygon fill="none" stroke="#bfbfbf" points="1179.5,-56.5 1179.5,-75.5 1306.5,-75.5 1306.5,-56.5 1179.5,-56.5"/>
<text text-anchor="middle" x="1243" y="-63.5" font-family="Helvetica,sans-Serif" font-size="10.00">fairmq/FairMQMessage.h</text>
</g>
<!-- Node1&#45;&gt;Node12 -->
<g id="edge47" class="edge"><title>Node1&#45;&gt;Node12</title>
<path fill="none" stroke="midnightblue" d="M1012.49,-280.135C1061.69,-234.644 1181.69,-123.685 1226.11,-82.6191"/>
<polygon fill="midnightblue" stroke="midnightblue" points="1228.75,-84.9451 1233.71,-75.5863 1223.99,-79.8053 1228.75,-84.9451"/>
</g>
<!-- Node27 -->
<g id="node27" class="node"><title>Node27</title>
<g id="a_node27"><a xlink:href="../../d5/d3f/InputSpec_8h.html" target="_top" xlink:title="Framework/InputSpec.h">
<polygon fill="none" stroke="black" points="115.5,-112.5 115.5,-131.5 236.5,-131.5 236.5,-112.5 115.5,-112.5"/>
<text text-anchor="middle" x="176" y="-119.5" font-family="Helvetica,sans-Serif" font-size="10.00">Framework/InputSpec.h</text>
</a>
</g>
</g>
<!-- Node1&#45;&gt;Node27 -->
<g id="edge46" class="edge"><title>Node1&#45;&gt;Node27</title>
<path fill="none" stroke="midnightblue" d="M898.905,-292.627C727.011,-277.796 364.467,-241.168 251,-188 226.514,-176.526 203.863,-154.692 190,-139.512"/>
<polygon fill="midnightblue" stroke="midnightblue" points="192.492,-137.046 183.247,-131.872 187.247,-141.682 192.492,-137.046"/>
</g>
<!-- Node3 -->
<g id="node3" class="node"><title>Node3</title>
<g id="a_node3"><a xlink:href="../../d5/dfb/DataRef_8h.html" target="_top" xlink:title="Framework/DataRef.h">
<polygon fill="none" stroke="black" points="367.5,-112.5 367.5,-131.5 480.5,-131.5 480.5,-112.5 367.5,-112.5"/>
<text text-anchor="middle" x="424" y="-119.5" font-family="Helvetica,sans-Serif" font-size="10.00">Framework/DataRef.h</text>
</a>
</g>
</g>
<!-- Node2&#45;&gt;Node3 -->
<g id="edge2" class="edge"><title>Node2&#45;&gt;Node3</title>
<path fill="none" stroke="midnightblue" d="M601.877,-227.37C544.242,-221.089 465.836,-208.949 443,-188 430.159,-176.22 425.818,-156.292 424.439,-141.599"/>
<polygon fill="midnightblue" stroke="midnightblue" points="427.933,-141.391 423.87,-131.606 420.944,-141.789 427.933,-141.391"/>
</g>
<!-- Node4 -->
<g id="node4" class="node"><title>Node4</title>
<g id="a_node4"><a xlink:href="../../d5/db8/DataRefUtils_8h.html" target="_top" xlink:title="Framework/DataRefUtils.h">
<polygon fill="none" stroke="black" points="658,-168.5 658,-187.5 792,-187.5 792,-168.5 658,-168.5"/>
<text text-anchor="middle" x="725" y="-175.5" font-family="Helvetica,sans-Serif" font-size="10.00">Framework/DataRefUtils.h</text>
</a>
</g>
</g>
<!-- Node2&#45;&gt;Node4 -->
<g id="edge3" class="edge"><title>Node2&#45;&gt;Node4</title>
<path fill="none" stroke="midnightblue" d="M676.319,-224.324C684.893,-216.341 697.812,-204.313 708.188,-194.653"/>
<polygon fill="midnightblue" stroke="midnightblue" points="710.578,-197.21 715.512,-187.834 705.808,-192.086 710.578,-197.21"/>
</g>
<!-- Node7 -->
<g id="node7" class="node"><title>Node7</title>
<polygon fill="none" stroke="#bfbfbf" points="1125,-0.5 1125,-19.5 1177,-19.5 1177,-0.5 1125,-0.5"/>
<text text-anchor="middle" x="1151" y="-7.5" font-family="Helvetica,sans-Serif" font-size="10.00">memory</text>
</g>
<!-- Node2&#45;&gt;Node7 -->
<g id="edge44" class="edge"><title>Node2&#45;&gt;Node7</title>
<path fill="none" stroke="midnightblue" d="M732.089,-230.129C806.376,-225.687 931.037,-214.667 1035,-188 1164.83,-154.698 1239.86,-186.986 1315,-76 1347.09,-28.6077 1244.94,-15.7697 1187.44,-12.292"/>
<polygon fill="midnightblue" stroke="midnightblue" points="1187.44,-8.78695 1177.26,-11.7454 1187.06,-15.7769 1187.44,-8.78695"/>
</g>
<!-- Node2&#45;&gt;Node8 -->
<g id="edge42" class="edge"><title>Node2&#45;&gt;Node8</title>
<path fill="none" stroke="midnightblue" d="M732.252,-230.419C818.871,-226.067 976.237,-214.937 1108,-188 1190.08,-171.219 1219,-179.53 1288,-132 1326.45,-105.514 1353.17,-55.5961 1365.42,-28.9037"/>
<polygon fill="midnightblue" stroke="midnightblue" points="1368.68,-30.1723 1369.52,-19.6109 1362.28,-27.3423 1368.68,-30.1723"/>
</g>
<!-- Node9 -->
<g id="node9" class="node"><title>Node9</title>
<polygon fill="none" stroke="#bfbfbf" points="272,-0.5 272,-19.5 318,-19.5 318,-0.5 272,-0.5"/>
<text text-anchor="middle" x="295" y="-7.5" font-family="Helvetica,sans-Serif" font-size="10.00">cstring</text>
</g>
<!-- Node2&#45;&gt;Node9 -->
<g id="edge41" class="edge"><title>Node2&#45;&gt;Node9</title>
<path fill="none" stroke="midnightblue" d="M601.921,-229.178C543.518,-224.231 456.143,-213.041 384,-188 335.878,-171.297 309.758,-175.946 284,-132 265.054,-99.6757 277.695,-53.9553 287.211,-28.9902"/>
<polygon fill="midnightblue" stroke="midnightblue" points="290.479,-30.2434 290.997,-19.6612 283.993,-27.6113 290.479,-30.2434"/>
</g>
<!-- Node11 -->
<g id="node11" class="node"><title>Node11</title>
<g id="a_node11"><a xlink:href="../../d8/d3c/TMessageSerializer_8h.html" target="_top" xlink:title="Framework/TMessageSerializer.h">
<polygon fill="none" stroke="black" points="967.5,-112.5 967.5,-131.5 1130.5,-131.5 1130.5,-112.5 967.5,-112.5"/>
<text text-anchor="middle" x="1049" y="-119.5" font-family="Helvetica,sans-Serif" font-size="10.00">Framework/TMessageSerializer.h</text>
</a>
</g>
</g>
<!-- Node2&#45;&gt;Node11 -->
<g id="edge36" class="edge"><title>Node2&#45;&gt;Node11</title>
<path fill="none" stroke="midnightblue" d="M732.156,-230.823C791.543,-226.981 880.757,-216.489 953,-188 983.091,-176.134 1013.23,-153.551 1031.5,-138.383"/>
<polygon fill="midnightblue" stroke="midnightblue" points="1034.12,-140.756 1039.47,-131.611 1029.58,-135.423 1034.12,-140.756"/>
</g>
<!-- Node2&#45;&gt;Node12 -->
<g id="edge35" class="edge"><title>Node2&#45;&gt;Node12</title>
<path fill="none" stroke="midnightblue" d="M732.229,-227.852C797.251,-221.776 899.602,-209.648 986,-188 1056.24,-170.401 1073.95,-163.805 1139,-132 1169.49,-117.092 1202.34,-95.5466 1222.78,-81.4105"/>
<polygon fill="midnightblue" stroke="midnightblue" points="1224.8,-84.2661 1230.99,-75.6671 1220.79,-78.5296 1224.8,-84.2661"/>
</g>
<!-- Node20 -->
<g id="node20" class="node"><title>Node20</title>
<g id="a_node20"><a xlink:href="../../d0/d95/TypeTraits_8h.html" target="_top" xlink:title="Framework/TypeTraits.h">
<polygon fill="none" stroke="black" points="787.5,-112.5 787.5,-131.5 910.5,-131.5 910.5,-112.5 787.5,-112.5"/>
<text text-anchor="middle" x="849" y="-119.5" font-family="Helvetica,sans-Serif" font-size="10.00">Framework/TypeTraits.h</text>
</a>
</g>
</g>
<!-- Node2&#45;&gt;Node20 -->
<g id="edge34" class="edge"><title>Node2&#45;&gt;Node20</title>
<path fill="none" stroke="midnightblue" d="M714.637,-224.445C741.844,-217.828 775.507,-206.562 801,-188 817.954,-175.655 831.476,-155.561 839.793,-140.979"/>
<polygon fill="midnightblue" stroke="midnightblue" points="843.011,-142.387 844.697,-131.927 836.856,-139.052 843.011,-142.387"/>
</g>
<!-- Node21 -->
<g id="node21" class="node"><title>Node21</title>
<polygon fill="none" stroke="#bfbfbf" points="499,-56.5 499,-75.5 561,-75.5 561,-56.5 499,-56.5"/>
<text text-anchor="middle" x="530" y="-63.5" font-family="Helvetica,sans-Serif" font-size="10.00">type_traits</text>
</g>
<!-- Node2&#45;&gt;Node21 -->
<g id="edge45" class="edge"><title>Node2&#45;&gt;Node21</title>
<path fill="none" stroke="midnightblue" d="M732.062,-225.068C824.998,-211.257 978.329,-177.764 919,-112 868.712,-56.2579 663.03,-86.1483 571.44,-75.8101"/>
<polygon fill="midnightblue" stroke="midnightblue" points="571.757,-72.3209 561.374,-74.4284 570.805,-79.2559 571.757,-72.3209"/>
</g>
<!-- Node22 -->
<g id="node22" class="node"><title>Node22</title>
<polygon fill="none" stroke="#bfbfbf" points="293,-112.5 293,-131.5 349,-131.5 349,-112.5 293,-112.5"/>
<text text-anchor="middle" x="321" y="-119.5" font-family="Helvetica,sans-Serif" font-size="10.00">TClass.h</text>
</g>
<!-- Node2&#45;&gt;Node22 -->
<g id="edge37" class="edge"><title>Node2&#45;&gt;Node22</title>
<path fill="none" stroke="midnightblue" d="M601.836,-227.267C552.543,-221.4 483.866,-209.907 427,-188 394.362,-175.427 360.577,-152.732 340.171,-137.764"/>
<polygon fill="midnightblue" stroke="midnightblue" points="342.143,-134.868 332.038,-131.684 337.952,-140.475 342.143,-134.868"/>
</g>
<!-- Node26 -->
<g id="node26" class="node"><title>Node26</title>
<g id="a_node26"><a xlink:href="../../d5/d19/InputRoute_8h.html" target="_top" xlink:title="Framework/InputRoute.h">
<polygon fill="none" stroke="black" points="29.5,-168.5 29.5,-187.5 154.5,-187.5 154.5,-168.5 29.5,-168.5"/>
<text text-anchor="middle" x="92" y="-175.5" font-family="Helvetica,sans-Serif" font-size="10.00">Framework/InputRoute.h</text>
</a>
</g>
</g>
<!-- Node2&#45;&gt;Node26 -->
<g id="edge28" class="edge"><title>Node2&#45;&gt;Node26</title>
<path fill="none" stroke="midnightblue" d="M601.879,-226.884C493.816,-216.736 278.167,-196.484 165.07,-185.862"/>
<polygon fill="midnightblue" stroke="midnightblue" points="165.067,-182.347 154.784,-184.896 164.413,-189.316 165.067,-182.347"/>
</g>
<!-- Node28 -->
<g id="node28" class="node"><title>Node28</title>
<polygon fill="none" stroke="#bfbfbf" points="-0.5,-56.5 -0.5,-75.5 40.5,-75.5 40.5,-56.5 -0.5,-56.5"/>
<text text-anchor="middle" x="20" y="-63.5" font-family="Helvetica,sans-Serif" font-size="10.00">string</text>
</g>
<!-- Node2&#45;&gt;Node28 -->
<g id="edge39" class="edge"><title>Node2&#45;&gt;Node28</title>
<path fill="none" stroke="midnightblue" d="M601.747,-233.383C445.341,-233.621 59.0995,-229.913 20,-188 -5.81841,-160.323 4.70577,-111.668 13.205,-85.273"/>
<polygon fill="midnightblue" stroke="midnightblue" points="16.5398,-86.3389 16.5024,-75.7441 9.92465,-84.0497 16.5398,-86.3389"/>
</g>
<!-- Node30 -->
<g id="node30" class="node"><title>Node30</title>
<polygon fill="none" stroke="#bfbfbf" points="452.5,-168.5 452.5,-187.5 499.5,-187.5 499.5,-168.5 452.5,-168.5"/>
<text text-anchor="middle" x="476" y="-175.5" font-family="Helvetica,sans-Serif" font-size="10.00">iterator</text>
</g>
<!-- Node2&#45;&gt;Node30 -->
<g id="edge38" class="edge"><title>Node2&#45;&gt;Node30</title>
<path fill="none" stroke="midnightblue" d="M636.735,-224.444C602.174,-214.672 545.777,-198.727 509.803,-188.557"/>
<polygon fill="midnightblue" stroke="midnightblue" points="510.362,-185.078 499.787,-185.725 508.457,-191.814 510.362,-185.078"/>
</g>
<!-- Node31 -->
<g id="node31" class="node"><title>Node31</title>
<polygon fill="none" stroke="#bfbfbf" points="518,-168.5 518,-187.5 562,-187.5 562,-168.5 518,-168.5"/>
<text text-anchor="middle" x="540" y="-175.5" font-family="Helvetica,sans-Serif" font-size="10.00">vector</text>
</g>
<!-- Node2&#45;&gt;Node31 -->
<g id="edge40" class="edge"><title>Node2&#45;&gt;Node31</title>
<path fill="none" stroke="midnightblue" d="M646.876,-224.444C625.976,-215.557 593.065,-201.563 569.284,-191.451"/>
<polygon fill="midnightblue" stroke="midnightblue" points="570.602,-188.208 560.029,-187.516 567.862,-194.65 570.602,-188.208"/>
</g>
<!-- Node32 -->
<g id="node32" class="node"><title>Node32</title>
<polygon fill="none" stroke="#bfbfbf" points="580.5,-168.5 580.5,-187.5 639.5,-187.5 639.5,-168.5 580.5,-168.5"/>
<text text-anchor="middle" x="610" y="-175.5" font-family="Helvetica,sans-Serif" font-size="10.00">exception</text>
</g>
<!-- Node2&#45;&gt;Node32 -->
<g id="edge43" class="edge"><title>Node2&#45;&gt;Node32</title>
<path fill="none" stroke="midnightblue" d="M657.842,-224.324C649.499,-216.42 636.968,-204.548 626.823,-194.938"/>
<polygon fill="midnightblue" stroke="midnightblue" points="628.991,-192.171 619.325,-187.834 624.177,-197.252 628.991,-192.171"/>
</g>
<!-- Node4&#45;&gt;Node3 -->
<g id="edge4" class="edge"><title>Node4&#45;&gt;Node3</title>
<path fill="none" stroke="midnightblue" d="M677.306,-168.444C624.136,-158.905 538.176,-143.483 481.374,-133.293"/>
<polygon fill="midnightblue" stroke="midnightblue" points="481.932,-129.837 471.471,-131.516 480.696,-136.727 481.932,-129.837"/>
</g>
<!-- Node5 -->
<g id="node5" class="node"><title>Node5</title>
<g id="a_node5"><a xlink:href="../../dc/dcd/DataHeader_8h.html" target="_top" xlink:title="Headers/DataHeader.h">
<polygon fill="none" stroke="black" points="363.5,-56.5 363.5,-75.5 480.5,-75.5 480.5,-56.5 363.5,-56.5"/>
<text text-anchor="middle" x="422" y="-63.5" font-family="Helvetica,sans-Serif" font-size="10.00">Headers/DataHeader.h</text>
</a>
</g>
</g>
<!-- Node4&#45;&gt;Node5 -->
<g id="edge5" class="edge"><title>Node4&#45;&gt;Node5</title>
<path fill="none" stroke="midnightblue" d="M664.843,-168.486C625.015,-161.595 572.178,-150.021 528,-132 510.835,-124.998 468.991,-98.1344 443.308,-81.2111"/>
<polygon fill="midnightblue" stroke="midnightblue" points="445.235,-78.2895 434.965,-75.6886 441.372,-84.1267 445.235,-78.2895"/>
</g>
<!-- Node4&#45;&gt;Node11 -->
<g id="edge11" class="edge"><title>Node4&#45;&gt;Node11</title>
<path fill="none" stroke="midnightblue" d="M776.339,-168.444C833.808,-158.865 926.867,-143.356 988,-133.167"/>
<polygon fill="midnightblue" stroke="midnightblue" points="988.613,-136.613 997.901,-131.516 987.462,-129.708 988.613,-136.613"/>
</g>
<!-- Node4&#45;&gt;Node20 -->
<g id="edge21" class="edge"><title>Node4&#45;&gt;Node20</title>
<path fill="none" stroke="midnightblue" d="M744.648,-168.444C764.965,-159.596 796.903,-145.687 820.098,-135.586"/>
<polygon fill="midnightblue" stroke="midnightblue" points="821.673,-138.718 829.444,-131.516 818.878,-132.3 821.673,-138.718"/>
</g>
<!-- Node4&#45;&gt;Node21 -->
<g id="edge26" class="edge"><title>Node4&#45;&gt;Node21</title>
<path fill="none" stroke="midnightblue" d="M730.87,-168.385C739.284,-154.866 752.363,-128.51 739,-112 692.665,-54.7557 648.769,-89.3058 571.148,-75.9936"/>
<polygon fill="midnightblue" stroke="midnightblue" points="571.487,-72.4936 561.001,-74.012 570.145,-79.3638 571.487,-72.4936"/>
</g>
<!-- Node4&#45;&gt;Node22 -->
<g id="edge23" class="edge"><title>Node4&#45;&gt;Node22</title>
<path fill="none" stroke="midnightblue" d="M657.686,-168.952C564.92,-157.834 404.794,-138.537 359.191,-131.822"/>
<polygon fill="midnightblue" stroke="midnightblue" points="359.637,-128.348 349.209,-130.221 358.529,-135.26 359.637,-128.348"/>
</g>
<!-- Node23 -->
<g id="node23" class="node"><title>Node23</title>
<polygon fill="none" stroke="#bfbfbf" points="537.5,-112.5 537.5,-131.5 596.5,-131.5 596.5,-112.5 537.5,-112.5"/>
<text text-anchor="middle" x="567" y="-119.5" font-family="Helvetica,sans-Serif" font-size="10.00">stdexcept</text>
</g>
<!-- Node4&#45;&gt;Node23 -->
<g id="edge24" class="edge"><title>Node4&#45;&gt;Node23</title>
<path fill="none" stroke="midnightblue" d="M699.964,-168.444C673.384,-159.359 631.191,-144.939 601.477,-134.783"/>
<polygon fill="midnightblue" stroke="midnightblue" points="602.513,-131.439 591.918,-131.516 600.249,-138.062 602.513,-131.439"/>
</g>
<!-- Node24 -->
<g id="node24" class="node"><title>Node24</title>
<polygon fill="none" stroke="#bfbfbf" points="615,-112.5 615,-131.5 667,-131.5 667,-112.5 615,-112.5"/>
<text text-anchor="middle" x="641" y="-119.5" font-family="Helvetica,sans-Serif" font-size="10.00">sstream</text>
</g>
<!-- Node4&#45;&gt;Node24 -->
<g id="edge25" class="edge"><title>Node4&#45;&gt;Node24</title>
<path fill="none" stroke="midnightblue" d="M711.504,-168.324C698.4,-159.9 678.288,-146.971 662.893,-137.074"/>
<polygon fill="midnightblue" stroke="midnightblue" points="664.767,-134.118 654.463,-131.655 660.982,-140.006 664.767,-134.118"/>
</g>
<!-- Node25 -->
<g id="node25" class="node"><title>Node25</title>
<polygon fill="none" stroke="#bfbfbf" points="685.5,-112.5 685.5,-131.5 730.5,-131.5 730.5,-112.5 685.5,-112.5"/>
<text text-anchor="middle" x="708" y="-119.5" font-family="Helvetica,sans-Serif" font-size="10.00">gsl/gsl</text>
</g>
<!-- Node4&#45;&gt;Node25 -->
<g id="edge27" class="edge"><title>Node4&#45;&gt;Node25</title>
<path fill="none" stroke="midnightblue" d="M722.193,-168.083C719.915,-160.849 716.629,-150.409 713.792,-141.397"/>
<polygon fill="midnightblue" stroke="midnightblue" points="717.096,-140.239 710.755,-131.751 710.419,-142.341 717.096,-140.239"/>
</g>
<!-- Node6 -->
<g id="node6" class="node"><title>Node6</title>
<polygon fill="none" stroke="#bfbfbf" points="365,-0.5 365,-19.5 411,-19.5 411,-0.5 365,-0.5"/>
<text text-anchor="middle" x="388" y="-7.5" font-family="Helvetica,sans-Serif" font-size="10.00">cstdint</text>
</g>
<!-- Node5&#45;&gt;Node6 -->
<g id="edge6" class="edge"><title>Node5&#45;&gt;Node6</title>
<path fill="none" stroke="midnightblue" d="M416.386,-56.083C411.633,-48.5341 404.682,-37.4948 398.848,-28.2298"/>
<polygon fill="midnightblue" stroke="midnightblue" points="401.8,-26.3486 393.51,-19.7511 395.876,-30.0783 401.8,-26.3486"/>
</g>
<!-- Node5&#45;&gt;Node7 -->
<g id="edge7" class="edge"><title>Node5&#45;&gt;Node7</title>
<path fill="none" stroke="midnightblue" d="M480.578,-57.0065C483.763,-56.647 486.919,-56.3084 490,-56 727.694,-32.2037 1014.76,-17.4009 1114.65,-12.6609"/>
<polygon fill="midnightblue" stroke="midnightblue" points="1114.99,-16.149 1124.81,-12.1829 1114.66,-9.15668 1114.99,-16.149"/>
</g>
<!-- Node5&#45;&gt;Node8 -->
<g id="edge8" class="edge"><title>Node5&#45;&gt;Node8</title>
<path fill="none" stroke="midnightblue" d="M480.572,-56.9429C483.758,-56.5998 486.917,-56.2821 490,-56 532.913,-52.0731 1180.14,-20.4016 1338.32,-12.6888"/>
<polygon fill="midnightblue" stroke="midnightblue" points="1338.62,-16.1785 1348.44,-12.1957 1338.28,-9.18679 1338.62,-16.1785"/>
</g>
<!-- Node5&#45;&gt;Node9 -->
<g id="edge9" class="edge"><title>Node5&#45;&gt;Node9</title>
<path fill="none" stroke="midnightblue" d="M401.876,-56.4435C380.976,-47.5566 348.065,-33.5632 324.284,-23.4514"/>
<polygon fill="midnightblue" stroke="midnightblue" points="325.602,-20.2085 315.029,-19.5164 322.862,-26.6504 325.602,-20.2085"/>
</g>
<!-- Node10 -->
<g id="node10" class="node"><title>Node10</title>
<polygon fill="none" stroke="#bfbfbf" points="429,-0.5 429,-19.5 485,-19.5 485,-0.5 429,-0.5"/>
<text text-anchor="middle" x="457" y="-7.5" font-family="Helvetica,sans-Serif" font-size="10.00">algorithm</text>
</g>
<!-- Node5&#45;&gt;Node10 -->
<g id="edge10" class="edge"><title>Node5&#45;&gt;Node10</title>
<path fill="none" stroke="midnightblue" d="M427.78,-56.083C432.672,-48.5341 439.827,-37.4948 445.833,-28.2298"/>
<polygon fill="midnightblue" stroke="midnightblue" points="448.826,-30.0463 451.328,-19.7511 442.952,-26.239 448.826,-30.0463"/>
</g>
<!-- Node11&#45;&gt;Node7 -->
<g id="edge19" class="edge"><title>Node11&#45;&gt;Node7</title>
<path fill="none" stroke="midnightblue" d="M1075.79,-112.359C1093.79,-105.262 1116.74,-93.4989 1131,-76 1141.83,-62.7107 1146.81,-43.5882 1149.09,-29.5233"/>
<polygon fill="midnightblue" stroke="midnightblue" points="1152.57,-29.9067 1150.4,-19.536 1145.63,-28.9951 1152.57,-29.9067"/>
</g>
<!-- Node11&#45;&gt;Node12 -->
<g id="edge12" class="edge"><title>Node11&#45;&gt;Node12</title>
<path fill="none" stroke="midnightblue" d="M1079.74,-112.444C1112.94,-103.201 1165.99,-88.4356 1202.56,-78.2572"/>
<polygon fill="midnightblue" stroke="midnightblue" points="1203.71,-81.5699 1212.4,-75.5164 1201.83,-74.8262 1203.71,-81.5699"/>
</g>
<!-- Node13 -->
<g id="node13" class="node"><title>Node13</title>
<polygon fill="none" stroke="#bfbfbf" points="986.5,-56.5 986.5,-75.5 1033.5,-75.5 1033.5,-56.5 986.5,-56.5"/>
<text text-anchor="middle" x="1010" y="-63.5" font-family="Helvetica,sans-Serif" font-size="10.00">TList.h</text>
</g>
<!-- Node11&#45;&gt;Node13 -->
<g id="edge13" class="edge"><title>Node11&#45;&gt;Node13</title>
<path fill="none" stroke="midnightblue" d="M1042.56,-112.083C1037.05,-104.455 1028.97,-93.2645 1022.24,-83.9408"/>
<polygon fill="midnightblue" stroke="midnightblue" points="1025.01,-81.8087 1016.32,-75.7511 1019.34,-85.9071 1025.01,-81.8087"/>
</g>
<!-- Node14 -->
<g id="node14" class="node"><title>Node14</title>
<polygon fill="none" stroke="#bfbfbf" points="1051.5,-56.5 1051.5,-75.5 1122.5,-75.5 1122.5,-56.5 1051.5,-56.5"/>
<text text-anchor="middle" x="1087" y="-63.5" font-family="Helvetica,sans-Serif" font-size="10.00">TMessage.h</text>
</g>
<!-- Node11&#45;&gt;Node14 -->
<g id="edge14" class="edge"><title>Node11&#45;&gt;Node14</title>
<path fill="none" stroke="midnightblue" d="M1055.27,-112.083C1060.64,-104.455 1068.52,-93.2645 1075.08,-83.9408"/>
<polygon fill="midnightblue" stroke="midnightblue" points="1077.95,-85.9434 1080.84,-75.7511 1072.22,-81.9149 1077.95,-85.9434"/>
</g>
<!-- Node15 -->
<g id="node15" class="node"><title>Node15</title>
<polygon fill="none" stroke="#bfbfbf" points="579.5,-56.5 579.5,-75.5 648.5,-75.5 648.5,-56.5 579.5,-56.5"/>
<text text-anchor="middle" x="614" y="-63.5" font-family="Helvetica,sans-Serif" font-size="10.00">TObjArray.h</text>
</g>
<!-- Node11&#45;&gt;Node15 -->
<g id="edge15" class="edge"><title>Node11&#45;&gt;Node15</title>
<path fill="none" stroke="midnightblue" d="M967.173,-112.503C875.029,-102.785 729.863,-86.9871 658.992,-76.1701"/>
<polygon fill="midnightblue" stroke="midnightblue" points="659.106,-72.6448 648.683,-74.5451 658.016,-79.5594 659.106,-72.6448"/>
</g>
<!-- Node16 -->
<g id="node16" class="node"><title>Node16</title>
<polygon fill="none" stroke="#bfbfbf" points="666.5,-56.5 666.5,-75.5 753.5,-75.5 753.5,-56.5 666.5,-56.5"/>
<text text-anchor="middle" x="710" y="-63.5" font-family="Helvetica,sans-Serif" font-size="10.00">TStreamerInfo.h</text>
</g>
<!-- Node11&#45;&gt;Node16 -->
<g id="edge16" class="edge"><title>Node11&#45;&gt;Node16</title>
<path fill="none" stroke="midnightblue" d="M992.864,-112.467C937.183,-103.943 849.141,-90.3017 763.806,-76.2795"/>
<polygon fill="midnightblue" stroke="midnightblue" points="764.12,-72.7842 753.684,-74.6124 762.982,-79.6912 764.12,-72.7842"/>
</g>
<!-- Node17 -->
<g id="node17" class="node"><title>Node17</title>
<polygon fill="none" stroke="#bfbfbf" points="771.5,-56.5 771.5,-75.5 834.5,-75.5 834.5,-56.5 771.5,-56.5"/>
<text text-anchor="middle" x="803" y="-63.5" font-family="Helvetica,sans-Serif" font-size="10.00">gsl/gsl_util</text>
</g>
<!-- Node11&#45;&gt;Node17 -->
<g id="edge17" class="edge"><title>Node11&#45;&gt;Node17</title>
<path fill="none" stroke="midnightblue" d="M1009.49,-112.446C970.118,-103.905 907.648,-90.3065 844.936,-76.4206"/>
<polygon fill="midnightblue" stroke="midnightblue" points="845.393,-72.937 834.873,-74.1902 843.879,-79.7712 845.393,-72.937"/>
</g>
<!-- Node18 -->
<g id="node18" class="node"><title>Node18</title>
<polygon fill="none" stroke="#bfbfbf" points="852.5,-56.5 852.5,-75.5 905.5,-75.5 905.5,-56.5 852.5,-56.5"/>
<text text-anchor="middle" x="879" y="-63.5" font-family="Helvetica,sans-Serif" font-size="10.00">gsl/span</text>
</g>
<!-- Node11&#45;&gt;Node18 -->
<g id="edge18" class="edge"><title>Node11&#45;&gt;Node18</title>
<path fill="none" stroke="midnightblue" d="M1022.06,-112.444C993.255,-103.293 947.403,-88.7279 915.397,-78.5614"/>
<polygon fill="midnightblue" stroke="midnightblue" points="916.121,-75.1193 905.531,-75.4275 914.002,-81.7908 916.121,-75.1193"/>
</g>
<!-- Node19 -->
<g id="node19" class="node"><title>Node19</title>
<polygon fill="none" stroke="#bfbfbf" points="924,-56.5 924,-75.5 968,-75.5 968,-56.5 924,-56.5"/>
<text text-anchor="middle" x="946" y="-63.5" font-family="Helvetica,sans-Serif" font-size="10.00">mutex</text>
</g>
<!-- Node11&#45;&gt;Node19 -->
<g id="edge20" class="edge"><title>Node11&#45;&gt;Node19</title>
<path fill="none" stroke="midnightblue" d="M1032.45,-112.324C1016.01,-103.703 990.565,-90.3643 971.532,-80.3855"/>
<polygon fill="midnightblue" stroke="midnightblue" points="972.989,-77.198 962.508,-75.6545 969.739,-83.3977 972.989,-77.198"/>
</g>
<!-- Node20&#45;&gt;Node21 -->
<g id="edge22" class="edge"><title>Node20&#45;&gt;Node21</title>
<path fill="none" stroke="midnightblue" d="M789.489,-112.483C735.087,-104.453 652.181,-91.6005 571.261,-76.1538"/>
<polygon fill="midnightblue" stroke="midnightblue" points="571.886,-72.7099 561.405,-74.2574 570.563,-79.5839 571.886,-72.7099"/>
</g>
<!-- Node26&#45;&gt;Node27 -->
<g id="edge29" class="edge"><title>Node26&#45;&gt;Node27</title>
<path fill="none" stroke="midnightblue" d="M105.496,-168.324C118.6,-159.9 138.712,-146.971 154.107,-137.074"/>
<polygon fill="midnightblue" stroke="midnightblue" points="156.018,-140.006 162.537,-131.655 152.233,-134.118 156.018,-140.006"/>
</g>
<!-- Node26&#45;&gt;Node28 -->
<g id="edge33" class="edge"><title>Node26&#45;&gt;Node28</title>
<path fill="none" stroke="midnightblue" d="M77.8107,-168.374C65.7994,-160.369 48.9875,-147.391 39,-132 29.9001,-117.977 25.0474,-99.4793 22.5312,-85.8036"/>
<polygon fill="midnightblue" stroke="midnightblue" points="25.9452,-84.9843 20.9251,-75.6543 19.0312,-86.0784 25.9452,-84.9843"/>
</g>
<!-- Node29 -->
<g id="node29" class="node"><title>Node29</title>
<polygon fill="none" stroke="#bfbfbf" points="48.5,-112.5 48.5,-131.5 97.5,-131.5 97.5,-112.5 48.5,-112.5"/>
<text text-anchor="middle" x="73" y="-119.5" font-family="Helvetica,sans-Serif" font-size="10.00">cstddef</text>
</g>
<!-- Node26&#45;&gt;Node29 -->
<g id="edge32" class="edge"><title>Node26&#45;&gt;Node29</title>
<path fill="none" stroke="midnightblue" d="M88.8625,-168.083C86.3171,-160.849 82.6438,-150.409 79.4729,-141.397"/>
<polygon fill="midnightblue" stroke="midnightblue" points="82.6998,-140.023 76.0791,-131.751 76.0966,-142.346 82.6998,-140.023"/>
</g>
<!-- Node27&#45;&gt;Node5 -->
<g id="edge31" class="edge"><title>Node27&#45;&gt;Node5</title>
<path fill="none" stroke="midnightblue" d="M214.979,-112.444C257.894,-103.023 326.946,-87.8656 373.369,-77.6752"/>
<polygon fill="midnightblue" stroke="midnightblue" points="374.186,-81.0792 383.203,-75.5164 372.685,-74.242 374.186,-81.0792"/>
</g>
<!-- Node27&#45;&gt;Node28 -->
<g id="edge30" class="edge"><title>Node27&#45;&gt;Node28</title>
<path fill="none" stroke="midnightblue" d="M151.281,-112.444C123.922,-102.973 79.8092,-87.7032 50.3679,-77.512"/>
<polygon fill="midnightblue" stroke="midnightblue" points="51.2123,-74.1005 40.6175,-74.1368 48.9224,-80.7154 51.2123,-74.1005"/>
</g>
</g>
</svg>
        <g id="navigator" transform="translate(0 0)" fill="#404254">
                <rect fill="#f2f5e9" fill-opacity="0.5" stroke="#606060" stroke-width=".5" x="0" y="0" width="60" height="60"/>
                <use id="zoomplus" xlink:href="#zoomPlus" x="17" y="9" onmousedown="handleZoom(evt,'in')"/>
                <use id="zoomminus" xlink:href="#zoomMin" x="42" y="9" onmousedown="handleZoom(evt,'out')"/>
                <use id="reset" xlink:href="#resetDef" x="30" y="36" onmousedown="handleReset()"/>
                <g id="arrowUp" xlink:href="#dirArrow" transform="translate(30 24)" onmousedown="handlePan(0,-1)">
                  <use xlink:href="#rim" fill="#404040">
                        <set attributeName="fill" to="#808080" begin="arrowUp.mouseover" end="arrowUp.mouseout"/>
                  </use>
                  <path fill="none" stroke="white" stroke-width="1.5" d="M0,-3.0v7 M-2.5,-0.5L0,-3.0L2.5,-0.5"/>
                </g>
                <g id="arrowRight" xlink:href="#dirArrow" transform="rotate(90) translate(36 -43)" onmousedown="handlePan(1,0)">
                  <use xlink:href="#rim" fill="#404040">
                        <set attributeName="fill" to="#808080" begin="arrowRight.mouseover" end="arrowRight.mouseout"/>
                  </use>
                  <path fill="none" stroke="white" stroke-width="1.5" d="M0,-3.0v7 M-2.5,-0.5L0,-3.0L2.5,-0.5"/>
                </g>
                <g id="arrowDown" xlink:href="#dirArrow" transform="rotate(180) translate(-30 -48)" onmousedown="handlePan(0,1)">
                  <use xlink:href="#rim" fill="#404040">
                        <set attributeName="fill" to="#808080" begin="arrowDown.mouseover" end="arrowDown.mouseout"/>
                  </use>
                  <path fill="none" stroke="white" stroke-width="1.5" d="M0,-3.0v7 M-2.5,-0.5L0,-3.0L2.5,-0.5"/>
                </g>
                <g id="arrowLeft" xlink:href="#dirArrow" transform="rotate(270) translate(-36 17)" onmousedown="handlePan(-1,0)">
                  <use xlink:href="#rim" fill="#404040">
                        <set attributeName="fill" to="#808080" begin="arrowLeft.mouseover" end="arrowLeft.mouseout"/>
                  </use>
                  <path fill="none" stroke="white" stroke-width="1.5" d="M0,-3.0v7 M-2.5,-0.5L0,-3.0L2.5,-0.5"/>
                </g>
        </g>
        <svg viewBox="0 0 15 15" width="100%" height="30px" preserveAspectRatio="xMaxYMin meet">
         <g id="arrow_out" transform="scale(0.3 0.3)">
          <a xlink:href="InputRecord_8cxx__incl_org.svg" target="_base">
           <rect id="button" ry="5" rx="5" y="6" x="6" height="38" width="38"
                fill="#f2f5e9" fill-opacity="0.5" stroke="#606060" stroke-width="1.0"/>
           <path id="arrow"
             d="M 11.500037,31.436501 C 11.940474,20.09759 22.043105,11.32322 32.158766,21.979434 L 37.068811,17.246167 C 37.068811,17.246167 37.088388,32 37.088388,32 L 22.160133,31.978069 C 22.160133,31.978069 26.997745,27.140456 26.997745,27.140456 C 18.528582,18.264221 13.291696,25.230495 11.500037,31.436501 z"
             style="fill:#404040;"/>
          </a>
         </g>
        </svg>
</svg>
