<?xml version="1.0" encoding="UTF-8" standalone="no"?>
<!DOCTYPE svg PUBLIC "-//W3C//DTD SVG 1.1//EN"
 "http://www.w3.org/Graphics/SVG/1.1/DTD/svg11.dtd">
<!-- Generated by graphviz version 2.36.0 (20140111.2315)
 -->
<!-- Title: /home/travis/build/AliceO2Group/AliceO2/Detectors/ITSMFT/common/reconstruction/include/ITSMFTReconstruction/TopologyDictionary.h Pages: 1 -->
<svg width="960pt" height="284pt"
 viewBox="0.00 0.00 960.00 284.00" xmlns="http://www.w3.org/2000/svg" xmlns:xlink="http://www.w3.org/1999/xlink">
<g id="graph0" class="graph" transform="scale(1 1) rotate(0) translate(4 280)">
<title>/home/travis/build/AliceO2Group/AliceO2/Detectors/ITSMFT/common/reconstruction/include/ITSMFTReconstruction/TopologyDictionary.h</title>
<!-- Node1 -->
<g id="node1" class="node"><title>Node1</title>
<polygon fill="#bfbfbf" stroke="black" points="433.5,-212.5 433.5,-275.5 650.5,-275.5 650.5,-212.5 433.5,-212.5"/>
<text text-anchor="start" x="441.5" y="-263.5" font-family="Helvetica,sans-Serif" font-size="10.00">/home/travis/build</text>
<text text-anchor="start" x="441.5" y="-252.5" font-family="Helvetica,sans-Serif" font-size="10.00">/AliceO2Group/AliceO2</text>
<text text-anchor="start" x="441.5" y="-241.5" font-family="Helvetica,sans-Serif" font-size="10.00">/Detectors/ITSMFT/common</text>
<text text-anchor="start" x="441.5" y="-230.5" font-family="Helvetica,sans-Serif" font-size="10.00">/reconstruction/include</text>
<text text-anchor="middle" x="542" y="-219.5" font-family="Helvetica,sans-Serif" font-size="10.00">/ITSMFTReconstruction/TopologyDictionary.h</text>
</g>
<!-- Node2 -->
<g id="node2" class="node"><title>Node2</title>
<g id="a_node2"><a xlink:href="../../d9/d1d/BuildTopologyDictionary_8h.html" target="_top" xlink:title="Definition of the BuildTopologyDictionary class. ">
<polygon fill="none" stroke="black" points="158,-101 158,-175 344,-175 344,-101 158,-101"/>
<text text-anchor="start" x="166" y="-163" font-family="Helvetica,sans-Serif" font-size="10.00">/home/travis/build</text>
<text text-anchor="start" x="166" y="-152" font-family="Helvetica,sans-Serif" font-size="10.00">/AliceO2Group/AliceO2</text>
<text text-anchor="start" x="166" y="-141" font-family="Helvetica,sans-Serif" font-size="10.00">/Detectors/ITSMFT/common</text>
<text text-anchor="start" x="166" y="-130" font-family="Helvetica,sans-Serif" font-size="10.00">/reconstruction/include</text>
<text text-anchor="start" x="166" y="-119" font-family="Helvetica,sans-Serif" font-size="10.00">/ITSMFTReconstruction/BuildTopology</text>
<text text-anchor="middle" x="251" y="-108" font-family="Helvetica,sans-Serif" font-size="10.00">Dictionary.h</text>
</a>
</g>
</g>
<!-- Node1&#45;&gt;Node2 -->
<g id="edge1" class="edge"><title>Node1&#45;&gt;Node2</title>
<path fill="none" stroke="midnightblue" d="M444.859,-209C415.041,-198.495 382.146,-186.837 352,-176 349.452,-175.084 346.868,-174.153 344.262,-173.212"/>
<polygon fill="midnightblue" stroke="midnightblue" points="443.83,-212.348 454.425,-212.368 446.155,-205.746 443.83,-212.348"/>
</g>
<!-- Node5 -->
<g id="node5" class="node"><title>Node5</title>
<g id="a_node5"><a xlink:href="../../df/ddf/LookUp_8h.html" target="_top" xlink:title="Definition of the LookUp class. ">
<polygon fill="none" stroke="black" points="361.5,-106.5 361.5,-169.5 528.5,-169.5 528.5,-106.5 361.5,-106.5"/>
<text text-anchor="start" x="369.5" y="-157.5" font-family="Helvetica,sans-Serif" font-size="10.00">/home/travis/build</text>
<text text-anchor="start" x="369.5" y="-146.5" font-family="Helvetica,sans-Serif" font-size="10.00">/AliceO2Group/AliceO2</text>
<text text-anchor="start" x="369.5" y="-135.5" font-family="Helvetica,sans-Serif" font-size="10.00">/Detectors/ITSMFT/common</text>
<text text-anchor="start" x="369.5" y="-124.5" font-family="Helvetica,sans-Serif" font-size="10.00">/reconstruction/include</text>
<text text-anchor="middle" x="445" y="-113.5" font-family="Helvetica,sans-Serif" font-size="10.00">/ITSMFTReconstruction/LookUp.h</text>
</a>
</g>
</g>
<!-- Node1&#45;&gt;Node5 -->
<g id="edge4" class="edge"><title>Node1&#45;&gt;Node5</title>
<path fill="none" stroke="midnightblue" d="M506.491,-204.928C495.703,-193.362 483.99,-180.804 473.709,-169.781"/>
<polygon fill="midnightblue" stroke="midnightblue" points="504.041,-207.433 513.421,-212.359 509.16,-202.659 504.041,-207.433"/>
</g>
<!-- Node7 -->
<g id="node7" class="node"><title>Node7</title>
<g id="a_node7"><a xlink:href="../../d9/d45/TopologyFastSimulation_8h.html" target="_top" xlink:title="Definition of the TopologyFastSimulation class. ">
<polygon fill="none" stroke="black" points="547,-101 547,-175 731,-175 731,-101 547,-101"/>
<text text-anchor="start" x="555" y="-163" font-family="Helvetica,sans-Serif" font-size="10.00">/home/travis/build</text>
<text text-anchor="start" x="555" y="-152" font-family="Helvetica,sans-Serif" font-size="10.00">/AliceO2Group/AliceO2</text>
<text text-anchor="start" x="555" y="-141" font-family="Helvetica,sans-Serif" font-size="10.00">/Detectors/ITSMFT/common</text>
<text text-anchor="start" x="555" y="-130" font-family="Helvetica,sans-Serif" font-size="10.00">/reconstruction/include</text>
<text text-anchor="start" x="555" y="-119" font-family="Helvetica,sans-Serif" font-size="10.00">/ITSMFTReconstruction/TopologyFast</text>
<text text-anchor="middle" x="639" y="-108" font-family="Helvetica,sans-Serif" font-size="10.00">Simulation.h</text>
</a>
</g>
</g>
<!-- Node1&#45;&gt;Node7 -->
<g id="edge6" class="edge"><title>Node1&#45;&gt;Node7</title>
<path fill="none" stroke="midnightblue" d="M577.628,-204.801C586.62,-195.16 596.249,-184.836 605.151,-175.292"/>
<polygon fill="midnightblue" stroke="midnightblue" points="574.84,-202.659 570.579,-212.359 579.959,-207.433 574.84,-202.659"/>
</g>
<!-- Node9 -->
<g id="node9" class="node"><title>Node9</title>
<g id="a_node9"><a xlink:href="../../df/d48/TopologyDictionary_8cxx.html" target="_top" xlink:title="Implementation of the TopologyDictionary class. ">
<polygon fill="none" stroke="black" points="749.5,-112 749.5,-164 952.5,-164 952.5,-112 749.5,-112"/>
<text text-anchor="start" x="757.5" y="-152" font-family="Helvetica,sans-Serif" font-size="10.00">/home/travis/build</text>
<text text-anchor="start" x="757.5" y="-141" font-family="Helvetica,sans-Serif" font-size="10.00">/AliceO2Group/AliceO2</text>
<text text-anchor="start" x="757.5" y="-130" font-family="Helvetica,sans-Serif" font-size="10.00">/Detectors/ITSMFT/common</text>
<text text-anchor="middle" x="851" y="-119" font-family="Helvetica,sans-Serif" font-size="10.00">/reconstruction/src/TopologyDictionary.cxx</text>
</a>
</g>
</g>
<!-- Node1&#45;&gt;Node9 -->
<g id="edge8" class="edge"><title>Node1&#45;&gt;Node9</title>
<path fill="none" stroke="midnightblue" d="M642.129,-209.3C685.833,-194.59 736.19,-177.641 776.508,-164.072"/>
<polygon fill="midnightblue" stroke="midnightblue" points="640.983,-205.992 632.622,-212.499 643.216,-212.627 640.983,-205.992"/>
</g>
<!-- Node3 -->
<g id="node3" class="node"><title>Node3</title>
<g id="a_node3"><a xlink:href="../../d9/d9d/BuildTopologyDictionary_8cxx.html" target="_top" xlink:title="Implementation of the BuildTopologyDictionary class. ">
<polygon fill="none" stroke="black" points="0,-0.5 0,-63.5 162,-63.5 162,-0.5 0,-0.5"/>
<text text-anchor="start" x="8" y="-51.5" font-family="Helvetica,sans-Serif" font-size="10.00">/home/travis/build</text>
<text text-anchor="start" x="8" y="-40.5" font-family="Helvetica,sans-Serif" font-size="10.00">/AliceO2Group/AliceO2</text>
<text text-anchor="start" x="8" y="-29.5" font-family="Helvetica,sans-Serif" font-size="10.00">/Detectors/ITSMFT/common</text>
<text text-anchor="start" x="8" y="-18.5" font-family="Helvetica,sans-Serif" font-size="10.00">/reconstruction/src/BuildTopology</text>
<text text-anchor="middle" x="81" y="-7.5" font-family="Helvetica,sans-Serif" font-size="10.00">Dictionary.cxx</text>
</a>
</g>
</g>
<!-- Node2&#45;&gt;Node3 -->
<g id="edge2" class="edge"><title>Node2&#45;&gt;Node3</title>
<path fill="none" stroke="midnightblue" d="M183.057,-95.4349C165.716,-84.8261 147.386,-73.6129 131.119,-63.6612"/>
<polygon fill="midnightblue" stroke="midnightblue" points="181.662,-98.6847 192.019,-100.918 185.316,-92.7135 181.662,-98.6847"/>
</g>
<!-- Node4 -->
<g id="node4" class="node"><title>Node4</title>
<g id="a_node4"><a xlink:href="../../d9/db4/CheckTopologies_8C.html" target="_top" xlink:title="/home/travis/build\l/AliceO2Group/AliceO2\l/Detectors/ITSMFT/ITS\l/macros/test/CheckTopologies.C">
<polygon fill="none" stroke="black" points="180.5,-6 180.5,-58 341.5,-58 341.5,-6 180.5,-6"/>
<text text-anchor="start" x="188.5" y="-46" font-family="Helvetica,sans-Serif" font-size="10.00">/home/travis/build</text>
<text text-anchor="start" x="188.5" y="-35" font-family="Helvetica,sans-Serif" font-size="10.00">/AliceO2Group/AliceO2</text>
<text text-anchor="start" x="188.5" y="-24" font-family="Helvetica,sans-Serif" font-size="10.00">/Detectors/ITSMFT/ITS</text>
<text text-anchor="middle" x="261" y="-13" font-family="Helvetica,sans-Serif" font-size="10.00">/macros/test/CheckTopologies.C</text>
</a>
</g>
</g>
<!-- Node2&#45;&gt;Node4 -->
<g id="edge3" class="edge"><title>Node2&#45;&gt;Node4</title>
<path fill="none" stroke="midnightblue" d="M255.443,-90.7943C256.52,-79.5938 257.632,-68.0302 258.575,-58.217"/>
<polygon fill="midnightblue" stroke="midnightblue" points="251.943,-90.6286 254.469,-100.918 258.911,-91.2987 251.943,-90.6286"/>
</g>
<!-- Node6 -->
<g id="node6" class="node"><title>Node6</title>
<g id="a_node6"><a xlink:href="../../da/dd5/LookUp_8cxx.html" target="_top" xlink:title="Implementation of the LookUp class. ">
<polygon fill="none" stroke="black" points="368.5,-6 368.5,-58 521.5,-58 521.5,-6 368.5,-6"/>
<text text-anchor="start" x="376.5" y="-46" font-family="Helvetica,sans-Serif" font-size="10.00">/home/travis/build</text>
<text text-anchor="start" x="376.5" y="-35" font-family="Helvetica,sans-Serif" font-size="10.00">/AliceO2Group/AliceO2</text>
<text text-anchor="start" x="376.5" y="-24" font-family="Helvetica,sans-Serif" font-size="10.00">/Detectors/ITSMFT/common</text>
<text text-anchor="middle" x="445" y="-13" font-family="Helvetica,sans-Serif" font-size="10.00">/reconstruction/src/LookUp.cxx</text>
</a>
</g>
</g>
<!-- Node5&#45;&gt;Node6 -->
<g id="edge5" class="edge"><title>Node5&#45;&gt;Node6</title>
<path fill="none" stroke="midnightblue" d="M445,-96.3161C445,-83.4539 445,-69.6209 445,-58.1755"/>
<polygon fill="midnightblue" stroke="midnightblue" points="441.5,-96.359 445,-106.359 448.5,-96.3591 441.5,-96.359"/>
</g>
<!-- Node8 -->
<g id="node8" class="node"><title>Node8</title>
<g id="a_node8"><a xlink:href="../../d2/d34/TopologyFastSimulation_8cxx.html" target="_top" xlink:title="Implementation of the TopologyFastSimulation class. ">
<polygon fill="none" stroke="black" points="559,-0.5 559,-63.5 719,-63.5 719,-0.5 559,-0.5"/>
<text text-anchor="start" x="567" y="-51.5" font-family="Helvetica,sans-Serif" font-size="10.00">/home/travis/build</text>
<text text-anchor="start" x="567" y="-40.5" font-family="Helvetica,sans-Serif" font-size="10.00">/AliceO2Group/AliceO2</text>
<text text-anchor="start" x="567" y="-29.5" font-family="Helvetica,sans-Serif" font-size="10.00">/Detectors/ITSMFT/common</text>
<text text-anchor="start" x="567" y="-18.5" font-family="Helvetica,sans-Serif" font-size="10.00">/reconstruction/src/TopologyFast</text>
<text text-anchor="middle" x="639" y="-7.5" font-family="Helvetica,sans-Serif" font-size="10.00">Simulation.cxx</text>
</a>
</g>
</g>
<!-- Node7&#45;&gt;Node8 -->
<g id="edge7" class="edge"><title>Node7&#45;&gt;Node8</title>
<path fill="none" stroke="midnightblue" d="M639,-90.78C639,-81.6565 639,-72.2926 639,-63.8307"/>
<polygon fill="midnightblue" stroke="midnightblue" points="635.5,-90.9177 639,-100.918 642.5,-90.9178 635.5,-90.9177"/>
</g>
</g>
</svg>
