<?xml version="1.0" encoding="UTF-8" standalone="no"?>
<!DOCTYPE svg PUBLIC "-//W3C//DTD SVG 1.1//EN"
 "http://www.w3.org/Graphics/SVG/1.1/DTD/svg11.dtd">
<!-- Generated by graphviz version 2.36.0 (20140111.2315)
 -->
<!-- Title: /home/travis/build/AliceO2Group/AliceO2/Detectors/TPC/simulation/test/testTPCSAMPAProcessing.cxx Pages: 1 -->
<svg width="1578pt" height="534pt"
 viewBox="0.00 0.00 1578.00 534.00" xmlns="http://www.w3.org/2000/svg" xmlns:xlink="http://www.w3.org/1999/xlink">
<g id="graph0" class="graph" transform="scale(1 1) rotate(0) translate(4 530)">
<title>/home/travis/build/AliceO2Group/AliceO2/Detectors/TPC/simulation/test/testTPCSAMPAProcessing.cxx</title>
<!-- Node1 -->
<g id="node1" class="node"><title>Node1</title>
<polygon fill="#bfbfbf" stroke="black" points="1210.5,-473 1210.5,-525 1389.5,-525 1389.5,-473 1210.5,-473"/>
<text text-anchor="start" x="1218.5" y="-513" font-family="Helvetica,sans-Serif" font-size="10.00">/home/travis/build</text>
<text text-anchor="start" x="1218.5" y="-502" font-family="Helvetica,sans-Serif" font-size="10.00">/AliceO2Group/AliceO2</text>
<text text-anchor="start" x="1218.5" y="-491" font-family="Helvetica,sans-Serif" font-size="10.00">/Detectors/TPC/simulation</text>
<text text-anchor="middle" x="1300" y="-480" font-family="Helvetica,sans-Serif" font-size="10.00">/test/testTPCSAMPAProcessing.cxx</text>
</g>
<!-- Node2 -->
<g id="node2" class="node"><title>Node2</title>
<polygon fill="none" stroke="#bfbfbf" points="827.5,-416.5 827.5,-435.5 946.5,-435.5 946.5,-416.5 827.5,-416.5"/>
<text text-anchor="middle" x="887" y="-423.5" font-family="Helvetica,sans-Serif" font-size="10.00">boost/test/unit_test.hpp</text>
</g>
<!-- Node1&#45;&gt;Node2 -->
<g id="edge1" class="edge"><title>Node1&#45;&gt;Node2</title>
<path fill="none" stroke="midnightblue" d="M1210.39,-482.594C1130.45,-468.853 1015.68,-449.122 946.536,-437.235"/>
<polygon fill="midnightblue" stroke="midnightblue" points="947.123,-433.785 936.675,-435.54 945.937,-440.683 947.123,-433.785"/>
</g>
<!-- Node3 -->
<g id="node3" class="node"><title>Node3</title>
<g id="a_node3"><a xlink:href="../../d0/d45/SAMPAProcessing_8h.html" target="_top" xlink:title="Definition of the SAMPA response. ">
<polygon fill="none" stroke="black" points="965,-416.5 965,-435.5 1143,-435.5 1143,-416.5 965,-416.5"/>
<text text-anchor="middle" x="1054" y="-423.5" font-family="Helvetica,sans-Serif" font-size="10.00">TPCSimulation/SAMPAProcessing.h</text>
</a>
</g>
</g>
<!-- Node1&#45;&gt;Node3 -->
<g id="edge2" class="edge"><title>Node1&#45;&gt;Node3</title>
<path fill="none" stroke="midnightblue" d="M1213.27,-472.968C1172.45,-461.188 1125.78,-447.718 1093.57,-438.419"/>
<polygon fill="midnightblue" stroke="midnightblue" points="1094.22,-434.964 1083.64,-435.554 1092.28,-441.69 1094.22,-434.964"/>
</g>
<!-- Node21 -->
<g id="node21" class="node"><title>Node21</title>
<polygon fill="none" stroke="#bfbfbf" points="1298,-74.5 1298,-93.5 1352,-93.5 1352,-74.5 1298,-74.5"/>
<text text-anchor="middle" x="1325" y="-81.5" font-family="Helvetica,sans-Serif" font-size="10.00">iostream</text>
</g>
<!-- Node1&#45;&gt;Node21 -->
<g id="edge37" class="edge"><title>Node1&#45;&gt;Node21</title>
<path fill="none" stroke="midnightblue" d="M1291.63,-472.53C1284.03,-447.109 1274,-406.784 1274,-371 1274,-371 1274,-371 1274,-201 1274,-163.079 1297.12,-123.632 1312.23,-101.908"/>
<polygon fill="midnightblue" stroke="midnightblue" points="1315.11,-103.896 1318.12,-93.7384 1309.43,-99.8012 1315.11,-103.896"/>
</g>
<!-- Node23 -->
<g id="node23" class="node"><title>Node23</title>
<g id="a_node23"><a xlink:href="../../d3/d47/ParameterElectronics_8h.html" target="_top" xlink:title="Definition of the parameter class for the detector electronics. ">
<polygon fill="none" stroke="black" points="1082,-360.5 1082,-379.5 1246,-379.5 1246,-360.5 1082,-360.5"/>
<text text-anchor="middle" x="1164" y="-367.5" font-family="Helvetica,sans-Serif" font-size="10.00">TPCBase/ParameterElectronics.h</text>
</a>
</g>
</g>
<!-- Node1&#45;&gt;Node23 -->
<g id="edge35" class="edge"><title>Node1&#45;&gt;Node23</title>
<path fill="none" stroke="midnightblue" d="M1273.13,-472.909C1245.69,-447.285 1203.94,-408.295 1180.84,-386.728"/>
<polygon fill="midnightblue" stroke="midnightblue" points="1182.94,-383.895 1173.24,-379.628 1178.16,-389.011 1182.94,-383.895"/>
</g>
<!-- Node32 -->
<g id="node32" class="node"><title>Node32</title>
<polygon fill="none" stroke="#bfbfbf" points="1302,-416.5 1302,-435.5 1352,-435.5 1352,-416.5 1302,-416.5"/>
<text text-anchor="middle" x="1327" y="-423.5" font-family="Helvetica,sans-Serif" font-size="10.00">fstream</text>
</g>
<!-- Node1&#45;&gt;Node32 -->
<g id="edge36" class="edge"><title>Node1&#45;&gt;Node32</title>
<path fill="none" stroke="midnightblue" d="M1309.6,-472.768C1313.05,-463.688 1316.87,-453.627 1320.06,-445.256"/>
<polygon fill="midnightblue" stroke="midnightblue" points="1323.39,-446.348 1323.67,-435.757 1316.84,-443.86 1323.39,-446.348"/>
</g>
<!-- Node33 -->
<g id="node33" class="node"><title>Node33</title>
<polygon fill="none" stroke="#bfbfbf" points="1370,-416.5 1370,-435.5 1422,-435.5 1422,-416.5 1370,-416.5"/>
<text text-anchor="middle" x="1396" y="-423.5" font-family="Helvetica,sans-Serif" font-size="10.00">sstream</text>
</g>
<!-- Node1&#45;&gt;Node33 -->
<g id="edge38" class="edge"><title>Node1&#45;&gt;Node33</title>
<path fill="none" stroke="midnightblue" d="M1333.85,-472.968C1347.92,-462.559 1363.78,-450.831 1375.95,-441.827"/>
<polygon fill="midnightblue" stroke="midnightblue" points="1378.13,-444.57 1384.09,-435.81 1373.97,-438.942 1378.13,-444.57"/>
</g>
<!-- Node34 -->
<g id="node34" class="node"><title>Node34</title>
<polygon fill="none" stroke="#bfbfbf" points="1440.5,-416.5 1440.5,-435.5 1481.5,-435.5 1481.5,-416.5 1440.5,-416.5"/>
<text text-anchor="middle" x="1461" y="-423.5" font-family="Helvetica,sans-Serif" font-size="10.00">string</text>
</g>
<!-- Node1&#45;&gt;Node34 -->
<g id="edge39" class="edge"><title>Node1&#45;&gt;Node34</title>
<path fill="none" stroke="midnightblue" d="M1356.76,-472.968C1382.24,-461.732 1411.2,-448.96 1432.12,-439.735"/>
<polygon fill="midnightblue" stroke="midnightblue" points="1433.67,-442.876 1441.41,-435.639 1430.85,-436.472 1433.67,-442.876"/>
</g>
<!-- Node35 -->
<g id="node35" class="node"><title>Node35</title>
<polygon fill="none" stroke="#bfbfbf" points="1499.5,-416.5 1499.5,-435.5 1570.5,-435.5 1570.5,-416.5 1499.5,-416.5"/>
<text text-anchor="middle" x="1535" y="-423.5" font-family="Helvetica,sans-Serif" font-size="10.00">FairLogger.h</text>
</g>
<!-- Node1&#45;&gt;Node35 -->
<g id="edge40" class="edge"><title>Node1&#45;&gt;Node35</title>
<path fill="none" stroke="midnightblue" d="M1382.85,-472.968C1421.67,-461.239 1466.04,-447.835 1496.8,-438.54"/>
<polygon fill="midnightblue" stroke="midnightblue" points="1498.13,-441.797 1506.69,-435.554 1496.1,-435.096 1498.13,-441.797"/>
</g>
<!-- Node4 -->
<g id="node4" class="node"><title>Node4</title>
<polygon fill="none" stroke="#bfbfbf" points="639,-248.5 639,-267.5 683,-267.5 683,-248.5 639,-248.5"/>
<text text-anchor="middle" x="661" y="-255.5" font-family="Helvetica,sans-Serif" font-size="10.00">Vc/Vc</text>
</g>
<!-- Node3&#45;&gt;Node4 -->
<g id="edge3" class="edge"><title>Node3&#45;&gt;Node4</title>
<path fill="none" stroke="midnightblue" d="M969.791,-416.468C903.292,-408.712 816.618,-396.039 785,-380 735.329,-354.803 692.639,-302.752 672.818,-275.877"/>
<polygon fill="midnightblue" stroke="midnightblue" points="675.472,-273.573 666.787,-267.506 669.793,-277.666 675.472,-273.573"/>
</g>
<!-- Node5 -->
<g id="node5" class="node"><title>Node5</title>
<g id="a_node5"><a xlink:href="../../dd/d0b/PadSecPos_8h.html" target="_top" xlink:title="TPCBase/PadSecPos.h">
<polygon fill="none" stroke="black" points="999,-304.5 999,-323.5 1121,-323.5 1121,-304.5 999,-304.5"/>
<text text-anchor="middle" x="1060" y="-311.5" font-family="Helvetica,sans-Serif" font-size="10.00">TPCBase/PadSecPos.h</text>
</a>
</g>
</g>
<!-- Node3&#45;&gt;Node5 -->
<g id="edge4" class="edge"><title>Node3&#45;&gt;Node5</title>
<path fill="none" stroke="midnightblue" d="M1054.47,-416.368C1055.44,-398.617 1057.67,-357.666 1058.99,-333.597"/>
<polygon fill="midnightblue" stroke="midnightblue" points="1062.48,-333.767 1059.53,-323.591 1055.49,-333.386 1062.48,-333.767"/>
</g>
<!-- Node3&#45;&gt;Node23 -->
<g id="edge23" class="edge"><title>Node3&#45;&gt;Node23</title>
<path fill="none" stroke="midnightblue" d="M1071.67,-416.324C1089.39,-407.625 1116.9,-394.12 1137.29,-384.113"/>
<polygon fill="midnightblue" stroke="midnightblue" points="1138.94,-387.203 1146.37,-379.655 1135.85,-380.919 1138.94,-387.203"/>
</g>
<!-- Node25 -->
<g id="node25" class="node"><title>Node25</title>
<g id="a_node25"><a xlink:href="../../dd/d94/Baseline_8h.html" target="_top" xlink:title="TPCSimulation/Baseline.h">
<polygon fill="none" stroke="black" points="794.5,-360.5 794.5,-379.5 925.5,-379.5 925.5,-360.5 794.5,-360.5"/>
<text text-anchor="middle" x="860" y="-367.5" font-family="Helvetica,sans-Serif" font-size="10.00">TPCSimulation/Baseline.h</text>
</a>
</g>
</g>
<!-- Node3&#45;&gt;Node25 -->
<g id="edge25" class="edge"><title>Node3&#45;&gt;Node25</title>
<path fill="none" stroke="midnightblue" d="M1023.26,-416.444C990.056,-407.201 937.009,-392.436 900.443,-382.257"/>
<polygon fill="midnightblue" stroke="midnightblue" points="901.168,-378.826 890.596,-379.516 899.291,-385.57 901.168,-378.826"/>
</g>
<!-- Node31 -->
<g id="node31" class="node"><title>Node31</title>
<polygon fill="none" stroke="#bfbfbf" points="968,-360.5 968,-379.5 1026,-379.5 1026,-360.5 968,-360.5"/>
<text text-anchor="middle" x="997" y="-367.5" font-family="Helvetica,sans-Serif" font-size="10.00">TSpline.h</text>
</g>
<!-- Node3&#45;&gt;Node31 -->
<g id="edge34" class="edge"><title>Node3&#45;&gt;Node31</title>
<path fill="none" stroke="midnightblue" d="M1044.84,-416.324C1036.5,-408.42 1023.97,-396.548 1013.82,-386.938"/>
<polygon fill="midnightblue" stroke="midnightblue" points="1015.99,-384.171 1006.32,-379.834 1011.18,-389.252 1015.99,-384.171"/>
</g>
<!-- Node6 -->
<g id="node6" class="node"><title>Node6</title>
<g id="a_node6"><a xlink:href="../../d3/dd6/Sector_8h.html" target="_top" xlink:title="TPCBase/Sector.h">
<polygon fill="none" stroke="black" points="1017.5,-248.5 1017.5,-267.5 1116.5,-267.5 1116.5,-248.5 1017.5,-248.5"/>
<text text-anchor="middle" x="1067" y="-255.5" font-family="Helvetica,sans-Serif" font-size="10.00">TPCBase/Sector.h</text>
</a>
</g>
</g>
<!-- Node5&#45;&gt;Node6 -->
<g id="edge5" class="edge"><title>Node5&#45;&gt;Node6</title>
<path fill="none" stroke="midnightblue" d="M1061.16,-304.083C1062.08,-296.927 1063.42,-286.635 1064.58,-277.691"/>
<polygon fill="midnightblue" stroke="midnightblue" points="1068.05,-278.118 1065.87,-267.751 1061.11,-277.218 1068.05,-278.118"/>
</g>
<!-- Node22 -->
<g id="node22" class="node"><title>Node22</title>
<g id="a_node22"><a xlink:href="../../de/d41/PadPos_8h.html" target="_top" xlink:title="TPCBase/PadPos.h">
<polygon fill="none" stroke="black" points="1134.5,-248.5 1134.5,-267.5 1239.5,-267.5 1239.5,-248.5 1134.5,-248.5"/>
<text text-anchor="middle" x="1187" y="-255.5" font-family="Helvetica,sans-Serif" font-size="10.00">TPCBase/PadPos.h</text>
</a>
</g>
</g>
<!-- Node5&#45;&gt;Node22 -->
<g id="edge22" class="edge"><title>Node5&#45;&gt;Node22</title>
<path fill="none" stroke="midnightblue" d="M1080.12,-304.444C1101.02,-295.557 1133.93,-281.563 1157.72,-271.451"/>
<polygon fill="midnightblue" stroke="midnightblue" points="1159.14,-274.65 1166.97,-267.516 1156.4,-268.208 1159.14,-274.65"/>
</g>
<!-- Node7 -->
<g id="node7" class="node"><title>Node7</title>
<g id="a_node7"><a xlink:href="../../d6/d51/TPC_2base_2include_2TPCBase_2Constants_8h.html" target="_top" xlink:title="TPCBase/Constants.h">
<polygon fill="none" stroke="black" points="1009,-192.5 1009,-211.5 1125,-211.5 1125,-192.5 1009,-192.5"/>
<text text-anchor="middle" x="1067" y="-199.5" font-family="Helvetica,sans-Serif" font-size="10.00">TPCBase/Constants.h</text>
</a>
</g>
</g>
<!-- Node6&#45;&gt;Node7 -->
<g id="edge6" class="edge"><title>Node6&#45;&gt;Node7</title>
<path fill="none" stroke="midnightblue" d="M1067,-248.083C1067,-241.006 1067,-230.861 1067,-221.986"/>
<polygon fill="midnightblue" stroke="midnightblue" points="1070.5,-221.751 1067,-211.751 1063.5,-221.751 1070.5,-221.751"/>
</g>
<!-- Node8 -->
<g id="node8" class="node"><title>Node8</title>
<g id="a_node8"><a xlink:href="../../d1/d73/Defs_8h.html" target="_top" xlink:title="Common definitions for 2D coordinates. ">
<polygon fill="none" stroke="black" points="798,-192.5 798,-211.5 890,-211.5 890,-192.5 798,-192.5"/>
<text text-anchor="middle" x="844" y="-199.5" font-family="Helvetica,sans-Serif" font-size="10.00">TPCBase/Defs.h</text>
</a>
</g>
</g>
<!-- Node6&#45;&gt;Node8 -->
<g id="edge7" class="edge"><title>Node6&#45;&gt;Node8</title>
<path fill="none" stroke="midnightblue" d="M1031.66,-248.444C993.089,-239.102 931.215,-224.119 889.147,-213.933"/>
<polygon fill="midnightblue" stroke="midnightblue" points="889.713,-210.468 879.17,-211.516 888.065,-217.272 889.713,-210.468"/>
</g>
<!-- Node9 -->
<g id="node9" class="node"><title>Node9</title>
<polygon fill="none" stroke="#bfbfbf" points="874,-136.5 874,-155.5 918,-155.5 918,-136.5 874,-136.5"/>
<text text-anchor="middle" x="896" y="-143.5" font-family="Helvetica,sans-Serif" font-size="10.00">cmath</text>
</g>
<!-- Node8&#45;&gt;Node9 -->
<g id="edge8" class="edge"><title>Node8&#45;&gt;Node9</title>
<path fill="none" stroke="midnightblue" d="M852.587,-192.083C860.159,-184.22 871.378,-172.569 880.514,-163.081"/>
<polygon fill="midnightblue" stroke="midnightblue" points="883.158,-165.382 887.573,-155.751 878.115,-160.527 883.158,-165.382"/>
</g>
<!-- Node10 -->
<g id="node10" class="node"><title>Node10</title>
<g id="a_node10"><a xlink:href="../../d2/dd0/Cartesian2D_8h.html" target="_top" xlink:title="MathUtils/Cartesian2D.h">
<polygon fill="none" stroke="black" points="103.5,-74.5 103.5,-93.5 228.5,-93.5 228.5,-74.5 103.5,-74.5"/>
<text text-anchor="middle" x="166" y="-81.5" font-family="Helvetica,sans-Serif" font-size="10.00">MathUtils/Cartesian2D.h</text>
</a>
</g>
</g>
<!-- Node8&#45;&gt;Node10 -->
<g id="edge9" class="edge"><title>Node8&#45;&gt;Node10</title>
<path fill="none" stroke="midnightblue" d="M797.81,-194.014C696.185,-178.49 445.643,-139.379 237,-100 229.851,-98.6506 222.314,-97.1467 214.928,-95.6267"/>
<polygon fill="midnightblue" stroke="midnightblue" points="215.505,-92.1717 205.001,-93.5569 214.076,-99.0244 215.505,-92.1717"/>
</g>
<!-- Node13 -->
<g id="node13" class="node"><title>Node13</title>
<g id="a_node13"><a xlink:href="../../dd/d76/Cartesian3D_8h.html" target="_top" xlink:title="MathUtils/Cartesian3D.h">
<polygon fill="none" stroke="black" points="731.5,-136.5 731.5,-155.5 856.5,-155.5 856.5,-136.5 731.5,-136.5"/>
<text text-anchor="middle" x="794" y="-143.5" font-family="Helvetica,sans-Serif" font-size="10.00">MathUtils/Cartesian3D.h</text>
</a>
</g>
</g>
<!-- Node8&#45;&gt;Node13 -->
<g id="edge12" class="edge"><title>Node8&#45;&gt;Node13</title>
<path fill="none" stroke="midnightblue" d="M835.744,-192.083C828.535,-184.298 817.89,-172.801 809.154,-163.367"/>
<polygon fill="midnightblue" stroke="midnightblue" points="811.465,-160.711 802.103,-155.751 806.329,-165.467 811.465,-160.711"/>
</g>
<!-- Node11 -->
<g id="node11" class="node"><title>Node11</title>
<polygon fill="none" stroke="#bfbfbf" points="-0.5,-1 -0.5,-31 150.5,-31 150.5,-1 -0.5,-1"/>
<text text-anchor="start" x="7.5" y="-19" font-family="Helvetica,sans-Serif" font-size="10.00">Math/GenVector/Displacement</text>
<text text-anchor="middle" x="75" y="-8" font-family="Helvetica,sans-Serif" font-size="10.00">Vector2D.h</text>
</g>
<!-- Node10&#45;&gt;Node11 -->
<g id="edge10" class="edge"><title>Node10&#45;&gt;Node11</title>
<path fill="none" stroke="midnightblue" d="M154.103,-74.3717C141.221,-65.0286 120.22,-49.7966 103.093,-37.375"/>
<polygon fill="midnightblue" stroke="midnightblue" points="104.703,-34.2194 94.5532,-31.1815 100.593,-39.8859 104.703,-34.2194"/>
</g>
<!-- Node12 -->
<g id="node12" class="node"><title>Node12</title>
<polygon fill="none" stroke="#bfbfbf" points="169,-6.5 169,-25.5 345,-25.5 345,-6.5 169,-6.5"/>
<text text-anchor="middle" x="257" y="-13.5" font-family="Helvetica,sans-Serif" font-size="10.00">Math/GenVector/PositionVector2D.h</text>
</g>
<!-- Node10&#45;&gt;Node12 -->
<g id="edge11" class="edge"><title>Node10&#45;&gt;Node12</title>
<path fill="none" stroke="midnightblue" d="M177.897,-74.3717C192.884,-63.5015 218.862,-44.6602 236.942,-31.5474"/>
<polygon fill="midnightblue" stroke="midnightblue" points="239.06,-34.3349 245.1,-25.6305 234.95,-28.6684 239.06,-34.3349"/>
</g>
<!-- Node13&#45;&gt;Node10 -->
<g id="edge21" class="edge"><title>Node13&#45;&gt;Node10</title>
<path fill="none" stroke="midnightblue" d="M731.475,-142.552C628.12,-137.924 415.332,-125.934 237,-100 228.846,-98.8142 220.223,-97.2551 211.905,-95.591"/>
<polygon fill="midnightblue" stroke="midnightblue" points="212.462,-92.1323 201.96,-93.527 211.04,-98.9862 212.462,-92.1323"/>
</g>
<!-- Node14 -->
<g id="node14" class="node"><title>Node14</title>
<polygon fill="none" stroke="#bfbfbf" points="934.5,-69 934.5,-99 1085.5,-99 1085.5,-69 934.5,-69"/>
<text text-anchor="start" x="942.5" y="-87" font-family="Helvetica,sans-Serif" font-size="10.00">Math/GenVector/Displacement</text>
<text text-anchor="middle" x="1010" y="-76" font-family="Helvetica,sans-Serif" font-size="10.00">Vector3D.h</text>
</g>
<!-- Node13&#45;&gt;Node14 -->
<g id="edge13" class="edge"><title>Node13&#45;&gt;Node14</title>
<path fill="none" stroke="midnightblue" d="M824.948,-136.403C857.385,-127.393 909.173,-113.007 949.724,-101.743"/>
<polygon fill="midnightblue" stroke="midnightblue" points="950.81,-105.074 959.509,-99.0253 948.937,-98.3295 950.81,-105.074"/>
</g>
<!-- Node15 -->
<g id="node15" class="node"><title>Node15</title>
<polygon fill="none" stroke="#bfbfbf" points="1104,-74.5 1104,-93.5 1280,-93.5 1280,-74.5 1104,-74.5"/>
<text text-anchor="middle" x="1192" y="-81.5" font-family="Helvetica,sans-Serif" font-size="10.00">Math/GenVector/PositionVector3D.h</text>
</g>
<!-- Node13&#45;&gt;Node15 -->
<g id="edge14" class="edge"><title>Node13&#45;&gt;Node15</title>
<path fill="none" stroke="midnightblue" d="M851.24,-136.466C911.614,-127.453 1009.51,-112.802 1094,-100 1104.55,-98.4008 1115.75,-96.6961 1126.65,-95.031"/>
<polygon fill="midnightblue" stroke="midnightblue" points="1127.19,-98.4882 1136.55,-93.517 1126.13,-91.5686 1127.19,-98.4882"/>
</g>
<!-- Node16 -->
<g id="node16" class="node"><title>Node16</title>
<polygon fill="none" stroke="#bfbfbf" points="246.5,-74.5 246.5,-93.5 395.5,-93.5 395.5,-74.5 246.5,-74.5"/>
<text text-anchor="middle" x="321" y="-81.5" font-family="Helvetica,sans-Serif" font-size="10.00">Math/GenVector/Rotation3D.h</text>
</g>
<!-- Node13&#45;&gt;Node16 -->
<g id="edge15" class="edge"><title>Node13&#45;&gt;Node16</title>
<path fill="none" stroke="midnightblue" d="M731.187,-138.935C654.156,-131.221 519.682,-116.856 405,-100 395.536,-98.609 385.503,-96.9654 375.788,-95.2851"/>
<polygon fill="midnightblue" stroke="midnightblue" points="376.274,-91.8168 365.818,-93.5299 375.06,-98.7108 376.274,-91.8168"/>
</g>
<!-- Node17 -->
<g id="node17" class="node"><title>Node17</title>
<polygon fill="none" stroke="#bfbfbf" points="414,-74.5 414,-93.5 570,-93.5 570,-74.5 414,-74.5"/>
<text text-anchor="middle" x="492" y="-81.5" font-family="Helvetica,sans-Serif" font-size="10.00">Math/GenVector/Transform3D.h</text>
</g>
<!-- Node13&#45;&gt;Node17 -->
<g id="edge16" class="edge"><title>Node13&#45;&gt;Node17</title>
<path fill="none" stroke="midnightblue" d="M751.051,-136.467C696.823,-125.693 603.55,-107.162 544.962,-95.5223"/>
<polygon fill="midnightblue" stroke="midnightblue" points="545.291,-92.0192 534.8,-93.5034 543.927,-98.885 545.291,-92.0192"/>
</g>
<!-- Node18 -->
<g id="node18" class="node"><title>Node18</title>
<polygon fill="none" stroke="#bfbfbf" points="588,-74.5 588,-93.5 748,-93.5 748,-74.5 588,-74.5"/>
<text text-anchor="middle" x="668" y="-81.5" font-family="Helvetica,sans-Serif" font-size="10.00">Math/GenVector/Translation3D.h</text>
</g>
<!-- Node13&#45;&gt;Node18 -->
<g id="edge17" class="edge"><title>Node13&#45;&gt;Node18</title>
<path fill="none" stroke="midnightblue" d="M775.947,-136.403C754.802,-126.334 719.56,-109.552 695.122,-97.9151"/>
<polygon fill="midnightblue" stroke="midnightblue" points="696.553,-94.72 686.019,-93.5806 693.543,-101.04 696.553,-94.72"/>
</g>
<!-- Node19 -->
<g id="node19" class="node"><title>Node19</title>
<polygon fill="none" stroke="#bfbfbf" points="766,-74.5 766,-93.5 822,-93.5 822,-74.5 766,-74.5"/>
<text text-anchor="middle" x="794" y="-81.5" font-family="Helvetica,sans-Serif" font-size="10.00">Rtypes.h</text>
</g>
<!-- Node13&#45;&gt;Node19 -->
<g id="edge18" class="edge"><title>Node13&#45;&gt;Node19</title>
<path fill="none" stroke="midnightblue" d="M794,-136.403C794,-127.938 794,-114.728 794,-103.82"/>
<polygon fill="midnightblue" stroke="midnightblue" points="797.5,-103.581 794,-93.5806 790.5,-103.581 797.5,-103.581"/>
</g>
<!-- Node20 -->
<g id="node20" class="node"><title>Node20</title>
<polygon fill="none" stroke="#bfbfbf" points="840,-74.5 840,-93.5 916,-93.5 916,-74.5 840,-74.5"/>
<text text-anchor="middle" x="878" y="-81.5" font-family="Helvetica,sans-Serif" font-size="10.00">TGeoMatrix.h</text>
</g>
<!-- Node13&#45;&gt;Node20 -->
<g id="edge19" class="edge"><title>Node13&#45;&gt;Node20</title>
<path fill="none" stroke="midnightblue" d="M806.035,-136.403C819.508,-126.78 841.566,-111.024 857.715,-99.4891"/>
<polygon fill="midnightblue" stroke="midnightblue" points="859.884,-102.241 865.987,-93.5806 855.815,-96.5449 859.884,-102.241"/>
</g>
<!-- Node13&#45;&gt;Node21 -->
<g id="edge20" class="edge"><title>Node13&#45;&gt;Node21</title>
<path fill="none" stroke="midnightblue" d="M856.704,-136.909C859.506,-136.593 862.282,-136.288 865,-136 1052.63,-116.132 1104.51,-143.938 1288,-100 1291.07,-99.2651 1294.22,-98.3171 1297.32,-97.255"/>
<polygon fill="midnightblue" stroke="midnightblue" points="1298.82,-100.429 1306.91,-93.5952 1296.32,-93.8886 1298.82,-100.429"/>
</g>
<!-- Node24 -->
<g id="node24" class="node"><title>Node24</title>
<polygon fill="none" stroke="#bfbfbf" points="1145,-304.5 1145,-323.5 1183,-323.5 1183,-304.5 1145,-304.5"/>
<text text-anchor="middle" x="1164" y="-311.5" font-family="Helvetica,sans-Serif" font-size="10.00">array</text>
</g>
<!-- Node23&#45;&gt;Node24 -->
<g id="edge24" class="edge"><title>Node23&#45;&gt;Node24</title>
<path fill="none" stroke="midnightblue" d="M1164,-360.083C1164,-353.006 1164,-342.861 1164,-333.986"/>
<polygon fill="midnightblue" stroke="midnightblue" points="1167.5,-333.751 1164,-323.751 1160.5,-333.751 1167.5,-333.751"/>
</g>
<!-- Node25&#45;&gt;Node4 -->
<g id="edge26" class="edge"><title>Node25&#45;&gt;Node4</title>
<path fill="none" stroke="midnightblue" d="M839.55,-360.457C819.648,-351.925 788.729,-338.085 763,-324 733.93,-308.086 701.935,-287.089 681.67,-273.324"/>
<polygon fill="midnightblue" stroke="midnightblue" points="683.467,-270.313 673.238,-267.554 679.514,-276.09 683.467,-270.313"/>
</g>
<!-- Node25&#45;&gt;Node5 -->
<g id="edge27" class="edge"><title>Node25&#45;&gt;Node5</title>
<path fill="none" stroke="midnightblue" d="M891.691,-360.444C926.068,-351.162 981.077,-336.309 1018.79,-326.127"/>
<polygon fill="midnightblue" stroke="midnightblue" points="1019.72,-329.502 1028.46,-323.516 1017.89,-322.744 1019.72,-329.502"/>
</g>
<!-- Node26 -->
<g id="node26" class="node"><title>Node26</title>
<g id="a_node26"><a xlink:href="../../db/dac/RandomRing_8h.html" target="_top" xlink:title="TPCBase/RandomRing.h">
<polygon fill="none" stroke="black" points="772,-304.5 772,-323.5 900,-323.5 900,-304.5 772,-304.5"/>
<text text-anchor="middle" x="836" y="-311.5" font-family="Helvetica,sans-Serif" font-size="10.00">TPCBase/RandomRing.h</text>
</a>
</g>
</g>
<!-- Node25&#45;&gt;Node26 -->
<g id="edge28" class="edge"><title>Node25&#45;&gt;Node26</title>
<path fill="none" stroke="midnightblue" d="M856.037,-360.083C852.787,-352.77 848.081,-342.181 844.046,-333.103"/>
<polygon fill="midnightblue" stroke="midnightblue" points="847.149,-331.468 839.889,-323.751 840.752,-334.311 847.149,-331.468"/>
</g>
<!-- Node26&#45;&gt;Node4 -->
<g id="edge30" class="edge"><title>Node26&#45;&gt;Node4</title>
<path fill="none" stroke="midnightblue" d="M808.271,-304.444C776.828,-294.741 725.659,-278.952 692.671,-268.773"/>
<polygon fill="midnightblue" stroke="midnightblue" points="693.646,-265.411 683.059,-265.807 691.582,-272.1 693.646,-265.411"/>
</g>
<!-- Node27 -->
<g id="node27" class="node"><title>Node27</title>
<polygon fill="none" stroke="#bfbfbf" points="847,-248.5 847,-267.5 937,-267.5 937,-248.5 847,-248.5"/>
<text text-anchor="middle" x="892" y="-255.5" font-family="Helvetica,sans-Serif" font-size="10.00">boost/format.hpp</text>
</g>
<!-- Node26&#45;&gt;Node27 -->
<g id="edge29" class="edge"><title>Node26&#45;&gt;Node27</title>
<path fill="none" stroke="midnightblue" d="M844.997,-304.324C853.194,-296.42 865.506,-284.548 875.472,-274.938"/>
<polygon fill="midnightblue" stroke="midnightblue" points="878.07,-277.295 882.839,-267.834 873.211,-272.256 878.07,-277.295"/>
</g>
<!-- Node28 -->
<g id="node28" class="node"><title>Node28</title>
<polygon fill="none" stroke="#bfbfbf" points="955,-248.5 955,-267.5 999,-267.5 999,-248.5 955,-248.5"/>
<text text-anchor="middle" x="977" y="-255.5" font-family="Helvetica,sans-Serif" font-size="10.00">vector</text>
</g>
<!-- Node26&#45;&gt;Node28 -->
<g id="edge31" class="edge"><title>Node26&#45;&gt;Node28</title>
<path fill="none" stroke="midnightblue" d="M858.342,-304.444C881.753,-295.478 918.736,-281.314 945.19,-271.183"/>
<polygon fill="midnightblue" stroke="midnightblue" points="946.676,-274.361 954.763,-267.516 944.172,-267.824 946.676,-274.361"/>
</g>
<!-- Node29 -->
<g id="node29" class="node"><title>Node29</title>
<polygon fill="none" stroke="#bfbfbf" points="701,-248.5 701,-267.5 743,-267.5 743,-248.5 701,-248.5"/>
<text text-anchor="middle" x="722" y="-255.5" font-family="Helvetica,sans-Serif" font-size="10.00">TF1.h</text>
</g>
<!-- Node26&#45;&gt;Node29 -->
<g id="edge32" class="edge"><title>Node26&#45;&gt;Node29</title>
<path fill="none" stroke="midnightblue" d="M817.936,-304.444C799.425,-295.675 770.419,-281.935 749.145,-271.858"/>
<polygon fill="midnightblue" stroke="midnightblue" points="750.515,-268.634 739.979,-267.516 747.518,-274.96 750.515,-268.634"/>
</g>
<!-- Node30 -->
<g id="node30" class="node"><title>Node30</title>
<polygon fill="none" stroke="#bfbfbf" points="761,-248.5 761,-267.5 829,-267.5 829,-248.5 761,-248.5"/>
<text text-anchor="middle" x="795" y="-255.5" font-family="Helvetica,sans-Serif" font-size="10.00">TRandom.h</text>
</g>
<!-- Node26&#45;&gt;Node30 -->
<g id="edge33" class="edge"><title>Node26&#45;&gt;Node30</title>
<path fill="none" stroke="midnightblue" d="M829.23,-304.083C823.438,-296.455 814.942,-285.264 807.862,-275.941"/>
<polygon fill="midnightblue" stroke="midnightblue" points="810.479,-273.599 801.644,-267.751 804.904,-277.832 810.479,-273.599"/>
</g>
</g>
</svg>
