<?xml version="1.0" encoding="UTF-8" standalone="no"?>
<!DOCTYPE svg PUBLIC "-//W3C//DTD SVG 1.1//EN"
 "http://www.w3.org/Graphics/SVG/1.1/DTD/svg11.dtd">
<!-- Generated by graphviz version 2.36.0 (20140111.2315)
 -->
<!-- Title: o2::TPC::Cluster Pages: 1 -->
<svg width="172pt" height="466pt"
 viewBox="0.00 0.00 172.00 466.00" xmlns="http://www.w3.org/2000/svg" xmlns:xlink="http://www.w3.org/1999/xlink">
<g id="graph0" class="graph" transform="scale(1 1) rotate(0) translate(4 462)">
<title>o2::TPC::Cluster</title>
<!-- Node1 -->
<g id="node1" class="node"><title>Node1</title>
<polygon fill="#bfbfbf" stroke="black" points="34.5,-1 34.5,-201 129.5,-201 129.5,-1 34.5,-1"/>
<text text-anchor="middle" x="82" y="-189" font-family="Helvetica,sans-Serif" font-size="10.00">o2::TPC::Cluster</text>
<polyline fill="none" stroke="black" points="34.5,-182 129.5,-182 "/>
<text text-anchor="middle" x="82" y="-170" font-family="Helvetica,sans-Serif" font-size="10.00"> </text>
<polyline fill="none" stroke="black" points="34.5,-163 129.5,-163 "/>
<text text-anchor="start" x="42.5" y="-151" font-family="Helvetica,sans-Serif" font-size="10.00">+ Cluster()</text>
<text text-anchor="start" x="42.5" y="-140" font-family="Helvetica,sans-Serif" font-size="10.00">+ Cluster()</text>
<text text-anchor="start" x="42.5" y="-129" font-family="Helvetica,sans-Serif" font-size="10.00">+ ~Cluster()</text>
<text text-anchor="start" x="42.5" y="-118" font-family="Helvetica,sans-Serif" font-size="10.00">+ Cluster()</text>
<text text-anchor="start" x="42.5" y="-107" font-family="Helvetica,sans-Serif" font-size="10.00">+ setParameters()</text>
<text text-anchor="start" x="42.5" y="-96" font-family="Helvetica,sans-Serif" font-size="10.00">+ getCRU()</text>
<text text-anchor="start" x="42.5" y="-85" font-family="Helvetica,sans-Serif" font-size="10.00">+ getRow()</text>
<text text-anchor="start" x="42.5" y="-74" font-family="Helvetica,sans-Serif" font-size="10.00">+ getQ()</text>
<text text-anchor="start" x="42.5" y="-63" font-family="Helvetica,sans-Serif" font-size="10.00">+ getQmax()</text>
<text text-anchor="start" x="42.5" y="-52" font-family="Helvetica,sans-Serif" font-size="10.00">+ getPadMean()</text>
<text text-anchor="start" x="42.5" y="-41" font-family="Helvetica,sans-Serif" font-size="10.00">+ getTimeMean()</text>
<text text-anchor="start" x="42.5" y="-30" font-family="Helvetica,sans-Serif" font-size="10.00">+ getPadSigma()</text>
<text text-anchor="start" x="42.5" y="-19" font-family="Helvetica,sans-Serif" font-size="10.00">+ getTimeSigma()</text>
<text text-anchor="start" x="42.5" y="-8" font-family="Helvetica,sans-Serif" font-size="10.00"># print()</text>
</g>
<!-- Node2 -->
<g id="node2" class="node"><title>Node2</title>
<g id="a_node2"><a xlink:href="../../d3/dbf/classo2_1_1dataformats_1_1TimeStampWithError.html" target="_top" xlink:title="{ClusterTimeStamp\n||+ TimeStampWithError()\l+ TimeStampWithError()\l+ getTimeStampError()\l+ setTimeStampError()\l}">
<polygon fill="none" stroke="black" points="20.5,-239 20.5,-329 143.5,-329 143.5,-239 20.5,-239"/>
<text text-anchor="middle" x="82" y="-317" font-family="Helvetica,sans-Serif" font-size="10.00">ClusterTimeStamp</text>
<polyline fill="none" stroke="black" points="20.5,-310 143.5,-310 "/>
<text text-anchor="middle" x="82" y="-298" font-family="Helvetica,sans-Serif" font-size="10.00"> </text>
<polyline fill="none" stroke="black" points="20.5,-291 143.5,-291 "/>
<text text-anchor="start" x="28.5" y="-279" font-family="Helvetica,sans-Serif" font-size="10.00">+ TimeStampWithError()</text>
<text text-anchor="start" x="28.5" y="-268" font-family="Helvetica,sans-Serif" font-size="10.00">+ TimeStampWithError()</text>
<text text-anchor="start" x="28.5" y="-257" font-family="Helvetica,sans-Serif" font-size="10.00">+ getTimeStampError()</text>
<text text-anchor="start" x="28.5" y="-246" font-family="Helvetica,sans-Serif" font-size="10.00">+ setTimeStampError()</text>
</a>
</g>
</g>
<!-- Node2&#45;&gt;Node1 -->
<g id="edge1" class="edge"><title>Node2&#45;&gt;Node1</title>
<path fill="none" stroke="midnightblue" d="M82,-228.71C82,-219.948 82,-210.643 82,-201.211"/>
<polygon fill="none" stroke="midnightblue" points="78.5001,-228.722 82,-238.722 85.5001,-228.722 78.5001,-228.722"/>
</g>
<!-- Node3 -->
<g id="node3" class="node"><title>Node3</title>
<g id="a_node3"><a xlink:href="../../d0/d94/classo2_1_1dataformats_1_1TimeStamp.html" target="_top" xlink:title="{o2::dataformats::TimeStamp\&lt; T \&gt;\n||+ TimeStamp()\l+ TimeStamp()\l+ getTimeStamp()\l+ setTimeStamp()\l}">
<polygon fill="none" stroke="black" points="-0.5,-367 -0.5,-457 164.5,-457 164.5,-367 -0.5,-367"/>
<text text-anchor="middle" x="82" y="-445" font-family="Helvetica,sans-Serif" font-size="10.00">o2::dataformats::TimeStamp&lt; T &gt;</text>
<polyline fill="none" stroke="black" points="-0.5,-438 164.5,-438 "/>
<text text-anchor="middle" x="82" y="-426" font-family="Helvetica,sans-Serif" font-size="10.00"> </text>
<polyline fill="none" stroke="black" points="-0.5,-419 164.5,-419 "/>
<text text-anchor="start" x="7.5" y="-407" font-family="Helvetica,sans-Serif" font-size="10.00">+ TimeStamp()</text>
<text text-anchor="start" x="7.5" y="-396" font-family="Helvetica,sans-Serif" font-size="10.00">+ TimeStamp()</text>
<text text-anchor="start" x="7.5" y="-385" font-family="Helvetica,sans-Serif" font-size="10.00">+ getTimeStamp()</text>
<text text-anchor="start" x="7.5" y="-374" font-family="Helvetica,sans-Serif" font-size="10.00">+ setTimeStamp()</text>
</a>
</g>
</g>
<!-- Node3&#45;&gt;Node2 -->
<g id="edge2" class="edge"><title>Node3&#45;&gt;Node2</title>
<path fill="none" stroke="midnightblue" d="M82,-356.726C82,-347.556 82,-338.133 82,-329.257"/>
<polygon fill="none" stroke="midnightblue" points="78.5001,-356.931 82,-366.931 85.5001,-356.931 78.5001,-356.931"/>
</g>
</g>
</svg>
