<?xml version="1.0" encoding="UTF-8" standalone="no"?>
<!DOCTYPE svg PUBLIC "-//W3C//DTD SVG 1.1//EN"
 "http://www.w3.org/Graphics/SVG/1.1/DTD/svg11.dtd">
<!-- Generated by graphviz version 2.36.0 (20140111.2315)
 -->
<!-- Title: /home/travis/build/AliceO2Group/AliceO2/DataFormats/Reconstruction/include Pages: 1 -->
<svg width="327pt" height="177pt"
 viewBox="0.00 0.00 327.00 176.69" xmlns="http://www.w3.org/2000/svg" xmlns:xlink="http://www.w3.org/1999/xlink">
<g id="graph0" class="graph" transform="scale(1 1) rotate(0) translate(4 172.694)">
<title>/home/travis/build/AliceO2Group/AliceO2/DataFormats/Reconstruction/include</title>
<g id="clust1" class="cluster"><title>clusterdir_d269712cc31e133b892a3b3f6424741a</title>
<g id="a_clust1"><a xlink:href="dir_d269712cc31e133b892a3b3f6424741a.html" target="_top" xlink:title="Reconstruction">
<polygon fill="#ddddee" stroke="black" points="8,-56 8,-143 252,-143 252,-56 8,-56"/>
<text text-anchor="middle" x="130" y="-131" font-family="Helvetica,sans-Serif" font-size="10.00">Reconstruction</text>
</a>
</g>
</g>
<g id="clust2" class="cluster"><title>clusterdir_99c43ad88135ecdb15d6d5c818628268</title>
<g id="a_clust2"><a xlink:href="dir_99c43ad88135ecdb15d6d5c818628268.html" target="_top">
<polygon fill="#eeeeff" stroke="black" points="16,-64 16,-116 244,-116 244,-64 16,-64"/>
</a>
</g>
</g>
<!-- dir_99c43ad88135ecdb15d6d5c818628268 -->
<g id="node1" class="node"><title>dir_99c43ad88135ecdb15d6d5c818628268</title>
<text text-anchor="middle" x="209" y="-87.5" font-family="Helvetica,sans-Serif" font-size="10.00">include</text>
</g>
<!-- dir_7a3b9cdde049e7a84ed69a884a751cf5 -->
<g id="node2" class="node"><title>dir_7a3b9cdde049e7a84ed69a884a751cf5</title>
<g id="a_node2"><a xlink:href="dir_7a3b9cdde049e7a84ed69a884a751cf5.html" target="_top" xlink:title="ReconstructionDataFormats">
<polygon fill="white" stroke="black" points="164,-108 24,-108 24,-72 164,-72 164,-108"/>
<text text-anchor="middle" x="94" y="-87.5" font-family="Helvetica,sans-Serif" font-size="10.00">ReconstructionDataFormats</text>
</a>
</g>
</g>
<!-- dir_4ab6b4cc6a7edbff49100e9123df213f -->
<g id="node3" class="node"><title>dir_4ab6b4cc6a7edbff49100e9123df213f</title>
<g id="a_node3"><a xlink:href="dir_4ab6b4cc6a7edbff49100e9123df213f.html" target="_top" xlink:title="Common">
<polygon fill="none" stroke="red" points="219.5,-36 164.5,-36 164.5,-0 219.5,-0 219.5,-36"/>
<text text-anchor="middle" x="192" y="-15.5" font-family="Helvetica,sans-Serif" font-size="10.00">Common</text>
</a>
</g>
</g>
<!-- dir_7a3b9cdde049e7a84ed69a884a751cf5&#45;&gt;dir_4ab6b4cc6a7edbff49100e9123df213f -->
<g id="edge3" class="edge"><title>dir_7a3b9cdde049e7a84ed69a884a751cf5&#45;&gt;dir_4ab6b4cc6a7edbff49100e9123df213f</title>
<path fill="none" stroke="black" d="M112.309,-71.6966C124.598,-62.2203 141.035,-50.3952 155.84,-40.3493"/>
<polygon fill="black" stroke="black" points="157.96,-43.1417 164.324,-34.6712 154.067,-37.3243 157.96,-43.1417"/>
<g id="a_edge3&#45;headlabel"><a xlink:href="dir_000075_000016.html" target="_top" xlink:title="4">
<text text-anchor="middle" x="156.552" y="-45.0005" font-family="Helvetica,sans-Serif" font-size="10.00">4</text>
</a>
</g>
</g>
<!-- dir_2801adc79bf3c286b1b479858d2cade4 -->
<g id="node4" class="node"><title>dir_2801adc79bf3c286b1b479858d2cade4</title>
<g id="a_node4"><a xlink:href="dir_2801adc79bf3c286b1b479858d2cade4.html" target="_top" xlink:title="Detectors">
<polygon fill="none" stroke="red" points="319.25,-108 260.75,-108 260.75,-72 319.25,-72 319.25,-108"/>
<text text-anchor="middle" x="290" y="-87.5" font-family="Helvetica,sans-Serif" font-size="10.00">Detectors</text>
</a>
</g>
</g>
<!-- dir_7a3b9cdde049e7a84ed69a884a751cf5&#45;&gt;dir_2801adc79bf3c286b1b479858d2cade4 -->
<g id="edge4" class="edge"><title>dir_7a3b9cdde049e7a84ed69a884a751cf5&#45;&gt;dir_2801adc79bf3c286b1b479858d2cade4</title>
<path fill="none" stroke="black" d="M109.349,-108.053C125.413,-125.422 152.384,-150.542 182,-161 205.888,-169.435 216.459,-172.562 239,-161 256.781,-151.88 269.763,-133.358 278.179,-117.519"/>
<polygon fill="black" stroke="black" points="281.535,-118.627 282.83,-108.112 275.26,-115.525 281.535,-118.627"/>
<g id="a_edge4&#45;headlabel"><a xlink:href="dir_000075_000053.html" target="_top" xlink:title="1">
<text text-anchor="middle" x="282.487" y="-120.608" font-family="Helvetica,sans-Serif" font-size="10.00">1</text>
</a>
</g>
</g>
<!-- dir_4ab6b4cc6a7edbff49100e9123df213f&#45;&gt;dir_7a3b9cdde049e7a84ed69a884a751cf5 -->
<g id="edge1" class="edge"><title>dir_4ab6b4cc6a7edbff49100e9123df213f&#45;&gt;dir_7a3b9cdde049e7a84ed69a884a751cf5</title>
<path fill="none" stroke="black" d="M173.838,-36.1898C162.184,-45.1832 146.758,-56.3156 132.53,-66.0371"/>
<polygon fill="black" stroke="black" points="130.205,-63.3834 123.871,-71.8761 134.119,-69.1872 130.205,-63.3834"/>
<g id="a_edge1&#45;headlabel"><a xlink:href="dir_000016_000075.html" target="_top" xlink:title="1">
<text text-anchor="middle" x="131.598" y="-56.5197" font-family="Helvetica,sans-Serif" font-size="10.00">1</text>
</a>
</g>
</g>
<!-- dir_2801adc79bf3c286b1b479858d2cade4&#45;&gt;dir_4ab6b4cc6a7edbff49100e9123df213f -->
<g id="edge2" class="edge"><title>dir_2801adc79bf3c286b1b479858d2cade4&#45;&gt;dir_4ab6b4cc6a7edbff49100e9123df213f</title>
<path fill="none" stroke="black" d="M268.893,-71.8676C262.289,-66.6568 254.919,-60.9911 248,-56 241.422,-51.2546 234.28,-46.3542 227.369,-41.734"/>
<polygon fill="black" stroke="black" points="229.068,-38.6616 218.796,-36.0643 225.206,-44.5001 229.068,-38.6616"/>
<g id="a_edge2&#45;headlabel"><a xlink:href="dir_000053_000016.html" target="_top" xlink:title="3">
<text text-anchor="middle" x="233.632" y="-35.7763" font-family="Helvetica,sans-Serif" font-size="10.00">3</text>
</a>
</g>
</g>
</g>
</svg>
