<?xml version="1.0" encoding="UTF-8" standalone="no"?>
<!DOCTYPE svg PUBLIC "-//W3C//DTD SVG 1.1//EN"
 "http://www.w3.org/Graphics/SVG/1.1/DTD/svg11.dtd">
<!-- Generated by graphviz version 2.36.0 (20140111.2315)
 -->
<!-- Title: /home/travis/build/AliceO2Group/AliceO2/Detectors/TPC/base/include Pages: 1 -->
<svg width="253pt" height="178pt"
 viewBox="0.00 0.00 253.00 177.88" xmlns="http://www.w3.org/2000/svg" xmlns:xlink="http://www.w3.org/1999/xlink">
<g id="graph0" class="graph" transform="scale(1 1) rotate(0) translate(4 173.877)">
<title>/home/travis/build/AliceO2Group/AliceO2/Detectors/TPC/base/include</title>
<g id="clust1" class="cluster"><title>clusterdir_677b030cc750909e4cd27413873678d8</title>
<g id="a_clust1"><a xlink:href="dir_677b030cc750909e4cd27413873678d8.html" target="_top" xlink:title="base">
<polygon fill="#ddddee" stroke="black" points="8,-56 8,-143 172,-143 172,-56 8,-56"/>
<text text-anchor="middle" x="90" y="-131" font-family="Helvetica,sans-Serif" font-size="10.00">base</text>
</a>
</g>
</g>
<g id="clust2" class="cluster"><title>clusterdir_8878d5c3559bc3ebfb711a18a96e91b8</title>
<g id="a_clust2"><a xlink:href="dir_8878d5c3559bc3ebfb711a18a96e91b8.html" target="_top">
<polygon fill="#eeeeff" stroke="black" points="16,-64 16,-116 164,-116 164,-64 16,-64"/>
</a>
</g>
</g>
<!-- dir_8878d5c3559bc3ebfb711a18a96e91b8 -->
<g id="node1" class="node"><title>dir_8878d5c3559bc3ebfb711a18a96e91b8</title>
<text text-anchor="middle" x="129" y="-87.5" font-family="Helvetica,sans-Serif" font-size="10.00">include</text>
</g>
<!-- dir_239a27e254c844c85fd0f03c74d81139 -->
<g id="node2" class="node"><title>dir_239a27e254c844c85fd0f03c74d81139</title>
<g id="a_node2"><a xlink:href="dir_239a27e254c844c85fd0f03c74d81139.html" target="_top" xlink:title="TPCBase">
<polygon fill="white" stroke="black" points="83.25,-108 24.75,-108 24.75,-72 83.25,-72 83.25,-108"/>
<text text-anchor="middle" x="54" y="-87.5" font-family="Helvetica,sans-Serif" font-size="10.00">TPCBase</text>
</a>
</g>
</g>
<!-- dir_4ab6b4cc6a7edbff49100e9123df213f -->
<g id="node3" class="node"><title>dir_4ab6b4cc6a7edbff49100e9123df213f</title>
<g id="a_node3"><a xlink:href="dir_4ab6b4cc6a7edbff49100e9123df213f.html" target="_top" xlink:title="Common">
<polygon fill="none" stroke="red" points="235.5,-108 180.5,-108 180.5,-72 235.5,-72 235.5,-108"/>
<text text-anchor="middle" x="208" y="-87.5" font-family="Helvetica,sans-Serif" font-size="10.00">Common</text>
</a>
</g>
</g>
<!-- dir_239a27e254c844c85fd0f03c74d81139&#45;&gt;dir_4ab6b4cc6a7edbff49100e9123df213f -->
<g id="edge2" class="edge"><title>dir_239a27e254c844c85fd0f03c74d81139&#45;&gt;dir_4ab6b4cc6a7edbff49100e9123df213f</title>
<path fill="none" stroke="black" d="M60.4523,-108.077C67.6497,-125.203 81.1057,-149.905 102,-161 124.374,-172.881 136.569,-172.774 159,-161 176.461,-151.835 188.923,-133.315 196.909,-117.488"/>
<polygon fill="black" stroke="black" points="200.239,-118.63 201.308,-108.089 193.899,-115.662 200.239,-118.63"/>
<g id="a_edge2&#45;headlabel"><a xlink:href="dir_000150_000016.html" target="_top" xlink:title="2">
<text text-anchor="middle" x="201.287" y="-120.589" font-family="Helvetica,sans-Serif" font-size="10.00">2</text>
</a>
</g>
</g>
<!-- dir_2171f7ec022c5423887b07c69b2f5b48 -->
<g id="node4" class="node"><title>dir_2171f7ec022c5423887b07c69b2f5b48</title>
<g id="a_node4"><a xlink:href="dir_2171f7ec022c5423887b07c69b2f5b48.html" target="_top" xlink:title="DataFormats">
<polygon fill="none" stroke="red" points="245,-36 171,-36 171,-0 245,-0 245,-36"/>
<text text-anchor="middle" x="208" y="-15.5" font-family="Helvetica,sans-Serif" font-size="10.00">DataFormats</text>
</a>
</g>
</g>
<!-- dir_239a27e254c844c85fd0f03c74d81139&#45;&gt;dir_2171f7ec022c5423887b07c69b2f5b48 -->
<g id="edge3" class="edge"><title>dir_239a27e254c844c85fd0f03c74d81139&#45;&gt;dir_2171f7ec022c5423887b07c69b2f5b48</title>
<path fill="none" stroke="black" d="M62.6939,-71.9679C68.598,-66.2819 76.2453,-60.3048 84,-56 107.666,-42.8622 136.699,-33.567 160.826,-27.5792"/>
<polygon fill="black" stroke="black" points="161.908,-30.9199 170.835,-25.2139 160.298,-24.1075 161.908,-30.9199"/>
<g id="a_edge3&#45;headlabel"><a xlink:href="dir_000150_000043.html" target="_top" xlink:title="1">
<text text-anchor="middle" x="159.063" y="-32.0096" font-family="Helvetica,sans-Serif" font-size="10.00">1</text>
</a>
</g>
</g>
<!-- dir_4ab6b4cc6a7edbff49100e9123df213f&#45;&gt;dir_2171f7ec022c5423887b07c69b2f5b48 -->
<g id="edge1" class="edge"><title>dir_4ab6b4cc6a7edbff49100e9123df213f&#45;&gt;dir_2171f7ec022c5423887b07c69b2f5b48</title>
<path fill="none" stroke="black" d="M202.084,-71.6966C201.289,-63.9827 201.062,-54.7125 201.405,-46.1124"/>
<polygon fill="black" stroke="black" points="204.898,-46.3243 202.105,-36.1043 197.915,-45.8356 204.898,-46.3243"/>
<g id="a_edge1&#45;headlabel"><a xlink:href="dir_000016_000043.html" target="_top" xlink:title="1">
<text text-anchor="middle" x="207.48" y="-47.6083" font-family="Helvetica,sans-Serif" font-size="10.00">1</text>
</a>
</g>
</g>
<!-- dir_2171f7ec022c5423887b07c69b2f5b48&#45;&gt;dir_239a27e254c844c85fd0f03c74d81139 -->
<g id="edge5" class="edge"><title>dir_2171f7ec022c5423887b07c69b2f5b48&#45;&gt;dir_239a27e254c844c85fd0f03c74d81139</title>
<path fill="none" stroke="black" d="M170.757,-29.1922C149.762,-35.1887 123.638,-43.9883 102,-56 97.1533,-58.6905 92.3486,-62.0343 87.7232,-65.5519"/>
<polygon fill="black" stroke="black" points="85.2878,-63.0159 79.6211,-71.9679 89.6335,-68.5037 85.2878,-63.0159"/>
<g id="a_edge5&#45;headlabel"><a xlink:href="dir_000043_000150.html" target="_top" xlink:title="2">
<text text-anchor="middle" x="86.3432" y="-56.0585" font-family="Helvetica,sans-Serif" font-size="10.00">2</text>
</a>
</g>
</g>
<!-- dir_2171f7ec022c5423887b07c69b2f5b48&#45;&gt;dir_4ab6b4cc6a7edbff49100e9123df213f -->
<g id="edge4" class="edge"><title>dir_2171f7ec022c5423887b07c69b2f5b48&#45;&gt;dir_4ab6b4cc6a7edbff49100e9123df213f</title>
<path fill="none" stroke="black" d="M213.895,-36.1043C214.701,-43.7913 214.937,-53.0537 214.604,-61.6651"/>
<polygon fill="black" stroke="black" points="211.109,-61.4805 213.916,-71.6966 218.092,-61.9597 211.109,-61.4805"/>
<g id="a_edge4&#45;headlabel"><a xlink:href="dir_000043_000016.html" target="_top" xlink:title="11">
<text text-anchor="middle" x="208.522" y="-55.2" font-family="Helvetica,sans-Serif" font-size="10.00">11</text>
</a>
</g>
</g>
</g>
</svg>
