<?xml version="1.0" encoding="UTF-8" standalone="no"?>
<!DOCTYPE svg PUBLIC "-//W3C//DTD SVG 1.1//EN"
 "http://www.w3.org/Graphics/SVG/1.1/DTD/svg11.dtd">
<!-- Generated by graphviz version 2.36.0 (20140111.2315)
 -->
<!-- Title: /home/travis/build/AliceO2Group/AliceO2/Framework Pages: 1 -->
<svg width="356pt" height="348pt"
 viewBox="0.00 0.00 356.00 348.00" xmlns="http://www.w3.org/2000/svg" xmlns:xlink="http://www.w3.org/1999/xlink">
<g id="graph0" class="graph" transform="scale(1 1) rotate(0) translate(4 344)">
<title>/home/travis/build/AliceO2Group/AliceO2/Framework</title>
<g id="clust1" class="cluster"><title>clusterdir_bcbb2cf9a3d3d83e5515c82071a07177</title>
<g id="a_clust1"><a xlink:href="dir_bcbb2cf9a3d3d83e5515c82071a07177.html" target="_top">
<polygon fill="#eeeeff" stroke="black" points="8,-136 8,-332 191,-332 191,-136 8,-136"/>
</a>
</g>
</g>
<!-- dir_bcbb2cf9a3d3d83e5515c82071a07177 -->
<g id="node1" class="node"><title>dir_bcbb2cf9a3d3d83e5515c82071a07177</title>
<text text-anchor="middle" x="150" y="-303.5" font-family="Helvetica,sans-Serif" font-size="10.00">Framework</text>
</g>
<!-- dir_9f165b2481dacfe69aa54d326bd5cd47 -->
<g id="node2" class="node"><title>dir_9f165b2481dacfe69aa54d326bd5cd47</title>
<g id="a_node2"><a xlink:href="dir_9f165b2481dacfe69aa54d326bd5cd47.html" target="_top" xlink:title="Core">
<polygon fill="white" stroke="red" points="98,-252 44,-252 44,-216 98,-216 98,-252"/>
<text text-anchor="middle" x="71" y="-231.5" font-family="Helvetica,sans-Serif" font-size="10.00">Core</text>
</a>
</g>
</g>
<!-- dir_f0af9df59806ed8bcb6931e6b1774828 -->
<g id="node3" class="node"><title>dir_f0af9df59806ed8bcb6931e6b1774828</title>
<g id="a_node3"><a xlink:href="dir_f0af9df59806ed8bcb6931e6b1774828.html" target="_top" xlink:title="DebugGUI">
<polygon fill="white" stroke="red" points="102.25,-180 39.75,-180 39.75,-144 102.25,-144 102.25,-180"/>
<text text-anchor="middle" x="71" y="-159.5" font-family="Helvetica,sans-Serif" font-size="10.00">DebugGUI</text>
</a>
</g>
</g>
<!-- dir_9f165b2481dacfe69aa54d326bd5cd47&#45;&gt;dir_f0af9df59806ed8bcb6931e6b1774828 -->
<g id="edge7" class="edge"><title>dir_9f165b2481dacfe69aa54d326bd5cd47&#45;&gt;dir_f0af9df59806ed8bcb6931e6b1774828</title>
<path fill="none" stroke="black" d="M71,-215.697C71,-207.983 71,-198.712 71,-190.112"/>
<polygon fill="black" stroke="black" points="74.5001,-190.104 71,-180.104 67.5001,-190.104 74.5001,-190.104"/>
<g id="a_edge7&#45;headlabel"><a xlink:href="dir_000267_000272.html" target="_top" xlink:title="3">
<text text-anchor="middle" x="77.3393" y="-191.199" font-family="Helvetica,sans-Serif" font-size="10.00">3</text>
</a>
</g>
</g>
<!-- dir_2171f7ec022c5423887b07c69b2f5b48 -->
<g id="node8" class="node"><title>dir_2171f7ec022c5423887b07c69b2f5b48</title>
<g id="a_node8"><a xlink:href="dir_2171f7ec022c5423887b07c69b2f5b48.html" target="_top" xlink:title="DataFormats">
<polygon fill="none" stroke="red" points="273,-180 199,-180 199,-144 273,-144 273,-180"/>
<text text-anchor="middle" x="236" y="-159.5" font-family="Helvetica,sans-Serif" font-size="10.00">DataFormats</text>
</a>
</g>
</g>
<!-- dir_9f165b2481dacfe69aa54d326bd5cd47&#45;&gt;dir_2171f7ec022c5423887b07c69b2f5b48 -->
<g id="edge8" class="edge"><title>dir_9f165b2481dacfe69aa54d326bd5cd47&#45;&gt;dir_2171f7ec022c5423887b07c69b2f5b48</title>
<path fill="none" stroke="black" d="M98.2464,-221.441C123.025,-210.929 160.109,-195.196 189.561,-182.702"/>
<polygon fill="black" stroke="black" points="190.99,-185.897 198.829,-178.769 188.257,-179.453 190.99,-185.897"/>
<g id="a_edge8&#45;headlabel"><a xlink:href="dir_000267_000043.html" target="_top" xlink:title="12">
<text text-anchor="middle" x="188.79" y="-187.415" font-family="Helvetica,sans-Serif" font-size="10.00">12</text>
</a>
</g>
</g>
<!-- dir_a8f73827fca2a0188d35dc47dc5b0ea3 -->
<g id="node4" class="node"><title>dir_a8f73827fca2a0188d35dc47dc5b0ea3</title>
<g id="a_node4"><a xlink:href="dir_a8f73827fca2a0188d35dc47dc5b0ea3.html" target="_top" xlink:title="TestWorkflows">
<polygon fill="white" stroke="red" points="99.25,-324 16.75,-324 16.75,-288 99.25,-288 99.25,-324"/>
<text text-anchor="middle" x="58" y="-303.5" font-family="Helvetica,sans-Serif" font-size="10.00">TestWorkflows</text>
</a>
</g>
</g>
<!-- dir_a8f73827fca2a0188d35dc47dc5b0ea3&#45;&gt;dir_9f165b2481dacfe69aa54d326bd5cd47 -->
<g id="edge3" class="edge"><title>dir_a8f73827fca2a0188d35dc47dc5b0ea3&#45;&gt;dir_9f165b2481dacfe69aa54d326bd5cd47</title>
<path fill="none" stroke="black" d="M61.2135,-287.697C62.6461,-279.983 64.3677,-270.712 65.9648,-262.112"/>
<polygon fill="black" stroke="black" points="69.4386,-262.575 67.8235,-252.104 62.5563,-261.297 69.4386,-262.575"/>
<g id="a_edge3&#45;headlabel"><a xlink:href="dir_000278_000267.html" target="_top" xlink:title="41">
<text text-anchor="middle" x="71.5739" y="-264.128" font-family="Helvetica,sans-Serif" font-size="10.00">41</text>
</a>
</g>
</g>
<!-- dir_0b342c6c6b7d2278121a0bb9c4985063 -->
<g id="node5" class="node"><title>dir_0b342c6c6b7d2278121a0bb9c4985063</title>
<g id="a_node5"><a xlink:href="dir_0b342c6c6b7d2278121a0bb9c4985063.html" target="_top" xlink:title="Generators">
<polygon fill="none" stroke="red" points="348.25,-36 283.75,-36 283.75,-0 348.25,-0 348.25,-36"/>
<text text-anchor="middle" x="316" y="-15.5" font-family="Helvetica,sans-Serif" font-size="10.00">Generators</text>
</a>
</g>
</g>
<!-- dir_a8f73827fca2a0188d35dc47dc5b0ea3&#45;&gt;dir_0b342c6c6b7d2278121a0bb9c4985063 -->
<g id="edge1" class="edge"><title>dir_a8f73827fca2a0188d35dc47dc5b0ea3&#45;&gt;dir_0b342c6c6b7d2278121a0bb9c4985063</title>
<path fill="none" stroke="black" d="M99.4021,-290.684C102.305,-289.754 105.192,-288.851 108,-288 167.429,-269.995 191.235,-286.299 243,-252 303.326,-212.028 309.226,-179.704 319,-108 321.801,-87.4493 320.843,-63.9959 319.296,-46.326"/>
<polygon fill="black" stroke="black" points="322.756,-45.754 318.285,-36.149 315.79,-46.446 322.756,-45.754"/>
<g id="a_edge1&#45;headlabel"><a xlink:href="dir_000278_000281.html" target="_top" xlink:title="1">
<text text-anchor="middle" x="325.937" y="-46.5504" font-family="Helvetica,sans-Serif" font-size="10.00">1</text>
</a>
</g>
</g>
<!-- dir_4ab6b4cc6a7edbff49100e9123df213f -->
<g id="node6" class="node"><title>dir_4ab6b4cc6a7edbff49100e9123df213f</title>
<g id="a_node6"><a xlink:href="dir_4ab6b4cc6a7edbff49100e9123df213f.html" target="_top" xlink:title="Common">
<polygon fill="none" stroke="red" points="241.5,-36 186.5,-36 186.5,-0 241.5,-0 241.5,-36"/>
<text text-anchor="middle" x="214" y="-15.5" font-family="Helvetica,sans-Serif" font-size="10.00">Common</text>
</a>
</g>
</g>
<!-- dir_a8f73827fca2a0188d35dc47dc5b0ea3&#45;&gt;dir_4ab6b4cc6a7edbff49100e9123df213f -->
<g id="edge2" class="edge"><title>dir_a8f73827fca2a0188d35dc47dc5b0ea3&#45;&gt;dir_4ab6b4cc6a7edbff49100e9123df213f</title>
<path fill="none" stroke="black" d="M76.7696,-287.568C86.6103,-277.765 98.3761,-264.926 107,-252 153.182,-182.78 188.973,-90.4093 204.923,-45.609"/>
<polygon fill="black" stroke="black" points="208.273,-46.6341 208.285,-36.0393 201.668,-44.3141 208.273,-46.6341"/>
<g id="a_edge2&#45;headlabel"><a xlink:href="dir_000278_000016.html" target="_top" xlink:title="2">
<text text-anchor="middle" x="209.76" y="-48.4665" font-family="Helvetica,sans-Serif" font-size="10.00">2</text>
</a>
</g>
</g>
<!-- dir_051dca18e802f8e9474f2e30d29c04e0 -->
<g id="node7" class="node"><title>dir_051dca18e802f8e9474f2e30d29c04e0</title>
<g id="a_node7"><a xlink:href="dir_051dca18e802f8e9474f2e30d29c04e0.html" target="_top" xlink:title="Detectors">
<polygon fill="none" stroke="red" points="310.25,-108 251.75,-108 251.75,-72 310.25,-72 310.25,-108"/>
<text text-anchor="middle" x="281" y="-87.5" font-family="Helvetica,sans-Serif" font-size="10.00">Detectors</text>
</a>
</g>
</g>
<!-- dir_a8f73827fca2a0188d35dc47dc5b0ea3&#45;&gt;dir_051dca18e802f8e9474f2e30d29c04e0 -->
<g id="edge4" class="edge"><title>dir_a8f73827fca2a0188d35dc47dc5b0ea3&#45;&gt;dir_051dca18e802f8e9474f2e30d29c04e0</title>
<path fill="none" stroke="black" d="M99.4812,-290.38C138.088,-276.633 190.994,-257.385 200,-252 241.626,-227.111 261.997,-224.182 282,-180 290.737,-160.701 289.83,-136.549 287.102,-118.275"/>
<polygon fill="black" stroke="black" points="290.523,-117.52 285.344,-108.277 283.628,-118.732 290.523,-117.52"/>
<g id="a_edge4&#45;headlabel"><a xlink:href="dir_000278_000076.html" target="_top" xlink:title="4">
<text text-anchor="middle" x="293.941" y="-118.069" font-family="Helvetica,sans-Serif" font-size="10.00">4</text>
</a>
</g>
</g>
<!-- dir_a8f73827fca2a0188d35dc47dc5b0ea3&#45;&gt;dir_2171f7ec022c5423887b07c69b2f5b48 -->
<g id="edge5" class="edge"><title>dir_a8f73827fca2a0188d35dc47dc5b0ea3&#45;&gt;dir_2171f7ec022c5423887b07c69b2f5b48</title>
<path fill="none" stroke="black" d="M99.4842,-290.736C121.603,-281.826 148.419,-268.831 169,-252 190.713,-234.243 209.328,-208.041 221.386,-188.662"/>
<polygon fill="black" stroke="black" points="224.428,-190.396 226.608,-180.028 218.438,-186.773 224.428,-190.396"/>
<g id="a_edge5&#45;headlabel"><a xlink:href="dir_000278_000043.html" target="_top" xlink:title="2">
<text text-anchor="middle" x="224.997" y="-192.441" font-family="Helvetica,sans-Serif" font-size="10.00">2</text>
</a>
</g>
</g>
<!-- dir_4ab6b4cc6a7edbff49100e9123df213f&#45;&gt;dir_2171f7ec022c5423887b07c69b2f5b48 -->
<g id="edge6" class="edge"><title>dir_4ab6b4cc6a7edbff49100e9123df213f&#45;&gt;dir_2171f7ec022c5423887b07c69b2f5b48</title>
<path fill="none" stroke="black" d="M221.254,-36.1893C227.563,-60.4244 234.74,-104.888 237.221,-133.679"/>
<polygon fill="black" stroke="black" points="233.745,-134.139 237.931,-143.871 240.728,-133.653 233.745,-134.139"/>
<g id="a_edge6&#45;headlabel"><a xlink:href="dir_000016_000043.html" target="_top" xlink:title="1">
<text text-anchor="middle" x="230.663" y="-128.25" font-family="Helvetica,sans-Serif" font-size="10.00">1</text>
</a>
</g>
</g>
<!-- dir_051dca18e802f8e9474f2e30d29c04e0&#45;&gt;dir_0b342c6c6b7d2278121a0bb9c4985063 -->
<g id="edge9" class="edge"><title>dir_051dca18e802f8e9474f2e30d29c04e0&#45;&gt;dir_0b342c6c6b7d2278121a0bb9c4985063</title>
<path fill="none" stroke="black" d="M289.652,-71.6966C293.636,-63.7284 298.45,-54.0995 302.868,-45.2641"/>
<polygon fill="black" stroke="black" points="306.106,-46.6139 307.448,-36.1043 299.845,-43.4833 306.106,-46.6139"/>
<g id="a_edge9&#45;headlabel"><a xlink:href="dir_000076_000281.html" target="_top" xlink:title="1">
<text text-anchor="middle" x="307.038" y="-48.5987" font-family="Helvetica,sans-Serif" font-size="10.00">1</text>
</a>
</g>
</g>
<!-- dir_051dca18e802f8e9474f2e30d29c04e0&#45;&gt;dir_4ab6b4cc6a7edbff49100e9123df213f -->
<g id="edge10" class="edge"><title>dir_051dca18e802f8e9474f2e30d29c04e0&#45;&gt;dir_4ab6b4cc6a7edbff49100e9123df213f</title>
<path fill="none" stroke="black" d="M264.438,-71.6966C256.325,-63.2198 246.412,-52.8636 237.529,-43.5826"/>
<polygon fill="black" stroke="black" points="239.814,-40.9084 230.371,-36.1043 234.757,-45.7486 239.814,-40.9084"/>
<g id="a_edge10&#45;headlabel"><a xlink:href="dir_000076_000016.html" target="_top" xlink:title="56">
<text text-anchor="middle" x="244.351" y="-39.042" font-family="Helvetica,sans-Serif" font-size="10.00">56</text>
</a>
</g>
</g>
<!-- dir_051dca18e802f8e9474f2e30d29c04e0&#45;&gt;dir_2171f7ec022c5423887b07c69b2f5b48 -->
<g id="edge11" class="edge"><title>dir_051dca18e802f8e9474f2e30d29c04e0&#45;&gt;dir_2171f7ec022c5423887b07c69b2f5b48</title>
<path fill="none" stroke="black" d="M275.899,-108.104C271.491,-116.298 265.284,-126.282 259.014,-135.359"/>
<polygon fill="black" stroke="black" points="256.019,-133.53 253.039,-143.697 261.709,-137.607 256.019,-133.53"/>
<g id="a_edge11&#45;headlabel"><a xlink:href="dir_000076_000043.html" target="_top" xlink:title="115">
<text text-anchor="middle" x="255.805" y="-126.454" font-family="Helvetica,sans-Serif" font-size="10.00">115</text>
</a>
</g>
</g>
<!-- dir_2171f7ec022c5423887b07c69b2f5b48&#45;&gt;dir_4ab6b4cc6a7edbff49100e9123df213f -->
<g id="edge12" class="edge"><title>dir_2171f7ec022c5423887b07c69b2f5b48&#45;&gt;dir_4ab6b4cc6a7edbff49100e9123df213f</title>
<path fill="none" stroke="black" d="M228.762,-143.871C222.454,-119.67 215.274,-75.2108 212.785,-46.3932"/>
<polygon fill="black" stroke="black" points="216.261,-45.921 212.072,-36.1893 209.278,-46.4089 216.261,-45.921"/>
<g id="a_edge12&#45;headlabel"><a xlink:href="dir_000043_000016.html" target="_top" xlink:title="11">
<text text-anchor="middle" x="219.343" y="-46.8091" font-family="Helvetica,sans-Serif" font-size="10.00">11</text>
</a>
</g>
</g>
<!-- dir_2171f7ec022c5423887b07c69b2f5b48&#45;&gt;dir_051dca18e802f8e9474f2e30d29c04e0 -->
<g id="edge13" class="edge"><title>dir_2171f7ec022c5423887b07c69b2f5b48&#45;&gt;dir_051dca18e802f8e9474f2e30d29c04e0</title>
<path fill="none" stroke="black" d="M241.208,-143.697C245.646,-135.474 251.867,-125.483 258.138,-116.421"/>
<polygon fill="black" stroke="black" points="261.12,-118.269 264.109,-108.104 255.434,-114.186 261.12,-118.269"/>
<g id="a_edge13&#45;headlabel"><a xlink:href="dir_000043_000076.html" target="_top" xlink:title="3">
<text text-anchor="middle" x="261.33" y="-120.345" font-family="Helvetica,sans-Serif" font-size="10.00">3</text>
</a>
</g>
</g>
</g>
</svg>
