<?xml version="1.0" encoding="UTF-8" standalone="no"?>
<!DOCTYPE svg PUBLIC "-//W3C//DTD SVG 1.1//EN"
 "http://www.w3.org/Graphics/SVG/1.1/DTD/svg11.dtd">
<!-- Generated by graphviz version 2.36.0 (20140111.2315)
 -->
<!-- Title: /home/travis/build/AliceO2Group/AliceO2/Detectors/TPC/simulation/include Pages: 1 -->
<svg width="228pt" height="303pt"
 viewBox="0.00 0.00 228.00 303.00" xmlns="http://www.w3.org/2000/svg" xmlns:xlink="http://www.w3.org/1999/xlink">
<g id="graph0" class="graph" transform="scale(1 1) rotate(0) translate(4 299)">
<title>/home/travis/build/AliceO2Group/AliceO2/Detectors/TPC/simulation/include</title>
<g id="clust1" class="cluster"><title>clusterdir_7f309bec8670bb3fb666e7e061b24659</title>
<g id="a_clust1"><a xlink:href="dir_7f309bec8670bb3fb666e7e061b24659.html" target="_top" xlink:title="simulation">
<polygon fill="#ddddee" stroke="black" points="24,-200 24,-287 212,-287 212,-200 24,-200"/>
<text text-anchor="middle" x="118" y="-275" font-family="Helvetica,sans-Serif" font-size="10.00">simulation</text>
</a>
</g>
</g>
<g id="clust2" class="cluster"><title>clusterdir_a3959ed40b1558172144f5e1a56e443f</title>
<g id="a_clust2"><a xlink:href="dir_a3959ed40b1558172144f5e1a56e443f.html" target="_top">
<polygon fill="#eeeeff" stroke="black" points="32,-208 32,-260 204,-260 204,-208 32,-208"/>
</a>
</g>
</g>
<!-- dir_a3959ed40b1558172144f5e1a56e443f -->
<g id="node1" class="node"><title>dir_a3959ed40b1558172144f5e1a56e443f</title>
<text text-anchor="middle" x="169" y="-231.5" font-family="Helvetica,sans-Serif" font-size="10.00">include</text>
</g>
<!-- dir_899d345f9fdaa752cfd282604b003f27 -->
<g id="node2" class="node"><title>dir_899d345f9fdaa752cfd282604b003f27</title>
<g id="a_node2"><a xlink:href="dir_899d345f9fdaa752cfd282604b003f27.html" target="_top" xlink:title="TPCSimulation">
<polygon fill="white" stroke="black" points="123.25,-252 40.75,-252 40.75,-216 123.25,-216 123.25,-252"/>
<text text-anchor="middle" x="82" y="-231.5" font-family="Helvetica,sans-Serif" font-size="10.00">TPCSimulation</text>
</a>
</g>
</g>
<!-- dir_677b030cc750909e4cd27413873678d8 -->
<g id="node3" class="node"><title>dir_677b030cc750909e4cd27413873678d8</title>
<g id="a_node3"><a xlink:href="dir_677b030cc750909e4cd27413873678d8.html" target="_top" xlink:title="base">
<polygon fill="none" stroke="red" points="54,-180 0,-180 0,-144 54,-144 54,-180"/>
<text text-anchor="middle" x="27" y="-159.5" font-family="Helvetica,sans-Serif" font-size="10.00">base</text>
</a>
</g>
</g>
<!-- dir_899d345f9fdaa752cfd282604b003f27&#45;&gt;dir_677b030cc750909e4cd27413873678d8 -->
<g id="edge3" class="edge"><title>dir_899d345f9fdaa752cfd282604b003f27&#45;&gt;dir_677b030cc750909e4cd27413873678d8</title>
<path fill="none" stroke="black" d="M68.4045,-215.697C61.8773,-207.389 53.932,-197.277 46.7534,-188.141"/>
<polygon fill="black" stroke="black" points="49.3695,-185.805 40.4391,-180.104 43.8653,-190.13 49.3695,-185.805"/>
<g id="a_edge3&#45;headlabel"><a xlink:href="dir_000128_000148.html" target="_top" xlink:title="19">
<text text-anchor="middle" x="53.8229" y="-184.377" font-family="Helvetica,sans-Serif" font-size="10.00">19</text>
</a>
</g>
</g>
<!-- dir_37c90836491b695b472bf98d1be8336b -->
<g id="node4" class="node"><title>dir_37c90836491b695b472bf98d1be8336b</title>
<g id="a_node4"><a xlink:href="dir_37c90836491b695b472bf98d1be8336b.html" target="_top" xlink:title="Base">
<polygon fill="none" stroke="red" points="68,-36 14,-36 14,-0 68,-0 68,-36"/>
<text text-anchor="middle" x="41" y="-15.5" font-family="Helvetica,sans-Serif" font-size="10.00">Base</text>
</a>
</g>
</g>
<!-- dir_899d345f9fdaa752cfd282604b003f27&#45;&gt;dir_37c90836491b695b472bf98d1be8336b -->
<g id="edge4" class="edge"><title>dir_899d345f9fdaa752cfd282604b003f27&#45;&gt;dir_37c90836491b695b472bf98d1be8336b</title>
<path fill="none" stroke="black" d="M86.6478,-215.863C93.9533,-185.672 105.49,-121.514 87,-72 83.1239,-61.6206 76.1971,-51.9274 68.876,-43.7427"/>
<polygon fill="black" stroke="black" points="71.2694,-41.1816 61.8228,-36.3845 66.216,-46.0256 71.2694,-41.1816"/>
<g id="a_edge4&#45;headlabel"><a xlink:href="dir_000128_000099.html" target="_top" xlink:title="1">
<text text-anchor="middle" x="75.8065" y="-39.3118" font-family="Helvetica,sans-Serif" font-size="10.00">1</text>
</a>
</g>
</g>
<!-- dir_2171f7ec022c5423887b07c69b2f5b48 -->
<g id="node5" class="node"><title>dir_2171f7ec022c5423887b07c69b2f5b48</title>
<g id="a_node5"><a xlink:href="dir_2171f7ec022c5423887b07c69b2f5b48.html" target="_top" xlink:title="DataFormats">
<polygon fill="none" stroke="red" points="78,-108 4,-108 4,-72 78,-72 78,-108"/>
<text text-anchor="middle" x="41" y="-87.5" font-family="Helvetica,sans-Serif" font-size="10.00">DataFormats</text>
</a>
</g>
</g>
<!-- dir_899d345f9fdaa752cfd282604b003f27&#45;&gt;dir_2171f7ec022c5423887b07c69b2f5b48 -->
<g id="edge5" class="edge"><title>dir_899d345f9fdaa752cfd282604b003f27&#45;&gt;dir_2171f7ec022c5423887b07c69b2f5b48</title>
<path fill="none" stroke="black" d="M79.2743,-215.698C76.1972,-197.587 70.6101,-168.438 63,-144 60.2748,-135.249 56.6671,-125.943 53.1631,-117.611"/>
<polygon fill="black" stroke="black" points="56.3452,-116.151 49.1564,-108.368 49.9228,-118.935 56.3452,-116.151"/>
<g id="a_edge5&#45;headlabel"><a xlink:href="dir_000128_000043.html" target="_top" xlink:title="4">
<text text-anchor="middle" x="60.3799" y="-115.82" font-family="Helvetica,sans-Serif" font-size="10.00">4</text>
</a>
</g>
</g>
<!-- dir_677b030cc750909e4cd27413873678d8&#45;&gt;dir_2171f7ec022c5423887b07c69b2f5b48 -->
<g id="edge1" class="edge"><title>dir_677b030cc750909e4cd27413873678d8&#45;&gt;dir_2171f7ec022c5423887b07c69b2f5b48</title>
<path fill="none" stroke="black" d="M24.5449,-143.697C25.3002,-135.898 26.9554,-126.509 29.0504,-117.829"/>
<polygon fill="black" stroke="black" points="32.4483,-118.672 31.6841,-108.104 25.6917,-116.842 32.4483,-118.672"/>
<g id="a_edge1&#45;headlabel"><a xlink:href="dir_000148_000043.html" target="_top" xlink:title="1">
<text text-anchor="middle" x="34.2492" y="-120.383" font-family="Helvetica,sans-Serif" font-size="10.00">1</text>
</a>
</g>
</g>
<!-- dir_37c90836491b695b472bf98d1be8336b&#45;&gt;dir_2171f7ec022c5423887b07c69b2f5b48 -->
<g id="edge2" class="edge"><title>dir_37c90836491b695b472bf98d1be8336b&#45;&gt;dir_2171f7ec022c5423887b07c69b2f5b48</title>
<path fill="none" stroke="black" d="M46.895,-36.1043C47.7005,-43.7913 47.9369,-53.0537 47.604,-61.6651"/>
<polygon fill="black" stroke="black" points="44.1085,-61.4805 46.9157,-71.6966 51.0921,-61.9597 44.1085,-61.4805"/>
<g id="a_edge2&#45;headlabel"><a xlink:href="dir_000099_000043.html" target="_top" xlink:title="5">
<text text-anchor="middle" x="41.5219" y="-55.2" font-family="Helvetica,sans-Serif" font-size="10.00">5</text>
</a>
</g>
</g>
<!-- dir_2171f7ec022c5423887b07c69b2f5b48&#45;&gt;dir_677b030cc750909e4cd27413873678d8 -->
<g id="edge6" class="edge"><title>dir_2171f7ec022c5423887b07c69b2f5b48&#45;&gt;dir_677b030cc750909e4cd27413873678d8</title>
<path fill="none" stroke="black" d="M43.4742,-108.104C42.7342,-115.876 41.0905,-125.257 39.0031,-133.949"/>
<polygon fill="black" stroke="black" points="35.5988,-133.13 36.3764,-143.697 42.3578,-134.952 35.5988,-133.13"/>
<g id="a_edge6&#45;headlabel"><a xlink:href="dir_000043_000148.html" target="_top" xlink:title="2">
<text text-anchor="middle" x="33.7925" y="-126.421" font-family="Helvetica,sans-Serif" font-size="10.00">2</text>
</a>
</g>
</g>
<!-- dir_2171f7ec022c5423887b07c69b2f5b48&#45;&gt;dir_37c90836491b695b472bf98d1be8336b -->
<g id="edge7" class="edge"><title>dir_2171f7ec022c5423887b07c69b2f5b48&#45;&gt;dir_37c90836491b695b472bf98d1be8336b</title>
<path fill="none" stroke="black" d="M35.0843,-71.6966C34.2886,-63.9827 34.0621,-54.7125 34.4047,-46.1124"/>
<polygon fill="black" stroke="black" points="37.8984,-46.3243 35.105,-36.1043 30.9154,-45.8356 37.8984,-46.3243"/>
<g id="a_edge7&#45;headlabel"><a xlink:href="dir_000043_000099.html" target="_top" xlink:title="1">
<text text-anchor="middle" x="40.4799" y="-47.6083" font-family="Helvetica,sans-Serif" font-size="10.00">1</text>
</a>
</g>
</g>
</g>
</svg>
