<?xml version="1.0" encoding="UTF-8" standalone="no"?>
<!DOCTYPE svg PUBLIC "-//W3C//DTD SVG 1.1//EN"
 "http://www.w3.org/Graphics/SVG/1.1/DTD/svg11.dtd">
<!-- Generated by graphviz version 2.36.0 (20140111.2315)
 -->
<!-- Title: /home/travis/build/AliceO2Group/AliceO2/DataFormats/Detectors Pages: 1 -->
<svg width="361pt" height="195pt"
 viewBox="0.00 0.00 361.00 195.00" xmlns="http://www.w3.org/2000/svg" xmlns:xlink="http://www.w3.org/1999/xlink">
<g id="graph0" class="graph" transform="scale(1 1) rotate(0) translate(4 191)">
<title>/home/travis/build/AliceO2Group/AliceO2/DataFormats/Detectors</title>
<g id="clust1" class="cluster"><title>clusterdir_2171f7ec022c5423887b07c69b2f5b48</title>
<g id="a_clust1"><a xlink:href="dir_2171f7ec022c5423887b07c69b2f5b48.html" target="_top" xlink:title="DataFormats">
<polygon fill="#ddddee" stroke="black" points="8,-56 8,-143 246,-143 246,-56 8,-56"/>
<text text-anchor="middle" x="127" y="-131" font-family="Helvetica,sans-Serif" font-size="10.00">DataFormats</text>
</a>
</g>
</g>
<g id="clust2" class="cluster"><title>clusterdir_2801adc79bf3c286b1b479858d2cade4</title>
<g id="a_clust2"><a xlink:href="dir_2801adc79bf3c286b1b479858d2cade4.html" target="_top">
<polygon fill="#eeeeff" stroke="black" points="16,-64 16,-116 238,-116 238,-64 16,-64"/>
</a>
</g>
</g>
<!-- dir_2801adc79bf3c286b1b479858d2cade4 -->
<g id="node1" class="node"><title>dir_2801adc79bf3c286b1b479858d2cade4</title>
<text text-anchor="middle" x="200" y="-87.5" font-family="Helvetica,sans-Serif" font-size="10.00">Detectors</text>
</g>
<!-- dir_74593c7a91e03746ae2a516888bf9494 -->
<g id="node2" class="node"><title>dir_74593c7a91e03746ae2a516888bf9494</title>
<g id="a_node2"><a xlink:href="dir_74593c7a91e03746ae2a516888bf9494.html" target="_top" xlink:title="Common">
<polygon fill="white" stroke="red" points="151.5,-108 96.5,-108 96.5,-72 151.5,-72 151.5,-108"/>
<text text-anchor="middle" x="124" y="-87.5" font-family="Helvetica,sans-Serif" font-size="10.00">Common</text>
</a>
</g>
</g>
<!-- dir_4ab6b4cc6a7edbff49100e9123df213f -->
<g id="node4" class="node"><title>dir_4ab6b4cc6a7edbff49100e9123df213f</title>
<g id="a_node4"><a xlink:href="dir_4ab6b4cc6a7edbff49100e9123df213f.html" target="_top" xlink:title="Common">
<polygon fill="none" stroke="red" points="291.5,-36 236.5,-36 236.5,-0 291.5,-0 291.5,-36"/>
<text text-anchor="middle" x="264" y="-15.5" font-family="Helvetica,sans-Serif" font-size="10.00">Common</text>
</a>
</g>
</g>
<!-- dir_74593c7a91e03746ae2a516888bf9494&#45;&gt;dir_4ab6b4cc6a7edbff49100e9123df213f -->
<g id="edge10" class="edge"><title>dir_74593c7a91e03746ae2a516888bf9494&#45;&gt;dir_4ab6b4cc6a7edbff49100e9123df213f</title>
<path fill="none" stroke="black" d="M141.122,-71.7652C147.32,-66.1934 154.619,-60.3402 162,-56 182.143,-44.1565 206.713,-35.1034 226.691,-28.9173"/>
<polygon fill="black" stroke="black" points="227.798,-32.2397 236.38,-26.0277 225.797,-25.5316 227.798,-32.2397"/>
<g id="a_edge10&#45;headlabel"><a xlink:href="dir_000054_000016.html" target="_top" xlink:title="3">
<text text-anchor="middle" x="225.164" y="-33.4878" font-family="Helvetica,sans-Serif" font-size="10.00">3</text>
</a>
</g>
</g>
<!-- dir_87e4e27fa2128902da5e37b3e7ab3f52 -->
<g id="node3" class="node"><title>dir_87e4e27fa2128902da5e37b3e7ab3f52</title>
<g id="a_node3"><a xlink:href="dir_87e4e27fa2128902da5e37b3e7ab3f52.html" target="_top" xlink:title="TPC">
<polygon fill="white" stroke="red" points="78,-108 24,-108 24,-72 78,-72 78,-108"/>
<text text-anchor="middle" x="51" y="-87.5" font-family="Helvetica,sans-Serif" font-size="10.00">TPC</text>
</a>
</g>
</g>
<!-- dir_051dca18e802f8e9474f2e30d29c04e0 -->
<g id="node5" class="node"><title>dir_051dca18e802f8e9474f2e30d29c04e0</title>
<g id="a_node5"><a xlink:href="dir_051dca18e802f8e9474f2e30d29c04e0.html" target="_top" xlink:title="Detectors">
<polygon fill="none" stroke="red" points="293.25,-187 234.75,-187 234.75,-151 293.25,-151 293.25,-187"/>
<text text-anchor="middle" x="264" y="-166.5" font-family="Helvetica,sans-Serif" font-size="10.00">Detectors</text>
</a>
</g>
</g>
<!-- dir_87e4e27fa2128902da5e37b3e7ab3f52&#45;&gt;dir_051dca18e802f8e9474f2e30d29c04e0 -->
<g id="edge8" class="edge"><title>dir_87e4e27fa2128902da5e37b3e7ab3f52&#45;&gt;dir_051dca18e802f8e9474f2e30d29c04e0</title>
<path fill="none" stroke="black" d="M50.7942,-108.131C55.2411,-119.922 64.8238,-134.871 78,-143 101.327,-157.392 176.733,-163.825 224.199,-166.431"/>
<polygon fill="black" stroke="black" points="224.288,-169.94 234.455,-166.958 224.648,-162.949 224.288,-169.94"/>
<g id="a_edge8&#45;headlabel"><a xlink:href="dir_000059_000076.html" target="_top" xlink:title="2">
<text text-anchor="middle" x="220.553" y="-170.091" font-family="Helvetica,sans-Serif" font-size="10.00">2</text>
</a>
</g>
</g>
<!-- dir_047746f9f311f49446db9474b7431d0d -->
<g id="node6" class="node"><title>dir_047746f9f311f49446db9474b7431d0d</title>
<g id="a_node6"><a xlink:href="dir_047746f9f311f49446db9474b7431d0d.html" target="_top" xlink:title="simulation">
<polygon fill="none" stroke="red" points="353.25,-108 292.75,-108 292.75,-72 353.25,-72 353.25,-108"/>
<text text-anchor="middle" x="323" y="-87.5" font-family="Helvetica,sans-Serif" font-size="10.00">simulation</text>
</a>
</g>
</g>
<!-- dir_87e4e27fa2128902da5e37b3e7ab3f52&#45;&gt;dir_047746f9f311f49446db9474b7431d0d -->
<g id="edge9" class="edge"><title>dir_87e4e27fa2128902da5e37b3e7ab3f52&#45;&gt;dir_047746f9f311f49446db9474b7431d0d</title>
<path fill="none" stroke="black" d="M57.6931,-108.016C64.5801,-123.161 77.0066,-142.969 96,-147 114.803,-150.99 250.197,-150.99 269,-147 285.736,-143.448 299.041,-129.679 308.257,-116.564"/>
<polygon fill="black" stroke="black" points="311.207,-118.447 313.718,-108.154 305.336,-114.635 311.207,-118.447"/>
<g id="a_edge9&#45;headlabel"><a xlink:href="dir_000059_000089.html" target="_top" xlink:title="2">
<text text-anchor="middle" x="311.631" y="-120.508" font-family="Helvetica,sans-Serif" font-size="10.00">2</text>
</a>
</g>
</g>
<!-- dir_051dca18e802f8e9474f2e30d29c04e0&#45;&gt;dir_74593c7a91e03746ae2a516888bf9494 -->
<g id="edge4" class="edge"><title>dir_051dca18e802f8e9474f2e30d29c04e0&#45;&gt;dir_74593c7a91e03746ae2a516888bf9494</title>
<path fill="none" stroke="black" d="M234.587,-166.167C212.952,-163.607 183.664,-157.507 162,-143 152.284,-136.494 144.164,-126.626 137.959,-117.228"/>
<polygon fill="black" stroke="black" points="140.813,-115.187 132.606,-108.487 134.844,-118.843 140.813,-115.187"/>
<g id="a_edge4&#45;headlabel"><a xlink:href="dir_000076_000054.html" target="_top" xlink:title="8">
<text text-anchor="middle" x="145.112" y="-114.27" font-family="Helvetica,sans-Serif" font-size="10.00">8</text>
</a>
</g>
</g>
<!-- dir_051dca18e802f8e9474f2e30d29c04e0&#45;&gt;dir_87e4e27fa2128902da5e37b3e7ab3f52 -->
<g id="edge3" class="edge"><title>dir_051dca18e802f8e9474f2e30d29c04e0&#45;&gt;dir_87e4e27fa2128902da5e37b3e7ab3f52</title>
<path fill="none" stroke="black" d="M234.4,-166.312C192.49,-163.631 118.979,-157.176 96,-143 85.912,-136.776 77.9304,-126.555 71.3977,-116.814"/>
<polygon fill="black" stroke="black" points="74.1541,-114.631 65.7867,-108.131 68.2749,-118.43 74.1541,-114.631"/>
<g id="a_edge3&#45;headlabel"><a xlink:href="dir_000076_000059.html" target="_top" xlink:title="15">
<text text-anchor="middle" x="78.4898" y="-113.608" font-family="Helvetica,sans-Serif" font-size="10.00">15</text>
</a>
</g>
</g>
<!-- dir_051dca18e802f8e9474f2e30d29c04e0&#45;&gt;dir_4ab6b4cc6a7edbff49100e9123df213f -->
<g id="edge1" class="edge"><title>dir_051dca18e802f8e9474f2e30d29c04e0&#45;&gt;dir_4ab6b4cc6a7edbff49100e9123df213f</title>
<path fill="none" stroke="black" d="M264,-150.908C264,-125.446 264,-77.2843 264,-46.7352"/>
<polygon fill="black" stroke="black" points="267.5,-46.3518 264,-36.3518 260.5,-46.3518 267.5,-46.3518"/>
<g id="a_edge1&#45;headlabel"><a xlink:href="dir_000076_000016.html" target="_top" xlink:title="56">
<text text-anchor="middle" x="270.339" y="-47.4464" font-family="Helvetica,sans-Serif" font-size="10.00">56</text>
</a>
</g>
</g>
<!-- dir_051dca18e802f8e9474f2e30d29c04e0&#45;&gt;dir_047746f9f311f49446db9474b7431d0d -->
<g id="edge2" class="edge"><title>dir_051dca18e802f8e9474f2e30d29c04e0&#45;&gt;dir_047746f9f311f49446db9474b7431d0d</title>
<path fill="none" stroke="black" d="M271.374,-150.911C278.135,-140.643 288.071,-127.396 297.502,-115.97"/>
<polygon fill="black" stroke="black" points="300.428,-117.931 304.228,-108.041 295.09,-113.403 300.428,-117.931"/>
<g id="a_edge2&#45;headlabel"><a xlink:href="dir_000076_000089.html" target="_top" xlink:title="73">
<text text-anchor="middle" x="300.268" y="-120.009" font-family="Helvetica,sans-Serif" font-size="10.00">73</text>
</a>
</g>
</g>
<!-- dir_047746f9f311f49446db9474b7431d0d&#45;&gt;dir_74593c7a91e03746ae2a516888bf9494 -->
<g id="edge7" class="edge"><title>dir_047746f9f311f49446db9474b7431d0d&#45;&gt;dir_74593c7a91e03746ae2a516888bf9494</title>
<path fill="none" stroke="black" d="M313.718,-108.154C304.706,-123.156 289.402,-142.67 269,-147 247.697,-151.521 192.303,-151.521 171,-147 166.718,-146.091 165.394,-145.764 162,-143 153.085,-135.739 145.264,-125.9 139.071,-116.669"/>
<polygon fill="black" stroke="black" points="141.958,-114.686 133.65,-108.11 136.044,-118.431 141.958,-114.686"/>
<g id="a_edge7&#45;headlabel"><a xlink:href="dir_000089_000054.html" target="_top" xlink:title="4">
<text text-anchor="middle" x="146.28" y="-113.703" font-family="Helvetica,sans-Serif" font-size="10.00">4</text>
</a>
</g>
</g>
<!-- dir_047746f9f311f49446db9474b7431d0d&#45;&gt;dir_4ab6b4cc6a7edbff49100e9123df213f -->
<g id="edge5" class="edge"><title>dir_047746f9f311f49446db9474b7431d0d&#45;&gt;dir_4ab6b4cc6a7edbff49100e9123df213f</title>
<path fill="none" stroke="black" d="M308.416,-71.6966C301.342,-63.3046 292.717,-53.0705 284.955,-43.8613"/>
<polygon fill="black" stroke="black" points="287.537,-41.495 278.417,-36.1043 282.185,-46.0063 287.537,-41.495"/>
<g id="a_edge5&#45;headlabel"><a xlink:href="dir_000089_000016.html" target="_top" xlink:title="1">
<text text-anchor="middle" x="292.025" y="-39.9137" font-family="Helvetica,sans-Serif" font-size="10.00">1</text>
</a>
</g>
</g>
<!-- dir_047746f9f311f49446db9474b7431d0d&#45;&gt;dir_051dca18e802f8e9474f2e30d29c04e0 -->
<g id="edge6" class="edge"><title>dir_047746f9f311f49446db9474b7431d0d&#45;&gt;dir_051dca18e802f8e9474f2e30d29c04e0</title>
<path fill="none" stroke="black" d="M315.657,-108.041C308.906,-118.3 298.975,-131.545 289.542,-142.977"/>
<polygon fill="black" stroke="black" points="286.612,-141.02 282.814,-150.911 291.951,-145.547 286.612,-141.02"/>
<g id="a_edge6&#45;headlabel"><a xlink:href="dir_000089_000076.html" target="_top" xlink:title="1">
<text text-anchor="middle" x="286.771" y="-133.943" font-family="Helvetica,sans-Serif" font-size="10.00">1</text>
</a>
</g>
</g>
</g>
</svg>
