<?xml version="1.0" encoding="UTF-8" standalone="no"?>
<!DOCTYPE svg PUBLIC "-//W3C//DTD SVG 1.1//EN"
 "http://www.w3.org/Graphics/SVG/1.1/DTD/svg11.dtd">
<!-- Generated by graphviz version 2.36.0 (20140111.2315)
 -->
<!-- Title: /home/travis/build/AliceO2Group/AliceO2/Detectors/TPC/reconstruction/include/TPCReconstruction Pages: 1 -->
<svg width="144pt" height="223pt"
 viewBox="0.00 0.00 144.00 223.00" xmlns="http://www.w3.org/2000/svg" xmlns:xlink="http://www.w3.org/1999/xlink">
<g id="graph0" class="graph" transform="scale(1 1) rotate(0) translate(4 219)">
<title>/home/travis/build/AliceO2Group/AliceO2/Detectors/TPC/reconstruction/include/TPCReconstruction</title>
<g id="clust1" class="cluster"><title>clusterdir_396d171119822f66a36fe1ebf998d1a3</title>
<g id="a_clust1"><a xlink:href="dir_396d171119822f66a36fe1ebf998d1a3.html" target="_top" xlink:title="include">
<polygon fill="#ddddee" stroke="black" points="8,-136 8,-207 128,-207 128,-136 8,-136"/>
<text text-anchor="middle" x="68" y="-195" font-family="Helvetica,sans-Serif" font-size="10.00">include</text>
</a>
</g>
</g>
<!-- dir_1dfaa3fb6e801ddc70b8194facd2138d -->
<g id="node1" class="node"><title>dir_1dfaa3fb6e801ddc70b8194facd2138d</title>
<g id="a_node1"><a xlink:href="dir_1dfaa3fb6e801ddc70b8194facd2138d.html" target="_top" xlink:title="TPCReconstruction">
<polygon fill="#eeeeff" stroke="black" points="119.25,-180 16.75,-180 16.75,-144 119.25,-144 119.25,-180"/>
<text text-anchor="middle" x="68" y="-159.5" font-family="Helvetica,sans-Serif" font-size="10.00">TPCReconstruction</text>
</a>
</g>
</g>
<!-- dir_677b030cc750909e4cd27413873678d8 -->
<g id="node2" class="node"><title>dir_677b030cc750909e4cd27413873678d8</title>
<g id="a_node2"><a xlink:href="dir_677b030cc750909e4cd27413873678d8.html" target="_top" xlink:title="base">
<polygon fill="none" stroke="red" points="68,-108 14,-108 14,-72 68,-72 68,-108"/>
<text text-anchor="middle" x="41" y="-87.5" font-family="Helvetica,sans-Serif" font-size="10.00">base</text>
</a>
</g>
</g>
<!-- dir_1dfaa3fb6e801ddc70b8194facd2138d&#45;&gt;dir_677b030cc750909e4cd27413873678d8 -->
<g id="edge2" class="edge"><title>dir_1dfaa3fb6e801ddc70b8194facd2138d&#45;&gt;dir_677b030cc750909e4cd27413873678d8</title>
<path fill="none" stroke="black" d="M61.3258,-143.697C58.2851,-135.813 54.6173,-126.304 51.2393,-117.546"/>
<polygon fill="black" stroke="black" points="54.4617,-116.175 47.5974,-108.104 47.9307,-118.694 54.4617,-116.175"/>
<g id="a_edge2&#45;headlabel"><a xlink:href="dir_000187_000148.html" target="_top" xlink:title="9">
<text text-anchor="middle" x="58.4043" y="-116.007" font-family="Helvetica,sans-Serif" font-size="10.00">9</text>
</a>
</g>
</g>
<!-- dir_2171f7ec022c5423887b07c69b2f5b48 -->
<g id="node3" class="node"><title>dir_2171f7ec022c5423887b07c69b2f5b48</title>
<g id="a_node3"><a xlink:href="dir_2171f7ec022c5423887b07c69b2f5b48.html" target="_top" xlink:title="DataFormats">
<polygon fill="none" stroke="red" points="78,-36 4,-36 4,-0 78,-0 78,-36"/>
<text text-anchor="middle" x="41" y="-15.5" font-family="Helvetica,sans-Serif" font-size="10.00">DataFormats</text>
</a>
</g>
</g>
<!-- dir_1dfaa3fb6e801ddc70b8194facd2138d&#45;&gt;dir_2171f7ec022c5423887b07c69b2f5b48 -->
<g id="edge3" class="edge"><title>dir_1dfaa3fb6e801ddc70b8194facd2138d&#45;&gt;dir_2171f7ec022c5423887b07c69b2f5b48</title>
<path fill="none" stroke="black" d="M73.6461,-143.877C78.7573,-125.661 84.4405,-96.196 77,-72 73.9911,-62.2153 68.493,-52.6161 62.6843,-44.3336"/>
<polygon fill="black" stroke="black" points="65.4072,-42.1306 56.6099,-36.2264 59.8052,-46.3279 65.4072,-42.1306"/>
<g id="a_edge3&#45;headlabel"><a xlink:href="dir_000187_000043.html" target="_top" xlink:title="14">
<text text-anchor="middle" x="69.8348" y="-40.8048" font-family="Helvetica,sans-Serif" font-size="10.00">14</text>
</a>
</g>
</g>
<!-- dir_677b030cc750909e4cd27413873678d8&#45;&gt;dir_2171f7ec022c5423887b07c69b2f5b48 -->
<g id="edge1" class="edge"><title>dir_677b030cc750909e4cd27413873678d8&#45;&gt;dir_2171f7ec022c5423887b07c69b2f5b48</title>
<path fill="none" stroke="black" d="M35.0843,-71.6966C34.2886,-63.9827 34.0621,-54.7125 34.4047,-46.1124"/>
<polygon fill="black" stroke="black" points="37.8984,-46.3243 35.105,-36.1043 30.9154,-45.8356 37.8984,-46.3243"/>
<g id="a_edge1&#45;headlabel"><a xlink:href="dir_000148_000043.html" target="_top" xlink:title="1">
<text text-anchor="middle" x="40.4799" y="-47.6083" font-family="Helvetica,sans-Serif" font-size="10.00">1</text>
</a>
</g>
</g>
<!-- dir_2171f7ec022c5423887b07c69b2f5b48&#45;&gt;dir_677b030cc750909e4cd27413873678d8 -->
<g id="edge4" class="edge"><title>dir_2171f7ec022c5423887b07c69b2f5b48&#45;&gt;dir_677b030cc750909e4cd27413873678d8</title>
<path fill="none" stroke="black" d="M46.895,-36.1043C47.7005,-43.7913 47.9369,-53.0537 47.604,-61.6651"/>
<polygon fill="black" stroke="black" points="44.1085,-61.4805 46.9157,-71.6966 51.0921,-61.9597 44.1085,-61.4805"/>
<g id="a_edge4&#45;headlabel"><a xlink:href="dir_000043_000148.html" target="_top" xlink:title="2">
<text text-anchor="middle" x="41.5219" y="-55.2" font-family="Helvetica,sans-Serif" font-size="10.00">2</text>
</a>
</g>
</g>
</g>
</svg>
