<?xml version="1.0" encoding="UTF-8" standalone="no"?>
<!DOCTYPE svg PUBLIC "-//W3C//DTD SVG 1.1//EN"
 "http://www.w3.org/Graphics/SVG/1.1/DTD/svg11.dtd">
<!-- Generated by graphviz version 2.36.0 (20140111.2315)
 -->
<!-- Title: /home/travis/build/AliceO2Group/AliceO2/DataFormats/Detectors/TPC/src Pages: 1 -->
<svg width="142pt" height="223pt"
 viewBox="0.00 0.00 142.00 223.00" xmlns="http://www.w3.org/2000/svg" xmlns:xlink="http://www.w3.org/1999/xlink">
<g id="graph0" class="graph" transform="scale(1 1) rotate(0) translate(4 219)">
<title>/home/travis/build/AliceO2Group/AliceO2/DataFormats/Detectors/TPC/src</title>
<g id="clust1" class="cluster"><title>clusterdir_87e4e27fa2128902da5e37b3e7ab3f52</title>
<g id="a_clust1"><a xlink:href="dir_87e4e27fa2128902da5e37b3e7ab3f52.html" target="_top" xlink:title="TPC">
<polygon fill="#ddddee" stroke="black" points="30,-136 30,-207 100,-207 100,-136 30,-136"/>
<text text-anchor="middle" x="65" y="-195" font-family="Helvetica,sans-Serif" font-size="10.00">TPC</text>
</a>
</g>
</g>
<!-- dir_99a7a708919c9221801ca7c93b79d194 -->
<g id="node1" class="node"><title>dir_99a7a708919c9221801ca7c93b79d194</title>
<g id="a_node1"><a xlink:href="dir_99a7a708919c9221801ca7c93b79d194.html" target="_top" xlink:title="src">
<polygon fill="#eeeeff" stroke="black" points="92,-180 38,-180 38,-144 92,-144 92,-180"/>
<text text-anchor="middle" x="65" y="-159.5" font-family="Helvetica,sans-Serif" font-size="10.00">src</text>
</a>
</g>
</g>
<!-- dir_051dca18e802f8e9474f2e30d29c04e0 -->
<g id="node2" class="node"><title>dir_051dca18e802f8e9474f2e30d29c04e0</title>
<g id="a_node2"><a xlink:href="dir_051dca18e802f8e9474f2e30d29c04e0.html" target="_top" xlink:title="Detectors">
<polygon fill="none" stroke="red" points="94.25,-108 35.75,-108 35.75,-72 94.25,-72 94.25,-108"/>
<text text-anchor="middle" x="65" y="-87.5" font-family="Helvetica,sans-Serif" font-size="10.00">Detectors</text>
</a>
</g>
</g>
<!-- dir_99a7a708919c9221801ca7c93b79d194&#45;&gt;dir_051dca18e802f8e9474f2e30d29c04e0 -->
<g id="edge1" class="edge"><title>dir_99a7a708919c9221801ca7c93b79d194&#45;&gt;dir_051dca18e802f8e9474f2e30d29c04e0</title>
<path fill="none" stroke="black" d="M65,-143.697C65,-135.983 65,-126.712 65,-118.112"/>
<polygon fill="black" stroke="black" points="68.5001,-118.104 65,-108.104 61.5001,-118.104 68.5001,-118.104"/>
<g id="a_edge1&#45;headlabel"><a xlink:href="dir_000062_000076.html" target="_top" xlink:title="1">
<text text-anchor="middle" x="71.3393" y="-119.199" font-family="Helvetica,sans-Serif" font-size="10.00">1</text>
</a>
</g>
</g>
<!-- dir_6f22cbd49ee75d810f2bfe3ea5accc3c -->
<g id="node3" class="node"><title>dir_6f22cbd49ee75d810f2bfe3ea5accc3c</title>
<g id="a_node3"><a xlink:href="dir_6f22cbd49ee75d810f2bfe3ea5accc3c.html" target="_top" xlink:title="include">
<polygon fill="none" stroke="red" points="54,-36 0,-36 0,-0 54,-0 54,-36"/>
<text text-anchor="middle" x="27" y="-15.5" font-family="Helvetica,sans-Serif" font-size="10.00">include</text>
</a>
</g>
</g>
<!-- dir_99a7a708919c9221801ca7c93b79d194&#45;&gt;dir_6f22cbd49ee75d810f2bfe3ea5accc3c -->
<g id="edge2" class="edge"><title>dir_99a7a708919c9221801ca7c93b79d194&#45;&gt;dir_6f22cbd49ee75d810f2bfe3ea5accc3c</title>
<path fill="none" stroke="black" d="M48.1103,-143.993C39.7065,-134.315 30.4183,-121.459 26,-108 19.4636,-88.0888 20.1335,-64.2959 22.2087,-46.3223"/>
<polygon fill="black" stroke="black" points="25.7018,-46.6104 23.5897,-36.2282 18.7664,-45.6615 25.7018,-46.6104"/>
<g id="a_edge2&#45;headlabel"><a xlink:href="dir_000062_000060.html" target="_top" xlink:title="1">
<text text-anchor="middle" x="28.0277" y="-48.0566" font-family="Helvetica,sans-Serif" font-size="10.00">1</text>
</a>
</g>
</g>
<!-- dir_047746f9f311f49446db9474b7431d0d -->
<g id="node4" class="node"><title>dir_047746f9f311f49446db9474b7431d0d</title>
<g id="a_node4"><a xlink:href="dir_047746f9f311f49446db9474b7431d0d.html" target="_top" xlink:title="simulation">
<polygon fill="none" stroke="red" points="133.25,-36 72.75,-36 72.75,-0 133.25,-0 133.25,-36"/>
<text text-anchor="middle" x="103" y="-15.5" font-family="Helvetica,sans-Serif" font-size="10.00">simulation</text>
</a>
</g>
</g>
<!-- dir_99a7a708919c9221801ca7c93b79d194&#45;&gt;dir_047746f9f311f49446db9474b7431d0d -->
<g id="edge3" class="edge"><title>dir_99a7a708919c9221801ca7c93b79d194&#45;&gt;dir_047746f9f311f49446db9474b7431d0d</title>
<path fill="none" stroke="black" d="M81.4635,-143.919C89.6538,-134.218 98.7036,-121.366 103,-108 109.413,-88.05 109.031,-64.2594 107.254,-46.2966"/>
<polygon fill="black" stroke="black" points="110.711,-45.7252 106.052,-36.2098 103.76,-46.5538 110.711,-45.7252"/>
<g id="a_edge3&#45;headlabel"><a xlink:href="dir_000062_000089.html" target="_top" xlink:title="2">
<text text-anchor="middle" x="113.955" y="-46.4585" font-family="Helvetica,sans-Serif" font-size="10.00">2</text>
</a>
</g>
</g>
<!-- dir_051dca18e802f8e9474f2e30d29c04e0&#45;&gt;dir_6f22cbd49ee75d810f2bfe3ea5accc3c -->
<g id="edge4" class="edge"><title>dir_051dca18e802f8e9474f2e30d29c04e0&#45;&gt;dir_6f22cbd49ee75d810f2bfe3ea5accc3c</title>
<path fill="none" stroke="black" d="M49.691,-71.6966C44.5435,-63.7284 39.1018,-54.0995 34.6981,-45.2641"/>
<polygon fill="black" stroke="black" points="37.8134,-43.6639 30.3902,-36.1043 31.4789,-46.6431 37.8134,-43.6639"/>
<g id="a_edge4&#45;headlabel"><a xlink:href="dir_000076_000060.html" target="_top" xlink:title="15">
<text text-anchor="middle" x="41.9124" y="-43.2084" font-family="Helvetica,sans-Serif" font-size="10.00">15</text>
</a>
</g>
</g>
<!-- dir_051dca18e802f8e9474f2e30d29c04e0&#45;&gt;dir_047746f9f311f49446db9474b7431d0d -->
<g id="edge5" class="edge"><title>dir_051dca18e802f8e9474f2e30d29c04e0&#45;&gt;dir_047746f9f311f49446db9474b7431d0d</title>
<path fill="none" stroke="black" d="M68.4775,-71.6966C72.0558,-63.5589 77.2077,-53.689 82.5142,-44.7013"/>
<polygon fill="black" stroke="black" points="85.5464,-46.4524 87.8198,-36.1043 79.5894,-42.7761 85.5464,-46.4524"/>
<g id="a_edge5&#45;headlabel"><a xlink:href="dir_000076_000089.html" target="_top" xlink:title="73">
<text text-anchor="middle" x="86.0748" y="-48.5025" font-family="Helvetica,sans-Serif" font-size="10.00">73</text>
</a>
</g>
</g>
<!-- dir_6f22cbd49ee75d810f2bfe3ea5accc3c&#45;&gt;dir_051dca18e802f8e9474f2e30d29c04e0 -->
<g id="edge6" class="edge"><title>dir_6f22cbd49ee75d810f2bfe3ea5accc3c&#45;&gt;dir_051dca18e802f8e9474f2e30d29c04e0</title>
<path fill="none" stroke="black" d="M42.1802,-36.1043C47.3228,-44.0447 52.7706,-53.6661 57.1915,-62.5146"/>
<polygon fill="black" stroke="black" points="54.0908,-64.1454 61.5225,-71.6966 60.4219,-61.1591 54.0908,-64.1454"/>
<g id="a_edge6&#45;headlabel"><a xlink:href="dir_000060_000076.html" target="_top" xlink:title="1">
<text text-anchor="middle" x="49.9894" y="-59.6055" font-family="Helvetica,sans-Serif" font-size="10.00">1</text>
</a>
</g>
</g>
<!-- dir_047746f9f311f49446db9474b7431d0d&#45;&gt;dir_051dca18e802f8e9474f2e30d29c04e0 -->
<g id="edge7" class="edge"><title>dir_047746f9f311f49446db9474b7431d0d&#45;&gt;dir_051dca18e802f8e9474f2e30d29c04e0</title>
<path fill="none" stroke="black" d="M99.6098,-36.1043C96.0574,-44.2136 90.9197,-54.0763 85.6158,-63.0783"/>
<polygon fill="black" stroke="black" points="82.572,-61.3463 80.309,-71.6966 88.5326,-65.0166 82.572,-61.3463"/>
<g id="a_edge7&#45;headlabel"><a xlink:href="dir_000089_000076.html" target="_top" xlink:title="1">
<text text-anchor="middle" x="82.039" y="-54.2967" font-family="Helvetica,sans-Serif" font-size="10.00">1</text>
</a>
</g>
</g>
</g>
</svg>
