<?xml version="1.0" encoding="UTF-8" standalone="no"?>
<!DOCTYPE svg PUBLIC "-//W3C//DTD SVG 1.1//EN"
 "http://www.w3.org/Graphics/SVG/1.1/DTD/svg11.dtd">
<!-- Generated by graphviz version 2.36.0 (20140111.2315)
 -->
<!-- Title: /home/travis/build/AliceO2Group/AliceO2/Detectors/TPC/simulation/src Pages: 1 -->
<svg width="177pt" height="367pt"
 viewBox="0.00 0.00 176.93 367.00" xmlns="http://www.w3.org/2000/svg" xmlns:xlink="http://www.w3.org/1999/xlink">
<g id="graph0" class="graph" transform="scale(1 1) rotate(0) translate(4 363)">
<title>/home/travis/build/AliceO2Group/AliceO2/Detectors/TPC/simulation/src</title>
<g id="clust1" class="cluster"><title>clusterdir_7f309bec8670bb3fb666e7e061b24659</title>
<g id="a_clust1"><a xlink:href="dir_7f309bec8670bb3fb666e7e061b24659.html" target="_top" xlink:title="simulation">
<polygon fill="#ddddee" stroke="black" points="60,-280 60,-351 130,-351 130,-280 60,-280"/>
<text text-anchor="middle" x="95" y="-339" font-family="Helvetica,sans-Serif" font-size="10.00">simulation</text>
</a>
</g>
</g>
<!-- dir_72815adbd439f00f784a5a4eca496fde -->
<g id="node1" class="node"><title>dir_72815adbd439f00f784a5a4eca496fde</title>
<g id="a_node1"><a xlink:href="dir_72815adbd439f00f784a5a4eca496fde.html" target="_top" xlink:title="src">
<polygon fill="#eeeeff" stroke="black" points="122,-324 68,-324 68,-288 122,-288 122,-324"/>
<text text-anchor="middle" x="95" y="-303.5" font-family="Helvetica,sans-Serif" font-size="10.00">src</text>
</a>
</g>
</g>
<!-- dir_677b030cc750909e4cd27413873678d8 -->
<g id="node2" class="node"><title>dir_677b030cc750909e4cd27413873678d8</title>
<g id="a_node2"><a xlink:href="dir_677b030cc750909e4cd27413873678d8.html" target="_top" xlink:title="base">
<polygon fill="none" stroke="red" points="112,-180 58,-180 58,-144 112,-144 112,-180"/>
<text text-anchor="middle" x="85" y="-159.5" font-family="Helvetica,sans-Serif" font-size="10.00">base</text>
</a>
</g>
</g>
<!-- dir_72815adbd439f00f784a5a4eca496fde&#45;&gt;dir_677b030cc750909e4cd27413873678d8 -->
<g id="edge1" class="edge"><title>dir_72815adbd439f00f784a5a4eca496fde&#45;&gt;dir_677b030cc750909e4cd27413873678d8</title>
<path fill="none" stroke="black" d="M91.8501,-287.88C90.0875,-277.531 88.0408,-264.052 87,-252 85.2162,-231.343 84.7527,-207.894 84.7156,-190.254"/>
<polygon fill="black" stroke="black" points="88.2159,-190.105 84.7397,-180.097 81.2159,-190.089 88.2159,-190.105"/>
<g id="a_edge1&#45;headlabel"><a xlink:href="dir_000140_000148.html" target="_top" xlink:title="16">
<text text-anchor="middle" x="91.0467" y="-191.206" font-family="Helvetica,sans-Serif" font-size="10.00">16</text>
</a>
</g>
</g>
<!-- dir_4ab6b4cc6a7edbff49100e9123df213f -->
<g id="node3" class="node"><title>dir_4ab6b4cc6a7edbff49100e9123df213f</title>
<g id="a_node3"><a xlink:href="dir_4ab6b4cc6a7edbff49100e9123df213f.html" target="_top" xlink:title="Common">
<polygon fill="none" stroke="red" points="55.5,-108 0.5,-108 0.5,-72 55.5,-72 55.5,-108"/>
<text text-anchor="middle" x="28" y="-87.5" font-family="Helvetica,sans-Serif" font-size="10.00">Common</text>
</a>
</g>
</g>
<!-- dir_72815adbd439f00f784a5a4eca496fde&#45;&gt;dir_4ab6b4cc6a7edbff49100e9123df213f -->
<g id="edge2" class="edge"><title>dir_72815adbd439f00f784a5a4eca496fde&#45;&gt;dir_4ab6b4cc6a7edbff49100e9123df213f</title>
<path fill="none" stroke="black" d="M87.9299,-287.833C78.266,-263.946 60.789,-219.195 49,-180 42.8655,-159.604 37.3934,-136.144 33.5741,-118.431"/>
<polygon fill="black" stroke="black" points="36.9094,-117.286 31.4185,-108.225 30.0605,-118.732 36.9094,-117.286"/>
<g id="a_edge2&#45;headlabel"><a xlink:href="dir_000140_000016.html" target="_top" xlink:title="1">
<text text-anchor="middle" x="40.4301" y="-117.716" font-family="Helvetica,sans-Serif" font-size="10.00">1</text>
</a>
</g>
</g>
<!-- dir_a3959ed40b1558172144f5e1a56e443f -->
<g id="node4" class="node"><title>dir_a3959ed40b1558172144f5e1a56e443f</title>
<g id="a_node4"><a xlink:href="dir_a3959ed40b1558172144f5e1a56e443f.html" target="_top" xlink:title="include">
<polygon fill="none" stroke="red" points="150,-252 96,-252 96,-216 150,-216 150,-252"/>
<text text-anchor="middle" x="123" y="-231.5" font-family="Helvetica,sans-Serif" font-size="10.00">include</text>
</a>
</g>
</g>
<!-- dir_72815adbd439f00f784a5a4eca496fde&#45;&gt;dir_a3959ed40b1558172144f5e1a56e443f -->
<g id="edge3" class="edge"><title>dir_72815adbd439f00f784a5a4eca496fde&#45;&gt;dir_a3959ed40b1558172144f5e1a56e443f</title>
<path fill="none" stroke="black" d="M101.921,-287.697C105.075,-279.813 108.878,-270.304 112.381,-261.546"/>
<polygon fill="black" stroke="black" points="115.694,-262.689 116.158,-252.104 109.195,-260.089 115.694,-262.689"/>
<g id="a_edge3&#45;headlabel"><a xlink:href="dir_000140_000127.html" target="_top" xlink:title="32">
<text text-anchor="middle" x="116.995" y="-264.581" font-family="Helvetica,sans-Serif" font-size="10.00">32</text>
</a>
</g>
</g>
<!-- dir_2171f7ec022c5423887b07c69b2f5b48 -->
<g id="node5" class="node"><title>dir_2171f7ec022c5423887b07c69b2f5b48</title>
<g id="a_node5"><a xlink:href="dir_2171f7ec022c5423887b07c69b2f5b48.html" target="_top" xlink:title="DataFormats">
<polygon fill="none" stroke="red" points="130,-36 56,-36 56,-0 130,-0 130,-36"/>
<text text-anchor="middle" x="93" y="-15.5" font-family="Helvetica,sans-Serif" font-size="10.00">DataFormats</text>
</a>
</g>
</g>
<!-- dir_72815adbd439f00f784a5a4eca496fde&#45;&gt;dir_2171f7ec022c5423887b07c69b2f5b48 -->
<g id="edge4" class="edge"><title>dir_72815adbd439f00f784a5a4eca496fde&#45;&gt;dir_2171f7ec022c5423887b07c69b2f5b48</title>
<path fill="none" stroke="black" d="M122.096,-290.388C135.887,-281.337 151.326,-268.319 159,-252 178.341,-210.872 167.091,-158.736 130,-72 125.874,-62.3511 119.825,-52.6792 113.809,-44.2887"/>
<polygon fill="black" stroke="black" points="116.436,-41.9587 107.633,-36.0635 110.838,-46.1618 116.436,-41.9587"/>
<g id="a_edge4&#45;headlabel"><a xlink:href="dir_000140_000043.html" target="_top" xlink:title="2">
<text text-anchor="middle" x="120.865" y="-40.6284" font-family="Helvetica,sans-Serif" font-size="10.00">2</text>
</a>
</g>
</g>
<!-- dir_677b030cc750909e4cd27413873678d8&#45;&gt;dir_4ab6b4cc6a7edbff49100e9123df213f -->
<g id="edge5" class="edge"><title>dir_677b030cc750909e4cd27413873678d8&#45;&gt;dir_4ab6b4cc6a7edbff49100e9123df213f</title>
<path fill="none" stroke="black" d="M70.9101,-143.697C64.0766,-135.305 55.7431,-125.07 48.2442,-115.861"/>
<polygon fill="black" stroke="black" points="50.9561,-113.649 41.9278,-108.104 45.5281,-118.069 50.9561,-113.649"/>
<g id="a_edge5&#45;headlabel"><a xlink:href="dir_000148_000016.html" target="_top" xlink:title="2">
<text text-anchor="middle" x="55.4275" y="-112.143" font-family="Helvetica,sans-Serif" font-size="10.00">2</text>
</a>
</g>
</g>
<!-- dir_677b030cc750909e4cd27413873678d8&#45;&gt;dir_2171f7ec022c5423887b07c69b2f5b48 -->
<g id="edge6" class="edge"><title>dir_677b030cc750909e4cd27413873678d8&#45;&gt;dir_2171f7ec022c5423887b07c69b2f5b48</title>
<path fill="none" stroke="black" d="M81.3805,-143.871C80.1856,-119.67 82.3988,-75.2108 85.9977,-46.3932"/>
<polygon fill="black" stroke="black" points="89.5059,-46.5808 87.4407,-36.1893 82.5749,-45.6007 89.5059,-46.5808"/>
<g id="a_edge6&#45;headlabel"><a xlink:href="dir_000148_000043.html" target="_top" xlink:title="1">
<text text-anchor="middle" x="91.814" y="-48.0376" font-family="Helvetica,sans-Serif" font-size="10.00">1</text>
</a>
</g>
</g>
<!-- dir_4ab6b4cc6a7edbff49100e9123df213f&#45;&gt;dir_2171f7ec022c5423887b07c69b2f5b48 -->
<g id="edge7" class="edge"><title>dir_4ab6b4cc6a7edbff49100e9123df213f&#45;&gt;dir_2171f7ec022c5423887b07c69b2f5b48</title>
<path fill="none" stroke="black" d="M38.1517,-71.6966C45.2186,-63.135 54.7669,-52.6562 63.9699,-43.3045"/>
<polygon fill="black" stroke="black" points="66.5916,-45.6336 71.2224,-36.1043 61.6598,-40.6659 66.5916,-45.6336"/>
<g id="a_edge7&#45;headlabel"><a xlink:href="dir_000016_000043.html" target="_top" xlink:title="1">
<text text-anchor="middle" x="66.041" y="-47.681" font-family="Helvetica,sans-Serif" font-size="10.00">1</text>
</a>
</g>
</g>
<!-- dir_a3959ed40b1558172144f5e1a56e443f&#45;&gt;dir_677b030cc750909e4cd27413873678d8 -->
<g id="edge8" class="edge"><title>dir_a3959ed40b1558172144f5e1a56e443f&#45;&gt;dir_677b030cc750909e4cd27413873678d8</title>
<path fill="none" stroke="black" d="M113.607,-215.697C109.235,-207.644 103.943,-197.894 99.1047,-188.982"/>
<polygon fill="black" stroke="black" points="102.132,-187.223 94.2852,-180.104 95.9802,-190.563 102.132,-187.223"/>
<g id="a_edge8&#45;headlabel"><a xlink:href="dir_000127_000148.html" target="_top" xlink:title="19">
<text text-anchor="middle" x="106.342" y="-186.528" font-family="Helvetica,sans-Serif" font-size="10.00">19</text>
</a>
</g>
</g>
<!-- dir_a3959ed40b1558172144f5e1a56e443f&#45;&gt;dir_2171f7ec022c5423887b07c69b2f5b48 -->
<g id="edge9" class="edge"><title>dir_a3959ed40b1558172144f5e1a56e443f&#45;&gt;dir_2171f7ec022c5423887b07c69b2f5b48</title>
<path fill="none" stroke="black" d="M123.672,-215.8C124.428,-186.045 124.228,-123.232 112,-72 109.935,-63.348 106.937,-54.15 103.931,-45.8875"/>
<polygon fill="black" stroke="black" points="107.141,-44.4811 100.322,-36.3726 100.596,-46.9639 107.141,-44.4811"/>
<g id="a_edge9&#45;headlabel"><a xlink:href="dir_000127_000043.html" target="_top" xlink:title="4">
<text text-anchor="middle" x="111.07" y="-44.335" font-family="Helvetica,sans-Serif" font-size="10.00">4</text>
</a>
</g>
</g>
<!-- dir_2171f7ec022c5423887b07c69b2f5b48&#45;&gt;dir_677b030cc750909e4cd27413873678d8 -->
<g id="edge10" class="edge"><title>dir_2171f7ec022c5423887b07c69b2f5b48&#45;&gt;dir_677b030cc750909e4cd27413873678d8</title>
<path fill="none" stroke="black" d="M96.6225,-36.1893C97.8117,-60.4244 95.5944,-104.888 91.9932,-133.679"/>
<polygon fill="black" stroke="black" points="88.4866,-133.479 90.5495,-143.871 95.4175,-134.461 88.4866,-133.479"/>
<g id="a_edge10&#45;headlabel"><a xlink:href="dir_000043_000148.html" target="_top" xlink:title="2">
<text text-anchor="middle" x="86.1795" y="-127.022" font-family="Helvetica,sans-Serif" font-size="10.00">2</text>
</a>
</g>
</g>
<!-- dir_2171f7ec022c5423887b07c69b2f5b48&#45;&gt;dir_4ab6b4cc6a7edbff49100e9123df213f -->
<g id="edge11" class="edge"><title>dir_2171f7ec022c5423887b07c69b2f5b48&#45;&gt;dir_4ab6b4cc6a7edbff49100e9123df213f</title>
<path fill="none" stroke="black" d="M83.0124,-36.1043C75.9842,-44.636 66.4527,-55.1084 57.2445,-64.4775"/>
<polygon fill="black" stroke="black" points="54.6072,-62.1641 49.9831,-71.6966 59.5425,-67.1283 54.6072,-62.1641"/>
<g id="a_edge11&#45;headlabel"><a xlink:href="dir_000043_000016.html" target="_top" xlink:title="11">
<text text-anchor="middle" x="55.1546" y="-55.1163" font-family="Helvetica,sans-Serif" font-size="10.00">11</text>
</a>
</g>
</g>
</g>
</svg>
