<?xml version="1.0" encoding="UTF-8" standalone="no"?>
<!DOCTYPE svg PUBLIC "-//W3C//DTD SVG 1.1//EN"
 "http://www.w3.org/Graphics/SVG/1.1/DTD/svg11.dtd">
<!-- Generated by graphviz version 2.36.0 (20140111.2315)
 -->
<!-- Title: /home/travis/build/AliceO2Group/AliceO2/Detectors/ITSMFT/ITS Pages: 1 -->
<!--zoomable 519 -->
<svg id="main" version="1.1" xmlns="http://www.w3.org/2000/svg" xmlns:xlink="http://www.w3.org/1999/xlink" xml:space="preserve" onload="init(evt)">
<style type="text/css"><![CDATA[
.edge:hover path { stroke: red; }
.edge:hover polygon { stroke: red; fill: red; }
]]></style>
<script type="text/javascript"><![CDATA[
var edges = document.getElementsByTagName('g');
if (edges && edges.length) {
  for (var i=0;i<edges.length;i++) {
    if (edges[i].id.substr(0,4)=='edge') {
      edges[i].setAttribute('class','edge');
    }
  }
}
]]></script>
        <defs>
                <circle id="rim" cx="0" cy="0" r="7"/>
                <circle id="rim2" cx="0" cy="0" r="3.5"/>
                <g id="zoomPlus">
                        <use xlink:href="#rim" fill="#404040">
                                <set attributeName="fill" to="#808080" begin="zoomplus.mouseover" end="zoomplus.mouseout"/>
                        </use>
                        <path d="M-4,0h8M0,-4v8" fill="none" stroke="white" stroke-width="1.5" pointer-events="none"/>
                </g>
                <g id="zoomMin">
                        <use xlink:href="#rim" fill="#404040">
                                <set attributeName="fill" to="#808080" begin="zoomminus.mouseover" end="zoomminus.mouseout"/>
                        </use>
                        <path d="M-4,0h8" fill="none" stroke="white" stroke-width="1.5" pointer-events="none"/>
                </g>
                <g id="dirArrow">
                        <path fill="none" stroke="white" stroke-width="1.5" d="M0,-3.0v7 M-2.5,-0.5L0,-3.0L2.5,-0.5"/>
                </g>
               <g id="resetDef">
                       <use xlink:href="#rim2" fill="#404040">
                               <set attributeName="fill" to="#808080" begin="reset.mouseover" end="reset.mouseout"/>
                       </use>
               </g>
        </defs>

<script type="text/javascript">
var viewWidth = 403;
var viewHeight = 519;
var sectionId = 'dynsection-0';
</script>
<script xlink:href="svgpan.js"/>
<svg id="graph" class="graph">
<g id="viewport">
<title>/home/travis/build/AliceO2Group/AliceO2/Detectors/ITSMFT/ITS</title>
<g id="clust1" class="cluster"><title>clusterdir_1306292b77b40360479b729ac9ee7efe</title>
<g id="a_clust1"><a xlink:href="dir_1306292b77b40360479b729ac9ee7efe.html" target="_top" xlink:title="ITSMFT">
<polygon fill="#ddddee" stroke="black" points="18.5933,-272 18.5933,-503 228.593,-503 228.593,-272 18.5933,-272"/>
<text text-anchor="middle" x="123.593" y="-491" font-family="Helvetica,sans-Serif" font-size="10.00">ITSMFT</text>
</a>
</g>
</g>
<g id="clust2" class="cluster"><title>clusterdir_871aad07cbf94d6cd423c3d8d5bdf4e9</title>
<g id="a_clust2"><a xlink:href="dir_871aad07cbf94d6cd423c3d8d5bdf4e9.html" target="_top">
<polygon fill="#eeeeff" stroke="black" points="26.5933,-280 26.5933,-476 220.593,-476 220.593,-280 26.5933,-280"/>
</a>
</g>
</g>
<!-- dir_871aad07cbf94d6cd423c3d8d5bdf4e9 -->
<g id="node1" class="node"><title>dir_871aad07cbf94d6cd423c3d8d5bdf4e9</title>
<text text-anchor="middle" x="185.593" y="-447.5" font-family="Helvetica,sans-Serif" font-size="10.00">ITS</text>
</g>
<!-- dir_eedff867f3c4e67d20b227cb6e0f96ab -->
<g id="node2" class="node"><title>dir_eedff867f3c4e67d20b227cb6e0f96ab</title>
<g id="a_node2"><a xlink:href="dir_eedff867f3c4e67d20b227cb6e0f96ab.html" target="_top" xlink:title="base">
<polygon fill="white" stroke="red" points="142.593,-324 88.5933,-324 88.5933,-288 142.593,-288 142.593,-324"/>
<text text-anchor="middle" x="115.593" y="-303.5" font-family="Helvetica,sans-Serif" font-size="10.00">base</text>
</a>
</g>
</g>
<!-- dir_4ab6b4cc6a7edbff49100e9123df213f -->
<g id="node6" class="node"><title>dir_4ab6b4cc6a7edbff49100e9123df213f</title>
<g id="a_node6"><a xlink:href="dir_4ab6b4cc6a7edbff49100e9123df213f.html" target="_top" xlink:title="Common">
<polygon fill="none" stroke="red" points="330.093,-252 275.093,-252 275.093,-216 330.093,-216 330.093,-252"/>
<text text-anchor="middle" x="302.593" y="-231.5" font-family="Helvetica,sans-Serif" font-size="10.00">Common</text>
</a>
</g>
</g>
<!-- dir_eedff867f3c4e67d20b227cb6e0f96ab&#45;&gt;dir_4ab6b4cc6a7edbff49100e9123df213f -->
<g id="edge1" class="edge"><title>dir_eedff867f3c4e67d20b227cb6e0f96ab&#45;&gt;dir_4ab6b4cc6a7edbff49100e9123df213f</title>
<path fill="none" stroke="black" d="M133.605,-287.718C140.373,-282.009 148.418,-276.081 156.593,-272 191.125,-254.764 234.371,-245.104 264.803,-240.013"/>
<polygon fill="black" stroke="black" points="265.668,-243.419 274.998,-238.398 264.573,-236.506 265.668,-243.419"/>
<g id="a_edge1&#45;headlabel"><a xlink:href="dir_000178_000016.html" target="_top" xlink:title="2">
<text text-anchor="middle" x="262.562" y="-244.286" font-family="Helvetica,sans-Serif" font-size="10.00">2</text>
</a>
</g>
</g>
<!-- dir_37c90836491b695b472bf98d1be8336b -->
<g id="node8" class="node"><title>dir_37c90836491b695b472bf98d1be8336b</title>
<g id="a_node8"><a xlink:href="dir_37c90836491b695b472bf98d1be8336b.html" target="_top" xlink:title="Base">
<polygon fill="none" stroke="red" points="203.593,-36 149.593,-36 149.593,-0 203.593,-0 203.593,-36"/>
<text text-anchor="middle" x="176.593" y="-15.5" font-family="Helvetica,sans-Serif" font-size="10.00">Base</text>
</a>
</g>
</g>
<!-- dir_eedff867f3c4e67d20b227cb6e0f96ab&#45;&gt;dir_37c90836491b695b472bf98d1be8336b -->
<g id="edge2" class="edge"><title>dir_eedff867f3c4e67d20b227cb6e0f96ab&#45;&gt;dir_37c90836491b695b472bf98d1be8336b</title>
<path fill="none" stroke="black" d="M119.226,-287.966C129.416,-240.192 158.331,-104.623 170.778,-46.2658"/>
<polygon fill="black" stroke="black" points="174.239,-46.8166 172.902,-36.3065 167.393,-45.3564 174.239,-46.8166"/>
<g id="a_edge2&#45;headlabel"><a xlink:href="dir_000178_000099.html" target="_top" xlink:title="2">
<text text-anchor="middle" x="176.266" y="-48.4244" font-family="Helvetica,sans-Serif" font-size="10.00">2</text>
</a>
</g>
</g>
<!-- dir_85bf31a2e8d306e7598ffcb73f8df6bf -->
<g id="node9" class="node"><title>dir_85bf31a2e8d306e7598ffcb73f8df6bf</title>
<g id="a_node9"><a xlink:href="dir_85bf31a2e8d306e7598ffcb73f8df6bf.html" target="_top" xlink:title="common">
<polygon fill="none" stroke="red" points="290.593,-324 236.593,-324 236.593,-288 290.593,-288 290.593,-324"/>
<text text-anchor="middle" x="263.593" y="-303.5" font-family="Helvetica,sans-Serif" font-size="10.00">common</text>
</a>
</g>
</g>
<!-- dir_eedff867f3c4e67d20b227cb6e0f96ab&#45;&gt;dir_85bf31a2e8d306e7598ffcb73f8df6bf -->
<g id="edge3" class="edge"><title>dir_eedff867f3c4e67d20b227cb6e0f96ab&#45;&gt;dir_85bf31a2e8d306e7598ffcb73f8df6bf</title>
<path fill="none" stroke="black" d="M142.765,-306C170.509,-306 198.253,-306 225.997,-306"/>
<polygon fill="black" stroke="black" points="226.218,-309.5 236.218,-306 226.218,-302.5 226.218,-309.5"/>
<g id="a_edge3&#45;headlabel"><a xlink:href="dir_000178_000151.html" target="_top" xlink:title="2">
<text text-anchor="middle" x="222.624" y="-309.839" font-family="Helvetica,sans-Serif" font-size="10.00">2</text>
</a>
</g>
</g>
<!-- dir_2171f7ec022c5423887b07c69b2f5b48 -->
<g id="node10" class="node"><title>dir_2171f7ec022c5423887b07c69b2f5b48</title>
<g id="a_node10"><a xlink:href="dir_2171f7ec022c5423887b07c69b2f5b48.html" target="_top" xlink:title="DataFormats">
<polygon fill="none" stroke="red" points="245.593,-180 171.593,-180 171.593,-144 245.593,-144 245.593,-180"/>
<text text-anchor="middle" x="208.593" y="-159.5" font-family="Helvetica,sans-Serif" font-size="10.00">DataFormats</text>
</a>
</g>
</g>
<!-- dir_eedff867f3c4e67d20b227cb6e0f96ab&#45;&gt;dir_2171f7ec022c5423887b07c69b2f5b48 -->
<g id="edge4" class="edge"><title>dir_eedff867f3c4e67d20b227cb6e0f96ab&#45;&gt;dir_2171f7ec022c5423887b07c69b2f5b48</title>
<path fill="none" stroke="black" d="M126.811,-287.871C142.941,-263.244 172.809,-217.638 191.641,-188.885"/>
<polygon fill="black" stroke="black" points="194.785,-190.472 197.336,-180.189 188.929,-186.637 194.785,-190.472"/>
<g id="a_edge4&#45;headlabel"><a xlink:href="dir_000178_000043.html" target="_top" xlink:title="1">
<text text-anchor="middle" x="195.19" y="-192.535" font-family="Helvetica,sans-Serif" font-size="10.00">1</text>
</a>
</g>
</g>
<!-- dir_d1915fc52ae3a2d414030e7b83b60b4d -->
<g id="node3" class="node"><title>dir_d1915fc52ae3a2d414030e7b83b60b4d</title>
<g id="a_node3"><a xlink:href="dir_d1915fc52ae3a2d414030e7b83b60b4d.html" target="_top" xlink:title="macros">
<polygon fill="white" stroke="red" points="140.593,-468 86.5933,-468 86.5933,-432 140.593,-432 140.593,-468"/>
<text text-anchor="middle" x="113.593" y="-447.5" font-family="Helvetica,sans-Serif" font-size="10.00">macros</text>
</a>
</g>
</g>
<!-- dir_d1915fc52ae3a2d414030e7b83b60b4d&#45;&gt;dir_eedff867f3c4e67d20b227cb6e0f96ab -->
<g id="edge23" class="edge"><title>dir_d1915fc52ae3a2d414030e7b83b60b4d&#45;&gt;dir_eedff867f3c4e67d20b227cb6e0f96ab</title>
<path fill="none" stroke="black" d="M113.835,-431.871C114.175,-407.67 114.802,-363.211 115.207,-334.393"/>
<polygon fill="black" stroke="black" points="118.71,-334.238 115.351,-324.189 111.711,-334.139 118.71,-334.238"/>
<g id="a_edge23&#45;headlabel"><a xlink:href="dir_000191_000178.html" target="_top" xlink:title="5">
<text text-anchor="middle" x="121.498" y="-335.372" font-family="Helvetica,sans-Serif" font-size="10.00">5</text>
</a>
</g>
</g>
<!-- dir_5125ceb2b58f632ed0a3019fe2d5cbbc -->
<g id="node4" class="node"><title>dir_5125ceb2b58f632ed0a3019fe2d5cbbc</title>
<g id="a_node4"><a xlink:href="dir_5125ceb2b58f632ed0a3019fe2d5cbbc.html" target="_top" xlink:title="reconstruction">
<polygon fill="white" stroke="red" points="212.593,-396 134.593,-396 134.593,-360 212.593,-360 212.593,-396"/>
<text text-anchor="middle" x="173.593" y="-375.5" font-family="Helvetica,sans-Serif" font-size="10.00">reconstruction</text>
</a>
</g>
</g>
<!-- dir_d1915fc52ae3a2d414030e7b83b60b4d&#45;&gt;dir_5125ceb2b58f632ed0a3019fe2d5cbbc -->
<g id="edge27" class="edge"><title>dir_d1915fc52ae3a2d414030e7b83b60b4d&#45;&gt;dir_5125ceb2b58f632ed0a3019fe2d5cbbc</title>
<path fill="none" stroke="black" d="M128.425,-431.697C135.618,-423.305 144.39,-413.07 152.284,-403.861"/>
<polygon fill="black" stroke="black" points="155.082,-405.975 158.932,-396.104 149.767,-401.419 155.082,-405.975"/>
<g id="a_edge27&#45;headlabel"><a xlink:href="dir_000191_000194.html" target="_top" xlink:title="2">
<text text-anchor="middle" x="154.898" y="-408.052" font-family="Helvetica,sans-Serif" font-size="10.00">2</text>
</a>
</g>
</g>
<!-- dir_d1915fc52ae3a2d414030e7b83b60b4d&#45;&gt;dir_4ab6b4cc6a7edbff49100e9123df213f -->
<g id="edge24" class="edge"><title>dir_d1915fc52ae3a2d414030e7b83b60b4d&#45;&gt;dir_4ab6b4cc6a7edbff49100e9123df213f</title>
<path fill="none" stroke="black" d="M140.604,-435.929C143.62,-434.564 146.661,-433.228 149.593,-432 232.158,-397.421 285.338,-406.7 319.593,-324 328.438,-302.648 324.532,-294.577 319.593,-272 318.83,-268.51 317.706,-264.957 316.393,-261.5"/>
<polygon fill="black" stroke="black" points="319.527,-259.931 312.335,-252.151 313.105,-262.718 319.527,-259.931"/>
<g id="a_edge24&#45;headlabel"><a xlink:href="dir_000191_000016.html" target="_top" xlink:title="7">
<text text-anchor="middle" x="323.562" y="-259.598" font-family="Helvetica,sans-Serif" font-size="10.00">7</text>
</a>
</g>
</g>
<!-- dir_a597e8e061b11201a1dff411feb10d0b -->
<g id="node7" class="node"><title>dir_a597e8e061b11201a1dff411feb10d0b</title>
<g id="a_node7"><a xlink:href="dir_a597e8e061b11201a1dff411feb10d0b.html" target="_top" xlink:title="TPC">
<polygon fill="none" stroke="red" points="267.593,-108 213.593,-108 213.593,-72 267.593,-72 267.593,-108"/>
<text text-anchor="middle" x="240.593" y="-87.5" font-family="Helvetica,sans-Serif" font-size="10.00">TPC</text>
</a>
</g>
</g>
<!-- dir_d1915fc52ae3a2d414030e7b83b60b4d&#45;&gt;dir_a597e8e061b11201a1dff411feb10d0b -->
<g id="edge25" class="edge"><title>dir_d1915fc52ae3a2d414030e7b83b60b4d&#45;&gt;dir_a597e8e061b11201a1dff411feb10d0b</title>
<path fill="none" stroke="black" d="M140.88,-435.448C143.789,-434.204 146.731,-433.028 149.593,-432 264.644,-390.689 394.593,-429.242 394.593,-307 394.593,-307 394.593,-307 394.593,-233 394.593,-169.34 322.589,-126.345 277.051,-105.52"/>
<polygon fill="black" stroke="black" points="278.332,-102.26 267.771,-101.413 275.499,-108.661 278.332,-102.26"/>
<g id="a_edge25&#45;headlabel"><a xlink:href="dir_000191_000125.html" target="_top" xlink:title="1">
<text text-anchor="middle" x="282.768" y="-98.6179" font-family="Helvetica,sans-Serif" font-size="10.00">1</text>
</a>
</g>
</g>
<!-- dir_d1915fc52ae3a2d414030e7b83b60b4d&#45;&gt;dir_85bf31a2e8d306e7598ffcb73f8df6bf -->
<g id="edge26" class="edge"><title>dir_d1915fc52ae3a2d414030e7b83b60b4d&#45;&gt;dir_85bf31a2e8d306e7598ffcb73f8df6bf</title>
<path fill="none" stroke="black" d="M140.612,-436.01C172.086,-420.839 220.022,-397.595 221.593,-396 238.666,-378.665 249.741,-353.075 256.208,-333.779"/>
<polygon fill="black" stroke="black" points="259.6,-334.659 259.256,-324.07 252.922,-332.562 259.6,-334.659"/>
<g id="a_edge26&#45;headlabel"><a xlink:href="dir_000191_000151.html" target="_top" xlink:title="15">
<text text-anchor="middle" x="261.232" y="-336.439" font-family="Helvetica,sans-Serif" font-size="10.00">15</text>
</a>
</g>
</g>
<!-- dir_d1915fc52ae3a2d414030e7b83b60b4d&#45;&gt;dir_2171f7ec022c5423887b07c69b2f5b48 -->
<g id="edge28" class="edge"><title>dir_d1915fc52ae3a2d414030e7b83b60b4d&#45;&gt;dir_2171f7ec022c5423887b07c69b2f5b48</title>
<path fill="none" stroke="black" d="M86.333,-440.771C65.5927,-432.912 38.4913,-418.825 25.5933,-396 17.7217,-382.07 22.5062,-375.699 25.5933,-360 39.1412,-291.101 39.5787,-264.25 90.5933,-216 110.526,-197.147 138.307,-184.218 161.907,-175.853"/>
<polygon fill="black" stroke="black" points="163.036,-179.165 171.391,-172.651 160.797,-172.533 163.036,-179.165"/>
<g id="a_edge28&#45;headlabel"><a xlink:href="dir_000191_000043.html" target="_top" xlink:title="9">
<text text-anchor="middle" x="160.538" y="-180.505" font-family="Helvetica,sans-Serif" font-size="10.00">9</text>
</a>
</g>
</g>
<!-- dir_5125ceb2b58f632ed0a3019fe2d5cbbc&#45;&gt;dir_eedff867f3c4e67d20b227cb6e0f96ab -->
<g id="edge18" class="edge"><title>dir_5125ceb2b58f632ed0a3019fe2d5cbbc&#45;&gt;dir_eedff867f3c4e67d20b227cb6e0f96ab</title>
<path fill="none" stroke="black" d="M159.256,-359.697C152.303,-351.305 143.823,-341.07 136.193,-331.861"/>
<polygon fill="black" stroke="black" points="138.841,-329.571 129.765,-324.104 133.451,-334.038 138.841,-329.571"/>
<g id="a_edge18&#45;headlabel"><a xlink:href="dir_000194_000178.html" target="_top" xlink:title="5">
<text text-anchor="middle" x="143.32" y="-328.028" font-family="Helvetica,sans-Serif" font-size="10.00">5</text>
</a>
</g>
</g>
<!-- dir_5125ceb2b58f632ed0a3019fe2d5cbbc&#45;&gt;dir_4ab6b4cc6a7edbff49100e9123df213f -->
<g id="edge19" class="edge"><title>dir_5125ceb2b58f632ed0a3019fe2d5cbbc&#45;&gt;dir_4ab6b4cc6a7edbff49100e9123df213f</title>
<path fill="none" stroke="black" d="M212.806,-371.795C241.982,-365.669 280.007,-352.436 299.593,-324 311.893,-306.143 311.616,-281.138 308.851,-262.178"/>
<polygon fill="black" stroke="black" points="312.254,-261.32 307.068,-252.082 305.361,-262.538 312.254,-261.32"/>
<g id="a_edge19&#45;headlabel"><a xlink:href="dir_000194_000016.html" target="_top" xlink:title="15">
<text text-anchor="middle" x="315.675" y="-261.866" font-family="Helvetica,sans-Serif" font-size="10.00">15</text>
</a>
</g>
</g>
<!-- dir_5125ceb2b58f632ed0a3019fe2d5cbbc&#45;&gt;dir_37c90836491b695b472bf98d1be8336b -->
<g id="edge20" class="edge"><title>dir_5125ceb2b58f632ed0a3019fe2d5cbbc&#45;&gt;dir_37c90836491b695b472bf98d1be8336b</title>
<path fill="none" stroke="black" d="M134.314,-360.594C89.5734,-338.972 22.5933,-296.356 22.5933,-235 22.5933,-235 22.5933,-235 22.5933,-161 22.5933,-97.3395 94.5977,-54.3454 140.136,-33.5202"/>
<polygon fill="black" stroke="black" points="141.688,-36.6609 149.416,-29.4134 138.855,-30.2597 141.688,-36.6609"/>
<g id="a_edge20&#45;headlabel"><a xlink:href="dir_000194_000099.html" target="_top" xlink:title="1">
<text text-anchor="middle" x="139.549" y="-38.2119" font-family="Helvetica,sans-Serif" font-size="10.00">1</text>
</a>
</g>
</g>
<!-- dir_5125ceb2b58f632ed0a3019fe2d5cbbc&#45;&gt;dir_85bf31a2e8d306e7598ffcb73f8df6bf -->
<g id="edge21" class="edge"><title>dir_5125ceb2b58f632ed0a3019fe2d5cbbc&#45;&gt;dir_85bf31a2e8d306e7598ffcb73f8df6bf</title>
<path fill="none" stroke="black" d="M195.84,-359.697C207.175,-350.881 221.123,-340.032 233.412,-330.474"/>
<polygon fill="black" stroke="black" points="235.857,-333.007 241.602,-324.104 231.56,-327.481 235.857,-333.007"/>
<g id="a_edge21&#45;headlabel"><a xlink:href="dir_000194_000151.html" target="_top" xlink:title="12">
<text text-anchor="middle" x="234.763" y="-334.955" font-family="Helvetica,sans-Serif" font-size="10.00">12</text>
</a>
</g>
</g>
<!-- dir_5125ceb2b58f632ed0a3019fe2d5cbbc&#45;&gt;dir_2171f7ec022c5423887b07c69b2f5b48 -->
<g id="edge22" class="edge"><title>dir_5125ceb2b58f632ed0a3019fe2d5cbbc&#45;&gt;dir_2171f7ec022c5423887b07c69b2f5b48</title>
<path fill="none" stroke="black" d="M176.398,-359.849C182.465,-322.753 196.849,-234.81 204.161,-190.103"/>
<polygon fill="black" stroke="black" points="207.615,-190.666 205.775,-180.232 200.707,-189.536 207.615,-190.666"/>
<g id="a_edge22&#45;headlabel"><a xlink:href="dir_000194_000043.html" target="_top" xlink:title="14">
<text text-anchor="middle" x="209.837" y="-192.172" font-family="Helvetica,sans-Serif" font-size="10.00">14</text>
</a>
</g>
</g>
<!-- dir_e6f6998399f381fa585023934f76a907 -->
<g id="node5" class="node"><title>dir_e6f6998399f381fa585023934f76a907</title>
<g id="a_node5"><a xlink:href="dir_e6f6998399f381fa585023934f76a907.html" target="_top" xlink:title="simulation">
<polygon fill="white" stroke="red" points="95.8433,-396 35.3433,-396 35.3433,-360 95.8433,-360 95.8433,-396"/>
<text text-anchor="middle" x="65.5933" y="-375.5" font-family="Helvetica,sans-Serif" font-size="10.00">simulation</text>
</a>
</g>
</g>
<!-- dir_e6f6998399f381fa585023934f76a907&#45;&gt;dir_eedff867f3c4e67d20b227cb6e0f96ab -->
<g id="edge13" class="edge"><title>dir_e6f6998399f381fa585023934f76a907&#45;&gt;dir_eedff867f3c4e67d20b227cb6e0f96ab</title>
<path fill="none" stroke="black" d="M77.9528,-359.697C83.826,-351.474 90.9624,-341.483 97.4356,-332.421"/>
<polygon fill="black" stroke="black" points="100.412,-334.276 103.376,-324.104 94.7154,-330.207 100.412,-334.276"/>
<g id="a_edge13&#45;headlabel"><a xlink:href="dir_000111_000178.html" target="_top" xlink:title="5">
<text text-anchor="middle" x="100.633" y="-336.351" font-family="Helvetica,sans-Serif" font-size="10.00">5</text>
</a>
</g>
</g>
<!-- dir_e6f6998399f381fa585023934f76a907&#45;&gt;dir_4ab6b4cc6a7edbff49100e9123df213f -->
<g id="edge14" class="edge"><title>dir_e6f6998399f381fa585023934f76a907&#45;&gt;dir_4ab6b4cc6a7edbff49100e9123df213f</title>
<path fill="none" stroke="black" d="M94.0821,-359.911C110.933,-349.688 132.622,-336.326 151.593,-324 185.913,-301.702 192.264,-292.661 227.593,-272 239.778,-264.874 253.524,-257.825 265.889,-251.821"/>
<polygon fill="black" stroke="black" points="267.516,-254.923 275.027,-247.45 264.495,-248.608 267.516,-254.923"/>
<g id="a_edge14&#45;headlabel"><a xlink:href="dir_000111_000016.html" target="_top" xlink:title="1">
<text text-anchor="middle" x="265.499" y="-256.535" font-family="Helvetica,sans-Serif" font-size="10.00">1</text>
</a>
</g>
</g>
<!-- dir_e6f6998399f381fa585023934f76a907&#45;&gt;dir_37c90836491b695b472bf98d1be8336b -->
<g id="edge15" class="edge"><title>dir_e6f6998399f381fa585023934f76a907&#45;&gt;dir_37c90836491b695b472bf98d1be8336b</title>
<path fill="none" stroke="black" d="M51.134,-359.972C43.5164,-350.089 34.7154,-337.046 29.5933,-324 0.157713,-249.029 -7.20244,-222.979 8.59326,-144 15.392,-110.007 13.7382,-96.1662 38.5933,-72 66.2842,-45.0765 109.107,-31.4919 139.702,-24.8675"/>
<polygon fill="black" stroke="black" points="140.458,-28.2856 149.569,-22.8786 139.075,-21.4236 140.458,-28.2856"/>
<g id="a_edge15&#45;headlabel"><a xlink:href="dir_000111_000099.html" target="_top" xlink:title="1">
<text text-anchor="middle" x="137.495" y="-29.2791" font-family="Helvetica,sans-Serif" font-size="10.00">1</text>
</a>
</g>
</g>
<!-- dir_e6f6998399f381fa585023934f76a907&#45;&gt;dir_85bf31a2e8d306e7598ffcb73f8df6bf -->
<g id="edge16" class="edge"><title>dir_e6f6998399f381fa585023934f76a907&#45;&gt;dir_85bf31a2e8d306e7598ffcb73f8df6bf</title>
<path fill="none" stroke="black" d="M96.0639,-367.734C128.282,-357.729 180.449,-340.94 224.593,-324 225.438,-323.676 226.291,-323.344 227.15,-323.005"/>
<polygon fill="black" stroke="black" points="228.516,-326.228 236.446,-319.202 225.866,-319.749 228.516,-326.228"/>
<g id="a_edge16&#45;headlabel"><a xlink:href="dir_000111_000151.html" target="_top" xlink:title="8">
<text text-anchor="middle" x="226.264" y="-327.717" font-family="Helvetica,sans-Serif" font-size="10.00">8</text>
</a>
</g>
</g>
<!-- dir_e6f6998399f381fa585023934f76a907&#45;&gt;dir_2171f7ec022c5423887b07c69b2f5b48 -->
<g id="edge17" class="edge"><title>dir_e6f6998399f381fa585023934f76a907&#45;&gt;dir_2171f7ec022c5423887b07c69b2f5b48</title>
<path fill="none" stroke="black" d="M64.2359,-359.846C63.2928,-338.047 64.3151,-299.907 79.5933,-272 100.097,-234.548 139.017,-204.434 168.766,-185.428"/>
<polygon fill="black" stroke="black" points="170.64,-188.384 177.281,-180.128 166.941,-182.441 170.64,-188.384"/>
<g id="a_edge17&#45;headlabel"><a xlink:href="dir_000111_000043.html" target="_top" xlink:title="3">
<text text-anchor="middle" x="169.089" y="-190.194" font-family="Helvetica,sans-Serif" font-size="10.00">3</text>
</a>
</g>
</g>
<!-- dir_4ab6b4cc6a7edbff49100e9123df213f&#45;&gt;dir_2171f7ec022c5423887b07c69b2f5b48 -->
<g id="edge5" class="edge"><title>dir_4ab6b4cc6a7edbff49100e9123df213f&#45;&gt;dir_2171f7ec022c5423887b07c69b2f5b48</title>
<path fill="none" stroke="black" d="M274.991,-216.765C261.878,-207.753 246.41,-196.385 233.64,-186.426"/>
<polygon fill="black" stroke="black" points="235.702,-183.594 225.691,-180.124 231.353,-189.079 235.702,-183.594"/>
<g id="a_edge5&#45;headlabel"><a xlink:href="dir_000016_000043.html" target="_top" xlink:title="1">
<text text-anchor="middle" x="240.282" y="-181.102" font-family="Helvetica,sans-Serif" font-size="10.00">1</text>
</a>
</g>
</g>
<!-- dir_a597e8e061b11201a1dff411feb10d0b&#45;&gt;dir_4ab6b4cc6a7edbff49100e9123df213f -->
<g id="edge6" class="edge"><title>dir_a597e8e061b11201a1dff411feb10d0b&#45;&gt;dir_4ab6b4cc6a7edbff49100e9123df213f</title>
<path fill="none" stroke="black" d="M248.098,-108.189C258.773,-132.638 278.436,-177.673 290.995,-206.436"/>
<polygon fill="black" stroke="black" points="287.906,-208.107 295.115,-215.871 294.321,-205.306 287.906,-208.107"/>
<g id="a_edge6&#45;headlabel"><a xlink:href="dir_000125_000016.html" target="_top" xlink:title="6">
<text text-anchor="middle" x="283.865" y="-203.449" font-family="Helvetica,sans-Serif" font-size="10.00">6</text>
</a>
</g>
</g>
<!-- dir_a597e8e061b11201a1dff411feb10d0b&#45;&gt;dir_37c90836491b695b472bf98d1be8336b -->
<g id="edge7" class="edge"><title>dir_a597e8e061b11201a1dff411feb10d0b&#45;&gt;dir_37c90836491b695b472bf98d1be8336b</title>
<path fill="none" stroke="black" d="M224.773,-71.6966C217.023,-63.2198 207.554,-52.8636 199.069,-43.5826"/>
<polygon fill="black" stroke="black" points="201.562,-41.1229 192.232,-36.1043 196.396,-45.8464 201.562,-41.1229"/>
<g id="a_edge7&#45;headlabel"><a xlink:href="dir_000125_000099.html" target="_top" xlink:title="1">
<text text-anchor="middle" x="206.083" y="-39.36" font-family="Helvetica,sans-Serif" font-size="10.00">1</text>
</a>
</g>
</g>
<!-- dir_a597e8e061b11201a1dff411feb10d0b&#45;&gt;dir_2171f7ec022c5423887b07c69b2f5b48 -->
<g id="edge8" class="edge"><title>dir_a597e8e061b11201a1dff411feb10d0b&#45;&gt;dir_2171f7ec022c5423887b07c69b2f5b48</title>
<path fill="none" stroke="black" d="M238.669,-108.104C235.842,-116.129 231.609,-125.871 227.129,-134.797"/>
<polygon fill="black" stroke="black" points="224.003,-133.221 222.419,-143.697 230.19,-136.495 224.003,-133.221"/>
<g id="a_edge8&#45;headlabel"><a xlink:href="dir_000125_000043.html" target="_top" xlink:title="50">
<text text-anchor="middle" x="223.175" y="-126.216" font-family="Helvetica,sans-Serif" font-size="10.00">50</text>
</a>
</g>
</g>
<!-- dir_37c90836491b695b472bf98d1be8336b&#45;&gt;dir_4ab6b4cc6a7edbff49100e9123df213f -->
<g id="edge9" class="edge"><title>dir_37c90836491b695b472bf98d1be8336b&#45;&gt;dir_4ab6b4cc6a7edbff49100e9123df213f</title>
<path fill="none" stroke="black" d="M203.627,-25.9678C226.783,-33.4052 259.082,-47.5637 276.593,-72 305.091,-111.769 306.963,-171.205 305.17,-205.638"/>
<polygon fill="black" stroke="black" points="301.66,-205.672 304.488,-215.882 308.645,-206.137 301.66,-205.672"/>
<g id="a_edge9&#45;headlabel"><a xlink:href="dir_000099_000016.html" target="_top" xlink:title="5">
<text text-anchor="middle" x="299.066" y="-199.397" font-family="Helvetica,sans-Serif" font-size="10.00">5</text>
</a>
</g>
</g>
<!-- dir_37c90836491b695b472bf98d1be8336b&#45;&gt;dir_2171f7ec022c5423887b07c69b2f5b48 -->
<g id="edge10" class="edge"><title>dir_37c90836491b695b472bf98d1be8336b&#45;&gt;dir_2171f7ec022c5423887b07c69b2f5b48</title>
<path fill="none" stroke="black" d="M185.058,-36.1893C193.074,-60.4244 203.381,-104.888 207.89,-133.679"/>
<polygon fill="black" stroke="black" points="204.465,-134.454 209.318,-143.871 211.397,-133.483 204.465,-134.454"/>
<g id="a_edge10&#45;headlabel"><a xlink:href="dir_000099_000043.html" target="_top" xlink:title="5">
<text text-anchor="middle" x="201.154" y="-128.787" font-family="Helvetica,sans-Serif" font-size="10.00">5</text>
</a>
</g>
</g>
<!-- dir_85bf31a2e8d306e7598ffcb73f8df6bf&#45;&gt;dir_4ab6b4cc6a7edbff49100e9123df213f -->
<g id="edge11" class="edge"><title>dir_85bf31a2e8d306e7598ffcb73f8df6bf&#45;&gt;dir_4ab6b4cc6a7edbff49100e9123df213f</title>
<path fill="none" stroke="black" d="M273.234,-287.697C277.72,-279.644 283.152,-269.894 288.117,-260.982"/>
<polygon fill="black" stroke="black" points="291.254,-262.544 293.064,-252.104 285.139,-259.137 291.254,-262.544"/>
<g id="a_edge11&#45;headlabel"><a xlink:href="dir_000151_000016.html" target="_top" xlink:title="2">
<text text-anchor="middle" x="291.985" y="-264.565" font-family="Helvetica,sans-Serif" font-size="10.00">2</text>
</a>
</g>
</g>
<!-- dir_85bf31a2e8d306e7598ffcb73f8df6bf&#45;&gt;dir_2171f7ec022c5423887b07c69b2f5b48 -->
<g id="edge12" class="edge"><title>dir_85bf31a2e8d306e7598ffcb73f8df6bf&#45;&gt;dir_2171f7ec022c5423887b07c69b2f5b48</title>
<path fill="none" stroke="black" d="M256.959,-287.871C247.503,-263.457 230.061,-218.426 218.91,-189.635"/>
<polygon fill="black" stroke="black" points="222.127,-188.25 215.251,-180.189 215.599,-190.778 222.127,-188.25"/>
<g id="a_edge12&#45;headlabel"><a xlink:href="dir_000151_000043.html" target="_top" xlink:title="11">
<text text-anchor="middle" x="226.073" y="-188.077" font-family="Helvetica,sans-Serif" font-size="10.00">11</text>
</a>
</g>
</g>
<!-- dir_2171f7ec022c5423887b07c69b2f5b48&#45;&gt;dir_4ab6b4cc6a7edbff49100e9123df213f -->
<g id="edge29" class="edge"><title>dir_2171f7ec022c5423887b07c69b2f5b48&#45;&gt;dir_4ab6b4cc6a7edbff49100e9123df213f</title>
<path fill="none" stroke="black" d="M237.457,-180.104C250.175,-188.889 264.912,-199.732 277.207,-209.309"/>
<polygon fill="black" stroke="black" points="275.26,-212.233 285.273,-215.697 279.606,-206.745 275.26,-212.233"/>
<g id="a_edge29&#45;headlabel"><a xlink:href="dir_000043_000016.html" target="_top" xlink:title="11">
<text text-anchor="middle" x="270.68" y="-209.727" font-family="Helvetica,sans-Serif" font-size="10.00">11</text>
</a>
</g>
</g>
<!-- dir_2171f7ec022c5423887b07c69b2f5b48&#45;&gt;dir_a597e8e061b11201a1dff411feb10d0b -->
<g id="edge30" class="edge"><title>dir_2171f7ec022c5423887b07c69b2f5b48&#45;&gt;dir_a597e8e061b11201a1dff411feb10d0b</title>
<path fill="none" stroke="black" d="M210.588,-143.697C213.438,-135.644 217.685,-125.894 222.169,-116.982"/>
<polygon fill="black" stroke="black" points="225.284,-118.578 226.879,-108.104 219.1,-115.298 225.284,-118.578"/>
<g id="a_edge30&#45;headlabel"><a xlink:href="dir_000043_000125.html" target="_top" xlink:title="2">
<text text-anchor="middle" x="226.108" y="-120.584" font-family="Helvetica,sans-Serif" font-size="10.00">2</text>
</a>
</g>
</g>
<!-- dir_2171f7ec022c5423887b07c69b2f5b48&#45;&gt;dir_37c90836491b695b472bf98d1be8336b -->
<g id="edge31" class="edge"><title>dir_2171f7ec022c5423887b07c69b2f5b48&#45;&gt;dir_37c90836491b695b472bf98d1be8336b</title>
<path fill="none" stroke="black" d="M200.149,-143.871C192.137,-119.67 181.826,-75.2108 177.307,-46.3932"/>
<polygon fill="black" stroke="black" points="180.731,-45.6061 175.876,-36.1893 173.799,-46.5785 180.731,-45.6061"/>
<g id="a_edge31&#45;headlabel"><a xlink:href="dir_000043_000099.html" target="_top" xlink:title="1">
<text text-anchor="middle" x="184.042" y="-46.2714" font-family="Helvetica,sans-Serif" font-size="10.00">1</text>
</a>
</g>
</g>
</g>
</svg>
        <g id="navigator" transform="translate(0 0)" fill="#404254">
                <rect fill="#f2f5e9" fill-opacity="0.5" stroke="#606060" stroke-width=".5" x="0" y="0" width="60" height="60"/>
                <use id="zoomplus" xlink:href="#zoomPlus" x="17" y="9" onmousedown="handleZoom(evt,'in')"/>
                <use id="zoomminus" xlink:href="#zoomMin" x="42" y="9" onmousedown="handleZoom(evt,'out')"/>
                <use id="reset" xlink:href="#resetDef" x="30" y="36" onmousedown="handleReset()"/>
                <g id="arrowUp" xlink:href="#dirArrow" transform="translate(30 24)" onmousedown="handlePan(0,-1)">
                  <use xlink:href="#rim" fill="#404040">
                        <set attributeName="fill" to="#808080" begin="arrowUp.mouseover" end="arrowUp.mouseout"/>
                  </use>
                  <path fill="none" stroke="white" stroke-width="1.5" d="M0,-3.0v7 M-2.5,-0.5L0,-3.0L2.5,-0.5"/>
                </g>
                <g id="arrowRight" xlink:href="#dirArrow" transform="rotate(90) translate(36 -43)" onmousedown="handlePan(1,0)">
                  <use xlink:href="#rim" fill="#404040">
                        <set attributeName="fill" to="#808080" begin="arrowRight.mouseover" end="arrowRight.mouseout"/>
                  </use>
                  <path fill="none" stroke="white" stroke-width="1.5" d="M0,-3.0v7 M-2.5,-0.5L0,-3.0L2.5,-0.5"/>
                </g>
                <g id="arrowDown" xlink:href="#dirArrow" transform="rotate(180) translate(-30 -48)" onmousedown="handlePan(0,1)">
                  <use xlink:href="#rim" fill="#404040">
                        <set attributeName="fill" to="#808080" begin="arrowDown.mouseover" end="arrowDown.mouseout"/>
                  </use>
                  <path fill="none" stroke="white" stroke-width="1.5" d="M0,-3.0v7 M-2.5,-0.5L0,-3.0L2.5,-0.5"/>
                </g>
                <g id="arrowLeft" xlink:href="#dirArrow" transform="rotate(270) translate(-36 17)" onmousedown="handlePan(-1,0)">
                  <use xlink:href="#rim" fill="#404040">
                        <set attributeName="fill" to="#808080" begin="arrowLeft.mouseover" end="arrowLeft.mouseout"/>
                  </use>
                  <path fill="none" stroke="white" stroke-width="1.5" d="M0,-3.0v7 M-2.5,-0.5L0,-3.0L2.5,-0.5"/>
                </g>
        </g>
        <svg viewBox="0 0 15 15" width="100%" height="30px" preserveAspectRatio="xMaxYMin meet">
         <g id="arrow_out" transform="scale(0.3 0.3)">
          <a xlink:href="dir_871aad07cbf94d6cd423c3d8d5bdf4e9_dep_org.svg" target="_base">
           <rect id="button" ry="5" rx="5" y="6" x="6" height="38" width="38"
                fill="#f2f5e9" fill-opacity="0.5" stroke="#606060" stroke-width="1.0"/>
           <path id="arrow"
             d="M 11.500037,31.436501 C 11.940474,20.09759 22.043105,11.32322 32.158766,21.979434 L 37.068811,17.246167 C 37.068811,17.246167 37.088388,32 37.088388,32 L 22.160133,31.978069 C 22.160133,31.978069 26.997745,27.140456 26.997745,27.140456 C 18.528582,18.264221 13.291696,25.230495 11.500037,31.436501 z"
             style="fill:#404040;"/>
          </a>
         </g>
        </svg>
</svg>
