<?xml version="1.0" encoding="UTF-8" standalone="no"?>
<!DOCTYPE svg PUBLIC "-//W3C//DTD SVG 1.1//EN"
 "http://www.w3.org/Graphics/SVG/1.1/DTD/svg11.dtd">
<!-- Generated by graphviz version 2.36.0 (20140111.2315)
 -->
<!-- Title: /home/travis/build/AliceO2Group/AliceO2/DataFormats Pages: 1 -->
<!--zoomable 276 -->
<svg id="main" version="1.1" xmlns="http://www.w3.org/2000/svg" xmlns:xlink="http://www.w3.org/1999/xlink" xml:space="preserve" onload="init(evt)">
<style type="text/css"><![CDATA[
.edge:hover path { stroke: red; }
.edge:hover polygon { stroke: red; fill: red; }
]]></style>
<script type="text/javascript"><![CDATA[
var edges = document.getElementsByTagName('g');
if (edges && edges.length) {
  for (var i=0;i<edges.length;i++) {
    if (edges[i].id.substr(0,4)=='edge') {
      edges[i].setAttribute('class','edge');
    }
  }
}
]]></script>
        <defs>
                <circle id="rim" cx="0" cy="0" r="7"/>
                <circle id="rim2" cx="0" cy="0" r="3.5"/>
                <g id="zoomPlus">
                        <use xlink:href="#rim" fill="#404040">
                                <set attributeName="fill" to="#808080" begin="zoomplus.mouseover" end="zoomplus.mouseout"/>
                        </use>
                        <path d="M-4,0h8M0,-4v8" fill="none" stroke="white" stroke-width="1.5" pointer-events="none"/>
                </g>
                <g id="zoomMin">
                        <use xlink:href="#rim" fill="#404040">
                                <set attributeName="fill" to="#808080" begin="zoomminus.mouseover" end="zoomminus.mouseout"/>
                        </use>
                        <path d="M-4,0h8" fill="none" stroke="white" stroke-width="1.5" pointer-events="none"/>
                </g>
                <g id="dirArrow">
                        <path fill="none" stroke="white" stroke-width="1.5" d="M0,-3.0v7 M-2.5,-0.5L0,-3.0L2.5,-0.5"/>
                </g>
               <g id="resetDef">
                       <use xlink:href="#rim2" fill="#404040">
                               <set attributeName="fill" to="#808080" begin="reset.mouseover" end="reset.mouseout"/>
                       </use>
               </g>
        </defs>

<script type="text/javascript">
var viewWidth = 644;
var viewHeight = 276;
var sectionId = 'dynsection-0';
</script>
<script xlink:href="svgpan.js"/>
<svg id="graph" class="graph">
<g id="viewport">
<title>/home/travis/build/AliceO2Group/AliceO2/DataFormats</title>
<g id="clust1" class="cluster"><title>clusterdir_2171f7ec022c5423887b07c69b2f5b48</title>
<g id="a_clust1"><a xlink:href="dir_2171f7ec022c5423887b07c69b2f5b48.html" target="_top">
<polygon fill="#eeeeff" stroke="black" points="64,-8 64,-204 569,-204 569,-8 64,-8"/>
</a>
</g>
</g>
<!-- dir_2171f7ec022c5423887b07c69b2f5b48 -->
<g id="node1" class="node"><title>dir_2171f7ec022c5423887b07c69b2f5b48</title>
<text text-anchor="middle" x="524" y="-175.5" font-family="Helvetica,sans-Serif" font-size="10.00">DataFormats</text>
</g>
<!-- dir_7924ba4398ae4560cd37376e44666c6d -->
<g id="node2" class="node"><title>dir_7924ba4398ae4560cd37376e44666c6d</title>
<g id="a_node2"><a xlink:href="dir_7924ba4398ae4560cd37376e44666c6d.html" target="_top" xlink:title="common">
<polygon fill="white" stroke="red" points="469,-196 415,-196 415,-160 469,-160 469,-196"/>
<text text-anchor="middle" x="442" y="-175.5" font-family="Helvetica,sans-Serif" font-size="10.00">common</text>
</a>
</g>
</g>
<!-- dir_2801adc79bf3c286b1b479858d2cade4 -->
<g id="node3" class="node"><title>dir_2801adc79bf3c286b1b479858d2cade4</title>
<g id="a_node3"><a xlink:href="dir_2801adc79bf3c286b1b479858d2cade4.html" target="_top" xlink:title="Detectors">
<polygon fill="white" stroke="red" points="559.25,-124 500.75,-124 500.75,-88 559.25,-88 559.25,-124"/>
<text text-anchor="middle" x="530" y="-103.5" font-family="Helvetica,sans-Serif" font-size="10.00">Detectors</text>
</a>
</g>
</g>
<!-- dir_047746f9f311f49446db9474b7431d0d -->
<g id="node8" class="node"><title>dir_047746f9f311f49446db9474b7431d0d</title>
<g id="a_node8"><a xlink:href="dir_047746f9f311f49446db9474b7431d0d.html" target="_top" xlink:title="simulation">
<polygon fill="white" stroke="red" points="560.25,-52 499.75,-52 499.75,-16 560.25,-16 560.25,-52"/>
<text text-anchor="middle" x="530" y="-31.5" font-family="Helvetica,sans-Serif" font-size="10.00">simulation</text>
</a>
</g>
</g>
<!-- dir_2801adc79bf3c286b1b479858d2cade4&#45;&gt;dir_047746f9f311f49446db9474b7431d0d -->
<g id="edge6" class="edge"><title>dir_2801adc79bf3c286b1b479858d2cade4&#45;&gt;dir_047746f9f311f49446db9474b7431d0d</title>
<path fill="none" stroke="black" d="M524.084,-87.6966C523.289,-79.9827 523.062,-70.7125 523.405,-62.1124"/>
<polygon fill="black" stroke="black" points="526.898,-62.3243 524.105,-52.1043 519.915,-61.8356 526.898,-62.3243"/>
<g id="a_edge6&#45;headlabel"><a xlink:href="dir_000053_000089.html" target="_top" xlink:title="2">
<text text-anchor="middle" x="529.48" y="-63.6083" font-family="Helvetica,sans-Serif" font-size="10.00">2</text>
</a>
</g>
</g>
<!-- dir_4ab6b4cc6a7edbff49100e9123df213f -->
<g id="node10" class="node"><title>dir_4ab6b4cc6a7edbff49100e9123df213f</title>
<g id="a_node10"><a xlink:href="dir_4ab6b4cc6a7edbff49100e9123df213f.html" target="_top" xlink:title="Common">
<polygon fill="none" stroke="red" points="55.5,-52 0.5,-52 0.5,-16 55.5,-16 55.5,-52"/>
<text text-anchor="middle" x="28" y="-31.5" font-family="Helvetica,sans-Serif" font-size="10.00">Common</text>
</a>
</g>
</g>
<!-- dir_2801adc79bf3c286b1b479858d2cade4&#45;&gt;dir_4ab6b4cc6a7edbff49100e9123df213f -->
<g id="edge4" class="edge"><title>dir_2801adc79bf3c286b1b479858d2cade4&#45;&gt;dir_4ab6b4cc6a7edbff49100e9123df213f</title>
<path fill="none" stroke="black" d="M500.604,-102.331C409.576,-93.9818 134.549,-68.0951 65.4963,-52.9876"/>
<polygon fill="black" stroke="black" points="66.2102,-49.5577 55.6555,-50.4793 64.4812,-56.3408 66.2102,-49.5577"/>
<g id="a_edge4&#45;headlabel"><a xlink:href="dir_000053_000016.html" target="_top" xlink:title="3">
<text text-anchor="middle" x="70.3947" y="-45.1941" font-family="Helvetica,sans-Serif" font-size="10.00">3</text>
</a>
</g>
</g>
<!-- dir_051dca18e802f8e9474f2e30d29c04e0 -->
<g id="node11" class="node"><title>dir_051dca18e802f8e9474f2e30d29c04e0</title>
<g id="a_node11"><a xlink:href="dir_051dca18e802f8e9474f2e30d29c04e0.html" target="_top" xlink:title="Detectors">
<polygon fill="none" stroke="red" points="544.25,-268 485.75,-268 485.75,-232 544.25,-232 544.25,-268"/>
<text text-anchor="middle" x="515" y="-247.5" font-family="Helvetica,sans-Serif" font-size="10.00">Detectors</text>
</a>
</g>
</g>
<!-- dir_2801adc79bf3c286b1b479858d2cade4&#45;&gt;dir_051dca18e802f8e9474f2e30d29c04e0 -->
<g id="edge5" class="edge"><title>dir_2801adc79bf3c286b1b479858d2cade4&#45;&gt;dir_051dca18e802f8e9474f2e30d29c04e0</title>
<path fill="none" stroke="black" d="M547.733,-124.401C556.239,-134.002 565.532,-146.664 570,-160 576.212,-178.543 578.374,-186.328 570,-204 565.965,-212.515 559.442,-219.955 552.275,-226.202"/>
<polygon fill="black" stroke="black" points="549.988,-223.55 544.333,-232.509 554.341,-229.032 549.988,-223.55"/>
<g id="a_edge5&#45;headlabel"><a xlink:href="dir_000053_000076.html" target="_top" xlink:title="2">
<text text-anchor="middle" x="551.037" y="-216.591" font-family="Helvetica,sans-Serif" font-size="10.00">2</text>
</a>
</g>
</g>
<!-- dir_183e7c4434404fe9096e1bd8673e1fcf -->
<g id="node4" class="node"><title>dir_183e7c4434404fe9096e1bd8673e1fcf</title>
<g id="a_node4"><a xlink:href="dir_183e7c4434404fe9096e1bd8673e1fcf.html" target="_top" xlink:title="Headers">
<polygon fill="white" stroke="red" points="319,-124 265,-124 265,-88 319,-88 319,-124"/>
<text text-anchor="middle" x="292" y="-103.5" font-family="Helvetica,sans-Serif" font-size="10.00">Headers</text>
</a>
</g>
</g>
<!-- dir_dfa95816b29f32ea9733fcc47ad2b363 -->
<g id="node5" class="node"><title>dir_dfa95816b29f32ea9733fcc47ad2b363</title>
<g id="a_node5"><a xlink:href="dir_dfa95816b29f32ea9733fcc47ad2b363.html" target="_top" xlink:title="Legacy">
<polygon fill="white" stroke="red" points="397,-196 343,-196 343,-160 397,-160 397,-196"/>
<text text-anchor="middle" x="370" y="-175.5" font-family="Helvetica,sans-Serif" font-size="10.00">Legacy</text>
</a>
</g>
</g>
<!-- dir_d462256f2f72f303235b8fb5b5a9f479 -->
<g id="node6" class="node"><title>dir_d462256f2f72f303235b8fb5b5a9f479</title>
<g id="a_node6"><a xlink:href="dir_d462256f2f72f303235b8fb5b5a9f479.html" target="_top" xlink:title="Parameters">
<polygon fill="white" stroke="red" points="240.25,-196 173.75,-196 173.75,-160 240.25,-160 240.25,-196"/>
<text text-anchor="middle" x="207" y="-175.5" font-family="Helvetica,sans-Serif" font-size="10.00">Parameters</text>
</a>
</g>
</g>
<!-- dir_d462256f2f72f303235b8fb5b5a9f479&#45;&gt;dir_2801adc79bf3c286b1b479858d2cade4 -->
<g id="edge17" class="edge"><title>dir_d462256f2f72f303235b8fb5b5a9f479&#45;&gt;dir_2801adc79bf3c286b1b479858d2cade4</title>
<path fill="none" stroke="black" d="M240.591,-163.022C243.745,-161.922 246.916,-160.893 250,-160 334.157,-135.638 435.867,-119.619 490.575,-112.059"/>
<polygon fill="black" stroke="black" points="491.113,-115.518 500.55,-110.702 490.17,-108.582 491.113,-115.518"/>
<g id="a_edge17&#45;headlabel"><a xlink:href="dir_000069_000053.html" target="_top" xlink:title="1">
<text text-anchor="middle" x="487.934" y="-116.316" font-family="Helvetica,sans-Serif" font-size="10.00">1</text>
</a>
</g>
</g>
<!-- dir_d462256f2f72f303235b8fb5b5a9f479&#45;&gt;dir_4ab6b4cc6a7edbff49100e9123df213f -->
<g id="edge16" class="edge"><title>dir_d462256f2f72f303235b8fb5b5a9f479&#45;&gt;dir_4ab6b4cc6a7edbff49100e9123df213f</title>
<path fill="none" stroke="black" d="M189.446,-159.767C170.173,-141.2 137.974,-111.2 108,-88 94.1436,-77.2752 78.1701,-66.4172 64.1576,-57.3455"/>
<polygon fill="black" stroke="black" points="66.0318,-54.3896 55.7227,-51.9451 62.2573,-60.2848 66.0318,-54.3896"/>
<g id="a_edge16&#45;headlabel"><a xlink:href="dir_000069_000016.html" target="_top" xlink:title="3">
<text text-anchor="middle" x="70.59" y="-51.4366" font-family="Helvetica,sans-Serif" font-size="10.00">3</text>
</a>
</g>
</g>
<!-- dir_d269712cc31e133b892a3b3f6424741a -->
<g id="node7" class="node"><title>dir_d269712cc31e133b892a3b3f6424741a</title>
<g id="a_node7"><a xlink:href="dir_d269712cc31e133b892a3b3f6424741a.html" target="_top" xlink:title="Reconstruction">
<polygon fill="white" stroke="red" points="155.25,-196 72.75,-196 72.75,-160 155.25,-160 155.25,-196"/>
<text text-anchor="middle" x="114" y="-175.5" font-family="Helvetica,sans-Serif" font-size="10.00">Reconstruction</text>
</a>
</g>
</g>
<!-- dir_d269712cc31e133b892a3b3f6424741a&#45;&gt;dir_2801adc79bf3c286b1b479858d2cade4 -->
<g id="edge2" class="edge"><title>dir_d269712cc31e133b892a3b3f6424741a&#45;&gt;dir_2801adc79bf3c286b1b479858d2cade4</title>
<path fill="none" stroke="black" d="M155.299,-162.305C158.226,-161.465 161.147,-160.685 164,-160 281.034,-131.883 422.935,-116.524 490.52,-110.316"/>
<polygon fill="black" stroke="black" points="491.068,-113.781 500.713,-109.398 490.44,-106.809 491.068,-113.781"/>
<g id="a_edge2&#45;headlabel"><a xlink:href="dir_000073_000053.html" target="_top" xlink:title="1">
<text text-anchor="middle" x="487.742" y="-114.431" font-family="Helvetica,sans-Serif" font-size="10.00">1</text>
</a>
</g>
</g>
<!-- dir_d269712cc31e133b892a3b3f6424741a&#45;&gt;dir_4ab6b4cc6a7edbff49100e9123df213f -->
<g id="edge1" class="edge"><title>dir_d269712cc31e133b892a3b3f6424741a&#45;&gt;dir_4ab6b4cc6a7edbff49100e9123df213f</title>
<path fill="none" stroke="black" d="M103.626,-159.871C88.711,-135.244 61.0904,-89.6377 43.6766,-60.8845"/>
<polygon fill="black" stroke="black" points="46.5846,-58.9297 38.4104,-52.1893 40.597,-62.556 46.5846,-58.9297"/>
<g id="a_edge1&#45;headlabel"><a xlink:href="dir_000073_000016.html" target="_top" xlink:title="4">
<text text-anchor="middle" x="50.8752" y="-58.0336" font-family="Helvetica,sans-Serif" font-size="10.00">4</text>
</a>
</g>
</g>
<!-- dir_047746f9f311f49446db9474b7431d0d&#45;&gt;dir_2801adc79bf3c286b1b479858d2cade4 -->
<g id="edge14" class="edge"><title>dir_047746f9f311f49446db9474b7431d0d&#45;&gt;dir_2801adc79bf3c286b1b479858d2cade4</title>
<path fill="none" stroke="black" d="M535.895,-52.1043C536.701,-59.7913 536.937,-69.0537 536.604,-77.6651"/>
<polygon fill="black" stroke="black" points="533.109,-77.4805 535.916,-87.6966 540.092,-77.9597 533.109,-77.4805"/>
<g id="a_edge14&#45;headlabel"><a xlink:href="dir_000089_000053.html" target="_top" xlink:title="4">
<text text-anchor="middle" x="530.522" y="-71.2" font-family="Helvetica,sans-Serif" font-size="10.00">4</text>
</a>
</g>
</g>
<!-- dir_047746f9f311f49446db9474b7431d0d&#45;&gt;dir_4ab6b4cc6a7edbff49100e9123df213f -->
<g id="edge13" class="edge"><title>dir_047746f9f311f49446db9474b7431d0d&#45;&gt;dir_4ab6b4cc6a7edbff49100e9123df213f</title>
<path fill="none" stroke="black" d="M499.446,-34C355.076,-34 210.707,-34 66.3379,-34"/>
<polygon fill="black" stroke="black" points="65.9434,-30.5001 55.9434,-34 65.9433,-37.5001 65.9434,-30.5001"/>
<g id="a_edge13&#45;headlabel"><a xlink:href="dir_000089_000016.html" target="_top" xlink:title="1">
<text text-anchor="middle" x="69.538" y="-25.1607" font-family="Helvetica,sans-Serif" font-size="10.00">1</text>
</a>
</g>
</g>
<!-- dir_047746f9f311f49446db9474b7431d0d&#45;&gt;dir_051dca18e802f8e9474f2e30d29c04e0 -->
<g id="edge15" class="edge"><title>dir_047746f9f311f49446db9474b7431d0d&#45;&gt;dir_051dca18e802f8e9474f2e30d29c04e0</title>
<path fill="none" stroke="black" d="M560.403,-49.9788C575.671,-58.9894 593.177,-71.8552 604,-88 633.014,-131.281 649.758,-160.549 621,-204 606.228,-226.319 577.918,-237.601 554.268,-243.286"/>
<polygon fill="black" stroke="black" points="553.511,-239.869 544.471,-245.396 554.984,-246.712 553.511,-239.869"/>
<g id="a_edge15&#45;headlabel"><a xlink:href="dir_000089_000076.html" target="_top" xlink:title="1">
<text text-anchor="middle" x="556.427" y="-233.837" font-family="Helvetica,sans-Serif" font-size="10.00">1</text>
</a>
</g>
</g>
<!-- dir_938f0f489a9afdd9521c88acbea7d897 -->
<g id="node9" class="node"><title>dir_938f0f489a9afdd9521c88acbea7d897</title>
<g id="a_node9"><a xlink:href="dir_938f0f489a9afdd9521c88acbea7d897.html" target="_top" xlink:title="TimeFrame">
<polygon fill="white" stroke="red" points="325,-196 259,-196 259,-160 325,-160 325,-196"/>
<text text-anchor="middle" x="292" y="-175.5" font-family="Helvetica,sans-Serif" font-size="10.00">TimeFrame</text>
</a>
</g>
</g>
<!-- dir_938f0f489a9afdd9521c88acbea7d897&#45;&gt;dir_183e7c4434404fe9096e1bd8673e1fcf -->
<g id="edge18" class="edge"><title>dir_938f0f489a9afdd9521c88acbea7d897&#45;&gt;dir_183e7c4434404fe9096e1bd8673e1fcf</title>
<path fill="none" stroke="black" d="M292,-159.697C292,-151.983 292,-142.712 292,-134.112"/>
<polygon fill="black" stroke="black" points="295.5,-134.104 292,-124.104 288.5,-134.104 295.5,-134.104"/>
<g id="a_edge18&#45;headlabel"><a xlink:href="dir_000094_000047.html" target="_top" xlink:title="2">
<text text-anchor="middle" x="298.339" y="-135.199" font-family="Helvetica,sans-Serif" font-size="10.00">2</text>
</a>
</g>
</g>
<!-- dir_4ab6b4cc6a7edbff49100e9123df213f&#45;&gt;dir_d269712cc31e133b892a3b3f6424741a -->
<g id="edge3" class="edge"><title>dir_4ab6b4cc6a7edbff49100e9123df213f&#45;&gt;dir_d269712cc31e133b892a3b3f6424741a</title>
<path fill="none" stroke="black" d="M51.4933,-52.1756C62.984,-61.6263 76.1993,-74.2202 85,-88 97.1214,-106.979 104.617,-131.489 108.944,-149.981"/>
<polygon fill="black" stroke="black" points="105.539,-150.796 111.083,-159.824 112.379,-149.309 105.539,-150.796"/>
<g id="a_edge3&#45;headlabel"><a xlink:href="dir_000016_000073.html" target="_top" xlink:title="1">
<text text-anchor="middle" x="102.001" y="-145.386" font-family="Helvetica,sans-Serif" font-size="10.00">1</text>
</a>
</g>
</g>
<!-- dir_051dca18e802f8e9474f2e30d29c04e0&#45;&gt;dir_7924ba4398ae4560cd37376e44666c6d -->
<g id="edge12" class="edge"><title>dir_051dca18e802f8e9474f2e30d29c04e0&#45;&gt;dir_7924ba4398ae4560cd37376e44666c6d</title>
<path fill="none" stroke="black" d="M496.955,-231.697C487.938,-223.05 476.882,-212.449 467.057,-203.027"/>
<polygon fill="black" stroke="black" points="469.478,-200.499 459.837,-196.104 464.633,-205.552 469.478,-200.499"/>
<g id="a_edge12&#45;headlabel"><a xlink:href="dir_000076_000044.html" target="_top" xlink:title="5">
<text text-anchor="middle" x="474.037" y="-198.438" font-family="Helvetica,sans-Serif" font-size="10.00">5</text>
</a>
</g>
</g>
<!-- dir_051dca18e802f8e9474f2e30d29c04e0&#45;&gt;dir_2801adc79bf3c286b1b479858d2cade4 -->
<g id="edge9" class="edge"><title>dir_051dca18e802f8e9474f2e30d29c04e0&#45;&gt;dir_2801adc79bf3c286b1b479858d2cade4</title>
<path fill="none" stroke="black" d="M544.475,-238.436C559.799,-231.264 577.137,-220.111 586,-204 595.426,-186.866 593.731,-177.962 586,-160 581.211,-148.874 572.81,-138.991 563.95,-130.863"/>
<polygon fill="black" stroke="black" points="566.003,-128.013 556.124,-124.184 561.459,-133.338 566.003,-128.013"/>
<g id="a_edge9&#45;headlabel"><a xlink:href="dir_000076_000053.html" target="_top" xlink:title="23">
<text text-anchor="middle" x="570.58" y="-125.687" font-family="Helvetica,sans-Serif" font-size="10.00">23</text>
</a>
</g>
</g>
<!-- dir_051dca18e802f8e9474f2e30d29c04e0&#45;&gt;dir_d462256f2f72f303235b8fb5b5a9f479 -->
<g id="edge11" class="edge"><title>dir_051dca18e802f8e9474f2e30d29c04e0&#45;&gt;dir_d462256f2f72f303235b8fb5b5a9f479</title>
<path fill="none" stroke="black" d="M485.506,-247.43C435.631,-244.027 332.051,-233.711 250,-204 247.425,-203.067 244.827,-201.982 242.253,-200.796"/>
<polygon fill="black" stroke="black" points="243.613,-197.562 233.112,-196.155 240.444,-203.803 243.613,-197.562"/>
<g id="a_edge11&#45;headlabel"><a xlink:href="dir_000076_000069.html" target="_top" xlink:title="1">
<text text-anchor="middle" x="248.104" y="-194.157" font-family="Helvetica,sans-Serif" font-size="10.00">1</text>
</a>
</g>
</g>
<!-- dir_051dca18e802f8e9474f2e30d29c04e0&#45;&gt;dir_d269712cc31e133b892a3b3f6424741a -->
<g id="edge7" class="edge"><title>dir_051dca18e802f8e9474f2e30d29c04e0&#45;&gt;dir_d269712cc31e133b892a3b3f6424741a</title>
<path fill="none" stroke="black" d="M485.647,-248.536C424.484,-246.859 279.487,-239.166 164,-204 160.449,-202.919 156.843,-201.602 153.277,-200.145"/>
<polygon fill="black" stroke="black" points="154.559,-196.885 144,-196.025 151.718,-203.283 154.559,-196.885"/>
<g id="a_edge7&#45;headlabel"><a xlink:href="dir_000076_000073.html" target="_top" xlink:title="13">
<text text-anchor="middle" x="158.997" y="-193.249" font-family="Helvetica,sans-Serif" font-size="10.00">13</text>
</a>
</g>
</g>
<!-- dir_051dca18e802f8e9474f2e30d29c04e0&#45;&gt;dir_047746f9f311f49446db9474b7431d0d -->
<g id="edge10" class="edge"><title>dir_051dca18e802f8e9474f2e30d29c04e0&#45;&gt;dir_047746f9f311f49446db9474b7431d0d</title>
<path fill="none" stroke="black" d="M544.676,-242.41C564.96,-236.194 590.373,-224.639 603,-204 632.493,-155.792 586.416,-93.5519 555.093,-59.6636"/>
<polygon fill="black" stroke="black" points="557.315,-56.9214 547.89,-52.0817 552.24,-61.7425 557.315,-56.9214"/>
<g id="a_edge10&#45;headlabel"><a xlink:href="dir_000076_000089.html" target="_top" xlink:title="73">
<text text-anchor="middle" x="561.849" y="-55.072" font-family="Helvetica,sans-Serif" font-size="10.00">73</text>
</a>
</g>
</g>
<!-- dir_051dca18e802f8e9474f2e30d29c04e0&#45;&gt;dir_4ab6b4cc6a7edbff49100e9123df213f -->
<g id="edge8" class="edge"><title>dir_051dca18e802f8e9474f2e30d29c04e0&#45;&gt;dir_4ab6b4cc6a7edbff49100e9123df213f</title>
<path fill="none" stroke="black" d="M485.481,-248.101C389.619,-244.91 91.402,-232.737 60,-204 20.8021,-168.128 20.6345,-100.477 24.1773,-62.5537"/>
<polygon fill="black" stroke="black" points="27.696,-62.5719 25.3009,-52.2514 20.7372,-61.8129 27.696,-62.5719"/>
<g id="a_edge8&#45;headlabel"><a xlink:href="dir_000076_000016.html" target="_top" xlink:title="56">
<text text-anchor="middle" x="30.1289" y="-63.9532" font-family="Helvetica,sans-Serif" font-size="10.00">56</text>
</a>
</g>
</g>
</g>
</svg>
        <g id="navigator" transform="translate(0 0)" fill="#404254">
                <rect fill="#f2f5e9" fill-opacity="0.5" stroke="#606060" stroke-width=".5" x="0" y="0" width="60" height="60"/>
                <use id="zoomplus" xlink:href="#zoomPlus" x="17" y="9" onmousedown="handleZoom(evt,'in')"/>
                <use id="zoomminus" xlink:href="#zoomMin" x="42" y="9" onmousedown="handleZoom(evt,'out')"/>
                <use id="reset" xlink:href="#resetDef" x="30" y="36" onmousedown="handleReset()"/>
                <g id="arrowUp" xlink:href="#dirArrow" transform="translate(30 24)" onmousedown="handlePan(0,-1)">
                  <use xlink:href="#rim" fill="#404040">
                        <set attributeName="fill" to="#808080" begin="arrowUp.mouseover" end="arrowUp.mouseout"/>
                  </use>
                  <path fill="none" stroke="white" stroke-width="1.5" d="M0,-3.0v7 M-2.5,-0.5L0,-3.0L2.5,-0.5"/>
                </g>
                <g id="arrowRight" xlink:href="#dirArrow" transform="rotate(90) translate(36 -43)" onmousedown="handlePan(1,0)">
                  <use xlink:href="#rim" fill="#404040">
                        <set attributeName="fill" to="#808080" begin="arrowRight.mouseover" end="arrowRight.mouseout"/>
                  </use>
                  <path fill="none" stroke="white" stroke-width="1.5" d="M0,-3.0v7 M-2.5,-0.5L0,-3.0L2.5,-0.5"/>
                </g>
                <g id="arrowDown" xlink:href="#dirArrow" transform="rotate(180) translate(-30 -48)" onmousedown="handlePan(0,1)">
                  <use xlink:href="#rim" fill="#404040">
                        <set attributeName="fill" to="#808080" begin="arrowDown.mouseover" end="arrowDown.mouseout"/>
                  </use>
                  <path fill="none" stroke="white" stroke-width="1.5" d="M0,-3.0v7 M-2.5,-0.5L0,-3.0L2.5,-0.5"/>
                </g>
                <g id="arrowLeft" xlink:href="#dirArrow" transform="rotate(270) translate(-36 17)" onmousedown="handlePan(-1,0)">
                  <use xlink:href="#rim" fill="#404040">
                        <set attributeName="fill" to="#808080" begin="arrowLeft.mouseover" end="arrowLeft.mouseout"/>
                  </use>
                  <path fill="none" stroke="white" stroke-width="1.5" d="M0,-3.0v7 M-2.5,-0.5L0,-3.0L2.5,-0.5"/>
                </g>
        </g>
        <svg viewBox="0 0 15 15" width="100%" height="30px" preserveAspectRatio="xMaxYMin meet">
         <g id="arrow_out" transform="scale(0.3 0.3)">
          <a xlink:href="dir_2171f7ec022c5423887b07c69b2f5b48_dep_org.svg" target="_base">
           <rect id="button" ry="5" rx="5" y="6" x="6" height="38" width="38"
                fill="#f2f5e9" fill-opacity="0.5" stroke="#606060" stroke-width="1.0"/>
           <path id="arrow"
             d="M 11.500037,31.436501 C 11.940474,20.09759 22.043105,11.32322 32.158766,21.979434 L 37.068811,17.246167 C 37.068811,17.246167 37.088388,32 37.088388,32 L 22.160133,31.978069 C 22.160133,31.978069 26.997745,27.140456 26.997745,27.140456 C 18.528582,18.264221 13.291696,25.230495 11.500037,31.436501 z"
             style="fill:#404040;"/>
          </a>
         </g>
        </svg>
</svg>
