<?xml version="1.0" encoding="UTF-8" standalone="no"?>
<!DOCTYPE svg PUBLIC "-//W3C//DTD SVG 1.1//EN"
 "http://www.w3.org/Graphics/SVG/1.1/DTD/svg11.dtd">
<!-- Generated by graphviz version 2.36.0 (20140111.2315)
 -->
<!-- Title: /home/travis/build/AliceO2Group/AliceO2/Detectors/TPC/reconstruction/macro Pages: 1 -->
<svg width="230pt" height="367pt"
 viewBox="0.00 0.00 230.21 367.00" xmlns="http://www.w3.org/2000/svg" xmlns:xlink="http://www.w3.org/1999/xlink">
<g id="graph0" class="graph" transform="scale(1 1) rotate(0) translate(4 363)">
<title>/home/travis/build/AliceO2Group/AliceO2/Detectors/TPC/reconstruction/macro</title>
<g id="clust1" class="cluster"><title>clusterdir_a5de047958dd458e809773c6ffaa8478</title>
<g id="a_clust1"><a xlink:href="dir_a5de047958dd458e809773c6ffaa8478.html" target="_top" xlink:title="reconstruction">
<polygon fill="#ddddee" stroke="black" points="109,-280 109,-351 187,-351 187,-280 109,-280"/>
<text text-anchor="middle" x="148" y="-339" font-family="Helvetica,sans-Serif" font-size="10.00">reconstruction</text>
</a>
</g>
</g>
<!-- dir_4cbbc7f21c16d130545e15f2205651b3 -->
<g id="node1" class="node"><title>dir_4cbbc7f21c16d130545e15f2205651b3</title>
<g id="a_node1"><a xlink:href="dir_4cbbc7f21c16d130545e15f2205651b3.html" target="_top" xlink:title="macro">
<polygon fill="#eeeeff" stroke="black" points="175,-324 121,-324 121,-288 175,-288 175,-324"/>
<text text-anchor="middle" x="148" y="-303.5" font-family="Helvetica,sans-Serif" font-size="10.00">macro</text>
</a>
</g>
</g>
<!-- dir_7f309bec8670bb3fb666e7e061b24659 -->
<g id="node2" class="node"><title>dir_7f309bec8670bb3fb666e7e061b24659</title>
<g id="a_node2"><a xlink:href="dir_7f309bec8670bb3fb666e7e061b24659.html" target="_top" xlink:title="simulation">
<polygon fill="none" stroke="red" points="60.25,-252 -0.25,-252 -0.25,-216 60.25,-216 60.25,-252"/>
<text text-anchor="middle" x="30" y="-231.5" font-family="Helvetica,sans-Serif" font-size="10.00">simulation</text>
</a>
</g>
</g>
<!-- dir_4cbbc7f21c16d130545e15f2205651b3&#45;&gt;dir_7f309bec8670bb3fb666e7e061b24659 -->
<g id="edge9" class="edge"><title>dir_4cbbc7f21c16d130545e15f2205651b3&#45;&gt;dir_7f309bec8670bb3fb666e7e061b24659</title>
<path fill="none" stroke="black" d="M120.928,-288.941C105.168,-279.591 85.0582,-267.662 67.7596,-257.4"/>
<polygon fill="black" stroke="black" points="69.394,-254.3 59.0077,-252.208 65.8226,-260.32 69.394,-254.3"/>
<g id="a_edge9&#45;headlabel"><a xlink:href="dir_000223_000126.html" target="_top" xlink:title="1">
<text text-anchor="middle" x="73.9341" y="-251.192" font-family="Helvetica,sans-Serif" font-size="10.00">1</text>
</a>
</g>
</g>
<!-- dir_4995562033b321477cfe3c34a14a5189 -->
<g id="node3" class="node"><title>dir_4995562033b321477cfe3c34a14a5189</title>
<g id="a_node3"><a xlink:href="dir_4995562033b321477cfe3c34a14a5189.html" target="_top" xlink:title="calibration">
<polygon fill="none" stroke="red" points="178.25,-252 117.75,-252 117.75,-216 178.25,-216 178.25,-252"/>
<text text-anchor="middle" x="148" y="-231.5" font-family="Helvetica,sans-Serif" font-size="10.00">calibration</text>
</a>
</g>
</g>
<!-- dir_4cbbc7f21c16d130545e15f2205651b3&#45;&gt;dir_4995562033b321477cfe3c34a14a5189 -->
<g id="edge10" class="edge"><title>dir_4cbbc7f21c16d130545e15f2205651b3&#45;&gt;dir_4995562033b321477cfe3c34a14a5189</title>
<path fill="none" stroke="black" d="M148,-287.697C148,-279.983 148,-270.712 148,-262.112"/>
<polygon fill="black" stroke="black" points="151.5,-262.104 148,-252.104 144.5,-262.104 151.5,-262.104"/>
<g id="a_edge10&#45;headlabel"><a xlink:href="dir_000223_000212.html" target="_top" xlink:title="1">
<text text-anchor="middle" x="154.339" y="-263.199" font-family="Helvetica,sans-Serif" font-size="10.00">1</text>
</a>
</g>
</g>
<!-- dir_677b030cc750909e4cd27413873678d8 -->
<g id="node4" class="node"><title>dir_677b030cc750909e4cd27413873678d8</title>
<g id="a_node4"><a xlink:href="dir_677b030cc750909e4cd27413873678d8.html" target="_top" xlink:title="base">
<polygon fill="none" stroke="red" points="186,-108 132,-108 132,-72 186,-72 186,-108"/>
<text text-anchor="middle" x="159" y="-87.5" font-family="Helvetica,sans-Serif" font-size="10.00">base</text>
</a>
</g>
</g>
<!-- dir_4cbbc7f21c16d130545e15f2205651b3&#45;&gt;dir_677b030cc750909e4cd27413873678d8 -->
<g id="edge11" class="edge"><title>dir_4cbbc7f21c16d130545e15f2205651b3&#45;&gt;dir_677b030cc750909e4cd27413873678d8</title>
<path fill="none" stroke="black" d="M164.89,-287.993C173.293,-278.315 182.582,-265.459 187,-252 202.076,-206.074 184.683,-149.967 171.362,-117.572"/>
<polygon fill="black" stroke="black" points="174.553,-116.132 167.399,-108.317 168.118,-118.888 174.553,-116.132"/>
<g id="a_edge11&#45;headlabel"><a xlink:href="dir_000223_000148.html" target="_top" xlink:title="16">
<text text-anchor="middle" x="178.578" y="-115.819" font-family="Helvetica,sans-Serif" font-size="10.00">16</text>
</a>
</g>
</g>
<!-- dir_396d171119822f66a36fe1ebf998d1a3 -->
<g id="node5" class="node"><title>dir_396d171119822f66a36fe1ebf998d1a3</title>
<g id="a_node5"><a xlink:href="dir_396d171119822f66a36fe1ebf998d1a3.html" target="_top" xlink:title="include">
<polygon fill="none" stroke="red" points="131,-180 77,-180 77,-144 131,-144 131,-180"/>
<text text-anchor="middle" x="104" y="-159.5" font-family="Helvetica,sans-Serif" font-size="10.00">include</text>
</a>
</g>
</g>
<!-- dir_4cbbc7f21c16d130545e15f2205651b3&#45;&gt;dir_396d171119822f66a36fe1ebf998d1a3 -->
<g id="edge12" class="edge"><title>dir_4cbbc7f21c16d130545e15f2205651b3&#45;&gt;dir_396d171119822f66a36fe1ebf998d1a3</title>
<path fill="none" stroke="black" d="M130.926,-287.985C122.38,-278.304 112.844,-265.449 108,-252 100.892,-232.265 100.192,-208.461 101.106,-190.439"/>
<polygon fill="black" stroke="black" points="104.608,-190.533 101.818,-180.312 97.6255,-190.042 104.608,-190.533"/>
<g id="a_edge12&#45;headlabel"><a xlink:href="dir_000223_000186.html" target="_top" xlink:title="24">
<text text-anchor="middle" x="107.189" y="-191.817" font-family="Helvetica,sans-Serif" font-size="10.00">24</text>
</a>
</g>
</g>
<!-- dir_2171f7ec022c5423887b07c69b2f5b48 -->
<g id="node6" class="node"><title>dir_2171f7ec022c5423887b07c69b2f5b48</title>
<g id="a_node6"><a xlink:href="dir_2171f7ec022c5423887b07c69b2f5b48.html" target="_top" xlink:title="DataFormats">
<polygon fill="none" stroke="red" points="196,-36 122,-36 122,-0 196,-0 196,-36"/>
<text text-anchor="middle" x="159" y="-15.5" font-family="Helvetica,sans-Serif" font-size="10.00">DataFormats</text>
</a>
</g>
</g>
<!-- dir_4cbbc7f21c16d130545e15f2205651b3&#45;&gt;dir_2171f7ec022c5423887b07c69b2f5b48 -->
<g id="edge13" class="edge"><title>dir_4cbbc7f21c16d130545e15f2205651b3&#45;&gt;dir_2171f7ec022c5423887b07c69b2f5b48</title>
<path fill="none" stroke="black" d="M174.124,-287.816C185.579,-278.692 197.808,-266.386 204,-252 235.668,-178.426 221.183,-147.7 195,-72 191.654,-62.3254 186.061,-52.7572 180.269,-44.4692"/>
<polygon fill="black" stroke="black" points="183.014,-42.2945 174.247,-36.3448 177.39,-46.4628 183.014,-42.2945"/>
<g id="a_edge13&#45;headlabel"><a xlink:href="dir_000223_000043.html" target="_top" xlink:title="21">
<text text-anchor="middle" x="187.435" y="-40.9916" font-family="Helvetica,sans-Serif" font-size="10.00">21</text>
</a>
</g>
</g>
<!-- dir_7f309bec8670bb3fb666e7e061b24659&#45;&gt;dir_677b030cc750909e4cd27413873678d8 -->
<g id="edge1" class="edge"><title>dir_7f309bec8670bb3fb666e7e061b24659&#45;&gt;dir_677b030cc750909e4cd27413873678d8</title>
<path fill="none" stroke="black" d="M33.8504,-215.834C38.9145,-196.496 49.4263,-165.029 68,-144 82.8414,-127.196 104.344,-114.33 122.721,-105.485"/>
<polygon fill="black" stroke="black" points="124.368,-108.58 131.995,-101.226 121.446,-102.219 124.368,-108.58"/>
<g id="a_edge1&#45;headlabel"><a xlink:href="dir_000126_000148.html" target="_top" xlink:title="44">
<text text-anchor="middle" x="122.286" y="-110.161" font-family="Helvetica,sans-Serif" font-size="10.00">44</text>
</a>
</g>
</g>
<!-- dir_7f309bec8670bb3fb666e7e061b24659&#45;&gt;dir_396d171119822f66a36fe1ebf998d1a3 -->
<g id="edge2" class="edge"><title>dir_7f309bec8670bb3fb666e7e061b24659&#45;&gt;dir_396d171119822f66a36fe1ebf998d1a3</title>
<path fill="none" stroke="black" d="M48.2921,-215.697C57.4326,-207.05 68.6401,-196.449 78.6,-187.027"/>
<polygon fill="black" stroke="black" points="81.0588,-189.519 85.9183,-180.104 76.2484,-184.434 81.0588,-189.519"/>
<g id="a_edge2&#45;headlabel"><a xlink:href="dir_000126_000186.html" target="_top" xlink:title="2">
<text text-anchor="middle" x="80.3986" y="-191.552" font-family="Helvetica,sans-Serif" font-size="10.00">2</text>
</a>
</g>
</g>
<!-- dir_7f309bec8670bb3fb666e7e061b24659&#45;&gt;dir_2171f7ec022c5423887b07c69b2f5b48 -->
<g id="edge3" class="edge"><title>dir_7f309bec8670bb3fb666e7e061b24659&#45;&gt;dir_2171f7ec022c5423887b07c69b2f5b48</title>
<path fill="none" stroke="black" d="M29.6066,-215.757C29.8298,-197.181 32.0991,-167.173 43,-144 62.5296,-102.484 100.922,-65.4254 128.184,-42.6412"/>
<polygon fill="black" stroke="black" points="130.731,-45.0802 136.254,-36.0393 126.298,-39.6622 130.731,-45.0802"/>
<g id="a_edge3&#45;headlabel"><a xlink:href="dir_000126_000043.html" target="_top" xlink:title="7">
<text text-anchor="middle" x="129.746" y="-47.0538" font-family="Helvetica,sans-Serif" font-size="10.00">7</text>
</a>
</g>
</g>
<!-- dir_4995562033b321477cfe3c34a14a5189&#45;&gt;dir_677b030cc750909e4cd27413873678d8 -->
<g id="edge4" class="edge"><title>dir_4995562033b321477cfe3c34a14a5189&#45;&gt;dir_677b030cc750909e4cd27413873678d8</title>
<path fill="none" stroke="black" d="M149.327,-215.871C151.202,-191.67 154.646,-147.211 156.878,-118.393"/>
<polygon fill="black" stroke="black" points="160.386,-118.43 157.668,-108.189 153.406,-117.889 160.386,-118.43"/>
<g id="a_edge4&#45;headlabel"><a xlink:href="dir_000212_000148.html" target="_top" xlink:title="13">
<text text-anchor="middle" x="162.939" y="-119.733" font-family="Helvetica,sans-Serif" font-size="10.00">13</text>
</a>
</g>
</g>
<!-- dir_4995562033b321477cfe3c34a14a5189&#45;&gt;dir_396d171119822f66a36fe1ebf998d1a3 -->
<g id="edge5" class="edge"><title>dir_4995562033b321477cfe3c34a14a5189&#45;&gt;dir_396d171119822f66a36fe1ebf998d1a3</title>
<path fill="none" stroke="black" d="M137.124,-215.697C132.008,-207.559 125.805,-197.689 120.155,-188.701"/>
<polygon fill="black" stroke="black" points="123.036,-186.708 114.751,-180.104 117.11,-190.433 123.036,-186.708"/>
<g id="a_edge5&#45;headlabel"><a xlink:href="dir_000212_000186.html" target="_top" xlink:title="3">
<text text-anchor="middle" x="127.353" y="-185.74" font-family="Helvetica,sans-Serif" font-size="10.00">3</text>
</a>
</g>
</g>
<!-- dir_677b030cc750909e4cd27413873678d8&#45;&gt;dir_2171f7ec022c5423887b07c69b2f5b48 -->
<g id="edge6" class="edge"><title>dir_677b030cc750909e4cd27413873678d8&#45;&gt;dir_2171f7ec022c5423887b07c69b2f5b48</title>
<path fill="none" stroke="black" d="M153.084,-71.6966C152.289,-63.9827 152.062,-54.7125 152.405,-46.1124"/>
<polygon fill="black" stroke="black" points="155.898,-46.3243 153.105,-36.1043 148.915,-45.8356 155.898,-46.3243"/>
<g id="a_edge6&#45;headlabel"><a xlink:href="dir_000148_000043.html" target="_top" xlink:title="1">
<text text-anchor="middle" x="158.48" y="-47.6083" font-family="Helvetica,sans-Serif" font-size="10.00">1</text>
</a>
</g>
</g>
<!-- dir_396d171119822f66a36fe1ebf998d1a3&#45;&gt;dir_677b030cc750909e4cd27413873678d8 -->
<g id="edge7" class="edge"><title>dir_396d171119822f66a36fe1ebf998d1a3&#45;&gt;dir_677b030cc750909e4cd27413873678d8</title>
<path fill="none" stroke="black" d="M117.596,-143.697C124.123,-135.389 132.068,-125.277 139.247,-116.141"/>
<polygon fill="black" stroke="black" points="142.135,-118.13 145.561,-108.104 136.631,-113.805 142.135,-118.13"/>
<g id="a_edge7&#45;headlabel"><a xlink:href="dir_000186_000148.html" target="_top" xlink:title="9">
<text text-anchor="middle" x="142.147" y="-120.211" font-family="Helvetica,sans-Serif" font-size="10.00">9</text>
</a>
</g>
</g>
<!-- dir_396d171119822f66a36fe1ebf998d1a3&#45;&gt;dir_2171f7ec022c5423887b07c69b2f5b48 -->
<g id="edge8" class="edge"><title>dir_396d171119822f66a36fe1ebf998d1a3&#45;&gt;dir_2171f7ec022c5423887b07c69b2f5b48</title>
<path fill="none" stroke="black" d="M105.697,-143.674C107.95,-125.29 112.888,-95.6852 123,-72 127.084,-62.4333 132.988,-52.7836 138.838,-44.3881"/>
<polygon fill="black" stroke="black" points="141.78,-46.2938 144.835,-36.1492 136.12,-42.1741 141.78,-46.2938"/>
<g id="a_edge8&#45;headlabel"><a xlink:href="dir_000186_000043.html" target="_top" xlink:title="14">
<text text-anchor="middle" x="141.96" y="-48.371" font-family="Helvetica,sans-Serif" font-size="10.00">14</text>
</a>
</g>
</g>
<!-- dir_2171f7ec022c5423887b07c69b2f5b48&#45;&gt;dir_677b030cc750909e4cd27413873678d8 -->
<g id="edge14" class="edge"><title>dir_2171f7ec022c5423887b07c69b2f5b48&#45;&gt;dir_677b030cc750909e4cd27413873678d8</title>
<path fill="none" stroke="black" d="M164.895,-36.1043C165.701,-43.7913 165.937,-53.0537 165.604,-61.6651"/>
<polygon fill="black" stroke="black" points="162.109,-61.4805 164.916,-71.6966 169.092,-61.9597 162.109,-61.4805"/>
<g id="a_edge14&#45;headlabel"><a xlink:href="dir_000043_000148.html" target="_top" xlink:title="2">
<text text-anchor="middle" x="159.522" y="-55.2" font-family="Helvetica,sans-Serif" font-size="10.00">2</text>
</a>
</g>
</g>
</g>
</svg>
