<?xml version="1.0" encoding="UTF-8" standalone="no"?>
<!DOCTYPE svg PUBLIC "-//W3C//DTD SVG 1.1//EN"
 "http://www.w3.org/Graphics/SVG/1.1/DTD/svg11.dtd">
<!-- Generated by graphviz version 2.36.0 (20140111.2315)
 -->
<!-- Title: /home/travis/build/AliceO2Group/AliceO2/Detectors/ITSMFT/ITS/macros Pages: 1 -->
<!--zoomable 519 -->
<svg id="main" version="1.1" xmlns="http://www.w3.org/2000/svg" xmlns:xlink="http://www.w3.org/1999/xlink" xml:space="preserve" onload="init(evt)">
<style type="text/css"><![CDATA[
.edge:hover path { stroke: red; }
.edge:hover polygon { stroke: red; fill: red; }
]]></style>
<script type="text/javascript"><![CDATA[
var edges = document.getElementsByTagName('g');
if (edges && edges.length) {
  for (var i=0;i<edges.length;i++) {
    if (edges[i].id.substr(0,4)=='edge') {
      edges[i].setAttribute('class','edge');
    }
  }
}
]]></script>
        <defs>
                <circle id="rim" cx="0" cy="0" r="7"/>
                <circle id="rim2" cx="0" cy="0" r="3.5"/>
                <g id="zoomPlus">
                        <use xlink:href="#rim" fill="#404040">
                                <set attributeName="fill" to="#808080" begin="zoomplus.mouseover" end="zoomplus.mouseout"/>
                        </use>
                        <path d="M-4,0h8M0,-4v8" fill="none" stroke="white" stroke-width="1.5" pointer-events="none"/>
                </g>
                <g id="zoomMin">
                        <use xlink:href="#rim" fill="#404040">
                                <set attributeName="fill" to="#808080" begin="zoomminus.mouseover" end="zoomminus.mouseout"/>
                        </use>
                        <path d="M-4,0h8" fill="none" stroke="white" stroke-width="1.5" pointer-events="none"/>
                </g>
                <g id="dirArrow">
                        <path fill="none" stroke="white" stroke-width="1.5" d="M0,-3.0v7 M-2.5,-0.5L0,-3.0L2.5,-0.5"/>
                </g>
               <g id="resetDef">
                       <use xlink:href="#rim2" fill="#404040">
                               <set attributeName="fill" to="#808080" begin="reset.mouseover" end="reset.mouseout"/>
                       </use>
               </g>
        </defs>

<script type="text/javascript">
var viewWidth = 294;
var viewHeight = 519;
var sectionId = 'dynsection-0';
</script>
<script xlink:href="svgpan.js"/>
<svg id="graph" class="graph">
<g id="viewport">
<title>/home/travis/build/AliceO2Group/AliceO2/Detectors/ITSMFT/ITS/macros</title>
<g id="clust1" class="cluster"><title>clusterdir_871aad07cbf94d6cd423c3d8d5bdf4e9</title>
<g id="a_clust1"><a xlink:href="dir_871aad07cbf94d6cd423c3d8d5bdf4e9.html" target="_top" xlink:title="ITS">
<polygon fill="#ddddee" stroke="black" points="71,-416 71,-503 229,-503 229,-416 71,-416"/>
<text text-anchor="middle" x="150" y="-491" font-family="Helvetica,sans-Serif" font-size="10.00">ITS</text>
</a>
</g>
</g>
<g id="clust2" class="cluster"><title>clusterdir_d1915fc52ae3a2d414030e7b83b60b4d</title>
<g id="a_clust2"><a xlink:href="dir_d1915fc52ae3a2d414030e7b83b60b4d.html" target="_top">
<polygon fill="#eeeeff" stroke="black" points="79,-424 79,-476 221,-476 221,-424 79,-424"/>
</a>
</g>
</g>
<!-- dir_d1915fc52ae3a2d414030e7b83b60b4d -->
<g id="node1" class="node"><title>dir_d1915fc52ae3a2d414030e7b83b60b4d</title>
<text text-anchor="middle" x="186" y="-447.5" font-family="Helvetica,sans-Serif" font-size="10.00">macros</text>
</g>
<!-- dir_2182485e2bad8012cf176841f5534402 -->
<g id="node2" class="node"><title>dir_2182485e2bad8012cf176841f5534402</title>
<g id="a_node2"><a xlink:href="dir_2182485e2bad8012cf176841f5534402.html" target="_top" xlink:title="test">
<polygon fill="white" stroke="black" points="141,-468 87,-468 87,-432 141,-432 141,-468"/>
<text text-anchor="middle" x="114" y="-447.5" font-family="Helvetica,sans-Serif" font-size="10.00">test</text>
</a>
</g>
</g>
<!-- dir_eedff867f3c4e67d20b227cb6e0f96ab -->
<g id="node3" class="node"><title>dir_eedff867f3c4e67d20b227cb6e0f96ab</title>
<g id="a_node3"><a xlink:href="dir_eedff867f3c4e67d20b227cb6e0f96ab.html" target="_top" xlink:title="base">
<polygon fill="none" stroke="red" points="272,-324 218,-324 218,-288 272,-288 272,-324"/>
<text text-anchor="middle" x="245" y="-303.5" font-family="Helvetica,sans-Serif" font-size="10.00">base</text>
</a>
</g>
</g>
<!-- dir_2182485e2bad8012cf176841f5534402&#45;&gt;dir_eedff867f3c4e67d20b227cb6e0f96ab -->
<g id="edge7" class="edge"><title>dir_2182485e2bad8012cf176841f5534402&#45;&gt;dir_eedff867f3c4e67d20b227cb6e0f96ab</title>
<path fill="none" stroke="black" d="M130.174,-431.859C136.041,-426.295 142.966,-420.422 150,-416 170.263,-403.262 182.351,-412.166 200,-396 218.374,-379.169 230.311,-353.135 237.241,-333.564"/>
<polygon fill="black" stroke="black" points="240.587,-334.596 240.417,-324.002 233.944,-332.39 240.587,-334.596"/>
<g id="a_edge7&#45;headlabel"><a xlink:href="dir_000192_000178.html" target="_top" xlink:title="5">
<text text-anchor="middle" x="242.149" y="-336.402" font-family="Helvetica,sans-Serif" font-size="10.00">5</text>
</a>
</g>
</g>
<!-- dir_4ab6b4cc6a7edbff49100e9123df213f -->
<g id="node4" class="node"><title>dir_4ab6b4cc6a7edbff49100e9123df213f</title>
<g id="a_node4"><a xlink:href="dir_4ab6b4cc6a7edbff49100e9123df213f.html" target="_top" xlink:title="Common">
<polygon fill="none" stroke="red" points="264.5,-180 209.5,-180 209.5,-144 264.5,-144 264.5,-180"/>
<text text-anchor="middle" x="237" y="-159.5" font-family="Helvetica,sans-Serif" font-size="10.00">Common</text>
</a>
</g>
</g>
<!-- dir_2182485e2bad8012cf176841f5534402&#45;&gt;dir_4ab6b4cc6a7edbff49100e9123df213f -->
<g id="edge8" class="edge"><title>dir_2182485e2bad8012cf176841f5534402&#45;&gt;dir_4ab6b4cc6a7edbff49100e9123df213f</title>
<path fill="none" stroke="black" d="M129.514,-431.684C135.429,-425.972 142.551,-420.05 150,-416 181.063,-399.11 197.634,-415.693 227,-396 260.222,-373.722 268.351,-361.947 281,-324 296.679,-276.963 271.741,-220.877 253.478,-188.853"/>
<polygon fill="black" stroke="black" points="256.41,-186.935 248.311,-180.105 250.383,-190.495 256.41,-186.935"/>
<g id="a_edge8&#45;headlabel"><a xlink:href="dir_000192_000016.html" target="_top" xlink:title="7">
<text text-anchor="middle" x="260.683" y="-186.086" font-family="Helvetica,sans-Serif" font-size="10.00">7</text>
</a>
</g>
</g>
<!-- dir_a597e8e061b11201a1dff411feb10d0b -->
<g id="node5" class="node"><title>dir_a597e8e061b11201a1dff411feb10d0b</title>
<g id="a_node5"><a xlink:href="dir_a597e8e061b11201a1dff411feb10d0b.html" target="_top" xlink:title="TPC">
<polygon fill="none" stroke="red" points="171,-36 117,-36 117,-0 171,-0 171,-36"/>
<text text-anchor="middle" x="144" y="-15.5" font-family="Helvetica,sans-Serif" font-size="10.00">TPC</text>
</a>
</g>
</g>
<!-- dir_2182485e2bad8012cf176841f5534402&#45;&gt;dir_a597e8e061b11201a1dff411feb10d0b -->
<g id="edge9" class="edge"><title>dir_2182485e2bad8012cf176841f5534402&#45;&gt;dir_a597e8e061b11201a1dff411feb10d0b</title>
<path fill="none" stroke="black" d="M86.9836,-431.964C53.2722,-408.367 0,-362.325 0,-307 0,-307 0,-307 0,-161 0,-100.486 65.2714,-57.0897 107.925,-35.1916"/>
<polygon fill="black" stroke="black" points="109.52,-38.3076 116.915,-30.7202 106.402,-32.0402 109.52,-38.3076"/>
<g id="a_edge9&#45;headlabel"><a xlink:href="dir_000192_000125.html" target="_top" xlink:title="1">
<text text-anchor="middle" x="107.566" y="-39.9506" font-family="Helvetica,sans-Serif" font-size="10.00">1</text>
</a>
</g>
</g>
<!-- dir_85bf31a2e8d306e7598ffcb73f8df6bf -->
<g id="node6" class="node"><title>dir_85bf31a2e8d306e7598ffcb73f8df6bf</title>
<g id="a_node6"><a xlink:href="dir_85bf31a2e8d306e7598ffcb73f8df6bf.html" target="_top" xlink:title="common">
<polygon fill="none" stroke="red" points="158,-252 104,-252 104,-216 158,-216 158,-252"/>
<text text-anchor="middle" x="131" y="-231.5" font-family="Helvetica,sans-Serif" font-size="10.00">common</text>
</a>
</g>
</g>
<!-- dir_2182485e2bad8012cf176841f5534402&#45;&gt;dir_85bf31a2e8d306e7598ffcb73f8df6bf -->
<g id="edge10" class="edge"><title>dir_2182485e2bad8012cf176841f5534402&#45;&gt;dir_85bf31a2e8d306e7598ffcb73f8df6bf</title>
<path fill="none" stroke="black" d="M109.941,-431.929C107.694,-421.598 105.133,-408.12 104,-396 99.5665,-348.591 112.581,-294.066 122.052,-262.184"/>
<polygon fill="black" stroke="black" points="125.503,-262.87 125.097,-252.283 118.812,-260.812 125.503,-262.87"/>
<g id="a_edge10&#45;headlabel"><a xlink:href="dir_000192_000151.html" target="_top" xlink:title="15">
<text text-anchor="middle" x="127.16" y="-264.641" font-family="Helvetica,sans-Serif" font-size="10.00">15</text>
</a>
</g>
</g>
<!-- dir_5125ceb2b58f632ed0a3019fe2d5cbbc -->
<g id="node7" class="node"><title>dir_5125ceb2b58f632ed0a3019fe2d5cbbc</title>
<g id="a_node7"><a xlink:href="dir_5125ceb2b58f632ed0a3019fe2d5cbbc.html" target="_top" xlink:title="reconstruction">
<polygon fill="none" stroke="red" points="191,-396 113,-396 113,-360 191,-360 191,-396"/>
<text text-anchor="middle" x="152" y="-375.5" font-family="Helvetica,sans-Serif" font-size="10.00">reconstruction</text>
</a>
</g>
</g>
<!-- dir_2182485e2bad8012cf176841f5534402&#45;&gt;dir_5125ceb2b58f632ed0a3019fe2d5cbbc -->
<g id="edge11" class="edge"><title>dir_2182485e2bad8012cf176841f5534402&#45;&gt;dir_5125ceb2b58f632ed0a3019fe2d5cbbc</title>
<path fill="none" stroke="black" d="M123.393,-431.697C127.765,-423.644 133.057,-413.894 137.895,-404.982"/>
<polygon fill="black" stroke="black" points="141.02,-406.563 142.715,-396.104 134.868,-403.223 141.02,-406.563"/>
<g id="a_edge11&#45;headlabel"><a xlink:href="dir_000192_000194.html" target="_top" xlink:title="2">
<text text-anchor="middle" x="141.8" y="-408.576" font-family="Helvetica,sans-Serif" font-size="10.00">2</text>
</a>
</g>
</g>
<!-- dir_2171f7ec022c5423887b07c69b2f5b48 -->
<g id="node8" class="node"><title>dir_2171f7ec022c5423887b07c69b2f5b48</title>
<g id="a_node8"><a xlink:href="dir_2171f7ec022c5423887b07c69b2f5b48.html" target="_top" xlink:title="DataFormats">
<polygon fill="none" stroke="red" points="181,-108 107,-108 107,-72 181,-72 181,-108"/>
<text text-anchor="middle" x="144" y="-87.5" font-family="Helvetica,sans-Serif" font-size="10.00">DataFormats</text>
</a>
</g>
</g>
<!-- dir_2182485e2bad8012cf176841f5534402&#45;&gt;dir_2171f7ec022c5423887b07c69b2f5b48 -->
<g id="edge12" class="edge"><title>dir_2182485e2bad8012cf176841f5534402&#45;&gt;dir_2171f7ec022c5423887b07c69b2f5b48</title>
<path fill="none" stroke="black" d="M97.5091,-431.772C75.1569,-406.534 38,-357.051 38,-307 38,-307 38,-307 38,-233 38,-183.297 80.2189,-139.772 111.368,-114.423"/>
<polygon fill="black" stroke="black" points="113.734,-117.015 119.415,-108.072 109.397,-111.52 113.734,-117.015"/>
<g id="a_edge12&#45;headlabel"><a xlink:href="dir_000192_000043.html" target="_top" xlink:title="9">
<text text-anchor="middle" x="112.671" y="-118.971" font-family="Helvetica,sans-Serif" font-size="10.00">9</text>
</a>
</g>
</g>
<!-- dir_eedff867f3c4e67d20b227cb6e0f96ab&#45;&gt;dir_4ab6b4cc6a7edbff49100e9123df213f -->
<g id="edge1" class="edge"><title>dir_eedff867f3c4e67d20b227cb6e0f96ab&#45;&gt;dir_4ab6b4cc6a7edbff49100e9123df213f</title>
<path fill="none" stroke="black" d="M244.035,-287.871C242.672,-263.67 240.167,-219.211 238.543,-190.393"/>
<polygon fill="black" stroke="black" points="242.025,-189.977 237.968,-180.189 235.037,-190.37 242.025,-189.977"/>
<g id="a_edge1&#45;headlabel"><a xlink:href="dir_000178_000016.html" target="_top" xlink:title="2">
<text text-anchor="middle" x="245.062" y="-190.906" font-family="Helvetica,sans-Serif" font-size="10.00">2</text>
</a>
</g>
</g>
<!-- dir_eedff867f3c4e67d20b227cb6e0f96ab&#45;&gt;dir_85bf31a2e8d306e7598ffcb73f8df6bf -->
<g id="edge2" class="edge"><title>dir_eedff867f3c4e67d20b227cb6e0f96ab&#45;&gt;dir_85bf31a2e8d306e7598ffcb73f8df6bf</title>
<path fill="none" stroke="black" d="M217.984,-288.411C202.762,-279.064 183.551,-267.268 167.058,-257.141"/>
<polygon fill="black" stroke="black" points="168.571,-253.963 158.218,-251.713 164.908,-259.928 168.571,-253.963"/>
<g id="a_edge2&#45;headlabel"><a xlink:href="dir_000178_000151.html" target="_top" xlink:title="2">
<text text-anchor="middle" x="173.12" y="-250.924" font-family="Helvetica,sans-Serif" font-size="10.00">2</text>
</a>
</g>
</g>
<!-- dir_eedff867f3c4e67d20b227cb6e0f96ab&#45;&gt;dir_2171f7ec022c5423887b07c69b2f5b48 -->
<g id="edge3" class="edge"><title>dir_eedff867f3c4e67d20b227cb6e0f96ab&#45;&gt;dir_2171f7ec022c5423887b07c69b2f5b48</title>
<path fill="none" stroke="black" d="M236.905,-287.849C219.324,-250.597 177.541,-162.067 156.525,-117.539"/>
<polygon fill="black" stroke="black" points="159.566,-115.782 152.133,-108.232 153.236,-118.77 159.566,-115.782"/>
<g id="a_edge3&#45;headlabel"><a xlink:href="dir_000178_000043.html" target="_top" xlink:title="1">
<text text-anchor="middle" x="163.668" y="-115.321" font-family="Helvetica,sans-Serif" font-size="10.00">1</text>
</a>
</g>
</g>
<!-- dir_4ab6b4cc6a7edbff49100e9123df213f&#45;&gt;dir_2171f7ec022c5423887b07c69b2f5b48 -->
<g id="edge4" class="edge"><title>dir_4ab6b4cc6a7edbff49100e9123df213f&#45;&gt;dir_2171f7ec022c5423887b07c69b2f5b48</title>
<path fill="none" stroke="black" d="M209.375,-144.588C196.398,-135.572 181.144,-124.237 168.573,-114.316"/>
<polygon fill="black" stroke="black" points="170.741,-111.568 160.751,-108.04 166.36,-117.028 170.741,-111.568"/>
<g id="a_edge4&#45;headlabel"><a xlink:href="dir_000016_000043.html" target="_top" xlink:title="1">
<text text-anchor="middle" x="175.321" y="-109.103" font-family="Helvetica,sans-Serif" font-size="10.00">1</text>
</a>
</g>
</g>
<!-- dir_a597e8e061b11201a1dff411feb10d0b&#45;&gt;dir_4ab6b4cc6a7edbff49100e9123df213f -->
<g id="edge5" class="edge"><title>dir_a597e8e061b11201a1dff411feb10d0b&#45;&gt;dir_4ab6b4cc6a7edbff49100e9123df213f</title>
<path fill="none" stroke="black" d="M160.83,-36.3214C170.049,-46.2957 181.328,-59.3328 190,-72 203.723,-92.0436 216.401,-116.563 225.123,-134.787"/>
<polygon fill="black" stroke="black" points="222.004,-136.379 229.425,-143.94 228.339,-133.401 222.004,-136.379"/>
<g id="a_edge5&#45;headlabel"><a xlink:href="dir_000125_000016.html" target="_top" xlink:title="6">
<text text-anchor="middle" x="217.905" y="-131.833" font-family="Helvetica,sans-Serif" font-size="10.00">6</text>
</a>
</g>
</g>
<!-- dir_a597e8e061b11201a1dff411feb10d0b&#45;&gt;dir_2171f7ec022c5423887b07c69b2f5b48 -->
<g id="edge6" class="edge"><title>dir_a597e8e061b11201a1dff411feb10d0b&#45;&gt;dir_2171f7ec022c5423887b07c69b2f5b48</title>
<path fill="none" stroke="black" d="M149.895,-36.1043C150.701,-43.7913 150.937,-53.0537 150.604,-61.6651"/>
<polygon fill="black" stroke="black" points="147.109,-61.4805 149.916,-71.6966 154.092,-61.9597 147.109,-61.4805"/>
<g id="a_edge6&#45;headlabel"><a xlink:href="dir_000125_000043.html" target="_top" xlink:title="50">
<text text-anchor="middle" x="144.522" y="-55.2" font-family="Helvetica,sans-Serif" font-size="10.00">50</text>
</a>
</g>
</g>
<!-- dir_85bf31a2e8d306e7598ffcb73f8df6bf&#45;&gt;dir_4ab6b4cc6a7edbff49100e9123df213f -->
<g id="edge13" class="edge"><title>dir_85bf31a2e8d306e7598ffcb73f8df6bf&#45;&gt;dir_4ab6b4cc6a7edbff49100e9123df213f</title>
<path fill="none" stroke="black" d="M156.931,-215.876C170.662,-206.808 187.706,-195.552 202.536,-185.759"/>
<polygon fill="black" stroke="black" points="204.554,-188.621 210.97,-180.19 200.696,-182.78 204.554,-188.621"/>
<g id="a_edge13&#45;headlabel"><a xlink:href="dir_000151_000016.html" target="_top" xlink:title="2">
<text text-anchor="middle" x="203.119" y="-190.471" font-family="Helvetica,sans-Serif" font-size="10.00">2</text>
</a>
</g>
</g>
<!-- dir_85bf31a2e8d306e7598ffcb73f8df6bf&#45;&gt;dir_2171f7ec022c5423887b07c69b2f5b48 -->
<g id="edge14" class="edge"><title>dir_85bf31a2e8d306e7598ffcb73f8df6bf&#45;&gt;dir_2171f7ec022c5423887b07c69b2f5b48</title>
<path fill="none" stroke="black" d="M132.568,-215.871C134.784,-191.67 138.854,-147.211 141.492,-118.393"/>
<polygon fill="black" stroke="black" points="145,-118.467 142.426,-108.189 138.029,-117.829 145,-118.467"/>
<g id="a_edge14&#45;headlabel"><a xlink:href="dir_000151_000043.html" target="_top" xlink:title="11">
<text text-anchor="middle" x="147.5" y="-119.805" font-family="Helvetica,sans-Serif" font-size="10.00">11</text>
</a>
</g>
</g>
<!-- dir_5125ceb2b58f632ed0a3019fe2d5cbbc&#45;&gt;dir_eedff867f3c4e67d20b227cb6e0f96ab -->
<g id="edge15" class="edge"><title>dir_5125ceb2b58f632ed0a3019fe2d5cbbc&#45;&gt;dir_eedff867f3c4e67d20b227cb6e0f96ab</title>
<path fill="none" stroke="black" d="M174.989,-359.697C186.814,-350.796 201.392,-339.823 214.179,-330.199"/>
<polygon fill="black" stroke="black" points="216.391,-332.915 222.276,-324.104 212.181,-327.322 216.391,-332.915"/>
<g id="a_edge15&#45;headlabel"><a xlink:href="dir_000194_000178.html" target="_top" xlink:title="5">
<text text-anchor="middle" x="215.226" y="-334.845" font-family="Helvetica,sans-Serif" font-size="10.00">5</text>
</a>
</g>
</g>
<!-- dir_5125ceb2b58f632ed0a3019fe2d5cbbc&#45;&gt;dir_4ab6b4cc6a7edbff49100e9123df213f -->
<g id="edge16" class="edge"><title>dir_5125ceb2b58f632ed0a3019fe2d5cbbc&#45;&gt;dir_4ab6b4cc6a7edbff49100e9123df213f</title>
<path fill="none" stroke="black" d="M158.812,-359.849C173.609,-322.597 208.772,-234.067 226.459,-189.539"/>
<polygon fill="black" stroke="black" points="229.717,-190.818 230.155,-180.232 223.211,-188.234 229.717,-190.818"/>
<g id="a_edge16&#45;headlabel"><a xlink:href="dir_000194_000016.html" target="_top" xlink:title="15">
<text text-anchor="middle" x="231.029" y="-192.707" font-family="Helvetica,sans-Serif" font-size="10.00">15</text>
</a>
</g>
</g>
<!-- dir_5125ceb2b58f632ed0a3019fe2d5cbbc&#45;&gt;dir_85bf31a2e8d306e7598ffcb73f8df6bf -->
<g id="edge17" class="edge"><title>dir_5125ceb2b58f632ed0a3019fe2d5cbbc&#45;&gt;dir_85bf31a2e8d306e7598ffcb73f8df6bf</title>
<path fill="none" stroke="black" d="M149.467,-359.871C145.888,-335.67 139.313,-291.211 135.051,-262.393"/>
<polygon fill="black" stroke="black" points="138.467,-261.57 133.542,-252.189 131.543,-262.594 138.467,-261.57"/>
<g id="a_edge17&#45;headlabel"><a xlink:href="dir_000194_000151.html" target="_top" xlink:title="12">
<text text-anchor="middle" x="141.802" y="-262.21" font-family="Helvetica,sans-Serif" font-size="10.00">12</text>
</a>
</g>
</g>
<!-- dir_5125ceb2b58f632ed0a3019fe2d5cbbc&#45;&gt;dir_2171f7ec022c5423887b07c69b2f5b48 -->
<g id="edge18" class="edge"><title>dir_5125ceb2b58f632ed0a3019fe2d5cbbc&#45;&gt;dir_2171f7ec022c5423887b07c69b2f5b48</title>
<path fill="none" stroke="black" d="M141.153,-359.627C127.243,-336.224 103.861,-292.788 95,-252 84.4434,-203.406 109.582,-148.262 127.619,-116.757"/>
<polygon fill="black" stroke="black" points="130.633,-118.536 132.712,-108.147 124.608,-114.973 130.633,-118.536"/>
<g id="a_edge18&#45;headlabel"><a xlink:href="dir_000194_000043.html" target="_top" xlink:title="14">
<text text-anchor="middle" x="131.247" y="-120.576" font-family="Helvetica,sans-Serif" font-size="10.00">14</text>
</a>
</g>
</g>
<!-- dir_2171f7ec022c5423887b07c69b2f5b48&#45;&gt;dir_4ab6b4cc6a7edbff49100e9123df213f -->
<g id="edge19" class="edge"><title>dir_2171f7ec022c5423887b07c69b2f5b48&#45;&gt;dir_4ab6b4cc6a7edbff49100e9123df213f</title>
<path fill="none" stroke="black" d="M172.619,-108.104C185.212,-116.889 199.794,-127.732 211.952,-137.309"/>
<polygon fill="black" stroke="black" points="209.934,-140.177 219.927,-143.697 214.31,-134.714 209.934,-140.177"/>
<g id="a_edge19&#45;headlabel"><a xlink:href="dir_000043_000016.html" target="_top" xlink:title="11">
<text text-anchor="middle" x="205.353" y="-137.646" font-family="Helvetica,sans-Serif" font-size="10.00">11</text>
</a>
</g>
</g>
<!-- dir_2171f7ec022c5423887b07c69b2f5b48&#45;&gt;dir_a597e8e061b11201a1dff411feb10d0b -->
<g id="edge20" class="edge"><title>dir_2171f7ec022c5423887b07c69b2f5b48&#45;&gt;dir_a597e8e061b11201a1dff411feb10d0b</title>
<path fill="none" stroke="black" d="M138.084,-71.6966C137.289,-63.9827 137.062,-54.7125 137.405,-46.1124"/>
<polygon fill="black" stroke="black" points="140.898,-46.3243 138.105,-36.1043 133.915,-45.8356 140.898,-46.3243"/>
<g id="a_edge20&#45;headlabel"><a xlink:href="dir_000043_000125.html" target="_top" xlink:title="2">
<text text-anchor="middle" x="143.48" y="-47.6083" font-family="Helvetica,sans-Serif" font-size="10.00">2</text>
</a>
</g>
</g>
</g>
</svg>
        <g id="navigator" transform="translate(0 0)" fill="#404254">
                <rect fill="#f2f5e9" fill-opacity="0.5" stroke="#606060" stroke-width=".5" x="0" y="0" width="60" height="60"/>
                <use id="zoomplus" xlink:href="#zoomPlus" x="17" y="9" onmousedown="handleZoom(evt,'in')"/>
                <use id="zoomminus" xlink:href="#zoomMin" x="42" y="9" onmousedown="handleZoom(evt,'out')"/>
                <use id="reset" xlink:href="#resetDef" x="30" y="36" onmousedown="handleReset()"/>
                <g id="arrowUp" xlink:href="#dirArrow" transform="translate(30 24)" onmousedown="handlePan(0,-1)">
                  <use xlink:href="#rim" fill="#404040">
                        <set attributeName="fill" to="#808080" begin="arrowUp.mouseover" end="arrowUp.mouseout"/>
                  </use>
                  <path fill="none" stroke="white" stroke-width="1.5" d="M0,-3.0v7 M-2.5,-0.5L0,-3.0L2.5,-0.5"/>
                </g>
                <g id="arrowRight" xlink:href="#dirArrow" transform="rotate(90) translate(36 -43)" onmousedown="handlePan(1,0)">
                  <use xlink:href="#rim" fill="#404040">
                        <set attributeName="fill" to="#808080" begin="arrowRight.mouseover" end="arrowRight.mouseout"/>
                  </use>
                  <path fill="none" stroke="white" stroke-width="1.5" d="M0,-3.0v7 M-2.5,-0.5L0,-3.0L2.5,-0.5"/>
                </g>
                <g id="arrowDown" xlink:href="#dirArrow" transform="rotate(180) translate(-30 -48)" onmousedown="handlePan(0,1)">
                  <use xlink:href="#rim" fill="#404040">
                        <set attributeName="fill" to="#808080" begin="arrowDown.mouseover" end="arrowDown.mouseout"/>
                  </use>
                  <path fill="none" stroke="white" stroke-width="1.5" d="M0,-3.0v7 M-2.5,-0.5L0,-3.0L2.5,-0.5"/>
                </g>
                <g id="arrowLeft" xlink:href="#dirArrow" transform="rotate(270) translate(-36 17)" onmousedown="handlePan(-1,0)">
                  <use xlink:href="#rim" fill="#404040">
                        <set attributeName="fill" to="#808080" begin="arrowLeft.mouseover" end="arrowLeft.mouseout"/>
                  </use>
                  <path fill="none" stroke="white" stroke-width="1.5" d="M0,-3.0v7 M-2.5,-0.5L0,-3.0L2.5,-0.5"/>
                </g>
        </g>
        <svg viewBox="0 0 15 15" width="100%" height="30px" preserveAspectRatio="xMaxYMin meet">
         <g id="arrow_out" transform="scale(0.3 0.3)">
          <a xlink:href="dir_d1915fc52ae3a2d414030e7b83b60b4d_dep_org.svg" target="_base">
           <rect id="button" ry="5" rx="5" y="6" x="6" height="38" width="38"
                fill="#f2f5e9" fill-opacity="0.5" stroke="#606060" stroke-width="1.0"/>
           <path id="arrow"
             d="M 11.500037,31.436501 C 11.940474,20.09759 22.043105,11.32322 32.158766,21.979434 L 37.068811,17.246167 C 37.068811,17.246167 37.088388,32 37.088388,32 L 22.160133,31.978069 C 22.160133,31.978069 26.997745,27.140456 26.997745,27.140456 C 18.528582,18.264221 13.291696,25.230495 11.500037,31.436501 z"
             style="fill:#404040;"/>
          </a>
         </g>
        </svg>
</svg>
