<?xml version="1.0" encoding="UTF-8" standalone="no"?>
<!DOCTYPE svg PUBLIC "-//W3C//DTD SVG 1.1//EN"
 "http://www.w3.org/Graphics/SVG/1.1/DTD/svg11.dtd">
<!-- Generated by graphviz version 2.36.0 (20140111.2315)
 -->
<!-- Title: /home/travis/build/AliceO2Group/AliceO2/Detectors Pages: 1 -->
<!--zoomable 276 -->
<svg id="main" version="1.1" xmlns="http://www.w3.org/2000/svg" xmlns:xlink="http://www.w3.org/1999/xlink" xml:space="preserve" onload="init(evt)">
<style type="text/css"><![CDATA[
.edge:hover path { stroke: red; }
.edge:hover polygon { stroke: red; fill: red; }
]]></style>
<script type="text/javascript"><![CDATA[
var edges = document.getElementsByTagName('g');
if (edges && edges.length) {
  for (var i=0;i<edges.length;i++) {
    if (edges[i].id.substr(0,4)=='edge') {
      edges[i].setAttribute('class','edge');
    }
  }
}
]]></script>
        <defs>
                <circle id="rim" cx="0" cy="0" r="7"/>
                <circle id="rim2" cx="0" cy="0" r="3.5"/>
                <g id="zoomPlus">
                        <use xlink:href="#rim" fill="#404040">
                                <set attributeName="fill" to="#808080" begin="zoomplus.mouseover" end="zoomplus.mouseout"/>
                        </use>
                        <path d="M-4,0h8M0,-4v8" fill="none" stroke="white" stroke-width="1.5" pointer-events="none"/>
                </g>
                <g id="zoomMin">
                        <use xlink:href="#rim" fill="#404040">
                                <set attributeName="fill" to="#808080" begin="zoomminus.mouseover" end="zoomminus.mouseout"/>
                        </use>
                        <path d="M-4,0h8" fill="none" stroke="white" stroke-width="1.5" pointer-events="none"/>
                </g>
                <g id="dirArrow">
                        <path fill="none" stroke="white" stroke-width="1.5" d="M0,-3.0v7 M-2.5,-0.5L0,-3.0L2.5,-0.5"/>
                </g>
               <g id="resetDef">
                       <use xlink:href="#rim2" fill="#404040">
                               <set attributeName="fill" to="#808080" begin="reset.mouseover" end="reset.mouseout"/>
                       </use>
               </g>
        </defs>

<script type="text/javascript">
var viewWidth = 757;
var viewHeight = 276;
var sectionId = 'dynsection-0';
</script>
<script xlink:href="svgpan.js"/>
<svg id="graph" class="graph">
<g id="viewport">
<title>/home/travis/build/AliceO2Group/AliceO2/Detectors</title>
<g id="clust1" class="cluster"><title>clusterdir_051dca18e802f8e9474f2e30d29c04e0</title>
<g id="a_clust1"><a xlink:href="dir_051dca18e802f8e9474f2e30d29c04e0.html" target="_top">
<polygon fill="#eeeeff" stroke="black" points="8,-64 8,-260 444,-260 444,-64 8,-64"/>
</a>
</g>
</g>
<!-- dir_051dca18e802f8e9474f2e30d29c04e0 -->
<g id="node1" class="node"><title>dir_051dca18e802f8e9474f2e30d29c04e0</title>
<text text-anchor="middle" x="406" y="-231.5" font-family="Helvetica,sans-Serif" font-size="10.00">Detectors</text>
</g>
<!-- dir_37c90836491b695b472bf98d1be8336b -->
<g id="node2" class="node"><title>dir_37c90836491b695b472bf98d1be8336b</title>
<g id="a_node2"><a xlink:href="dir_37c90836491b695b472bf98d1be8336b.html" target="_top" xlink:title="Base">
<polygon fill="white" stroke="red" points="209,-108 155,-108 155,-72 209,-72 209,-108"/>
<text text-anchor="middle" x="182" y="-87.5" font-family="Helvetica,sans-Serif" font-size="10.00">Base</text>
</a>
</g>
</g>
<!-- dir_4ab6b4cc6a7edbff49100e9123df213f -->
<g id="node13" class="node"><title>dir_4ab6b4cc6a7edbff49100e9123df213f</title>
<g id="a_node13"><a xlink:href="dir_4ab6b4cc6a7edbff49100e9123df213f.html" target="_top" xlink:title="Common">
<polygon fill="none" stroke="red" points="507.5,-108 452.5,-108 452.5,-72 507.5,-72 507.5,-108"/>
<text text-anchor="middle" x="480" y="-87.5" font-family="Helvetica,sans-Serif" font-size="10.00">Common</text>
</a>
</g>
</g>
<!-- dir_37c90836491b695b472bf98d1be8336b&#45;&gt;dir_4ab6b4cc6a7edbff49100e9123df213f -->
<g id="edge15" class="edge"><title>dir_37c90836491b695b472bf98d1be8336b&#45;&gt;dir_4ab6b4cc6a7edbff49100e9123df213f</title>
<path fill="none" stroke="black" d="M209.064,-90C286.718,-90 364.371,-90 442.024,-90"/>
<polygon fill="black" stroke="black" points="442.483,-93.5001 452.483,-90 442.483,-86.5001 442.483,-93.5001"/>
<g id="a_edge15&#45;headlabel"><a xlink:href="dir_000099_000016.html" target="_top" xlink:title="5">
<text text-anchor="middle" x="438.888" y="-93.8393" font-family="Helvetica,sans-Serif" font-size="10.00">5</text>
</a>
</g>
</g>
<!-- dir_2171f7ec022c5423887b07c69b2f5b48 -->
<g id="node14" class="node"><title>dir_2171f7ec022c5423887b07c69b2f5b48</title>
<g id="a_node14"><a xlink:href="dir_2171f7ec022c5423887b07c69b2f5b48.html" target="_top" xlink:title="DataFormats">
<polygon fill="none" stroke="red" points="517,-36 443,-36 443,-0 517,-0 517,-36"/>
<text text-anchor="middle" x="480" y="-15.5" font-family="Helvetica,sans-Serif" font-size="10.00">DataFormats</text>
</a>
</g>
</g>
<!-- dir_37c90836491b695b472bf98d1be8336b&#45;&gt;dir_2171f7ec022c5423887b07c69b2f5b48 -->
<g id="edge16" class="edge"><title>dir_37c90836491b695b472bf98d1be8336b&#45;&gt;dir_2171f7ec022c5423887b07c69b2f5b48</title>
<path fill="none" stroke="black" d="M205.359,-71.8924C211.62,-68.9401 218.427,-66.1383 225,-64 295.252,-41.1444 380.795,-28.7912 432.909,-23.0765"/>
<polygon fill="black" stroke="black" points="433.295,-26.5552 442.871,-22.0209 432.558,-19.5942 433.295,-26.5552"/>
<g id="a_edge16&#45;headlabel"><a xlink:href="dir_000099_000043.html" target="_top" xlink:title="5">
<text text-anchor="middle" x="430.02" y="-27.2573" font-family="Helvetica,sans-Serif" font-size="10.00">5</text>
</a>
</g>
</g>
<!-- dir_088378b58cb1ba39db48039cbd66d10f -->
<g id="node3" class="node"><title>dir_088378b58cb1ba39db48039cbd66d10f</title>
<g id="a_node3"><a xlink:href="dir_088378b58cb1ba39db48039cbd66d10f.html" target="_top" xlink:title="EMCAL">
<polygon fill="white" stroke="red" points="214,-252 160,-252 160,-216 214,-216 214,-252"/>
<text text-anchor="middle" x="187" y="-231.5" font-family="Helvetica,sans-Serif" font-size="10.00">EMCAL</text>
</a>
</g>
</g>
<!-- dir_088378b58cb1ba39db48039cbd66d10f&#45;&gt;dir_37c90836491b695b472bf98d1be8336b -->
<g id="edge6" class="edge"><title>dir_088378b58cb1ba39db48039cbd66d10f&#45;&gt;dir_37c90836491b695b472bf98d1be8336b</title>
<path fill="none" stroke="black" d="M159.703,-219.316C145.021,-210.338 128.271,-197.088 120,-180 113.029,-165.598 113.305,-158.532 120,-144 125.761,-131.496 136.088,-120.846 146.682,-112.444"/>
<polygon fill="black" stroke="black" points="148.807,-115.226 154.764,-106.465 144.643,-109.599 148.807,-115.226"/>
<g id="a_edge6&#45;headlabel"><a xlink:href="dir_000102_000099.html" target="_top" xlink:title="1">
<text text-anchor="middle" x="147.606" y="-117.147" font-family="Helvetica,sans-Serif" font-size="10.00">1</text>
</a>
</g>
</g>
<!-- dir_f01815b857f9009bea48e2cb39492245 -->
<g id="node7" class="node"><title>dir_f01815b857f9009bea48e2cb39492245</title>
<g id="a_node7"><a xlink:href="dir_f01815b857f9009bea48e2cb39492245.html" target="_top" xlink:title="Passive">
<polygon fill="white" stroke="red" points="414,-180 360,-180 360,-144 414,-144 414,-180"/>
<text text-anchor="middle" x="387" y="-159.5" font-family="Helvetica,sans-Serif" font-size="10.00">Passive</text>
</a>
</g>
</g>
<!-- dir_088378b58cb1ba39db48039cbd66d10f&#45;&gt;dir_f01815b857f9009bea48e2cb39492245 -->
<g id="edge7" class="edge"><title>dir_088378b58cb1ba39db48039cbd66d10f&#45;&gt;dir_f01815b857f9009bea48e2cb39492245</title>
<path fill="none" stroke="black" d="M214.314,-219.524C217.218,-218.266 220.151,-217.065 223,-216 275.545,-196.361 293.79,-200.21 350.28,-179.943"/>
<polygon fill="black" stroke="black" points="351.514,-183.218 359.686,-176.476 349.092,-176.65 351.514,-183.218"/>
<g id="a_edge7&#45;headlabel"><a xlink:href="dir_000102_000203.html" target="_top" xlink:title="5">
<text text-anchor="middle" x="349.123" y="-184.626" font-family="Helvetica,sans-Serif" font-size="10.00">5</text>
</a>
</g>
</g>
<!-- dir_a597e8e061b11201a1dff411feb10d0b -->
<g id="node10" class="node"><title>dir_a597e8e061b11201a1dff411feb10d0b</title>
<g id="a_node10"><a xlink:href="dir_a597e8e061b11201a1dff411feb10d0b.html" target="_top" xlink:title="TPC">
<polygon fill="white" stroke="red" points="342,-180 288,-180 288,-144 342,-144 342,-180"/>
<text text-anchor="middle" x="315" y="-159.5" font-family="Helvetica,sans-Serif" font-size="10.00">TPC</text>
</a>
</g>
</g>
<!-- dir_088378b58cb1ba39db48039cbd66d10f&#45;&gt;dir_a597e8e061b11201a1dff411feb10d0b -->
<g id="edge5" class="edge"><title>dir_088378b58cb1ba39db48039cbd66d10f&#45;&gt;dir_a597e8e061b11201a1dff411feb10d0b</title>
<path fill="none" stroke="black" d="M214.146,-218.155C233.067,-207.807 258.509,-193.893 279.105,-182.63"/>
<polygon fill="black" stroke="black" points="280.799,-185.693 287.894,-177.824 277.441,-179.551 280.799,-185.693"/>
<g id="a_edge5&#45;headlabel"><a xlink:href="dir_000102_000125.html" target="_top" xlink:title="1">
<text text-anchor="middle" x="279.008" y="-187.409" font-family="Helvetica,sans-Serif" font-size="10.00">1</text>
</a>
</g>
</g>
<!-- dir_0b342c6c6b7d2278121a0bb9c4985063 -->
<g id="node12" class="node"><title>dir_0b342c6c6b7d2278121a0bb9c4985063</title>
<g id="a_node12"><a xlink:href="dir_0b342c6c6b7d2278121a0bb9c4985063.html" target="_top" xlink:title="Generators">
<polygon fill="none" stroke="red" points="649.25,-180 584.75,-180 584.75,-144 649.25,-144 649.25,-180"/>
<text text-anchor="middle" x="617" y="-159.5" font-family="Helvetica,sans-Serif" font-size="10.00">Generators</text>
</a>
</g>
</g>
<!-- dir_088378b58cb1ba39db48039cbd66d10f&#45;&gt;dir_0b342c6c6b7d2278121a0bb9c4985063 -->
<g id="edge3" class="edge"><title>dir_088378b58cb1ba39db48039cbd66d10f&#45;&gt;dir_0b342c6c6b7d2278121a0bb9c4985063</title>
<path fill="none" stroke="black" d="M214.149,-219.017C217.085,-217.857 220.071,-216.818 223,-216 372.338,-174.303 418.866,-214.626 570,-180 571.657,-179.62 573.336,-179.199 575.024,-178.745"/>
<polygon fill="black" stroke="black" points="576.12,-182.071 584.692,-175.845 574.108,-175.366 576.12,-182.071"/>
<g id="a_edge3&#45;headlabel"><a xlink:href="dir_000102_000281.html" target="_top" xlink:title="1">
<text text-anchor="middle" x="573.492" y="-183.323" font-family="Helvetica,sans-Serif" font-size="10.00">1</text>
</a>
</g>
</g>
<!-- dir_088378b58cb1ba39db48039cbd66d10f&#45;&gt;dir_4ab6b4cc6a7edbff49100e9123df213f -->
<g id="edge4" class="edge"><title>dir_088378b58cb1ba39db48039cbd66d10f&#45;&gt;dir_4ab6b4cc6a7edbff49100e9123df213f</title>
<path fill="none" stroke="black" d="M214.132,-218.954C217.071,-217.806 220.062,-216.787 223,-216 269.845,-203.444 625.151,-215.68 658,-180 702.557,-131.603 582.372,-105.965 517.851,-96.0034"/>
<polygon fill="black" stroke="black" points="518.037,-92.4927 507.631,-94.4842 517.008,-99.4166 518.037,-92.4927"/>
<g id="a_edge4&#45;headlabel"><a xlink:href="dir_000102_000016.html" target="_top" xlink:title="4">
<text text-anchor="middle" x="522.01" y="-87.7127" font-family="Helvetica,sans-Serif" font-size="10.00">4</text>
</a>
</g>
</g>
<!-- dir_088378b58cb1ba39db48039cbd66d10f&#45;&gt;dir_2171f7ec022c5423887b07c69b2f5b48 -->
<g id="edge8" class="edge"><title>dir_088378b58cb1ba39db48039cbd66d10f&#45;&gt;dir_2171f7ec022c5423887b07c69b2f5b48</title>
<path fill="none" stroke="black" d="M214.129,-218.944C217.069,-217.798 220.061,-216.783 223,-216 271.792,-203.008 641.74,-217.091 676,-180 731.976,-119.4 601.064,-61.2742 526.815,-34.4543"/>
<polygon fill="black" stroke="black" points="527.773,-31.0806 517.178,-31.0337 525.432,-37.6773 527.773,-31.0806"/>
<g id="a_edge8&#45;headlabel"><a xlink:href="dir_000102_000043.html" target="_top" xlink:title="4">
<text text-anchor="middle" x="532.111" y="-27.1073" font-family="Helvetica,sans-Serif" font-size="10.00">4</text>
</a>
</g>
</g>
<!-- dir_d14e88a79bca429480864605ee348cef -->
<g id="node4" class="node"><title>dir_d14e88a79bca429480864605ee348cef</title>
<g id="a_node4"><a xlink:href="dir_d14e88a79bca429480864605ee348cef.html" target="_top" xlink:title="FIT">
<polygon fill="white" stroke="red" points="270,-180 216,-180 216,-144 270,-144 270,-180"/>
<text text-anchor="middle" x="243" y="-159.5" font-family="Helvetica,sans-Serif" font-size="10.00">FIT</text>
</a>
</g>
</g>
<!-- dir_d14e88a79bca429480864605ee348cef&#45;&gt;dir_37c90836491b695b472bf98d1be8336b -->
<g id="edge10" class="edge"><title>dir_d14e88a79bca429480864605ee348cef&#45;&gt;dir_37c90836491b695b472bf98d1be8336b</title>
<path fill="none" stroke="black" d="M227.921,-143.697C220.608,-135.305 211.69,-125.07 203.665,-115.861"/>
<polygon fill="black" stroke="black" points="206.114,-113.344 196.905,-108.104 200.836,-117.943 206.114,-113.344"/>
<g id="a_edge10&#45;headlabel"><a xlink:href="dir_000106_000099.html" target="_top" xlink:title="1">
<text text-anchor="middle" x="210.616" y="-111.689" font-family="Helvetica,sans-Serif" font-size="10.00">1</text>
</a>
</g>
</g>
<!-- dir_d14e88a79bca429480864605ee348cef&#45;&gt;dir_2171f7ec022c5423887b07c69b2f5b48 -->
<g id="edge11" class="edge"><title>dir_d14e88a79bca429480864605ee348cef&#45;&gt;dir_2171f7ec022c5423887b07c69b2f5b48</title>
<path fill="none" stroke="black" d="M255.349,-143.742C271.686,-122.115 302.477,-85.3082 337,-64 366.42,-45.841 403.812,-34.4109 432.981,-27.6158"/>
<polygon fill="black" stroke="black" points="433.927,-30.9908 442.928,-25.4022 432.407,-24.1579 433.927,-30.9908"/>
<g id="a_edge11&#45;headlabel"><a xlink:href="dir_000106_000043.html" target="_top" xlink:title="1">
<text text-anchor="middle" x="431.035" y="-32.043" font-family="Helvetica,sans-Serif" font-size="10.00">1</text>
</a>
</g>
</g>
<!-- dir_fda58d415f46ed5554e220ec8997f6b0 -->
<g id="node5" class="node"><title>dir_fda58d415f46ed5554e220ec8997f6b0</title>
<g id="a_node5"><a xlink:href="dir_fda58d415f46ed5554e220ec8997f6b0.html" target="_top" xlink:title="gconfig">
<polygon fill="white" stroke="black" points="286,-252 232,-252 232,-216 286,-216 286,-252"/>
<text text-anchor="middle" x="259" y="-231.5" font-family="Helvetica,sans-Serif" font-size="10.00">gconfig</text>
</a>
</g>
</g>
<!-- dir_1306292b77b40360479b729ac9ee7efe -->
<g id="node6" class="node"><title>dir_1306292b77b40360479b729ac9ee7efe</title>
<g id="a_node6"><a xlink:href="dir_1306292b77b40360479b729ac9ee7efe.html" target="_top" xlink:title="ITSMFT">
<polygon fill="white" stroke="red" points="70,-252 16,-252 16,-216 70,-216 70,-252"/>
<text text-anchor="middle" x="43" y="-231.5" font-family="Helvetica,sans-Serif" font-size="10.00">ITSMFT</text>
</a>
</g>
</g>
<!-- dir_1306292b77b40360479b729ac9ee7efe&#45;&gt;dir_37c90836491b695b472bf98d1be8336b -->
<g id="edge19" class="edge"><title>dir_1306292b77b40360479b729ac9ee7efe&#45;&gt;dir_37c90836491b695b472bf98d1be8336b</title>
<path fill="none" stroke="black" d="M51.4459,-215.769C61.4054,-196.657 79.3718,-165.668 101,-144 114.076,-130.9 130.894,-119.261 145.813,-110.252"/>
<polygon fill="black" stroke="black" points="147.942,-113.062 154.807,-104.992 144.408,-107.019 147.942,-113.062"/>
<g id="a_edge19&#45;headlabel"><a xlink:href="dir_000077_000099.html" target="_top" xlink:title="7">
<text text-anchor="middle" x="146.272" y="-114.827" font-family="Helvetica,sans-Serif" font-size="10.00">7</text>
</a>
</g>
</g>
<!-- dir_1306292b77b40360479b729ac9ee7efe&#45;&gt;dir_f01815b857f9009bea48e2cb39492245 -->
<g id="edge20" class="edge"><title>dir_1306292b77b40360479b729ac9ee7efe&#45;&gt;dir_f01815b857f9009bea48e2cb39492245</title>
<path fill="none" stroke="black" d="M70.1731,-219.101C73.1047,-217.925 76.0827,-216.859 79,-216 192.892,-182.461 231.962,-212.759 350.056,-179.724"/>
<polygon fill="black" stroke="black" points="351.193,-183.039 359.827,-176.899 349.248,-176.314 351.193,-183.039"/>
<g id="a_edge20&#45;headlabel"><a xlink:href="dir_000077_000203.html" target="_top" xlink:title="1">
<text text-anchor="middle" x="348.529" y="-184.265" font-family="Helvetica,sans-Serif" font-size="10.00">1</text>
</a>
</g>
</g>
<!-- dir_1306292b77b40360479b729ac9ee7efe&#45;&gt;dir_a597e8e061b11201a1dff411feb10d0b -->
<g id="edge18" class="edge"><title>dir_1306292b77b40360479b729ac9ee7efe&#45;&gt;dir_a597e8e061b11201a1dff411feb10d0b</title>
<path fill="none" stroke="black" d="M70.2158,-219.241C73.1391,-218.037 76.1034,-216.927 79,-216 161.998,-189.447 190.94,-206.239 278.028,-179.823"/>
<polygon fill="black" stroke="black" points="279.292,-183.095 287.784,-176.759 277.195,-176.416 279.292,-183.095"/>
<g id="a_edge18&#45;headlabel"><a xlink:href="dir_000077_000125.html" target="_top" xlink:title="1">
<text text-anchor="middle" x="276.713" y="-184.381" font-family="Helvetica,sans-Serif" font-size="10.00">1</text>
</a>
</g>
</g>
<!-- dir_1306292b77b40360479b729ac9ee7efe&#45;&gt;dir_4ab6b4cc6a7edbff49100e9123df213f -->
<g id="edge17" class="edge"><title>dir_1306292b77b40360479b729ac9ee7efe&#45;&gt;dir_4ab6b4cc6a7edbff49100e9123df213f</title>
<path fill="none" stroke="black" d="M70.1495,-219.019C73.0857,-217.859 76.0712,-216.819 79,-216 153.021,-195.297 357.583,-220.353 423,-180 435.216,-172.465 453.788,-140.901 466.386,-117.492"/>
<polygon fill="black" stroke="black" points="469.633,-118.839 471.221,-108.364 463.447,-115.563 469.633,-118.839"/>
<g id="a_edge17&#45;headlabel"><a xlink:href="dir_000077_000016.html" target="_top" xlink:title="37">
<text text-anchor="middle" x="470.459" y="-120.845" font-family="Helvetica,sans-Serif" font-size="10.00">37</text>
</a>
</g>
</g>
<!-- dir_1306292b77b40360479b729ac9ee7efe&#45;&gt;dir_2171f7ec022c5423887b07c69b2f5b48 -->
<g id="edge21" class="edge"><title>dir_1306292b77b40360479b729ac9ee7efe&#45;&gt;dir_2171f7ec022c5423887b07c69b2f5b48</title>
<path fill="none" stroke="black" d="M70.143,-218.996C73.0805,-217.84 76.068,-216.808 79,-216 239.14,-171.882 302.64,-254.702 451,-180 489.505,-160.612 500.524,-148.238 516,-108 523.02,-89.7479 522.473,-82.4532 516,-64 513.496,-56.8603 509.329,-50.0119 504.701,-43.9057"/>
<polygon fill="black" stroke="black" points="507.293,-41.5479 498.217,-36.0815 501.903,-46.0145 507.293,-41.5479"/>
<g id="a_edge21&#45;headlabel"><a xlink:href="dir_000077_000043.html" target="_top" xlink:title="45">
<text text-anchor="middle" x="511.773" y="-40.0039" font-family="Helvetica,sans-Serif" font-size="10.00">45</text>
</a>
</g>
</g>
<!-- dir_f01815b857f9009bea48e2cb39492245&#45;&gt;dir_37c90836491b695b472bf98d1be8336b -->
<g id="edge31" class="edge"><title>dir_f01815b857f9009bea48e2cb39492245&#45;&gt;dir_37c90836491b695b472bf98d1be8336b</title>
<path fill="none" stroke="black" d="M359.653,-147.611C356.755,-146.336 353.833,-145.107 351,-144 306.295,-126.53 253.276,-110.66 218.702,-100.934"/>
<polygon fill="black" stroke="black" points="219.601,-97.551 209.029,-98.2375 217.722,-104.294 219.601,-97.551"/>
<g id="a_edge31&#45;headlabel"><a xlink:href="dir_000203_000099.html" target="_top" xlink:title="16">
<text text-anchor="middle" x="223.826" y="-93.281" font-family="Helvetica,sans-Serif" font-size="10.00">16</text>
</a>
</g>
</g>
<!-- dir_f01815b857f9009bea48e2cb39492245&#45;&gt;dir_4ab6b4cc6a7edbff49100e9123df213f -->
<g id="edge30" class="edge"><title>dir_f01815b857f9009bea48e2cb39492245&#45;&gt;dir_4ab6b4cc6a7edbff49100e9123df213f</title>
<path fill="none" stroke="black" d="M409.989,-143.697C421.814,-134.796 436.392,-123.823 449.179,-114.199"/>
<polygon fill="black" stroke="black" points="451.391,-116.915 457.276,-108.104 447.181,-111.322 451.391,-116.915"/>
<g id="a_edge30&#45;headlabel"><a xlink:href="dir_000203_000016.html" target="_top" xlink:title="1">
<text text-anchor="middle" x="450.226" y="-118.845" font-family="Helvetica,sans-Serif" font-size="10.00">1</text>
</a>
</g>
</g>
<!-- dir_cd3c152a7db0580c86a4c50ad0325149 -->
<g id="node8" class="node"><title>dir_cd3c152a7db0580c86a4c50ad0325149</title>
<g id="a_node8"><a xlink:href="dir_cd3c152a7db0580c86a4c50ad0325149.html" target="_top" xlink:title="PHOS">
<polygon fill="white" stroke="red" points="142,-252 88,-252 88,-216 142,-216 142,-252"/>
<text text-anchor="middle" x="115" y="-231.5" font-family="Helvetica,sans-Serif" font-size="10.00">PHOS</text>
</a>
</g>
</g>
<!-- dir_cd3c152a7db0580c86a4c50ad0325149&#45;&gt;dir_37c90836491b695b472bf98d1be8336b -->
<g id="edge27" class="edge"><title>dir_cd3c152a7db0580c86a4c50ad0325149&#45;&gt;dir_37c90836491b695b472bf98d1be8336b</title>
<path fill="none" stroke="black" d="M109.507,-215.905C104.529,-197.191 99.5611,-166.813 111,-144 118.522,-128.998 132.528,-117.157 146.125,-108.507"/>
<polygon fill="black" stroke="black" points="148.116,-111.396 154.93,-103.283 144.544,-105.376 148.116,-111.396"/>
<g id="a_edge27&#45;headlabel"><a xlink:href="dir_000117_000099.html" target="_top" xlink:title="1">
<text text-anchor="middle" x="146.474" y="-113.172" font-family="Helvetica,sans-Serif" font-size="10.00">1</text>
</a>
</g>
</g>
<!-- dir_cd3c152a7db0580c86a4c50ad0325149&#45;&gt;dir_f01815b857f9009bea48e2cb39492245 -->
<g id="edge28" class="edge"><title>dir_cd3c152a7db0580c86a4c50ad0325149&#45;&gt;dir_f01815b857f9009bea48e2cb39492245</title>
<path fill="none" stroke="black" d="M142.216,-219.241C145.139,-218.037 148.103,-216.927 151,-216 233.998,-189.447 262.94,-206.239 350.028,-179.823"/>
<polygon fill="black" stroke="black" points="351.292,-183.095 359.784,-176.759 349.195,-176.416 351.292,-183.095"/>
<g id="a_edge28&#45;headlabel"><a xlink:href="dir_000117_000203.html" target="_top" xlink:title="4">
<text text-anchor="middle" x="348.713" y="-184.381" font-family="Helvetica,sans-Serif" font-size="10.00">4</text>
</a>
</g>
</g>
<!-- dir_cd3c152a7db0580c86a4c50ad0325149&#45;&gt;dir_4ab6b4cc6a7edbff49100e9123df213f -->
<g id="edge26" class="edge"><title>dir_cd3c152a7db0580c86a4c50ad0325149&#45;&gt;dir_4ab6b4cc6a7edbff49100e9123df213f</title>
<path fill="none" stroke="black" d="M142.161,-219.059C145.095,-217.891 148.077,-216.839 151,-216 216.603,-197.183 404.352,-224.613 456,-180 473.554,-164.837 478.924,-138.312 480.28,-118.153"/>
<polygon fill="black" stroke="black" points="483.783,-118.13 480.669,-108.003 476.788,-117.862 483.783,-118.13"/>
<g id="a_edge26&#45;headlabel"><a xlink:href="dir_000117_000016.html" target="_top" xlink:title="2">
<text text-anchor="middle" x="486.482" y="-119.331" font-family="Helvetica,sans-Serif" font-size="10.00">2</text>
</a>
</g>
</g>
<!-- dir_cd3c152a7db0580c86a4c50ad0325149&#45;&gt;dir_2171f7ec022c5423887b07c69b2f5b48 -->
<g id="edge29" class="edge"><title>dir_cd3c152a7db0580c86a4c50ad0325149&#45;&gt;dir_2171f7ec022c5423887b07c69b2f5b48</title>
<path fill="none" stroke="black" d="M142.141,-218.989C145.079,-217.835 148.067,-216.804 151,-216 233.015,-193.505 467.507,-235.435 532,-180 571.565,-145.992 575,-109.792 550,-64 544.431,-53.8 535.451,-45.5672 525.753,-39.0723"/>
<polygon fill="black" stroke="black" points="527.474,-36.0224 517.114,-33.8063 523.831,-41.9996 527.474,-36.0224"/>
<g id="a_edge29&#45;headlabel"><a xlink:href="dir_000117_000043.html" target="_top" xlink:title="2">
<text text-anchor="middle" x="532.021" y="-32.9688" font-family="Helvetica,sans-Serif" font-size="10.00">2</text>
</a>
</g>
</g>
<!-- dir_577c839d346a264df4e9e588ca2a45dd -->
<g id="node9" class="node"><title>dir_577c839d346a264df4e9e588ca2a45dd</title>
<g id="a_node9"><a xlink:href="dir_577c839d346a264df4e9e588ca2a45dd.html" target="_top" xlink:title="TOF">
<polygon fill="white" stroke="red" points="358,-252 304,-252 304,-216 358,-216 358,-252"/>
<text text-anchor="middle" x="331" y="-231.5" font-family="Helvetica,sans-Serif" font-size="10.00">TOF</text>
</a>
</g>
</g>
<!-- dir_577c839d346a264df4e9e588ca2a45dd&#45;&gt;dir_37c90836491b695b472bf98d1be8336b -->
<g id="edge23" class="edge"><title>dir_577c839d346a264df4e9e588ca2a45dd&#45;&gt;dir_37c90836491b695b472bf98d1be8336b</title>
<path fill="none" stroke="black" d="M303.742,-219.369C300.827,-218.14 297.876,-216.989 295,-216 226.074,-192.295 180.533,-236.917 135,-180 119.1,-160.125 136.511,-134.053 154.473,-115.271"/>
<polygon fill="black" stroke="black" points="156.953,-117.74 161.578,-108.208 152.018,-112.776 156.953,-117.74"/>
<g id="a_edge23&#45;headlabel"><a xlink:href="dir_000121_000099.html" target="_top" xlink:title="2">
<text text-anchor="middle" x="156.405" y="-119.788" font-family="Helvetica,sans-Serif" font-size="10.00">2</text>
</a>
</g>
</g>
<!-- dir_577c839d346a264df4e9e588ca2a45dd&#45;&gt;dir_f01815b857f9009bea48e2cb39492245 -->
<g id="edge24" class="edge"><title>dir_577c839d346a264df4e9e588ca2a45dd&#45;&gt;dir_f01815b857f9009bea48e2cb39492245</title>
<path fill="none" stroke="black" d="M344.843,-215.697C351.489,-207.389 359.578,-197.277 366.887,-188.141"/>
<polygon fill="black" stroke="black" points="369.803,-190.099 373.317,-180.104 364.336,-185.727 369.803,-190.099"/>
<g id="a_edge24&#45;headlabel"><a xlink:href="dir_000121_000203.html" target="_top" xlink:title="2">
<text text-anchor="middle" x="369.774" y="-192.18" font-family="Helvetica,sans-Serif" font-size="10.00">2</text>
</a>
</g>
</g>
<!-- dir_577c839d346a264df4e9e588ca2a45dd&#45;&gt;dir_4ab6b4cc6a7edbff49100e9123df213f -->
<g id="edge22" class="edge"><title>dir_577c839d346a264df4e9e588ca2a45dd&#45;&gt;dir_4ab6b4cc6a7edbff49100e9123df213f</title>
<path fill="none" stroke="black" d="M358.155,-219.038C361.09,-217.874 364.074,-216.828 367,-216 436.919,-196.216 643.53,-234.136 692,-180 744.217,-121.68 592.029,-100.484 517.959,-93.7586"/>
<polygon fill="black" stroke="black" points="517.894,-90.2401 507.63,-92.8685 517.293,-97.2143 517.894,-90.2401"/>
<g id="a_edge22&#45;headlabel"><a xlink:href="dir_000121_000016.html" target="_top" xlink:title="1">
<text text-anchor="middle" x="521.719" y="-85.2199" font-family="Helvetica,sans-Serif" font-size="10.00">1</text>
</a>
</g>
</g>
<!-- dir_577c839d346a264df4e9e588ca2a45dd&#45;&gt;dir_2171f7ec022c5423887b07c69b2f5b48 -->
<g id="edge25" class="edge"><title>dir_577c839d346a264df4e9e588ca2a45dd&#45;&gt;dir_2171f7ec022c5423887b07c69b2f5b48</title>
<path fill="none" stroke="black" d="M358.15,-219.019C361.086,-217.859 364.071,-216.819 367,-216 441.021,-195.297 652.637,-230.015 711,-180 750.669,-146.005 763.51,-104.08 730,-64 704.693,-33.7315 592.634,-23.7915 527.454,-20.5498"/>
<polygon fill="black" stroke="black" points="527.567,-17.0514 517.416,-20.085 527.243,-24.0439 527.567,-17.0514"/>
<g id="a_edge25&#45;headlabel"><a xlink:href="dir_000121_000043.html" target="_top" xlink:title="6">
<text text-anchor="middle" x="531.289" y="-11.8814" font-family="Helvetica,sans-Serif" font-size="10.00">6</text>
</a>
</g>
</g>
<!-- dir_a597e8e061b11201a1dff411feb10d0b&#45;&gt;dir_37c90836491b695b472bf98d1be8336b -->
<g id="edge13" class="edge"><title>dir_a597e8e061b11201a1dff411feb10d0b&#45;&gt;dir_37c90836491b695b472bf98d1be8336b</title>
<path fill="none" stroke="black" d="M287.765,-146.666C267.682,-136.096 240.156,-121.609 218.22,-110.063"/>
<polygon fill="black" stroke="black" points="219.678,-106.876 209.199,-105.315 216.418,-113.07 219.678,-106.876"/>
<g id="a_edge13&#45;headlabel"><a xlink:href="dir_000125_000099.html" target="_top" xlink:title="1">
<text text-anchor="middle" x="224.182" y="-103.537" font-family="Helvetica,sans-Serif" font-size="10.00">1</text>
</a>
</g>
</g>
<!-- dir_a597e8e061b11201a1dff411feb10d0b&#45;&gt;dir_4ab6b4cc6a7edbff49100e9123df213f -->
<g id="edge12" class="edge"><title>dir_a597e8e061b11201a1dff411feb10d0b&#45;&gt;dir_4ab6b4cc6a7edbff49100e9123df213f</title>
<path fill="none" stroke="black" d="M342.015,-147.939C345.03,-146.572 348.069,-145.233 351,-144 390.405,-127.42 404.119,-126.827 442.927,-110.134"/>
<polygon fill="black" stroke="black" points="444.444,-113.291 452.185,-106.057 441.622,-106.884 444.444,-113.291"/>
<g id="a_edge12&#45;headlabel"><a xlink:href="dir_000125_000016.html" target="_top" xlink:title="6">
<text text-anchor="middle" x="442.299" y="-114.838" font-family="Helvetica,sans-Serif" font-size="10.00">6</text>
</a>
</g>
</g>
<!-- dir_a597e8e061b11201a1dff411feb10d0b&#45;&gt;dir_2171f7ec022c5423887b07c69b2f5b48 -->
<g id="edge14" class="edge"><title>dir_a597e8e061b11201a1dff411feb10d0b&#45;&gt;dir_2171f7ec022c5423887b07c69b2f5b48</title>
<path fill="none" stroke="black" d="M321.804,-143.701C330.978,-122.371 349.19,-86.223 375,-64 391.714,-49.6085 413.722,-39.2285 433.27,-32.0906"/>
<polygon fill="black" stroke="black" points="434.625,-35.3255 442.929,-28.7467 432.335,-28.7106 434.625,-35.3255"/>
<g id="a_edge14&#45;headlabel"><a xlink:href="dir_000125_000043.html" target="_top" xlink:title="50">
<text text-anchor="middle" x="432.157" y="-36.6843" font-family="Helvetica,sans-Serif" font-size="10.00">50</text>
</a>
</g>
</g>
<!-- dir_69dd0583e11051991bf4c0cf23c50933 -->
<g id="node11" class="node"><title>dir_69dd0583e11051991bf4c0cf23c50933</title>
<g id="a_node11"><a xlink:href="dir_69dd0583e11051991bf4c0cf23c50933.html" target="_top" xlink:title="TRD">
<polygon fill="white" stroke="red" points="198,-180 144,-180 144,-144 198,-144 198,-180"/>
<text text-anchor="middle" x="171" y="-159.5" font-family="Helvetica,sans-Serif" font-size="10.00">TRD</text>
</a>
</g>
</g>
<!-- dir_69dd0583e11051991bf4c0cf23c50933&#45;&gt;dir_37c90836491b695b472bf98d1be8336b -->
<g id="edge1" class="edge"><title>dir_69dd0583e11051991bf4c0cf23c50933&#45;&gt;dir_37c90836491b695b472bf98d1be8336b</title>
<path fill="none" stroke="black" d="M173.719,-143.697C174.931,-135.983 176.388,-126.712 177.739,-118.112"/>
<polygon fill="black" stroke="black" points="181.217,-118.526 179.312,-108.104 174.302,-117.44 181.217,-118.526"/>
<g id="a_edge1&#45;headlabel"><a xlink:href="dir_000129_000099.html" target="_top" xlink:title="1">
<text text-anchor="middle" x="183.464" y="-120.018" font-family="Helvetica,sans-Serif" font-size="10.00">1</text>
</a>
</g>
</g>
<!-- dir_69dd0583e11051991bf4c0cf23c50933&#45;&gt;dir_2171f7ec022c5423887b07c69b2f5b48 -->
<g id="edge2" class="edge"><title>dir_69dd0583e11051991bf4c0cf23c50933&#45;&gt;dir_2171f7ec022c5423887b07c69b2f5b48</title>
<path fill="none" stroke="black" d="M185.824,-143.748C205.684,-121.776 243.078,-84.237 283,-64 330.742,-39.7992 391.55,-28.4611 432.892,-23.2499"/>
<polygon fill="black" stroke="black" points="433.447,-26.7087 442.964,-22.0529 432.621,-19.7576 433.447,-26.7087"/>
<g id="a_edge2&#45;headlabel"><a xlink:href="dir_000129_000043.html" target="_top" xlink:title="2">
<text text-anchor="middle" x="430.212" y="-27.4523" font-family="Helvetica,sans-Serif" font-size="10.00">2</text>
</a>
</g>
</g>
<!-- dir_4ab6b4cc6a7edbff49100e9123df213f&#45;&gt;dir_2171f7ec022c5423887b07c69b2f5b48 -->
<g id="edge9" class="edge"><title>dir_4ab6b4cc6a7edbff49100e9123df213f&#45;&gt;dir_2171f7ec022c5423887b07c69b2f5b48</title>
<path fill="none" stroke="black" d="M474.084,-71.6966C473.289,-63.9827 473.062,-54.7125 473.405,-46.1124"/>
<polygon fill="black" stroke="black" points="476.898,-46.3243 474.105,-36.1043 469.915,-45.8356 476.898,-46.3243"/>
<g id="a_edge9&#45;headlabel"><a xlink:href="dir_000016_000043.html" target="_top" xlink:title="1">
<text text-anchor="middle" x="479.48" y="-47.6083" font-family="Helvetica,sans-Serif" font-size="10.00">1</text>
</a>
</g>
</g>
<!-- dir_2171f7ec022c5423887b07c69b2f5b48&#45;&gt;dir_37c90836491b695b472bf98d1be8336b -->
<g id="edge34" class="edge"><title>dir_2171f7ec022c5423887b07c69b2f5b48&#45;&gt;dir_37c90836491b695b472bf98d1be8336b</title>
<path fill="none" stroke="black" d="M442.977,-23.4014C395.627,-29.2531 311.949,-41.5683 243,-64 234.853,-66.6506 226.345,-70.3207 218.291,-74.0332"/>
<polygon fill="black" stroke="black" points="216.658,-70.9333 209.095,-78.3523 219.634,-77.2694 216.658,-70.9333"/>
<g id="a_edge34&#45;headlabel"><a xlink:href="dir_000043_000099.html" target="_top" xlink:title="1">
<text text-anchor="middle" x="218.705" y="-64.3354" font-family="Helvetica,sans-Serif" font-size="10.00">1</text>
</a>
</g>
</g>
<!-- dir_2171f7ec022c5423887b07c69b2f5b48&#45;&gt;dir_a597e8e061b11201a1dff411feb10d0b -->
<g id="edge33" class="edge"><title>dir_2171f7ec022c5423887b07c69b2f5b48&#45;&gt;dir_a597e8e061b11201a1dff411feb10d0b</title>
<path fill="none" stroke="black" d="M460.027,-36.1893C430.75,-61.3852 376.067,-108.445 342.855,-137.027"/>
<polygon fill="black" stroke="black" points="340.199,-134.696 334.903,-143.871 344.766,-140.001 340.199,-134.696"/>
<g id="a_edge33&#45;headlabel"><a xlink:href="dir_000043_000125.html" target="_top" xlink:title="2">
<text text-anchor="middle" x="341.072" y="-127.699" font-family="Helvetica,sans-Serif" font-size="10.00">2</text>
</a>
</g>
</g>
<!-- dir_2171f7ec022c5423887b07c69b2f5b48&#45;&gt;dir_4ab6b4cc6a7edbff49100e9123df213f -->
<g id="edge32" class="edge"><title>dir_2171f7ec022c5423887b07c69b2f5b48&#45;&gt;dir_4ab6b4cc6a7edbff49100e9123df213f</title>
<path fill="none" stroke="black" d="M485.895,-36.1043C486.701,-43.7913 486.937,-53.0537 486.604,-61.6651"/>
<polygon fill="black" stroke="black" points="483.109,-61.4805 485.916,-71.6966 490.092,-61.9597 483.109,-61.4805"/>
<g id="a_edge32&#45;headlabel"><a xlink:href="dir_000043_000016.html" target="_top" xlink:title="11">
<text text-anchor="middle" x="480.522" y="-55.2" font-family="Helvetica,sans-Serif" font-size="10.00">11</text>
</a>
</g>
</g>
</g>
</svg>
        <g id="navigator" transform="translate(0 0)" fill="#404254">
                <rect fill="#f2f5e9" fill-opacity="0.5" stroke="#606060" stroke-width=".5" x="0" y="0" width="60" height="60"/>
                <use id="zoomplus" xlink:href="#zoomPlus" x="17" y="9" onmousedown="handleZoom(evt,'in')"/>
                <use id="zoomminus" xlink:href="#zoomMin" x="42" y="9" onmousedown="handleZoom(evt,'out')"/>
                <use id="reset" xlink:href="#resetDef" x="30" y="36" onmousedown="handleReset()"/>
                <g id="arrowUp" xlink:href="#dirArrow" transform="translate(30 24)" onmousedown="handlePan(0,-1)">
                  <use xlink:href="#rim" fill="#404040">
                        <set attributeName="fill" to="#808080" begin="arrowUp.mouseover" end="arrowUp.mouseout"/>
                  </use>
                  <path fill="none" stroke="white" stroke-width="1.5" d="M0,-3.0v7 M-2.5,-0.5L0,-3.0L2.5,-0.5"/>
                </g>
                <g id="arrowRight" xlink:href="#dirArrow" transform="rotate(90) translate(36 -43)" onmousedown="handlePan(1,0)">
                  <use xlink:href="#rim" fill="#404040">
                        <set attributeName="fill" to="#808080" begin="arrowRight.mouseover" end="arrowRight.mouseout"/>
                  </use>
                  <path fill="none" stroke="white" stroke-width="1.5" d="M0,-3.0v7 M-2.5,-0.5L0,-3.0L2.5,-0.5"/>
                </g>
                <g id="arrowDown" xlink:href="#dirArrow" transform="rotate(180) translate(-30 -48)" onmousedown="handlePan(0,1)">
                  <use xlink:href="#rim" fill="#404040">
                        <set attributeName="fill" to="#808080" begin="arrowDown.mouseover" end="arrowDown.mouseout"/>
                  </use>
                  <path fill="none" stroke="white" stroke-width="1.5" d="M0,-3.0v7 M-2.5,-0.5L0,-3.0L2.5,-0.5"/>
                </g>
                <g id="arrowLeft" xlink:href="#dirArrow" transform="rotate(270) translate(-36 17)" onmousedown="handlePan(-1,0)">
                  <use xlink:href="#rim" fill="#404040">
                        <set attributeName="fill" to="#808080" begin="arrowLeft.mouseover" end="arrowLeft.mouseout"/>
                  </use>
                  <path fill="none" stroke="white" stroke-width="1.5" d="M0,-3.0v7 M-2.5,-0.5L0,-3.0L2.5,-0.5"/>
                </g>
        </g>
        <svg viewBox="0 0 15 15" width="100%" height="30px" preserveAspectRatio="xMaxYMin meet">
         <g id="arrow_out" transform="scale(0.3 0.3)">
          <a xlink:href="dir_051dca18e802f8e9474f2e30d29c04e0_dep_org.svg" target="_base">
           <rect id="button" ry="5" rx="5" y="6" x="6" height="38" width="38"
                fill="#f2f5e9" fill-opacity="0.5" stroke="#606060" stroke-width="1.0"/>
           <path id="arrow"
             d="M 11.500037,31.436501 C 11.940474,20.09759 22.043105,11.32322 32.158766,21.979434 L 37.068811,17.246167 C 37.068811,17.246167 37.088388,32 37.088388,32 L 22.160133,31.978069 C 22.160133,31.978069 26.997745,27.140456 26.997745,27.140456 C 18.528582,18.264221 13.291696,25.230495 11.500037,31.436501 z"
             style="fill:#404040;"/>
          </a>
         </g>
        </svg>
</svg>
