<?xml version="1.0" encoding="UTF-8" standalone="no"?>
<!DOCTYPE svg PUBLIC "-//W3C//DTD SVG 1.1//EN"
 "http://www.w3.org/Graphics/SVG/1.1/DTD/svg11.dtd">
<!-- Generated by graphviz version 2.36.0 (20140111.2315)
 -->
<!-- Title: /home/travis/build/AliceO2Group/AliceO2/DataFormats/simulation/src Pages: 1 -->
<svg width="138pt" height="295pt"
 viewBox="0.00 0.00 137.89 295.00" xmlns="http://www.w3.org/2000/svg" xmlns:xlink="http://www.w3.org/1999/xlink">
<g id="graph0" class="graph" transform="scale(1 1) rotate(0) translate(4 291)">
<title>/home/travis/build/AliceO2Group/AliceO2/DataFormats/simulation/src</title>
<g id="clust1" class="cluster"><title>clusterdir_047746f9f311f49446db9474b7431d0d</title>
<g id="a_clust1"><a xlink:href="dir_047746f9f311f49446db9474b7431d0d.html" target="_top" xlink:title="simulation">
<polygon fill="#ddddee" stroke="black" points="51,-208 51,-279 121,-279 121,-208 51,-208"/>
<text text-anchor="middle" x="86" y="-267" font-family="Helvetica,sans-Serif" font-size="10.00">simulation</text>
</a>
</g>
</g>
<!-- dir_38abbb9c71f32f91a25826cfc3ede3a8 -->
<g id="node1" class="node"><title>dir_38abbb9c71f32f91a25826cfc3ede3a8</title>
<g id="a_node1"><a xlink:href="dir_38abbb9c71f32f91a25826cfc3ede3a8.html" target="_top" xlink:title="src">
<polygon fill="#eeeeff" stroke="black" points="113,-252 59,-252 59,-216 113,-216 113,-252"/>
<text text-anchor="middle" x="86" y="-231.5" font-family="Helvetica,sans-Serif" font-size="10.00">src</text>
</a>
</g>
</g>
<!-- dir_2801adc79bf3c286b1b479858d2cade4 -->
<g id="node2" class="node"><title>dir_2801adc79bf3c286b1b479858d2cade4</title>
<g id="a_node2"><a xlink:href="dir_2801adc79bf3c286b1b479858d2cade4.html" target="_top" xlink:title="Detectors">
<polygon fill="none" stroke="red" points="115.25,-180 56.75,-180 56.75,-144 115.25,-144 115.25,-180"/>
<text text-anchor="middle" x="86" y="-159.5" font-family="Helvetica,sans-Serif" font-size="10.00">Detectors</text>
</a>
</g>
</g>
<!-- dir_38abbb9c71f32f91a25826cfc3ede3a8&#45;&gt;dir_2801adc79bf3c286b1b479858d2cade4 -->
<g id="edge1" class="edge"><title>dir_38abbb9c71f32f91a25826cfc3ede3a8&#45;&gt;dir_2801adc79bf3c286b1b479858d2cade4</title>
<path fill="none" stroke="black" d="M86,-215.697C86,-207.983 86,-198.712 86,-190.112"/>
<polygon fill="black" stroke="black" points="89.5001,-190.104 86,-180.104 82.5001,-190.104 89.5001,-190.104"/>
<g id="a_edge1&#45;headlabel"><a xlink:href="dir_000092_000053.html" target="_top" xlink:title="1">
<text text-anchor="middle" x="92.3393" y="-191.199" font-family="Helvetica,sans-Serif" font-size="10.00">1</text>
</a>
</g>
</g>
<!-- dir_051dca18e802f8e9474f2e30d29c04e0 -->
<g id="node3" class="node"><title>dir_051dca18e802f8e9474f2e30d29c04e0</title>
<g id="a_node3"><a xlink:href="dir_051dca18e802f8e9474f2e30d29c04e0.html" target="_top" xlink:title="Detectors">
<polygon fill="none" stroke="red" points="58.25,-108 -0.25,-108 -0.25,-72 58.25,-72 58.25,-108"/>
<text text-anchor="middle" x="29" y="-87.5" font-family="Helvetica,sans-Serif" font-size="10.00">Detectors</text>
</a>
</g>
</g>
<!-- dir_38abbb9c71f32f91a25826cfc3ede3a8&#45;&gt;dir_051dca18e802f8e9474f2e30d29c04e0 -->
<g id="edge2" class="edge"><title>dir_38abbb9c71f32f91a25826cfc3ede3a8&#45;&gt;dir_051dca18e802f8e9474f2e30d29c04e0</title>
<path fill="none" stroke="black" d="M70.1621,-215.589C62.0665,-205.792 52.737,-192.952 47,-180 38.2883,-160.332 33.7497,-136.345 31.4105,-118.231"/>
<polygon fill="black" stroke="black" points="34.8611,-117.6 30.2465,-108.063 27.9066,-118.396 34.8611,-117.6"/>
<g id="a_edge2&#45;headlabel"><a xlink:href="dir_000092_000076.html" target="_top" xlink:title="1">
<text text-anchor="middle" x="38.0907" y="-118.348" font-family="Helvetica,sans-Serif" font-size="10.00">1</text>
</a>
</g>
</g>
<!-- dir_e977c6a9672cee72083a88d55f0ce0c6 -->
<g id="node4" class="node"><title>dir_e977c6a9672cee72083a88d55f0ce0c6</title>
<g id="a_node4"><a xlink:href="dir_e977c6a9672cee72083a88d55f0ce0c6.html" target="_top" xlink:title="include">
<polygon fill="none" stroke="red" points="123,-36 69,-36 69,-0 123,-0 123,-36"/>
<text text-anchor="middle" x="96" y="-15.5" font-family="Helvetica,sans-Serif" font-size="10.00">include</text>
</a>
</g>
</g>
<!-- dir_38abbb9c71f32f91a25826cfc3ede3a8&#45;&gt;dir_e977c6a9672cee72083a88d55f0ce0c6 -->
<g id="edge3" class="edge"><title>dir_38abbb9c71f32f91a25826cfc3ede3a8&#45;&gt;dir_e977c6a9672cee72083a88d55f0ce0c6</title>
<path fill="none" stroke="black" d="M102.463,-215.919C110.654,-206.218 119.704,-193.366 124,-180 138.792,-133.982 121.493,-77.9053 108.266,-45.5412"/>
<polygon fill="black" stroke="black" points="111.468,-44.1269 104.332,-36.2958 105.027,-46.8678 111.468,-44.1269"/>
<g id="a_edge3&#45;headlabel"><a xlink:href="dir_000092_000090.html" target="_top" xlink:title="5">
<text text-anchor="middle" x="115.488" y="-43.8228" font-family="Helvetica,sans-Serif" font-size="10.00">5</text>
</a>
</g>
</g>
<!-- dir_2801adc79bf3c286b1b479858d2cade4&#45;&gt;dir_051dca18e802f8e9474f2e30d29c04e0 -->
<g id="edge4" class="edge"><title>dir_2801adc79bf3c286b1b479858d2cade4&#45;&gt;dir_051dca18e802f8e9474f2e30d29c04e0</title>
<path fill="none" stroke="black" d="M65.9944,-143.697C58.4507,-135.474 50.1139,-125.483 43.1796,-116.421"/>
<polygon fill="black" stroke="black" points="45.7913,-114.066 37.0328,-108.104 40.1621,-118.227 45.7913,-114.066"/>
<g id="a_edge4&#45;headlabel"><a xlink:href="dir_000053_000076.html" target="_top" xlink:title="2">
<text text-anchor="middle" x="50.2112" y="-112.769" font-family="Helvetica,sans-Serif" font-size="10.00">2</text>
</a>
</g>
</g>
<!-- dir_2801adc79bf3c286b1b479858d2cade4&#45;&gt;dir_e977c6a9672cee72083a88d55f0ce0c6 -->
<g id="edge5" class="edge"><title>dir_2801adc79bf3c286b1b479858d2cade4&#45;&gt;dir_e977c6a9672cee72083a88d55f0ce0c6</title>
<path fill="none" stroke="black" d="M82.6217,-143.871C81.7677,-119.67 84.6071,-75.2108 88.6119,-46.3932"/>
<polygon fill="black" stroke="black" points="92.1205,-46.6083 90.1986,-36.1893 85.2036,-45.5327 92.1205,-46.6083"/>
<g id="a_edge5&#45;headlabel"><a xlink:href="dir_000053_000090.html" target="_top" xlink:title="2">
<text text-anchor="middle" x="94.3738" y="-48.0965" font-family="Helvetica,sans-Serif" font-size="10.00">2</text>
</a>
</g>
</g>
<!-- dir_051dca18e802f8e9474f2e30d29c04e0&#45;&gt;dir_2801adc79bf3c286b1b479858d2cade4 -->
<g id="edge6" class="edge"><title>dir_051dca18e802f8e9474f2e30d29c04e0&#45;&gt;dir_2801adc79bf3c286b1b479858d2cade4</title>
<path fill="none" stroke="black" d="M48.8228,-108.104C56.4312,-116.383 64.8673,-126.488 71.8667,-135.64"/>
<polygon fill="black" stroke="black" points="69.0653,-137.738 77.8258,-143.697 74.6931,-133.576 69.0653,-137.738"/>
<g id="a_edge6&#45;headlabel"><a xlink:href="dir_000076_000053.html" target="_top" xlink:title="23">
<text text-anchor="middle" x="64.645" y="-134.037" font-family="Helvetica,sans-Serif" font-size="10.00">23</text>
</a>
</g>
</g>
<!-- dir_051dca18e802f8e9474f2e30d29c04e0&#45;&gt;dir_e977c6a9672cee72083a88d55f0ce0c6 -->
<g id="edge7" class="edge"><title>dir_051dca18e802f8e9474f2e30d29c04e0&#45;&gt;dir_e977c6a9672cee72083a88d55f0ce0c6</title>
<path fill="none" stroke="black" d="M45.5618,-71.6966C53.6753,-63.2198 63.5877,-52.8636 72.471,-43.5826"/>
<polygon fill="black" stroke="black" points="75.2426,-45.7486 79.6287,-36.1043 70.1856,-40.9084 75.2426,-45.7486"/>
<g id="a_edge7&#45;headlabel"><a xlink:href="dir_000076_000090.html" target="_top" xlink:title="73">
<text text-anchor="middle" x="74.8082" y="-47.8087" font-family="Helvetica,sans-Serif" font-size="10.00">73</text>
</a>
</g>
</g>
<!-- dir_e977c6a9672cee72083a88d55f0ce0c6&#45;&gt;dir_2801adc79bf3c286b1b479858d2cade4 -->
<g id="edge8" class="edge"><title>dir_e977c6a9672cee72083a88d55f0ce0c6&#45;&gt;dir_2801adc79bf3c286b1b479858d2cade4</title>
<path fill="none" stroke="black" d="M99.3804,-36.1893C100.228,-60.4244 97.3848,-104.888 93.378,-133.679"/>
<polygon fill="black" stroke="black" points="89.8713,-133.452 91.7907,-143.871 96.7879,-134.529 89.8713,-133.452"/>
<g id="a_edge8&#45;headlabel"><a xlink:href="dir_000090_000053.html" target="_top" xlink:title="2">
<text text-anchor="middle" x="87.6189" y="-126.963" font-family="Helvetica,sans-Serif" font-size="10.00">2</text>
</a>
</g>
</g>
</g>
</svg>
