<?xml version="1.0" encoding="UTF-8" standalone="no"?>
<!DOCTYPE svg PUBLIC "-//W3C//DTD SVG 1.1//EN"
 "http://www.w3.org/Graphics/SVG/1.1/DTD/svg11.dtd">
<!-- Generated by graphviz version 2.36.0 (20140111.2315)
 -->
<!-- Title: /home/travis/build/AliceO2Group/AliceO2/Detectors/TPC/simulation Pages: 1 -->
<!--zoomable 447 -->
<svg id="main" version="1.1" xmlns="http://www.w3.org/2000/svg" xmlns:xlink="http://www.w3.org/1999/xlink" xml:space="preserve" onload="init(evt)">
<style type="text/css"><![CDATA[
.edge:hover path { stroke: red; }
.edge:hover polygon { stroke: red; fill: red; }
]]></style>
<script type="text/javascript"><![CDATA[
var edges = document.getElementsByTagName('g');
if (edges && edges.length) {
  for (var i=0;i<edges.length;i++) {
    if (edges[i].id.substr(0,4)=='edge') {
      edges[i].setAttribute('class','edge');
    }
  }
}
]]></script>
        <defs>
                <circle id="rim" cx="0" cy="0" r="7"/>
                <circle id="rim2" cx="0" cy="0" r="3.5"/>
                <g id="zoomPlus">
                        <use xlink:href="#rim" fill="#404040">
                                <set attributeName="fill" to="#808080" begin="zoomplus.mouseover" end="zoomplus.mouseout"/>
                        </use>
                        <path d="M-4,0h8M0,-4v8" fill="none" stroke="white" stroke-width="1.5" pointer-events="none"/>
                </g>
                <g id="zoomMin">
                        <use xlink:href="#rim" fill="#404040">
                                <set attributeName="fill" to="#808080" begin="zoomminus.mouseover" end="zoomminus.mouseout"/>
                        </use>
                        <path d="M-4,0h8" fill="none" stroke="white" stroke-width="1.5" pointer-events="none"/>
                </g>
                <g id="dirArrow">
                        <path fill="none" stroke="white" stroke-width="1.5" d="M0,-3.0v7 M-2.5,-0.5L0,-3.0L2.5,-0.5"/>
                </g>
               <g id="resetDef">
                       <use xlink:href="#rim2" fill="#404040">
                               <set attributeName="fill" to="#808080" begin="reset.mouseover" end="reset.mouseout"/>
                       </use>
               </g>
        </defs>

<script type="text/javascript">
var viewWidth = 519;
var viewHeight = 447;
var sectionId = 'dynsection-0';
</script>
<script xlink:href="svgpan.js"/>
<svg id="graph" class="graph">
<g id="viewport">
<title>/home/travis/build/AliceO2Group/AliceO2/Detectors/TPC/simulation</title>
<g id="clust1" class="cluster"><title>clusterdir_a597e8e061b11201a1dff411feb10d0b</title>
<g id="a_clust1"><a xlink:href="dir_a597e8e061b11201a1dff411feb10d0b.html" target="_top" xlink:title="TPC">
<polygon fill="#ddddee" stroke="black" points="193.153,-272 193.153,-431 503.153,-431 503.153,-272 193.153,-272"/>
<text text-anchor="middle" x="348.153" y="-419" font-family="Helvetica,sans-Serif" font-size="10.00">TPC</text>
</a>
</g>
</g>
<g id="clust2" class="cluster"><title>clusterdir_7f309bec8670bb3fb666e7e061b24659</title>
<g id="a_clust2"><a xlink:href="dir_7f309bec8670bb3fb666e7e061b24659.html" target="_top">
<polygon fill="#eeeeff" stroke="black" points="201.153,-280 201.153,-404 495.153,-404 495.153,-280 201.153,-280"/>
</a>
</g>
</g>
<!-- dir_7f309bec8670bb3fb666e7e061b24659 -->
<g id="node1" class="node"><title>dir_7f309bec8670bb3fb666e7e061b24659</title>
<text text-anchor="middle" x="456.153" y="-375.5" font-family="Helvetica,sans-Serif" font-size="10.00">simulation</text>
</g>
<!-- dir_a3959ed40b1558172144f5e1a56e443f -->
<g id="node2" class="node"><title>dir_a3959ed40b1558172144f5e1a56e443f</title>
<g id="a_node2"><a xlink:href="dir_a3959ed40b1558172144f5e1a56e443f.html" target="_top" xlink:title="include">
<polygon fill="white" stroke="red" points="263.153,-324 209.153,-324 209.153,-288 263.153,-288 263.153,-324"/>
<text text-anchor="middle" x="236.153" y="-303.5" font-family="Helvetica,sans-Serif" font-size="10.00">include</text>
</a>
</g>
</g>
<!-- dir_677b030cc750909e4cd27413873678d8 -->
<g id="node6" class="node"><title>dir_677b030cc750909e4cd27413873678d8</title>
<g id="a_node6"><a xlink:href="dir_677b030cc750909e4cd27413873678d8.html" target="_top" xlink:title="base">
<polygon fill="none" stroke="red" points="119.153,-252 65.1535,-252 65.1535,-216 119.153,-216 119.153,-252"/>
<text text-anchor="middle" x="92.1535" y="-231.5" font-family="Helvetica,sans-Serif" font-size="10.00">base</text>
</a>
</g>
</g>
<!-- dir_a3959ed40b1558172144f5e1a56e443f&#45;&gt;dir_677b030cc750909e4cd27413873678d8 -->
<g id="edge13" class="edge"><title>dir_a3959ed40b1558172144f5e1a56e443f&#45;&gt;dir_677b030cc750909e4cd27413873678d8</title>
<path fill="none" stroke="black" d="M216.985,-287.848C210.115,-282.283 202.098,-276.412 194.153,-272 173.726,-260.655 149.147,-251.617 129.235,-245.314"/>
<polygon fill="black" stroke="black" points="130.172,-241.941 119.585,-242.356 128.12,-248.633 130.172,-241.941"/>
<g id="a_edge13&#45;headlabel"><a xlink:href="dir_000127_000148.html" target="_top" xlink:title="19">
<text text-anchor="middle" x="134.441" y="-237.78" font-family="Helvetica,sans-Serif" font-size="10.00">19</text>
</a>
</g>
</g>
<!-- dir_37c90836491b695b472bf98d1be8336b -->
<g id="node9" class="node"><title>dir_37c90836491b695b472bf98d1be8336b</title>
<g id="a_node9"><a xlink:href="dir_37c90836491b695b472bf98d1be8336b.html" target="_top" xlink:title="Base">
<polygon fill="none" stroke="red" points="175.153,-36 121.153,-36 121.153,-0 175.153,-0 175.153,-36"/>
<text text-anchor="middle" x="148.153" y="-15.5" font-family="Helvetica,sans-Serif" font-size="10.00">Base</text>
</a>
</g>
</g>
<!-- dir_a3959ed40b1558172144f5e1a56e443f&#45;&gt;dir_37c90836491b695b472bf98d1be8336b -->
<g id="edge14" class="edge"><title>dir_a3959ed40b1558172144f5e1a56e443f&#45;&gt;dir_37c90836491b695b472bf98d1be8336b</title>
<path fill="none" stroke="black" d="M236.152,-287.956C235.516,-248.106 230.185,-146.575 194.153,-72 189.253,-61.8575 181.893,-52.1283 174.488,-43.8367"/>
<polygon fill="black" stroke="black" points="176.856,-41.2456 167.454,-36.3609 171.758,-46.0424 176.856,-41.2456"/>
<g id="a_edge14&#45;headlabel"><a xlink:href="dir_000127_000099.html" target="_top" xlink:title="1">
<text text-anchor="middle" x="181.387" y="-39.418" font-family="Helvetica,sans-Serif" font-size="10.00">1</text>
</a>
</g>
</g>
<!-- dir_2171f7ec022c5423887b07c69b2f5b48 -->
<g id="node10" class="node"><title>dir_2171f7ec022c5423887b07c69b2f5b48</title>
<g id="a_node10"><a xlink:href="dir_2171f7ec022c5423887b07c69b2f5b48.html" target="_top" xlink:title="DataFormats">
<polygon fill="none" stroke="red" points="185.153,-108 111.153,-108 111.153,-72 185.153,-72 185.153,-108"/>
<text text-anchor="middle" x="148.153" y="-87.5" font-family="Helvetica,sans-Serif" font-size="10.00">DataFormats</text>
</a>
</g>
</g>
<!-- dir_a3959ed40b1558172144f5e1a56e443f&#45;&gt;dir_2171f7ec022c5423887b07c69b2f5b48 -->
<g id="edge15" class="edge"><title>dir_a3959ed40b1558172144f5e1a56e443f&#45;&gt;dir_2171f7ec022c5423887b07c69b2f5b48</title>
<path fill="none" stroke="black" d="M229.101,-287.849C213.782,-250.597 177.377,-162.067 159.067,-117.539"/>
<polygon fill="black" stroke="black" points="162.28,-116.15 155.24,-108.232 155.806,-118.812 162.28,-116.15"/>
<g id="a_edge15&#45;headlabel"><a xlink:href="dir_000127_000043.html" target="_top" xlink:title="4">
<text text-anchor="middle" x="166.273" y="-115.895" font-family="Helvetica,sans-Serif" font-size="10.00">4</text>
</a>
</g>
</g>
<!-- dir_8bfcd60464e4f3a200807f6c373e63aa -->
<g id="node3" class="node"><title>dir_8bfcd60464e4f3a200807f6c373e63aa</title>
<g id="a_node3"><a xlink:href="dir_8bfcd60464e4f3a200807f6c373e63aa.html" target="_top" xlink:title="macro">
<polygon fill="white" stroke="black" points="407.153,-396 353.153,-396 353.153,-360 407.153,-360 407.153,-396"/>
<text text-anchor="middle" x="380.153" y="-375.5" font-family="Helvetica,sans-Serif" font-size="10.00">macro</text>
</a>
</g>
</g>
<!-- dir_8bfcd60464e4f3a200807f6c373e63aa&#45;&gt;dir_a3959ed40b1558172144f5e1a56e443f -->
<g id="edge20" class="edge"><title>dir_8bfcd60464e4f3a200807f6c373e63aa&#45;&gt;dir_a3959ed40b1558172144f5e1a56e443f</title>
<path fill="none" stroke="black" d="M353.068,-363.834C330.384,-352.807 297.797,-336.966 272.785,-324.807"/>
<polygon fill="black" stroke="black" points="274.131,-321.57 263.607,-320.345 271.07,-327.865 274.131,-321.57"/>
<g id="a_edge20&#45;headlabel"><a xlink:href="dir_000226_000127.html" target="_top" xlink:title="2">
<text text-anchor="middle" x="278.605" y="-318.088" font-family="Helvetica,sans-Serif" font-size="10.00">2</text>
</a>
</g>
</g>
<!-- dir_8bfcd60464e4f3a200807f6c373e63aa&#45;&gt;dir_677b030cc750909e4cd27413873678d8 -->
<g id="edge18" class="edge"><title>dir_8bfcd60464e4f3a200807f6c373e63aa&#45;&gt;dir_677b030cc750909e4cd27413873678d8</title>
<path fill="none" stroke="black" d="M352.968,-363.143C350.039,-361.958 347.065,-360.879 344.153,-360 291.263,-344.03 135.668,-364.56 98.1535,-324 83.0899,-307.713 83.0062,-281.785 85.8543,-262.106"/>
<polygon fill="black" stroke="black" points="89.3124,-262.649 87.6041,-252.193 82.419,-261.432 89.3124,-262.649"/>
<g id="a_edge18&#45;headlabel"><a xlink:href="dir_000226_000148.html" target="_top" xlink:title="2">
<text text-anchor="middle" x="91.4837" y="-264.183" font-family="Helvetica,sans-Serif" font-size="10.00">2</text>
</a>
</g>
</g>
<!-- dir_a5de047958dd458e809773c6ffaa8478 -->
<g id="node8" class="node"><title>dir_a5de047958dd458e809773c6ffaa8478</title>
<g id="a_node8"><a xlink:href="dir_a5de047958dd458e809773c6ffaa8478.html" target="_top" xlink:title="reconstruction">
<polygon fill="none" stroke="red" points="185.153,-324 107.153,-324 107.153,-288 185.153,-288 185.153,-324"/>
<text text-anchor="middle" x="146.153" y="-303.5" font-family="Helvetica,sans-Serif" font-size="10.00">reconstruction</text>
</a>
</g>
</g>
<!-- dir_8bfcd60464e4f3a200807f6c373e63aa&#45;&gt;dir_a5de047958dd458e809773c6ffaa8478 -->
<g id="edge19" class="edge"><title>dir_8bfcd60464e4f3a200807f6c373e63aa&#45;&gt;dir_a5de047958dd458e809773c6ffaa8478</title>
<path fill="none" stroke="black" d="M352.876,-363.425C349.964,-362.185 347.02,-361.016 344.153,-360 280.755,-337.526 261.78,-342.651 197.153,-324 196.43,-323.791 195.702,-323.579 194.97,-323.363"/>
<polygon fill="black" stroke="black" points="195.899,-319.987 185.312,-320.411 193.852,-326.681 195.899,-319.987"/>
<g id="a_edge19&#45;headlabel"><a xlink:href="dir_000226_000185.html" target="_top" xlink:title="2">
<text text-anchor="middle" x="200.166" y="-315.823" font-family="Helvetica,sans-Serif" font-size="10.00">2</text>
</a>
</g>
</g>
<!-- dir_8bfcd60464e4f3a200807f6c373e63aa&#45;&gt;dir_2171f7ec022c5423887b07c69b2f5b48 -->
<g id="edge21" class="edge"><title>dir_8bfcd60464e4f3a200807f6c373e63aa&#45;&gt;dir_2171f7ec022c5423887b07c69b2f5b48</title>
<path fill="none" stroke="black" d="M371.826,-359.88C351.346,-318.994 295.138,-213.873 226.153,-144 214.939,-132.641 200.952,-122.246 187.932,-113.729"/>
<polygon fill="black" stroke="black" points="189.439,-110.54 179.118,-108.144 185.692,-116.453 189.439,-110.54"/>
<g id="a_edge21&#45;headlabel"><a xlink:href="dir_000226_000043.html" target="_top" xlink:title="1">
<text text-anchor="middle" x="193.995" y="-107.566" font-family="Helvetica,sans-Serif" font-size="10.00">1</text>
</a>
</g>
</g>
<!-- dir_72815adbd439f00f784a5a4eca496fde -->
<g id="node4" class="node"><title>dir_72815adbd439f00f784a5a4eca496fde</title>
<g id="a_node4"><a xlink:href="dir_72815adbd439f00f784a5a4eca496fde.html" target="_top" xlink:title="src">
<polygon fill="white" stroke="black" points="263.153,-396 209.153,-396 209.153,-360 263.153,-360 263.153,-396"/>
<text text-anchor="middle" x="236.153" y="-375.5" font-family="Helvetica,sans-Serif" font-size="10.00">src</text>
</a>
</g>
</g>
<!-- dir_72815adbd439f00f784a5a4eca496fde&#45;&gt;dir_a3959ed40b1558172144f5e1a56e443f -->
<g id="edge3" class="edge"><title>dir_72815adbd439f00f784a5a4eca496fde&#45;&gt;dir_a3959ed40b1558172144f5e1a56e443f</title>
<path fill="none" stroke="black" d="M236.153,-359.697C236.153,-351.983 236.153,-342.712 236.153,-334.112"/>
<polygon fill="black" stroke="black" points="239.654,-334.104 236.153,-324.104 232.654,-334.104 239.654,-334.104"/>
<g id="a_edge3&#45;headlabel"><a xlink:href="dir_000140_000127.html" target="_top" xlink:title="32">
<text text-anchor="middle" x="242.493" y="-335.199" font-family="Helvetica,sans-Serif" font-size="10.00">32</text>
</a>
</g>
</g>
<!-- dir_72815adbd439f00f784a5a4eca496fde&#45;&gt;dir_677b030cc750909e4cd27413873678d8 -->
<g id="edge1" class="edge"><title>dir_72815adbd439f00f784a5a4eca496fde&#45;&gt;dir_677b030cc750909e4cd27413873678d8</title>
<path fill="none" stroke="black" d="M208.841,-374.177C157.419,-368.237 49.3934,-352.584 27.1535,-324 12.9614,-305.76 15.5368,-291.979 27.1535,-272 33.5273,-261.038 44.497,-253.055 55.6287,-247.373"/>
<polygon fill="black" stroke="black" points="57.2796,-250.467 64.9201,-243.127 54.3701,-244.1 57.2796,-250.467"/>
<g id="a_edge1&#45;headlabel"><a xlink:href="dir_000140_000148.html" target="_top" xlink:title="16">
<text text-anchor="middle" x="55.1902" y="-252.044" font-family="Helvetica,sans-Serif" font-size="10.00">16</text>
</a>
</g>
</g>
<!-- dir_4ab6b4cc6a7edbff49100e9123df213f -->
<g id="node7" class="node"><title>dir_4ab6b4cc6a7edbff49100e9123df213f</title>
<g id="a_node7"><a xlink:href="dir_4ab6b4cc6a7edbff49100e9123df213f.html" target="_top" xlink:title="Common">
<polygon fill="none" stroke="red" points="75.6535,-180 20.6535,-180 20.6535,-144 75.6535,-144 75.6535,-180"/>
<text text-anchor="middle" x="48.1535" y="-159.5" font-family="Helvetica,sans-Serif" font-size="10.00">Common</text>
</a>
</g>
</g>
<!-- dir_72815adbd439f00f784a5a4eca496fde&#45;&gt;dir_4ab6b4cc6a7edbff49100e9123df213f -->
<g id="edge2" class="edge"><title>dir_72815adbd439f00f784a5a4eca496fde&#45;&gt;dir_4ab6b4cc6a7edbff49100e9123df213f</title>
<path fill="none" stroke="black" d="M208.838,-374.613C154.966,-369.279 38.1523,-354.403 14.1535,-324 -17.0435,-284.478 10.8323,-223.062 31.2278,-188.632"/>
<polygon fill="black" stroke="black" points="34.2259,-190.438 36.4688,-180.084 28.2582,-186.78 34.2259,-190.438"/>
<g id="a_edge2&#45;headlabel"><a xlink:href="dir_000140_000016.html" target="_top" xlink:title="1">
<text text-anchor="middle" x="34.7678" y="-192.487" font-family="Helvetica,sans-Serif" font-size="10.00">1</text>
</a>
</g>
</g>
<!-- dir_72815adbd439f00f784a5a4eca496fde&#45;&gt;dir_2171f7ec022c5423887b07c69b2f5b48 -->
<g id="edge4" class="edge"><title>dir_72815adbd439f00f784a5a4eca496fde&#45;&gt;dir_2171f7ec022c5423887b07c69b2f5b48</title>
<path fill="none" stroke="black" d="M251.763,-359.774C259.526,-350.03 268.099,-337.184 272.153,-324 278.946,-301.91 278.525,-294.216 272.153,-272 253.974,-208.613 203.675,-148.182 173.012,-115.698"/>
<polygon fill="black" stroke="black" points="175.492,-113.228 166.043,-108.437 170.442,-118.075 175.492,-113.228"/>
<g id="a_edge4&#45;headlabel"><a xlink:href="dir_000140_000043.html" target="_top" xlink:title="2">
<text text-anchor="middle" x="180.03" y="-111.355" font-family="Helvetica,sans-Serif" font-size="10.00">2</text>
</a>
</g>
</g>
<!-- dir_ac3b77a1b17a4594b18b160ef67742fa -->
<g id="node5" class="node"><title>dir_ac3b77a1b17a4594b18b160ef67742fa</title>
<g id="a_node5"><a xlink:href="dir_ac3b77a1b17a4594b18b160ef67742fa.html" target="_top" xlink:title="test">
<polygon fill="white" stroke="black" points="335.153,-396 281.153,-396 281.153,-360 335.153,-360 335.153,-396"/>
<text text-anchor="middle" x="308.153" y="-375.5" font-family="Helvetica,sans-Serif" font-size="10.00">test</text>
</a>
</g>
</g>
<!-- dir_ac3b77a1b17a4594b18b160ef67742fa&#45;&gt;dir_a3959ed40b1558172144f5e1a56e443f -->
<g id="edge17" class="edge"><title>dir_ac3b77a1b17a4594b18b160ef67742fa&#45;&gt;dir_a3959ed40b1558172144f5e1a56e443f</title>
<path fill="none" stroke="black" d="M290.356,-359.697C281.55,-351.135 270.771,-340.656 261.152,-331.304"/>
<polygon fill="black" stroke="black" points="263.356,-328.566 253.747,-324.104 258.477,-333.585 263.356,-328.566"/>
<g id="a_edge17&#45;headlabel"><a xlink:href="dir_000227_000127.html" target="_top" xlink:title="9">
<text text-anchor="middle" x="267.913" y="-326.536" font-family="Helvetica,sans-Serif" font-size="10.00">9</text>
</a>
</g>
</g>
<!-- dir_ac3b77a1b17a4594b18b160ef67742fa&#45;&gt;dir_677b030cc750909e4cd27413873678d8 -->
<g id="edge16" class="edge"><title>dir_ac3b77a1b17a4594b18b160ef67742fa&#45;&gt;dir_677b030cc750909e4cd27413873678d8</title>
<path fill="none" stroke="black" d="M280.943,-363.223C278.019,-362.023 275.053,-360.918 272.153,-360 183.13,-331.808 125.261,-395.464 65.1535,-324 50.2772,-306.313 57.9889,-293.973 65.1535,-272 66.4207,-268.114 68.2678,-264.296 70.4106,-260.676"/>
<polygon fill="black" stroke="black" points="73.4698,-262.401 76.185,-252.16 67.6761,-258.473 73.4698,-262.401"/>
<g id="a_edge16&#45;headlabel"><a xlink:href="dir_000227_000148.html" target="_top" xlink:title="7">
<text text-anchor="middle" x="73.8026" y="-264.47" font-family="Helvetica,sans-Serif" font-size="10.00">7</text>
</a>
</g>
</g>
<!-- dir_677b030cc750909e4cd27413873678d8&#45;&gt;dir_4ab6b4cc6a7edbff49100e9123df213f -->
<g id="edge5" class="edge"><title>dir_677b030cc750909e4cd27413873678d8&#45;&gt;dir_4ab6b4cc6a7edbff49100e9123df213f</title>
<path fill="none" stroke="black" d="M81.2771,-215.697C76.1619,-207.559 69.958,-197.689 64.3086,-188.701"/>
<polygon fill="black" stroke="black" points="67.1898,-186.708 58.9048,-180.104 61.2633,-190.433 67.1898,-186.708"/>
<g id="a_edge5&#45;headlabel"><a xlink:href="dir_000148_000016.html" target="_top" xlink:title="2">
<text text-anchor="middle" x="71.5065" y="-185.74" font-family="Helvetica,sans-Serif" font-size="10.00">2</text>
</a>
</g>
</g>
<!-- dir_677b030cc750909e4cd27413873678d8&#45;&gt;dir_2171f7ec022c5423887b07c69b2f5b48 -->
<g id="edge6" class="edge"><title>dir_677b030cc750909e4cd27413873678d8&#45;&gt;dir_2171f7ec022c5423887b07c69b2f5b48</title>
<path fill="none" stroke="black" d="M94.3239,-215.871C101.402,-191.35 119.009,-146.032 132.418,-117.259"/>
<polygon fill="black" stroke="black" points="135.6,-118.718 136.784,-108.189 129.293,-115.682 135.6,-118.718"/>
<g id="a_edge6&#45;headlabel"><a xlink:href="dir_000148_000043.html" target="_top" xlink:title="1">
<text text-anchor="middle" x="136.6" y="-120.688" font-family="Helvetica,sans-Serif" font-size="10.00">1</text>
</a>
</g>
</g>
<!-- dir_4ab6b4cc6a7edbff49100e9123df213f&#45;&gt;dir_2171f7ec022c5423887b07c69b2f5b48 -->
<g id="edge7" class="edge"><title>dir_4ab6b4cc6a7edbff49100e9123df213f&#45;&gt;dir_2171f7ec022c5423887b07c69b2f5b48</title>
<path fill="none" stroke="black" d="M66.9569,-143.697C78.9787,-134.626 94.8614,-123.404 109.434,-113.65"/>
<polygon fill="black" stroke="black" points="111.412,-116.539 117.824,-108.104 107.552,-110.699 111.412,-116.539"/>
<g id="a_edge7&#45;headlabel"><a xlink:href="dir_000016_000043.html" target="_top" xlink:title="1">
<text text-anchor="middle" x="109.979" y="-118.389" font-family="Helvetica,sans-Serif" font-size="10.00">1</text>
</a>
</g>
</g>
<!-- dir_a5de047958dd458e809773c6ffaa8478&#45;&gt;dir_a3959ed40b1558172144f5e1a56e443f -->
<g id="edge9" class="edge"><title>dir_a5de047958dd458e809773c6ffaa8478&#45;&gt;dir_a3959ed40b1558172144f5e1a56e443f</title>
<path fill="none" stroke="black" d="M185.177,-306C189.782,-306 194.387,-306 198.991,-306"/>
<polygon fill="black" stroke="black" points="199.072,-309.5 209.072,-306 199.072,-302.5 199.072,-309.5"/>
<g id="a_edge9&#45;headlabel"><a xlink:href="dir_000185_000127.html" target="_top" xlink:title="1">
<text text-anchor="middle" x="195.478" y="-309.839" font-family="Helvetica,sans-Serif" font-size="10.00">1</text>
</a>
</g>
</g>
<!-- dir_a5de047958dd458e809773c6ffaa8478&#45;&gt;dir_677b030cc750909e4cd27413873678d8 -->
<g id="edge8" class="edge"><title>dir_a5de047958dd458e809773c6ffaa8478&#45;&gt;dir_677b030cc750909e4cd27413873678d8</title>
<path fill="none" stroke="black" d="M132.805,-287.697C126.397,-279.389 118.596,-269.277 111.548,-260.141"/>
<polygon fill="black" stroke="black" points="114.228,-257.884 105.348,-252.104 108.685,-262.16 114.228,-257.884"/>
<g id="a_edge8&#45;headlabel"><a xlink:href="dir_000185_000148.html" target="_top" xlink:title="51">
<text text-anchor="middle" x="118.671" y="-256.496" font-family="Helvetica,sans-Serif" font-size="10.00">51</text>
</a>
</g>
</g>
<!-- dir_a5de047958dd458e809773c6ffaa8478&#45;&gt;dir_2171f7ec022c5423887b07c69b2f5b48 -->
<g id="edge10" class="edge"><title>dir_a5de047958dd458e809773c6ffaa8478&#45;&gt;dir_2171f7ec022c5423887b07c69b2f5b48</title>
<path fill="none" stroke="black" d="M146.314,-287.849C146.66,-250.832 147.479,-163.181 147.898,-118.386"/>
<polygon fill="black" stroke="black" points="151.399,-118.265 147.992,-108.232 144.399,-118.199 151.399,-118.265"/>
<g id="a_edge10&#45;headlabel"><a xlink:href="dir_000185_000043.html" target="_top" xlink:title="42">
<text text-anchor="middle" x="154.204" y="-119.386" font-family="Helvetica,sans-Serif" font-size="10.00">42</text>
</a>
</g>
</g>
<!-- dir_37c90836491b695b472bf98d1be8336b&#45;&gt;dir_4ab6b4cc6a7edbff49100e9123df213f -->
<g id="edge11" class="edge"><title>dir_37c90836491b695b472bf98d1be8336b&#45;&gt;dir_4ab6b4cc6a7edbff49100e9123df213f</title>
<path fill="none" stroke="black" d="M132.045,-36.0496C122.842,-46.1494 111.342,-59.3994 102.153,-72 87.3723,-92.2691 72.7447,-116.723 62.4496,-134.865"/>
<polygon fill="black" stroke="black" points="59.3218,-133.287 57.483,-143.721 65.4272,-136.711 59.3218,-133.287"/>
<g id="a_edge11&#45;headlabel"><a xlink:href="dir_000099_000016.html" target="_top" xlink:title="5">
<text text-anchor="middle" x="58.6036" y="-126.263" font-family="Helvetica,sans-Serif" font-size="10.00">5</text>
</a>
</g>
</g>
<!-- dir_37c90836491b695b472bf98d1be8336b&#45;&gt;dir_2171f7ec022c5423887b07c69b2f5b48 -->
<g id="edge12" class="edge"><title>dir_37c90836491b695b472bf98d1be8336b&#45;&gt;dir_2171f7ec022c5423887b07c69b2f5b48</title>
<path fill="none" stroke="black" d="M154.049,-36.1043C154.854,-43.7913 155.09,-53.0537 154.757,-61.6651"/>
<polygon fill="black" stroke="black" points="151.262,-61.4805 154.069,-71.6966 158.246,-61.9597 151.262,-61.4805"/>
<g id="a_edge12&#45;headlabel"><a xlink:href="dir_000099_000043.html" target="_top" xlink:title="5">
<text text-anchor="middle" x="148.675" y="-55.2" font-family="Helvetica,sans-Serif" font-size="10.00">5</text>
</a>
</g>
</g>
<!-- dir_2171f7ec022c5423887b07c69b2f5b48&#45;&gt;dir_677b030cc750909e4cd27413873678d8 -->
<g id="edge22" class="edge"><title>dir_2171f7ec022c5423887b07c69b2f5b48&#45;&gt;dir_677b030cc750909e4cd27413873678d8</title>
<path fill="none" stroke="black" d="M145.966,-108.189C138.87,-132.745 121.258,-178.066 107.855,-206.812"/>
<polygon fill="black" stroke="black" points="104.678,-205.343 103.493,-215.871 110.985,-208.38 104.678,-205.343"/>
<g id="a_edge22&#45;headlabel"><a xlink:href="dir_000043_000148.html" target="_top" xlink:title="2">
<text text-anchor="middle" x="103.68" y="-198.373" font-family="Helvetica,sans-Serif" font-size="10.00">2</text>
</a>
</g>
</g>
<!-- dir_2171f7ec022c5423887b07c69b2f5b48&#45;&gt;dir_4ab6b4cc6a7edbff49100e9123df213f -->
<g id="edge23" class="edge"><title>dir_2171f7ec022c5423887b07c69b2f5b48&#45;&gt;dir_4ab6b4cc6a7edbff49100e9123df213f</title>
<path fill="none" stroke="black" d="M129.693,-108.044C116.998,-117.638 99.8874,-129.701 84.5658,-139.889"/>
<polygon fill="black" stroke="black" points="82.2413,-137.228 75.7982,-145.638 86.0799,-143.081 82.2413,-137.228"/>
<g id="a_edge23&#45;headlabel"><a xlink:href="dir_000043_000016.html" target="_top" xlink:title="11">
<text text-anchor="middle" x="83.6903" y="-130.382" font-family="Helvetica,sans-Serif" font-size="10.00">11</text>
</a>
</g>
</g>
<!-- dir_2171f7ec022c5423887b07c69b2f5b48&#45;&gt;dir_37c90836491b695b472bf98d1be8336b -->
<g id="edge24" class="edge"><title>dir_2171f7ec022c5423887b07c69b2f5b48&#45;&gt;dir_37c90836491b695b472bf98d1be8336b</title>
<path fill="none" stroke="black" d="M142.238,-71.6966C141.442,-63.9827 141.216,-54.7125 141.558,-46.1124"/>
<polygon fill="black" stroke="black" points="145.052,-46.3243 142.258,-36.1043 138.069,-45.8356 145.052,-46.3243"/>
<g id="a_edge24&#45;headlabel"><a xlink:href="dir_000043_000099.html" target="_top" xlink:title="1">
<text text-anchor="middle" x="147.633" y="-47.6083" font-family="Helvetica,sans-Serif" font-size="10.00">1</text>
</a>
</g>
</g>
</g>
</svg>
        <g id="navigator" transform="translate(0 0)" fill="#404254">
                <rect fill="#f2f5e9" fill-opacity="0.5" stroke="#606060" stroke-width=".5" x="0" y="0" width="60" height="60"/>
                <use id="zoomplus" xlink:href="#zoomPlus" x="17" y="9" onmousedown="handleZoom(evt,'in')"/>
                <use id="zoomminus" xlink:href="#zoomMin" x="42" y="9" onmousedown="handleZoom(evt,'out')"/>
                <use id="reset" xlink:href="#resetDef" x="30" y="36" onmousedown="handleReset()"/>
                <g id="arrowUp" xlink:href="#dirArrow" transform="translate(30 24)" onmousedown="handlePan(0,-1)">
                  <use xlink:href="#rim" fill="#404040">
                        <set attributeName="fill" to="#808080" begin="arrowUp.mouseover" end="arrowUp.mouseout"/>
                  </use>
                  <path fill="none" stroke="white" stroke-width="1.5" d="M0,-3.0v7 M-2.5,-0.5L0,-3.0L2.5,-0.5"/>
                </g>
                <g id="arrowRight" xlink:href="#dirArrow" transform="rotate(90) translate(36 -43)" onmousedown="handlePan(1,0)">
                  <use xlink:href="#rim" fill="#404040">
                        <set attributeName="fill" to="#808080" begin="arrowRight.mouseover" end="arrowRight.mouseout"/>
                  </use>
                  <path fill="none" stroke="white" stroke-width="1.5" d="M0,-3.0v7 M-2.5,-0.5L0,-3.0L2.5,-0.5"/>
                </g>
                <g id="arrowDown" xlink:href="#dirArrow" transform="rotate(180) translate(-30 -48)" onmousedown="handlePan(0,1)">
                  <use xlink:href="#rim" fill="#404040">
                        <set attributeName="fill" to="#808080" begin="arrowDown.mouseover" end="arrowDown.mouseout"/>
                  </use>
                  <path fill="none" stroke="white" stroke-width="1.5" d="M0,-3.0v7 M-2.5,-0.5L0,-3.0L2.5,-0.5"/>
                </g>
                <g id="arrowLeft" xlink:href="#dirArrow" transform="rotate(270) translate(-36 17)" onmousedown="handlePan(-1,0)">
                  <use xlink:href="#rim" fill="#404040">
                        <set attributeName="fill" to="#808080" begin="arrowLeft.mouseover" end="arrowLeft.mouseout"/>
                  </use>
                  <path fill="none" stroke="white" stroke-width="1.5" d="M0,-3.0v7 M-2.5,-0.5L0,-3.0L2.5,-0.5"/>
                </g>
        </g>
        <svg viewBox="0 0 15 15" width="100%" height="30px" preserveAspectRatio="xMaxYMin meet">
         <g id="arrow_out" transform="scale(0.3 0.3)">
          <a xlink:href="dir_7f309bec8670bb3fb666e7e061b24659_dep_org.svg" target="_base">
           <rect id="button" ry="5" rx="5" y="6" x="6" height="38" width="38"
                fill="#f2f5e9" fill-opacity="0.5" stroke="#606060" stroke-width="1.0"/>
           <path id="arrow"
             d="M 11.500037,31.436501 C 11.940474,20.09759 22.043105,11.32322 32.158766,21.979434 L 37.068811,17.246167 C 37.068811,17.246167 37.088388,32 37.088388,32 L 22.160133,31.978069 C 22.160133,31.978069 26.997745,27.140456 26.997745,27.140456 C 18.528582,18.264221 13.291696,25.230495 11.500037,31.436501 z"
             style="fill:#404040;"/>
          </a>
         </g>
        </svg>
</svg>
