<?xml version="1.0" encoding="UTF-8" standalone="no"?>
<!DOCTYPE svg PUBLIC "-//W3C//DTD SVG 1.1//EN"
 "http://www.w3.org/Graphics/SVG/1.1/DTD/svg11.dtd">
<!-- Generated by graphviz version 2.36.0 (20140111.2315)
 -->
<!-- Title: /home/travis/build/AliceO2Group/AliceO2/Detectors/TPC Pages: 1 -->
<!--zoomable 519 -->
<svg id="main" version="1.1" xmlns="http://www.w3.org/2000/svg" xmlns:xlink="http://www.w3.org/1999/xlink" xml:space="preserve" onload="init(evt)">
<style type="text/css"><![CDATA[
.edge:hover path { stroke: red; }
.edge:hover polygon { stroke: red; fill: red; }
]]></style>
<script type="text/javascript"><![CDATA[
var edges = document.getElementsByTagName('g');
if (edges && edges.length) {
  for (var i=0;i<edges.length;i++) {
    if (edges[i].id.substr(0,4)=='edge') {
      edges[i].setAttribute('class','edge');
    }
  }
}
]]></script>
        <defs>
                <circle id="rim" cx="0" cy="0" r="7"/>
                <circle id="rim2" cx="0" cy="0" r="3.5"/>
                <g id="zoomPlus">
                        <use xlink:href="#rim" fill="#404040">
                                <set attributeName="fill" to="#808080" begin="zoomplus.mouseover" end="zoomplus.mouseout"/>
                        </use>
                        <path d="M-4,0h8M0,-4v8" fill="none" stroke="white" stroke-width="1.5" pointer-events="none"/>
                </g>
                <g id="zoomMin">
                        <use xlink:href="#rim" fill="#404040">
                                <set attributeName="fill" to="#808080" begin="zoomminus.mouseover" end="zoomminus.mouseout"/>
                        </use>
                        <path d="M-4,0h8" fill="none" stroke="white" stroke-width="1.5" pointer-events="none"/>
                </g>
                <g id="dirArrow">
                        <path fill="none" stroke="white" stroke-width="1.5" d="M0,-3.0v7 M-2.5,-0.5L0,-3.0L2.5,-0.5"/>
                </g>
               <g id="resetDef">
                       <use xlink:href="#rim2" fill="#404040">
                               <set attributeName="fill" to="#808080" begin="reset.mouseover" end="reset.mouseout"/>
                       </use>
               </g>
        </defs>

<script type="text/javascript">
var viewWidth = 256;
var viewHeight = 519;
var sectionId = 'dynsection-0';
</script>
<script xlink:href="svgpan.js"/>
<svg id="graph" class="graph">
<g id="viewport">
<title>/home/travis/build/AliceO2Group/AliceO2/Detectors/TPC</title>
<g id="clust1" class="cluster"><title>clusterdir_051dca18e802f8e9474f2e30d29c04e0</title>
<g id="a_clust1"><a xlink:href="dir_051dca18e802f8e9474f2e30d29c04e0.html" target="_top" xlink:title="Detectors">
<polygon fill="#ddddee" stroke="black" points="8,-128 8,-503 166,-503 166,-128 8,-128"/>
<text text-anchor="middle" x="87" y="-491" font-family="Helvetica,sans-Serif" font-size="10.00">Detectors</text>
</a>
</g>
</g>
<g id="clust2" class="cluster"><title>clusterdir_a597e8e061b11201a1dff411feb10d0b</title>
<g id="a_clust2"><a xlink:href="dir_a597e8e061b11201a1dff411feb10d0b.html" target="_top">
<polygon fill="#eeeeff" stroke="black" points="16,-136 16,-476 158,-476 158,-136 16,-136"/>
</a>
</g>
</g>
<!-- dir_a597e8e061b11201a1dff411feb10d0b -->
<g id="node1" class="node"><title>dir_a597e8e061b11201a1dff411feb10d0b</title>
<text text-anchor="middle" x="123" y="-447.5" font-family="Helvetica,sans-Serif" font-size="10.00">TPC</text>
</g>
<!-- dir_677b030cc750909e4cd27413873678d8 -->
<g id="node2" class="node"><title>dir_677b030cc750909e4cd27413873678d8</title>
<g id="a_node2"><a xlink:href="dir_677b030cc750909e4cd27413873678d8.html" target="_top" xlink:title="base">
<polygon fill="white" stroke="red" points="150,-180 96,-180 96,-144 150,-144 150,-180"/>
<text text-anchor="middle" x="123" y="-159.5" font-family="Helvetica,sans-Serif" font-size="10.00">base</text>
</a>
</g>
</g>
<!-- dir_4ab6b4cc6a7edbff49100e9123df213f -->
<g id="node7" class="node"><title>dir_4ab6b4cc6a7edbff49100e9123df213f</title>
<g id="a_node7"><a xlink:href="dir_4ab6b4cc6a7edbff49100e9123df213f.html" target="_top" xlink:title="Common">
<polygon fill="none" stroke="red" points="229.5,-180 174.5,-180 174.5,-144 229.5,-144 229.5,-180"/>
<text text-anchor="middle" x="202" y="-159.5" font-family="Helvetica,sans-Serif" font-size="10.00">Common</text>
</a>
</g>
</g>
<!-- dir_677b030cc750909e4cd27413873678d8&#45;&gt;dir_4ab6b4cc6a7edbff49100e9123df213f -->
<g id="edge9" class="edge"><title>dir_677b030cc750909e4cd27413873678d8&#45;&gt;dir_4ab6b4cc6a7edbff49100e9123df213f</title>
<path fill="none" stroke="black" d="M150.156,-162C154.839,-162 159.523,-162 164.206,-162"/>
<polygon fill="black" stroke="black" points="164.458,-165.5 174.458,-162 164.458,-158.5 164.458,-165.5"/>
<g id="a_edge9&#45;headlabel"><a xlink:href="dir_000148_000016.html" target="_top" xlink:title="2">
<text text-anchor="middle" x="160.863" y="-165.839" font-family="Helvetica,sans-Serif" font-size="10.00">2</text>
</a>
</g>
</g>
<!-- dir_2171f7ec022c5423887b07c69b2f5b48 -->
<g id="node9" class="node"><title>dir_2171f7ec022c5423887b07c69b2f5b48</title>
<g id="a_node9"><a xlink:href="dir_2171f7ec022c5423887b07c69b2f5b48.html" target="_top" xlink:title="DataFormats">
<polygon fill="none" stroke="red" points="174,-108 100,-108 100,-72 174,-72 174,-108"/>
<text text-anchor="middle" x="137" y="-87.5" font-family="Helvetica,sans-Serif" font-size="10.00">DataFormats</text>
</a>
</g>
</g>
<!-- dir_677b030cc750909e4cd27413873678d8&#45;&gt;dir_2171f7ec022c5423887b07c69b2f5b48 -->
<g id="edge10" class="edge"><title>dir_677b030cc750909e4cd27413873678d8&#45;&gt;dir_2171f7ec022c5423887b07c69b2f5b48</title>
<path fill="none" stroke="black" d="M120.545,-143.697C121.3,-135.898 122.955,-126.509 125.05,-117.829"/>
<polygon fill="black" stroke="black" points="128.448,-118.672 127.684,-108.104 121.692,-116.842 128.448,-118.672"/>
<g id="a_edge10&#45;headlabel"><a xlink:href="dir_000148_000043.html" target="_top" xlink:title="1">
<text text-anchor="middle" x="130.249" y="-120.383" font-family="Helvetica,sans-Serif" font-size="10.00">1</text>
</a>
</g>
</g>
<!-- dir_4995562033b321477cfe3c34a14a5189 -->
<g id="node3" class="node"><title>dir_4995562033b321477cfe3c34a14a5189</title>
<g id="a_node3"><a xlink:href="dir_4995562033b321477cfe3c34a14a5189.html" target="_top" xlink:title="calibration">
<polygon fill="white" stroke="red" points="131.25,-396 70.75,-396 70.75,-360 131.25,-360 131.25,-396"/>
<text text-anchor="middle" x="101" y="-375.5" font-family="Helvetica,sans-Serif" font-size="10.00">calibration</text>
</a>
</g>
</g>
<!-- dir_4995562033b321477cfe3c34a14a5189&#45;&gt;dir_677b030cc750909e4cd27413873678d8 -->
<g id="edge6" class="edge"><title>dir_4995562033b321477cfe3c34a14a5189&#45;&gt;dir_677b030cc750909e4cd27413873678d8</title>
<path fill="none" stroke="black" d="M117.463,-359.919C125.654,-350.218 134.704,-337.366 139,-324 153.582,-278.636 141.813,-222.696 132.212,-190.116"/>
<polygon fill="black" stroke="black" points="135.506,-188.922 129.208,-180.403 128.819,-190.99 135.506,-188.922"/>
<g id="a_edge6&#45;headlabel"><a xlink:href="dir_000212_000148.html" target="_top" xlink:title="13">
<text text-anchor="middle" x="139.281" y="-189.017" font-family="Helvetica,sans-Serif" font-size="10.00">13</text>
</a>
</g>
</g>
<!-- dir_a5de047958dd458e809773c6ffaa8478 -->
<g id="node5" class="node"><title>dir_a5de047958dd458e809773c6ffaa8478</title>
<g id="a_node5"><a xlink:href="dir_a5de047958dd458e809773c6ffaa8478.html" target="_top" xlink:title="reconstruction">
<polygon fill="white" stroke="red" points="130,-324 52,-324 52,-288 130,-288 130,-324"/>
<text text-anchor="middle" x="91" y="-303.5" font-family="Helvetica,sans-Serif" font-size="10.00">reconstruction</text>
</a>
</g>
</g>
<!-- dir_4995562033b321477cfe3c34a14a5189&#45;&gt;dir_a5de047958dd458e809773c6ffaa8478 -->
<g id="edge8" class="edge"><title>dir_4995562033b321477cfe3c34a14a5189&#45;&gt;dir_a5de047958dd458e809773c6ffaa8478</title>
<path fill="none" stroke="black" d="M92.6124,-359.697C90.7147,-351.983 89.1638,-342.712 88.2779,-334.112"/>
<polygon fill="black" stroke="black" points="91.7662,-333.823 87.5484,-324.104 84.7848,-334.332 91.7662,-333.823"/>
<g id="a_edge8&#45;headlabel"><a xlink:href="dir_000212_000185.html" target="_top" xlink:title="3">
<text text-anchor="middle" x="94.8592" y="-334.702" font-family="Helvetica,sans-Serif" font-size="10.00">3</text>
</a>
</g>
</g>
<!-- dir_4995562033b321477cfe3c34a14a5189&#45;&gt;dir_4ab6b4cc6a7edbff49100e9123df213f -->
<g id="edge7" class="edge"><title>dir_4995562033b321477cfe3c34a14a5189&#45;&gt;dir_4ab6b4cc6a7edbff49100e9123df213f</title>
<path fill="none" stroke="black" d="M119.51,-359.786C129.097,-350.047 140.363,-337.2 148,-324 173.181,-280.481 188.777,-223.493 196.383,-190.296"/>
<polygon fill="black" stroke="black" points="199.829,-190.921 198.574,-180.401 192.995,-189.408 199.829,-190.921"/>
<g id="a_edge7&#45;headlabel"><a xlink:href="dir_000212_000016.html" target="_top" xlink:title="3">
<text text-anchor="middle" x="201.824" y="-192.544" font-family="Helvetica,sans-Serif" font-size="10.00">3</text>
</a>
</g>
</g>
<!-- dir_c8aedc994017b243e124cedd663b3bbb -->
<g id="node4" class="node"><title>dir_c8aedc994017b243e124cedd663b3bbb</title>
<g id="a_node4"><a xlink:href="dir_c8aedc994017b243e124cedd663b3bbb.html" target="_top" xlink:title="monitor">
<polygon fill="white" stroke="red" points="78,-468 24,-468 24,-432 78,-432 78,-468"/>
<text text-anchor="middle" x="51" y="-447.5" font-family="Helvetica,sans-Serif" font-size="10.00">monitor</text>
</a>
</g>
</g>
<!-- dir_c8aedc994017b243e124cedd663b3bbb&#45;&gt;dir_677b030cc750909e4cd27413873678d8 -->
<g id="edge19" class="edge"><title>dir_c8aedc994017b243e124cedd663b3bbb&#45;&gt;dir_677b030cc750909e4cd27413873678d8</title>
<path fill="none" stroke="black" d="M45.6294,-431.7C34.0411,-390.866 10.9065,-286.628 52,-216 60.3128,-201.713 74.1573,-190.081 87.4247,-181.393"/>
<polygon fill="black" stroke="black" points="89.3192,-184.337 95.996,-176.111 85.6465,-178.378 89.3192,-184.337"/>
<g id="a_edge19&#45;headlabel"><a xlink:href="dir_000217_000148.html" target="_top" xlink:title="12">
<text text-anchor="middle" x="87.7486" y="-186.14" font-family="Helvetica,sans-Serif" font-size="10.00">12</text>
</a>
</g>
</g>
<!-- dir_c8aedc994017b243e124cedd663b3bbb&#45;&gt;dir_4995562033b321477cfe3c34a14a5189 -->
<g id="edge18" class="edge"><title>dir_c8aedc994017b243e124cedd663b3bbb&#45;&gt;dir_4995562033b321477cfe3c34a14a5189</title>
<path fill="none" stroke="black" d="M63.3596,-431.697C69.2328,-423.474 76.3691,-413.483 82.8424,-404.421"/>
<polygon fill="black" stroke="black" points="85.8183,-406.276 88.7826,-396.104 80.1221,-402.207 85.8183,-406.276"/>
<g id="a_edge18&#45;headlabel"><a xlink:href="dir_000217_000212.html" target="_top" xlink:title="1">
<text text-anchor="middle" x="86.0394" y="-408.351" font-family="Helvetica,sans-Serif" font-size="10.00">1</text>
</a>
</g>
</g>
<!-- dir_c8aedc994017b243e124cedd663b3bbb&#45;&gt;dir_a5de047958dd458e809773c6ffaa8478 -->
<g id="edge20" class="edge"><title>dir_c8aedc994017b243e124cedd663b3bbb&#45;&gt;dir_a5de047958dd458e809773c6ffaa8478</title>
<path fill="none" stroke="black" d="M50.906,-431.842C51.2675,-413.598 53.1845,-384.109 61,-360 63.9849,-350.792 68.6714,-341.392 73.4608,-333.115"/>
<polygon fill="black" stroke="black" points="76.6078,-334.677 78.8267,-324.317 70.6316,-331.032 76.6078,-334.677"/>
<g id="a_edge20&#45;headlabel"><a xlink:href="dir_000217_000185.html" target="_top" xlink:title="2">
<text text-anchor="middle" x="77.1602" y="-336.724" font-family="Helvetica,sans-Serif" font-size="10.00">2</text>
</a>
</g>
</g>
<!-- dir_a5de047958dd458e809773c6ffaa8478&#45;&gt;dir_677b030cc750909e4cd27413873678d8 -->
<g id="edge14" class="edge"><title>dir_a5de047958dd458e809773c6ffaa8478&#45;&gt;dir_677b030cc750909e4cd27413873678d8</title>
<path fill="none" stroke="black" d="M76.8896,-287.886C63.6979,-269.679 47.6105,-240.22 59,-216 65.1751,-202.869 76.3781,-191.874 87.7045,-183.364"/>
<polygon fill="black" stroke="black" points="89.7275,-186.22 95.9036,-177.612 85.7072,-180.49 89.7275,-186.22"/>
<g id="a_edge14&#45;headlabel"><a xlink:href="dir_000185_000148.html" target="_top" xlink:title="51">
<text text-anchor="middle" x="88.4155" y="-188.109" font-family="Helvetica,sans-Serif" font-size="10.00">51</text>
</a>
</g>
</g>
<!-- dir_a5de047958dd458e809773c6ffaa8478&#45;&gt;dir_4995562033b321477cfe3c34a14a5189 -->
<g id="edge13" class="edge"><title>dir_a5de047958dd458e809773c6ffaa8478&#45;&gt;dir_4995562033b321477cfe3c34a14a5189</title>
<path fill="none" stroke="black" d="M99.3385,-324.104C101.242,-331.791 102.802,-341.054 103.699,-349.665"/>
<polygon fill="black" stroke="black" points="100.213,-349.983 104.444,-359.697 107.194,-349.465 100.213,-349.983"/>
<g id="a_edge13&#45;headlabel"><a xlink:href="dir_000185_000212.html" target="_top" xlink:title="1">
<text text-anchor="middle" x="97.1154" y="-344.109" font-family="Helvetica,sans-Serif" font-size="10.00">1</text>
</a>
</g>
</g>
<!-- dir_7f309bec8670bb3fb666e7e061b24659 -->
<g id="node6" class="node"><title>dir_7f309bec8670bb3fb666e7e061b24659</title>
<g id="a_node6"><a xlink:href="dir_7f309bec8670bb3fb666e7e061b24659.html" target="_top" xlink:title="simulation">
<polygon fill="white" stroke="red" points="129.25,-252 68.75,-252 68.75,-216 129.25,-216 129.25,-252"/>
<text text-anchor="middle" x="99" y="-231.5" font-family="Helvetica,sans-Serif" font-size="10.00">simulation</text>
</a>
</g>
</g>
<!-- dir_a5de047958dd458e809773c6ffaa8478&#45;&gt;dir_7f309bec8670bb3fb666e7e061b24659 -->
<g id="edge12" class="edge"><title>dir_a5de047958dd458e809773c6ffaa8478&#45;&gt;dir_7f309bec8670bb3fb666e7e061b24659</title>
<path fill="none" stroke="black" d="M87.0618,-287.697C87.1477,-279.983 87.9806,-270.712 89.3062,-262.112"/>
<polygon fill="black" stroke="black" points="92.7801,-262.573 91.1502,-252.104 85.896,-261.305 92.7801,-262.573"/>
<g id="a_edge12&#45;headlabel"><a xlink:href="dir_000185_000126.html" target="_top" xlink:title="1">
<text text-anchor="middle" x="94.9211" y="-264.123" font-family="Helvetica,sans-Serif" font-size="10.00">1</text>
</a>
</g>
</g>
<!-- dir_a5de047958dd458e809773c6ffaa8478&#45;&gt;dir_2171f7ec022c5423887b07c69b2f5b48 -->
<g id="edge15" class="edge"><title>dir_a5de047958dd458e809773c6ffaa8478&#45;&gt;dir_2171f7ec022c5423887b07c69b2f5b48</title>
<path fill="none" stroke="black" d="M74.1103,-287.993C65.7065,-278.315 56.4183,-265.459 52,-252 47.0096,-236.798 49.8763,-231.858 52,-216 57.3809,-175.819 51.5982,-160.373 76,-128 80.2077,-122.418 85.5249,-117.499 91.2579,-113.221"/>
<polygon fill="black" stroke="black" points="93.5395,-115.904 99.8741,-107.412 89.6261,-110.1 93.5395,-115.904"/>
<g id="a_edge15&#45;headlabel"><a xlink:href="dir_000185_000043.html" target="_top" xlink:title="42">
<text text-anchor="middle" x="92.1465" y="-117.768" font-family="Helvetica,sans-Serif" font-size="10.00">42</text>
</a>
</g>
</g>
<!-- dir_7f309bec8670bb3fb666e7e061b24659&#45;&gt;dir_677b030cc750909e4cd27413873678d8 -->
<g id="edge1" class="edge"><title>dir_7f309bec8670bb3fb666e7e061b24659&#45;&gt;dir_677b030cc750909e4cd27413873678d8</title>
<path fill="none" stroke="black" d="M104.933,-215.697C107.606,-207.898 110.826,-198.509 113.801,-189.829"/>
<polygon fill="black" stroke="black" points="117.203,-190.699 117.136,-180.104 110.582,-188.429 117.203,-190.699"/>
<g id="a_edge1&#45;headlabel"><a xlink:href="dir_000126_000148.html" target="_top" xlink:title="44">
<text text-anchor="middle" x="118.723" y="-192.52" font-family="Helvetica,sans-Serif" font-size="10.00">44</text>
</a>
</g>
</g>
<!-- dir_7f309bec8670bb3fb666e7e061b24659&#45;&gt;dir_a5de047958dd458e809773c6ffaa8478 -->
<g id="edge3" class="edge"><title>dir_7f309bec8670bb3fb666e7e061b24659&#45;&gt;dir_a5de047958dd458e809773c6ffaa8478</title>
<path fill="none" stroke="black" d="M102.94,-252.104C102.867,-259.791 102.045,-269.054 100.728,-277.665"/>
<polygon fill="black" stroke="black" points="97.2496,-277.23 98.8933,-287.697 104.135,-278.49 97.2496,-277.23"/>
<g id="a_edge3&#45;headlabel"><a xlink:href="dir_000126_000185.html" target="_top" xlink:title="2">
<text text-anchor="middle" x="95.1033" y="-270.683" font-family="Helvetica,sans-Serif" font-size="10.00">2</text>
</a>
</g>
</g>
<!-- dir_7f309bec8670bb3fb666e7e061b24659&#45;&gt;dir_4ab6b4cc6a7edbff49100e9123df213f -->
<g id="edge2" class="edge"><title>dir_7f309bec8670bb3fb666e7e061b24659&#45;&gt;dir_4ab6b4cc6a7edbff49100e9123df213f</title>
<path fill="none" stroke="black" d="M124.197,-215.876C137.414,-206.893 153.792,-195.763 168.107,-186.034"/>
<polygon fill="black" stroke="black" points="170.403,-188.705 176.707,-180.19 166.468,-182.916 170.403,-188.705"/>
<g id="a_edge2&#45;headlabel"><a xlink:href="dir_000126_000016.html" target="_top" xlink:title="1">
<text text-anchor="middle" x="169.026" y="-190.574" font-family="Helvetica,sans-Serif" font-size="10.00">1</text>
</a>
</g>
</g>
<!-- dir_37c90836491b695b472bf98d1be8336b -->
<g id="node8" class="node"><title>dir_37c90836491b695b472bf98d1be8336b</title>
<g id="a_node8"><a xlink:href="dir_37c90836491b695b472bf98d1be8336b.html" target="_top" xlink:title="Base">
<polygon fill="none" stroke="red" points="196,-36 142,-36 142,-0 196,-0 196,-36"/>
<text text-anchor="middle" x="169" y="-15.5" font-family="Helvetica,sans-Serif" font-size="10.00">Base</text>
</a>
</g>
</g>
<!-- dir_7f309bec8670bb3fb666e7e061b24659&#45;&gt;dir_37c90836491b695b472bf98d1be8336b -->
<g id="edge4" class="edge"><title>dir_7f309bec8670bb3fb666e7e061b24659&#45;&gt;dir_37c90836491b695b472bf98d1be8336b</title>
<path fill="none" stroke="black" d="M129.441,-231.045C162.453,-227.109 213.677,-215.305 238,-180 268.347,-135.951 224.415,-76.4243 193.952,-43.4858"/>
<polygon fill="black" stroke="black" points="196.357,-40.9352 186.93,-36.0982 191.283,-45.7577 196.357,-40.9352"/>
<g id="a_edge4&#45;headlabel"><a xlink:href="dir_000126_000099.html" target="_top" xlink:title="1">
<text text-anchor="middle" x="200.891" y="-39.0846" font-family="Helvetica,sans-Serif" font-size="10.00">1</text>
</a>
</g>
</g>
<!-- dir_7f309bec8670bb3fb666e7e061b24659&#45;&gt;dir_2171f7ec022c5423887b07c69b2f5b48 -->
<g id="edge5" class="edge"><title>dir_7f309bec8670bb3fb666e7e061b24659&#45;&gt;dir_2171f7ec022c5423887b07c69b2f5b48</title>
<path fill="none" stroke="black" d="M91.5284,-215.984C83.2162,-194.331 72.7134,-156.345 87,-128 89.491,-123.058 92.9885,-118.612 96.9897,-114.661"/>
<polygon fill="black" stroke="black" points="99.3332,-117.262 104.627,-108.084 94.7656,-111.957 99.3332,-117.262"/>
<g id="a_edge5&#45;headlabel"><a xlink:href="dir_000126_000043.html" target="_top" xlink:title="7">
<text text-anchor="middle" x="98.462" y="-119.259" font-family="Helvetica,sans-Serif" font-size="10.00">7</text>
</a>
</g>
</g>
<!-- dir_4ab6b4cc6a7edbff49100e9123df213f&#45;&gt;dir_2171f7ec022c5423887b07c69b2f5b48 -->
<g id="edge11" class="edge"><title>dir_4ab6b4cc6a7edbff49100e9123df213f&#45;&gt;dir_2171f7ec022c5423887b07c69b2f5b48</title>
<path fill="none" stroke="black" d="M180.017,-143.697C171.359,-135.305 161.664,-125.07 153.594,-115.861"/>
<polygon fill="black" stroke="black" points="156.136,-113.448 146.988,-108.104 150.807,-117.987 156.136,-113.448"/>
<g id="a_edge11&#45;headlabel"><a xlink:href="dir_000016_000043.html" target="_top" xlink:title="1">
<text text-anchor="middle" x="160.628" y="-111.844" font-family="Helvetica,sans-Serif" font-size="10.00">1</text>
</a>
</g>
</g>
<!-- dir_37c90836491b695b472bf98d1be8336b&#45;&gt;dir_4ab6b4cc6a7edbff49100e9123df213f -->
<g id="edge16" class="edge"><title>dir_37c90836491b695b472bf98d1be8336b&#45;&gt;dir_4ab6b4cc6a7edbff49100e9123df213f</title>
<path fill="none" stroke="black" d="M173.749,-36.1332C176.562,-46.4867 180.128,-59.9659 183,-72 187.921,-92.617 192.902,-116.067 196.529,-133.719"/>
<polygon fill="black" stroke="black" points="193.174,-134.783 198.6,-143.883 200.033,-133.386 193.174,-134.783"/>
<g id="a_edge16&#45;headlabel"><a xlink:href="dir_000099_000016.html" target="_top" xlink:title="5">
<text text-anchor="middle" x="189.674" y="-129.328" font-family="Helvetica,sans-Serif" font-size="10.00">5</text>
</a>
</g>
</g>
<!-- dir_37c90836491b695b472bf98d1be8336b&#45;&gt;dir_2171f7ec022c5423887b07c69b2f5b48 -->
<g id="edge17" class="edge"><title>dir_37c90836491b695b472bf98d1be8336b&#45;&gt;dir_2171f7ec022c5423887b07c69b2f5b48</title>
<path fill="none" stroke="black" d="M167.076,-36.1043C164.248,-44.1291 160.015,-53.871 155.535,-62.7967"/>
<polygon fill="black" stroke="black" points="152.41,-61.2208 150.826,-71.6966 158.597,-64.4949 152.41,-61.2208"/>
<g id="a_edge17&#45;headlabel"><a xlink:href="dir_000099_000043.html" target="_top" xlink:title="5">
<text text-anchor="middle" x="151.581" y="-54.2157" font-family="Helvetica,sans-Serif" font-size="10.00">5</text>
</a>
</g>
</g>
<!-- dir_2171f7ec022c5423887b07c69b2f5b48&#45;&gt;dir_677b030cc750909e4cd27413873678d8 -->
<g id="edge21" class="edge"><title>dir_2171f7ec022c5423887b07c69b2f5b48&#45;&gt;dir_677b030cc750909e4cd27413873678d8</title>
<path fill="none" stroke="black" d="M139.474,-108.104C138.734,-115.876 137.09,-125.257 135.003,-133.949"/>
<polygon fill="black" stroke="black" points="131.599,-133.13 132.376,-143.697 138.358,-134.952 131.599,-133.13"/>
<g id="a_edge21&#45;headlabel"><a xlink:href="dir_000043_000148.html" target="_top" xlink:title="2">
<text text-anchor="middle" x="129.793" y="-126.421" font-family="Helvetica,sans-Serif" font-size="10.00">2</text>
</a>
</g>
</g>
<!-- dir_2171f7ec022c5423887b07c69b2f5b48&#45;&gt;dir_4ab6b4cc6a7edbff49100e9123df213f -->
<g id="edge22" class="edge"><title>dir_2171f7ec022c5423887b07c69b2f5b48&#45;&gt;dir_4ab6b4cc6a7edbff49100e9123df213f</title>
<path fill="none" stroke="black" d="M158.778,-108.104C167.419,-116.467 177.119,-126.694 185.214,-135.92"/>
<polygon fill="black" stroke="black" points="182.696,-138.36 191.848,-143.697 188.021,-133.817 182.696,-138.36"/>
<g id="a_edge22&#45;headlabel"><a xlink:href="dir_000043_000016.html" target="_top" xlink:title="11">
<text text-anchor="middle" x="178.203" y="-134.968" font-family="Helvetica,sans-Serif" font-size="10.00">11</text>
</a>
</g>
</g>
<!-- dir_2171f7ec022c5423887b07c69b2f5b48&#45;&gt;dir_37c90836491b695b472bf98d1be8336b -->
<g id="edge23" class="edge"><title>dir_2171f7ec022c5423887b07c69b2f5b48&#45;&gt;dir_37c90836491b695b472bf98d1be8336b</title>
<path fill="none" stroke="black" d="M138.994,-71.6966C141.845,-63.6436 146.091,-53.8945 150.576,-44.9824"/>
<polygon fill="black" stroke="black" points="153.691,-46.5784 155.286,-36.1043 147.507,-43.2977 153.691,-46.5784"/>
<g id="a_edge23&#45;headlabel"><a xlink:href="dir_000043_000099.html" target="_top" xlink:title="1">
<text text-anchor="middle" x="154.514" y="-48.5845" font-family="Helvetica,sans-Serif" font-size="10.00">1</text>
</a>
</g>
</g>
</g>
</svg>
        <g id="navigator" transform="translate(0 0)" fill="#404254">
                <rect fill="#f2f5e9" fill-opacity="0.5" stroke="#606060" stroke-width=".5" x="0" y="0" width="60" height="60"/>
                <use id="zoomplus" xlink:href="#zoomPlus" x="17" y="9" onmousedown="handleZoom(evt,'in')"/>
                <use id="zoomminus" xlink:href="#zoomMin" x="42" y="9" onmousedown="handleZoom(evt,'out')"/>
                <use id="reset" xlink:href="#resetDef" x="30" y="36" onmousedown="handleReset()"/>
                <g id="arrowUp" xlink:href="#dirArrow" transform="translate(30 24)" onmousedown="handlePan(0,-1)">
                  <use xlink:href="#rim" fill="#404040">
                        <set attributeName="fill" to="#808080" begin="arrowUp.mouseover" end="arrowUp.mouseout"/>
                  </use>
                  <path fill="none" stroke="white" stroke-width="1.5" d="M0,-3.0v7 M-2.5,-0.5L0,-3.0L2.5,-0.5"/>
                </g>
                <g id="arrowRight" xlink:href="#dirArrow" transform="rotate(90) translate(36 -43)" onmousedown="handlePan(1,0)">
                  <use xlink:href="#rim" fill="#404040">
                        <set attributeName="fill" to="#808080" begin="arrowRight.mouseover" end="arrowRight.mouseout"/>
                  </use>
                  <path fill="none" stroke="white" stroke-width="1.5" d="M0,-3.0v7 M-2.5,-0.5L0,-3.0L2.5,-0.5"/>
                </g>
                <g id="arrowDown" xlink:href="#dirArrow" transform="rotate(180) translate(-30 -48)" onmousedown="handlePan(0,1)">
                  <use xlink:href="#rim" fill="#404040">
                        <set attributeName="fill" to="#808080" begin="arrowDown.mouseover" end="arrowDown.mouseout"/>
                  </use>
                  <path fill="none" stroke="white" stroke-width="1.5" d="M0,-3.0v7 M-2.5,-0.5L0,-3.0L2.5,-0.5"/>
                </g>
                <g id="arrowLeft" xlink:href="#dirArrow" transform="rotate(270) translate(-36 17)" onmousedown="handlePan(-1,0)">
                  <use xlink:href="#rim" fill="#404040">
                        <set attributeName="fill" to="#808080" begin="arrowLeft.mouseover" end="arrowLeft.mouseout"/>
                  </use>
                  <path fill="none" stroke="white" stroke-width="1.5" d="M0,-3.0v7 M-2.5,-0.5L0,-3.0L2.5,-0.5"/>
                </g>
        </g>
        <svg viewBox="0 0 15 15" width="100%" height="30px" preserveAspectRatio="xMaxYMin meet">
         <g id="arrow_out" transform="scale(0.3 0.3)">
          <a xlink:href="dir_a597e8e061b11201a1dff411feb10d0b_dep_org.svg" target="_base">
           <rect id="button" ry="5" rx="5" y="6" x="6" height="38" width="38"
                fill="#f2f5e9" fill-opacity="0.5" stroke="#606060" stroke-width="1.0"/>
           <path id="arrow"
             d="M 11.500037,31.436501 C 11.940474,20.09759 22.043105,11.32322 32.158766,21.979434 L 37.068811,17.246167 C 37.068811,17.246167 37.088388,32 37.088388,32 L 22.160133,31.978069 C 22.160133,31.978069 26.997745,27.140456 26.997745,27.140456 C 18.528582,18.264221 13.291696,25.230495 11.500037,31.436501 z"
             style="fill:#404040;"/>
          </a>
         </g>
        </svg>
</svg>
