<?xml version="1.0" encoding="UTF-8" standalone="no"?>
<!DOCTYPE svg PUBLIC "-//W3C//DTD SVG 1.1//EN"
 "http://www.w3.org/Graphics/SVG/1.1/DTD/svg11.dtd">
<!-- Generated by graphviz version 2.36.0 (20140111.2315)
 -->
<!-- Title: /home/travis/build/AliceO2Group/AliceO2/Detectors/TPC/reconstruction Pages: 1 -->
<!--zoomable 303 -->
<svg id="main" version="1.1" xmlns="http://www.w3.org/2000/svg" xmlns:xlink="http://www.w3.org/1999/xlink" xml:space="preserve" onload="init(evt)">
<style type="text/css"><![CDATA[
.edge:hover path { stroke: red; }
.edge:hover polygon { stroke: red; fill: red; }
]]></style>
<script type="text/javascript"><![CDATA[
var edges = document.getElementsByTagName('g');
if (edges && edges.length) {
  for (var i=0;i<edges.length;i++) {
    if (edges[i].id.substr(0,4)=='edge') {
      edges[i].setAttribute('class','edge');
    }
  }
}
]]></script>
        <defs>
                <circle id="rim" cx="0" cy="0" r="7"/>
                <circle id="rim2" cx="0" cy="0" r="3.5"/>
                <g id="zoomPlus">
                        <use xlink:href="#rim" fill="#404040">
                                <set attributeName="fill" to="#808080" begin="zoomplus.mouseover" end="zoomplus.mouseout"/>
                        </use>
                        <path d="M-4,0h8M0,-4v8" fill="none" stroke="white" stroke-width="1.5" pointer-events="none"/>
                </g>
                <g id="zoomMin">
                        <use xlink:href="#rim" fill="#404040">
                                <set attributeName="fill" to="#808080" begin="zoomminus.mouseover" end="zoomminus.mouseout"/>
                        </use>
                        <path d="M-4,0h8" fill="none" stroke="white" stroke-width="1.5" pointer-events="none"/>
                </g>
                <g id="dirArrow">
                        <path fill="none" stroke="white" stroke-width="1.5" d="M0,-3.0v7 M-2.5,-0.5L0,-3.0L2.5,-0.5"/>
                </g>
               <g id="resetDef">
                       <use xlink:href="#rim2" fill="#404040">
                               <set attributeName="fill" to="#808080" begin="reset.mouseover" end="reset.mouseout"/>
                       </use>
               </g>
        </defs>

<script type="text/javascript">
var viewWidth = 584;
var viewHeight = 303;
var sectionId = 'dynsection-0';
</script>
<script xlink:href="svgpan.js"/>
<svg id="graph" class="graph">
<g id="viewport">
<title>/home/travis/build/AliceO2Group/AliceO2/Detectors/TPC/reconstruction</title>
<g id="clust1" class="cluster"><title>clusterdir_a597e8e061b11201a1dff411feb10d0b</title>
<g id="a_clust1"><a xlink:href="dir_a597e8e061b11201a1dff411feb10d0b.html" target="_top" xlink:title="TPC">
<polygon fill="#ddddee" stroke="black" points="8,-128 8,-287 406,-287 406,-128 8,-128"/>
<text text-anchor="middle" x="207" y="-275" font-family="Helvetica,sans-Serif" font-size="10.00">TPC</text>
</a>
</g>
</g>
<g id="clust2" class="cluster"><title>clusterdir_a5de047958dd458e809773c6ffaa8478</title>
<g id="a_clust2"><a xlink:href="dir_a5de047958dd458e809773c6ffaa8478.html" target="_top">
<polygon fill="#eeeeff" stroke="black" points="16,-136 16,-260 398,-260 398,-136 16,-136"/>
</a>
</g>
</g>
<!-- dir_a5de047958dd458e809773c6ffaa8478 -->
<g id="node1" class="node"><title>dir_a5de047958dd458e809773c6ffaa8478</title>
<text text-anchor="middle" x="351" y="-231.5" font-family="Helvetica,sans-Serif" font-size="10.00">reconstruction</text>
</g>
<!-- dir_396d171119822f66a36fe1ebf998d1a3 -->
<g id="node2" class="node"><title>dir_396d171119822f66a36fe1ebf998d1a3</title>
<g id="a_node2"><a xlink:href="dir_396d171119822f66a36fe1ebf998d1a3.html" target="_top" xlink:title="include">
<polygon fill="white" stroke="red" points="233,-180 179,-180 179,-144 233,-144 233,-180"/>
<text text-anchor="middle" x="206" y="-159.5" font-family="Helvetica,sans-Serif" font-size="10.00">include</text>
</a>
</g>
</g>
<!-- dir_677b030cc750909e4cd27413873678d8 -->
<g id="node9" class="node"><title>dir_677b030cc750909e4cd27413873678d8</title>
<g id="a_node9"><a xlink:href="dir_677b030cc750909e4cd27413873678d8.html" target="_top" xlink:title="base">
<polygon fill="none" stroke="red" points="383,-108 329,-108 329,-72 383,-72 383,-108"/>
<text text-anchor="middle" x="356" y="-87.5" font-family="Helvetica,sans-Serif" font-size="10.00">base</text>
</a>
</g>
</g>
<!-- dir_396d171119822f66a36fe1ebf998d1a3&#45;&gt;dir_677b030cc750909e4cd27413873678d8 -->
<g id="edge14" class="edge"><title>dir_396d171119822f66a36fe1ebf998d1a3&#45;&gt;dir_677b030cc750909e4cd27413873678d8</title>
<path fill="none" stroke="black" d="M233.164,-148.324C257.3,-137.06 292.781,-120.502 319.412,-108.075"/>
<polygon fill="black" stroke="black" points="321.203,-111.101 328.785,-103.7 318.243,-104.758 321.203,-111.101"/>
<g id="a_edge14&#45;headlabel"><a xlink:href="dir_000186_000148.html" target="_top" xlink:title="9">
<text text-anchor="middle" x="319.147" y="-112.694" font-family="Helvetica,sans-Serif" font-size="10.00">9</text>
</a>
</g>
</g>
<!-- dir_2171f7ec022c5423887b07c69b2f5b48 -->
<g id="node10" class="node"><title>dir_2171f7ec022c5423887b07c69b2f5b48</title>
<g id="a_node10"><a xlink:href="dir_2171f7ec022c5423887b07c69b2f5b48.html" target="_top" xlink:title="DataFormats">
<polygon fill="none" stroke="red" points="393,-36 319,-36 319,-0 393,-0 393,-36"/>
<text text-anchor="middle" x="356" y="-15.5" font-family="Helvetica,sans-Serif" font-size="10.00">DataFormats</text>
</a>
</g>
</g>
<!-- dir_396d171119822f66a36fe1ebf998d1a3&#45;&gt;dir_2171f7ec022c5423887b07c69b2f5b48 -->
<g id="edge15" class="edge"><title>dir_396d171119822f66a36fe1ebf998d1a3&#45;&gt;dir_2171f7ec022c5423887b07c69b2f5b48</title>
<path fill="none" stroke="black" d="M210.115,-143.919C215.595,-124.367 227.003,-92.4193 247,-72 264.108,-54.5306 288.144,-42.0003 309.292,-33.5247"/>
<polygon fill="black" stroke="black" points="310.673,-36.7442 318.771,-29.9126 308.18,-30.2031 310.673,-36.7442"/>
<g id="a_edge15&#45;headlabel"><a xlink:href="dir_000186_000043.html" target="_top" xlink:title="14">
<text text-anchor="middle" x="308.325" y="-38.1773" font-family="Helvetica,sans-Serif" font-size="10.00">14</text>
</a>
</g>
</g>
<!-- dir_4cbbc7f21c16d130545e15f2205651b3 -->
<g id="node3" class="node"><title>dir_4cbbc7f21c16d130545e15f2205651b3</title>
<g id="a_node3"><a xlink:href="dir_4cbbc7f21c16d130545e15f2205651b3.html" target="_top" xlink:title="macro">
<polygon fill="white" stroke="black" points="294,-252 240,-252 240,-216 294,-216 294,-252"/>
<text text-anchor="middle" x="267" y="-231.5" font-family="Helvetica,sans-Serif" font-size="10.00">macro</text>
</a>
</g>
</g>
<!-- dir_4cbbc7f21c16d130545e15f2205651b3&#45;&gt;dir_396d171119822f66a36fe1ebf998d1a3 -->
<g id="edge12" class="edge"><title>dir_4cbbc7f21c16d130545e15f2205651b3&#45;&gt;dir_396d171119822f66a36fe1ebf998d1a3</title>
<path fill="none" stroke="black" d="M251.921,-215.697C244.608,-207.305 235.69,-197.07 227.665,-187.861"/>
<polygon fill="black" stroke="black" points="230.114,-185.344 220.905,-180.104 224.836,-189.943 230.114,-185.344"/>
<g id="a_edge12&#45;headlabel"><a xlink:href="dir_000223_000186.html" target="_top" xlink:title="24">
<text text-anchor="middle" x="234.616" y="-183.689" font-family="Helvetica,sans-Serif" font-size="10.00">24</text>
</a>
</g>
</g>
<!-- dir_7f309bec8670bb3fb666e7e061b24659 -->
<g id="node7" class="node"><title>dir_7f309bec8670bb3fb666e7e061b24659</title>
<g id="a_node7"><a xlink:href="dir_7f309bec8670bb3fb666e7e061b24659.html" target="_top" xlink:title="simulation">
<polygon fill="none" stroke="red" points="554.25,-180 493.75,-180 493.75,-144 554.25,-144 554.25,-180"/>
<text text-anchor="middle" x="524" y="-159.5" font-family="Helvetica,sans-Serif" font-size="10.00">simulation</text>
</a>
</g>
</g>
<!-- dir_4cbbc7f21c16d130545e15f2205651b3&#45;&gt;dir_7f309bec8670bb3fb666e7e061b24659 -->
<g id="edge9" class="edge"><title>dir_4cbbc7f21c16d130545e15f2205651b3&#45;&gt;dir_7f309bec8670bb3fb666e7e061b24659</title>
<path fill="none" stroke="black" d="M294.233,-219.295C297.153,-218.081 300.112,-216.953 303,-216 380.888,-190.296 405.621,-204.168 484,-180 484.099,-179.969 484.198,-179.939 484.298,-179.908"/>
<polygon fill="black" stroke="black" points="485.368,-183.241 493.666,-176.653 483.071,-176.629 485.368,-183.241"/>
<g id="a_edge9&#45;headlabel"><a xlink:href="dir_000223_000126.html" target="_top" xlink:title="1">
<text text-anchor="middle" x="482.905" y="-184.603" font-family="Helvetica,sans-Serif" font-size="10.00">1</text>
</a>
</g>
</g>
<!-- dir_4995562033b321477cfe3c34a14a5189 -->
<g id="node8" class="node"><title>dir_4995562033b321477cfe3c34a14a5189</title>
<g id="a_node8"><a xlink:href="dir_4995562033b321477cfe3c34a14a5189.html" target="_top" xlink:title="calibration">
<polygon fill="none" stroke="red" points="475.25,-180 414.75,-180 414.75,-144 475.25,-144 475.25,-180"/>
<text text-anchor="middle" x="445" y="-159.5" font-family="Helvetica,sans-Serif" font-size="10.00">calibration</text>
</a>
</g>
</g>
<!-- dir_4cbbc7f21c16d130545e15f2205651b3&#45;&gt;dir_4995562033b321477cfe3c34a14a5189 -->
<g id="edge10" class="edge"><title>dir_4cbbc7f21c16d130545e15f2205651b3&#45;&gt;dir_4995562033b321477cfe3c34a14a5189</title>
<path fill="none" stroke="black" d="M294.006,-219.919C297.023,-218.556 300.065,-217.223 303,-216 346.214,-197.985 358.226,-196.608 402,-180 403.013,-179.616 404.039,-179.224 405.074,-178.828"/>
<polygon fill="black" stroke="black" points="406.441,-182.052 414.503,-175.178 403.914,-175.524 406.441,-182.052"/>
<g id="a_edge10&#45;headlabel"><a xlink:href="dir_000223_000212.html" target="_top" xlink:title="1">
<text text-anchor="middle" x="404.114" y="-183.498" font-family="Helvetica,sans-Serif" font-size="10.00">1</text>
</a>
</g>
</g>
<!-- dir_4cbbc7f21c16d130545e15f2205651b3&#45;&gt;dir_677b030cc750909e4cd27413873678d8 -->
<g id="edge11" class="edge"><title>dir_4cbbc7f21c16d130545e15f2205651b3&#45;&gt;dir_677b030cc750909e4cd27413873678d8</title>
<path fill="none" stroke="black" d="M294.034,-219.457C315.985,-207.861 344.352,-191.294 351,-180 361.945,-161.407 362.452,-136.67 360.643,-117.995"/>
<polygon fill="black" stroke="black" points="364.115,-117.551 359.413,-108.057 357.168,-118.411 364.115,-117.551"/>
<g id="a_edge11&#45;headlabel"><a xlink:href="dir_000223_000148.html" target="_top" xlink:title="16">
<text text-anchor="middle" x="367.375" y="-118.269" font-family="Helvetica,sans-Serif" font-size="10.00">16</text>
</a>
</g>
</g>
<!-- dir_4cbbc7f21c16d130545e15f2205651b3&#45;&gt;dir_2171f7ec022c5423887b07c69b2f5b48 -->
<g id="edge13" class="edge"><title>dir_4cbbc7f21c16d130545e15f2205651b3&#45;&gt;dir_2171f7ec022c5423887b07c69b2f5b48</title>
<path fill="none" stroke="black" d="M294.178,-219.119C297.109,-217.94 300.085,-216.868 303,-216 358.904,-199.355 524.688,-223.982 563,-180 619.451,-115.194 480.09,-58.4188 403.005,-33.0693"/>
<polygon fill="black" stroke="black" points="403.614,-29.588 393.022,-29.8471 401.463,-36.2496 403.614,-29.588"/>
<g id="a_edge13&#45;headlabel"><a xlink:href="dir_000223_000043.html" target="_top" xlink:title="21">
<text text-anchor="middle" x="407.906" y="-25.4901" font-family="Helvetica,sans-Serif" font-size="10.00">21</text>
</a>
</g>
</g>
<!-- dir_f9c1a6d4eb662f0614520771b81d0fc2 -->
<g id="node4" class="node"><title>dir_f9c1a6d4eb662f0614520771b81d0fc2</title>
<g id="a_node4"><a xlink:href="dir_f9c1a6d4eb662f0614520771b81d0fc2.html" target="_top" xlink:title="run">
<polygon fill="white" stroke="black" points="150,-252 96,-252 96,-216 150,-216 150,-252"/>
<text text-anchor="middle" x="123" y="-231.5" font-family="Helvetica,sans-Serif" font-size="10.00">run</text>
</a>
</g>
</g>
<!-- dir_f9c1a6d4eb662f0614520771b81d0fc2&#45;&gt;dir_396d171119822f66a36fe1ebf998d1a3 -->
<g id="edge2" class="edge"><title>dir_f9c1a6d4eb662f0614520771b81d0fc2&#45;&gt;dir_396d171119822f66a36fe1ebf998d1a3</title>
<path fill="none" stroke="black" d="M143.517,-215.697C153.869,-206.965 166.586,-196.24 177.839,-186.75"/>
<polygon fill="black" stroke="black" points="180.331,-189.227 185.719,-180.104 175.818,-183.876 180.331,-189.227"/>
<g id="a_edge2&#45;headlabel"><a xlink:href="dir_000224_000186.html" target="_top" xlink:title="4">
<text text-anchor="middle" x="179.414" y="-191.215" font-family="Helvetica,sans-Serif" font-size="10.00">4</text>
</a>
</g>
</g>
<!-- dir_f9c1a6d4eb662f0614520771b81d0fc2&#45;&gt;dir_677b030cc750909e4cd27413873678d8 -->
<g id="edge1" class="edge"><title>dir_f9c1a6d4eb662f0614520771b81d0fc2&#45;&gt;dir_677b030cc750909e4cd27413873678d8</title>
<path fill="none" stroke="black" d="M150.084,-220.097C153.086,-218.701 156.104,-217.312 159,-216 195.629,-199.413 207.431,-200.537 242,-180 259.29,-169.729 299.578,-137.464 327.313,-114.752"/>
<polygon fill="black" stroke="black" points="329.619,-117.387 335.125,-108.336 325.176,-111.978 329.619,-117.387"/>
<g id="a_edge1&#45;headlabel"><a xlink:href="dir_000224_000148.html" target="_top" xlink:title="2">
<text text-anchor="middle" x="328.643" y="-119.363" font-family="Helvetica,sans-Serif" font-size="10.00">2</text>
</a>
</g>
</g>
<!-- dir_0c8c50542de1d83a040084fab225b0f7 -->
<g id="node5" class="node"><title>dir_0c8c50542de1d83a040084fab225b0f7</title>
<g id="a_node5"><a xlink:href="dir_0c8c50542de1d83a040084fab225b0f7.html" target="_top" xlink:title="src">
<polygon fill="white" stroke="black" points="222,-252 168,-252 168,-216 222,-216 222,-252"/>
<text text-anchor="middle" x="195" y="-231.5" font-family="Helvetica,sans-Serif" font-size="10.00">src</text>
</a>
</g>
</g>
<!-- dir_0c8c50542de1d83a040084fab225b0f7&#45;&gt;dir_396d171119822f66a36fe1ebf998d1a3 -->
<g id="edge18" class="edge"><title>dir_0c8c50542de1d83a040084fab225b0f7&#45;&gt;dir_396d171119822f66a36fe1ebf998d1a3</title>
<path fill="none" stroke="black" d="M197.719,-215.697C198.931,-207.983 200.388,-198.712 201.739,-190.112"/>
<polygon fill="black" stroke="black" points="205.217,-190.526 203.312,-180.104 198.302,-189.44 205.217,-190.526"/>
<g id="a_edge18&#45;headlabel"><a xlink:href="dir_000189_000186.html" target="_top" xlink:title="29">
<text text-anchor="middle" x="207.464" y="-192.018" font-family="Helvetica,sans-Serif" font-size="10.00">29</text>
</a>
</g>
</g>
<!-- dir_0c8c50542de1d83a040084fab225b0f7&#45;&gt;dir_677b030cc750909e4cd27413873678d8 -->
<g id="edge17" class="edge"><title>dir_0c8c50542de1d83a040084fab225b0f7&#45;&gt;dir_677b030cc750909e4cd27413873678d8</title>
<path fill="none" stroke="black" d="M222.09,-220.11C225.091,-218.711 228.107,-217.318 231,-216 267.221,-199.501 284.348,-207.628 313,-180 330.591,-163.037 341.917,-137.406 348.505,-118"/>
<polygon fill="black" stroke="black" points="351.918,-118.816 351.607,-108.226 345.246,-116.699 351.918,-118.816"/>
<g id="a_edge17&#45;headlabel"><a xlink:href="dir_000189_000148.html" target="_top" xlink:title="24">
<text text-anchor="middle" x="353.537" y="-120.601" font-family="Helvetica,sans-Serif" font-size="10.00">24</text>
</a>
</g>
</g>
<!-- dir_0c8c50542de1d83a040084fab225b0f7&#45;&gt;dir_2171f7ec022c5423887b07c69b2f5b48 -->
<g id="edge19" class="edge"><title>dir_0c8c50542de1d83a040084fab225b0f7&#45;&gt;dir_2171f7ec022c5423887b07c69b2f5b48</title>
<path fill="none" stroke="black" d="M211.161,-215.748C220.465,-205.581 232.215,-192.331 242,-180 261.463,-155.474 311.278,-83.8529 338.16,-44.9212"/>
<polygon fill="black" stroke="black" points="341.358,-46.4482 344.155,-36.2293 335.596,-42.4735 341.358,-46.4482"/>
<g id="a_edge19&#45;headlabel"><a xlink:href="dir_000189_000043.html" target="_top" xlink:title="7">
<text text-anchor="middle" x="341.654" y="-48.5193" font-family="Helvetica,sans-Serif" font-size="10.00">7</text>
</a>
</g>
</g>
<!-- dir_064d7f478c030df51e47c94b08ab25b1 -->
<g id="node6" class="node"><title>dir_064d7f478c030df51e47c94b08ab25b1</title>
<g id="a_node6"><a xlink:href="dir_064d7f478c030df51e47c94b08ab25b1.html" target="_top" xlink:title="test">
<polygon fill="white" stroke="black" points="78,-252 24,-252 24,-216 78,-216 78,-252"/>
<text text-anchor="middle" x="51" y="-231.5" font-family="Helvetica,sans-Serif" font-size="10.00">test</text>
</a>
</g>
</g>
<!-- dir_064d7f478c030df51e47c94b08ab25b1&#45;&gt;dir_396d171119822f66a36fe1ebf998d1a3 -->
<g id="edge16" class="edge"><title>dir_064d7f478c030df51e47c94b08ab25b1&#45;&gt;dir_396d171119822f66a36fe1ebf998d1a3</title>
<path fill="none" stroke="black" d="M78.0968,-220.126C81.0964,-218.724 84.1101,-217.326 87,-216 114.643,-203.319 146.08,-189.337 169.698,-178.919"/>
<polygon fill="black" stroke="black" points="171.243,-182.062 178.984,-174.828 168.422,-175.656 171.243,-182.062"/>
<g id="a_edge16&#45;headlabel"><a xlink:href="dir_000225_000186.html" target="_top" xlink:title="2">
<text text-anchor="middle" x="169.098" y="-183.61" font-family="Helvetica,sans-Serif" font-size="10.00">2</text>
</a>
</g>
</g>
<!-- dir_7f309bec8670bb3fb666e7e061b24659&#45;&gt;dir_396d171119822f66a36fe1ebf998d1a3 -->
<g id="edge4" class="edge"><title>dir_7f309bec8670bb3fb666e7e061b24659&#45;&gt;dir_396d171119822f66a36fe1ebf998d1a3</title>
<path fill="none" stroke="black" d="M505.133,-180.242C496.632,-187.227 486.034,-194.382 475,-198 394.872,-224.271 295.311,-196.217 242.648,-176.954"/>
<polygon fill="black" stroke="black" points="243.66,-173.595 233.067,-173.356 241.198,-180.148 243.66,-173.595"/>
<g id="a_edge4&#45;headlabel"><a xlink:href="dir_000126_000186.html" target="_top" xlink:title="2">
<text text-anchor="middle" x="248.023" y="-169.701" font-family="Helvetica,sans-Serif" font-size="10.00">2</text>
</a>
</g>
</g>
<!-- dir_7f309bec8670bb3fb666e7e061b24659&#45;&gt;dir_677b030cc750909e4cd27413873678d8 -->
<g id="edge3" class="edge"><title>dir_7f309bec8670bb3fb666e7e061b24659&#45;&gt;dir_677b030cc750909e4cd27413873678d8</title>
<path fill="none" stroke="black" d="M506.412,-143.853C499.807,-138.156 491.962,-132.202 484,-128 455.284,-112.845 419.576,-103.186 393.177,-97.5513"/>
<polygon fill="black" stroke="black" points="393.692,-94.0844 383.194,-95.5169 392.294,-100.943 393.692,-94.0844"/>
<g id="a_edge3&#45;headlabel"><a xlink:href="dir_000126_000148.html" target="_top" xlink:title="44">
<text text-anchor="middle" x="397.781" y="-89.52" font-family="Helvetica,sans-Serif" font-size="10.00">44</text>
</a>
</g>
</g>
<!-- dir_7f309bec8670bb3fb666e7e061b24659&#45;&gt;dir_2171f7ec022c5423887b07c69b2f5b48 -->
<g id="edge5" class="edge"><title>dir_7f309bec8670bb3fb666e7e061b24659&#45;&gt;dir_2171f7ec022c5423887b07c69b2f5b48</title>
<path fill="none" stroke="black" d="M503.735,-143.871C473.841,-118.604 417.822,-71.2543 384.014,-42.6788"/>
<polygon fill="black" stroke="black" points="386.233,-39.9716 376.337,-36.1893 381.715,-45.3177 386.233,-39.9716"/>
<g id="a_edge5&#45;headlabel"><a xlink:href="dir_000126_000043.html" target="_top" xlink:title="7">
<text text-anchor="middle" x="390.811" y="-37.6236" font-family="Helvetica,sans-Serif" font-size="10.00">7</text>
</a>
</g>
</g>
<!-- dir_4995562033b321477cfe3c34a14a5189&#45;&gt;dir_396d171119822f66a36fe1ebf998d1a3 -->
<g id="edge7" class="edge"><title>dir_4995562033b321477cfe3c34a14a5189&#45;&gt;dir_396d171119822f66a36fe1ebf998d1a3</title>
<path fill="none" stroke="black" d="M414.37,-162C357.361,-162 300.352,-162 243.343,-162"/>
<polygon fill="black" stroke="black" points="243.074,-158.5 233.074,-162 243.074,-165.5 243.074,-158.5"/>
<g id="a_edge7&#45;headlabel"><a xlink:href="dir_000212_000186.html" target="_top" xlink:title="3">
<text text-anchor="middle" x="246.669" y="-153.161" font-family="Helvetica,sans-Serif" font-size="10.00">3</text>
</a>
</g>
</g>
<!-- dir_4995562033b321477cfe3c34a14a5189&#45;&gt;dir_677b030cc750909e4cd27413873678d8 -->
<g id="edge6" class="edge"><title>dir_4995562033b321477cfe3c34a14a5189&#45;&gt;dir_677b030cc750909e4cd27413873678d8</title>
<path fill="none" stroke="black" d="M423,-143.697C411.791,-134.881 397.998,-124.032 385.846,-114.474"/>
<polygon fill="black" stroke="black" points="387.771,-111.535 377.747,-108.104 383.443,-117.038 387.771,-111.535"/>
<g id="a_edge6&#45;headlabel"><a xlink:href="dir_000212_000148.html" target="_top" xlink:title="13">
<text text-anchor="middle" x="392.351" y="-109.026" font-family="Helvetica,sans-Serif" font-size="10.00">13</text>
</a>
</g>
</g>
<!-- dir_677b030cc750909e4cd27413873678d8&#45;&gt;dir_2171f7ec022c5423887b07c69b2f5b48 -->
<g id="edge8" class="edge"><title>dir_677b030cc750909e4cd27413873678d8&#45;&gt;dir_2171f7ec022c5423887b07c69b2f5b48</title>
<path fill="none" stroke="black" d="M350.084,-71.6966C349.289,-63.9827 349.062,-54.7125 349.405,-46.1124"/>
<polygon fill="black" stroke="black" points="352.898,-46.3243 350.105,-36.1043 345.915,-45.8356 352.898,-46.3243"/>
<g id="a_edge8&#45;headlabel"><a xlink:href="dir_000148_000043.html" target="_top" xlink:title="1">
<text text-anchor="middle" x="355.48" y="-47.6083" font-family="Helvetica,sans-Serif" font-size="10.00">1</text>
</a>
</g>
</g>
<!-- dir_2171f7ec022c5423887b07c69b2f5b48&#45;&gt;dir_677b030cc750909e4cd27413873678d8 -->
<g id="edge20" class="edge"><title>dir_2171f7ec022c5423887b07c69b2f5b48&#45;&gt;dir_677b030cc750909e4cd27413873678d8</title>
<path fill="none" stroke="black" d="M361.895,-36.1043C362.701,-43.7913 362.937,-53.0537 362.604,-61.6651"/>
<polygon fill="black" stroke="black" points="359.109,-61.4805 361.916,-71.6966 366.092,-61.9597 359.109,-61.4805"/>
<g id="a_edge20&#45;headlabel"><a xlink:href="dir_000043_000148.html" target="_top" xlink:title="2">
<text text-anchor="middle" x="356.522" y="-55.2" font-family="Helvetica,sans-Serif" font-size="10.00">2</text>
</a>
</g>
</g>
</g>
</svg>
        <g id="navigator" transform="translate(0 0)" fill="#404254">
                <rect fill="#f2f5e9" fill-opacity="0.5" stroke="#606060" stroke-width=".5" x="0" y="0" width="60" height="60"/>
                <use id="zoomplus" xlink:href="#zoomPlus" x="17" y="9" onmousedown="handleZoom(evt,'in')"/>
                <use id="zoomminus" xlink:href="#zoomMin" x="42" y="9" onmousedown="handleZoom(evt,'out')"/>
                <use id="reset" xlink:href="#resetDef" x="30" y="36" onmousedown="handleReset()"/>
                <g id="arrowUp" xlink:href="#dirArrow" transform="translate(30 24)" onmousedown="handlePan(0,-1)">
                  <use xlink:href="#rim" fill="#404040">
                        <set attributeName="fill" to="#808080" begin="arrowUp.mouseover" end="arrowUp.mouseout"/>
                  </use>
                  <path fill="none" stroke="white" stroke-width="1.5" d="M0,-3.0v7 M-2.5,-0.5L0,-3.0L2.5,-0.5"/>
                </g>
                <g id="arrowRight" xlink:href="#dirArrow" transform="rotate(90) translate(36 -43)" onmousedown="handlePan(1,0)">
                  <use xlink:href="#rim" fill="#404040">
                        <set attributeName="fill" to="#808080" begin="arrowRight.mouseover" end="arrowRight.mouseout"/>
                  </use>
                  <path fill="none" stroke="white" stroke-width="1.5" d="M0,-3.0v7 M-2.5,-0.5L0,-3.0L2.5,-0.5"/>
                </g>
                <g id="arrowDown" xlink:href="#dirArrow" transform="rotate(180) translate(-30 -48)" onmousedown="handlePan(0,1)">
                  <use xlink:href="#rim" fill="#404040">
                        <set attributeName="fill" to="#808080" begin="arrowDown.mouseover" end="arrowDown.mouseout"/>
                  </use>
                  <path fill="none" stroke="white" stroke-width="1.5" d="M0,-3.0v7 M-2.5,-0.5L0,-3.0L2.5,-0.5"/>
                </g>
                <g id="arrowLeft" xlink:href="#dirArrow" transform="rotate(270) translate(-36 17)" onmousedown="handlePan(-1,0)">
                  <use xlink:href="#rim" fill="#404040">
                        <set attributeName="fill" to="#808080" begin="arrowLeft.mouseover" end="arrowLeft.mouseout"/>
                  </use>
                  <path fill="none" stroke="white" stroke-width="1.5" d="M0,-3.0v7 M-2.5,-0.5L0,-3.0L2.5,-0.5"/>
                </g>
        </g>
        <svg viewBox="0 0 15 15" width="100%" height="30px" preserveAspectRatio="xMaxYMin meet">
         <g id="arrow_out" transform="scale(0.3 0.3)">
          <a xlink:href="dir_a5de047958dd458e809773c6ffaa8478_dep_org.svg" target="_base">
           <rect id="button" ry="5" rx="5" y="6" x="6" height="38" width="38"
                fill="#f2f5e9" fill-opacity="0.5" stroke="#606060" stroke-width="1.0"/>
           <path id="arrow"
             d="M 11.500037,31.436501 C 11.940474,20.09759 22.043105,11.32322 32.158766,21.979434 L 37.068811,17.246167 C 37.068811,17.246167 37.088388,32 37.088388,32 L 22.160133,31.978069 C 22.160133,31.978069 26.997745,27.140456 26.997745,27.140456 C 18.528582,18.264221 13.291696,25.230495 11.500037,31.436501 z"
             style="fill:#404040;"/>
          </a>
         </g>
        </svg>
</svg>
