<?xml version="1.0" encoding="UTF-8" standalone="no"?>
<!DOCTYPE svg PUBLIC "-//W3C//DTD SVG 1.1//EN"
 "http://www.w3.org/Graphics/SVG/1.1/DTD/svg11.dtd">
<!-- Generated by graphviz version 2.36.0 (20140111.2315)
 -->
<!-- Title: /home/travis/build/AliceO2Group/AliceO2/Detectors/TPC/reconstruction/src Pages: 1 -->
<svg width="129pt" height="295pt"
 viewBox="0.00 0.00 129.00 295.00" xmlns="http://www.w3.org/2000/svg" xmlns:xlink="http://www.w3.org/1999/xlink">
<g id="graph0" class="graph" transform="scale(1 1) rotate(0) translate(4 291)">
<title>/home/travis/build/AliceO2Group/AliceO2/Detectors/TPC/reconstruction/src</title>
<g id="clust1" class="cluster"><title>clusterdir_a5de047958dd458e809773c6ffaa8478</title>
<g id="a_clust1"><a xlink:href="dir_a5de047958dd458e809773c6ffaa8478.html" target="_top" xlink:title="reconstruction">
<polygon fill="#ddddee" stroke="black" points="35,-208 35,-279 113,-279 113,-208 35,-208"/>
<text text-anchor="middle" x="74" y="-267" font-family="Helvetica,sans-Serif" font-size="10.00">reconstruction</text>
</a>
</g>
</g>
<!-- dir_0c8c50542de1d83a040084fab225b0f7 -->
<g id="node1" class="node"><title>dir_0c8c50542de1d83a040084fab225b0f7</title>
<g id="a_node1"><a xlink:href="dir_0c8c50542de1d83a040084fab225b0f7.html" target="_top" xlink:title="src">
<polygon fill="#eeeeff" stroke="black" points="101,-252 47,-252 47,-216 101,-216 101,-252"/>
<text text-anchor="middle" x="74" y="-231.5" font-family="Helvetica,sans-Serif" font-size="10.00">src</text>
</a>
</g>
</g>
<!-- dir_677b030cc750909e4cd27413873678d8 -->
<g id="node2" class="node"><title>dir_677b030cc750909e4cd27413873678d8</title>
<g id="a_node2"><a xlink:href="dir_677b030cc750909e4cd27413873678d8.html" target="_top" xlink:title="base">
<polygon fill="none" stroke="red" points="54,-108 0,-108 0,-72 54,-72 54,-108"/>
<text text-anchor="middle" x="27" y="-87.5" font-family="Helvetica,sans-Serif" font-size="10.00">base</text>
</a>
</g>
</g>
<!-- dir_0c8c50542de1d83a040084fab225b0f7&#45;&gt;dir_677b030cc750909e4cd27413873678d8 -->
<g id="edge4" class="edge"><title>dir_0c8c50542de1d83a040084fab225b0f7&#45;&gt;dir_677b030cc750909e4cd27413873678d8</title>
<path fill="none" stroke="black" d="M59.0301,-215.555C51.4546,-205.748 42.8565,-192.91 38,-180 30.5654,-160.237 27.9209,-136.436 27.0777,-118.421"/>
<polygon fill="black" stroke="black" points="30.5721,-118.185 26.7626,-108.299 23.5755,-118.403 30.5721,-118.185"/>
<g id="a_edge4&#45;headlabel"><a xlink:href="dir_000189_000148.html" target="_top" xlink:title="24">
<text text-anchor="middle" x="33.5217" y="-119.19" font-family="Helvetica,sans-Serif" font-size="10.00">24</text>
</a>
</g>
</g>
<!-- dir_396d171119822f66a36fe1ebf998d1a3 -->
<g id="node3" class="node"><title>dir_396d171119822f66a36fe1ebf998d1a3</title>
<g id="a_node3"><a xlink:href="dir_396d171119822f66a36fe1ebf998d1a3.html" target="_top" xlink:title="include">
<polygon fill="none" stroke="red" points="101,-180 47,-180 47,-144 101,-144 101,-180"/>
<text text-anchor="middle" x="74" y="-159.5" font-family="Helvetica,sans-Serif" font-size="10.00">include</text>
</a>
</g>
</g>
<!-- dir_0c8c50542de1d83a040084fab225b0f7&#45;&gt;dir_396d171119822f66a36fe1ebf998d1a3 -->
<g id="edge5" class="edge"><title>dir_0c8c50542de1d83a040084fab225b0f7&#45;&gt;dir_396d171119822f66a36fe1ebf998d1a3</title>
<path fill="none" stroke="black" d="M74,-215.697C74,-207.983 74,-198.712 74,-190.112"/>
<polygon fill="black" stroke="black" points="77.5001,-190.104 74,-180.104 70.5001,-190.104 77.5001,-190.104"/>
<g id="a_edge5&#45;headlabel"><a xlink:href="dir_000189_000186.html" target="_top" xlink:title="29">
<text text-anchor="middle" x="80.3393" y="-191.199" font-family="Helvetica,sans-Serif" font-size="10.00">29</text>
</a>
</g>
</g>
<!-- dir_2171f7ec022c5423887b07c69b2f5b48 -->
<g id="node4" class="node"><title>dir_2171f7ec022c5423887b07c69b2f5b48</title>
<g id="a_node4"><a xlink:href="dir_2171f7ec022c5423887b07c69b2f5b48.html" target="_top" xlink:title="DataFormats">
<polygon fill="none" stroke="red" points="91,-36 17,-36 17,-0 91,-0 91,-36"/>
<text text-anchor="middle" x="54" y="-15.5" font-family="Helvetica,sans-Serif" font-size="10.00">DataFormats</text>
</a>
</g>
</g>
<!-- dir_0c8c50542de1d83a040084fab225b0f7&#45;&gt;dir_2171f7ec022c5423887b07c69b2f5b48 -->
<g id="edge6" class="edge"><title>dir_0c8c50542de1d83a040084fab225b0f7&#45;&gt;dir_2171f7ec022c5423887b07c69b2f5b48</title>
<path fill="none" stroke="black" d="M89.6099,-215.774C97.3729,-206.03 105.946,-193.184 110,-180 114.703,-164.707 113.138,-159.689 110,-144 102.763,-107.816 83.7239,-69.5705 69.8494,-45.0572"/>
<polygon fill="black" stroke="black" points="72.8586,-43.2693 64.8201,-36.3676 66.8001,-46.7757 72.8586,-43.2693"/>
<g id="a_edge6&#45;headlabel"><a xlink:href="dir_000189_000043.html" target="_top" xlink:title="7">
<text text-anchor="middle" x="77.1165" y="-42.4581" font-family="Helvetica,sans-Serif" font-size="10.00">7</text>
</a>
</g>
</g>
<!-- dir_677b030cc750909e4cd27413873678d8&#45;&gt;dir_2171f7ec022c5423887b07c69b2f5b48 -->
<g id="edge1" class="edge"><title>dir_677b030cc750909e4cd27413873678d8&#45;&gt;dir_2171f7ec022c5423887b07c69b2f5b48</title>
<path fill="none" stroke="black" d="M27.7584,-71.6966C30.01,-63.7284 33.5093,-54.0995 37.31,-45.2641"/>
<polygon fill="black" stroke="black" points="40.5233,-46.6534 41.5076,-36.1043 34.1597,-43.7371 40.5233,-46.6534"/>
<g id="a_edge1&#45;headlabel"><a xlink:href="dir_000148_000043.html" target="_top" xlink:title="1">
<text text-anchor="middle" x="41.607" y="-48.604" font-family="Helvetica,sans-Serif" font-size="10.00">1</text>
</a>
</g>
</g>
<!-- dir_396d171119822f66a36fe1ebf998d1a3&#45;&gt;dir_677b030cc750909e4cd27413873678d8 -->
<g id="edge2" class="edge"><title>dir_396d171119822f66a36fe1ebf998d1a3&#45;&gt;dir_677b030cc750909e4cd27413873678d8</title>
<path fill="none" stroke="black" d="M62.382,-143.697C56.8612,-135.474 50.153,-125.483 44.0682,-116.421"/>
<polygon fill="black" stroke="black" points="46.9645,-114.456 38.4843,-108.104 41.1529,-118.358 46.9645,-114.456"/>
<g id="a_edge2&#45;headlabel"><a xlink:href="dir_000186_000148.html" target="_top" xlink:title="9">
<text text-anchor="middle" x="51.3254" y="-113.357" font-family="Helvetica,sans-Serif" font-size="10.00">9</text>
</a>
</g>
</g>
<!-- dir_396d171119822f66a36fe1ebf998d1a3&#45;&gt;dir_2171f7ec022c5423887b07c69b2f5b48 -->
<g id="edge3" class="edge"><title>dir_396d171119822f66a36fe1ebf998d1a3&#45;&gt;dir_2171f7ec022c5423887b07c69b2f5b48</title>
<path fill="none" stroke="black" d="M72.1199,-143.907C70.0921,-125.966 66.6591,-96.9549 63,-72 61.7624,-63.5592 60.2611,-54.3892 58.8423,-46.0868"/>
<polygon fill="black" stroke="black" points="62.2768,-45.4072 57.1153,-36.1546 55.3802,-46.6064 62.2768,-45.4072"/>
<g id="a_edge3&#45;headlabel"><a xlink:href="dir_000186_000043.html" target="_top" xlink:title="14">
<text text-anchor="middle" x="65.6898" y="-45.9623" font-family="Helvetica,sans-Serif" font-size="10.00">14</text>
</a>
</g>
</g>
<!-- dir_2171f7ec022c5423887b07c69b2f5b48&#45;&gt;dir_677b030cc750909e4cd27413873678d8 -->
<g id="edge7" class="edge"><title>dir_2171f7ec022c5423887b07c69b2f5b48&#45;&gt;dir_677b030cc750909e4cd27413873678d8</title>
<path fill="none" stroke="black" d="M53.2976,-36.1043C51.067,-44.0447 47.5806,-53.6661 43.785,-62.5146"/>
<polygon fill="black" stroke="black" points="40.5621,-61.1465 39.5899,-71.6966 46.9291,-64.0555 40.5621,-61.1465"/>
<g id="a_edge7&#45;headlabel"><a xlink:href="dir_000043_000148.html" target="_top" xlink:title="2">
<text text-anchor="middle" x="39.4734" y="-54.1971" font-family="Helvetica,sans-Serif" font-size="10.00">2</text>
</a>
</g>
</g>
</g>
</svg>
