<?xml version="1.0" encoding="UTF-8" standalone="no"?>
<!DOCTYPE svg PUBLIC "-//W3C//DTD SVG 1.1//EN"
 "http://www.w3.org/Graphics/SVG/1.1/DTD/svg11.dtd">
<!-- Generated by graphviz version 2.36.0 (20140111.2315)
 -->
<!-- Title: /home/travis/build/AliceO2Group/AliceO2/Detectors/ITSMFT Pages: 1 -->
<svg width="418pt" height="519pt"
 viewBox="0.00 0.00 418.00 519.00" xmlns="http://www.w3.org/2000/svg" xmlns:xlink="http://www.w3.org/1999/xlink">
<g id="graph0" class="graph" transform="scale(1 1) rotate(0) translate(4 515)">
<title>/home/travis/build/AliceO2Group/AliceO2/Detectors/ITSMFT</title>
<g id="clust1" class="cluster"><title>clusterdir_051dca18e802f8e9474f2e30d29c04e0</title>
<g id="a_clust1"><a xlink:href="dir_051dca18e802f8e9474f2e30d29c04e0.html" target="_top" xlink:title="Detectors">
<polygon fill="#ddddee" stroke="black" points="104,-272 104,-503 282,-503 282,-272 104,-272"/>
<text text-anchor="middle" x="193" y="-491" font-family="Helvetica,sans-Serif" font-size="10.00">Detectors</text>
</a>
</g>
</g>
<g id="clust2" class="cluster"><title>clusterdir_1306292b77b40360479b729ac9ee7efe</title>
<g id="a_clust2"><a xlink:href="dir_1306292b77b40360479b729ac9ee7efe.html" target="_top">
<polygon fill="#eeeeff" stroke="black" points="112,-280 112,-476 274,-476 274,-280 112,-280"/>
</a>
</g>
</g>
<!-- dir_1306292b77b40360479b729ac9ee7efe -->
<g id="node1" class="node"><title>dir_1306292b77b40360479b729ac9ee7efe</title>
<text text-anchor="middle" x="239" y="-447.5" font-family="Helvetica,sans-Serif" font-size="10.00">ITSMFT</text>
</g>
<!-- dir_85bf31a2e8d306e7598ffcb73f8df6bf -->
<g id="node2" class="node"><title>dir_85bf31a2e8d306e7598ffcb73f8df6bf</title>
<g id="a_node2"><a xlink:href="dir_85bf31a2e8d306e7598ffcb73f8df6bf.html" target="_top" xlink:title="common">
<polygon fill="white" stroke="red" points="196,-324 142,-324 142,-288 196,-288 196,-324"/>
<text text-anchor="middle" x="169" y="-303.5" font-family="Helvetica,sans-Serif" font-size="10.00">common</text>
</a>
</g>
</g>
<!-- dir_4ab6b4cc6a7edbff49100e9123df213f -->
<g id="node6" class="node"><title>dir_4ab6b4cc6a7edbff49100e9123df213f</title>
<g id="a_node6"><a xlink:href="dir_4ab6b4cc6a7edbff49100e9123df213f.html" target="_top" xlink:title="Common">
<polygon fill="none" stroke="red" points="253.5,-252 198.5,-252 198.5,-216 253.5,-216 253.5,-252"/>
<text text-anchor="middle" x="226" y="-231.5" font-family="Helvetica,sans-Serif" font-size="10.00">Common</text>
</a>
</g>
</g>
<!-- dir_85bf31a2e8d306e7598ffcb73f8df6bf&#45;&gt;dir_4ab6b4cc6a7edbff49100e9123df213f -->
<g id="edge17" class="edge"><title>dir_85bf31a2e8d306e7598ffcb73f8df6bf&#45;&gt;dir_4ab6b4cc6a7edbff49100e9123df213f</title>
<path fill="none" stroke="black" d="M183.09,-287.697C189.923,-279.305 198.257,-269.07 205.756,-259.861"/>
<polygon fill="black" stroke="black" points="208.472,-262.069 212.072,-252.104 203.044,-257.649 208.472,-262.069"/>
<g id="a_edge17&#45;headlabel"><a xlink:href="dir_000151_000016.html" target="_top" xlink:title="2">
<text text-anchor="middle" x="208.404" y="-264.149" font-family="Helvetica,sans-Serif" font-size="10.00">2</text>
</a>
</g>
</g>
<!-- dir_2171f7ec022c5423887b07c69b2f5b48 -->
<g id="node10" class="node"><title>dir_2171f7ec022c5423887b07c69b2f5b48</title>
<g id="a_node10"><a xlink:href="dir_2171f7ec022c5423887b07c69b2f5b48.html" target="_top" xlink:title="DataFormats">
<polygon fill="none" stroke="red" points="198,-180 124,-180 124,-144 198,-144 198,-180"/>
<text text-anchor="middle" x="161" y="-159.5" font-family="Helvetica,sans-Serif" font-size="10.00">DataFormats</text>
</a>
</g>
</g>
<!-- dir_85bf31a2e8d306e7598ffcb73f8df6bf&#45;&gt;dir_2171f7ec022c5423887b07c69b2f5b48 -->
<g id="edge18" class="edge"><title>dir_85bf31a2e8d306e7598ffcb73f8df6bf&#45;&gt;dir_2171f7ec022c5423887b07c69b2f5b48</title>
<path fill="none" stroke="black" d="M168.035,-287.871C166.672,-263.67 164.167,-219.211 162.543,-190.393"/>
<polygon fill="black" stroke="black" points="166.025,-189.977 161.968,-180.189 159.037,-190.37 166.025,-189.977"/>
<g id="a_edge18&#45;headlabel"><a xlink:href="dir_000151_000043.html" target="_top" xlink:title="11">
<text text-anchor="middle" x="169.062" y="-190.906" font-family="Helvetica,sans-Serif" font-size="10.00">11</text>
</a>
</g>
</g>
<!-- dir_871aad07cbf94d6cd423c3d8d5bdf4e9 -->
<g id="node3" class="node"><title>dir_871aad07cbf94d6cd423c3d8d5bdf4e9</title>
<g id="a_node3"><a xlink:href="dir_871aad07cbf94d6cd423c3d8d5bdf4e9.html" target="_top" xlink:title="ITS">
<polygon fill="white" stroke="red" points="266,-396 212,-396 212,-360 266,-360 266,-396"/>
<text text-anchor="middle" x="239" y="-375.5" font-family="Helvetica,sans-Serif" font-size="10.00">ITS</text>
</a>
</g>
</g>
<!-- dir_871aad07cbf94d6cd423c3d8d5bdf4e9&#45;&gt;dir_85bf31a2e8d306e7598ffcb73f8df6bf -->
<g id="edge4" class="edge"><title>dir_871aad07cbf94d6cd423c3d8d5bdf4e9&#45;&gt;dir_85bf31a2e8d306e7598ffcb73f8df6bf</title>
<path fill="none" stroke="black" d="M221.697,-359.697C213.135,-351.135 202.656,-340.656 193.304,-331.304"/>
<polygon fill="black" stroke="black" points="195.65,-328.701 186.104,-324.104 190.701,-333.65 195.65,-328.701"/>
<g id="a_edge4&#45;headlabel"><a xlink:href="dir_000110_000151.html" target="_top" xlink:title="37">
<text text-anchor="middle" x="200.2" y="-326.735" font-family="Helvetica,sans-Serif" font-size="10.00">37</text>
</a>
</g>
</g>
<!-- dir_871aad07cbf94d6cd423c3d8d5bdf4e9&#45;&gt;dir_4ab6b4cc6a7edbff49100e9123df213f -->
<g id="edge1" class="edge"><title>dir_871aad07cbf94d6cd423c3d8d5bdf4e9&#45;&gt;dir_4ab6b4cc6a7edbff49100e9123df213f</title>
<path fill="none" stroke="black" d="M240.425,-359.768C241.791,-338.854 242.986,-302.587 238,-272 237.457,-268.667 236.668,-265.225 235.75,-261.843"/>
<polygon fill="black" stroke="black" points="239.021,-260.571 232.727,-252.049 232.332,-262.636 239.021,-260.571"/>
<g id="a_edge1&#45;headlabel"><a xlink:href="dir_000110_000016.html" target="_top" xlink:title="25">
<text text-anchor="middle" x="242.794" y="-260.669" font-family="Helvetica,sans-Serif" font-size="10.00">25</text>
</a>
</g>
</g>
<!-- dir_a597e8e061b11201a1dff411feb10d0b -->
<g id="node7" class="node"><title>dir_a597e8e061b11201a1dff411feb10d0b</title>
<g id="a_node7"><a xlink:href="dir_a597e8e061b11201a1dff411feb10d0b.html" target="_top" xlink:title="TPC">
<polygon fill="none" stroke="red" points="239,-108 185,-108 185,-72 239,-72 239,-108"/>
<text text-anchor="middle" x="212" y="-87.5" font-family="Helvetica,sans-Serif" font-size="10.00">TPC</text>
</a>
</g>
</g>
<!-- dir_871aad07cbf94d6cd423c3d8d5bdf4e9&#45;&gt;dir_a597e8e061b11201a1dff411feb10d0b -->
<g id="edge2" class="edge"><title>dir_871aad07cbf94d6cd423c3d8d5bdf4e9&#45;&gt;dir_a597e8e061b11201a1dff411feb10d0b</title>
<path fill="none" stroke="black" d="M211.928,-364.072C208.923,-362.68 205.902,-361.299 203,-360 165.554,-343.237 141.013,-357.964 118,-324 73.1199,-257.761 74.182,-212.816 115,-144 127.989,-122.101 153.57,-108.665 175.201,-100.802"/>
<polygon fill="black" stroke="black" points="176.441,-104.078 184.803,-97.5712 174.208,-97.4434 176.441,-104.078"/>
<g id="a_edge2&#45;headlabel"><a xlink:href="dir_000110_000125.html" target="_top" xlink:title="1">
<text text-anchor="middle" x="173.94" y="-105.415" font-family="Helvetica,sans-Serif" font-size="10.00">1</text>
</a>
</g>
</g>
<!-- dir_37c90836491b695b472bf98d1be8336b -->
<g id="node8" class="node"><title>dir_37c90836491b695b472bf98d1be8336b</title>
<g id="a_node8"><a xlink:href="dir_37c90836491b695b472bf98d1be8336b.html" target="_top" xlink:title="Base">
<polygon fill="none" stroke="red" points="239,-36 185,-36 185,-0 239,-0 239,-36"/>
<text text-anchor="middle" x="212" y="-15.5" font-family="Helvetica,sans-Serif" font-size="10.00">Base</text>
</a>
</g>
</g>
<!-- dir_871aad07cbf94d6cd423c3d8d5bdf4e9&#45;&gt;dir_37c90836491b695b472bf98d1be8336b -->
<g id="edge3" class="edge"><title>dir_871aad07cbf94d6cd423c3d8d5bdf4e9&#45;&gt;dir_37c90836491b695b472bf98d1be8336b</title>
<path fill="none" stroke="black" d="M266.095,-368.573C314.313,-351.697 410,-308.898 410,-235 410,-235 410,-235 410,-161 410,-82.586 306.184,-43.2775 248.899,-27.5561"/>
<polygon fill="black" stroke="black" points="249.678,-24.142 239.116,-24.976 247.893,-30.9105 249.678,-24.142"/>
<g id="a_edge3&#45;headlabel"><a xlink:href="dir_000110_000099.html" target="_top" xlink:title="4">
<text text-anchor="middle" x="253.878" y="-19.8132" font-family="Helvetica,sans-Serif" font-size="10.00">4</text>
</a>
</g>
</g>
<!-- dir_871aad07cbf94d6cd423c3d8d5bdf4e9&#45;&gt;dir_2171f7ec022c5423887b07c69b2f5b48 -->
<g id="edge5" class="edge"><title>dir_871aad07cbf94d6cd423c3d8d5bdf4e9&#45;&gt;dir_2171f7ec022c5423887b07c69b2f5b48</title>
<path fill="none" stroke="black" d="M211.812,-363.837C180.789,-348.755 134.153,-325.865 133,-324 107.207,-282.266 129.037,-223.449 145.921,-189.672"/>
<polygon fill="black" stroke="black" points="149.213,-190.929 150.725,-180.442 143.003,-187.697 149.213,-190.929"/>
<g id="a_edge5&#45;headlabel"><a xlink:href="dir_000110_000043.html" target="_top" xlink:title="27">
<text text-anchor="middle" x="150.071" y="-192.928" font-family="Helvetica,sans-Serif" font-size="10.00">27</text>
</a>
</g>
</g>
<!-- dir_f39d1cd569ca2d16022b762a0e4a53c8 -->
<g id="node4" class="node"><title>dir_f39d1cd569ca2d16022b762a0e4a53c8</title>
<g id="a_node4"><a xlink:href="dir_f39d1cd569ca2d16022b762a0e4a53c8.html" target="_top" xlink:title="MFT">
<polygon fill="white" stroke="red" points="194,-396 140,-396 140,-360 194,-360 194,-396"/>
<text text-anchor="middle" x="167" y="-375.5" font-family="Helvetica,sans-Serif" font-size="10.00">MFT</text>
</a>
</g>
</g>
<!-- dir_f39d1cd569ca2d16022b762a0e4a53c8&#45;&gt;dir_85bf31a2e8d306e7598ffcb73f8df6bf -->
<g id="edge8" class="edge"><title>dir_f39d1cd569ca2d16022b762a0e4a53c8&#45;&gt;dir_85bf31a2e8d306e7598ffcb73f8df6bf</title>
<path fill="none" stroke="black" d="M167.494,-359.697C167.715,-351.983 167.98,-342.712 168.225,-334.112"/>
<polygon fill="black" stroke="black" points="171.724,-334.2 168.511,-324.104 164.727,-334 171.724,-334.2"/>
<g id="a_edge8&#45;headlabel"><a xlink:href="dir_000078_000151.html" target="_top" xlink:title="19">
<text text-anchor="middle" x="174.46" y="-335.374" font-family="Helvetica,sans-Serif" font-size="10.00">19</text>
</a>
</g>
</g>
<!-- dir_f39d1cd569ca2d16022b762a0e4a53c8&#45;&gt;dir_4ab6b4cc6a7edbff49100e9123df213f -->
<g id="edge6" class="edge"><title>dir_f39d1cd569ca2d16022b762a0e4a53c8&#45;&gt;dir_4ab6b4cc6a7edbff49100e9123df213f</title>
<path fill="none" stroke="black" d="M181.876,-359.925C189.796,-350.028 199.094,-336.986 205,-324 214.011,-304.188 219.393,-280.072 222.449,-261.943"/>
<polygon fill="black" stroke="black" points="225.911,-262.458 223.989,-252.039 218.994,-261.382 225.911,-262.458"/>
<g id="a_edge6&#45;headlabel"><a xlink:href="dir_000078_000016.html" target="_top" xlink:title="8">
<text text-anchor="middle" x="228.164" y="-263.946" font-family="Helvetica,sans-Serif" font-size="10.00">8</text>
</a>
</g>
</g>
<!-- dir_f39d1cd569ca2d16022b762a0e4a53c8&#45;&gt;dir_37c90836491b695b472bf98d1be8336b -->
<g id="edge7" class="edge"><title>dir_f39d1cd569ca2d16022b762a0e4a53c8&#45;&gt;dir_37c90836491b695b472bf98d1be8336b</title>
<path fill="none" stroke="black" d="M139.797,-368.107C92.4755,-350.731 0,-307.499 0,-235 0,-235 0,-235 0,-161 0,-77.8752 113.901,-40.3169 174.727,-26.1862"/>
<polygon fill="black" stroke="black" points="175.717,-29.5518 184.719,-23.9647 174.197,-22.7186 175.717,-29.5518"/>
<g id="a_edge7&#45;headlabel"><a xlink:href="dir_000078_000099.html" target="_top" xlink:title="3">
<text text-anchor="middle" x="172.824" y="-30.6035" font-family="Helvetica,sans-Serif" font-size="10.00">3</text>
</a>
</g>
</g>
<!-- dir_f01815b857f9009bea48e2cb39492245 -->
<g id="node9" class="node"><title>dir_f01815b857f9009bea48e2cb39492245</title>
<g id="a_node9"><a xlink:href="dir_f01815b857f9009bea48e2cb39492245.html" target="_top" xlink:title="Passive">
<polygon fill="none" stroke="red" points="344,-324 290,-324 290,-288 344,-288 344,-324"/>
<text text-anchor="middle" x="317" y="-303.5" font-family="Helvetica,sans-Serif" font-size="10.00">Passive</text>
</a>
</g>
</g>
<!-- dir_f39d1cd569ca2d16022b762a0e4a53c8&#45;&gt;dir_f01815b857f9009bea48e2cb39492245 -->
<g id="edge9" class="edge"><title>dir_f39d1cd569ca2d16022b762a0e4a53c8&#45;&gt;dir_f01815b857f9009bea48e2cb39492245</title>
<path fill="none" stroke="black" d="M194.119,-364.173C197.114,-362.762 200.121,-361.349 203,-360 228.94,-347.845 258.247,-334.223 280.65,-323.832"/>
<polygon fill="black" stroke="black" points="282.199,-326.972 289.799,-319.591 279.254,-320.621 282.199,-326.972"/>
<g id="a_edge9&#45;headlabel"><a xlink:href="dir_000078_000203.html" target="_top" xlink:title="1">
<text text-anchor="middle" x="280.132" y="-328.56" font-family="Helvetica,sans-Serif" font-size="10.00">1</text>
</a>
</g>
</g>
<!-- dir_f39d1cd569ca2d16022b762a0e4a53c8&#45;&gt;dir_2171f7ec022c5423887b07c69b2f5b48 -->
<g id="edge10" class="edge"><title>dir_f39d1cd569ca2d16022b762a0e4a53c8&#45;&gt;dir_2171f7ec022c5423887b07c69b2f5b48</title>
<path fill="none" stroke="black" d="M139.703,-363.316C125.021,-354.338 108.271,-341.088 100,-324 79.0884,-280.795 80.0893,-259.676 100,-216 105.228,-204.531 114.3,-194.584 123.874,-186.504"/>
<polygon fill="black" stroke="black" points="126.251,-189.088 131.96,-180.163 121.931,-183.58 126.251,-189.088"/>
<g id="a_edge10&#45;headlabel"><a xlink:href="dir_000078_000043.html" target="_top" xlink:title="7">
<text text-anchor="middle" x="125.174" y="-191.04" font-family="Helvetica,sans-Serif" font-size="10.00">7</text>
</a>
</g>
</g>
<!-- dir_8a13aabf51651f1b5f53d57129f566b6 -->
<g id="node5" class="node"><title>dir_8a13aabf51651f1b5f53d57129f566b6</title>
<g id="a_node5"><a xlink:href="dir_8a13aabf51651f1b5f53d57129f566b6.html" target="_top" xlink:title="test">
<polygon fill="white" stroke="red" points="194,-468 140,-468 140,-432 194,-432 194,-468"/>
<text text-anchor="middle" x="167" y="-447.5" font-family="Helvetica,sans-Serif" font-size="10.00">test</text>
</a>
</g>
</g>
<!-- dir_8a13aabf51651f1b5f53d57129f566b6&#45;&gt;dir_85bf31a2e8d306e7598ffcb73f8df6bf -->
<g id="edge21" class="edge"><title>dir_8a13aabf51651f1b5f53d57129f566b6&#45;&gt;dir_85bf31a2e8d306e7598ffcb73f8df6bf</title>
<path fill="none" stroke="black" d="M151.39,-431.774C143.627,-422.03 135.054,-409.184 131,-396 126.297,-380.707 126.104,-375.232 131,-360 134.189,-350.08 139.996,-340.443 146.127,-332.167"/>
<polygon fill="black" stroke="black" points="149.067,-334.092 152.537,-324.081 143.582,-329.743 149.067,-334.092"/>
<g id="a_edge21&#45;headlabel"><a xlink:href="dir_000198_000151.html" target="_top" xlink:title="4">
<text text-anchor="middle" x="149.059" y="-336.173" font-family="Helvetica,sans-Serif" font-size="10.00">4</text>
</a>
</g>
</g>
<!-- dir_8a13aabf51651f1b5f53d57129f566b6&#45;&gt;dir_871aad07cbf94d6cd423c3d8d5bdf4e9 -->
<g id="edge19" class="edge"><title>dir_8a13aabf51651f1b5f53d57129f566b6&#45;&gt;dir_871aad07cbf94d6cd423c3d8d5bdf4e9</title>
<path fill="none" stroke="black" d="M184.798,-431.697C193.604,-423.135 204.382,-412.656 214.001,-403.304"/>
<polygon fill="black" stroke="black" points="216.677,-405.585 221.407,-396.104 211.797,-400.566 216.677,-405.585"/>
<g id="a_edge19&#45;headlabel"><a xlink:href="dir_000198_000110.html" target="_top" xlink:title="1">
<text text-anchor="middle" x="216.079" y="-407.626" font-family="Helvetica,sans-Serif" font-size="10.00">1</text>
</a>
</g>
</g>
<!-- dir_8a13aabf51651f1b5f53d57129f566b6&#45;&gt;dir_4ab6b4cc6a7edbff49100e9123df213f -->
<g id="edge20" class="edge"><title>dir_8a13aabf51651f1b5f53d57129f566b6&#45;&gt;dir_4ab6b4cc6a7edbff49100e9123df213f</title>
<path fill="none" stroke="black" d="M194.211,-436.15C223.777,-422.108 267.786,-400.944 275,-396 313.916,-369.329 334.078,-367.217 353,-324 362.269,-302.829 366.869,-290.487 353,-272 332.624,-244.841 293.426,-236.711 263.941,-234.689"/>
<polygon fill="black" stroke="black" points="263.725,-231.175 253.57,-234.197 263.393,-238.167 263.725,-231.175"/>
<g id="a_edge20&#45;headlabel"><a xlink:href="dir_000198_000016.html" target="_top" xlink:title="2">
<text text-anchor="middle" x="267.45" y="-226.009" font-family="Helvetica,sans-Serif" font-size="10.00">2</text>
</a>
</g>
</g>
<!-- dir_4ab6b4cc6a7edbff49100e9123df213f&#45;&gt;dir_2171f7ec022c5423887b07c69b2f5b48 -->
<g id="edge11" class="edge"><title>dir_4ab6b4cc6a7edbff49100e9123df213f&#45;&gt;dir_2171f7ec022c5423887b07c69b2f5b48</title>
<path fill="none" stroke="black" d="M204.017,-215.697C195.359,-207.305 185.664,-197.07 177.594,-187.861"/>
<polygon fill="black" stroke="black" points="180.136,-185.448 170.988,-180.104 174.807,-189.987 180.136,-185.448"/>
<g id="a_edge11&#45;headlabel"><a xlink:href="dir_000016_000043.html" target="_top" xlink:title="1">
<text text-anchor="middle" x="184.628" y="-183.844" font-family="Helvetica,sans-Serif" font-size="10.00">1</text>
</a>
</g>
</g>
<!-- dir_a597e8e061b11201a1dff411feb10d0b&#45;&gt;dir_4ab6b4cc6a7edbff49100e9123df213f -->
<g id="edge12" class="edge"><title>dir_a597e8e061b11201a1dff411feb10d0b&#45;&gt;dir_4ab6b4cc6a7edbff49100e9123df213f</title>
<path fill="none" stroke="black" d="M213.695,-108.189C216.084,-132.424 220.468,-176.888 223.306,-205.679"/>
<polygon fill="black" stroke="black" points="219.847,-206.263 224.311,-215.871 226.813,-205.576 219.847,-206.263"/>
<g id="a_edge12&#45;headlabel"><a xlink:href="dir_000125_000016.html" target="_top" xlink:title="6">
<text text-anchor="middle" x="216.669" y="-200.464" font-family="Helvetica,sans-Serif" font-size="10.00">6</text>
</a>
</g>
</g>
<!-- dir_a597e8e061b11201a1dff411feb10d0b&#45;&gt;dir_37c90836491b695b472bf98d1be8336b -->
<g id="edge13" class="edge"><title>dir_a597e8e061b11201a1dff411feb10d0b&#45;&gt;dir_37c90836491b695b472bf98d1be8336b</title>
<path fill="none" stroke="black" d="M212,-71.6966C212,-63.9827 212,-54.7125 212,-46.1124"/>
<polygon fill="black" stroke="black" points="215.5,-46.1043 212,-36.1043 208.5,-46.1044 215.5,-46.1043"/>
<g id="a_edge13&#45;headlabel"><a xlink:href="dir_000125_000099.html" target="_top" xlink:title="1">
<text text-anchor="middle" x="218.339" y="-47.199" font-family="Helvetica,sans-Serif" font-size="10.00">1</text>
</a>
</g>
</g>
<!-- dir_a597e8e061b11201a1dff411feb10d0b&#45;&gt;dir_2171f7ec022c5423887b07c69b2f5b48 -->
<g id="edge14" class="edge"><title>dir_a597e8e061b11201a1dff411feb10d0b&#45;&gt;dir_2171f7ec022c5423887b07c69b2f5b48</title>
<path fill="none" stroke="black" d="M205.433,-108.104C200.269,-116.383 193.114,-126.488 185.994,-135.64"/>
<polygon fill="black" stroke="black" points="183.056,-133.708 179.522,-143.697 188.513,-138.092 183.056,-133.708"/>
<g id="a_edge14&#45;headlabel"><a xlink:href="dir_000125_000043.html" target="_top" xlink:title="50">
<text text-anchor="middle" x="183.093" y="-126.628" font-family="Helvetica,sans-Serif" font-size="10.00">50</text>
</a>
</g>
</g>
<!-- dir_37c90836491b695b472bf98d1be8336b&#45;&gt;dir_4ab6b4cc6a7edbff49100e9123df213f -->
<g id="edge15" class="edge"><title>dir_37c90836491b695b472bf98d1be8336b&#45;&gt;dir_4ab6b4cc6a7edbff49100e9123df213f</title>
<path fill="none" stroke="black" d="M227.61,-36.2264C235.373,-45.9695 243.946,-58.8163 248,-72 262.067,-117.744 247.83,-173.56 236.624,-206.013"/>
<polygon fill="black" stroke="black" points="233.235,-205.092 233.132,-215.686 239.819,-207.469 233.235,-205.092"/>
<g id="a_edge15&#45;headlabel"><a xlink:href="dir_000099_000016.html" target="_top" xlink:title="5">
<text text-anchor="middle" x="231.785" y="-198.247" font-family="Helvetica,sans-Serif" font-size="10.00">5</text>
</a>
</g>
</g>
<!-- dir_37c90836491b695b472bf98d1be8336b&#45;&gt;dir_2171f7ec022c5423887b07c69b2f5b48 -->
<g id="edge16" class="edge"><title>dir_37c90836491b695b472bf98d1be8336b&#45;&gt;dir_2171f7ec022c5423887b07c69b2f5b48</title>
<path fill="none" stroke="black" d="M205.545,-36.0592C199.025,-45.9515 190.222,-58.9939 185,-72 177.045,-91.8132 173.308,-115.748 170.197,-133.805"/>
<polygon fill="black" stroke="black" points="166.746,-133.218 168.409,-143.681 173.634,-134.464 166.746,-133.218"/>
<g id="a_edge16&#45;headlabel"><a xlink:href="dir_000099_000043.html" target="_top" xlink:title="5">
<text text-anchor="middle" x="164.592" y="-126.675" font-family="Helvetica,sans-Serif" font-size="10.00">5</text>
</a>
</g>
</g>
<!-- dir_f01815b857f9009bea48e2cb39492245&#45;&gt;dir_4ab6b4cc6a7edbff49100e9123df213f -->
<g id="edge22" class="edge"><title>dir_f01815b857f9009bea48e2cb39492245&#45;&gt;dir_4ab6b4cc6a7edbff49100e9123df213f</title>
<path fill="none" stroke="black" d="M297.425,-287.885C291.294,-282.675 284.445,-277.005 278,-272 272.044,-267.374 265.579,-262.593 259.298,-258.065"/>
<polygon fill="black" stroke="black" points="261.085,-255.041 250.91,-252.088 257.022,-260.742 261.085,-255.041"/>
<g id="a_edge22&#45;headlabel"><a xlink:href="dir_000203_000016.html" target="_top" xlink:title="1">
<text text-anchor="middle" x="265.66" y="-252.315" font-family="Helvetica,sans-Serif" font-size="10.00">1</text>
</a>
</g>
</g>
<!-- dir_f01815b857f9009bea48e2cb39492245&#45;&gt;dir_37c90836491b695b472bf98d1be8336b -->
<g id="edge23" class="edge"><title>dir_f01815b857f9009bea48e2cb39492245&#45;&gt;dir_37c90836491b695b472bf98d1be8336b</title>
<path fill="none" stroke="black" d="M316.402,-287.768C314.342,-247.517 305.221,-145.191 265,-72 259.135,-61.3273 250.475,-51.3748 241.848,-43.0423"/>
<polygon fill="black" stroke="black" points="244.08,-40.3407 234.345,-36.1595 239.348,-45.4989 244.08,-40.3407"/>
<g id="a_edge23&#45;headlabel"><a xlink:href="dir_000203_000099.html" target="_top" xlink:title="16">
<text text-anchor="middle" x="248.648" y="-38.1786" font-family="Helvetica,sans-Serif" font-size="10.00">16</text>
</a>
</g>
</g>
<!-- dir_2171f7ec022c5423887b07c69b2f5b48&#45;&gt;dir_4ab6b4cc6a7edbff49100e9123df213f -->
<g id="edge24" class="edge"><title>dir_2171f7ec022c5423887b07c69b2f5b48&#45;&gt;dir_4ab6b4cc6a7edbff49100e9123df213f</title>
<path fill="none" stroke="black" d="M182.778,-180.104C191.419,-188.467 201.119,-198.694 209.214,-207.92"/>
<polygon fill="black" stroke="black" points="206.696,-210.36 215.848,-215.697 212.021,-205.817 206.696,-210.36"/>
<g id="a_edge24&#45;headlabel"><a xlink:href="dir_000043_000016.html" target="_top" xlink:title="11">
<text text-anchor="middle" x="202.203" y="-206.968" font-family="Helvetica,sans-Serif" font-size="10.00">11</text>
</a>
</g>
</g>
<!-- dir_2171f7ec022c5423887b07c69b2f5b48&#45;&gt;dir_a597e8e061b11201a1dff411feb10d0b -->
<g id="edge25" class="edge"><title>dir_2171f7ec022c5423887b07c69b2f5b48&#45;&gt;dir_a597e8e061b11201a1dff411feb10d0b</title>
<path fill="none" stroke="black" d="M167.691,-143.697C172.887,-135.389 180.057,-125.277 187.177,-116.141"/>
<polygon fill="black" stroke="black" points="190.101,-118.09 193.643,-108.104 184.647,-113.701 190.101,-118.09"/>
<g id="a_edge25&#45;headlabel"><a xlink:href="dir_000043_000125.html" target="_top" xlink:title="2">
<text text-anchor="middle" x="190.06" y="-120.17" font-family="Helvetica,sans-Serif" font-size="10.00">2</text>
</a>
</g>
</g>
<!-- dir_2171f7ec022c5423887b07c69b2f5b48&#45;&gt;dir_37c90836491b695b472bf98d1be8336b -->
<g id="edge26" class="edge"><title>dir_2171f7ec022c5423887b07c69b2f5b48&#45;&gt;dir_37c90836491b695b472bf98d1be8336b</title>
<path fill="none" stroke="black" d="M155.056,-143.681C154.004,-125.302 157.483,-95.7018 167,-72 170.917,-62.2454 176.847,-52.4704 183.224,-44.0193"/>
<polygon fill="black" stroke="black" points="186.102,-46.0275 189.691,-36.0592 180.669,-41.6135 186.102,-46.0275"/>
<g id="a_edge26&#45;headlabel"><a xlink:href="dir_000043_000099.html" target="_top" xlink:title="1">
<text text-anchor="middle" x="186.039" y="-48.1078" font-family="Helvetica,sans-Serif" font-size="10.00">1</text>
</a>
</g>
</g>
</g>
</svg>
