<?xml version="1.0" encoding="UTF-8" standalone="no"?>
<!DOCTYPE svg PUBLIC "-//W3C//DTD SVG 1.1//EN"
 "http://www.w3.org/Graphics/SVG/1.1/DTD/svg11.dtd">
<!-- Generated by graphviz version 2.36.0 (20140111.2315)
 -->
<!-- Title: /home/travis/build/AliceO2Group/AliceO2/DataFormats/simulation Pages: 1 -->
<svg width="321pt" height="303pt"
 viewBox="0.00 0.00 321.00 303.00" xmlns="http://www.w3.org/2000/svg" xmlns:xlink="http://www.w3.org/1999/xlink">
<g id="graph0" class="graph" transform="scale(1 1) rotate(0) translate(4 299)">
<title>/home/travis/build/AliceO2Group/AliceO2/DataFormats/simulation</title>
<g id="clust1" class="cluster"><title>clusterdir_2171f7ec022c5423887b07c69b2f5b48</title>
<g id="a_clust1"><a xlink:href="dir_2171f7ec022c5423887b07c69b2f5b48.html" target="_top" xlink:title="DataFormats">
<polygon fill="#ddddee" stroke="black" points="8,-128 8,-287 246,-287 246,-128 8,-128"/>
<text text-anchor="middle" x="127" y="-275" font-family="Helvetica,sans-Serif" font-size="10.00">DataFormats</text>
</a>
</g>
</g>
<g id="clust2" class="cluster"><title>clusterdir_047746f9f311f49446db9474b7431d0d</title>
<g id="a_clust2"><a xlink:href="dir_047746f9f311f49446db9474b7431d0d.html" target="_top">
<polygon fill="#eeeeff" stroke="black" points="16,-136 16,-260 238,-260 238,-136 16,-136"/>
</a>
</g>
</g>
<!-- dir_047746f9f311f49446db9474b7431d0d -->
<g id="node1" class="node"><title>dir_047746f9f311f49446db9474b7431d0d</title>
<text text-anchor="middle" x="199" y="-231.5" font-family="Helvetica,sans-Serif" font-size="10.00">simulation</text>
</g>
<!-- dir_e977c6a9672cee72083a88d55f0ce0c6 -->
<g id="node2" class="node"><title>dir_e977c6a9672cee72083a88d55f0ce0c6</title>
<g id="a_node2"><a xlink:href="dir_e977c6a9672cee72083a88d55f0ce0c6.html" target="_top" xlink:title="include">
<polygon fill="white" stroke="red" points="195,-180 141,-180 141,-144 195,-144 195,-180"/>
<text text-anchor="middle" x="168" y="-159.5" font-family="Helvetica,sans-Serif" font-size="10.00">include</text>
</a>
</g>
</g>
<!-- dir_4ab6b4cc6a7edbff49100e9123df213f -->
<g id="node5" class="node"><title>dir_4ab6b4cc6a7edbff49100e9123df213f</title>
<g id="a_node5"><a xlink:href="dir_4ab6b4cc6a7edbff49100e9123df213f.html" target="_top" xlink:title="Common">
<polygon fill="none" stroke="red" points="253.5,-36 198.5,-36 198.5,-0 253.5,-0 253.5,-36"/>
<text text-anchor="middle" x="226" y="-15.5" font-family="Helvetica,sans-Serif" font-size="10.00">Common</text>
</a>
</g>
</g>
<!-- dir_e977c6a9672cee72083a88d55f0ce0c6&#45;&gt;dir_4ab6b4cc6a7edbff49100e9123df213f -->
<g id="edge10" class="edge"><title>dir_e977c6a9672cee72083a88d55f0ce0c6&#45;&gt;dir_4ab6b4cc6a7edbff49100e9123df213f</title>
<path fill="none" stroke="black" d="M169.775,-143.96C172.154,-125.559 177.373,-95.6986 188,-72 192.378,-62.2373 198.702,-52.4602 204.938,-44.0096"/>
<polygon fill="black" stroke="black" points="207.739,-46.1085 211.07,-36.0509 202.194,-41.836 207.739,-46.1085"/>
<g id="a_edge10&#45;headlabel"><a xlink:href="dir_000090_000016.html" target="_top" xlink:title="1">
<text text-anchor="middle" x="207.795" y="-48.1888" font-family="Helvetica,sans-Serif" font-size="10.00">1</text>
</a>
</g>
</g>
<!-- dir_2801adc79bf3c286b1b479858d2cade4 -->
<g id="node6" class="node"><title>dir_2801adc79bf3c286b1b479858d2cade4</title>
<g id="a_node6"><a xlink:href="dir_2801adc79bf3c286b1b479858d2cade4.html" target="_top" xlink:title="Detectors">
<polygon fill="none" stroke="red" points="313.25,-180 254.75,-180 254.75,-144 313.25,-144 313.25,-180"/>
<text text-anchor="middle" x="284" y="-159.5" font-family="Helvetica,sans-Serif" font-size="10.00">Detectors</text>
</a>
</g>
</g>
<!-- dir_e977c6a9672cee72083a88d55f0ce0c6&#45;&gt;dir_2801adc79bf3c286b1b479858d2cade4 -->
<g id="edge11" class="edge"><title>dir_e977c6a9672cee72083a88d55f0ce0c6&#45;&gt;dir_2801adc79bf3c286b1b479858d2cade4</title>
<path fill="none" stroke="black" d="M195.188,-162C211.563,-162 227.939,-162 244.315,-162"/>
<polygon fill="black" stroke="black" points="244.512,-165.5 254.511,-162 244.511,-158.5 244.512,-165.5"/>
<g id="a_edge11&#45;headlabel"><a xlink:href="dir_000090_000053.html" target="_top" xlink:title="2">
<text text-anchor="middle" x="240.917" y="-165.839" font-family="Helvetica,sans-Serif" font-size="10.00">2</text>
</a>
</g>
</g>
<!-- dir_38abbb9c71f32f91a25826cfc3ede3a8 -->
<g id="node3" class="node"><title>dir_38abbb9c71f32f91a25826cfc3ede3a8</title>
<g id="a_node3"><a xlink:href="dir_38abbb9c71f32f91a25826cfc3ede3a8.html" target="_top" xlink:title="src">
<polygon fill="white" stroke="black" points="78,-252 24,-252 24,-216 78,-216 78,-252"/>
<text text-anchor="middle" x="51" y="-231.5" font-family="Helvetica,sans-Serif" font-size="10.00">src</text>
</a>
</g>
</g>
<!-- dir_38abbb9c71f32f91a25826cfc3ede3a8&#45;&gt;dir_e977c6a9672cee72083a88d55f0ce0c6 -->
<g id="edge3" class="edge"><title>dir_38abbb9c71f32f91a25826cfc3ede3a8&#45;&gt;dir_e977c6a9672cee72083a88d55f0ce0c6</title>
<path fill="none" stroke="black" d="M78.1362,-216.765C94.1172,-207.203 114.532,-194.99 131.863,-184.62"/>
<polygon fill="black" stroke="black" points="133.821,-187.527 140.606,-179.39 130.227,-181.521 133.821,-187.527"/>
<g id="a_edge3&#45;headlabel"><a xlink:href="dir_000092_000090.html" target="_top" xlink:title="5">
<text text-anchor="middle" x="132.194" y="-189.309" font-family="Helvetica,sans-Serif" font-size="10.00">5</text>
</a>
</g>
</g>
<!-- dir_38abbb9c71f32f91a25826cfc3ede3a8&#45;&gt;dir_2801adc79bf3c286b1b479858d2cade4 -->
<g id="edge1" class="edge"><title>dir_38abbb9c71f32f91a25826cfc3ede3a8&#45;&gt;dir_2801adc79bf3c286b1b479858d2cade4</title>
<path fill="none" stroke="black" d="M78.2655,-219.389C81.179,-218.157 84.1276,-216.999 87,-216 153.798,-192.769 174.571,-201.332 242,-180 242.886,-179.72 243.78,-179.429 244.678,-179.13"/>
<polygon fill="black" stroke="black" points="246.147,-182.322 254.383,-175.657 243.788,-175.731 246.147,-182.322"/>
<g id="a_edge1&#45;headlabel"><a xlink:href="dir_000092_000053.html" target="_top" xlink:title="1">
<text text-anchor="middle" x="243.719" y="-183.706" font-family="Helvetica,sans-Serif" font-size="10.00">1</text>
</a>
</g>
</g>
<!-- dir_051dca18e802f8e9474f2e30d29c04e0 -->
<g id="node7" class="node"><title>dir_051dca18e802f8e9474f2e30d29c04e0</title>
<g id="a_node7"><a xlink:href="dir_051dca18e802f8e9474f2e30d29c04e0.html" target="_top" xlink:title="Detectors">
<polygon fill="none" stroke="red" points="255.25,-108 196.75,-108 196.75,-72 255.25,-72 255.25,-108"/>
<text text-anchor="middle" x="226" y="-87.5" font-family="Helvetica,sans-Serif" font-size="10.00">Detectors</text>
</a>
</g>
</g>
<!-- dir_38abbb9c71f32f91a25826cfc3ede3a8&#45;&gt;dir_051dca18e802f8e9474f2e30d29c04e0 -->
<g id="edge2" class="edge"><title>dir_38abbb9c71f32f91a25826cfc3ede3a8&#45;&gt;dir_051dca18e802f8e9474f2e30d29c04e0</title>
<path fill="none" stroke="black" d="M78.3413,-219.596C81.2401,-218.323 84.1644,-217.099 87,-216 137.727,-196.334 166.625,-219.536 204,-180 219.591,-163.507 224.639,-137.775 226.052,-118.213"/>
<polygon fill="black" stroke="black" points="229.555,-118.225 226.507,-108.078 222.562,-117.911 229.555,-118.225"/>
<g id="a_edge2&#45;headlabel"><a xlink:href="dir_000092_000076.html" target="_top" xlink:title="1">
<text text-anchor="middle" x="232.231" y="-119.443" font-family="Helvetica,sans-Serif" font-size="10.00">1</text>
</a>
</g>
</g>
<!-- dir_c8fa59d38404a336ce27bd8f626335e9 -->
<g id="node4" class="node"><title>dir_c8fa59d38404a336ce27bd8f626335e9</title>
<g id="a_node4"><a xlink:href="dir_c8fa59d38404a336ce27bd8f626335e9.html" target="_top" xlink:title="test">
<polygon fill="white" stroke="black" points="150,-252 96,-252 96,-216 150,-216 150,-252"/>
<text text-anchor="middle" x="123" y="-231.5" font-family="Helvetica,sans-Serif" font-size="10.00">test</text>
</a>
</g>
</g>
<!-- dir_c8fa59d38404a336ce27bd8f626335e9&#45;&gt;dir_e977c6a9672cee72083a88d55f0ce0c6 -->
<g id="edge13" class="edge"><title>dir_c8fa59d38404a336ce27bd8f626335e9&#45;&gt;dir_e977c6a9672cee72083a88d55f0ce0c6</title>
<path fill="none" stroke="black" d="M134.124,-215.697C139.355,-207.559 145.7,-197.689 151.478,-188.701"/>
<polygon fill="black" stroke="black" points="154.541,-190.409 157.004,-180.104 148.653,-186.623 154.541,-190.409"/>
<g id="a_edge13&#45;headlabel"><a xlink:href="dir_000093_000090.html" target="_top" xlink:title="8">
<text text-anchor="middle" x="154.985" y="-192.468" font-family="Helvetica,sans-Serif" font-size="10.00">8</text>
</a>
</g>
</g>
<!-- dir_c8fa59d38404a336ce27bd8f626335e9&#45;&gt;dir_2801adc79bf3c286b1b479858d2cade4 -->
<g id="edge12" class="edge"><title>dir_c8fa59d38404a336ce27bd8f626335e9&#45;&gt;dir_2801adc79bf3c286b1b479858d2cade4</title>
<path fill="none" stroke="black" d="M150.073,-220.073C153.077,-218.681 156.098,-217.3 159,-216 187.677,-203.156 220.382,-189.317 245.145,-179.002"/>
<polygon fill="black" stroke="black" points="246.666,-182.16 254.558,-175.092 243.981,-175.696 246.666,-182.16"/>
<g id="a_edge12&#45;headlabel"><a xlink:href="dir_000093_000053.html" target="_top" xlink:title="1">
<text text-anchor="middle" x="244.436" y="-183.661" font-family="Helvetica,sans-Serif" font-size="10.00">1</text>
</a>
</g>
</g>
<!-- dir_2801adc79bf3c286b1b479858d2cade4&#45;&gt;dir_e977c6a9672cee72083a88d55f0ce0c6 -->
<g id="edge6" class="edge"><title>dir_2801adc79bf3c286b1b479858d2cade4&#45;&gt;dir_e977c6a9672cee72083a88d55f0ce0c6</title>
<path fill="none" stroke="black" d="M254.511,-162C238.136,-162 221.76,-162 205.384,-162"/>
<polygon fill="black" stroke="black" points="205.188,-158.5 195.188,-162 205.187,-165.5 205.188,-158.5"/>
<g id="a_edge6&#45;headlabel"><a xlink:href="dir_000053_000090.html" target="_top" xlink:title="2">
<text text-anchor="middle" x="208.782" y="-153.161" font-family="Helvetica,sans-Serif" font-size="10.00">2</text>
</a>
</g>
</g>
<!-- dir_2801adc79bf3c286b1b479858d2cade4&#45;&gt;dir_4ab6b4cc6a7edbff49100e9123df213f -->
<g id="edge4" class="edge"><title>dir_2801adc79bf3c286b1b479858d2cade4&#45;&gt;dir_4ab6b4cc6a7edbff49100e9123df213f</title>
<path fill="none" stroke="black" d="M282.225,-143.96C279.846,-125.559 274.627,-95.6986 264,-72 259.622,-62.2373 253.298,-52.4602 247.062,-44.0096"/>
<polygon fill="black" stroke="black" points="249.806,-41.836 240.93,-36.0509 244.261,-46.1085 249.806,-41.836"/>
<g id="a_edge4&#45;headlabel"><a xlink:href="dir_000053_000016.html" target="_top" xlink:title="3">
<text text-anchor="middle" x="254.249" y="-40.4505" font-family="Helvetica,sans-Serif" font-size="10.00">3</text>
</a>
</g>
</g>
<!-- dir_2801adc79bf3c286b1b479858d2cade4&#45;&gt;dir_051dca18e802f8e9474f2e30d29c04e0 -->
<g id="edge5" class="edge"><title>dir_2801adc79bf3c286b1b479858d2cade4&#45;&gt;dir_051dca18e802f8e9474f2e30d29c04e0</title>
<path fill="none" stroke="black" d="M263.747,-143.697C256.007,-135.389 247.432,-125.277 240.325,-116.141"/>
<polygon fill="black" stroke="black" points="243.087,-113.99 234.277,-108.104 237.494,-118.199 243.087,-113.99"/>
<g id="a_edge5&#45;headlabel"><a xlink:href="dir_000053_000076.html" target="_top" xlink:title="2">
<text text-anchor="middle" x="247.517" y="-112.655" font-family="Helvetica,sans-Serif" font-size="10.00">2</text>
</a>
</g>
</g>
<!-- dir_051dca18e802f8e9474f2e30d29c04e0&#45;&gt;dir_e977c6a9672cee72083a88d55f0ce0c6 -->
<g id="edge9" class="edge"><title>dir_051dca18e802f8e9474f2e30d29c04e0&#45;&gt;dir_e977c6a9672cee72083a88d55f0ce0c6</title>
<path fill="none" stroke="black" d="M211.828,-108.104C204.899,-116.467 196.425,-126.694 188.781,-135.92"/>
<polygon fill="black" stroke="black" points="186.022,-133.763 182.337,-143.697 191.412,-138.229 186.022,-133.763"/>
<g id="a_edge9&#45;headlabel"><a xlink:href="dir_000076_000090.html" target="_top" xlink:title="73">
<text text-anchor="middle" x="186.129" y="-126.684" font-family="Helvetica,sans-Serif" font-size="10.00">73</text>
</a>
</g>
</g>
<!-- dir_051dca18e802f8e9474f2e30d29c04e0&#45;&gt;dir_4ab6b4cc6a7edbff49100e9123df213f -->
<g id="edge7" class="edge"><title>dir_051dca18e802f8e9474f2e30d29c04e0&#45;&gt;dir_4ab6b4cc6a7edbff49100e9123df213f</title>
<path fill="none" stroke="black" d="M226,-71.6966C226,-63.9827 226,-54.7125 226,-46.1124"/>
<polygon fill="black" stroke="black" points="229.5,-46.1043 226,-36.1043 222.5,-46.1044 229.5,-46.1043"/>
<g id="a_edge7&#45;headlabel"><a xlink:href="dir_000076_000016.html" target="_top" xlink:title="56">
<text text-anchor="middle" x="232.339" y="-47.199" font-family="Helvetica,sans-Serif" font-size="10.00">56</text>
</a>
</g>
</g>
<!-- dir_051dca18e802f8e9474f2e30d29c04e0&#45;&gt;dir_2801adc79bf3c286b1b479858d2cade4 -->
<g id="edge8" class="edge"><title>dir_051dca18e802f8e9474f2e30d29c04e0&#45;&gt;dir_2801adc79bf3c286b1b479858d2cade4</title>
<path fill="none" stroke="black" d="M246.067,-108.104C253.794,-116.383 262.374,-126.488 269.504,-135.64"/>
<polygon fill="black" stroke="black" points="266.764,-137.819 275.579,-143.697 272.353,-133.605 266.764,-137.819"/>
<g id="a_edge8&#45;headlabel"><a xlink:href="dir_000076_000053.html" target="_top" xlink:title="23">
<text text-anchor="middle" x="262.333" y="-134.158" font-family="Helvetica,sans-Serif" font-size="10.00">23</text>
</a>
</g>
</g>
</g>
</svg>
