<?xml version="1.0" encoding="UTF-8" standalone="no"?>
<!DOCTYPE svg PUBLIC "-//W3C//DTD SVG 1.1//EN"
 "http://www.w3.org/Graphics/SVG/1.1/DTD/svg11.dtd">
<!-- Generated by graphviz version 2.36.0 (20140111.2315)
 -->
<!-- Title: /home/travis/build/AliceO2Group/AliceO2/Detectors/TPC/simulation/macro Pages: 1 -->
<svg width="209pt" height="367pt"
 viewBox="0.00 0.00 209.24 367.00" xmlns="http://www.w3.org/2000/svg" xmlns:xlink="http://www.w3.org/1999/xlink">
<g id="graph0" class="graph" transform="scale(1 1) rotate(0) translate(4 363)">
<title>/home/travis/build/AliceO2Group/AliceO2/Detectors/TPC/simulation/macro</title>
<g id="clust1" class="cluster"><title>clusterdir_7f309bec8670bb3fb666e7e061b24659</title>
<g id="a_clust1"><a xlink:href="dir_7f309bec8670bb3fb666e7e061b24659.html" target="_top" xlink:title="simulation">
<polygon fill="#ddddee" stroke="black" points="50.2366,-280 50.2366,-351 120.237,-351 120.237,-280 50.2366,-280"/>
<text text-anchor="middle" x="85.2366" y="-339" font-family="Helvetica,sans-Serif" font-size="10.00">simulation</text>
</a>
</g>
</g>
<!-- dir_8bfcd60464e4f3a200807f6c373e63aa -->
<g id="node1" class="node"><title>dir_8bfcd60464e4f3a200807f6c373e63aa</title>
<g id="a_node1"><a xlink:href="dir_8bfcd60464e4f3a200807f6c373e63aa.html" target="_top" xlink:title="macro">
<polygon fill="#eeeeff" stroke="black" points="112.237,-324 58.2366,-324 58.2366,-288 112.237,-288 112.237,-324"/>
<text text-anchor="middle" x="85.2366" y="-303.5" font-family="Helvetica,sans-Serif" font-size="10.00">macro</text>
</a>
</g>
</g>
<!-- dir_677b030cc750909e4cd27413873678d8 -->
<g id="node2" class="node"><title>dir_677b030cc750909e4cd27413873678d8</title>
<g id="a_node2"><a xlink:href="dir_677b030cc750909e4cd27413873678d8.html" target="_top" xlink:title="base">
<polygon fill="none" stroke="red" points="135.237,-108 81.2366,-108 81.2366,-72 135.237,-72 135.237,-108"/>
<text text-anchor="middle" x="108.237" y="-87.5" font-family="Helvetica,sans-Serif" font-size="10.00">base</text>
</a>
</g>
</g>
<!-- dir_8bfcd60464e4f3a200807f6c373e63aa&#45;&gt;dir_677b030cc750909e4cd27413873678d8 -->
<g id="edge7" class="edge"><title>dir_8bfcd60464e4f3a200807f6c373e63aa&#45;&gt;dir_677b030cc750909e4cd27413873678d8</title>
<path fill="none" stroke="black" d="M91.2493,-287.559C94.5035,-277.329 98.2535,-264.079 100.237,-252 107.861,-205.557 108.921,-150.654 108.75,-118.448"/>
<polygon fill="black" stroke="black" points="112.246,-118.019 108.647,-108.055 105.247,-118.089 112.246,-118.019"/>
<g id="a_edge7&#45;headlabel"><a xlink:href="dir_000226_000148.html" target="_top" xlink:title="2">
<text text-anchor="middle" x="115.121" y="-119.086" font-family="Helvetica,sans-Serif" font-size="10.00">2</text>
</a>
</g>
</g>
<!-- dir_a5de047958dd458e809773c6ffaa8478 -->
<g id="node3" class="node"><title>dir_a5de047958dd458e809773c6ffaa8478</title>
<g id="a_node3"><a xlink:href="dir_a5de047958dd458e809773c6ffaa8478.html" target="_top" xlink:title="reconstruction">
<polygon fill="none" stroke="red" points="91.2366,-252 13.2366,-252 13.2366,-216 91.2366,-216 91.2366,-252"/>
<text text-anchor="middle" x="52.2366" y="-231.5" font-family="Helvetica,sans-Serif" font-size="10.00">reconstruction</text>
</a>
</g>
</g>
<!-- dir_8bfcd60464e4f3a200807f6c373e63aa&#45;&gt;dir_a5de047958dd458e809773c6ffaa8478 -->
<g id="edge8" class="edge"><title>dir_8bfcd60464e4f3a200807f6c373e63aa&#45;&gt;dir_a5de047958dd458e809773c6ffaa8478</title>
<path fill="none" stroke="black" d="M77.0793,-287.697C73.3228,-279.728 68.7835,-270.1 64.6182,-261.264"/>
<polygon fill="black" stroke="black" points="67.7301,-259.657 60.3,-252.104 61.3984,-262.642 67.7301,-259.657"/>
<g id="a_edge8&#45;headlabel"><a xlink:href="dir_000226_000185.html" target="_top" xlink:title="2">
<text text-anchor="middle" x="71.8311" y="-259.198" font-family="Helvetica,sans-Serif" font-size="10.00">2</text>
</a>
</g>
</g>
<!-- dir_a3959ed40b1558172144f5e1a56e443f -->
<g id="node4" class="node"><title>dir_a3959ed40b1558172144f5e1a56e443f</title>
<g id="a_node4"><a xlink:href="dir_a3959ed40b1558172144f5e1a56e443f.html" target="_top" xlink:title="include">
<polygon fill="none" stroke="red" points="201.237,-180 147.237,-180 147.237,-144 201.237,-144 201.237,-180"/>
<text text-anchor="middle" x="174.237" y="-159.5" font-family="Helvetica,sans-Serif" font-size="10.00">include</text>
</a>
</g>
</g>
<!-- dir_8bfcd60464e4f3a200807f6c373e63aa&#45;&gt;dir_a3959ed40b1558172144f5e1a56e443f -->
<g id="edge9" class="edge"><title>dir_8bfcd60464e4f3a200807f6c373e63aa&#45;&gt;dir_a3959ed40b1558172144f5e1a56e443f</title>
<path fill="none" stroke="black" d="M103.129,-287.975C112.852,-278.094 124.615,-265.051 133.237,-252 146.212,-232.359 157.14,-207.948 164.442,-189.662"/>
<polygon fill="black" stroke="black" points="167.758,-190.791 168.115,-180.202 161.233,-188.257 167.758,-190.791"/>
<g id="a_edge9&#45;headlabel"><a xlink:href="dir_000226_000127.html" target="_top" xlink:title="2">
<text text-anchor="middle" x="169.103" y="-192.67" font-family="Helvetica,sans-Serif" font-size="10.00">2</text>
</a>
</g>
</g>
<!-- dir_2171f7ec022c5423887b07c69b2f5b48 -->
<g id="node5" class="node"><title>dir_2171f7ec022c5423887b07c69b2f5b48</title>
<g id="a_node5"><a xlink:href="dir_2171f7ec022c5423887b07c69b2f5b48.html" target="_top" xlink:title="DataFormats">
<polygon fill="none" stroke="red" points="145.237,-36 71.2366,-36 71.2366,-0 145.237,-0 145.237,-36"/>
<text text-anchor="middle" x="108.237" y="-15.5" font-family="Helvetica,sans-Serif" font-size="10.00">DataFormats</text>
</a>
</g>
</g>
<!-- dir_8bfcd60464e4f3a200807f6c373e63aa&#45;&gt;dir_2171f7ec022c5423887b07c69b2f5b48 -->
<g id="edge10" class="edge"><title>dir_8bfcd60464e4f3a200807f6c373e63aa&#45;&gt;dir_2171f7ec022c5423887b07c69b2f5b48</title>
<path fill="none" stroke="black" d="M58.1071,-295.318C39.2676,-287.002 15.5871,-272.991 4.23656,-252 -3.37372,-237.926 1.33396,-231.735 4.23656,-216 16.665,-148.627 23.1055,-130.207 59.2366,-72 65.5109,-61.8921 73.8705,-51.9922 81.9058,-43.5361"/>
<polygon fill="black" stroke="black" points="84.5979,-45.7907 89.1249,-36.2116 79.6124,-40.8769 84.5979,-45.7907"/>
<g id="a_edge10&#45;headlabel"><a xlink:href="dir_000226_000043.html" target="_top" xlink:title="1">
<text text-anchor="middle" x="84.0968" y="-47.8438" font-family="Helvetica,sans-Serif" font-size="10.00">1</text>
</a>
</g>
</g>
<!-- dir_677b030cc750909e4cd27413873678d8&#45;&gt;dir_2171f7ec022c5423887b07c69b2f5b48 -->
<g id="edge1" class="edge"><title>dir_677b030cc750909e4cd27413873678d8&#45;&gt;dir_2171f7ec022c5423887b07c69b2f5b48</title>
<path fill="none" stroke="black" d="M102.321,-71.6966C101.525,-63.9827 101.299,-54.7125 101.641,-46.1124"/>
<polygon fill="black" stroke="black" points="105.135,-46.3243 102.342,-36.1043 98.152,-45.8356 105.135,-46.3243"/>
<g id="a_edge1&#45;headlabel"><a xlink:href="dir_000148_000043.html" target="_top" xlink:title="1">
<text text-anchor="middle" x="107.716" y="-47.6083" font-family="Helvetica,sans-Serif" font-size="10.00">1</text>
</a>
</g>
</g>
<!-- dir_a5de047958dd458e809773c6ffaa8478&#45;&gt;dir_677b030cc750909e4cd27413873678d8 -->
<g id="edge2" class="edge"><title>dir_a5de047958dd458e809773c6ffaa8478&#45;&gt;dir_677b030cc750909e4cd27413873678d8</title>
<path fill="none" stroke="black" d="M58.9915,-215.871C68.6197,-191.457 86.3785,-146.426 97.7326,-117.635"/>
<polygon fill="black" stroke="black" points="101.045,-118.776 101.458,-108.189 94.533,-116.208 101.045,-118.776"/>
<g id="a_edge2&#45;headlabel"><a xlink:href="dir_000185_000148.html" target="_top" xlink:title="51">
<text text-anchor="middle" x="102.368" y="-120.662" font-family="Helvetica,sans-Serif" font-size="10.00">51</text>
</a>
</g>
</g>
<!-- dir_a5de047958dd458e809773c6ffaa8478&#45;&gt;dir_a3959ed40b1558172144f5e1a56e443f -->
<g id="edge3" class="edge"><title>dir_a5de047958dd458e809773c6ffaa8478&#45;&gt;dir_a3959ed40b1558172144f5e1a56e443f</title>
<path fill="none" stroke="black" d="M82.0811,-215.876C99.0213,-206.156 120.344,-193.922 138.211,-183.671"/>
<polygon fill="black" stroke="black" points="140.266,-186.527 147.197,-178.514 136.782,-180.455 140.266,-186.527"/>
<g id="a_edge3&#45;headlabel"><a xlink:href="dir_000185_000127.html" target="_top" xlink:title="1">
<text text-anchor="middle" x="138.561" y="-188.278" font-family="Helvetica,sans-Serif" font-size="10.00">1</text>
</a>
</g>
</g>
<!-- dir_a5de047958dd458e809773c6ffaa8478&#45;&gt;dir_2171f7ec022c5423887b07c69b2f5b48 -->
<g id="edge4" class="edge"><title>dir_a5de047958dd458e809773c6ffaa8478&#45;&gt;dir_2171f7ec022c5423887b07c69b2f5b48</title>
<path fill="none" stroke="black" d="M51.7744,-215.926C51.5161,-185.832 53.4773,-121.819 72.2366,-72 75.844,-62.4197 81.5102,-52.878 87.2889,-44.5853"/>
<polygon fill="black" stroke="black" points="90.1686,-46.577 93.2699,-36.4462 84.5279,-42.4318 90.1686,-46.577"/>
<g id="a_edge4&#45;headlabel"><a xlink:href="dir_000185_000043.html" target="_top" xlink:title="42">
<text text-anchor="middle" x="90.328" y="-48.6549" font-family="Helvetica,sans-Serif" font-size="10.00">42</text>
</a>
</g>
</g>
<!-- dir_a3959ed40b1558172144f5e1a56e443f&#45;&gt;dir_677b030cc750909e4cd27413873678d8 -->
<g id="edge5" class="edge"><title>dir_a3959ed40b1558172144f5e1a56e443f&#45;&gt;dir_677b030cc750909e4cd27413873678d8</title>
<path fill="none" stroke="black" d="M157.922,-143.697C149.93,-135.22 140.165,-124.864 131.414,-115.583"/>
<polygon fill="black" stroke="black" points="133.77,-112.979 124.364,-108.104 128.677,-117.781 133.77,-112.979"/>
<g id="a_edge5&#45;headlabel"><a xlink:href="dir_000127_000148.html" target="_top" xlink:title="19">
<text text-anchor="middle" x="138.302" y="-111.147" font-family="Helvetica,sans-Serif" font-size="10.00">19</text>
</a>
</g>
</g>
<!-- dir_a3959ed40b1558172144f5e1a56e443f&#45;&gt;dir_2171f7ec022c5423887b07c69b2f5b48 -->
<g id="edge6" class="edge"><title>dir_a3959ed40b1558172144f5e1a56e443f&#45;&gt;dir_2171f7ec022c5423887b07c69b2f5b48</title>
<path fill="none" stroke="black" d="M169.916,-143.722C164.987,-125.377 156.057,-95.8049 144.237,-72 139.61,-62.6833 133.56,-53.101 127.744,-44.6903"/>
<polygon fill="black" stroke="black" points="130.493,-42.5178 121.836,-36.4098 124.795,-46.5832 130.493,-42.5178"/>
<g id="a_edge6&#45;headlabel"><a xlink:href="dir_000127_000043.html" target="_top" xlink:title="4">
<text text-anchor="middle" x="134.892" y="-41.2952" font-family="Helvetica,sans-Serif" font-size="10.00">4</text>
</a>
</g>
</g>
<!-- dir_2171f7ec022c5423887b07c69b2f5b48&#45;&gt;dir_677b030cc750909e4cd27413873678d8 -->
<g id="edge11" class="edge"><title>dir_2171f7ec022c5423887b07c69b2f5b48&#45;&gt;dir_677b030cc750909e4cd27413873678d8</title>
<path fill="none" stroke="black" d="M114.132,-36.1043C114.937,-43.7913 115.173,-53.0537 114.841,-61.6651"/>
<polygon fill="black" stroke="black" points="111.345,-61.4805 114.152,-71.6966 118.329,-61.9597 111.345,-61.4805"/>
<g id="a_edge11&#45;headlabel"><a xlink:href="dir_000043_000148.html" target="_top" xlink:title="2">
<text text-anchor="middle" x="108.758" y="-55.2" font-family="Helvetica,sans-Serif" font-size="10.00">2</text>
</a>
</g>
</g>
</g>
</svg>
