<?xml version="1.0" encoding="UTF-8" standalone="no"?>
<!DOCTYPE svg PUBLIC "-//W3C//DTD SVG 1.1//EN"
 "http://www.w3.org/Graphics/SVG/1.1/DTD/svg11.dtd">
<!-- Generated by graphviz version 2.36.0 (20140111.2315)
 -->
<!-- Title: /home/travis/build/AliceO2Group/AliceO2/Detectors/TPC/base Pages: 1 -->
<svg width="319pt" height="231pt"
 viewBox="0.00 0.00 319.00 231.00" xmlns="http://www.w3.org/2000/svg" xmlns:xlink="http://www.w3.org/1999/xlink">
<g id="graph0" class="graph" transform="scale(1 1) rotate(0) translate(4 227)">
<title>/home/travis/build/AliceO2Group/AliceO2/Detectors/TPC/base</title>
<g id="clust1" class="cluster"><title>clusterdir_a597e8e061b11201a1dff411feb10d0b</title>
<g id="a_clust1"><a xlink:href="dir_a597e8e061b11201a1dff411feb10d0b.html" target="_top" xlink:title="TPC">
<polygon fill="#ddddee" stroke="black" points="8,-56 8,-215 238,-215 238,-56 8,-56"/>
<text text-anchor="middle" x="123" y="-203" font-family="Helvetica,sans-Serif" font-size="10.00">TPC</text>
</a>
</g>
</g>
<g id="clust2" class="cluster"><title>clusterdir_677b030cc750909e4cd27413873678d8</title>
<g id="a_clust2"><a xlink:href="dir_677b030cc750909e4cd27413873678d8.html" target="_top">
<polygon fill="#eeeeff" stroke="black" points="16,-64 16,-188 230,-188 230,-64 16,-64"/>
</a>
</g>
</g>
<!-- dir_677b030cc750909e4cd27413873678d8 -->
<g id="node1" class="node"><title>dir_677b030cc750909e4cd27413873678d8</title>
<text text-anchor="middle" x="195" y="-159.5" font-family="Helvetica,sans-Serif" font-size="10.00">base</text>
</g>
<!-- dir_8878d5c3559bc3ebfb711a18a96e91b8 -->
<g id="node2" class="node"><title>dir_8878d5c3559bc3ebfb711a18a96e91b8</title>
<g id="a_node2"><a xlink:href="dir_8878d5c3559bc3ebfb711a18a96e91b8.html" target="_top" xlink:title="include">
<polygon fill="white" stroke="red" points="150,-108 96,-108 96,-72 150,-72 150,-108"/>
<text text-anchor="middle" x="123" y="-87.5" font-family="Helvetica,sans-Serif" font-size="10.00">include</text>
</a>
</g>
</g>
<!-- dir_4ab6b4cc6a7edbff49100e9123df213f -->
<g id="node5" class="node"><title>dir_4ab6b4cc6a7edbff49100e9123df213f</title>
<g id="a_node5"><a xlink:href="dir_4ab6b4cc6a7edbff49100e9123df213f.html" target="_top" xlink:title="Common">
<polygon fill="none" stroke="red" points="301.5,-108 246.5,-108 246.5,-72 301.5,-72 301.5,-108"/>
<text text-anchor="middle" x="274" y="-87.5" font-family="Helvetica,sans-Serif" font-size="10.00">Common</text>
</a>
</g>
</g>
<!-- dir_8878d5c3559bc3ebfb711a18a96e91b8&#45;&gt;dir_4ab6b4cc6a7edbff49100e9123df213f -->
<g id="edge2" class="edge"><title>dir_8878d5c3559bc3ebfb711a18a96e91b8&#45;&gt;dir_4ab6b4cc6a7edbff49100e9123df213f</title>
<path fill="none" stroke="black" d="M150.133,-90C178.844,-90 207.554,-90 236.265,-90"/>
<polygon fill="black" stroke="black" points="236.42,-93.5001 246.42,-90 236.42,-86.5001 236.42,-93.5001"/>
<g id="a_edge2&#45;headlabel"><a xlink:href="dir_000149_000016.html" target="_top" xlink:title="2">
<text text-anchor="middle" x="232.826" y="-93.8393" font-family="Helvetica,sans-Serif" font-size="10.00">2</text>
</a>
</g>
</g>
<!-- dir_2171f7ec022c5423887b07c69b2f5b48 -->
<g id="node6" class="node"><title>dir_2171f7ec022c5423887b07c69b2f5b48</title>
<g id="a_node6"><a xlink:href="dir_2171f7ec022c5423887b07c69b2f5b48.html" target="_top" xlink:title="DataFormats">
<polygon fill="none" stroke="red" points="311,-36 237,-36 237,-0 311,-0 311,-36"/>
<text text-anchor="middle" x="274" y="-15.5" font-family="Helvetica,sans-Serif" font-size="10.00">DataFormats</text>
</a>
</g>
</g>
<!-- dir_8878d5c3559bc3ebfb711a18a96e91b8&#45;&gt;dir_2171f7ec022c5423887b07c69b2f5b48 -->
<g id="edge3" class="edge"><title>dir_8878d5c3559bc3ebfb711a18a96e91b8&#45;&gt;dir_2171f7ec022c5423887b07c69b2f5b48</title>
<path fill="none" stroke="black" d="M150.086,-73.811C171.64,-63.2215 202.14,-49.0243 227.537,-37.7324"/>
<polygon fill="black" stroke="black" points="229.255,-40.7997 236.991,-33.5605 226.429,-34.3955 229.255,-40.7997"/>
<g id="a_edge3&#45;headlabel"><a xlink:href="dir_000149_000043.html" target="_top" xlink:title="1">
<text text-anchor="middle" x="227.113" y="-42.3485" font-family="Helvetica,sans-Serif" font-size="10.00">1</text>
</a>
</g>
</g>
<!-- dir_e043ce4ff46f8ac51f0381d61fc98f07 -->
<g id="node3" class="node"><title>dir_e043ce4ff46f8ac51f0381d61fc98f07</title>
<g id="a_node3"><a xlink:href="dir_e043ce4ff46f8ac51f0381d61fc98f07.html" target="_top" xlink:title="src">
<polygon fill="white" stroke="black" points="150,-180 96,-180 96,-144 150,-144 150,-180"/>
<text text-anchor="middle" x="123" y="-159.5" font-family="Helvetica,sans-Serif" font-size="10.00">src</text>
</a>
</g>
</g>
<!-- dir_e043ce4ff46f8ac51f0381d61fc98f07&#45;&gt;dir_8878d5c3559bc3ebfb711a18a96e91b8 -->
<g id="edge4" class="edge"><title>dir_e043ce4ff46f8ac51f0381d61fc98f07&#45;&gt;dir_8878d5c3559bc3ebfb711a18a96e91b8</title>
<path fill="none" stroke="black" d="M123,-143.697C123,-135.983 123,-126.712 123,-118.112"/>
<polygon fill="black" stroke="black" points="126.5,-118.104 123,-108.104 119.5,-118.104 126.5,-118.104"/>
<g id="a_edge4&#45;headlabel"><a xlink:href="dir_000170_000149.html" target="_top" xlink:title="29">
<text text-anchor="middle" x="129.339" y="-119.199" font-family="Helvetica,sans-Serif" font-size="10.00">29</text>
</a>
</g>
</g>
<!-- dir_1a7fbcdc62c8ea7270ef7614154c8eb7 -->
<g id="node4" class="node"><title>dir_1a7fbcdc62c8ea7270ef7614154c8eb7</title>
<g id="a_node4"><a xlink:href="dir_1a7fbcdc62c8ea7270ef7614154c8eb7.html" target="_top" xlink:title="test">
<polygon fill="white" stroke="black" points="78,-180 24,-180 24,-144 78,-144 78,-180"/>
<text text-anchor="middle" x="51" y="-159.5" font-family="Helvetica,sans-Serif" font-size="10.00">test</text>
</a>
</g>
</g>
<!-- dir_1a7fbcdc62c8ea7270ef7614154c8eb7&#45;&gt;dir_8878d5c3559bc3ebfb711a18a96e91b8 -->
<g id="edge5" class="edge"><title>dir_1a7fbcdc62c8ea7270ef7614154c8eb7&#45;&gt;dir_8878d5c3559bc3ebfb711a18a96e91b8</title>
<path fill="none" stroke="black" d="M68.7978,-143.697C77.604,-135.135 88.3821,-124.656 98.0011,-115.304"/>
<polygon fill="black" stroke="black" points="100.677,-117.585 105.407,-108.104 95.7972,-112.566 100.677,-117.585"/>
<g id="a_edge5&#45;headlabel"><a xlink:href="dir_000211_000149.html" target="_top" xlink:title="10">
<text text-anchor="middle" x="100.079" y="-119.626" font-family="Helvetica,sans-Serif" font-size="10.00">10</text>
</a>
</g>
</g>
<!-- dir_4ab6b4cc6a7edbff49100e9123df213f&#45;&gt;dir_2171f7ec022c5423887b07c69b2f5b48 -->
<g id="edge1" class="edge"><title>dir_4ab6b4cc6a7edbff49100e9123df213f&#45;&gt;dir_2171f7ec022c5423887b07c69b2f5b48</title>
<path fill="none" stroke="black" d="M268.084,-71.6966C267.289,-63.9827 267.062,-54.7125 267.405,-46.1124"/>
<polygon fill="black" stroke="black" points="270.898,-46.3243 268.105,-36.1043 263.915,-45.8356 270.898,-46.3243"/>
<g id="a_edge1&#45;headlabel"><a xlink:href="dir_000016_000043.html" target="_top" xlink:title="1">
<text text-anchor="middle" x="273.48" y="-47.6083" font-family="Helvetica,sans-Serif" font-size="10.00">1</text>
</a>
</g>
</g>
<!-- dir_2171f7ec022c5423887b07c69b2f5b48&#45;&gt;dir_8878d5c3559bc3ebfb711a18a96e91b8 -->
<g id="edge6" class="edge"><title>dir_2171f7ec022c5423887b07c69b2f5b48&#45;&gt;dir_8878d5c3559bc3ebfb711a18a96e91b8</title>
<path fill="none" stroke="black" d="M243.162,-36.0246C218.916,-47.8423 185.225,-63.4127 159.618,-74.6106"/>
<polygon fill="black" stroke="black" points="158.023,-71.4871 150.236,-78.6713 160.803,-77.9112 158.023,-71.4871"/>
<g id="a_edge6&#45;headlabel"><a xlink:href="dir_000043_000149.html" target="_top" xlink:title="2">
<text text-anchor="middle" x="160.194" y="-64.9536" font-family="Helvetica,sans-Serif" font-size="10.00">2</text>
</a>
</g>
</g>
<!-- dir_2171f7ec022c5423887b07c69b2f5b48&#45;&gt;dir_4ab6b4cc6a7edbff49100e9123df213f -->
<g id="edge7" class="edge"><title>dir_2171f7ec022c5423887b07c69b2f5b48&#45;&gt;dir_4ab6b4cc6a7edbff49100e9123df213f</title>
<path fill="none" stroke="black" d="M279.895,-36.1043C280.701,-43.7913 280.937,-53.0537 280.604,-61.6651"/>
<polygon fill="black" stroke="black" points="277.109,-61.4805 279.916,-71.6966 284.092,-61.9597 277.109,-61.4805"/>
<g id="a_edge7&#45;headlabel"><a xlink:href="dir_000043_000016.html" target="_top" xlink:title="11">
<text text-anchor="middle" x="274.522" y="-55.2" font-family="Helvetica,sans-Serif" font-size="10.00">11</text>
</a>
</g>
</g>
</g>
</svg>
