<?xml version="1.0" encoding="UTF-8" standalone="no"?>
<!DOCTYPE svg PUBLIC "-//W3C//DTD SVG 1.1//EN"
 "http://www.w3.org/Graphics/SVG/1.1/DTD/svg11.dtd">
<!-- Generated by graphviz version 2.36.0 (20140111.2315)
 -->
<!-- Title: /home/travis/build/AliceO2Group/AliceO2/Detectors/EMCAL Pages: 1 -->
<svg width="363pt" height="519pt"
 viewBox="0.00 0.00 363.00 519.00" xmlns="http://www.w3.org/2000/svg" xmlns:xlink="http://www.w3.org/1999/xlink">
<g id="graph0" class="graph" transform="scale(1 1) rotate(0) translate(4 515)">
<title>/home/travis/build/AliceO2Group/AliceO2/Detectors/EMCAL</title>
<g id="clust1" class="cluster"><title>clusterdir_051dca18e802f8e9474f2e30d29c04e0</title>
<g id="a_clust1"><a xlink:href="dir_051dca18e802f8e9474f2e30d29c04e0.html" target="_top" xlink:title="Detectors">
<polygon fill="#ddddee" stroke="black" points="50,-272 50,-503 232,-503 232,-272 50,-272"/>
<text text-anchor="middle" x="141" y="-491" font-family="Helvetica,sans-Serif" font-size="10.00">Detectors</text>
</a>
</g>
</g>
<g id="clust2" class="cluster"><title>clusterdir_088378b58cb1ba39db48039cbd66d10f</title>
<g id="a_clust2"><a xlink:href="dir_088378b58cb1ba39db48039cbd66d10f.html" target="_top">
<polygon fill="#eeeeff" stroke="black" points="58,-280 58,-476 224,-476 224,-280 58,-280"/>
</a>
</g>
</g>
<!-- dir_088378b58cb1ba39db48039cbd66d10f -->
<g id="node1" class="node"><title>dir_088378b58cb1ba39db48039cbd66d10f</title>
<text text-anchor="middle" x="189" y="-447.5" font-family="Helvetica,sans-Serif" font-size="10.00">EMCAL</text>
</g>
<!-- dir_478733f24fb8878a4cdf7773310adedd -->
<g id="node2" class="node"><title>dir_478733f24fb8878a4cdf7773310adedd</title>
<g id="a_node2"><a xlink:href="dir_478733f24fb8878a4cdf7773310adedd.html" target="_top" xlink:title="base">
<polygon fill="white" stroke="red" points="120,-324 66,-324 66,-288 120,-288 120,-324"/>
<text text-anchor="middle" x="93" y="-303.5" font-family="Helvetica,sans-Serif" font-size="10.00">base</text>
</a>
</g>
</g>
<!-- dir_4ab6b4cc6a7edbff49100e9123df213f -->
<g id="node6" class="node"><title>dir_4ab6b4cc6a7edbff49100e9123df213f</title>
<g id="a_node6"><a xlink:href="dir_4ab6b4cc6a7edbff49100e9123df213f.html" target="_top" xlink:title="Common">
<polygon fill="none" stroke="red" points="189.5,-252 134.5,-252 134.5,-216 189.5,-216 189.5,-252"/>
<text text-anchor="middle" x="162" y="-231.5" font-family="Helvetica,sans-Serif" font-size="10.00">Common</text>
</a>
</g>
</g>
<!-- dir_478733f24fb8878a4cdf7773310adedd&#45;&gt;dir_4ab6b4cc6a7edbff49100e9123df213f -->
<g id="edge16" class="edge"><title>dir_478733f24fb8878a4cdf7773310adedd&#45;&gt;dir_4ab6b4cc6a7edbff49100e9123df213f</title>
<path fill="none" stroke="black" d="M110.056,-287.697C118.495,-279.135 128.825,-268.656 138.043,-259.304"/>
<polygon fill="black" stroke="black" points="140.613,-261.683 145.14,-252.104 135.627,-256.769 140.613,-261.683"/>
<g id="a_edge16&#45;headlabel"><a xlink:href="dir_000142_000016.html" target="_top" xlink:title="1">
<text text-anchor="middle" x="140.111" y="-263.736" font-family="Helvetica,sans-Serif" font-size="10.00">1</text>
</a>
</g>
</g>
<!-- dir_2171f7ec022c5423887b07c69b2f5b48 -->
<g id="node10" class="node"><title>dir_2171f7ec022c5423887b07c69b2f5b48</title>
<g id="a_node10"><a xlink:href="dir_2171f7ec022c5423887b07c69b2f5b48.html" target="_top" xlink:title="DataFormats">
<polygon fill="none" stroke="red" points="138,-180 64,-180 64,-144 138,-144 138,-180"/>
<text text-anchor="middle" x="101" y="-159.5" font-family="Helvetica,sans-Serif" font-size="10.00">DataFormats</text>
</a>
</g>
</g>
<!-- dir_478733f24fb8878a4cdf7773310adedd&#45;&gt;dir_2171f7ec022c5423887b07c69b2f5b48 -->
<g id="edge17" class="edge"><title>dir_478733f24fb8878a4cdf7773310adedd&#45;&gt;dir_2171f7ec022c5423887b07c69b2f5b48</title>
<path fill="none" stroke="black" d="M93.965,-287.871C95.3284,-263.67 97.8332,-219.211 99.4567,-190.393"/>
<polygon fill="black" stroke="black" points="102.963,-190.37 100.032,-180.189 95.9746,-189.977 102.963,-190.37"/>
<g id="a_edge17&#45;headlabel"><a xlink:href="dir_000142_000043.html" target="_top" xlink:title="2">
<text text-anchor="middle" x="105.596" y="-191.619" font-family="Helvetica,sans-Serif" font-size="10.00">2</text>
</a>
</g>
</g>
<!-- dir_40743f2e882add17463d3ecfa83bffd4 -->
<g id="node3" class="node"><title>dir_40743f2e882add17463d3ecfa83bffd4</title>
<g id="a_node3"><a xlink:href="dir_40743f2e882add17463d3ecfa83bffd4.html" target="_top" xlink:title="simulation">
<polygon fill="white" stroke="red" points="127.25,-396 66.75,-396 66.75,-360 127.25,-360 127.25,-396"/>
<text text-anchor="middle" x="97" y="-375.5" font-family="Helvetica,sans-Serif" font-size="10.00">simulation</text>
</a>
</g>
</g>
<!-- dir_40743f2e882add17463d3ecfa83bffd4&#45;&gt;dir_478733f24fb8878a4cdf7773310adedd -->
<g id="edge3" class="edge"><title>dir_40743f2e882add17463d3ecfa83bffd4&#45;&gt;dir_478733f24fb8878a4cdf7773310adedd</title>
<path fill="none" stroke="black" d="M96.0112,-359.697C95.5704,-351.983 95.0407,-342.712 94.5493,-334.112"/>
<polygon fill="black" stroke="black" points="98.0423,-333.888 93.9774,-324.104 91.0537,-334.288 98.0423,-333.888"/>
<g id="a_edge3&#45;headlabel"><a xlink:href="dir_000103_000142.html" target="_top" xlink:title="16">
<text text-anchor="middle" x="101.082" y="-334.815" font-family="Helvetica,sans-Serif" font-size="10.00">16</text>
</a>
</g>
</g>
<!-- dir_40743f2e882add17463d3ecfa83bffd4&#45;&gt;dir_4ab6b4cc6a7edbff49100e9123df213f -->
<g id="edge1" class="edge"><title>dir_40743f2e882add17463d3ecfa83bffd4&#45;&gt;dir_4ab6b4cc6a7edbff49100e9123df213f</title>
<path fill="none" stroke="black" d="M108.52,-359.795C115.026,-349.644 123.026,-336.394 129,-324 138.795,-303.678 147.551,-279.64 153.578,-261.672"/>
<polygon fill="black" stroke="black" points="156.919,-262.716 156.716,-252.123 150.269,-260.53 156.919,-262.716"/>
<g id="a_edge1&#45;headlabel"><a xlink:href="dir_000103_000016.html" target="_top" xlink:title="2">
<text text-anchor="middle" x="158.494" y="-264.517" font-family="Helvetica,sans-Serif" font-size="10.00">2</text>
</a>
</g>
</g>
<!-- dir_37c90836491b695b472bf98d1be8336b -->
<g id="node8" class="node"><title>dir_37c90836491b695b472bf98d1be8336b</title>
<g id="a_node8"><a xlink:href="dir_37c90836491b695b472bf98d1be8336b.html" target="_top" xlink:title="Base">
<polygon fill="none" stroke="red" points="160,-36 106,-36 106,-0 160,-0 160,-36"/>
<text text-anchor="middle" x="133" y="-15.5" font-family="Helvetica,sans-Serif" font-size="10.00">Base</text>
</a>
</g>
</g>
<!-- dir_40743f2e882add17463d3ecfa83bffd4&#45;&gt;dir_37c90836491b695b472bf98d1be8336b -->
<g id="edge2" class="edge"><title>dir_40743f2e882add17463d3ecfa83bffd4&#45;&gt;dir_37c90836491b695b472bf98d1be8336b</title>
<path fill="none" stroke="black" d="M74.9892,-359.875C46.3701,-335.497 0,-287.844 0,-235 0,-235 0,-235 0,-161 0,-104.244 57.2983,-60.8175 96.6778,-37.6739"/>
<polygon fill="black" stroke="black" points="98.8047,-40.4906 105.765,-32.5024 95.3423,-34.4069 98.8047,-40.4906"/>
<g id="a_edge2&#45;headlabel"><a xlink:href="dir_000103_000099.html" target="_top" xlink:title="1">
<text text-anchor="middle" x="97.085" y="-42.2362" font-family="Helvetica,sans-Serif" font-size="10.00">1</text>
</a>
</g>
</g>
<!-- dir_40743f2e882add17463d3ecfa83bffd4&#45;&gt;dir_2171f7ec022c5423887b07c69b2f5b48 -->
<g id="edge4" class="edge"><title>dir_40743f2e882add17463d3ecfa83bffd4&#45;&gt;dir_2171f7ec022c5423887b07c69b2f5b48</title>
<path fill="none" stroke="black" d="M79.2669,-359.599C70.7614,-349.998 61.4675,-337.336 57,-324 41.2502,-276.987 66.2117,-220.893 84.4983,-188.861"/>
<polygon fill="black" stroke="black" points="87.5955,-190.5 89.6729,-180.11 81.5701,-186.937 87.5955,-190.5"/>
<g id="a_edge4&#45;headlabel"><a xlink:href="dir_000103_000043.html" target="_top" xlink:title="2">
<text text-anchor="middle" x="88.2098" y="-192.539" font-family="Helvetica,sans-Serif" font-size="10.00">2</text>
</a>
</g>
</g>
<!-- dir_369d121286168272c3728271f6937381 -->
<g id="node4" class="node"><title>dir_369d121286168272c3728271f6937381</title>
<g id="a_node4"><a xlink:href="dir_369d121286168272c3728271f6937381.html" target="_top" xlink:title="testsimulation">
<polygon fill="white" stroke="black" points="143.25,-468 66.75,-468 66.75,-432 143.25,-432 143.25,-468"/>
<text text-anchor="middle" x="105" y="-447.5" font-family="Helvetica,sans-Serif" font-size="10.00">testsimulation</text>
</a>
</g>
</g>
<!-- dir_369d121286168272c3728271f6937381&#45;&gt;dir_40743f2e882add17463d3ecfa83bffd4 -->
<g id="edge6" class="edge"><title>dir_369d121286168272c3728271f6937381&#45;&gt;dir_40743f2e882add17463d3ecfa83bffd4</title>
<path fill="none" stroke="black" d="M103.022,-431.697C102.141,-423.983 101.081,-414.712 100.099,-406.112"/>
<polygon fill="black" stroke="black" points="103.568,-405.642 98.9548,-396.104 96.613,-406.437 103.568,-405.642"/>
<g id="a_edge6&#45;headlabel"><a xlink:href="dir_000175_000103.html" target="_top" xlink:title="2">
<text text-anchor="middle" x="106.797" y="-406.391" font-family="Helvetica,sans-Serif" font-size="10.00">2</text>
</a>
</g>
</g>
<!-- dir_0b342c6c6b7d2278121a0bb9c4985063 -->
<g id="node5" class="node"><title>dir_0b342c6c6b7d2278121a0bb9c4985063</title>
<g id="a_node5"><a xlink:href="dir_0b342c6c6b7d2278121a0bb9c4985063.html" target="_top" xlink:title="Generators">
<polygon fill="none" stroke="red" points="355.25,-396 290.75,-396 290.75,-360 355.25,-360 355.25,-396"/>
<text text-anchor="middle" x="323" y="-375.5" font-family="Helvetica,sans-Serif" font-size="10.00">Generators</text>
</a>
</g>
</g>
<!-- dir_369d121286168272c3728271f6937381&#45;&gt;dir_0b342c6c6b7d2278121a0bb9c4985063 -->
<g id="edge7" class="edge"><title>dir_369d121286168272c3728271f6937381&#45;&gt;dir_0b342c6c6b7d2278121a0bb9c4985063</title>
<path fill="none" stroke="black" d="M143.448,-435.171C146.672,-434.076 149.887,-433.006 153,-432 207.2,-414.485 221.858,-413.696 276,-396 277.644,-395.463 279.318,-394.906 281.006,-394.336"/>
<polygon fill="black" stroke="black" points="282.423,-397.549 290.729,-390.972 280.135,-390.934 282.423,-397.549"/>
<g id="a_edge7&#45;headlabel"><a xlink:href="dir_000175_000281.html" target="_top" xlink:title="1">
<text text-anchor="middle" x="279.954" y="-398.907" font-family="Helvetica,sans-Serif" font-size="10.00">1</text>
</a>
</g>
</g>
<!-- dir_369d121286168272c3728271f6937381&#45;&gt;dir_4ab6b4cc6a7edbff49100e9123df213f -->
<g id="edge8" class="edge"><title>dir_369d121286168272c3728271f6937381&#45;&gt;dir_4ab6b4cc6a7edbff49100e9123df213f</title>
<path fill="none" stroke="black" d="M116.637,-431.976C123.099,-421.885 130.849,-408.635 136,-396 154.15,-351.48 159.661,-295.186 161.315,-262.324"/>
<polygon fill="black" stroke="black" points="164.82,-262.266 161.741,-252.129 157.827,-261.974 164.82,-262.266"/>
<g id="a_edge8&#45;headlabel"><a xlink:href="dir_000175_000016.html" target="_top" xlink:title="1">
<text text-anchor="middle" x="167.507" y="-263.476" font-family="Helvetica,sans-Serif" font-size="10.00">1</text>
</a>
</g>
</g>
<!-- dir_a597e8e061b11201a1dff411feb10d0b -->
<g id="node7" class="node"><title>dir_a597e8e061b11201a1dff411feb10d0b</title>
<g id="a_node7"><a xlink:href="dir_a597e8e061b11201a1dff411feb10d0b.html" target="_top" xlink:title="TPC">
<polygon fill="none" stroke="red" points="192,-108 138,-108 138,-72 192,-72 192,-108"/>
<text text-anchor="middle" x="165" y="-87.5" font-family="Helvetica,sans-Serif" font-size="10.00">TPC</text>
</a>
</g>
</g>
<!-- dir_369d121286168272c3728271f6937381&#45;&gt;dir_a597e8e061b11201a1dff411feb10d0b -->
<g id="edge9" class="edge"><title>dir_369d121286168272c3728271f6937381&#45;&gt;dir_a597e8e061b11201a1dff411feb10d0b</title>
<path fill="none" stroke="black" d="M125.619,-431.954C136.047,-422.357 148.128,-409.591 156,-396 189.413,-338.311 188.572,-317.997 198,-252 204.809,-204.339 188.305,-149.56 176.262,-117.753"/>
<polygon fill="black" stroke="black" points="179.453,-116.304 172.544,-108.272 172.936,-118.86 179.453,-116.304"/>
<g id="a_edge9&#45;headlabel"><a xlink:href="dir_000175_000125.html" target="_top" xlink:title="1">
<text text-anchor="middle" x="183.409" y="-116.114" font-family="Helvetica,sans-Serif" font-size="10.00">1</text>
</a>
</g>
</g>
<!-- dir_f01815b857f9009bea48e2cb39492245 -->
<g id="node9" class="node"><title>dir_f01815b857f9009bea48e2cb39492245</title>
<g id="a_node9"><a xlink:href="dir_f01815b857f9009bea48e2cb39492245.html" target="_top" xlink:title="Passive">
<polygon fill="none" stroke="red" points="306,-324 252,-324 252,-288 306,-288 306,-324"/>
<text text-anchor="middle" x="279" y="-303.5" font-family="Helvetica,sans-Serif" font-size="10.00">Passive</text>
</a>
</g>
</g>
<!-- dir_369d121286168272c3728271f6937381&#45;&gt;dir_f01815b857f9009bea48e2cb39492245 -->
<g id="edge10" class="edge"><title>dir_369d121286168272c3728271f6937381&#45;&gt;dir_f01815b857f9009bea48e2cb39492245</title>
<path fill="none" stroke="black" d="M143.355,-435.366C180.009,-422.074 230.742,-402.886 238,-396 255.574,-379.325 266.283,-353.661 272.327,-334.169"/>
<polygon fill="black" stroke="black" points="275.752,-334.924 275.146,-324.346 269.023,-332.993 275.752,-334.924"/>
<g id="a_edge10&#45;headlabel"><a xlink:href="dir_000175_000203.html" target="_top" xlink:title="5">
<text text-anchor="middle" x="277.489" y="-336.662" font-family="Helvetica,sans-Serif" font-size="10.00">5</text>
</a>
</g>
</g>
<!-- dir_4ab6b4cc6a7edbff49100e9123df213f&#45;&gt;dir_2171f7ec022c5423887b07c69b2f5b48 -->
<g id="edge5" class="edge"><title>dir_4ab6b4cc6a7edbff49100e9123df213f&#45;&gt;dir_2171f7ec022c5423887b07c69b2f5b48</title>
<path fill="none" stroke="black" d="M141.006,-215.697C132.91,-207.389 123.901,-197.277 116.402,-188.141"/>
<polygon fill="black" stroke="black" points="118.974,-185.752 110.01,-180.104 113.496,-190.109 118.974,-185.752"/>
<g id="a_edge5&#45;headlabel"><a xlink:href="dir_000016_000043.html" target="_top" xlink:title="1">
<text text-anchor="middle" x="123.434" y="-184.298" font-family="Helvetica,sans-Serif" font-size="10.00">1</text>
</a>
</g>
</g>
<!-- dir_a597e8e061b11201a1dff411feb10d0b&#45;&gt;dir_4ab6b4cc6a7edbff49100e9123df213f -->
<g id="edge11" class="edge"><title>dir_a597e8e061b11201a1dff411feb10d0b&#45;&gt;dir_4ab6b4cc6a7edbff49100e9123df213f</title>
<path fill="none" stroke="black" d="M164.637,-108.189C164.125,-132.424 163.185,-176.888 162.577,-205.679"/>
<polygon fill="black" stroke="black" points="159.074,-205.8 162.362,-215.871 166.072,-205.948 159.074,-205.8"/>
<g id="a_edge11&#45;headlabel"><a xlink:href="dir_000125_000016.html" target="_top" xlink:title="6">
<text text-anchor="middle" x="156.311" y="-199.646" font-family="Helvetica,sans-Serif" font-size="10.00">6</text>
</a>
</g>
</g>
<!-- dir_a597e8e061b11201a1dff411feb10d0b&#45;&gt;dir_37c90836491b695b472bf98d1be8336b -->
<g id="edge12" class="edge"><title>dir_a597e8e061b11201a1dff411feb10d0b&#45;&gt;dir_37c90836491b695b472bf98d1be8336b</title>
<path fill="none" stroke="black" d="M157.09,-71.6966C153.447,-63.7284 149.046,-54.0995 145.006,-45.2641"/>
<polygon fill="black" stroke="black" points="148.16,-43.7439 140.819,-36.1043 141.794,-46.6543 148.16,-43.7439"/>
<g id="a_edge12&#45;headlabel"><a xlink:href="dir_000125_000099.html" target="_top" xlink:title="1">
<text text-anchor="middle" x="152.237" y="-43.3327" font-family="Helvetica,sans-Serif" font-size="10.00">1</text>
</a>
</g>
</g>
<!-- dir_a597e8e061b11201a1dff411feb10d0b&#45;&gt;dir_2171f7ec022c5423887b07c69b2f5b48 -->
<g id="edge13" class="edge"><title>dir_a597e8e061b11201a1dff411feb10d0b&#45;&gt;dir_2171f7ec022c5423887b07c69b2f5b48</title>
<path fill="none" stroke="black" d="M155.257,-108.104C148.35,-116.636 138.968,-127.108 129.894,-136.478"/>
<polygon fill="black" stroke="black" points="127.292,-134.131 122.736,-143.697 132.262,-139.06 127.292,-134.131"/>
<g id="a_edge13&#45;headlabel"><a xlink:href="dir_000125_000043.html" target="_top" xlink:title="50">
<text text-anchor="middle" x="127.807" y="-127.08" font-family="Helvetica,sans-Serif" font-size="10.00">50</text>
</a>
</g>
</g>
<!-- dir_37c90836491b695b472bf98d1be8336b&#45;&gt;dir_4ab6b4cc6a7edbff49100e9123df213f -->
<g id="edge14" class="edge"><title>dir_37c90836491b695b472bf98d1be8336b&#45;&gt;dir_4ab6b4cc6a7edbff49100e9123df213f</title>
<path fill="none" stroke="black" d="M160.345,-32.3799C175.325,-41.3282 192.526,-54.6505 201,-72 222.713,-116.453 197.637,-173.86 178.847,-206.741"/>
<polygon fill="black" stroke="black" points="175.61,-205.339 173.518,-215.725 181.63,-208.91 175.61,-205.339"/>
<g id="a_edge14&#45;headlabel"><a xlink:href="dir_000099_000016.html" target="_top" xlink:title="5">
<text text-anchor="middle" x="175.002" y="-198.298" font-family="Helvetica,sans-Serif" font-size="10.00">5</text>
</a>
</g>
</g>
<!-- dir_37c90836491b695b472bf98d1be8336b&#45;&gt;dir_2171f7ec022c5423887b07c69b2f5b48 -->
<g id="edge15" class="edge"><title>dir_37c90836491b695b472bf98d1be8336b&#45;&gt;dir_2171f7ec022c5423887b07c69b2f5b48</title>
<path fill="none" stroke="black" d="M133.717,-36.1893C130.798,-60.5311 120.992,-105.28 112.499,-134.059"/>
<polygon fill="black" stroke="black" points="109.075,-133.283 109.444,-143.871 115.759,-135.364 109.075,-133.283"/>
<g id="a_edge15&#45;headlabel"><a xlink:href="dir_000099_000043.html" target="_top" xlink:title="5">
<text text-anchor="middle" x="107.432" y="-126.507" font-family="Helvetica,sans-Serif" font-size="10.00">5</text>
</a>
</g>
</g>
<!-- dir_f01815b857f9009bea48e2cb39492245&#45;&gt;dir_4ab6b4cc6a7edbff49100e9123df213f -->
<g id="edge18" class="edge"><title>dir_f01815b857f9009bea48e2cb39492245&#45;&gt;dir_4ab6b4cc6a7edbff49100e9123df213f</title>
<path fill="none" stroke="black" d="M253.256,-287.891C245.232,-282.681 236.309,-277.01 228,-272 218.538,-266.294 208.168,-260.343 198.508,-254.924"/>
<polygon fill="black" stroke="black" points="199.957,-251.725 189.518,-249.917 196.551,-257.841 199.957,-251.725"/>
<g id="a_edge18&#45;headlabel"><a xlink:href="dir_000203_000016.html" target="_top" xlink:title="1">
<text text-anchor="middle" x="204.479" y="-248.493" font-family="Helvetica,sans-Serif" font-size="10.00">1</text>
</a>
</g>
</g>
<!-- dir_f01815b857f9009bea48e2cb39492245&#45;&gt;dir_37c90836491b695b472bf98d1be8336b -->
<g id="edge19" class="edge"><title>dir_f01815b857f9009bea48e2cb39492245&#45;&gt;dir_37c90836491b695b472bf98d1be8336b</title>
<path fill="none" stroke="black" d="M278.929,-287.938C277.928,-246.731 270.303,-140.155 220,-72 207.328,-54.8306 187.275,-42.0723 169.613,-33.3811"/>
<polygon fill="black" stroke="black" points="170.654,-30.0052 160.11,-28.9688 167.706,-36.3544 170.654,-30.0052"/>
<g id="a_edge19&#45;headlabel"><a xlink:href="dir_000203_000099.html" target="_top" xlink:title="16">
<text text-anchor="middle" x="175.11" y="-26.4436" font-family="Helvetica,sans-Serif" font-size="10.00">16</text>
</a>
</g>
</g>
<!-- dir_2171f7ec022c5423887b07c69b2f5b48&#45;&gt;dir_4ab6b4cc6a7edbff49100e9123df213f -->
<g id="edge20" class="edge"><title>dir_2171f7ec022c5423887b07c69b2f5b48&#45;&gt;dir_4ab6b4cc6a7edbff49100e9123df213f</title>
<path fill="none" stroke="black" d="M121.8,-180.104C129.882,-188.383 138.895,-198.488 146.418,-207.64"/>
<polygon fill="black" stroke="black" points="143.868,-210.057 152.837,-215.697 149.343,-205.695 143.868,-210.057"/>
<g id="a_edge20&#45;headlabel"><a xlink:href="dir_000043_000016.html" target="_top" xlink:title="11">
<text text-anchor="middle" x="139.408" y="-206.515" font-family="Helvetica,sans-Serif" font-size="10.00">11</text>
</a>
</g>
</g>
<!-- dir_2171f7ec022c5423887b07c69b2f5b48&#45;&gt;dir_a597e8e061b11201a1dff411feb10d0b -->
<g id="edge21" class="edge"><title>dir_2171f7ec022c5423887b07c69b2f5b48&#45;&gt;dir_a597e8e061b11201a1dff411feb10d0b</title>
<path fill="none" stroke="black" d="M110.905,-143.697C117.849,-135.135 127.248,-124.656 136.317,-115.304"/>
<polygon fill="black" stroke="black" points="138.904,-117.666 143.467,-108.104 133.937,-112.734 138.904,-117.666"/>
<g id="a_edge21&#45;headlabel"><a xlink:href="dir_000043_000125.html" target="_top" xlink:title="2">
<text text-anchor="middle" x="138.386" y="-119.718" font-family="Helvetica,sans-Serif" font-size="10.00">2</text>
</a>
</g>
</g>
<!-- dir_2171f7ec022c5423887b07c69b2f5b48&#45;&gt;dir_37c90836491b695b472bf98d1be8336b -->
<g id="edge22" class="edge"><title>dir_2171f7ec022c5423887b07c69b2f5b48&#45;&gt;dir_37c90836491b695b472bf98d1be8336b</title>
<path fill="none" stroke="black" d="M100.275,-143.871C103.184,-119.564 112.984,-74.8187 121.48,-46.0132"/>
<polygon fill="black" stroke="black" points="124.907,-46.7776 124.535,-36.1893 118.223,-44.6985 124.907,-46.7776"/>
<g id="a_edge22&#45;headlabel"><a xlink:href="dir_000043_000099.html" target="_top" xlink:title="1">
<text text-anchor="middle" x="126.551" y="-48.5532" font-family="Helvetica,sans-Serif" font-size="10.00">1</text>
</a>
</g>
</g>
</g>
</svg>
