<?xml version="1.0" encoding="UTF-8" standalone="no"?>
<!DOCTYPE svg PUBLIC "-//W3C//DTD SVG 1.1//EN"
 "http://www.w3.org/Graphics/SVG/1.1/DTD/svg11.dtd">
<!-- Generated by graphviz version 2.36.0 (20140111.2315)
 -->
<!-- Title: /home/travis/build/AliceO2Group/AliceO2/DataFormats/Detectors/TPC Pages: 1 -->
<svg width="331pt" height="231pt"
 viewBox="0.00 0.00 331.10 231.00" xmlns="http://www.w3.org/2000/svg" xmlns:xlink="http://www.w3.org/1999/xlink">
<g id="graph0" class="graph" transform="scale(1 1) rotate(0) translate(4 227)">
<title>/home/travis/build/AliceO2Group/AliceO2/DataFormats/Detectors/TPC</title>
<g id="clust1" class="cluster"><title>clusterdir_2801adc79bf3c286b1b479858d2cade4</title>
<g id="a_clust1"><a xlink:href="dir_2801adc79bf3c286b1b479858d2cade4.html" target="_top" xlink:title="Detectors">
<polygon fill="#ddddee" stroke="black" points="8,-56 8,-215 238,-215 238,-56 8,-56"/>
<text text-anchor="middle" x="123" y="-203" font-family="Helvetica,sans-Serif" font-size="10.00">Detectors</text>
</a>
</g>
</g>
<g id="clust2" class="cluster"><title>clusterdir_87e4e27fa2128902da5e37b3e7ab3f52</title>
<g id="a_clust2"><a xlink:href="dir_87e4e27fa2128902da5e37b3e7ab3f52.html" target="_top">
<polygon fill="#eeeeff" stroke="black" points="16,-64 16,-188 230,-188 230,-64 16,-64"/>
</a>
</g>
</g>
<!-- dir_87e4e27fa2128902da5e37b3e7ab3f52 -->
<g id="node1" class="node"><title>dir_87e4e27fa2128902da5e37b3e7ab3f52</title>
<text text-anchor="middle" x="195" y="-159.5" font-family="Helvetica,sans-Serif" font-size="10.00">TPC</text>
</g>
<!-- dir_6f22cbd49ee75d810f2bfe3ea5accc3c -->
<g id="node2" class="node"><title>dir_6f22cbd49ee75d810f2bfe3ea5accc3c</title>
<g id="a_node2"><a xlink:href="dir_6f22cbd49ee75d810f2bfe3ea5accc3c.html" target="_top" xlink:title="include">
<polygon fill="white" stroke="red" points="114,-108 60,-108 60,-72 114,-72 114,-108"/>
<text text-anchor="middle" x="87" y="-87.5" font-family="Helvetica,sans-Serif" font-size="10.00">include</text>
</a>
</g>
</g>
<!-- dir_051dca18e802f8e9474f2e30d29c04e0 -->
<g id="node5" class="node"><title>dir_051dca18e802f8e9474f2e30d29c04e0</title>
<g id="a_node5"><a xlink:href="dir_051dca18e802f8e9474f2e30d29c04e0.html" target="_top" xlink:title="Detectors">
<polygon fill="none" stroke="red" points="305.25,-108 246.75,-108 246.75,-72 305.25,-72 305.25,-108"/>
<text text-anchor="middle" x="276" y="-87.5" font-family="Helvetica,sans-Serif" font-size="10.00">Detectors</text>
</a>
</g>
</g>
<!-- dir_6f22cbd49ee75d810f2bfe3ea5accc3c&#45;&gt;dir_051dca18e802f8e9474f2e30d29c04e0 -->
<g id="edge7" class="edge"><title>dir_6f22cbd49ee75d810f2bfe3ea5accc3c&#45;&gt;dir_051dca18e802f8e9474f2e30d29c04e0</title>
<path fill="none" stroke="black" d="M114.316,-90C155.062,-90 195.807,-90 236.553,-90"/>
<polygon fill="black" stroke="black" points="236.632,-93.5001 246.632,-90 236.632,-86.5001 236.632,-93.5001"/>
<g id="a_edge7&#45;headlabel"><a xlink:href="dir_000060_000076.html" target="_top" xlink:title="1">
<text text-anchor="middle" x="233.037" y="-93.8393" font-family="Helvetica,sans-Serif" font-size="10.00">1</text>
</a>
</g>
</g>
<!-- dir_99a7a708919c9221801ca7c93b79d194 -->
<g id="node3" class="node"><title>dir_99a7a708919c9221801ca7c93b79d194</title>
<g id="a_node3"><a xlink:href="dir_99a7a708919c9221801ca7c93b79d194.html" target="_top" xlink:title="src">
<polygon fill="white" stroke="black" points="150,-180 96,-180 96,-144 150,-144 150,-180"/>
<text text-anchor="middle" x="123" y="-159.5" font-family="Helvetica,sans-Serif" font-size="10.00">src</text>
</a>
</g>
</g>
<!-- dir_99a7a708919c9221801ca7c93b79d194&#45;&gt;dir_6f22cbd49ee75d810f2bfe3ea5accc3c -->
<g id="edge2" class="edge"><title>dir_99a7a708919c9221801ca7c93b79d194&#45;&gt;dir_6f22cbd49ee75d810f2bfe3ea5accc3c</title>
<path fill="none" stroke="black" d="M114.101,-143.697C110.003,-135.728 105.051,-126.1 100.507,-117.264"/>
<polygon fill="black" stroke="black" points="103.483,-115.396 95.7965,-108.104 97.2575,-118.598 103.483,-115.396"/>
<g id="a_edge2&#45;headlabel"><a xlink:href="dir_000062_000060.html" target="_top" xlink:title="1">
<text text-anchor="middle" x="107.651" y="-114.795" font-family="Helvetica,sans-Serif" font-size="10.00">1</text>
</a>
</g>
</g>
<!-- dir_99a7a708919c9221801ca7c93b79d194&#45;&gt;dir_051dca18e802f8e9474f2e30d29c04e0 -->
<g id="edge1" class="edge"><title>dir_99a7a708919c9221801ca7c93b79d194&#45;&gt;dir_051dca18e802f8e9474f2e30d29c04e0</title>
<path fill="none" stroke="black" d="M150.105,-148.144C153.103,-146.739 156.114,-145.335 159,-144 185.032,-131.958 214.442,-118.637 237.263,-108.363"/>
<polygon fill="black" stroke="black" points="238.926,-111.452 246.611,-104.158 236.055,-105.068 238.926,-111.452"/>
<g id="a_edge1&#45;headlabel"><a xlink:href="dir_000062_000076.html" target="_top" xlink:title="1">
<text text-anchor="middle" x="236.812" y="-113.016" font-family="Helvetica,sans-Serif" font-size="10.00">1</text>
</a>
</g>
</g>
<!-- dir_047746f9f311f49446db9474b7431d0d -->
<g id="node6" class="node"><title>dir_047746f9f311f49446db9474b7431d0d</title>
<g id="a_node6"><a xlink:href="dir_047746f9f311f49446db9474b7431d0d.html" target="_top" xlink:title="simulation">
<polygon fill="none" stroke="red" points="306.25,-36 245.75,-36 245.75,-0 306.25,-0 306.25,-36"/>
<text text-anchor="middle" x="276" y="-15.5" font-family="Helvetica,sans-Serif" font-size="10.00">simulation</text>
</a>
</g>
</g>
<!-- dir_99a7a708919c9221801ca7c93b79d194&#45;&gt;dir_047746f9f311f49446db9474b7431d0d -->
<g id="edge3" class="edge"><title>dir_99a7a708919c9221801ca7c93b79d194&#45;&gt;dir_047746f9f311f49446db9474b7431d0d</title>
<path fill="none" stroke="black" d="M150.265,-147.389C153.179,-146.157 156.128,-144.999 159,-144 225.798,-120.769 270.011,-163.377 314,-108 328.375,-89.9036 322.986,-77.2925 314,-56 312.129,-51.5675 309.439,-47.403 306.342,-43.5817"/>
<polygon fill="black" stroke="black" points="308.909,-41.2023 299.546,-36.2444 303.773,-45.9592 308.909,-41.2023"/>
<g id="a_edge3&#45;headlabel"><a xlink:href="dir_000062_000089.html" target="_top" xlink:title="2">
<text text-anchor="middle" x="313.435" y="-39.4099" font-family="Helvetica,sans-Serif" font-size="10.00">2</text>
</a>
</g>
</g>
<!-- dir_eefe8374d82063b4a715141da5bc342d -->
<g id="node4" class="node"><title>dir_eefe8374d82063b4a715141da5bc342d</title>
<g id="a_node4"><a xlink:href="dir_eefe8374d82063b4a715141da5bc342d.html" target="_top" xlink:title="test">
<polygon fill="white" stroke="black" points="78,-180 24,-180 24,-144 78,-144 78,-180"/>
<text text-anchor="middle" x="51" y="-159.5" font-family="Helvetica,sans-Serif" font-size="10.00">test</text>
</a>
</g>
</g>
<!-- dir_eefe8374d82063b4a715141da5bc342d&#45;&gt;dir_6f22cbd49ee75d810f2bfe3ea5accc3c -->
<g id="edge6" class="edge"><title>dir_eefe8374d82063b4a715141da5bc342d&#45;&gt;dir_6f22cbd49ee75d810f2bfe3ea5accc3c</title>
<path fill="none" stroke="black" d="M59.8989,-143.697C63.9968,-135.728 68.9488,-126.1 73.4927,-117.264"/>
<polygon fill="black" stroke="black" points="76.7425,-118.598 78.2035,-108.104 70.5174,-115.396 76.7425,-118.598"/>
<g id="a_edge6&#45;headlabel"><a xlink:href="dir_000063_000060.html" target="_top" xlink:title="1">
<text text-anchor="middle" x="77.6235" y="-120.593" font-family="Helvetica,sans-Serif" font-size="10.00">1</text>
</a>
</g>
</g>
<!-- dir_051dca18e802f8e9474f2e30d29c04e0&#45;&gt;dir_6f22cbd49ee75d810f2bfe3ea5accc3c -->
<g id="edge4" class="edge"><title>dir_051dca18e802f8e9474f2e30d29c04e0&#45;&gt;dir_6f22cbd49ee75d810f2bfe3ea5accc3c</title>
<path fill="none" stroke="black" d="M246.632,-90C205.886,-90 165.141,-90 124.395,-90"/>
<polygon fill="black" stroke="black" points="124.316,-86.5001 114.316,-90 124.316,-93.5001 124.316,-86.5001"/>
<g id="a_edge4&#45;headlabel"><a xlink:href="dir_000076_000060.html" target="_top" xlink:title="15">
<text text-anchor="middle" x="127.911" y="-81.1607" font-family="Helvetica,sans-Serif" font-size="10.00">15</text>
</a>
</g>
</g>
<!-- dir_051dca18e802f8e9474f2e30d29c04e0&#45;&gt;dir_047746f9f311f49446db9474b7431d0d -->
<g id="edge5" class="edge"><title>dir_051dca18e802f8e9474f2e30d29c04e0&#45;&gt;dir_047746f9f311f49446db9474b7431d0d</title>
<path fill="none" stroke="black" d="M270.084,-71.6966C269.289,-63.9827 269.062,-54.7125 269.405,-46.1124"/>
<polygon fill="black" stroke="black" points="272.898,-46.3243 270.105,-36.1043 265.915,-45.8356 272.898,-46.3243"/>
<g id="a_edge5&#45;headlabel"><a xlink:href="dir_000076_000089.html" target="_top" xlink:title="73">
<text text-anchor="middle" x="275.48" y="-47.6083" font-family="Helvetica,sans-Serif" font-size="10.00">73</text>
</a>
</g>
</g>
<!-- dir_047746f9f311f49446db9474b7431d0d&#45;&gt;dir_051dca18e802f8e9474f2e30d29c04e0 -->
<g id="edge8" class="edge"><title>dir_047746f9f311f49446db9474b7431d0d&#45;&gt;dir_051dca18e802f8e9474f2e30d29c04e0</title>
<path fill="none" stroke="black" d="M281.895,-36.1043C282.701,-43.7913 282.937,-53.0537 282.604,-61.6651"/>
<polygon fill="black" stroke="black" points="279.109,-61.4805 281.916,-71.6966 286.092,-61.9597 279.109,-61.4805"/>
<g id="a_edge8&#45;headlabel"><a xlink:href="dir_000089_000076.html" target="_top" xlink:title="1">
<text text-anchor="middle" x="276.522" y="-55.2" font-family="Helvetica,sans-Serif" font-size="10.00">1</text>
</a>
</g>
</g>
</g>
</svg>
