<?xml version="1.0" encoding="UTF-8" standalone="no"?>
<!DOCTYPE svg PUBLIC "-//W3C//DTD SVG 1.1//EN"
 "http://www.w3.org/Graphics/SVG/1.1/DTD/svg11.dtd">
<!-- Generated by graphviz version 2.36.0 (20140111.2315)
 -->
<!-- Title: /home/travis/build/AliceO2Group/AliceO2/Detectors/TPC/reconstruction/include Pages: 1 -->
<svg width="232pt" height="231pt"
 viewBox="0.00 0.00 232.00 231.00" xmlns="http://www.w3.org/2000/svg" xmlns:xlink="http://www.w3.org/1999/xlink">
<g id="graph0" class="graph" transform="scale(1 1) rotate(0) translate(4 227)">
<title>/home/travis/build/AliceO2Group/AliceO2/Detectors/TPC/reconstruction/include</title>
<g id="clust1" class="cluster"><title>clusterdir_a5de047958dd458e809773c6ffaa8478</title>
<g id="a_clust1"><a xlink:href="dir_a5de047958dd458e809773c6ffaa8478.html" target="_top" xlink:title="reconstruction">
<polygon fill="#ddddee" stroke="black" points="8,-128 8,-215 216,-215 216,-128 8,-128"/>
<text text-anchor="middle" x="112" y="-203" font-family="Helvetica,sans-Serif" font-size="10.00">reconstruction</text>
</a>
</g>
</g>
<g id="clust2" class="cluster"><title>clusterdir_396d171119822f66a36fe1ebf998d1a3</title>
<g id="a_clust2"><a xlink:href="dir_396d171119822f66a36fe1ebf998d1a3.html" target="_top">
<polygon fill="#eeeeff" stroke="black" points="16,-136 16,-188 208,-188 208,-136 16,-136"/>
</a>
</g>
</g>
<!-- dir_396d171119822f66a36fe1ebf998d1a3 -->
<g id="node1" class="node"><title>dir_396d171119822f66a36fe1ebf998d1a3</title>
<text text-anchor="middle" x="173" y="-159.5" font-family="Helvetica,sans-Serif" font-size="10.00">include</text>
</g>
<!-- dir_1dfaa3fb6e801ddc70b8194facd2138d -->
<g id="node2" class="node"><title>dir_1dfaa3fb6e801ddc70b8194facd2138d</title>
<g id="a_node2"><a xlink:href="dir_1dfaa3fb6e801ddc70b8194facd2138d.html" target="_top" xlink:title="TPCReconstruction">
<polygon fill="white" stroke="black" points="127.25,-180 24.75,-180 24.75,-144 127.25,-144 127.25,-180"/>
<text text-anchor="middle" x="76" y="-159.5" font-family="Helvetica,sans-Serif" font-size="10.00">TPCReconstruction</text>
</a>
</g>
</g>
<!-- dir_677b030cc750909e4cd27413873678d8 -->
<g id="node3" class="node"><title>dir_677b030cc750909e4cd27413873678d8</title>
<g id="a_node3"><a xlink:href="dir_677b030cc750909e4cd27413873678d8.html" target="_top" xlink:title="base">
<polygon fill="none" stroke="red" points="76,-108 22,-108 22,-72 76,-72 76,-108"/>
<text text-anchor="middle" x="49" y="-87.5" font-family="Helvetica,sans-Serif" font-size="10.00">base</text>
</a>
</g>
</g>
<!-- dir_1dfaa3fb6e801ddc70b8194facd2138d&#45;&gt;dir_677b030cc750909e4cd27413873678d8 -->
<g id="edge2" class="edge"><title>dir_1dfaa3fb6e801ddc70b8194facd2138d&#45;&gt;dir_677b030cc750909e4cd27413873678d8</title>
<path fill="none" stroke="black" d="M69.3258,-143.697C66.2851,-135.813 62.6173,-126.304 59.2393,-117.546"/>
<polygon fill="black" stroke="black" points="62.4617,-116.175 55.5974,-108.104 55.9307,-118.694 62.4617,-116.175"/>
<g id="a_edge2&#45;headlabel"><a xlink:href="dir_000187_000148.html" target="_top" xlink:title="9">
<text text-anchor="middle" x="66.4043" y="-116.007" font-family="Helvetica,sans-Serif" font-size="10.00">9</text>
</a>
</g>
</g>
<!-- dir_2171f7ec022c5423887b07c69b2f5b48 -->
<g id="node4" class="node"><title>dir_2171f7ec022c5423887b07c69b2f5b48</title>
<g id="a_node4"><a xlink:href="dir_2171f7ec022c5423887b07c69b2f5b48.html" target="_top" xlink:title="DataFormats">
<polygon fill="none" stroke="red" points="86,-36 12,-36 12,-0 86,-0 86,-36"/>
<text text-anchor="middle" x="49" y="-15.5" font-family="Helvetica,sans-Serif" font-size="10.00">DataFormats</text>
</a>
</g>
</g>
<!-- dir_1dfaa3fb6e801ddc70b8194facd2138d&#45;&gt;dir_2171f7ec022c5423887b07c69b2f5b48 -->
<g id="edge3" class="edge"><title>dir_1dfaa3fb6e801ddc70b8194facd2138d&#45;&gt;dir_2171f7ec022c5423887b07c69b2f5b48</title>
<path fill="none" stroke="black" d="M81.6461,-143.877C86.7573,-125.661 92.4405,-96.196 85,-72 81.9911,-62.2153 76.493,-52.6161 70.6843,-44.3336"/>
<polygon fill="black" stroke="black" points="73.4072,-42.1306 64.6099,-36.2264 67.8052,-46.3279 73.4072,-42.1306"/>
<g id="a_edge3&#45;headlabel"><a xlink:href="dir_000187_000043.html" target="_top" xlink:title="14">
<text text-anchor="middle" x="77.8348" y="-40.8048" font-family="Helvetica,sans-Serif" font-size="10.00">14</text>
</a>
</g>
</g>
<!-- dir_677b030cc750909e4cd27413873678d8&#45;&gt;dir_2171f7ec022c5423887b07c69b2f5b48 -->
<g id="edge1" class="edge"><title>dir_677b030cc750909e4cd27413873678d8&#45;&gt;dir_2171f7ec022c5423887b07c69b2f5b48</title>
<path fill="none" stroke="black" d="M43.0843,-71.6966C42.2886,-63.9827 42.0621,-54.7125 42.4047,-46.1124"/>
<polygon fill="black" stroke="black" points="45.8984,-46.3243 43.105,-36.1043 38.9154,-45.8356 45.8984,-46.3243"/>
<g id="a_edge1&#45;headlabel"><a xlink:href="dir_000148_000043.html" target="_top" xlink:title="1">
<text text-anchor="middle" x="48.4799" y="-47.6083" font-family="Helvetica,sans-Serif" font-size="10.00">1</text>
</a>
</g>
</g>
<!-- dir_2171f7ec022c5423887b07c69b2f5b48&#45;&gt;dir_677b030cc750909e4cd27413873678d8 -->
<g id="edge4" class="edge"><title>dir_2171f7ec022c5423887b07c69b2f5b48&#45;&gt;dir_677b030cc750909e4cd27413873678d8</title>
<path fill="none" stroke="black" d="M54.895,-36.1043C55.7005,-43.7913 55.9369,-53.0537 55.604,-61.6651"/>
<polygon fill="black" stroke="black" points="52.1085,-61.4805 54.9157,-71.6966 59.0921,-61.9597 52.1085,-61.4805"/>
<g id="a_edge4&#45;headlabel"><a xlink:href="dir_000043_000148.html" target="_top" xlink:title="2">
<text text-anchor="middle" x="49.5219" y="-55.2" font-family="Helvetica,sans-Serif" font-size="10.00">2</text>
</a>
</g>
</g>
</g>
</svg>
