<?xml version="1.0" encoding="UTF-8" standalone="no"?>
<!DOCTYPE svg PUBLIC "-//W3C//DTD SVG 1.1//EN"
 "http://www.w3.org/Graphics/SVG/1.1/DTD/svg11.dtd">
<!-- Generated by graphviz version 2.36.0 (20140111.2315)
 -->
<!-- Title: /home/travis/build/AliceO2Group/AliceO2/DataFormats/Reconstruction Pages: 1 -->
<svg width="271pt" height="231pt"
 viewBox="0.00 0.00 271.00 231.00" xmlns="http://www.w3.org/2000/svg" xmlns:xlink="http://www.w3.org/1999/xlink">
<g id="graph0" class="graph" transform="scale(1 1) rotate(0) translate(4 227)">
<title>/home/travis/build/AliceO2Group/AliceO2/DataFormats/Reconstruction</title>
<g id="clust1" class="cluster"><title>clusterdir_2171f7ec022c5423887b07c69b2f5b48</title>
<g id="a_clust1"><a xlink:href="dir_2171f7ec022c5423887b07c69b2f5b48.html" target="_top" xlink:title="DataFormats">
<polygon fill="#ddddee" stroke="black" points="8,-56 8,-215 196,-215 196,-56 8,-56"/>
<text text-anchor="middle" x="102" y="-203" font-family="Helvetica,sans-Serif" font-size="10.00">DataFormats</text>
</a>
</g>
</g>
<g id="clust2" class="cluster"><title>clusterdir_d269712cc31e133b892a3b3f6424741a</title>
<g id="a_clust2"><a xlink:href="dir_d269712cc31e133b892a3b3f6424741a.html" target="_top">
<polygon fill="#eeeeff" stroke="black" points="16,-64 16,-188 188,-188 188,-64 16,-64"/>
</a>
</g>
</g>
<!-- dir_d269712cc31e133b892a3b3f6424741a -->
<g id="node1" class="node"><title>dir_d269712cc31e133b892a3b3f6424741a</title>
<text text-anchor="middle" x="138" y="-159.5" font-family="Helvetica,sans-Serif" font-size="10.00">Reconstruction</text>
</g>
<!-- dir_99c43ad88135ecdb15d6d5c818628268 -->
<g id="node2" class="node"><title>dir_99c43ad88135ecdb15d6d5c818628268</title>
<g id="a_node2"><a xlink:href="dir_99c43ad88135ecdb15d6d5c818628268.html" target="_top" xlink:title="include">
<polygon fill="white" stroke="red" points="124,-108 70,-108 70,-72 124,-72 124,-108"/>
<text text-anchor="middle" x="97" y="-87.5" font-family="Helvetica,sans-Serif" font-size="10.00">include</text>
</a>
</g>
</g>
<!-- dir_4ab6b4cc6a7edbff49100e9123df213f -->
<g id="node4" class="node"><title>dir_4ab6b4cc6a7edbff49100e9123df213f</title>
<g id="a_node4"><a xlink:href="dir_4ab6b4cc6a7edbff49100e9123df213f.html" target="_top" xlink:title="Common">
<polygon fill="none" stroke="red" points="215.5,-36 160.5,-36 160.5,-0 215.5,-0 215.5,-36"/>
<text text-anchor="middle" x="188" y="-15.5" font-family="Helvetica,sans-Serif" font-size="10.00">Common</text>
</a>
</g>
</g>
<!-- dir_99c43ad88135ecdb15d6d5c818628268&#45;&gt;dir_4ab6b4cc6a7edbff49100e9123df213f -->
<g id="edge4" class="edge"><title>dir_99c43ad88135ecdb15d6d5c818628268&#45;&gt;dir_4ab6b4cc6a7edbff49100e9123df213f</title>
<path fill="none" stroke="black" d="M113.579,-71.6966C124.311,-62.7295 138.546,-51.6593 151.738,-41.9836"/>
<polygon fill="black" stroke="black" points="154.153,-44.5565 160.209,-35.8628 150.054,-38.8827 154.153,-44.5565"/>
<g id="a_edge4&#45;headlabel"><a xlink:href="dir_000074_000016.html" target="_top" xlink:title="4">
<text text-anchor="middle" x="152.903" y="-46.4631" font-family="Helvetica,sans-Serif" font-size="10.00">4</text>
</a>
</g>
</g>
<!-- dir_2801adc79bf3c286b1b479858d2cade4 -->
<g id="node5" class="node"><title>dir_2801adc79bf3c286b1b479858d2cade4</title>
<g id="a_node5"><a xlink:href="dir_2801adc79bf3c286b1b479858d2cade4.html" target="_top" xlink:title="Detectors">
<polygon fill="none" stroke="red" points="263.25,-108 204.75,-108 204.75,-72 263.25,-72 263.25,-108"/>
<text text-anchor="middle" x="234" y="-87.5" font-family="Helvetica,sans-Serif" font-size="10.00">Detectors</text>
</a>
</g>
</g>
<!-- dir_99c43ad88135ecdb15d6d5c818628268&#45;&gt;dir_2801adc79bf3c286b1b479858d2cade4 -->
<g id="edge5" class="edge"><title>dir_99c43ad88135ecdb15d6d5c818628268&#45;&gt;dir_2801adc79bf3c286b1b479858d2cade4</title>
<path fill="none" stroke="black" d="M124.025,-90C147.456,-90 170.886,-90 194.317,-90"/>
<polygon fill="black" stroke="black" points="194.358,-93.5001 204.358,-90 194.358,-86.5001 194.358,-93.5001"/>
<g id="a_edge5&#45;headlabel"><a xlink:href="dir_000074_000053.html" target="_top" xlink:title="1">
<text text-anchor="middle" x="190.764" y="-93.8393" font-family="Helvetica,sans-Serif" font-size="10.00">1</text>
</a>
</g>
</g>
<!-- dir_46bf9eb01275b6b66c6fbadfa4838276 -->
<g id="node3" class="node"><title>dir_46bf9eb01275b6b66c6fbadfa4838276</title>
<g id="a_node3"><a xlink:href="dir_46bf9eb01275b6b66c6fbadfa4838276.html" target="_top" xlink:title="src">
<polygon fill="white" stroke="black" points="78,-180 24,-180 24,-144 78,-144 78,-180"/>
<text text-anchor="middle" x="51" y="-159.5" font-family="Helvetica,sans-Serif" font-size="10.00">src</text>
</a>
</g>
</g>
<!-- dir_46bf9eb01275b6b66c6fbadfa4838276&#45;&gt;dir_99c43ad88135ecdb15d6d5c818628268 -->
<g id="edge2" class="edge"><title>dir_46bf9eb01275b6b66c6fbadfa4838276&#45;&gt;dir_99c43ad88135ecdb15d6d5c818628268</title>
<path fill="none" stroke="black" d="M62.3708,-143.697C67.7185,-135.559 74.2043,-125.689 80.1106,-116.701"/>
<polygon fill="black" stroke="black" points="83.1932,-118.384 85.76,-108.104 77.3432,-114.539 83.1932,-118.384"/>
<g id="a_edge2&#45;headlabel"><a xlink:href="dir_000086_000074.html" target="_top" xlink:title="2">
<text text-anchor="middle" x="83.5919" y="-120.447" font-family="Helvetica,sans-Serif" font-size="10.00">2</text>
</a>
</g>
</g>
<!-- dir_4ab6b4cc6a7edbff49100e9123df213f&#45;&gt;dir_99c43ad88135ecdb15d6d5c818628268 -->
<g id="edge1" class="edge"><title>dir_4ab6b4cc6a7edbff49100e9123df213f&#45;&gt;dir_99c43ad88135ecdb15d6d5c818628268</title>
<path fill="none" stroke="black" d="M171.736,-36.04C160.735,-45.2484 145.958,-56.7319 132.397,-66.6496"/>
<polygon fill="black" stroke="black" points="130.223,-63.9024 124.156,-72.5881 134.315,-69.5816 130.223,-63.9024"/>
<g id="a_edge1&#45;headlabel"><a xlink:href="dir_000016_000074.html" target="_top" xlink:title="1">
<text text-anchor="middle" x="131.479" y="-56.9974" font-family="Helvetica,sans-Serif" font-size="10.00">1</text>
</a>
</g>
</g>
<!-- dir_2801adc79bf3c286b1b479858d2cade4&#45;&gt;dir_4ab6b4cc6a7edbff49100e9123df213f -->
<g id="edge3" class="edge"><title>dir_2801adc79bf3c286b1b479858d2cade4&#45;&gt;dir_4ab6b4cc6a7edbff49100e9123df213f</title>
<path fill="none" stroke="black" d="M222.629,-71.6966C217.282,-63.5589 210.796,-53.689 204.889,-44.7013"/>
<polygon fill="black" stroke="black" points="207.657,-42.5393 199.24,-36.1043 201.807,-46.3835 207.657,-42.5393"/>
<g id="a_edge3&#45;headlabel"><a xlink:href="dir_000053_000016.html" target="_top" xlink:title="3">
<text text-anchor="middle" x="212.004" y="-41.484" font-family="Helvetica,sans-Serif" font-size="10.00">3</text>
</a>
</g>
</g>
</g>
</svg>
