<?xml version="1.0" encoding="UTF-8" standalone="no"?>
<!DOCTYPE svg PUBLIC "-//W3C//DTD SVG 1.1//EN"
 "http://www.w3.org/Graphics/SVG/1.1/DTD/svg11.dtd">
<!-- Generated by graphviz version 2.36.0 (20140111.2315)
 -->
<!-- Title: /home/travis/build/AliceO2Group/AliceO2/DataFormats/Reconstruction/include/ReconstructionDataFormats Pages: 1 -->
<svg width="180pt" height="223pt"
 viewBox="0.00 0.00 180.00 223.00" xmlns="http://www.w3.org/2000/svg" xmlns:xlink="http://www.w3.org/1999/xlink">
<g id="graph0" class="graph" transform="scale(1 1) rotate(0) translate(4 219)">
<title>/home/travis/build/AliceO2Group/AliceO2/DataFormats/Reconstruction/include/ReconstructionDataFormats</title>
<g id="clust1" class="cluster"><title>clusterdir_99c43ad88135ecdb15d6d5c818628268</title>
<g id="a_clust1"><a xlink:href="dir_99c43ad88135ecdb15d6d5c818628268.html" target="_top" xlink:title="include">
<polygon fill="#ddddee" stroke="black" points="8,-136 8,-207 164,-207 164,-136 8,-136"/>
<text text-anchor="middle" x="86" y="-195" font-family="Helvetica,sans-Serif" font-size="10.00">include</text>
</a>
</g>
</g>
<!-- dir_7a3b9cdde049e7a84ed69a884a751cf5 -->
<g id="node1" class="node"><title>dir_7a3b9cdde049e7a84ed69a884a751cf5</title>
<g id="a_node1"><a xlink:href="dir_7a3b9cdde049e7a84ed69a884a751cf5.html" target="_top" xlink:title="ReconstructionDataFormats">
<polygon fill="#eeeeff" stroke="black" points="156,-180 16,-180 16,-144 156,-144 156,-180"/>
<text text-anchor="middle" x="86" y="-159.5" font-family="Helvetica,sans-Serif" font-size="10.00">ReconstructionDataFormats</text>
</a>
</g>
</g>
<!-- dir_4ab6b4cc6a7edbff49100e9123df213f -->
<g id="node2" class="node"><title>dir_4ab6b4cc6a7edbff49100e9123df213f</title>
<g id="a_node2"><a xlink:href="dir_4ab6b4cc6a7edbff49100e9123df213f.html" target="_top" xlink:title="Common">
<polygon fill="none" stroke="red" points="113.5,-36 58.5,-36 58.5,-0 113.5,-0 113.5,-36"/>
<text text-anchor="middle" x="86" y="-15.5" font-family="Helvetica,sans-Serif" font-size="10.00">Common</text>
</a>
</g>
</g>
<!-- dir_7a3b9cdde049e7a84ed69a884a751cf5&#45;&gt;dir_4ab6b4cc6a7edbff49100e9123df213f -->
<g id="edge2" class="edge"><title>dir_7a3b9cdde049e7a84ed69a884a751cf5&#45;&gt;dir_4ab6b4cc6a7edbff49100e9123df213f</title>
<path fill="none" stroke="black" d="M81.9409,-143.929C79.6944,-133.598 77.1334,-120.12 76,-108 74.5103,-92.0695 74.5103,-87.9305 76,-72 76.7969,-63.4781 78.2996,-54.2849 79.9025,-45.9862"/>
<polygon fill="black" stroke="black" points="83.3555,-46.5708 81.9409,-36.0708 76.4989,-45.1612 83.3555,-46.5708"/>
<g id="a_edge2&#45;headlabel"><a xlink:href="dir_000075_000016.html" target="_top" xlink:title="4">
<text text-anchor="middle" x="85.4129" y="-48.1635" font-family="Helvetica,sans-Serif" font-size="10.00">4</text>
</a>
</g>
</g>
<!-- dir_2801adc79bf3c286b1b479858d2cade4 -->
<g id="node3" class="node"><title>dir_2801adc79bf3c286b1b479858d2cade4</title>
<g id="a_node3"><a xlink:href="dir_2801adc79bf3c286b1b479858d2cade4.html" target="_top" xlink:title="Detectors">
<polygon fill="none" stroke="red" points="144.25,-108 85.75,-108 85.75,-72 144.25,-72 144.25,-108"/>
<text text-anchor="middle" x="115" y="-87.5" font-family="Helvetica,sans-Serif" font-size="10.00">Detectors</text>
</a>
</g>
</g>
<!-- dir_7a3b9cdde049e7a84ed69a884a751cf5&#45;&gt;dir_2801adc79bf3c286b1b479858d2cade4 -->
<g id="edge3" class="edge"><title>dir_7a3b9cdde049e7a84ed69a884a751cf5&#45;&gt;dir_2801adc79bf3c286b1b479858d2cade4</title>
<path fill="none" stroke="black" d="M93.1685,-143.697C96.4345,-135.813 100.374,-126.304 104.002,-117.546"/>
<polygon fill="black" stroke="black" points="107.32,-118.683 107.914,-108.104 100.853,-116.003 107.32,-118.683"/>
<g id="a_edge3&#45;headlabel"><a xlink:href="dir_000075_000053.html" target="_top" xlink:title="1">
<text text-anchor="middle" x="108.567" y="-120.59" font-family="Helvetica,sans-Serif" font-size="10.00">1</text>
</a>
</g>
</g>
<!-- dir_2801adc79bf3c286b1b479858d2cade4&#45;&gt;dir_4ab6b4cc6a7edbff49100e9123df213f -->
<g id="edge1" class="edge"><title>dir_2801adc79bf3c286b1b479858d2cade4&#45;&gt;dir_4ab6b4cc6a7edbff49100e9123df213f</title>
<path fill="none" stroke="black" d="M107.831,-71.6966C104.565,-63.8132 100.626,-54.3042 96.9978,-45.5464"/>
<polygon fill="black" stroke="black" points="100.147,-44.0033 93.0861,-36.1043 93.68,-46.6825 100.147,-44.0033"/>
<g id="a_edge1&#45;headlabel"><a xlink:href="dir_000053_000016.html" target="_top" xlink:title="3">
<text text-anchor="middle" x="104.146" y="-43.7375" font-family="Helvetica,sans-Serif" font-size="10.00">3</text>
</a>
</g>
</g>
</g>
</svg>
