<?xml version="1.0" encoding="UTF-8" standalone="no"?>
<!DOCTYPE svg PUBLIC "-//W3C//DTD SVG 1.1//EN"
 "http://www.w3.org/Graphics/SVG/1.1/DTD/svg11.dtd">
<!-- Generated by graphviz version 2.36.0 (20140111.2315)
 -->
<!-- Title: Graphical Class Hierarchy Pages: 1 -->
<svg width="416pt" height="104pt"
 viewBox="0.00 0.00 416.00 104.00" xmlns="http://www.w3.org/2000/svg" xmlns:xlink="http://www.w3.org/1999/xlink">
<g id="graph0" class="graph" transform="scale(1 1) rotate(0) translate(4 100)">
<title>Graphical Class Hierarchy</title>
<!-- Node1 -->
<g id="node1" class="node"><title>Node1</title>
<g id="a_node1"><a xlink:href="dd/de2/classo2_1_1track_1_1TrackPar.html" target="_top" xlink:title="o2::track::TrackPar">
<polygon fill="none" stroke="black" points="0.5,-38.5 0.5,-57.5 101.5,-57.5 101.5,-38.5 0.5,-38.5"/>
<text text-anchor="middle" x="51" y="-45.5" font-family="Helvetica,sans-Serif" font-size="10.00">o2::track::TrackPar</text>
</a>
</g>
</g>
<!-- Node2 -->
<g id="node2" class="node"><title>Node2</title>
<g id="a_node2"><a xlink:href="de/dea/classo2_1_1track_1_1TrackParCov.html" target="_top" xlink:title="o2::track::TrackParCov">
<polygon fill="none" stroke="black" points="138.5,-38.5 138.5,-57.5 257.5,-57.5 257.5,-38.5 138.5,-38.5"/>
<text text-anchor="middle" x="198" y="-45.5" font-family="Helvetica,sans-Serif" font-size="10.00">o2::track::TrackParCov</text>
</a>
</g>
</g>
<!-- Node1&#45;&gt;Node2 -->
<g id="edge1" class="edge"><title>Node1&#45;&gt;Node2</title>
<path fill="none" stroke="midnightblue" d="M111.961,-48C120.655,-48 129.597,-48 138.266,-48"/>
<polygon fill="midnightblue" stroke="midnightblue" points="111.901,-44.5001 101.901,-48 111.901,-51.5001 111.901,-44.5001"/>
</g>
<!-- Node3 -->
<g id="node3" class="node"><title>Node3</title>
<g id="a_node3"><a xlink:href="de/da8/classo2_1_1ITS_1_1CA_1_1Track.html" target="_top" xlink:title="o2::ITS::CA::Track">
<polygon fill="none" stroke="black" points="301,-76.5 301,-95.5 401,-95.5 401,-76.5 301,-76.5"/>
<text text-anchor="middle" x="351" y="-83.5" font-family="Helvetica,sans-Serif" font-size="10.00">o2::ITS::CA::Track</text>
</a>
</g>
</g>
<!-- Node2&#45;&gt;Node3 -->
<g id="edge2" class="edge"><title>Node2&#45;&gt;Node3</title>
<path fill="none" stroke="midnightblue" d="M246.843,-60.04C267.939,-65.3488 292.377,-71.4988 312.17,-76.4799"/>
<polygon fill="midnightblue" stroke="midnightblue" points="247.656,-56.6354 237.104,-57.589 245.947,-63.4237 247.656,-56.6354"/>
</g>
<!-- Node4 -->
<g id="node4" class="node"><title>Node4</title>
<g id="a_node4"><a xlink:href="d6/dca/classo2_1_1ITS_1_1CookedTrack.html" target="_top" xlink:title="o2::ITS::CookedTrack">
<polygon fill="none" stroke="black" points="294.5,-38.5 294.5,-57.5 407.5,-57.5 407.5,-38.5 294.5,-38.5"/>
<text text-anchor="middle" x="351" y="-45.5" font-family="Helvetica,sans-Serif" font-size="10.00">o2::ITS::CookedTrack</text>
</a>
</g>
</g>
<!-- Node2&#45;&gt;Node4 -->
<g id="edge3" class="edge"><title>Node2&#45;&gt;Node4</title>
<path fill="none" stroke="midnightblue" d="M267.985,-48C276.719,-48 285.571,-48 294.068,-48"/>
<polygon fill="midnightblue" stroke="midnightblue" points="267.813,-44.5001 257.813,-48 267.813,-51.5001 267.813,-44.5001"/>
</g>
<!-- Node5 -->
<g id="node5" class="node"><title>Node5</title>
<g id="a_node5"><a xlink:href="d9/d6e/classo2_1_1TPC_1_1TrackTPC.html" target="_top" xlink:title="o2::TPC::TrackTPC">
<polygon fill="none" stroke="black" points="299,-0.5 299,-19.5 403,-19.5 403,-0.5 299,-0.5"/>
<text text-anchor="middle" x="351" y="-7.5" font-family="Helvetica,sans-Serif" font-size="10.00">o2::TPC::TrackTPC</text>
</a>
</g>
</g>
<!-- Node2&#45;&gt;Node5 -->
<g id="edge4" class="edge"><title>Node2&#45;&gt;Node5</title>
<path fill="none" stroke="midnightblue" d="M246.843,-35.96C267.939,-30.6512 292.377,-24.5012 312.17,-19.5201"/>
<polygon fill="midnightblue" stroke="midnightblue" points="245.947,-32.5763 237.104,-38.411 247.656,-39.3646 245.947,-32.5763"/>
</g>
</g>
</svg>
