<?xml version="1.0" encoding="UTF-8" standalone="no"?>
<!DOCTYPE svg PUBLIC "-//W3C//DTD SVG 1.1//EN"
 "http://www.w3.org/Graphics/SVG/1.1/DTD/svg11.dtd">
<!-- Generated by graphviz version 2.36.0 (20140111.2315)
 -->
<!-- Title: Graphical Class Hierarchy Pages: 1 -->
<svg width="264pt" height="87pt"
 viewBox="0.00 0.00 264.00 87.00" xmlns="http://www.w3.org/2000/svg" xmlns:xlink="http://www.w3.org/1999/xlink">
<g id="graph0" class="graph" transform="scale(1 1) rotate(0) translate(4 83)">
<title>Graphical Class Hierarchy</title>
<!-- Node1 -->
<g id="node1" class="node"><title>Node1</title>
<polygon fill="none" stroke="#bfbfbf" points="0,-29.5 0,-48.5 62,-48.5 62,-29.5 0,-29.5"/>
<text text-anchor="middle" x="31" y="-36.5" font-family="Helvetica,sans-Serif" font-size="10.00">false_type</text>
</g>
<!-- Node2 -->
<g id="node2" class="node"><title>Node2</title>
<g id="a_node2"><a xlink:href="d0/deb/structis__defined.html" target="_top" xlink:title="is_defined\&lt; class,\l class, class \&gt;">
<polygon fill="none" stroke="black" points="129,-49 129,-79 225,-79 225,-49 129,-49"/>
<text text-anchor="start" x="137" y="-67" font-family="Helvetica,sans-Serif" font-size="10.00">is_defined&lt; class,</text>
<text text-anchor="middle" x="177" y="-56" font-family="Helvetica,sans-Serif" font-size="10.00"> class, class &gt;</text>
</a>
</g>
</g>
<!-- Node1&#45;&gt;Node2 -->
<g id="edge1" class="edge"><title>Node1&#45;&gt;Node2</title>
<path fill="none" stroke="midnightblue" d="M72.1382,-45.9684C89.7358,-49.0236 110.514,-52.631 128.844,-55.8133"/>
<polygon fill="midnightblue" stroke="midnightblue" points="72.6385,-42.503 62.1871,-44.2408 71.441,-49.3998 72.6385,-42.503"/>
</g>
<!-- Node3 -->
<g id="node3" class="node"><title>Node3</title>
<g id="a_node3"><a xlink:href="d8/d85/structo2_1_1framework_1_1is__specialization.html" target="_top" xlink:title="o2::framework::is_specialization\l\&lt; T, Ref \&gt;">
<polygon fill="none" stroke="black" points="98.5,-0 98.5,-30 255.5,-30 255.5,-0 98.5,-0"/>
<text text-anchor="start" x="106.5" y="-18" font-family="Helvetica,sans-Serif" font-size="10.00">o2::framework::is_specialization</text>
<text text-anchor="middle" x="177" y="-7" font-family="Helvetica,sans-Serif" font-size="10.00">&lt; T, Ref &gt;</text>
</a>
</g>
</g>
<!-- Node1&#45;&gt;Node3 -->
<g id="edge2" class="edge"><title>Node1&#45;&gt;Node3</title>
<path fill="none" stroke="midnightblue" d="M72.193,-32.3012C80.4193,-30.9301 89.3389,-29.4435 98.3773,-27.9371"/>
<polygon fill="midnightblue" stroke="midnightblue" points="71.4756,-28.8724 62.1871,-33.9688 72.6265,-35.7771 71.4756,-28.8724"/>
</g>
</g>
</svg>
