<?xml version="1.0" encoding="UTF-8" standalone="no"?>
<!DOCTYPE svg PUBLIC "-//W3C//DTD SVG 1.1//EN"
 "http://www.w3.org/Graphics/SVG/1.1/DTD/svg11.dtd">
<!-- Generated by graphviz version 2.36.0 (20140111.2315)
 -->
<!-- Title: Graphical Class Hierarchy Pages: 1 -->
<svg width="482pt" height="723pt"
 viewBox="0.00 0.00 482.00 723.00" xmlns="http://www.w3.org/2000/svg" xmlns:xlink="http://www.w3.org/1999/xlink">
<g id="graph0" class="graph" transform="scale(1 1) rotate(0) translate(4 719)">
<title>Graphical Class Hierarchy</title>
<!-- Node1 -->
<g id="node1" class="node"><title>Node1</title>
<g id="a_node1"><a xlink:href="db/dfe/classFairMQDevice.html" target="_top" xlink:title="FairMQDevice">
<polygon fill="none" stroke="black" points="0,-308.5 0,-327.5 80,-327.5 80,-308.5 0,-308.5"/>
<text text-anchor="middle" x="40" y="-315.5" font-family="Helvetica,sans-Serif" font-size="10.00">FairMQDevice</text>
</a>
</g>
</g>
<!-- Node2 -->
<g id="node2" class="node"><title>Node2</title>
<g id="a_node2"><a xlink:href="d7/dd9/classo2_1_1alice__hlt_1_1EventSampler.html" target="_top" xlink:title="o2::alice_hlt::EventSampler">
<polygon fill="none" stroke="black" points="125.5,-605.5 125.5,-624.5 262.5,-624.5 262.5,-605.5 125.5,-605.5"/>
<text text-anchor="middle" x="194" y="-612.5" font-family="Helvetica,sans-Serif" font-size="10.00">o2::alice_hlt::EventSampler</text>
</a>
</g>
</g>
<!-- Node1&#45;&gt;Node2 -->
<g id="edge1" class="edge"><title>Node1&#45;&gt;Node2</title>
<path fill="none" stroke="midnightblue" d="M43.7021,-337.738C51.9247,-394.96 78.3973,-559.2 116,-596 119.936,-599.852 124.522,-602.964 129.459,-605.474"/>
<polygon fill="midnightblue" stroke="midnightblue" points="47.1226,-336.927 42.2648,-327.512 40.1908,-337.902 47.1226,-336.927"/>
</g>
<!-- Node3 -->
<g id="node3" class="node"><title>Node3</title>
<g id="a_node3"><a xlink:href="d5/df3/classo2_1_1alice__hlt_1_1WrapperDevice.html" target="_top" xlink:title="o2::alice_hlt::WrapperDevice">
<polygon fill="none" stroke="black" points="122.5,-567.5 122.5,-586.5 265.5,-586.5 265.5,-567.5 122.5,-567.5"/>
<text text-anchor="middle" x="194" y="-574.5" font-family="Helvetica,sans-Serif" font-size="10.00">o2::alice_hlt::WrapperDevice</text>
</a>
</g>
</g>
<!-- Node1&#45;&gt;Node3 -->
<g id="edge2" class="edge"><title>Node1&#45;&gt;Node3</title>
<path fill="none" stroke="midnightblue" d="M41.0492,-338.169C42.3079,-384.248 52.1033,-497.885 116,-558 120.112,-561.868 124.881,-564.985 129.993,-567.491"/>
<polygon fill="midnightblue" stroke="midnightblue" points="44.5459,-337.926 40.8854,-327.984 37.5468,-338.039 44.5459,-337.926"/>
</g>
<!-- Node4 -->
<g id="node4" class="node"><title>Node4</title>
<g id="a_node4"><a xlink:href="da/df6/classo2_1_1Base_1_1O2Device.html" target="_top" xlink:title="o2::Base::O2Device">
<polygon fill="none" stroke="black" points="141.5,-529.5 141.5,-548.5 246.5,-548.5 246.5,-529.5 141.5,-529.5"/>
<text text-anchor="middle" x="194" y="-536.5" font-family="Helvetica,sans-Serif" font-size="10.00">o2::Base::O2Device</text>
</a>
</g>
</g>
<!-- Node1&#45;&gt;Node4 -->
<g id="edge3" class="edge"><title>Node1&#45;&gt;Node4</title>
<path fill="none" stroke="midnightblue" d="M42.407,-337.978C46.3776,-378.61 61.2659,-471.155 116,-520 123.088,-526.326 131.95,-530.622 141.113,-533.523"/>
<polygon fill="midnightblue" stroke="midnightblue" points="45.8732,-337.431 41.5374,-327.763 38.8984,-338.024 45.8732,-337.431"/>
</g>
<!-- Node13 -->
<g id="node13" class="node"><title>Node13</title>
<g id="a_node13"><a xlink:href="d1/d6f/classo2_1_1CDB_1_1ConditionsMQClient.html" target="_top" xlink:title="o2::CDB::ConditionsMQClient">
<polygon fill="none" stroke="black" points="119.5,-491.5 119.5,-510.5 268.5,-510.5 268.5,-491.5 119.5,-491.5"/>
<text text-anchor="middle" x="194" y="-498.5" font-family="Helvetica,sans-Serif" font-size="10.00">o2::CDB::ConditionsMQClient</text>
</a>
</g>
</g>
<!-- Node1&#45;&gt;Node13 -->
<g id="edge12" class="edge"><title>Node1&#45;&gt;Node13</title>
<path fill="none" stroke="midnightblue" d="M44.2973,-337.749C51.1546,-372.418 70.2974,-444.134 116,-482 120.665,-485.865 126.001,-488.963 131.64,-491.443"/>
<polygon fill="midnightblue" stroke="midnightblue" points="47.6671,-336.719 42.4222,-327.514 40.7817,-337.981 47.6671,-336.719"/>
</g>
<!-- Node14 -->
<g id="node14" class="node"><title>Node14</title>
<g id="a_node14"><a xlink:href="df/d95/classo2_1_1Devices_1_1EPNReceiver.html" target="_top" xlink:title="Receives sub&#45;timeframes from the flpSenders and merges these into full timeframes. ">
<polygon fill="none" stroke="black" points="126.5,-453.5 126.5,-472.5 261.5,-472.5 261.5,-453.5 126.5,-453.5"/>
<text text-anchor="middle" x="194" y="-460.5" font-family="Helvetica,sans-Serif" font-size="10.00">o2::Devices::EPNReceiver</text>
</a>
</g>
</g>
<!-- Node1&#45;&gt;Node14 -->
<g id="edge13" class="edge"><title>Node1&#45;&gt;Node14</title>
<path fill="none" stroke="midnightblue" d="M47.2451,-337.251C57.2394,-364.947 79.5034,-415.699 116,-443 121.862,-447.385 128.597,-450.811 135.592,-453.488"/>
<polygon fill="midnightblue" stroke="midnightblue" points="50.4706,-335.868 43.9091,-327.549 43.851,-338.144 50.4706,-335.868"/>
</g>
<!-- Node15 -->
<g id="node15" class="node"><title>Node15</title>
<g id="a_node15"><a xlink:href="d5/d70/classo2_1_1Devices_1_1EPNReceiverDevice.html" target="_top" xlink:title="Receives sub&#45;timeframes from the flpSenders and merges these into full timeframes. ">
<polygon fill="none" stroke="black" points="126.5,-404 126.5,-434 261.5,-434 261.5,-404 126.5,-404"/>
<text text-anchor="start" x="134.5" y="-422" font-family="Helvetica,sans-Serif" font-size="10.00">o2::Devices::EPNReceiver</text>
<text text-anchor="middle" x="194" y="-411" font-family="Helvetica,sans-Serif" font-size="10.00">Device</text>
</a>
</g>
</g>
<!-- Node1&#45;&gt;Node15 -->
<g id="edge14" class="edge"><title>Node1&#45;&gt;Node15</title>
<path fill="none" stroke="midnightblue" d="M54.2777,-335.719C67.9913,-352.873 90.8801,-378.496 116,-394 122.219,-397.839 129.089,-401.149 136.088,-403.988"/>
<polygon fill="midnightblue" stroke="midnightblue" points="56.8809,-333.365 47.9795,-327.619 51.3549,-337.662 56.8809,-333.365"/>
</g>
<!-- Node16 -->
<g id="node16" class="node"><title>Node16</title>
<g id="a_node16"><a xlink:href="da/d8b/classo2_1_1Devices_1_1FLPSender.html" target="_top" xlink:title="o2::Devices::FLPSender">
<polygon fill="none" stroke="black" points="132,-365.5 132,-384.5 256,-384.5 256,-365.5 132,-365.5"/>
<text text-anchor="middle" x="194" y="-372.5" font-family="Helvetica,sans-Serif" font-size="10.00">o2::Devices::FLPSender</text>
</a>
</g>
</g>
<!-- Node1&#45;&gt;Node16 -->
<g id="edge15" class="edge"><title>Node1&#45;&gt;Node16</title>
<path fill="none" stroke="midnightblue" d="M66.3379,-332.656C80.5757,-340.423 98.8775,-349.644 116,-356 125.81,-359.642 136.582,-362.796 146.88,-365.431"/>
<polygon fill="midnightblue" stroke="midnightblue" points="67.6343,-329.372 57.1948,-327.565 64.2286,-335.488 67.6343,-329.372"/>
</g>
<!-- Node17 -->
<g id="node17" class="node"><title>Node17</title>
<g id="a_node17"><a xlink:href="d3/db6/classo2_1_1Devices_1_1FLPSenderDevice.html" target="_top" xlink:title="o2::Devices::FLPSenderDevice">
<polygon fill="none" stroke="black" points="116.5,-327.5 116.5,-346.5 271.5,-346.5 271.5,-327.5 116.5,-327.5"/>
<text text-anchor="middle" x="194" y="-334.5" font-family="Helvetica,sans-Serif" font-size="10.00">o2::Devices::FLPSenderDevice</text>
</a>
</g>
</g>
<!-- Node1&#45;&gt;Node17 -->
<g id="edge16" class="edge"><title>Node1&#45;&gt;Node17</title>
<path fill="none" stroke="midnightblue" d="M90.2303,-324.154C98.736,-325.217 107.755,-326.344 116.777,-327.472"/>
<polygon fill="midnightblue" stroke="midnightblue" points="90.5007,-320.66 80.1438,-322.893 89.6324,-327.606 90.5007,-320.66"/>
</g>
<!-- Node18 -->
<g id="node18" class="node"><title>Node18</title>
<g id="a_node18"><a xlink:href="d9/dbe/classo2_1_1Devices_1_1FLPSyncSampler.html" target="_top" xlink:title="Publishes timeframes IDs for flpSenders (used only in test mode) ">
<polygon fill="none" stroke="black" points="118,-289.5 118,-308.5 270,-308.5 270,-289.5 118,-289.5"/>
<text text-anchor="middle" x="194" y="-296.5" font-family="Helvetica,sans-Serif" font-size="10.00">o2::Devices::FLPSyncSampler</text>
</a>
</g>
</g>
<!-- Node1&#45;&gt;Node18 -->
<g id="edge17" class="edge"><title>Node1&#45;&gt;Node18</title>
<path fill="none" stroke="midnightblue" d="M90.2654,-311.842C99.1347,-310.733 108.561,-309.555 117.967,-308.379"/>
<polygon fill="midnightblue" stroke="midnightblue" points="89.6324,-308.394 80.1438,-313.107 90.5007,-315.34 89.6324,-308.394"/>
</g>
<!-- Node19 -->
<g id="node19" class="node"><title>Node19</title>
<g id="a_node19"><a xlink:href="d4/d56/classo2_1_1framework_1_1DataProcessingDevice.html" target="_top" xlink:title="o2::framework::DataProcessing\lDevice">
<polygon fill="none" stroke="black" points="116.5,-240 116.5,-270 271.5,-270 271.5,-240 116.5,-240"/>
<text text-anchor="start" x="124.5" y="-258" font-family="Helvetica,sans-Serif" font-size="10.00">o2::framework::DataProcessing</text>
<text text-anchor="middle" x="194" y="-247" font-family="Helvetica,sans-Serif" font-size="10.00">Device</text>
</a>
</g>
</g>
<!-- Node1&#45;&gt;Node19 -->
<g id="edge18" class="edge"><title>Node1&#45;&gt;Node19</title>
<path fill="none" stroke="midnightblue" d="M67.085,-303.526C81.296,-295.963 99.3366,-286.878 116,-280 124.575,-276.461 133.846,-273.085 142.885,-270.023"/>
<polygon fill="midnightblue" stroke="midnightblue" points="65.0594,-300.642 57.9225,-308.472 68.3848,-306.802 65.0594,-300.642"/>
</g>
<!-- Node20 -->
<g id="node20" class="node"><title>Node20</title>
<g id="a_node20"><a xlink:href="de/d58/classo2_1_1framework_1_1DataSourceDevice.html" target="_top" xlink:title="o2::framework::DataSource\lDevice">
<polygon fill="none" stroke="black" points="125.5,-191 125.5,-221 262.5,-221 262.5,-191 125.5,-191"/>
<text text-anchor="start" x="133.5" y="-209" font-family="Helvetica,sans-Serif" font-size="10.00">o2::framework::DataSource</text>
<text text-anchor="middle" x="194" y="-198" font-family="Helvetica,sans-Serif" font-size="10.00">Device</text>
</a>
</g>
</g>
<!-- Node1&#45;&gt;Node20 -->
<g id="edge19" class="edge"><title>Node1&#45;&gt;Node20</title>
<path fill="none" stroke="midnightblue" d="M52.3054,-299.741C65.3618,-280.091 88.5973,-249.215 116,-231 121.735,-227.188 128.096,-223.919 134.633,-221.125"/>
<polygon fill="midnightblue" stroke="midnightblue" points="49.2131,-298.078 46.74,-308.38 55.0978,-301.869 49.2131,-298.078"/>
</g>
<!-- Node21 -->
<g id="node21" class="node"><title>Node21</title>
<g id="a_node21"><a xlink:href="df/d14/classo2_1_1qc_1_1MergerDevice.html" target="_top" xlink:title="o2::qc::MergerDevice">
<polygon fill="none" stroke="black" points="139,-152.5 139,-171.5 249,-171.5 249,-152.5 139,-152.5"/>
<text text-anchor="middle" x="194" y="-159.5" font-family="Helvetica,sans-Serif" font-size="10.00">o2::qc::MergerDevice</text>
</a>
</g>
</g>
<!-- Node1&#45;&gt;Node21 -->
<g id="edge20" class="edge"><title>Node1&#45;&gt;Node21</title>
<path fill="none" stroke="midnightblue" d="M46.2421,-298.743C55.3415,-269.05 76.9339,-212.349 116,-182 122.653,-176.831 130.508,-172.99 138.613,-170.138"/>
<polygon fill="midnightblue" stroke="midnightblue" points="42.8765,-297.783 43.4457,-308.362 49.5982,-299.737 42.8765,-297.783"/>
</g>
<!-- Node22 -->
<g id="node22" class="node"><title>Node22</title>
<g id="a_node22"><a xlink:href="d1/d14/classo2_1_1qc_1_1ProducerDevice.html" target="_top" xlink:title="o2::qc::ProducerDevice">
<polygon fill="none" stroke="black" points="134.5,-114.5 134.5,-133.5 253.5,-133.5 253.5,-114.5 134.5,-114.5"/>
<text text-anchor="middle" x="194" y="-121.5" font-family="Helvetica,sans-Serif" font-size="10.00">o2::qc::ProducerDevice</text>
</a>
</g>
</g>
<!-- Node1&#45;&gt;Node22 -->
<g id="edge21" class="edge"><title>Node1&#45;&gt;Node22</title>
<path fill="none" stroke="midnightblue" d="M43.7136,-297.956C49.7546,-261.405 67.797,-183.924 116,-143 121.353,-138.455 127.629,-134.967 134.248,-132.295"/>
<polygon fill="midnightblue" stroke="midnightblue" points="40.186,-297.876 42.1509,-308.287 47.1072,-298.923 40.186,-297.876"/>
</g>
<!-- Node23 -->
<g id="node23" class="node"><title>Node23</title>
<g id="a_node23"><a xlink:href="d9/dd9/classo2_1_1qc_1_1ViewerDevice.html" target="_top" xlink:title="o2::qc::ViewerDevice">
<polygon fill="none" stroke="black" points="139,-76.5 139,-95.5 249,-95.5 249,-76.5 139,-76.5"/>
<text text-anchor="middle" x="194" y="-83.5" font-family="Helvetica,sans-Serif" font-size="10.00">o2::qc::ViewerDevice</text>
</a>
</g>
</g>
<!-- Node1&#45;&gt;Node23 -->
<g id="edge22" class="edge"><title>Node1&#45;&gt;Node23</title>
<path fill="none" stroke="midnightblue" d="M41.9608,-298.098C45.1098,-255.919 58.5646,-157.137 116,-105 122.423,-99.1696 130.348,-95.0582 138.646,-92.1728"/>
<polygon fill="midnightblue" stroke="midnightblue" points="38.4606,-297.994 41.3286,-308.193 45.4469,-298.432 38.4606,-297.994"/>
</g>
<!-- Node24 -->
<g id="node24" class="node"><title>Node24</title>
<g id="a_node24"><a xlink:href="d3/d79/classO2EPNex.html" target="_top" xlink:title="O2EPNex">
<polygon fill="none" stroke="black" points="163.5,-38.5 163.5,-57.5 224.5,-57.5 224.5,-38.5 163.5,-38.5"/>
<text text-anchor="middle" x="194" y="-45.5" font-family="Helvetica,sans-Serif" font-size="10.00">O2EPNex</text>
</a>
</g>
</g>
<!-- Node1&#45;&gt;Node24 -->
<g id="edge23" class="edge"><title>Node1&#45;&gt;Node24</title>
<path fill="none" stroke="midnightblue" d="M40.719,-298.215C41.1793,-250.937 49.2271,-130.614 116,-67 128.561,-55.0331 147.41,-50.2434 163.315,-48.4648"/>
<polygon fill="midnightblue" stroke="midnightblue" points="37.2191,-298.351 40.7312,-308.347 44.219,-298.343 37.2191,-298.351"/>
</g>
<!-- Node25 -->
<g id="node25" class="node"><title>Node25</title>
<g id="a_node25"><a xlink:href="d4/d82/classO2FLPex.html" target="_top" xlink:title="O2FLPex">
<polygon fill="none" stroke="black" points="165,-0.5 165,-19.5 223,-19.5 223,-0.5 165,-0.5"/>
<text text-anchor="middle" x="194" y="-7.5" font-family="Helvetica,sans-Serif" font-size="10.00">O2FLPex</text>
</a>
</g>
</g>
<!-- Node1&#45;&gt;Node25 -->
<g id="edge24" class="edge"><title>Node1&#45;&gt;Node25</title>
<path fill="none" stroke="midnightblue" d="M43.4865,-298.253C51.2748,-239.502 77.0246,-67.5107 116,-29 128.733,-16.4191 148.39,-11.7161 164.656,-10.1343"/>
<polygon fill="midnightblue" stroke="midnightblue" points="39.9832,-298.053 42.1697,-308.42 46.9252,-298.952 39.9832,-298.053"/>
</g>
<!-- Node5 -->
<g id="node5" class="node"><title>Node5</title>
<g id="a_node5"><a xlink:href="d2/d4c/classo2_1_1DataFlow_1_1FakeTimeframeGeneratorDevice.html" target="_top" xlink:title="A device which writes to file the timeframes. ">
<polygon fill="none" stroke="black" points="316.5,-685 316.5,-715 465.5,-715 465.5,-685 316.5,-685"/>
<text text-anchor="start" x="324.5" y="-703" font-family="Helvetica,sans-Serif" font-size="10.00">o2::DataFlow::FakeTimeframe</text>
<text text-anchor="middle" x="391" y="-692" font-family="Helvetica,sans-Serif" font-size="10.00">GeneratorDevice</text>
</a>
</g>
</g>
<!-- Node4&#45;&gt;Node5 -->
<g id="edge4" class="edge"><title>Node4&#45;&gt;Node5</title>
<path fill="none" stroke="midnightblue" d="M256.165,-547.609C261.976,-550.259 267.403,-553.656 272,-558 311.544,-595.367 269.48,-636.579 308,-675 311.899,-678.889 316.384,-682.176 321.203,-684.954"/>
<polygon fill="midnightblue" stroke="midnightblue" points="257.374,-544.324 246.783,-544.031 254.88,-550.865 257.374,-544.324"/>
</g>
<!-- Node6 -->
<g id="node6" class="node"><title>Node6</title>
<g id="a_node6"><a xlink:href="d3/d5a/classo2_1_1DataFlow_1_1HeartbeatSampler.html" target="_top" xlink:title="A sampler for heartbeat triggers. ">
<polygon fill="none" stroke="black" points="311,-646.5 311,-665.5 471,-665.5 471,-646.5 311,-646.5"/>
<text text-anchor="middle" x="391" y="-653.5" font-family="Helvetica,sans-Serif" font-size="10.00">o2::DataFlow::HeartbeatSampler</text>
</a>
</g>
</g>
<!-- Node4&#45;&gt;Node6 -->
<g id="edge5" class="edge"><title>Node4&#45;&gt;Node6</title>
<path fill="none" stroke="midnightblue" d="M256.268,-548.539C261.938,-551.022 267.307,-554.125 272,-558 301.443,-582.308 278.524,-611.732 308,-636 313.204,-640.284 319.185,-643.675 325.496,-646.354"/>
<polygon fill="midnightblue" stroke="midnightblue" points="257.099,-545.115 246.506,-544.921 254.666,-551.678 257.099,-545.115"/>
</g>
<!-- Node7 -->
<g id="node7" class="node"><title>Node7</title>
<g id="a_node7"><a xlink:href="db/ded/classo2_1_1DataFlow_1_1SubframeBuilderDevice.html" target="_top" xlink:title="o2::DataFlow::SubframeBuilder\lDevice">
<polygon fill="none" stroke="black" points="314.5,-597 314.5,-627 467.5,-627 467.5,-597 314.5,-597"/>
<text text-anchor="start" x="322.5" y="-615" font-family="Helvetica,sans-Serif" font-size="10.00">o2::DataFlow::SubframeBuilder</text>
<text text-anchor="middle" x="391" y="-604" font-family="Helvetica,sans-Serif" font-size="10.00">Device</text>
</a>
</g>
</g>
<!-- Node4&#45;&gt;Node7 -->
<g id="edge6" class="edge"><title>Node4&#45;&gt;Node7</title>
<path fill="none" stroke="midnightblue" d="M256.408,-551.531C261.792,-553.41 267.065,-555.555 272,-558 290.41,-567.122 289.843,-577.385 308,-587 315.102,-590.761 322.857,-594.048 330.673,-596.893"/>
<polygon fill="midnightblue" stroke="midnightblue" points="257.234,-548.121 246.644,-548.429 255.115,-554.793 257.234,-548.121"/>
</g>
<!-- Node8 -->
<g id="node8" class="node"><title>Node8</title>
<g id="a_node8"><a xlink:href="d4/dea/classo2_1_1DataFlow_1_1TimeframeReaderDevice.html" target="_top" xlink:title="A device which writes to file the timeframes. ">
<polygon fill="none" stroke="black" points="311.5,-548 311.5,-578 470.5,-578 470.5,-548 311.5,-548"/>
<text text-anchor="start" x="319.5" y="-566" font-family="Helvetica,sans-Serif" font-size="10.00">o2::DataFlow::TimeframeReader</text>
<text text-anchor="middle" x="391" y="-555" font-family="Helvetica,sans-Serif" font-size="10.00">Device</text>
</a>
</g>
</g>
<!-- Node4&#45;&gt;Node8 -->
<g id="edge7" class="edge"><title>Node4&#45;&gt;Node8</title>
<path fill="none" stroke="midnightblue" d="M256.704,-546.594C273.997,-548.723 293.034,-551.066 311.175,-553.298"/>
<polygon fill="midnightblue" stroke="midnightblue" points="257.097,-543.116 246.744,-545.369 256.242,-550.064 257.097,-543.116"/>
</g>
<!-- Node9 -->
<g id="node9" class="node"><title>Node9</title>
<g id="a_node9"><a xlink:href="d8/d54/classo2_1_1DataFlow_1_1TimeframeValidatorDevice.html" target="_top" xlink:title="A validating device for time frame data (coming from EPN) ">
<polygon fill="none" stroke="black" points="308,-499 308,-529 474,-529 474,-499 308,-499"/>
<text text-anchor="start" x="316" y="-517" font-family="Helvetica,sans-Serif" font-size="10.00">o2::DataFlow::TimeframeValidator</text>
<text text-anchor="middle" x="391" y="-506" font-family="Helvetica,sans-Serif" font-size="10.00">Device</text>
</a>
</g>
</g>
<!-- Node4&#45;&gt;Node9 -->
<g id="edge8" class="edge"><title>Node4&#45;&gt;Node9</title>
<path fill="none" stroke="midnightblue" d="M257.101,-531.038C273.222,-528.972 290.837,-526.713 307.817,-524.536"/>
<polygon fill="midnightblue" stroke="midnightblue" points="256.218,-527.623 246.744,-532.366 257.108,-534.566 256.218,-527.623"/>
</g>
<!-- Node10 -->
<g id="node10" class="node"><title>Node10</title>
<g id="a_node10"><a xlink:href="d0/d3e/classo2_1_1DataFlow_1_1TimeframeWriterDevice.html" target="_top" xlink:title="A device which writes to file the timeframes. ">
<polygon fill="none" stroke="black" points="314,-450 314,-480 468,-480 468,-450 314,-450"/>
<text text-anchor="start" x="322" y="-468" font-family="Helvetica,sans-Serif" font-size="10.00">o2::DataFlow::TimeframeWriter</text>
<text text-anchor="middle" x="391" y="-457" font-family="Helvetica,sans-Serif" font-size="10.00">Device</text>
</a>
</g>
</g>
<!-- Node4&#45;&gt;Node10 -->
<g id="edge9" class="edge"><title>Node4&#45;&gt;Node10</title>
<path fill="none" stroke="midnightblue" d="M256.452,-526.556C261.827,-524.659 267.085,-522.486 272,-520 290.585,-510.599 289.676,-499.9 308,-490 314.94,-486.251 322.521,-482.982 330.18,-480.156"/>
<polygon fill="midnightblue" stroke="midnightblue" points="255.154,-523.297 246.699,-529.681 257.291,-529.963 255.154,-523.297"/>
</g>
<!-- Node11 -->
<g id="node11" class="node"><title>Node11</title>
<g id="a_node11"><a xlink:href="d7/dd8/classo2_1_1utilities_1_1DataPublisherDevice.html" target="_top" xlink:title="o2::utilities::DataPublisher\lDevice">
<polygon fill="none" stroke="black" points="325.5,-401 325.5,-431 456.5,-431 456.5,-401 325.5,-401"/>
<text text-anchor="start" x="333.5" y="-419" font-family="Helvetica,sans-Serif" font-size="10.00">o2::utilities::DataPublisher</text>
<text text-anchor="middle" x="391" y="-408" font-family="Helvetica,sans-Serif" font-size="10.00">Device</text>
</a>
</g>
</g>
<!-- Node4&#45;&gt;Node11 -->
<g id="edge10" class="edge"><title>Node4&#45;&gt;Node11</title>
<path fill="none" stroke="midnightblue" d="M256.287,-529.484C261.954,-526.997 267.316,-523.886 272,-520 301.695,-495.363 278.981,-466.43 308,-441 313.149,-436.488 319.095,-432.79 325.386,-429.76"/>
<polygon fill="midnightblue" stroke="midnightblue" points="254.686,-526.345 246.53,-533.107 257.123,-532.907 254.686,-526.345"/>
</g>
<!-- Node12 -->
<g id="node12" class="node"><title>Node12</title>
<g id="a_node12"><a xlink:href="de/d01/classO2MessageMonitor.html" target="_top" xlink:title="O2MessageMonitor">
<polygon fill="none" stroke="black" points="340.5,-362.5 340.5,-381.5 441.5,-381.5 441.5,-362.5 340.5,-362.5"/>
<text text-anchor="middle" x="391" y="-369.5" font-family="Helvetica,sans-Serif" font-size="10.00">O2MessageMonitor</text>
</a>
</g>
</g>
<!-- Node4&#45;&gt;Node12 -->
<g id="edge11" class="edge"><title>Node4&#45;&gt;Node12</title>
<path fill="none" stroke="midnightblue" d="M256.024,-530.617C261.909,-527.93 267.391,-524.463 272,-520 314.456,-478.892 265.489,-433.051 308,-392 316.749,-383.551 328.444,-378.479 340.256,-375.481"/>
<polygon fill="midnightblue" stroke="midnightblue" points="254.62,-527.406 246.514,-534.228 257.105,-533.951 254.62,-527.406"/>
</g>
</g>
</svg>
