<?xml version="1.0" encoding="UTF-8" standalone="no"?>
<!DOCTYPE svg PUBLIC "-//W3C//DTD SVG 1.1//EN"
 "http://www.w3.org/Graphics/SVG/1.1/DTD/svg11.dtd">
<!-- Generated by graphviz version 2.36.0 (20140111.2315)
 -->
<!-- Title: /home/travis/build/AliceO2Group/AliceO2/Detectors/ITSMFT/common/reconstruction/include/ITSMFTReconstruction/BuildTopologyDictionary.h Pages: 1 -->
<!--zoomable 560 -->
<svg id="main" version="1.1" xmlns="http://www.w3.org/2000/svg" xmlns:xlink="http://www.w3.org/1999/xlink" xml:space="preserve" onload="init(evt)">
<style type="text/css"><![CDATA[
.edge:hover path { stroke: red; }
.edge:hover polygon { stroke: red; fill: red; }
]]></style>
<script type="text/javascript"><![CDATA[
var edges = document.getElementsByTagName('g');
if (edges && edges.length) {
  for (var i=0;i<edges.length;i++) {
    if (edges[i].id.substr(0,4)=='edge') {
      edges[i].setAttribute('class','edge');
    }
  }
}
]]></script>
        <defs>
                <circle id="rim" cx="0" cy="0" r="7"/>
                <circle id="rim2" cx="0" cy="0" r="3.5"/>
                <g id="zoomPlus">
                        <use xlink:href="#rim" fill="#404040">
                                <set attributeName="fill" to="#808080" begin="zoomplus.mouseover" end="zoomplus.mouseout"/>
                        </use>
                        <path d="M-4,0h8M0,-4v8" fill="none" stroke="white" stroke-width="1.5" pointer-events="none"/>
                </g>
                <g id="zoomMin">
                        <use xlink:href="#rim" fill="#404040">
                                <set attributeName="fill" to="#808080" begin="zoomminus.mouseover" end="zoomminus.mouseout"/>
                        </use>
                        <path d="M-4,0h8" fill="none" stroke="white" stroke-width="1.5" pointer-events="none"/>
                </g>
                <g id="dirArrow">
                        <path fill="none" stroke="white" stroke-width="1.5" d="M0,-3.0v7 M-2.5,-0.5L0,-3.0L2.5,-0.5"/>
                </g>
               <g id="resetDef">
                       <use xlink:href="#rim2" fill="#404040">
                               <set attributeName="fill" to="#808080" begin="reset.mouseover" end="reset.mouseout"/>
                       </use>
               </g>
        </defs>

<script type="text/javascript">
var viewWidth = 1977;
var viewHeight = 560;
var sectionId = 'dynsection-0';
</script>
<script xlink:href="../../svgpan.js"/>
<svg id="graph" class="graph">
<g id="viewport">
<title>/home/travis/build/AliceO2Group/AliceO2/Detectors/ITSMFT/common/reconstruction/include/ITSMFTReconstruction/BuildTopologyDictionary.h</title>
<!-- Node1 -->
<g id="node1" class="node"><title>Node1</title>
<polygon fill="#bfbfbf" stroke="black" points="367,-477 367,-551 553,-551 553,-477 367,-477"/>
<text text-anchor="start" x="375" y="-539" font-family="Helvetica,sans-Serif" font-size="10.00">/home/travis/build</text>
<text text-anchor="start" x="375" y="-528" font-family="Helvetica,sans-Serif" font-size="10.00">/AliceO2Group/AliceO2</text>
<text text-anchor="start" x="375" y="-517" font-family="Helvetica,sans-Serif" font-size="10.00">/Detectors/ITSMFT/common</text>
<text text-anchor="start" x="375" y="-506" font-family="Helvetica,sans-Serif" font-size="10.00">/reconstruction/include</text>
<text text-anchor="start" x="375" y="-495" font-family="Helvetica,sans-Serif" font-size="10.00">/ITSMFTReconstruction/BuildTopology</text>
<text text-anchor="middle" x="460" y="-484" font-family="Helvetica,sans-Serif" font-size="10.00">Dictionary.h</text>
</g>
<!-- Node2 -->
<g id="node2" class="node"><title>Node2</title>
<polygon fill="none" stroke="#bfbfbf" points="0,-414.5 0,-433.5 56,-433.5 56,-414.5 0,-414.5"/>
<text text-anchor="middle" x="28" y="-421.5" font-family="Helvetica,sans-Serif" font-size="10.00">algorithm</text>
</g>
<!-- Node1&#45;&gt;Node2 -->
<g id="edge1" class="edge"><title>Node1&#45;&gt;Node2</title>
<path fill="none" stroke="midnightblue" d="M366.877,-499.81C287.276,-487.529 170.078,-467.055 70,-440 66.6085,-439.083 63.0997,-438.02 59.6219,-436.891"/>
<polygon fill="midnightblue" stroke="midnightblue" points="60.6198,-433.534 50.0252,-433.604 58.3512,-440.156 60.6198,-433.534"/>
</g>
<!-- Node3 -->
<g id="node3" class="node"><title>Node3</title>
<polygon fill="none" stroke="#bfbfbf" points="257,-6.5 257,-25.5 295,-25.5 295,-6.5 257,-6.5"/>
<text text-anchor="middle" x="276" y="-13.5" font-family="Helvetica,sans-Serif" font-size="10.00">array</text>
</g>
<!-- Node1&#45;&gt;Node3 -->
<g id="edge2" class="edge"><title>Node1&#45;&gt;Node3</title>
<path fill="none" stroke="midnightblue" d="M366.573,-493.604C255.216,-467.739 84,-418.044 84,-357 84,-357 84,-357 84,-151 84,-72.4971 193.269,-36.1776 246.944,-23.0726"/>
<polygon fill="midnightblue" stroke="midnightblue" points="247.943,-26.4334 256.888,-20.7555 246.355,-19.616 247.943,-26.4334"/>
</g>
<!-- Node4 -->
<g id="node4" class="node"><title>Node4</title>
<g id="a_node4"><a xlink:href="../../d3/dba/SegmentationAlpide_8h.html" target="_top" xlink:title="Definition of the SegmentationAlpide class. ">
<polygon fill="none" stroke="black" points="112.5,-346.5 112.5,-365.5 285.5,-365.5 285.5,-346.5 112.5,-346.5"/>
<text text-anchor="middle" x="199" y="-353.5" font-family="Helvetica,sans-Serif" font-size="10.00">ITSMFTBase/SegmentationAlpide.h</text>
</a>
</g>
</g>
<!-- Node1&#45;&gt;Node4 -->
<g id="edge3" class="edge"><title>Node1&#45;&gt;Node4</title>
<path fill="none" stroke="midnightblue" d="M399.465,-476.818C342.864,-442.987 261.33,-394.255 221.975,-370.732"/>
<polygon fill="midnightblue" stroke="midnightblue" points="223.737,-367.708 213.358,-365.582 220.146,-373.716 223.737,-367.708"/>
</g>
<!-- Node6 -->
<g id="node6" class="node"><title>Node6</title>
<g id="a_node6"><a xlink:href="../../d8/ddb/ClusterTopology_8h.html" target="_top" xlink:title="Definition of the ClusterTopology class. ">
<polygon fill="none" stroke="black" points="517.5,-409 517.5,-439 636.5,-439 636.5,-409 517.5,-409"/>
<text text-anchor="start" x="525.5" y="-427" font-family="Helvetica,sans-Serif" font-size="10.00">ITSMFTReconstruction</text>
<text text-anchor="middle" x="577" y="-416" font-family="Helvetica,sans-Serif" font-size="10.00">/ClusterTopology.h</text>
</a>
</g>
</g>
<!-- Node1&#45;&gt;Node6 -->
<g id="edge5" class="edge"><title>Node1&#45;&gt;Node6</title>
<path fill="none" stroke="midnightblue" d="M507.926,-476.953C522.283,-466.155 537.519,-454.695 550.018,-445.294"/>
<polygon fill="midnightblue" stroke="midnightblue" points="552.302,-447.956 558.19,-439.148 548.094,-442.362 552.302,-447.956"/>
</g>
<!-- Node35 -->
<g id="node35" class="node"><title>Node35</title>
<g id="a_node35"><a xlink:href="../../d1/d08/TopologyDictionary_8h.html" target="_top" xlink:title="Definition of the ClusterTopology class. ">
<polygon fill="none" stroke="black" points="1118.5,-205 1118.5,-235 1237.5,-235 1237.5,-205 1118.5,-205"/>
<text text-anchor="start" x="1126.5" y="-223" font-family="Helvetica,sans-Serif" font-size="10.00">ITSMFTReconstruction</text>
<text text-anchor="middle" x="1178" y="-212" font-family="Helvetica,sans-Serif" font-size="10.00">/TopologyDictionary.h</text>
</a>
</g>
</g>
<!-- Node1&#45;&gt;Node35 -->
<g id="edge46" class="edge"><title>Node1&#45;&gt;Node35</title>
<path fill="none" stroke="midnightblue" d="M553.007,-502.65C710.084,-483.564 1019.14,-438.592 1104,-372 1145.03,-339.801 1164.84,-278.998 1173.05,-245.2"/>
<polygon fill="midnightblue" stroke="midnightblue" points="1176.51,-245.774 1175.33,-235.246 1169.69,-244.215 1176.51,-245.774"/>
</g>
<!-- Node38 -->
<g id="node38" class="node"><title>Node38</title>
<polygon fill="none" stroke="#bfbfbf" points="1156,-414.5 1156,-433.5 1206,-433.5 1206,-414.5 1156,-414.5"/>
<text text-anchor="middle" x="1181" y="-421.5" font-family="Helvetica,sans-Serif" font-size="10.00">TH1F.h</text>
</g>
<!-- Node1&#45;&gt;Node38 -->
<g id="edge53" class="edge"><title>Node1&#45;&gt;Node38</title>
<path fill="none" stroke="midnightblue" d="M553.137,-510.685C685.674,-505.673 935.525,-489.851 1142,-440 1145.24,-439.217 1148.58,-438.231 1151.87,-437.14"/>
<polygon fill="midnightblue" stroke="midnightblue" points="1153.27,-440.355 1161.48,-433.652 1150.88,-433.776 1153.27,-440.355"/>
</g>
<!-- Node5 -->
<g id="node5" class="node"><title>Node5</title>
<polygon fill="none" stroke="#bfbfbf" points="304,-74.5 304,-93.5 360,-93.5 360,-74.5 304,-74.5"/>
<text text-anchor="middle" x="332" y="-81.5" font-family="Helvetica,sans-Serif" font-size="10.00">Rtypes.h</text>
</g>
<!-- Node4&#45;&gt;Node5 -->
<g id="edge4" class="edge"><title>Node4&#45;&gt;Node5</title>
<path fill="none" stroke="midnightblue" d="M203.275,-346.322C222.074,-308.158 297.609,-154.816 323.354,-102.552"/>
<polygon fill="midnightblue" stroke="midnightblue" points="326.529,-104.028 327.808,-93.5106 320.249,-100.935 326.529,-104.028"/>
</g>
<!-- Node6&#45;&gt;Node3 -->
<g id="edge7" class="edge"><title>Node6&#45;&gt;Node3</title>
<path fill="none" stroke="midnightblue" d="M552.047,-408.848C536.529,-399.439 516.626,-386.229 501,-372 385.626,-266.938 334.018,-246.022 279,-100 271.152,-79.1699 271.678,-53.2798 273.333,-36.007"/>
<polygon fill="midnightblue" stroke="midnightblue" points="276.865,-35.9367 274.569,-25.5937 269.914,-35.1111 276.865,-35.9367"/>
</g>
<!-- Node6&#45;&gt;Node5 -->
<g id="edge6" class="edge"><title>Node6&#45;&gt;Node5</title>
<path fill="none" stroke="midnightblue" d="M563.997,-408.845C530.034,-371.443 436.943,-266.113 374,-168 360.279,-146.613 347.559,-120.161 339.792,-102.95"/>
<polygon fill="midnightblue" stroke="midnightblue" points="342.881,-101.282 335.632,-93.5559 336.481,-104.117 342.881,-101.282"/>
</g>
<!-- Node7 -->
<g id="node7" class="node"><title>Node7</title>
<polygon fill="none" stroke="#bfbfbf" points="1915,-74.5 1915,-93.5 1969,-93.5 1969,-74.5 1915,-74.5"/>
<text text-anchor="middle" x="1942" y="-81.5" font-family="Helvetica,sans-Serif" font-size="10.00">iostream</text>
</g>
<!-- Node6&#45;&gt;Node7 -->
<g id="edge8" class="edge"><title>Node6&#45;&gt;Node7</title>
<path fill="none" stroke="midnightblue" d="M636.6,-419.992C771.781,-411.543 1090,-381.799 1090,-289 1090,-289 1090,-289 1090,-219 1090,-181.055 1080.73,-160.146 1110,-136 1178.3,-79.6601 1819.6,-119.32 1906,-100 1909.07,-99.3129 1912.22,-98.3806 1915.3,-97.3147"/>
<polygon fill="midnightblue" stroke="midnightblue" points="1916.79,-100.494 1924.82,-93.5917 1914.24,-93.9745 1916.79,-100.494"/>
</g>
<!-- Node8 -->
<g id="node8" class="node"><title>Node8</title>
<polygon fill="none" stroke="#bfbfbf" points="1118.5,-142.5 1118.5,-161.5 1159.5,-161.5 1159.5,-142.5 1118.5,-142.5"/>
<text text-anchor="middle" x="1139" y="-149.5" font-family="Helvetica,sans-Serif" font-size="10.00">string</text>
</g>
<!-- Node6&#45;&gt;Node8 -->
<g id="edge9" class="edge"><title>Node6&#45;&gt;Node8</title>
<path fill="none" stroke="midnightblue" d="M636.589,-409.164C672.328,-400.141 718.384,-387.227 758,-372 885.274,-323.08 917.605,-308.635 1033,-236 1066.06,-215.192 1101.13,-186.178 1121.5,-168.541"/>
<polygon fill="midnightblue" stroke="midnightblue" points="1124.05,-170.954 1129.28,-161.736 1119.45,-165.686 1124.05,-170.954"/>
</g>
<!-- Node9 -->
<g id="node9" class="node"><title>Node9</title>
<g id="a_node9"><a xlink:href="../../dc/de1/ITSMFT_2common_2reconstruction_2include_2ITSMFTReconstruction_2Cluster_8h.html" target="_top" xlink:title="ITSMFTReconstruction\l/Cluster.h">
<polygon fill="none" stroke="black" points="630.5,-341 630.5,-371 749.5,-371 749.5,-341 630.5,-341"/>
<text text-anchor="start" x="638.5" y="-359" font-family="Helvetica,sans-Serif" font-size="10.00">ITSMFTReconstruction</text>
<text text-anchor="middle" x="690" y="-348" font-family="Helvetica,sans-Serif" font-size="10.00">/Cluster.h</text>
</a>
</g>
</g>
<!-- Node6&#45;&gt;Node9 -->
<g id="edge10" class="edge"><title>Node6&#45;&gt;Node9</title>
<path fill="none" stroke="midnightblue" d="M601.241,-408.841C617.477,-399.359 639.057,-386.754 656.873,-376.348"/>
<polygon fill="midnightblue" stroke="midnightblue" points="658.929,-379.201 665.799,-371.135 655.398,-373.156 658.929,-379.201"/>
</g>
<!-- Node10 -->
<g id="node10" class="node"><title>Node10</title>
<g id="a_node10"><a xlink:href="../../d4/de2/BaseCluster_8h.html" target="_top" xlink:title="ReconstructionDataFormats\l/BaseCluster.h">
<polygon fill="none" stroke="black" points="732,-273 732,-303 872,-303 872,-273 732,-273"/>
<text text-anchor="start" x="740" y="-291" font-family="Helvetica,sans-Serif" font-size="10.00">ReconstructionDataFormats</text>
<text text-anchor="middle" x="802" y="-280" font-family="Helvetica,sans-Serif" font-size="10.00">/BaseCluster.h</text>
</a>
</g>
</g>
<!-- Node9&#45;&gt;Node10 -->
<g id="edge11" class="edge"><title>Node9&#45;&gt;Node10</title>
<path fill="none" stroke="midnightblue" d="M714.027,-340.841C730.119,-331.359 751.508,-318.754 769.167,-308.348"/>
<polygon fill="midnightblue" stroke="midnightblue" points="771.174,-311.228 778.013,-303.135 767.621,-305.197 771.174,-311.228"/>
</g>
<!-- Node10&#45;&gt;Node7 -->
<g id="edge16" class="edge"><title>Node10&#45;&gt;Node7</title>
<path fill="none" stroke="midnightblue" d="M804.481,-272.914C808.529,-254.248 818.384,-221.628 840,-204 895.144,-159.03 928.1,-189.276 996,-168 1032.54,-156.55 1038.56,-144.055 1076,-136 1436.98,-58.3337 1545.59,-180.243 1906,-100 1909.07,-99.3158 1912.22,-98.3852 1915.31,-97.3204"/>
<polygon fill="midnightblue" stroke="midnightblue" points="1916.79,-100.5 1924.83,-93.5985 1914.24,-93.9802 1916.79,-100.5"/>
</g>
<!-- Node11 -->
<g id="node11" class="node"><title>Node11</title>
<polygon fill="none" stroke="#bfbfbf" points="896.5,-210.5 896.5,-229.5 955.5,-229.5 955.5,-210.5 896.5,-210.5"/>
<text text-anchor="middle" x="926" y="-217.5" font-family="Helvetica,sans-Serif" font-size="10.00">TObject.h</text>
</g>
<!-- Node10&#45;&gt;Node11 -->
<g id="edge12" class="edge"><title>Node10&#45;&gt;Node11</title>
<path fill="none" stroke="midnightblue" d="M828.601,-272.841C849.953,-261.476 879.729,-245.628 900.723,-234.454"/>
<polygon fill="midnightblue" stroke="midnightblue" points="902.506,-237.47 909.689,-229.682 899.217,-231.291 902.506,-237.47"/>
</g>
<!-- Node12 -->
<g id="node12" class="node"><title>Node12</title>
<polygon fill="none" stroke="#bfbfbf" points="736.5,-74.5 736.5,-93.5 777.5,-93.5 777.5,-74.5 736.5,-74.5"/>
<text text-anchor="middle" x="757" y="-81.5" font-family="Helvetica,sans-Serif" font-size="10.00">bitset</text>
</g>
<!-- Node10&#45;&gt;Node12 -->
<g id="edge13" class="edge"><title>Node10&#45;&gt;Node12</title>
<path fill="none" stroke="midnightblue" d="M798.836,-272.796C790.88,-237.083 770.044,-143.552 761.136,-103.565"/>
<polygon fill="midnightblue" stroke="midnightblue" points="764.506,-102.597 758.915,-93.5969 757.673,-104.119 764.506,-102.597"/>
</g>
<!-- Node13 -->
<g id="node13" class="node"><title>Node13</title>
<polygon fill="none" stroke="#bfbfbf" points="974,-210.5 974,-229.5 1024,-229.5 1024,-210.5 974,-210.5"/>
<text text-anchor="middle" x="999" y="-217.5" font-family="Helvetica,sans-Serif" font-size="10.00">iomanip</text>
</g>
<!-- Node10&#45;&gt;Node13 -->
<g id="edge14" class="edge"><title>Node10&#45;&gt;Node13</title>
<path fill="none" stroke="midnightblue" d="M850.988,-272.968C883.347,-263.36 926.537,-249.885 964,-236 966.115,-235.216 968.289,-234.374 970.467,-233.505"/>
<polygon fill="midnightblue" stroke="midnightblue" points="971.986,-236.664 979.884,-229.601 969.306,-230.197 971.986,-236.664"/>
</g>
<!-- Node14 -->
<g id="node14" class="node"><title>Node14</title>
<polygon fill="none" stroke="#bfbfbf" points="849.5,-210.5 849.5,-229.5 878.5,-229.5 878.5,-210.5 849.5,-210.5"/>
<text text-anchor="middle" x="864" y="-217.5" font-family="Helvetica,sans-Serif" font-size="10.00">ios</text>
</g>
<!-- Node10&#45;&gt;Node14 -->
<g id="edge15" class="edge"><title>Node10&#45;&gt;Node14</title>
<path fill="none" stroke="midnightblue" d="M815.453,-272.679C825.216,-262.286 838.441,-248.208 848.622,-237.37"/>
<polygon fill="midnightblue" stroke="midnightblue" points="851.411,-239.513 855.707,-229.828 846.309,-234.72 851.411,-239.513"/>
</g>
<!-- Node15 -->
<g id="node15" class="node"><title>Node15</title>
<g id="a_node15"><a xlink:href="../../d4/d20/DetMatrixCache_8h.html" target="_top" xlink:title="DetectorsCommonDataFormats\l/DetMatrixCache.h">
<polygon fill="none" stroke="black" points="557,-205 557,-235 713,-235 713,-205 557,-205"/>
<text text-anchor="start" x="565" y="-223" font-family="Helvetica,sans-Serif" font-size="10.00">DetectorsCommonDataFormats</text>
<text text-anchor="middle" x="635" y="-212" font-family="Helvetica,sans-Serif" font-size="10.00">/DetMatrixCache.h</text>
</a>
</g>
</g>
<!-- Node10&#45;&gt;Node15 -->
<g id="edge17" class="edge"><title>Node10&#45;&gt;Node15</title>
<path fill="none" stroke="midnightblue" d="M766.174,-272.841C740.994,-262.89 707.115,-249.5 680.095,-238.822"/>
<polygon fill="midnightblue" stroke="midnightblue" points="681.066,-235.442 670.479,-235.022 678.493,-241.952 681.066,-235.442"/>
</g>
<!-- Node25 -->
<g id="node25" class="node"><title>Node25</title>
<g id="a_node25"><a xlink:href="../../dd/d76/Cartesian3D_8h.html" target="_top" xlink:title="MathUtils/Cartesian3D.h">
<polygon fill="none" stroke="black" points="801.5,-142.5 801.5,-161.5 926.5,-161.5 926.5,-142.5 801.5,-142.5"/>
<text text-anchor="middle" x="864" y="-149.5" font-family="Helvetica,sans-Serif" font-size="10.00">MathUtils/Cartesian3D.h</text>
</a>
</g>
</g>
<!-- Node10&#45;&gt;Node25 -->
<g id="edge45" class="edge"><title>Node10&#45;&gt;Node25</title>
<path fill="none" stroke="midnightblue" d="M799.733,-272.975C797.631,-255.79 796.251,-226.222 807,-204 814.305,-188.898 828.282,-176.281 840.566,-167.374"/>
<polygon fill="midnightblue" stroke="midnightblue" points="842.801,-170.087 849.093,-161.562 838.858,-164.303 842.801,-170.087"/>
</g>
<!-- Node15&#45;&gt;Node3 -->
<g id="edge19" class="edge"><title>Node15&#45;&gt;Node3</title>
<path fill="none" stroke="midnightblue" d="M556.782,-213.659C503.921,-207.666 433.7,-194.953 377,-168 334.24,-147.673 319.817,-140.32 295,-100 282.859,-80.2758 278.463,-53.605 276.878,-35.879"/>
<polygon fill="midnightblue" stroke="midnightblue" points="280.356,-35.4266 276.19,-25.685 273.372,-35.898 280.356,-35.4266"/>
</g>
<!-- Node15&#45;&gt;Node5 -->
<g id="edge44" class="edge"><title>Node15&#45;&gt;Node5</title>
<path fill="none" stroke="midnightblue" d="M556.878,-210.483C514.457,-203.452 462.207,-190.759 420,-168 388.882,-151.22 360.637,-120.619 344.942,-101.629"/>
<polygon fill="midnightblue" stroke="midnightblue" points="347.464,-99.179 338.468,-93.5811 342.01,-103.567 347.464,-99.179"/>
</g>
<!-- Node16 -->
<g id="node16" class="node"><title>Node16</title>
<polygon fill="none" stroke="#bfbfbf" points="429.5,-142.5 429.5,-161.5 500.5,-161.5 500.5,-142.5 429.5,-142.5"/>
<text text-anchor="middle" x="465" y="-149.5" font-family="Helvetica,sans-Serif" font-size="10.00">FairLogger.h</text>
</g>
<!-- Node15&#45;&gt;Node16 -->
<g id="edge18" class="edge"><title>Node15&#45;&gt;Node16</title>
<path fill="none" stroke="midnightblue" d="M598.531,-204.841C568.335,-193.118 525.85,-176.624 496.968,-165.411"/>
<polygon fill="midnightblue" stroke="midnightblue" points="497.951,-162.038 487.362,-161.682 495.418,-168.564 497.951,-162.038"/>
</g>
<!-- Node17 -->
<g id="node17" class="node"><title>Node17</title>
<polygon fill="none" stroke="#bfbfbf" points="944,-142.5 944,-161.5 988,-161.5 988,-142.5 944,-142.5"/>
<text text-anchor="middle" x="966" y="-149.5" font-family="Helvetica,sans-Serif" font-size="10.00">vector</text>
</g>
<!-- Node15&#45;&gt;Node17 -->
<g id="edge20" class="edge"><title>Node15&#45;&gt;Node17</title>
<path fill="none" stroke="midnightblue" d="M713.191,-211.821C774.586,-204.734 861.659,-191.455 935,-168 937.128,-167.319 939.296,-166.518 941.446,-165.645"/>
<polygon fill="midnightblue" stroke="midnightblue" points="942.911,-168.824 950.584,-161.518 940.03,-162.444 942.911,-168.824"/>
</g>
<!-- Node18 -->
<g id="node18" class="node"><title>Node18</title>
<g id="a_node18"><a xlink:href="../../d6/d31/DetID_8h.html" target="_top" xlink:title="DetectorsCommonDataFormats\l/DetID.h">
<polygon fill="none" stroke="black" points="557,-137 557,-167 713,-167 713,-137 557,-137"/>
<text text-anchor="start" x="565" y="-155" font-family="Helvetica,sans-Serif" font-size="10.00">DetectorsCommonDataFormats</text>
<text text-anchor="middle" x="635" y="-144" font-family="Helvetica,sans-Serif" font-size="10.00">/DetID.h</text>
</a>
</g>
</g>
<!-- Node15&#45;&gt;Node18 -->
<g id="edge21" class="edge"><title>Node15&#45;&gt;Node18</title>
<path fill="none" stroke="midnightblue" d="M635,-204.679C635,-196.722 635,-186.605 635,-177.436"/>
<polygon fill="midnightblue" stroke="midnightblue" points="638.5,-177.293 635,-167.293 631.5,-177.293 638.5,-177.293"/>
</g>
<!-- Node15&#45;&gt;Node25 -->
<g id="edge32" class="edge"><title>Node15&#45;&gt;Node25</title>
<path fill="none" stroke="midnightblue" d="M683.845,-204.922C725.808,-192.828 785.539,-175.613 824.531,-164.375"/>
<polygon fill="midnightblue" stroke="midnightblue" points="825.82,-167.646 834.46,-161.514 823.882,-160.92 825.82,-167.646"/>
</g>
<!-- Node18&#45;&gt;Node3 -->
<g id="edge23" class="edge"><title>Node18&#45;&gt;Node3</title>
<path fill="none" stroke="midnightblue" d="M556.762,-137.498C501.633,-127.233 433.16,-112.753 407,-100 386.846,-90.175 386.547,-80.598 368,-68 346.902,-53.6698 321.444,-39.7969 302.661,-30.1471"/>
<polygon fill="midnightblue" stroke="midnightblue" points="304.008,-26.9058 293.506,-25.5058 300.843,-33.1493 304.008,-26.9058"/>
</g>
<!-- Node18&#45;&gt;Node5 -->
<g id="edge22" class="edge"><title>Node18&#45;&gt;Node5</title>
<path fill="none" stroke="midnightblue" d="M556.893,-137.073C492.942,-125.422 407.725,-109.261 374,-100 370.612,-99.0697 367.106,-97.9979 363.629,-96.8641"/>
<polygon fill="midnightblue" stroke="midnightblue" points="364.629,-93.5068 354.034,-93.5701 362.356,-100.128 364.629,-93.5068"/>
</g>
<!-- Node18&#45;&gt;Node12 -->
<g id="edge24" class="edge"><title>Node18&#45;&gt;Node12</title>
<path fill="none" stroke="midnightblue" d="M661.172,-136.841C682.18,-125.476 711.475,-109.628 732.13,-98.454"/>
<polygon fill="midnightblue" stroke="midnightblue" points="733.822,-101.519 740.952,-93.6819 730.491,-95.3617 733.822,-101.519"/>
</g>
<!-- Node19 -->
<g id="node19" class="node"><title>Node19</title>
<polygon fill="none" stroke="#bfbfbf" points="604.5,-74.5 604.5,-93.5 653.5,-93.5 653.5,-74.5 604.5,-74.5"/>
<text text-anchor="middle" x="629" y="-81.5" font-family="Helvetica,sans-Serif" font-size="10.00">cassert</text>
</g>
<!-- Node18&#45;&gt;Node19 -->
<g id="edge25" class="edge"><title>Node18&#45;&gt;Node19</title>
<path fill="none" stroke="midnightblue" d="M633.698,-136.679C632.827,-127.101 631.672,-114.394 630.725,-103.977"/>
<polygon fill="midnightblue" stroke="midnightblue" points="634.194,-103.47 629.803,-93.8283 627.222,-104.104 634.194,-103.47"/>
</g>
<!-- Node20 -->
<g id="node20" class="node"><title>Node20</title>
<polygon fill="none" stroke="#bfbfbf" points="672,-74.5 672,-93.5 718,-93.5 718,-74.5 672,-74.5"/>
<text text-anchor="middle" x="695" y="-81.5" font-family="Helvetica,sans-Serif" font-size="10.00">cstdint</text>
</g>
<!-- Node18&#45;&gt;Node20 -->
<g id="edge26" class="edge"><title>Node18&#45;&gt;Node20</title>
<path fill="none" stroke="midnightblue" d="M648.019,-136.679C657.467,-126.286 670.265,-112.208 680.118,-101.37"/>
<polygon fill="midnightblue" stroke="midnightblue" points="682.837,-103.582 686.974,-93.8283 677.658,-98.8734 682.837,-103.582"/>
</g>
<!-- Node21 -->
<g id="node21" class="node"><title>Node21</title>
<polygon fill="none" stroke="#bfbfbf" points="416,-74.5 416,-93.5 478,-93.5 478,-74.5 416,-74.5"/>
<text text-anchor="middle" x="447" y="-81.5" font-family="Helvetica,sans-Serif" font-size="10.00">type_traits</text>
</g>
<!-- Node18&#45;&gt;Node21 -->
<g id="edge27" class="edge"><title>Node18&#45;&gt;Node21</title>
<path fill="none" stroke="midnightblue" d="M593.11,-136.9C563.416,-126.824 522.674,-112.833 487,-100 484.407,-99.0672 481.724,-98.0892 479.032,-97.0987"/>
<polygon fill="midnightblue" stroke="midnightblue" points="479.979,-93.7169 469.386,-93.5159 477.541,-100.279 479.979,-93.7169"/>
</g>
<!-- Node22 -->
<g id="node22" class="node"><title>Node22</title>
<g id="a_node22"><a xlink:href="../../d9/ded/Utils_8h.html" target="_top" xlink:title="General auxilliary methods. ">
<polygon fill="none" stroke="black" points="496,-74.5 496,-93.5 586,-93.5 586,-74.5 496,-74.5"/>
<text text-anchor="middle" x="541" y="-81.5" font-family="Helvetica,sans-Serif" font-size="10.00">MathUtils/Utils.h</text>
</a>
</g>
</g>
<!-- Node18&#45;&gt;Node22 -->
<g id="edge28" class="edge"><title>Node18&#45;&gt;Node22</title>
<path fill="none" stroke="midnightblue" d="M614.603,-136.679C598.986,-125.713 577.525,-110.645 561.806,-99.6085"/>
<polygon fill="midnightblue" stroke="midnightblue" points="563.498,-96.5198 553.302,-93.6379 559.475,-102.249 563.498,-96.5198"/>
</g>
<!-- Node22&#45;&gt;Node3 -->
<g id="edge29" class="edge"><title>Node22&#45;&gt;Node3</title>
<path fill="none" stroke="midnightblue" d="M510.206,-74.4384C502.326,-72.2925 493.859,-70.0256 486,-68 421.497,-51.375 345.456,-33.2795 304.906,-23.7497"/>
<polygon fill="midnightblue" stroke="midnightblue" points="305.69,-20.3385 295.155,-21.4623 304.091,-27.1536 305.69,-20.3385"/>
</g>
<!-- Node23 -->
<g id="node23" class="node"><title>Node23</title>
<polygon fill="none" stroke="#bfbfbf" points="454,-6.5 454,-25.5 498,-25.5 498,-6.5 454,-6.5"/>
<text text-anchor="middle" x="476" y="-13.5" font-family="Helvetica,sans-Serif" font-size="10.00">cmath</text>
</g>
<!-- Node22&#45;&gt;Node23 -->
<g id="edge30" class="edge"><title>Node22&#45;&gt;Node23</title>
<path fill="none" stroke="midnightblue" d="M532.502,-74.3717C522.243,-63.9547 504.775,-46.2173 491.971,-33.2162"/>
<polygon fill="midnightblue" stroke="midnightblue" points="494.218,-30.5101 484.707,-25.8411 489.23,-35.4219 494.218,-30.5101"/>
</g>
<!-- Node24 -->
<g id="node24" class="node"><title>Node24</title>
<g id="a_node24"><a xlink:href="../../d6/d84/MathConstants_8h.html" target="_top" xlink:title="useful math constants ">
<polygon fill="none" stroke="black" points="516.5,-6.5 516.5,-25.5 695.5,-25.5 695.5,-6.5 516.5,-6.5"/>
<text text-anchor="middle" x="606" y="-13.5" font-family="Helvetica,sans-Serif" font-size="10.00">CommonConstants/MathConstants.h</text>
</a>
</g>
</g>
<!-- Node22&#45;&gt;Node24 -->
<g id="edge31" class="edge"><title>Node22&#45;&gt;Node24</title>
<path fill="none" stroke="midnightblue" d="M549.498,-74.3717C559.757,-63.9547 577.225,-46.2173 590.029,-33.2162"/>
<polygon fill="midnightblue" stroke="midnightblue" points="592.77,-35.4219 597.293,-25.8411 587.782,-30.5101 592.77,-35.4219"/>
</g>
<!-- Node25&#45;&gt;Node5 -->
<g id="edge38" class="edge"><title>Node25&#45;&gt;Node5</title>
<path fill="none" stroke="midnightblue" d="M801.055,-144.281C684.858,-131.833 445.013,-105.911 407,-100 394.924,-98.1221 381.836,-95.6556 370.026,-93.2665"/>
<polygon fill="midnightblue" stroke="midnightblue" points="370.535,-89.7978 360.033,-91.2036 369.119,-96.6532 370.535,-89.7978"/>
</g>
<!-- Node25&#45;&gt;Node7 -->
<g id="edge40" class="edge"><title>Node25&#45;&gt;Node7</title>
<path fill="none" stroke="midnightblue" d="M898.468,-142.48C910.011,-139.959 922.996,-137.479 935,-136 1149.3,-109.587 1695.09,-146.262 1906,-100 1909.08,-99.3254 1912.22,-98.401 1915.31,-97.3398"/>
<polygon fill="midnightblue" stroke="midnightblue" points="1916.79,-100.52 1924.83,-93.6219 1914.24,-93.9994 1916.79,-100.52"/>
</g>
<!-- Node26 -->
<g id="node26" class="node"><title>Node26</title>
<polygon fill="none" stroke="#bfbfbf" points="890.5,-69 890.5,-99 1041.5,-99 1041.5,-69 890.5,-69"/>
<text text-anchor="start" x="898.5" y="-87" font-family="Helvetica,sans-Serif" font-size="10.00">Math/GenVector/Displacement</text>
<text text-anchor="middle" x="966" y="-76" font-family="Helvetica,sans-Serif" font-size="10.00">Vector3D.h</text>
</g>
<!-- Node25&#45;&gt;Node26 -->
<g id="edge33" class="edge"><title>Node25&#45;&gt;Node26</title>
<path fill="none" stroke="midnightblue" d="M877.335,-142.372C892.039,-132.857 916.181,-117.236 935.564,-104.694"/>
<polygon fill="midnightblue" stroke="midnightblue" points="937.589,-107.553 944.083,-99.1815 933.786,-101.676 937.589,-107.553"/>
</g>
<!-- Node27 -->
<g id="node27" class="node"><title>Node27</title>
<polygon fill="none" stroke="#bfbfbf" points="1202,-74.5 1202,-93.5 1378,-93.5 1378,-74.5 1202,-74.5"/>
<text text-anchor="middle" x="1290" y="-81.5" font-family="Helvetica,sans-Serif" font-size="10.00">Math/GenVector/PositionVector3D.h</text>
</g>
<!-- Node25&#45;&gt;Node27 -->
<g id="edge34" class="edge"><title>Node25&#45;&gt;Node27</title>
<path fill="none" stroke="midnightblue" d="M901.858,-142.492C912.546,-140.23 924.204,-137.891 935,-136 1049.04,-116.022 1078.45,-116.847 1193,-100 1203.65,-98.4338 1214.95,-96.7273 1225.93,-95.045"/>
<polygon fill="midnightblue" stroke="midnightblue" points="1226.54,-98.4917 1235.89,-93.5117 1225.48,-91.5731 1226.54,-98.4917"/>
</g>
<!-- Node28 -->
<g id="node28" class="node"><title>Node28</title>
<polygon fill="none" stroke="#bfbfbf" points="1395.5,-74.5 1395.5,-93.5 1544.5,-93.5 1544.5,-74.5 1395.5,-74.5"/>
<text text-anchor="middle" x="1470" y="-81.5" font-family="Helvetica,sans-Serif" font-size="10.00">Math/GenVector/Rotation3D.h</text>
</g>
<!-- Node25&#45;&gt;Node28 -->
<g id="edge35" class="edge"><title>Node25&#45;&gt;Node28</title>
<path fill="none" stroke="midnightblue" d="M899.959,-142.466C911.133,-140.067 923.529,-137.662 935,-136 1134,-107.158 1186.57,-125.704 1386,-100 1396.03,-98.7076 1406.68,-97.0381 1416.91,-95.2845"/>
<polygon fill="midnightblue" stroke="midnightblue" points="1417.72,-98.6959 1426.96,-93.5138 1416.5,-91.8021 1417.72,-98.6959"/>
</g>
<!-- Node29 -->
<g id="node29" class="node"><title>Node29</title>
<polygon fill="none" stroke="#bfbfbf" points="1563,-74.5 1563,-93.5 1719,-93.5 1719,-74.5 1563,-74.5"/>
<text text-anchor="middle" x="1641" y="-81.5" font-family="Helvetica,sans-Serif" font-size="10.00">Math/GenVector/Transform3D.h</text>
</g>
<!-- Node25&#45;&gt;Node29 -->
<g id="edge36" class="edge"><title>Node25&#45;&gt;Node29</title>
<path fill="none" stroke="midnightblue" d="M899.211,-142.471C910.572,-140.013 923.262,-137.573 935,-136 1207.7,-99.4617 1279.64,-131.163 1553,-100 1563.96,-98.7501 1575.64,-97.0351 1586.78,-95.2104"/>
<polygon fill="midnightblue" stroke="midnightblue" points="1587.54,-98.6306 1596.82,-93.514 1586.38,-91.7283 1587.54,-98.6306"/>
</g>
<!-- Node30 -->
<g id="node30" class="node"><title>Node30</title>
<polygon fill="none" stroke="#bfbfbf" points="1737,-74.5 1737,-93.5 1897,-93.5 1897,-74.5 1737,-74.5"/>
<text text-anchor="middle" x="1817" y="-81.5" font-family="Helvetica,sans-Serif" font-size="10.00">Math/GenVector/Translation3D.h</text>
</g>
<!-- Node25&#45;&gt;Node30 -->
<g id="edge37" class="edge"><title>Node25&#45;&gt;Node30</title>
<path fill="none" stroke="midnightblue" d="M898.837,-142.46C910.289,-139.969 923.128,-137.513 935,-136 1284.98,-91.3887 1377.18,-137.387 1728,-100 1739.33,-98.7928 1751.4,-97.0615 1762.88,-95.2011"/>
<polygon fill="midnightblue" stroke="midnightblue" points="1763.5,-98.6465 1772.78,-93.5429 1762.34,-91.7426 1763.5,-98.6465"/>
</g>
<!-- Node31 -->
<g id="node31" class="node"><title>Node31</title>
<polygon fill="none" stroke="#bfbfbf" points="796,-74.5 796,-93.5 872,-93.5 872,-74.5 796,-74.5"/>
<text text-anchor="middle" x="834" y="-81.5" font-family="Helvetica,sans-Serif" font-size="10.00">TGeoMatrix.h</text>
</g>
<!-- Node25&#45;&gt;Node31 -->
<g id="edge39" class="edge"><title>Node25&#45;&gt;Node31</title>
<path fill="none" stroke="midnightblue" d="M860.078,-142.372C855.566,-132.446 848.034,-115.874 842.221,-103.086"/>
<polygon fill="midnightblue" stroke="midnightblue" points="845.343,-101.496 838.019,-93.8411 838.97,-104.393 845.343,-101.496"/>
</g>
<!-- Node32 -->
<g id="node32" class="node"><title>Node32</title>
<g id="a_node32"><a xlink:href="../../d2/dd0/Cartesian2D_8h.html" target="_top" xlink:title="MathUtils/Cartesian2D.h">
<polygon fill="none" stroke="black" points="1059.5,-74.5 1059.5,-93.5 1184.5,-93.5 1184.5,-74.5 1059.5,-74.5"/>
<text text-anchor="middle" x="1122" y="-81.5" font-family="Helvetica,sans-Serif" font-size="10.00">MathUtils/Cartesian2D.h</text>
</a>
</g>
</g>
<!-- Node25&#45;&gt;Node32 -->
<g id="edge41" class="edge"><title>Node25&#45;&gt;Node32</title>
<path fill="none" stroke="midnightblue" d="M897.464,-142.439C943.864,-130.57 1027.78,-109.103 1078.84,-96.0406"/>
<polygon fill="midnightblue" stroke="midnightblue" points="1079.77,-99.4147 1088.59,-93.5455 1078.04,-92.6331 1079.77,-99.4147"/>
</g>
<!-- Node33 -->
<g id="node33" class="node"><title>Node33</title>
<polygon fill="none" stroke="#bfbfbf" points="955.5,-1 955.5,-31 1106.5,-31 1106.5,-1 955.5,-1"/>
<text text-anchor="start" x="963.5" y="-19" font-family="Helvetica,sans-Serif" font-size="10.00">Math/GenVector/Displacement</text>
<text text-anchor="middle" x="1031" y="-8" font-family="Helvetica,sans-Serif" font-size="10.00">Vector2D.h</text>
</g>
<!-- Node32&#45;&gt;Node33 -->
<g id="edge42" class="edge"><title>Node32&#45;&gt;Node33</title>
<path fill="none" stroke="midnightblue" d="M1110.1,-74.3717C1097.22,-65.0286 1076.22,-49.7966 1059.09,-37.375"/>
<polygon fill="midnightblue" stroke="midnightblue" points="1060.7,-34.2194 1050.55,-31.1815 1056.59,-39.8859 1060.7,-34.2194"/>
</g>
<!-- Node34 -->
<g id="node34" class="node"><title>Node34</title>
<polygon fill="none" stroke="#bfbfbf" points="1125,-6.5 1125,-25.5 1301,-25.5 1301,-6.5 1125,-6.5"/>
<text text-anchor="middle" x="1213" y="-13.5" font-family="Helvetica,sans-Serif" font-size="10.00">Math/GenVector/PositionVector2D.h</text>
</g>
<!-- Node32&#45;&gt;Node34 -->
<g id="edge43" class="edge"><title>Node32&#45;&gt;Node34</title>
<path fill="none" stroke="midnightblue" d="M1133.9,-74.3717C1148.88,-63.5015 1174.86,-44.6602 1192.94,-31.5474"/>
<polygon fill="midnightblue" stroke="midnightblue" points="1195.06,-34.3349 1201.1,-25.6305 1190.95,-28.6684 1195.06,-34.3349"/>
</g>
<!-- Node35&#45;&gt;Node5 -->
<g id="edge47" class="edge"><title>Node35&#45;&gt;Node5</title>
<path fill="none" stroke="midnightblue" d="M1118.43,-212.444C1092.24,-209.664 1061.11,-206.496 1033,-204 925.35,-194.439 648.34,-208.148 548,-168 527.183,-159.671 529.038,-146.059 509,-136 449.657,-106.21 426.581,-122.197 364,-100 362.092,-99.3232 360.144,-98.5716 358.198,-97.7757"/>
<polygon fill="midnightblue" stroke="midnightblue" points="359.243,-94.4109 348.681,-93.5692 356.413,-100.813 359.243,-94.4109"/>
</g>
<!-- Node35&#45;&gt;Node7 -->
<g id="edge49" class="edge"><title>Node35&#45;&gt;Node7</title>
<path fill="none" stroke="midnightblue" d="M1206.24,-204.828C1224.6,-195.213 1248.81,-181.784 1269,-168 1287.52,-155.359 1287.13,-144.184 1308,-136 1431.94,-87.4086 1776.3,-130.021 1906,-100 1909.07,-99.29 1912.21,-98.3431 1915.29,-97.2686"/>
<polygon fill="midnightblue" stroke="midnightblue" points="1916.78,-100.446 1924.81,-93.5362 1914.22,-93.929 1916.78,-100.446"/>
</g>
<!-- Node35&#45;&gt;Node8 -->
<g id="edge50" class="edge"><title>Node35&#45;&gt;Node8</title>
<path fill="none" stroke="midnightblue" d="M1169.54,-204.679C1163.64,-194.694 1155.73,-181.307 1149.44,-170.66"/>
<polygon fill="midnightblue" stroke="midnightblue" points="1152.32,-168.657 1144.22,-161.828 1146.29,-172.218 1152.32,-168.657"/>
</g>
<!-- Node35&#45;&gt;Node17 -->
<g id="edge52" class="edge"><title>Node35&#45;&gt;Node17</title>
<path fill="none" stroke="midnightblue" d="M1132.78,-204.922C1092.27,-192.311 1033.88,-174.131 998.015,-162.967"/>
<polygon fill="midnightblue" stroke="midnightblue" points="998.682,-159.509 988.093,-159.878 996.601,-166.192 998.682,-159.509"/>
</g>
<!-- Node36 -->
<g id="node36" class="node"><title>Node36</title>
<polygon fill="none" stroke="#bfbfbf" points="1317,-142.5 1317,-161.5 1367,-161.5 1367,-142.5 1317,-142.5"/>
<text text-anchor="middle" x="1342" y="-149.5" font-family="Helvetica,sans-Serif" font-size="10.00">fstream</text>
</g>
<!-- Node35&#45;&gt;Node36 -->
<g id="edge48" class="edge"><title>Node35&#45;&gt;Node36</title>
<path fill="none" stroke="midnightblue" d="M1213.18,-204.841C1242.19,-193.169 1282.94,-176.768 1310.79,-165.558"/>
<polygon fill="midnightblue" stroke="midnightblue" points="1312.46,-168.662 1320.43,-161.682 1309.84,-162.168 1312.46,-168.662"/>
</g>
<!-- Node37 -->
<g id="node37" class="node"><title>Node37</title>
<polygon fill="none" stroke="#bfbfbf" points="1177.5,-142.5 1177.5,-161.5 1260.5,-161.5 1260.5,-142.5 1177.5,-142.5"/>
<text text-anchor="middle" x="1219" y="-149.5" font-family="Helvetica,sans-Serif" font-size="10.00">unordered_map</text>
</g>
<!-- Node35&#45;&gt;Node37 -->
<g id="edge51" class="edge"><title>Node35&#45;&gt;Node37</title>
<path fill="none" stroke="midnightblue" d="M1186.9,-204.679C1193.16,-194.592 1201.59,-181.033 1208.23,-170.335"/>
<polygon fill="midnightblue" stroke="midnightblue" points="1211.21,-172.17 1213.52,-161.828 1205.27,-168.476 1211.21,-172.17"/>
</g>
</g>
</svg>
        <g id="navigator" transform="translate(0 0)" fill="#404254">
                <rect fill="#f2f5e9" fill-opacity="0.5" stroke="#606060" stroke-width=".5" x="0" y="0" width="60" height="60"/>
                <use id="zoomplus" xlink:href="#zoomPlus" x="17" y="9" onmousedown="handleZoom(evt,'in')"/>
                <use id="zoomminus" xlink:href="#zoomMin" x="42" y="9" onmousedown="handleZoom(evt,'out')"/>
                <use id="reset" xlink:href="#resetDef" x="30" y="36" onmousedown="handleReset()"/>
                <g id="arrowUp" xlink:href="#dirArrow" transform="translate(30 24)" onmousedown="handlePan(0,-1)">
                  <use xlink:href="#rim" fill="#404040">
                        <set attributeName="fill" to="#808080" begin="arrowUp.mouseover" end="arrowUp.mouseout"/>
                  </use>
                  <path fill="none" stroke="white" stroke-width="1.5" d="M0,-3.0v7 M-2.5,-0.5L0,-3.0L2.5,-0.5"/>
                </g>
                <g id="arrowRight" xlink:href="#dirArrow" transform="rotate(90) translate(36 -43)" onmousedown="handlePan(1,0)">
                  <use xlink:href="#rim" fill="#404040">
                        <set attributeName="fill" to="#808080" begin="arrowRight.mouseover" end="arrowRight.mouseout"/>
                  </use>
                  <path fill="none" stroke="white" stroke-width="1.5" d="M0,-3.0v7 M-2.5,-0.5L0,-3.0L2.5,-0.5"/>
                </g>
                <g id="arrowDown" xlink:href="#dirArrow" transform="rotate(180) translate(-30 -48)" onmousedown="handlePan(0,1)">
                  <use xlink:href="#rim" fill="#404040">
                        <set attributeName="fill" to="#808080" begin="arrowDown.mouseover" end="arrowDown.mouseout"/>
                  </use>
                  <path fill="none" stroke="white" stroke-width="1.5" d="M0,-3.0v7 M-2.5,-0.5L0,-3.0L2.5,-0.5"/>
                </g>
                <g id="arrowLeft" xlink:href="#dirArrow" transform="rotate(270) translate(-36 17)" onmousedown="handlePan(-1,0)">
                  <use xlink:href="#rim" fill="#404040">
                        <set attributeName="fill" to="#808080" begin="arrowLeft.mouseover" end="arrowLeft.mouseout"/>
                  </use>
                  <path fill="none" stroke="white" stroke-width="1.5" d="M0,-3.0v7 M-2.5,-0.5L0,-3.0L2.5,-0.5"/>
                </g>
        </g>
        <svg viewBox="0 0 15 15" width="100%" height="30px" preserveAspectRatio="xMaxYMin meet">
         <g id="arrow_out" transform="scale(0.3 0.3)">
          <a xlink:href="BuildTopologyDictionary_8h__incl_org.svg" target="_base">
           <rect id="button" ry="5" rx="5" y="6" x="6" height="38" width="38"
                fill="#f2f5e9" fill-opacity="0.5" stroke="#606060" stroke-width="1.0"/>
           <path id="arrow"
             d="M 11.500037,31.436501 C 11.940474,20.09759 22.043105,11.32322 32.158766,21.979434 L 37.068811,17.246167 C 37.068811,17.246167 37.088388,32 37.088388,32 L 22.160133,31.978069 C 22.160133,31.978069 26.997745,27.140456 26.997745,27.140456 C 18.528582,18.264221 13.291696,25.230495 11.500037,31.436501 z"
             style="fill:#404040;"/>
          </a>
         </g>
        </svg>
</svg>
