<?xml version="1.0" encoding="UTF-8" standalone="no"?>
<!DOCTYPE svg PUBLIC "-//W3C//DTD SVG 1.1//EN"
 "http://www.w3.org/Graphics/SVG/1.1/DTD/svg11.dtd">
<!-- Generated by graphviz version 2.36.0 (20140111.2315)
 -->
<!-- Title: /home/travis/build/AliceO2Group/AliceO2/Detectors/ITSMFT/ITS/reconstruction/include/ITSReconstruction/CookedTrackerTask.h Pages: 1 -->
<svg width="2492pt" height="628pt"
 viewBox="0.00 0.00 2492.41 628.00" xmlns="http://www.w3.org/2000/svg" xmlns:xlink="http://www.w3.org/1999/xlink">
<g id="graph0" class="graph" transform="scale(1 1) rotate(0) translate(4 624)">
<title>/home/travis/build/AliceO2Group/AliceO2/Detectors/ITSMFT/ITS/reconstruction/include/ITSReconstruction/CookedTrackerTask.h</title>
<!-- Node1 -->
<g id="node1" class="node"><title>Node1</title>
<polygon fill="#bfbfbf" stroke="black" points="1194.91,-545 1194.91,-619 1365.91,-619 1365.91,-545 1194.91,-545"/>
<text text-anchor="start" x="1202.91" y="-607" font-family="Helvetica,sans-Serif" font-size="10.00">/home/travis/build</text>
<text text-anchor="start" x="1202.91" y="-596" font-family="Helvetica,sans-Serif" font-size="10.00">/AliceO2Group/AliceO2</text>
<text text-anchor="start" x="1202.91" y="-585" font-family="Helvetica,sans-Serif" font-size="10.00">/Detectors/ITSMFT/ITS</text>
<text text-anchor="start" x="1202.91" y="-574" font-family="Helvetica,sans-Serif" font-size="10.00">/reconstruction/include</text>
<text text-anchor="start" x="1202.91" y="-563" font-family="Helvetica,sans-Serif" font-size="10.00">/ITSReconstruction/CookedTracker</text>
<text text-anchor="middle" x="1280.41" y="-552" font-family="Helvetica,sans-Serif" font-size="10.00">Task.h</text>
</g>
<!-- Node2 -->
<g id="node2" class="node"><title>Node2</title>
<polygon fill="none" stroke="#bfbfbf" points="1131.91,-482.5 1131.91,-501.5 1194.91,-501.5 1194.91,-482.5 1131.91,-482.5"/>
<text text-anchor="middle" x="1163.41" y="-489.5" font-family="Helvetica,sans-Serif" font-size="10.00">FairTask.h</text>
</g>
<!-- Node1&#45;&gt;Node2 -->
<g id="edge1" class="edge"><title>Node1&#45;&gt;Node2</title>
<path fill="none" stroke="midnightblue" d="M1232.49,-544.953C1215.09,-531.87 1196.41,-517.817 1182.86,-507.63"/>
<polygon fill="midnightblue" stroke="midnightblue" points="1184.87,-504.757 1174.77,-501.543 1180.66,-510.351 1184.87,-504.757"/>
</g>
<!-- Node3 -->
<g id="node3" class="node"><title>Node3</title>
<g id="a_node3"><a xlink:href="../../df/d9a/ITS_2base_2include_2ITSBase_2GeometryTGeo_8h.html" target="_top" xlink:title="ITSBase/GeometryTGeo.h">
<polygon fill="none" stroke="black" points="1423.91,-346.5 1423.91,-365.5 1556.91,-365.5 1556.91,-346.5 1423.91,-346.5"/>
<text text-anchor="middle" x="1490.41" y="-353.5" font-family="Helvetica,sans-Serif" font-size="10.00">ITSBase/GeometryTGeo.h</text>
</a>
</g>
</g>
<!-- Node1&#45;&gt;Node3 -->
<g id="edge2" class="edge"><title>Node1&#45;&gt;Node3</title>
<path fill="none" stroke="midnightblue" d="M1319.27,-544.821C1331.37,-533.254 1344.62,-520.266 1356.41,-508 1401.98,-460.6 1452.72,-401.584 1476.58,-373.43"/>
<polygon fill="midnightblue" stroke="midnightblue" points="1479.31,-375.627 1483.09,-365.73 1473.96,-371.108 1479.31,-375.627"/>
</g>
<!-- Node38 -->
<g id="node38" class="node"><title>Node38</title>
<g id="a_node38"><a xlink:href="../../d6/d0c/CookedTracker_8h.html" target="_top" xlink:title="Definition of the &quot;Cooked Matrix&quot; ITS tracker. ">
<polygon fill="none" stroke="black" points="1212.91,-477 1212.91,-507 1347.91,-507 1347.91,-477 1212.91,-477"/>
<text text-anchor="start" x="1220.91" y="-495" font-family="Helvetica,sans-Serif" font-size="10.00">ITSReconstruction/Cooked</text>
<text text-anchor="middle" x="1280.41" y="-484" font-family="Helvetica,sans-Serif" font-size="10.00">Tracker.h</text>
</a>
</g>
</g>
<!-- Node1&#45;&gt;Node38 -->
<g id="edge53" class="edge"><title>Node1&#45;&gt;Node38</title>
<path fill="none" stroke="midnightblue" d="M1280.41,-544.953C1280.41,-535.608 1280.41,-525.768 1280.41,-517.196"/>
<polygon fill="midnightblue" stroke="midnightblue" points="1283.91,-517.148 1280.41,-507.148 1276.91,-517.148 1283.91,-517.148"/>
</g>
<!-- Node4 -->
<g id="node4" class="node"><title>Node4</title>
<polygon fill="none" stroke="#bfbfbf" points="1209.41,-74.5 1209.41,-93.5 1285.41,-93.5 1285.41,-74.5 1209.41,-74.5"/>
<text text-anchor="middle" x="1247.41" y="-81.5" font-family="Helvetica,sans-Serif" font-size="10.00">TGeoMatrix.h</text>
</g>
<!-- Node3&#45;&gt;Node4 -->
<g id="edge3" class="edge"><title>Node3&#45;&gt;Node4</title>
<path fill="none" stroke="midnightblue" d="M1468.03,-346.463C1447.71,-337.928 1417.76,-323.303 1396.41,-304 1328.01,-242.141 1275.34,-142.805 1255.73,-102.67"/>
<polygon fill="midnightblue" stroke="midnightblue" points="1258.86,-101.097 1251.37,-93.5987 1252.55,-104.128 1258.86,-101.097"/>
</g>
<!-- Node5 -->
<g id="node5" class="node"><title>Node5</title>
<polygon fill="none" stroke="#bfbfbf" points="1384.91,-210.5 1384.91,-229.5 1443.91,-229.5 1443.91,-210.5 1384.91,-210.5"/>
<text text-anchor="middle" x="1414.41" y="-217.5" font-family="Helvetica,sans-Serif" font-size="10.00">TObject.h</text>
</g>
<!-- Node3&#45;&gt;Node5 -->
<g id="edge4" class="edge"><title>Node3&#45;&gt;Node5</title>
<path fill="none" stroke="midnightblue" d="M1485.43,-346.208C1473.08,-324.437 1440.89,-267.686 1424.43,-238.659"/>
<polygon fill="midnightblue" stroke="midnightblue" points="1427.3,-236.622 1419.32,-229.65 1421.21,-240.075 1427.3,-236.622"/>
</g>
<!-- Node6 -->
<g id="node6" class="node"><title>Node6</title>
<polygon fill="none" stroke="#bfbfbf" points="1574.41,-6.5 1574.41,-25.5 1612.41,-25.5 1612.41,-6.5 1574.41,-6.5"/>
<text text-anchor="middle" x="1593.41" y="-13.5" font-family="Helvetica,sans-Serif" font-size="10.00">array</text>
</g>
<!-- Node3&#45;&gt;Node6 -->
<g id="edge5" class="edge"><title>Node3&#45;&gt;Node6</title>
<path fill="none" stroke="midnightblue" d="M1557.23,-355.349C1733.14,-355.588 2205.66,-351.639 2353.41,-304 2419.01,-282.85 2484.41,-289.925 2484.41,-221 2484.41,-221 2484.41,-221 2484.41,-151 2484.41,-61.7304 1775.98,-25.1178 1622.51,-18.2338"/>
<polygon fill="midnightblue" stroke="midnightblue" points="1622.58,-14.7336 1612.43,-17.7892 1622.27,-21.7268 1622.58,-14.7336"/>
</g>
<!-- Node7 -->
<g id="node7" class="node"><title>Node7</title>
<polygon fill="none" stroke="#bfbfbf" points="2289.91,-210.5 2289.91,-229.5 2330.91,-229.5 2330.91,-210.5 2289.91,-210.5"/>
<text text-anchor="middle" x="2310.41" y="-217.5" font-family="Helvetica,sans-Serif" font-size="10.00">string</text>
</g>
<!-- Node3&#45;&gt;Node7 -->
<g id="edge6" class="edge"><title>Node3&#45;&gt;Node7</title>
<path fill="none" stroke="midnightblue" d="M1557.21,-354.015C1732.99,-350.94 2199.02,-339.499 2258.41,-304 2282.55,-289.573 2297.2,-259.149 2304.55,-239.416"/>
<polygon fill="midnightblue" stroke="midnightblue" points="2307.94,-240.318 2307.9,-229.723 2301.33,-238.034 2307.94,-240.318"/>
</g>
<!-- Node8 -->
<g id="node8" class="node"><title>Node8</title>
<polygon fill="none" stroke="#bfbfbf" points="1374.41,-142.5 1374.41,-161.5 1418.41,-161.5 1418.41,-142.5 1374.41,-142.5"/>
<text text-anchor="middle" x="1396.41" y="-149.5" font-family="Helvetica,sans-Serif" font-size="10.00">vector</text>
</g>
<!-- Node3&#45;&gt;Node8 -->
<g id="edge7" class="edge"><title>Node3&#45;&gt;Node8</title>
<path fill="none" stroke="midnightblue" d="M1489.95,-346.153C1488.33,-321.776 1481.29,-252.247 1452.41,-204 1443.72,-189.473 1429.6,-176.658 1417.72,-167.508"/>
<polygon fill="midnightblue" stroke="midnightblue" points="1419.7,-164.621 1409.57,-161.52 1415.56,-170.262 1419.7,-164.621"/>
</g>
<!-- Node9 -->
<g id="node9" class="node"><title>Node9</title>
<g id="a_node9"><a xlink:href="../../db/dcc/Detectors_2Base_2include_2DetectorsBase_2GeometryManager_8h.html" target="_top" xlink:title="DetectorsBase/GeometryManager.h">
<polygon fill="none" stroke="black" points="1894.91,-278.5 1894.91,-297.5 2067.91,-297.5 2067.91,-278.5 1894.91,-278.5"/>
<text text-anchor="middle" x="1981.41" y="-285.5" font-family="Helvetica,sans-Serif" font-size="10.00">DetectorsBase/GeometryManager.h</text>
</a>
</g>
</g>
<!-- Node3&#45;&gt;Node9 -->
<g id="edge8" class="edge"><title>Node3&#45;&gt;Node9</title>
<path fill="none" stroke="midnightblue" d="M1553.85,-346.473C1644.86,-334.239 1812.09,-311.76 1908.22,-298.838"/>
<polygon fill="midnightblue" stroke="midnightblue" points="1908.71,-302.304 1918.15,-297.503 1907.78,-295.367 1908.71,-302.304"/>
</g>
<!-- Node15 -->
<g id="node15" class="node"><title>Node15</title>
<g id="a_node15"><a xlink:href="../../d6/d31/DetID_8h.html" target="_top" xlink:title="DetectorsCommonDataFormats\l/DetID.h">
<polygon fill="none" stroke="black" points="1711.41,-137 1711.41,-167 1867.41,-167 1867.41,-137 1711.41,-137"/>
<text text-anchor="start" x="1719.41" y="-155" font-family="Helvetica,sans-Serif" font-size="10.00">DetectorsCommonDataFormats</text>
<text text-anchor="middle" x="1789.41" y="-144" font-family="Helvetica,sans-Serif" font-size="10.00">/DetID.h</text>
</a>
</g>
</g>
<!-- Node3&#45;&gt;Node15 -->
<g id="edge40" class="edge"><title>Node3&#45;&gt;Node15</title>
<path fill="none" stroke="midnightblue" d="M1557.17,-354.031C1722.86,-351.097 2149.42,-340.159 2286.41,-304 2353.3,-286.346 2389.71,-294.633 2426.41,-236 2433.96,-223.945 2436.06,-214.45 2426.41,-204 2389.97,-164.525 2044.01,-155.589 1877.77,-153.578"/>
<polygon fill="midnightblue" stroke="midnightblue" points="1877.61,-150.076 1867.57,-153.46 1877.52,-157.075 1877.61,-150.076"/>
</g>
<!-- Node16 -->
<g id="node16" class="node"><title>Node16</title>
<polygon fill="none" stroke="#bfbfbf" points="1303.41,-74.5 1303.41,-93.5 1359.41,-93.5 1359.41,-74.5 1303.41,-74.5"/>
<text text-anchor="middle" x="1331.41" y="-81.5" font-family="Helvetica,sans-Serif" font-size="10.00">Rtypes.h</text>
</g>
<!-- Node3&#45;&gt;Node16 -->
<g id="edge52" class="edge"><title>Node3&#45;&gt;Node16</title>
<path fill="none" stroke="midnightblue" d="M1479.11,-346.498C1456.17,-328.639 1404.01,-284.817 1376.41,-236 1351.7,-192.272 1339.28,-133.586 1334.24,-103.898"/>
<polygon fill="midnightblue" stroke="midnightblue" points="1337.65,-103.032 1332.61,-93.7109 1330.74,-104.138 1337.65,-103.032"/>
</g>
<!-- Node21 -->
<g id="node21" class="node"><title>Node21</title>
<g id="a_node21"><a xlink:href="../../d9/ded/Utils_8h.html" target="_top" xlink:title="General auxilliary methods. ">
<polygon fill="none" stroke="black" points="1377.41,-74.5 1377.41,-93.5 1467.41,-93.5 1467.41,-74.5 1377.41,-74.5"/>
<text text-anchor="middle" x="1422.41" y="-81.5" font-family="Helvetica,sans-Serif" font-size="10.00">MathUtils/Utils.h</text>
</a>
</g>
</g>
<!-- Node3&#45;&gt;Node21 -->
<g id="edge51" class="edge"><title>Node3&#45;&gt;Node21</title>
<path fill="none" stroke="midnightblue" d="M1477.84,-346.236C1453.57,-328.549 1400.55,-285.982 1376.41,-236 1356.97,-195.735 1347.16,-176.818 1365.41,-136 1372.22,-120.783 1386.05,-108.226 1398.39,-99.3803"/>
<polygon fill="midnightblue" stroke="midnightblue" points="1400.63,-102.089 1406.99,-93.6097 1396.73,-96.2776 1400.63,-102.089"/>
</g>
<!-- Node35 -->
<g id="node35" class="node"><title>Node35</title>
<g id="a_node35"><a xlink:href="../../d0/d2d/common_2base_2include_2ITSMFTBase_2GeometryTGeo_8h.html" target="_top" xlink:title="ITSMFTBase/GeometryTGeo.h">
<polygon fill="none" stroke="black" points="2096.91,-278.5 2096.91,-297.5 2249.91,-297.5 2249.91,-278.5 2096.91,-278.5"/>
<text text-anchor="middle" x="2173.41" y="-285.5" font-family="Helvetica,sans-Serif" font-size="10.00">ITSMFTBase/GeometryTGeo.h</text>
</a>
</g>
</g>
<!-- Node3&#45;&gt;Node35 -->
<g id="edge41" class="edge"><title>Node3&#45;&gt;Node35</title>
<path fill="none" stroke="midnightblue" d="M1557.35,-350.631C1666.35,-343.191 1888.85,-326.639 2076.41,-304 2088.18,-302.58 2100.7,-300.825 2112.72,-299.022"/>
<polygon fill="midnightblue" stroke="midnightblue" points="2113.3,-302.473 2122.65,-297.502 2112.24,-295.554 2113.3,-302.473"/>
</g>
<!-- Node9&#45;&gt;Node5 -->
<g id="edge14" class="edge"><title>Node9&#45;&gt;Node5</title>
<path fill="none" stroke="midnightblue" d="M1894.86,-284.675C1790.36,-280.471 1609.78,-268.719 1458.41,-236 1454.44,-235.142 1450.34,-234.042 1446.3,-232.828"/>
<polygon fill="midnightblue" stroke="midnightblue" points="1447.11,-229.411 1436.51,-229.649 1444.94,-236.069 1447.11,-229.411"/>
</g>
<!-- Node9&#45;&gt;Node7 -->
<g id="edge15" class="edge"><title>Node9&#45;&gt;Node7</title>
<path fill="none" stroke="midnightblue" d="M2040.22,-278.458C2112.95,-267.607 2232.39,-248.76 2275.41,-236 2277.91,-235.26 2280.46,-234.392 2283,-233.455"/>
<polygon fill="midnightblue" stroke="midnightblue" points="2284.58,-236.593 2292.54,-229.608 2281.96,-230.101 2284.58,-236.593"/>
</g>
<!-- Node10 -->
<g id="node10" class="node"><title>Node10</title>
<polygon fill="none" stroke="#bfbfbf" points="2109.41,-210.5 2109.41,-229.5 2195.41,-229.5 2195.41,-210.5 2109.41,-210.5"/>
<text text-anchor="middle" x="2152.41" y="-217.5" font-family="Helvetica,sans-Serif" font-size="10.00">TGeoManager.h</text>
</g>
<!-- Node9&#45;&gt;Node10 -->
<g id="edge9" class="edge"><title>Node9&#45;&gt;Node10</title>
<path fill="none" stroke="midnightblue" d="M2003.77,-278.372C2033.68,-266.827 2086.88,-246.293 2120.86,-233.177"/>
<polygon fill="midnightblue" stroke="midnightblue" points="2122.25,-236.392 2130.32,-229.526 2119.73,-229.861 2122.25,-236.392"/>
</g>
<!-- Node11 -->
<g id="node11" class="node"><title>Node11</title>
<polygon fill="none" stroke="#bfbfbf" points="1712.91,-210.5 1712.91,-229.5 1795.91,-229.5 1795.91,-210.5 1712.91,-210.5"/>
<text text-anchor="middle" x="1754.41" y="-217.5" font-family="Helvetica,sans-Serif" font-size="10.00">TGeoMaterial.h</text>
</g>
<!-- Node9&#45;&gt;Node11 -->
<g id="edge10" class="edge"><title>Node9&#45;&gt;Node11</title>
<path fill="none" stroke="midnightblue" d="M1951.82,-278.464C1916.84,-268.364 1856.87,-251.022 1805.41,-236 1801.38,-234.822 1797.16,-233.587 1792.96,-232.355"/>
<polygon fill="midnightblue" stroke="midnightblue" points="1793.85,-228.968 1783.27,-229.508 1791.87,-235.684 1793.85,-228.968"/>
</g>
<!-- Node12 -->
<g id="node12" class="node"><title>Node12</title>
<polygon fill="none" stroke="#bfbfbf" points="1814.41,-210.5 1814.41,-229.5 1924.41,-229.5 1924.41,-210.5 1814.41,-210.5"/>
<text text-anchor="middle" x="1869.41" y="-217.5" font-family="Helvetica,sans-Serif" font-size="10.00">TGeoPhysicalNode.h</text>
</g>
<!-- Node9&#45;&gt;Node12 -->
<g id="edge11" class="edge"><title>Node9&#45;&gt;Node12</title>
<path fill="none" stroke="midnightblue" d="M1966.77,-278.372C1947.99,-267.304 1915.18,-247.972 1892.9,-234.838"/>
<polygon fill="midnightblue" stroke="midnightblue" points="1894.45,-231.692 1884.06,-229.63 1890.9,-237.723 1894.45,-231.692"/>
</g>
<!-- Node13 -->
<g id="node13" class="node"><title>Node13</title>
<polygon fill="none" stroke="#bfbfbf" points="1942.91,-210.5 1942.91,-229.5 2019.91,-229.5 2019.91,-210.5 1942.91,-210.5"/>
<text text-anchor="middle" x="1981.41" y="-217.5" font-family="Helvetica,sans-Serif" font-size="10.00">TGeoShape.h</text>
</g>
<!-- Node9&#45;&gt;Node13 -->
<g id="edge12" class="edge"><title>Node9&#45;&gt;Node13</title>
<path fill="none" stroke="midnightblue" d="M1981.41,-278.372C1981.41,-268.643 1981.41,-252.528 1981.41,-239.85"/>
<polygon fill="midnightblue" stroke="midnightblue" points="1984.91,-239.841 1981.41,-229.841 1977.91,-239.841 1984.91,-239.841"/>
</g>
<!-- Node14 -->
<g id="node14" class="node"><title>Node14</title>
<polygon fill="none" stroke="#bfbfbf" points="2037.91,-210.5 2037.91,-229.5 2090.91,-229.5 2090.91,-210.5 2037.91,-210.5"/>
<text text-anchor="middle" x="2064.41" y="-217.5" font-family="Helvetica,sans-Serif" font-size="10.00">TMath.h</text>
</g>
<!-- Node9&#45;&gt;Node14 -->
<g id="edge13" class="edge"><title>Node9&#45;&gt;Node14</title>
<path fill="none" stroke="midnightblue" d="M1992.26,-278.372C2005.81,-267.6 2029.2,-249.002 2045.67,-235.906"/>
<polygon fill="midnightblue" stroke="midnightblue" points="2047.91,-238.594 2053.56,-229.63 2043.55,-233.115 2047.91,-238.594"/>
</g>
<!-- Node9&#45;&gt;Node15 -->
<g id="edge16" class="edge"><title>Node9&#45;&gt;Node15</title>
<path fill="none" stroke="midnightblue" d="M2032.78,-278.474C2105.63,-266.139 2230.91,-243.927 2237.41,-236 2246.43,-225.005 2246.88,-214.61 2237.41,-204 2213.93,-177.694 2001.57,-163.153 1877.84,-156.848"/>
<polygon fill="midnightblue" stroke="midnightblue" points="1877.78,-153.341 1867.62,-156.336 1877.43,-160.332 1877.78,-153.341"/>
</g>
<!-- Node24 -->
<g id="node24" class="node"><title>Node24</title>
<polygon fill="none" stroke="#bfbfbf" points="1621.91,-142.5 1621.91,-161.5 1692.91,-161.5 1692.91,-142.5 1621.91,-142.5"/>
<text text-anchor="middle" x="1657.41" y="-149.5" font-family="Helvetica,sans-Serif" font-size="10.00">FairLogger.h</text>
</g>
<!-- Node9&#45;&gt;Node24 -->
<g id="edge27" class="edge"><title>Node9&#45;&gt;Node24</title>
<path fill="none" stroke="midnightblue" d="M2033.97,-278.49C2096.48,-267.839 2193.75,-249.373 2204.41,-236 2213.28,-224.879 2214.1,-214.41 2204.41,-204 2166.31,-163.068 1757.26,-178.927 1702.41,-168 1698.14,-167.149 1693.72,-166.01 1689.38,-164.738"/>
<polygon fill="midnightblue" stroke="midnightblue" points="1690.14,-161.305 1679.55,-161.601 1688.01,-167.974 1690.14,-161.305"/>
</g>
<!-- Node25 -->
<g id="node25" class="node"><title>Node25</title>
<g id="a_node25"><a xlink:href="../../dd/d76/Cartesian3D_8h.html" target="_top" xlink:title="MathUtils/Cartesian3D.h">
<polygon fill="none" stroke="black" points="826.913,-142.5 826.913,-161.5 951.913,-161.5 951.913,-142.5 826.913,-142.5"/>
<text text-anchor="middle" x="889.413" y="-149.5" font-family="Helvetica,sans-Serif" font-size="10.00">MathUtils/Cartesian3D.h</text>
</a>
</g>
</g>
<!-- Node9&#45;&gt;Node25 -->
<g id="edge28" class="edge"><title>Node9&#45;&gt;Node25</title>
<path fill="none" stroke="midnightblue" d="M1894.71,-284.44C1802.74,-280.06 1653.84,-268.185 1529.41,-236 1493.53,-226.72 1488.39,-212.885 1452.41,-204 1280.27,-161.489 1070.68,-153.58 962.25,-152.606"/>
<polygon fill="midnightblue" stroke="midnightblue" points="962.101,-149.105 952.076,-152.533 962.051,-156.105 962.101,-149.105"/>
</g>
<!-- Node15&#45;&gt;Node6 -->
<g id="edge18" class="edge"><title>Node15&#45;&gt;Node6</title>
<path fill="none" stroke="midnightblue" d="M1804.81,-136.941C1822.09,-119.458 1845.6,-89.3184 1828.41,-68 1802.87,-36.3223 1679.97,-23.3162 1622.79,-18.9138"/>
<polygon fill="midnightblue" stroke="midnightblue" points="1622.82,-15.4072 1612.59,-18.1671 1622.31,-22.3885 1622.82,-15.4072"/>
</g>
<!-- Node15&#45;&gt;Node16 -->
<g id="edge17" class="edge"><title>Node15&#45;&gt;Node16</title>
<path fill="none" stroke="midnightblue" d="M1711.24,-137.42C1707.92,-136.924 1704.64,-136.449 1701.41,-136 1553.97,-115.484 1512.78,-136.313 1368.41,-100 1365.35,-99.2301 1362.21,-98.2596 1359.11,-97.1842"/>
<polygon fill="midnightblue" stroke="midnightblue" points="1360.11,-93.8186 1349.52,-93.5086 1357.6,-100.355 1360.11,-93.8186"/>
</g>
<!-- Node17 -->
<g id="node17" class="node"><title>Node17</title>
<polygon fill="none" stroke="#bfbfbf" points="1523.91,-74.5 1523.91,-93.5 1564.91,-93.5 1564.91,-74.5 1523.91,-74.5"/>
<text text-anchor="middle" x="1544.41" y="-81.5" font-family="Helvetica,sans-Serif" font-size="10.00">bitset</text>
</g>
<!-- Node15&#45;&gt;Node17 -->
<g id="edge19" class="edge"><title>Node15&#45;&gt;Node17</title>
<path fill="none" stroke="midnightblue" d="M1737.15,-136.922C1687.77,-123.618 1615.38,-104.118 1574.83,-93.1933"/>
<polygon fill="midnightblue" stroke="midnightblue" points="1575.56,-89.7669 1565,-90.5452 1573.74,-96.526 1575.56,-89.7669"/>
</g>
<!-- Node18 -->
<g id="node18" class="node"><title>Node18</title>
<polygon fill="none" stroke="#bfbfbf" points="1626.91,-74.5 1626.91,-93.5 1675.91,-93.5 1675.91,-74.5 1626.91,-74.5"/>
<text text-anchor="middle" x="1651.41" y="-81.5" font-family="Helvetica,sans-Serif" font-size="10.00">cassert</text>
</g>
<!-- Node15&#45;&gt;Node18 -->
<g id="edge20" class="edge"><title>Node15&#45;&gt;Node18</title>
<path fill="none" stroke="midnightblue" d="M1759.81,-136.841C1735.72,-125.323 1702.01,-109.199 1678.6,-98.0036"/>
<polygon fill="midnightblue" stroke="midnightblue" points="1680.1,-94.839 1669.57,-93.6819 1677.08,-101.154 1680.1,-94.839"/>
</g>
<!-- Node19 -->
<g id="node19" class="node"><title>Node19</title>
<polygon fill="none" stroke="#bfbfbf" points="1694.41,-74.5 1694.41,-93.5 1740.41,-93.5 1740.41,-74.5 1694.41,-74.5"/>
<text text-anchor="middle" x="1717.41" y="-81.5" font-family="Helvetica,sans-Serif" font-size="10.00">cstdint</text>
</g>
<!-- Node15&#45;&gt;Node19 -->
<g id="edge21" class="edge"><title>Node15&#45;&gt;Node19</title>
<path fill="none" stroke="midnightblue" d="M1773.79,-136.679C1762.23,-126.082 1746.49,-111.655 1734.58,-100.736"/>
<polygon fill="midnightblue" stroke="midnightblue" points="1736.78,-98.0055 1727.04,-93.8283 1732.05,-103.166 1736.78,-98.0055"/>
</g>
<!-- Node20 -->
<g id="node20" class="node"><title>Node20</title>
<polygon fill="none" stroke="#bfbfbf" points="1758.41,-74.5 1758.41,-93.5 1820.41,-93.5 1820.41,-74.5 1758.41,-74.5"/>
<text text-anchor="middle" x="1789.41" y="-81.5" font-family="Helvetica,sans-Serif" font-size="10.00">type_traits</text>
</g>
<!-- Node15&#45;&gt;Node20 -->
<g id="edge22" class="edge"><title>Node15&#45;&gt;Node20</title>
<path fill="none" stroke="midnightblue" d="M1789.41,-136.679C1789.41,-127.101 1789.41,-114.394 1789.41,-103.977"/>
<polygon fill="midnightblue" stroke="midnightblue" points="1792.91,-103.828 1789.41,-93.8283 1785.91,-103.828 1792.91,-103.828"/>
</g>
<!-- Node15&#45;&gt;Node21 -->
<g id="edge23" class="edge"><title>Node15&#45;&gt;Node21</title>
<path fill="none" stroke="midnightblue" d="M1711.13,-136.922C1640.94,-124.299 1539.72,-106.096 1477.66,-94.9348"/>
<polygon fill="midnightblue" stroke="midnightblue" points="1478.13,-91.4637 1467.67,-93.1384 1476.89,-98.3532 1478.13,-91.4637"/>
</g>
<!-- Node21&#45;&gt;Node6 -->
<g id="edge24" class="edge"><title>Node21&#45;&gt;Node6</title>
<path fill="none" stroke="midnightblue" d="M1444.77,-74.3717C1475.45,-62.5286 1530.65,-41.2237 1564.46,-28.174"/>
<polygon fill="midnightblue" stroke="midnightblue" points="1566.15,-31.2749 1574.22,-24.4088 1563.63,-24.7444 1566.15,-31.2749"/>
</g>
<!-- Node22 -->
<g id="node22" class="node"><title>Node22</title>
<polygon fill="none" stroke="#bfbfbf" points="12.4125,-6.5 12.4125,-25.5 56.4125,-25.5 56.4125,-6.5 12.4125,-6.5"/>
<text text-anchor="middle" x="34.4125" y="-13.5" font-family="Helvetica,sans-Serif" font-size="10.00">cmath</text>
</g>
<!-- Node21&#45;&gt;Node22 -->
<g id="edge25" class="edge"><title>Node21&#45;&gt;Node22</title>
<path fill="none" stroke="midnightblue" d="M1396.11,-74.4592C1387.11,-71.9038 1376.91,-69.409 1367.41,-68 808.856,14.8731 657.242,-105.783 97.4125,-32 87.2367,-30.6589 76.307,-28.3668 66.4551,-25.9725"/>
<polygon fill="midnightblue" stroke="midnightblue" points="67.2098,-22.5531 56.6553,-23.476 65.4817,-29.3364 67.2098,-22.5531"/>
</g>
<!-- Node23 -->
<g id="node23" class="node"><title>Node23</title>
<g id="a_node23"><a xlink:href="../../d6/d84/MathConstants_8h.html" target="_top" xlink:title="useful math constants ">
<polygon fill="none" stroke="black" points="901.913,-6.5 901.913,-25.5 1080.91,-25.5 1080.91,-6.5 901.913,-6.5"/>
<text text-anchor="middle" x="991.413" y="-13.5" font-family="Helvetica,sans-Serif" font-size="10.00">CommonConstants/MathConstants.h</text>
</a>
</g>
</g>
<!-- Node21&#45;&gt;Node23 -->
<g id="edge26" class="edge"><title>Node21&#45;&gt;Node23</title>
<path fill="none" stroke="midnightblue" d="M1394.04,-74.4964C1385.53,-72.155 1376.14,-69.7743 1367.41,-68 1273.5,-48.9117 1164.91,-35.0492 1088.65,-26.637"/>
<polygon fill="midnightblue" stroke="midnightblue" points="1088.9,-23.1434 1078.57,-25.5369 1088.14,-30.102 1088.9,-23.1434"/>
</g>
<!-- Node25&#45;&gt;Node4 -->
<g id="edge35" class="edge"><title>Node25&#45;&gt;Node4</title>
<path fill="none" stroke="midnightblue" d="M947.306,-142.466C1023.33,-131.088 1152.65,-111.097 1199.41,-100 1203.62,-99.0022 1207.99,-97.8295 1212.31,-96.5868"/>
<polygon fill="midnightblue" stroke="midnightblue" points="1213.62,-99.8469 1222.19,-93.6095 1211.6,-93.1448 1213.62,-99.8469"/>
</g>
<!-- Node25&#45;&gt;Node16 -->
<g id="edge34" class="edge"><title>Node25&#45;&gt;Node16</title>
<path fill="none" stroke="midnightblue" d="M951.333,-142.493C967.317,-140.335 984.501,-138.049 1000.41,-136 1130.98,-119.185 1166.98,-133.015 1294.41,-100 1297.4,-99.2253 1300.47,-98.2659 1303.5,-97.2094"/>
<polygon fill="midnightblue" stroke="midnightblue" points="1304.82,-100.452 1312.91,-93.6116 1302.32,-93.914 1304.82,-100.452"/>
</g>
<!-- Node26 -->
<g id="node26" class="node"><title>Node26</title>
<polygon fill="none" stroke="#bfbfbf" points="1039.91,-69 1039.91,-99 1190.91,-99 1190.91,-69 1039.91,-69"/>
<text text-anchor="start" x="1047.91" y="-87" font-family="Helvetica,sans-Serif" font-size="10.00">Math/GenVector/Displacement</text>
<text text-anchor="middle" x="1115.41" y="-76" font-family="Helvetica,sans-Serif" font-size="10.00">Vector3D.h</text>
</g>
<!-- Node25&#45;&gt;Node26 -->
<g id="edge29" class="edge"><title>Node25&#45;&gt;Node26</title>
<path fill="none" stroke="midnightblue" d="M918.958,-142.372C953.997,-132.139 1013.22,-114.842 1057.51,-101.911"/>
<polygon fill="midnightblue" stroke="midnightblue" points="1058.66,-105.219 1067.28,-99.0562 1056.7,-98.4999 1058.66,-105.219"/>
</g>
<!-- Node27 -->
<g id="node27" class="node"><title>Node27</title>
<polygon fill="none" stroke="#bfbfbf" points="326.413,-74.5 326.413,-93.5 502.413,-93.5 502.413,-74.5 326.413,-74.5"/>
<text text-anchor="middle" x="414.413" y="-81.5" font-family="Helvetica,sans-Serif" font-size="10.00">Math/GenVector/PositionVector3D.h</text>
</g>
<!-- Node25&#45;&gt;Node27 -->
<g id="edge30" class="edge"><title>Node25&#45;&gt;Node27</title>
<path fill="none" stroke="midnightblue" d="M845.661,-142.496C833.318,-140.233 819.86,-137.894 807.413,-136 676.395,-116.068 642.692,-118.129 511.413,-100 500.492,-98.4919 488.896,-96.7881 477.663,-95.0838"/>
<polygon fill="midnightblue" stroke="midnightblue" points="477.894,-91.5784 467.48,-93.524 476.835,-98.4977 477.894,-91.5784"/>
</g>
<!-- Node28 -->
<g id="node28" class="node"><title>Node28</title>
<polygon fill="none" stroke="#bfbfbf" points="519.913,-74.5 519.913,-93.5 668.913,-93.5 668.913,-74.5 519.913,-74.5"/>
<text text-anchor="middle" x="594.413" y="-81.5" font-family="Helvetica,sans-Serif" font-size="10.00">Math/GenVector/Rotation3D.h</text>
</g>
<!-- Node25&#45;&gt;Node28 -->
<g id="edge31" class="edge"><title>Node25&#45;&gt;Node28</title>
<path fill="none" stroke="midnightblue" d="M851.149,-142.439C797.763,-130.495 700.943,-108.834 642.67,-95.7966"/>
<polygon fill="midnightblue" stroke="midnightblue" points="643.131,-92.3133 632.608,-93.5455 641.603,-99.1445 643.131,-92.3133"/>
</g>
<!-- Node29 -->
<g id="node29" class="node"><title>Node29</title>
<polygon fill="none" stroke="#bfbfbf" points="687.413,-74.5 687.413,-93.5 843.413,-93.5 843.413,-74.5 687.413,-74.5"/>
<text text-anchor="middle" x="765.413" y="-81.5" font-family="Helvetica,sans-Serif" font-size="10.00">Math/GenVector/Transform3D.h</text>
</g>
<!-- Node25&#45;&gt;Node29 -->
<g id="edge32" class="edge"><title>Node25&#45;&gt;Node29</title>
<path fill="none" stroke="midnightblue" d="M873.202,-142.372C852.222,-131.205 815.438,-111.627 790.753,-98.4876"/>
<polygon fill="midnightblue" stroke="midnightblue" points="792.099,-95.2394 781.627,-93.6305 788.81,-101.419 792.099,-95.2394"/>
</g>
<!-- Node30 -->
<g id="node30" class="node"><title>Node30</title>
<polygon fill="none" stroke="#bfbfbf" points="861.413,-74.5 861.413,-93.5 1021.41,-93.5 1021.41,-74.5 861.413,-74.5"/>
<text text-anchor="middle" x="941.413" y="-81.5" font-family="Helvetica,sans-Serif" font-size="10.00">Math/GenVector/Translation3D.h</text>
</g>
<!-- Node25&#45;&gt;Node30 -->
<g id="edge33" class="edge"><title>Node25&#45;&gt;Node30</title>
<path fill="none" stroke="midnightblue" d="M896.211,-142.372C904.263,-132.151 917.868,-114.884 928.052,-101.957"/>
<polygon fill="midnightblue" stroke="midnightblue" points="931.007,-103.862 934.447,-93.8411 925.509,-99.53 931.007,-103.862"/>
</g>
<!-- Node31 -->
<g id="node31" class="node"><title>Node31</title>
<polygon fill="none" stroke="#bfbfbf" points="111.413,-74.5 111.413,-93.5 165.413,-93.5 165.413,-74.5 111.413,-74.5"/>
<text text-anchor="middle" x="138.413" y="-81.5" font-family="Helvetica,sans-Serif" font-size="10.00">iostream</text>
</g>
<!-- Node25&#45;&gt;Node31 -->
<g id="edge36" class="edge"><title>Node25&#45;&gt;Node31</title>
<path fill="none" stroke="midnightblue" d="M848.269,-142.442C835.253,-140.012 820.777,-137.596 807.413,-136 527.613,-102.583 449.047,-163.089 174.413,-100 171.344,-99.2951 168.202,-98.3514 165.116,-97.2789"/>
<polygon fill="midnightblue" stroke="midnightblue" points="166.186,-93.9391 155.598,-93.5485 163.631,-100.456 166.186,-93.9391"/>
</g>
<!-- Node32 -->
<g id="node32" class="node"><title>Node32</title>
<g id="a_node32"><a xlink:href="../../d2/dd0/Cartesian2D_8h.html" target="_top" xlink:title="MathUtils/Cartesian2D.h">
<polygon fill="none" stroke="black" points="183.913,-74.5 183.913,-93.5 308.913,-93.5 308.913,-74.5 183.913,-74.5"/>
<text text-anchor="middle" x="246.413" y="-81.5" font-family="Helvetica,sans-Serif" font-size="10.00">MathUtils/Cartesian2D.h</text>
</a>
</g>
</g>
<!-- Node25&#45;&gt;Node32 -->
<g id="edge37" class="edge"><title>Node25&#45;&gt;Node32</title>
<path fill="none" stroke="midnightblue" d="M847.832,-142.498C834.924,-140.1 820.62,-137.688 807.413,-136 590.81,-108.314 533.617,-130.638 317.413,-100 309.165,-98.8313 300.442,-97.2657 292.039,-95.5862"/>
<polygon fill="midnightblue" stroke="midnightblue" points="292.504,-92.1082 282.001,-93.5001 291.08,-98.9617 292.504,-92.1082"/>
</g>
<!-- Node33 -->
<g id="node33" class="node"><title>Node33</title>
<polygon fill="none" stroke="#bfbfbf" points="106.913,-1 106.913,-31 257.913,-31 257.913,-1 106.913,-1"/>
<text text-anchor="start" x="114.913" y="-19" font-family="Helvetica,sans-Serif" font-size="10.00">Math/GenVector/Displacement</text>
<text text-anchor="middle" x="182.413" y="-8" font-family="Helvetica,sans-Serif" font-size="10.00">Vector2D.h</text>
</g>
<!-- Node32&#45;&gt;Node33 -->
<g id="edge38" class="edge"><title>Node32&#45;&gt;Node33</title>
<path fill="none" stroke="midnightblue" d="M238.046,-74.3717C229.235,-65.2858 215.024,-50.6306 203.171,-38.4068"/>
<polygon fill="midnightblue" stroke="midnightblue" points="205.638,-35.924 196.164,-31.1815 200.613,-40.797 205.638,-35.924"/>
</g>
<!-- Node34 -->
<g id="node34" class="node"><title>Node34</title>
<polygon fill="none" stroke="#bfbfbf" points="276.413,-6.5 276.413,-25.5 452.413,-25.5 452.413,-6.5 276.413,-6.5"/>
<text text-anchor="middle" x="364.413" y="-13.5" font-family="Helvetica,sans-Serif" font-size="10.00">Math/GenVector/PositionVector2D.h</text>
</g>
<!-- Node32&#45;&gt;Node34 -->
<g id="edge39" class="edge"><title>Node32&#45;&gt;Node34</title>
<path fill="none" stroke="midnightblue" d="M261.839,-74.3717C281.715,-63.2545 316.498,-43.7997 339.986,-30.6624"/>
<polygon fill="midnightblue" stroke="midnightblue" points="341.963,-33.5667 348.982,-25.6305 338.546,-27.4574 341.963,-33.5667"/>
</g>
<!-- Node35&#45;&gt;Node7 -->
<g id="edge43" class="edge"><title>Node35&#45;&gt;Node7</title>
<path fill="none" stroke="midnightblue" d="M2191.32,-278.372C2214.71,-267.106 2255.86,-247.279 2283.14,-234.14"/>
<polygon fill="midnightblue" stroke="midnightblue" points="2285.01,-237.124 2292.5,-229.63 2281.97,-230.817 2285.01,-237.124"/>
</g>
<!-- Node36 -->
<g id="node36" class="node"><title>Node36</title>
<polygon fill="none" stroke="#bfbfbf" points="2348.91,-210.5 2348.91,-229.5 2417.91,-229.5 2417.91,-210.5 2348.91,-210.5"/>
<text text-anchor="middle" x="2383.41" y="-217.5" font-family="Helvetica,sans-Serif" font-size="10.00">TObjArray.h</text>
</g>
<!-- Node35&#45;&gt;Node36 -->
<g id="edge42" class="edge"><title>Node35&#45;&gt;Node36</title>
<path fill="none" stroke="midnightblue" d="M2202.29,-278.42C2235.47,-268.493 2291.51,-251.518 2339.41,-236 2342.56,-234.98 2345.83,-233.902 2349.1,-232.811"/>
<polygon fill="midnightblue" stroke="midnightblue" points="2350.43,-236.055 2358.79,-229.542 2348.19,-229.422 2350.43,-236.055"/>
</g>
<!-- Node37 -->
<g id="node37" class="node"><title>Node37</title>
<g id="a_node37"><a xlink:href="../../d4/d20/DetMatrixCache_8h.html" target="_top" xlink:title="DetectorsCommonDataFormats\l/DetMatrixCache.h">
<polygon fill="none" stroke="black" points="1538.41,-205 1538.41,-235 1694.41,-235 1694.41,-205 1538.41,-205"/>
<text text-anchor="start" x="1546.41" y="-223" font-family="Helvetica,sans-Serif" font-size="10.00">DetectorsCommonDataFormats</text>
<text text-anchor="middle" x="1616.41" y="-212" font-family="Helvetica,sans-Serif" font-size="10.00">/DetMatrixCache.h</text>
</a>
</g>
</g>
<!-- Node35&#45;&gt;Node37 -->
<g id="edge44" class="edge"><title>Node35&#45;&gt;Node37</title>
<path fill="none" stroke="midnightblue" d="M2121.89,-278.474C2107.22,-276.199 2091.21,-273.858 2076.41,-272 1914.82,-251.704 1870.77,-257.72 1704.65,-235.959"/>
<polygon fill="midnightblue" stroke="midnightblue" points="1704.95,-232.468 1694.58,-234.626 1704.03,-239.408 1704.95,-232.468"/>
</g>
<!-- Node37&#45;&gt;Node6 -->
<g id="edge46" class="edge"><title>Node37&#45;&gt;Node6</title>
<path fill="none" stroke="midnightblue" d="M1614.8,-204.796C1610.73,-169.083 1600.08,-75.5521 1595.53,-35.5652"/>
<polygon fill="midnightblue" stroke="midnightblue" points="1599,-35.1367 1594.39,-25.5969 1592.05,-35.9287 1599,-35.1367"/>
</g>
<!-- Node37&#45;&gt;Node8 -->
<g id="edge47" class="edge"><title>Node37&#45;&gt;Node8</title>
<path fill="none" stroke="midnightblue" d="M1569.49,-204.922C1526.92,-192.153 1465.33,-173.675 1428.25,-162.551"/>
<polygon fill="midnightblue" stroke="midnightblue" points="1429.06,-159.14 1418.48,-159.619 1427.05,-165.845 1429.06,-159.14"/>
</g>
<!-- Node37&#45;&gt;Node15 -->
<g id="edge48" class="edge"><title>Node37&#45;&gt;Node15</title>
<path fill="none" stroke="midnightblue" d="M1653.53,-204.841C1679.72,-194.846 1715.01,-181.383 1743.07,-170.682"/>
<polygon fill="midnightblue" stroke="midnightblue" points="1744.56,-173.856 1752.66,-167.022 1742.07,-167.316 1744.56,-173.856"/>
</g>
<!-- Node37&#45;&gt;Node16 -->
<g id="edge50" class="edge"><title>Node37&#45;&gt;Node16</title>
<path fill="none" stroke="midnightblue" d="M1586.45,-204.913C1530.89,-178.787 1412.64,-123.192 1358.95,-97.9495"/>
<polygon fill="midnightblue" stroke="midnightblue" points="1360.25,-94.691 1349.71,-93.6034 1357.27,-101.026 1360.25,-94.691"/>
</g>
<!-- Node37&#45;&gt;Node24 -->
<g id="edge45" class="edge"><title>Node37&#45;&gt;Node24</title>
<path fill="none" stroke="midnightblue" d="M1625.31,-204.679C1631.58,-194.592 1640,-181.033 1646.64,-170.335"/>
<polygon fill="midnightblue" stroke="midnightblue" points="1649.62,-172.17 1651.93,-161.828 1643.68,-168.476 1649.62,-172.17"/>
</g>
<!-- Node37&#45;&gt;Node25 -->
<g id="edge49" class="edge"><title>Node37&#45;&gt;Node25</title>
<path fill="none" stroke="midnightblue" d="M1538.08,-209.582C1521.06,-207.641 1503.14,-205.679 1486.41,-204 1297.72,-185.058 1075.01,-167.23 962.431,-158.536"/>
<polygon fill="midnightblue" stroke="midnightblue" points="962.453,-155.028 952.214,-157.749 961.916,-162.007 962.453,-155.028"/>
</g>
<!-- Node38&#45;&gt;Node3 -->
<g id="edge55" class="edge"><title>Node38&#45;&gt;Node3</title>
<path fill="none" stroke="midnightblue" d="M1302.49,-476.913C1342.84,-451.167 1428.04,-396.801 1468.37,-371.068"/>
<polygon fill="midnightblue" stroke="midnightblue" points="1470.38,-373.933 1476.93,-365.603 1466.62,-368.032 1470.38,-373.933"/>
</g>
<!-- Node38&#45;&gt;Node8 -->
<g id="edge54" class="edge"><title>Node38&#45;&gt;Node8</title>
<path fill="none" stroke="midnightblue" d="M1284.86,-476.876C1298.09,-435 1338.67,-307.957 1376.41,-204 1380.42,-192.971 1385.21,-180.727 1389.09,-171.001"/>
<polygon fill="midnightblue" stroke="midnightblue" points="1392.39,-172.195 1392.88,-161.612 1385.89,-169.578 1392.39,-172.195"/>
</g>
<!-- Node38&#45;&gt;Node25 -->
<g id="edge56" class="edge"><title>Node38&#45;&gt;Node25</title>
<path fill="none" stroke="midnightblue" d="M1216.86,-476.909C1175.43,-466.837 1125.93,-452.847 1108.41,-440 1072.53,-413.684 1052.41,-401.5 1052.41,-357 1052.41,-357 1052.41,-357 1052.41,-287 1052.41,-222.225 974.651,-183.004 926.548,-164.938"/>
<polygon fill="midnightblue" stroke="midnightblue" points="927.657,-161.617 917.063,-161.504 925.274,-168.199 927.657,-161.617"/>
</g>
<!-- Node39 -->
<g id="node39" class="node"><title>Node39</title>
<g id="a_node39"><a xlink:href="../../d8/ddd/CookedTrack_8h.html" target="_top" xlink:title="Definition of the ITS cooked track. ">
<polygon fill="none" stroke="black" points="1116.91,-409 1116.91,-439 1251.91,-439 1251.91,-409 1116.91,-409"/>
<text text-anchor="start" x="1124.91" y="-427" font-family="Helvetica,sans-Serif" font-size="10.00">ITSReconstruction/Cooked</text>
<text text-anchor="middle" x="1184.41" y="-416" font-family="Helvetica,sans-Serif" font-size="10.00">Track.h</text>
</a>
</g>
</g>
<!-- Node38&#45;&gt;Node39 -->
<g id="edge57" class="edge"><title>Node38&#45;&gt;Node39</title>
<path fill="none" stroke="midnightblue" d="M1259.58,-476.679C1246.03,-467.361 1228.17,-455.082 1213.26,-444.83"/>
<polygon fill="midnightblue" stroke="midnightblue" points="1215.1,-441.848 1204.87,-439.066 1211.13,-447.616 1215.1,-441.848"/>
</g>
<!-- Node39&#45;&gt;Node8 -->
<g id="edge58" class="edge"><title>Node39&#45;&gt;Node8</title>
<path fill="none" stroke="midnightblue" d="M1188.93,-408.964C1201.62,-371.439 1240.85,-267.35 1304.41,-204 1321.56,-186.907 1345.63,-173.838 1364.85,-165.211"/>
<polygon fill="midnightblue" stroke="midnightblue" points="1366.31,-168.39 1374.11,-161.221 1363.54,-161.961 1366.31,-168.39"/>
</g>
<!-- Node40 -->
<g id="node40" class="node"><title>Node40</title>
<g id="a_node40"><a xlink:href="../../d7/d8b/DataFormats_2Reconstruction_2include_2ReconstructionDataFormats_2Track_8h.html" target="_top" xlink:title="ReconstructionDataFormats\l/Track.h">
<polygon fill="none" stroke="black" points="602.413,-341 602.413,-371 742.413,-371 742.413,-341 602.413,-341"/>
<text text-anchor="start" x="610.413" y="-359" font-family="Helvetica,sans-Serif" font-size="10.00">ReconstructionDataFormats</text>
<text text-anchor="middle" x="672.413" y="-348" font-family="Helvetica,sans-Serif" font-size="10.00">/Track.h</text>
</a>
</g>
</g>
<!-- Node39&#45;&gt;Node40 -->
<g id="edge59" class="edge"><title>Node39&#45;&gt;Node40</title>
<path fill="none" stroke="midnightblue" d="M1116.69,-414.27C1022.75,-402.161 853.182,-380.302 752.9,-367.375"/>
<polygon fill="midnightblue" stroke="midnightblue" points="753.185,-363.883 742.819,-366.076 752.29,-370.826 753.185,-363.883"/>
</g>
<!-- Node40&#45;&gt;Node6 -->
<g id="edge62" class="edge"><title>Node40&#45;&gt;Node6</title>
<path fill="none" stroke="midnightblue" d="M742.556,-354.685C825.036,-352.4 965.064,-342.48 1078.41,-304 1218.37,-256.487 1230.55,-196.484 1365.41,-136 1412.73,-114.776 1430.91,-124.881 1476.41,-100 1496.09,-89.2433 1497.34,-81.2655 1515.41,-68 1533.51,-54.7167 1554.91,-40.849 1570.71,-30.9334"/>
<polygon fill="midnightblue" stroke="midnightblue" points="1572.66,-33.8425 1579.3,-25.5862 1568.96,-27.9 1572.66,-33.8425"/>
</g>
<!-- Node40&#45;&gt;Node16 -->
<g id="edge60" class="edge"><title>Node40&#45;&gt;Node16</title>
<path fill="none" stroke="midnightblue" d="M742.765,-349.796C824.515,-342.735 953.553,-328.15 995.413,-304 1044.95,-275.417 1036.97,-245.424 1076.41,-204 1107.67,-171.174 1112.4,-157.295 1152.41,-136 1209.89,-105.411 1232.54,-120.278 1294.41,-100 1296.98,-99.1587 1299.62,-98.226 1302.26,-97.2492"/>
<polygon fill="midnightblue" stroke="midnightblue" points="1303.58,-100.491 1311.63,-93.6028 1301.04,-93.9678 1303.58,-100.491"/>
</g>
<!-- Node40&#45;&gt;Node21 -->
<g id="edge71" class="edge"><title>Node40&#45;&gt;Node21</title>
<path fill="none" stroke="midnightblue" d="M742.653,-352.338C815.347,-347.876 931.354,-335.937 1026.41,-304 1181.61,-251.857 1346.55,-139.48 1402.53,-99.4914"/>
<polygon fill="midnightblue" stroke="midnightblue" points="1404.77,-102.19 1410.84,-93.5087 1400.68,-96.5083 1404.77,-102.19"/>
</g>
<!-- Node40&#45;&gt;Node22 -->
<g id="edge64" class="edge"><title>Node40&#45;&gt;Node22</title>
<path fill="none" stroke="midnightblue" d="M602.339,-354.123C443.143,-351.483 64.6482,-341.311 21.4125,-304 -7.23758,-279.276 2.41253,-258.843 2.41253,-221 2.41253,-221 2.41253,-221 2.41253,-151 2.41253,-108.516 17.8181,-60.4757 27.251,-35.0427"/>
<polygon fill="midnightblue" stroke="midnightblue" points="30.5559,-36.1993 30.8657,-25.609 24.0193,-33.6947 30.5559,-36.1993"/>
</g>
<!-- Node40&#45;&gt;Node23 -->
<g id="edge69" class="edge"><title>Node40&#45;&gt;Node23</title>
<path fill="none" stroke="midnightblue" d="M602.126,-346.046C417.658,-319.993 -55.5215,-235.254 102.413,-68 129.15,-39.685 664.714,-24.3449 891.421,-19.0986"/>
<polygon fill="midnightblue" stroke="midnightblue" points="891.735,-22.5924 901.652,-18.8639 891.575,-15.5943 891.735,-22.5924"/>
</g>
<!-- Node40&#45;&gt;Node25 -->
<g id="edge70" class="edge"><title>Node40&#45;&gt;Node25</title>
<path fill="none" stroke="midnightblue" d="M608.39,-340.945C562.835,-327.808 513.594,-305.195 537.413,-272 600.861,-183.573 733.564,-160.014 816.681,-154.229"/>
<polygon fill="midnightblue" stroke="midnightblue" points="817.052,-157.713 826.813,-153.594 816.614,-150.726 817.052,-157.713"/>
</g>
<!-- Node40&#45;&gt;Node31 -->
<g id="edge66" class="edge"><title>Node40&#45;&gt;Node31</title>
<path fill="none" stroke="midnightblue" d="M625.56,-340.98C596.509,-331.714 558.701,-318.612 526.413,-304 381.222,-238.296 218.419,-136.501 160.395,-99.2647"/>
<polygon fill="midnightblue" stroke="midnightblue" points="162.002,-96.1364 151.7,-93.6634 158.211,-102.021 162.002,-96.1364"/>
</g>
<!-- Node41 -->
<g id="node41" class="node"><title>Node41</title>
<polygon fill="none" stroke="#bfbfbf" points="546.413,-278.5 546.413,-297.5 602.413,-297.5 602.413,-278.5 546.413,-278.5"/>
<text text-anchor="middle" x="574.413" y="-285.5" font-family="Helvetica,sans-Serif" font-size="10.00">algorithm</text>
</g>
<!-- Node40&#45;&gt;Node41 -->
<g id="edge61" class="edge"><title>Node40&#45;&gt;Node41</title>
<path fill="none" stroke="midnightblue" d="M651.148,-340.679C634.714,-329.611 612.073,-314.363 595.646,-303.3"/>
<polygon fill="midnightblue" stroke="midnightblue" points="597.488,-300.321 587.238,-297.638 593.578,-306.127 597.488,-300.321"/>
</g>
<!-- Node42 -->
<g id="node42" class="node"><title>Node42</title>
<polygon fill="none" stroke="#bfbfbf" points="620.913,-278.5 620.913,-297.5 661.913,-297.5 661.913,-278.5 620.913,-278.5"/>
<text text-anchor="middle" x="641.413" y="-285.5" font-family="Helvetica,sans-Serif" font-size="10.00">cfloat</text>
</g>
<!-- Node40&#45;&gt;Node42 -->
<g id="edge63" class="edge"><title>Node40&#45;&gt;Node42</title>
<path fill="none" stroke="midnightblue" d="M665.686,-340.679C661.044,-330.796 654.836,-317.579 649.861,-306.986"/>
<polygon fill="midnightblue" stroke="midnightblue" points="652.979,-305.392 645.559,-297.828 646.643,-308.368 652.979,-305.392"/>
</g>
<!-- Node43 -->
<g id="node43" class="node"><title>Node43</title>
<polygon fill="none" stroke="#bfbfbf" points="680.413,-278.5 680.413,-297.5 726.413,-297.5 726.413,-278.5 680.413,-278.5"/>
<text text-anchor="middle" x="703.413" y="-285.5" font-family="Helvetica,sans-Serif" font-size="10.00">cstring</text>
</g>
<!-- Node40&#45;&gt;Node43 -->
<g id="edge65" class="edge"><title>Node40&#45;&gt;Node43</title>
<path fill="none" stroke="midnightblue" d="M679.139,-340.679C683.781,-330.796 689.989,-317.579 694.964,-306.986"/>
<polygon fill="midnightblue" stroke="midnightblue" points="698.182,-308.368 699.266,-297.828 691.847,-305.392 698.182,-308.368"/>
</g>
<!-- Node44 -->
<g id="node44" class="node"><title>Node44</title>
<polygon fill="none" stroke="#bfbfbf" points="744.913,-278.5 744.913,-297.5 827.913,-297.5 827.913,-278.5 744.913,-278.5"/>
<text text-anchor="middle" x="786.413" y="-285.5" font-family="Helvetica,sans-Serif" font-size="10.00">Math/SMatrix.h</text>
</g>
<!-- Node40&#45;&gt;Node44 -->
<g id="edge67" class="edge"><title>Node40&#45;&gt;Node44</title>
<path fill="none" stroke="midnightblue" d="M696.868,-340.841C716.322,-329.579 743.381,-313.913 762.65,-302.757"/>
<polygon fill="midnightblue" stroke="midnightblue" points="764.516,-305.721 771.417,-297.682 761.009,-299.663 764.516,-305.721"/>
</g>
<!-- Node45 -->
<g id="node45" class="node"><title>Node45</title>
<polygon fill="none" stroke="#bfbfbf" points="30.9125,-278.5 30.9125,-297.5 115.913,-297.5 115.913,-278.5 30.9125,-278.5"/>
<text text-anchor="middle" x="73.4125" y="-285.5" font-family="Helvetica,sans-Serif" font-size="10.00">Math/SVector.h</text>
</g>
<!-- Node40&#45;&gt;Node45 -->
<g id="edge68" class="edge"><title>Node40&#45;&gt;Node45</title>
<path fill="none" stroke="midnightblue" d="M602.191,-352.063C498.382,-346.894 298.153,-333.757 130.413,-304 124.474,-302.947 118.249,-301.583 112.184,-300.108"/>
<polygon fill="midnightblue" stroke="midnightblue" points="112.762,-296.644 102.206,-297.556 111.027,-303.425 112.762,-296.644"/>
</g>
<!-- Node46 -->
<g id="node46" class="node"><title>Node46</title>
<g id="a_node46"><a xlink:href="../../d4/de2/BaseCluster_8h.html" target="_top" xlink:title="ReconstructionDataFormats\l/BaseCluster.h">
<polygon fill="none" stroke="black" points="846.413,-273 846.413,-303 986.413,-303 986.413,-273 846.413,-273"/>
<text text-anchor="start" x="854.413" y="-291" font-family="Helvetica,sans-Serif" font-size="10.00">ReconstructionDataFormats</text>
<text text-anchor="middle" x="916.413" y="-280" font-family="Helvetica,sans-Serif" font-size="10.00">/BaseCluster.h</text>
</a>
</g>
</g>
<!-- Node40&#45;&gt;Node46 -->
<g id="edge72" class="edge"><title>Node40&#45;&gt;Node46</title>
<path fill="none" stroke="midnightblue" d="M724.457,-340.922C762.601,-330.605 814.524,-316.56 854.75,-305.679"/>
<polygon fill="midnightblue" stroke="midnightblue" points="855.708,-309.046 864.448,-303.056 853.881,-302.289 855.708,-309.046"/>
</g>
<!-- Node46&#45;&gt;Node5 -->
<g id="edge73" class="edge"><title>Node46&#45;&gt;Node5</title>
<path fill="none" stroke="midnightblue" d="M986.444,-277.719C1092.53,-263.659 1290.51,-237.42 1374.79,-226.251"/>
<polygon fill="midnightblue" stroke="midnightblue" points="1375.27,-229.718 1384.73,-224.934 1374.35,-222.779 1375.27,-229.718"/>
</g>
<!-- Node46&#45;&gt;Node17 -->
<g id="edge74" class="edge"><title>Node46&#45;&gt;Node17</title>
<path fill="none" stroke="midnightblue" d="M954.823,-272.93C1032.01,-244.914 1211.69,-180.986 1365.41,-136 1428.73,-117.471 1446.89,-121.061 1509.41,-100 1511.82,-99.1875 1514.3,-98.28 1516.77,-97.3247"/>
<polygon fill="midnightblue" stroke="midnightblue" points="1518.17,-100.533 1526.1,-93.5016 1515.52,-94.0559 1518.17,-100.533"/>
</g>
<!-- Node46&#45;&gt;Node25 -->
<g id="edge79" class="edge"><title>Node46&#45;&gt;Node25</title>
<path fill="none" stroke="midnightblue" d="M902.295,-272.791C893.863,-263.262 883.937,-249.942 879.413,-236 872.503,-214.71 877.547,-188.95 882.651,-171.831"/>
<polygon fill="midnightblue" stroke="midnightblue" points="886.096,-172.557 885.888,-161.964 879.445,-170.375 886.096,-172.557"/>
</g>
<!-- Node46&#45;&gt;Node31 -->
<g id="edge77" class="edge"><title>Node46&#45;&gt;Node31</title>
<path fill="none" stroke="midnightblue" d="M866.6,-272.91C767.666,-245.128 539.213,-181.993 345.413,-136 269.845,-118.066 248.583,-123.037 174.413,-100 171.834,-99.1992 169.186,-98.2839 166.551,-97.3093"/>
<polygon fill="midnightblue" stroke="midnightblue" points="167.81,-94.0434 157.224,-93.6178 165.234,-100.552 167.81,-94.0434"/>
</g>
<!-- Node46&#45;&gt;Node37 -->
<g id="edge78" class="edge"><title>Node46&#45;&gt;Node37</title>
<path fill="none" stroke="midnightblue" d="M986.413,-280.4C1114.69,-268.305 1387.19,-242.613 1528.02,-229.334"/>
<polygon fill="midnightblue" stroke="midnightblue" points="1528.72,-232.784 1538.35,-228.361 1528.06,-225.815 1528.72,-232.784"/>
</g>
<!-- Node47 -->
<g id="node47" class="node"><title>Node47</title>
<polygon fill="none" stroke="#bfbfbf" points="888.413,-210.5 888.413,-229.5 938.413,-229.5 938.413,-210.5 888.413,-210.5"/>
<text text-anchor="middle" x="913.413" y="-217.5" font-family="Helvetica,sans-Serif" font-size="10.00">iomanip</text>
</g>
<!-- Node46&#45;&gt;Node47 -->
<g id="edge75" class="edge"><title>Node46&#45;&gt;Node47</title>
<path fill="none" stroke="midnightblue" d="M915.762,-272.679C915.326,-263.101 914.749,-250.394 914.275,-239.977"/>
<polygon fill="midnightblue" stroke="midnightblue" points="917.764,-239.659 913.814,-229.828 910.772,-239.977 917.764,-239.659"/>
</g>
<!-- Node48 -->
<g id="node48" class="node"><title>Node48</title>
<polygon fill="none" stroke="#bfbfbf" points="956.913,-210.5 956.913,-229.5 985.913,-229.5 985.913,-210.5 956.913,-210.5"/>
<text text-anchor="middle" x="971.413" y="-217.5" font-family="Helvetica,sans-Serif" font-size="10.00">ios</text>
</g>
<!-- Node46&#45;&gt;Node48 -->
<g id="edge76" class="edge"><title>Node46&#45;&gt;Node48</title>
<path fill="none" stroke="midnightblue" d="M928.347,-272.679C936.922,-262.388 948.509,-248.484 957.504,-237.69"/>
<polygon fill="midnightblue" stroke="midnightblue" points="960.343,-239.751 964.056,-229.828 954.965,-235.27 960.343,-239.751"/>
</g>
</g>
</svg>
