<?xml version="1.0" encoding="UTF-8" standalone="no"?>
<!DOCTYPE svg PUBLIC "-//W3C//DTD SVG 1.1//EN"
 "http://www.w3.org/Graphics/SVG/1.1/DTD/svg11.dtd">
<!-- Generated by graphviz version 2.36.0 (20140111.2315)
 -->
<!-- Title: /home/travis/build/AliceO2Group/AliceO2/Detectors/TPC/simulation/src/DigitContainer.cxx Pages: 1 -->
<svg width="1689pt" height="794pt"
 viewBox="0.00 0.00 1689.00 794.00" xmlns="http://www.w3.org/2000/svg" xmlns:xlink="http://www.w3.org/1999/xlink">
<g id="graph0" class="graph" transform="scale(1 1) rotate(0) translate(4 790)">
<title>/home/travis/build/AliceO2Group/AliceO2/Detectors/TPC/simulation/src/DigitContainer.cxx</title>
<!-- Node1 -->
<g id="node1" class="node"><title>Node1</title>
<polygon fill="#bfbfbf" stroke="black" points="1055.5,-733 1055.5,-785 1188.5,-785 1188.5,-733 1055.5,-733"/>
<text text-anchor="start" x="1063.5" y="-773" font-family="Helvetica,sans-Serif" font-size="10.00">/home/travis/build</text>
<text text-anchor="start" x="1063.5" y="-762" font-family="Helvetica,sans-Serif" font-size="10.00">/AliceO2Group/AliceO2</text>
<text text-anchor="start" x="1063.5" y="-751" font-family="Helvetica,sans-Serif" font-size="10.00">/Detectors/TPC/simulation</text>
<text text-anchor="middle" x="1122" y="-740" font-family="Helvetica,sans-Serif" font-size="10.00">/src/DigitContainer.cxx</text>
</g>
<!-- Node2 -->
<g id="node2" class="node"><title>Node2</title>
<g id="a_node2"><a xlink:href="../../dd/d94/DigitContainer_8h.html" target="_top" xlink:title="Definition of the Digit Container. ">
<polygon fill="none" stroke="black" points="591,-676.5 591,-695.5 747,-695.5 747,-676.5 591,-676.5"/>
<text text-anchor="middle" x="669" y="-683.5" font-family="Helvetica,sans-Serif" font-size="10.00">TPCSimulation/DigitContainer.h</text>
</a>
</g>
</g>
<!-- Node1&#45;&gt;Node2 -->
<g id="edge1" class="edge"><title>Node1&#45;&gt;Node2</title>
<path fill="none" stroke="midnightblue" d="M1055.16,-747.524C968.6,-733.957 818.746,-710.47 733.399,-697.093"/>
<polygon fill="midnightblue" stroke="midnightblue" points="733.74,-693.604 723.319,-695.514 732.656,-700.52 733.74,-693.604"/>
</g>
<!-- Node17 -->
<g id="node17" class="node"><title>Node17</title>
<polygon fill="none" stroke="#bfbfbf" points="1583,-74.5 1583,-93.5 1637,-93.5 1637,-74.5 1583,-74.5"/>
<text text-anchor="middle" x="1610" y="-81.5" font-family="Helvetica,sans-Serif" font-size="10.00">iostream</text>
</g>
<!-- Node1&#45;&gt;Node17 -->
<g id="edge79" class="edge"><title>Node1&#45;&gt;Node17</title>
<path fill="none" stroke="midnightblue" d="M1188.58,-754.563C1322.12,-745.844 1610,-717.067 1610,-631 1610,-631 1610,-631 1610,-219 1610,-178.046 1610,-130.052 1610,-104.066"/>
<polygon fill="midnightblue" stroke="midnightblue" points="1613.5,-103.78 1610,-93.7798 1606.5,-103.78 1613.5,-103.78"/>
</g>
<!-- Node40 -->
<g id="node40" class="node"><title>Node40</title>
<g id="a_node40"><a xlink:href="../../d7/d2c/Mapper_8h.html" target="_top" xlink:title="TPCBase/Mapper.h">
<polygon fill="none" stroke="black" points="1070.5,-496.5 1070.5,-515.5 1173.5,-515.5 1173.5,-496.5 1070.5,-496.5"/>
<text text-anchor="middle" x="1122" y="-503.5" font-family="Helvetica,sans-Serif" font-size="10.00">TPCBase/Mapper.h</text>
</a>
</g>
</g>
<!-- Node1&#45;&gt;Node40 -->
<g id="edge78" class="edge"><title>Node1&#45;&gt;Node40</title>
<path fill="none" stroke="midnightblue" d="M1122,-732.551C1122,-682.105 1122,-570.455 1122,-525.899"/>
<polygon fill="midnightblue" stroke="midnightblue" points="1125.5,-525.873 1122,-515.873 1118.5,-525.873 1125.5,-525.873"/>
</g>
<!-- Node3 -->
<g id="node3" class="node"><title>Node3</title>
<g id="a_node3"><a xlink:href="../../df/d26/CRU_8h.html" target="_top" xlink:title="TPCBase/CRU.h">
<polygon fill="none" stroke="black" points="726.5,-384.5 726.5,-403.5 819.5,-403.5 819.5,-384.5 726.5,-384.5"/>
<text text-anchor="middle" x="773" y="-391.5" font-family="Helvetica,sans-Serif" font-size="10.00">TPCBase/CRU.h</text>
</a>
</g>
</g>
<!-- Node2&#45;&gt;Node3 -->
<g id="edge2" class="edge"><title>Node2&#45;&gt;Node3</title>
<path fill="none" stroke="midnightblue" d="M672.113,-676.321C686.466,-636.297 746.42,-469.117 766.451,-413.261"/>
<polygon fill="midnightblue" stroke="midnightblue" points="769.818,-414.24 769.9,-403.645 763.229,-411.877 769.818,-414.24"/>
</g>
<!-- Node21 -->
<g id="node21" class="node"><title>Node21</title>
<g id="a_node21"><a xlink:href="../../d6/d95/DigitCRU_8h.html" target="_top" xlink:title="Definition of the CRU container. ">
<polygon fill="none" stroke="black" points="441.5,-620.5 441.5,-639.5 578.5,-639.5 578.5,-620.5 441.5,-620.5"/>
<text text-anchor="middle" x="510" y="-627.5" font-family="Helvetica,sans-Serif" font-size="10.00">TPCSimulation/DigitCRU.h</text>
</a>
</g>
</g>
<!-- Node2&#45;&gt;Node21 -->
<g id="edge24" class="edge"><title>Node2&#45;&gt;Node21</title>
<path fill="none" stroke="midnightblue" d="M643.806,-676.444C617.057,-667.359 574.597,-652.939 544.695,-642.783"/>
<polygon fill="midnightblue" stroke="midnightblue" points="545.671,-639.418 535.076,-639.516 543.419,-646.046 545.671,-639.418"/>
</g>
<!-- Node39 -->
<g id="node39" class="node"><title>Node39</title>
<g id="a_node39"><a xlink:href="../../d6/dba/CommonModeContainer_8h.html" target="_top" xlink:title="Definition of the Common Mode computation. ">
<polygon fill="none" stroke="black" points="519.5,-553 519.5,-583 668.5,-583 668.5,-553 519.5,-553"/>
<text text-anchor="start" x="527.5" y="-571" font-family="Helvetica,sans-Serif" font-size="10.00">TPCSimulation/CommonMode</text>
<text text-anchor="middle" x="594" y="-560" font-family="Helvetica,sans-Serif" font-size="10.00">Container.h</text>
</a>
</g>
</g>
<!-- Node2&#45;&gt;Node39 -->
<g id="edge77" class="edge"><title>Node2&#45;&gt;Node39</title>
<path fill="none" stroke="midnightblue" d="M663.363,-676.281C651.844,-658.465 625.287,-617.39 608.579,-591.548"/>
<polygon fill="midnightblue" stroke="midnightblue" points="611.489,-589.603 603.12,-583.106 605.611,-593.404 611.489,-589.603"/>
</g>
<!-- Node4 -->
<g id="node4" class="node"><title>Node4</title>
<g id="a_node4"><a xlink:href="../../d1/d73/Defs_8h.html" target="_top" xlink:title="Common definitions for 2D coordinates. ">
<polygon fill="none" stroke="black" points="1076,-210.5 1076,-229.5 1168,-229.5 1168,-210.5 1076,-210.5"/>
<text text-anchor="middle" x="1122" y="-217.5" font-family="Helvetica,sans-Serif" font-size="10.00">TPCBase/Defs.h</text>
</a>
</g>
</g>
<!-- Node3&#45;&gt;Node4 -->
<g id="edge3" class="edge"><title>Node3&#45;&gt;Node4</title>
<path fill="none" stroke="midnightblue" d="M803.09,-384.451C829.872,-376.407 869.828,-363.327 903,-348 963.407,-320.089 974.384,-305.293 1032,-272 1054.25,-259.145 1079.74,-244.731 1097.9,-234.514"/>
<polygon fill="midnightblue" stroke="midnightblue" points="1099.66,-237.535 1106.67,-229.585 1096.24,-231.432 1099.66,-237.535"/>
</g>
<!-- Node18 -->
<g id="node18" class="node"><title>Node18</title>
<g id="a_node18"><a xlink:href="../../d3/dd6/Sector_8h.html" target="_top" xlink:title="TPCBase/Sector.h">
<polygon fill="none" stroke="black" points="768.5,-272.5 768.5,-291.5 867.5,-291.5 867.5,-272.5 768.5,-272.5"/>
<text text-anchor="middle" x="818" y="-279.5" font-family="Helvetica,sans-Serif" font-size="10.00">TPCBase/Sector.h</text>
</a>
</g>
</g>
<!-- Node3&#45;&gt;Node18 -->
<g id="edge18" class="edge"><title>Node3&#45;&gt;Node18</title>
<path fill="none" stroke="midnightblue" d="M774.829,-384.36C777.666,-371.688 783.678,-347.458 792,-328 796.08,-318.46 801.741,-308.41 806.74,-300.234"/>
<polygon fill="midnightblue" stroke="midnightblue" points="809.787,-301.962 812.168,-291.639 803.869,-298.224 809.787,-301.962"/>
</g>
<!-- Node20 -->
<g id="node20" class="node"><title>Node20</title>
<g id="a_node20"><a xlink:href="../../dc/d14/ROC_8h.html" target="_top" xlink:title="TPCBase/ROC.h">
<polygon fill="none" stroke="black" points="801.5,-328.5 801.5,-347.5 894.5,-347.5 894.5,-328.5 801.5,-328.5"/>
<text text-anchor="middle" x="848" y="-335.5" font-family="Helvetica,sans-Serif" font-size="10.00">TPCBase/ROC.h</text>
</a>
</g>
</g>
<!-- Node3&#45;&gt;Node20 -->
<g id="edge21" class="edge"><title>Node3&#45;&gt;Node20</title>
<path fill="none" stroke="midnightblue" d="M785.05,-384.324C796.463,-376.107 813.831,-363.602 827.435,-353.807"/>
<polygon fill="midnightblue" stroke="midnightblue" points="829.66,-356.517 835.731,-347.834 825.57,-350.837 829.66,-356.517"/>
</g>
<!-- Node5 -->
<g id="node5" class="node"><title>Node5</title>
<polygon fill="none" stroke="#bfbfbf" points="1269,-142.5 1269,-161.5 1313,-161.5 1313,-142.5 1269,-142.5"/>
<text text-anchor="middle" x="1291" y="-149.5" font-family="Helvetica,sans-Serif" font-size="10.00">cmath</text>
</g>
<!-- Node4&#45;&gt;Node5 -->
<g id="edge4" class="edge"><title>Node4&#45;&gt;Node5</title>
<path fill="none" stroke="midnightblue" d="M1144.09,-210.372C1173.65,-198.827 1226.24,-178.293 1259.82,-165.177"/>
<polygon fill="midnightblue" stroke="midnightblue" points="1261.13,-168.424 1269.17,-161.526 1258.58,-161.903 1261.13,-168.424"/>
</g>
<!-- Node6 -->
<g id="node6" class="node"><title>Node6</title>
<g id="a_node6"><a xlink:href="../../d2/dd0/Cartesian2D_8h.html" target="_top" xlink:title="MathUtils/Cartesian2D.h">
<polygon fill="none" stroke="black" points="1439.5,-74.5 1439.5,-93.5 1564.5,-93.5 1564.5,-74.5 1439.5,-74.5"/>
<text text-anchor="middle" x="1502" y="-81.5" font-family="Helvetica,sans-Serif" font-size="10.00">MathUtils/Cartesian2D.h</text>
</a>
</g>
</g>
<!-- Node4&#45;&gt;Node6 -->
<g id="edge5" class="edge"><title>Node4&#45;&gt;Node6</title>
<path fill="none" stroke="midnightblue" d="M1133.48,-210.245C1156.3,-193.278 1209.52,-155.846 1260,-136 1262.25,-135.117 1380.85,-110.289 1451.16,-95.606"/>
<polygon fill="midnightblue" stroke="midnightblue" points="1452.09,-98.9874 1461.16,-93.5174 1450.66,-92.1351 1452.09,-98.9874"/>
</g>
<!-- Node9 -->
<g id="node9" class="node"><title>Node9</title>
<g id="a_node9"><a xlink:href="../../dd/d76/Cartesian3D_8h.html" target="_top" xlink:title="MathUtils/Cartesian3D.h">
<polygon fill="none" stroke="black" points="970.5,-142.5 970.5,-161.5 1095.5,-161.5 1095.5,-142.5 970.5,-142.5"/>
<text text-anchor="middle" x="1033" y="-149.5" font-family="Helvetica,sans-Serif" font-size="10.00">MathUtils/Cartesian3D.h</text>
</a>
</g>
</g>
<!-- Node4&#45;&gt;Node9 -->
<g id="edge8" class="edge"><title>Node4&#45;&gt;Node9</title>
<path fill="none" stroke="midnightblue" d="M1110.36,-210.372C1095.84,-199.6 1070.76,-181.002 1053.1,-167.906"/>
<polygon fill="midnightblue" stroke="midnightblue" points="1054.76,-164.776 1044.64,-161.63 1050.59,-170.398 1054.76,-164.776"/>
</g>
<!-- Node7 -->
<g id="node7" class="node"><title>Node7</title>
<polygon fill="none" stroke="#bfbfbf" points="1335.5,-1 1335.5,-31 1486.5,-31 1486.5,-1 1335.5,-1"/>
<text text-anchor="start" x="1343.5" y="-19" font-family="Helvetica,sans-Serif" font-size="10.00">Math/GenVector/Displacement</text>
<text text-anchor="middle" x="1411" y="-8" font-family="Helvetica,sans-Serif" font-size="10.00">Vector2D.h</text>
</g>
<!-- Node6&#45;&gt;Node7 -->
<g id="edge6" class="edge"><title>Node6&#45;&gt;Node7</title>
<path fill="none" stroke="midnightblue" d="M1490.1,-74.3717C1477.22,-65.0286 1456.22,-49.7966 1439.09,-37.375"/>
<polygon fill="midnightblue" stroke="midnightblue" points="1440.7,-34.2194 1430.55,-31.1815 1436.59,-39.8859 1440.7,-34.2194"/>
</g>
<!-- Node8 -->
<g id="node8" class="node"><title>Node8</title>
<polygon fill="none" stroke="#bfbfbf" points="1505,-6.5 1505,-25.5 1681,-25.5 1681,-6.5 1505,-6.5"/>
<text text-anchor="middle" x="1593" y="-13.5" font-family="Helvetica,sans-Serif" font-size="10.00">Math/GenVector/PositionVector2D.h</text>
</g>
<!-- Node6&#45;&gt;Node8 -->
<g id="edge7" class="edge"><title>Node6&#45;&gt;Node8</title>
<path fill="none" stroke="midnightblue" d="M1513.9,-74.3717C1528.88,-63.5015 1554.86,-44.6602 1572.94,-31.5474"/>
<polygon fill="midnightblue" stroke="midnightblue" points="1575.06,-34.3349 1581.1,-25.6305 1570.95,-28.6684 1575.06,-34.3349"/>
</g>
<!-- Node9&#45;&gt;Node6 -->
<g id="edge17" class="edge"><title>Node9&#45;&gt;Node6</title>
<path fill="none" stroke="midnightblue" d="M1095.61,-142.89C1112.9,-140.654 1131.68,-138.229 1149,-136 1273.88,-119.927 1305.83,-120.856 1430,-100 1437.7,-98.7062 1445.84,-97.1743 1453.75,-95.5919"/>
<polygon fill="midnightblue" stroke="midnightblue" points="1454.52,-99.0072 1463.62,-93.5746 1453.12,-92.1491 1454.52,-99.0072"/>
</g>
<!-- Node10 -->
<g id="node10" class="node"><title>Node10</title>
<polygon fill="none" stroke="#bfbfbf" points="556.5,-69 556.5,-99 707.5,-99 707.5,-69 556.5,-69"/>
<text text-anchor="start" x="564.5" y="-87" font-family="Helvetica,sans-Serif" font-size="10.00">Math/GenVector/Displacement</text>
<text text-anchor="middle" x="632" y="-76" font-family="Helvetica,sans-Serif" font-size="10.00">Vector3D.h</text>
</g>
<!-- Node9&#45;&gt;Node10 -->
<g id="edge9" class="edge"><title>Node9&#45;&gt;Node10</title>
<path fill="none" stroke="midnightblue" d="M978.722,-142.488C917.83,-132.883 815.835,-116.628 717.636,-100.093"/>
<polygon fill="midnightblue" stroke="midnightblue" points="717.977,-96.6012 707.534,-98.3887 716.812,-103.504 717.977,-96.6012"/>
</g>
<!-- Node11 -->
<g id="node11" class="node"><title>Node11</title>
<polygon fill="none" stroke="#bfbfbf" points="726,-74.5 726,-93.5 902,-93.5 902,-74.5 726,-74.5"/>
<text text-anchor="middle" x="814" y="-81.5" font-family="Helvetica,sans-Serif" font-size="10.00">Math/GenVector/PositionVector3D.h</text>
</g>
<!-- Node9&#45;&gt;Node11 -->
<g id="edge10" class="edge"><title>Node9&#45;&gt;Node11</title>
<path fill="none" stroke="midnightblue" d="M1004.37,-142.372C965.324,-130.604 895.282,-109.496 851.913,-96.4257"/>
<polygon fill="midnightblue" stroke="midnightblue" points="852.875,-93.0603 842.29,-93.5259 850.855,-99.7626 852.875,-93.0603"/>
</g>
<!-- Node12 -->
<g id="node12" class="node"><title>Node12</title>
<polygon fill="none" stroke="#bfbfbf" points="919.5,-74.5 919.5,-93.5 1068.5,-93.5 1068.5,-74.5 919.5,-74.5"/>
<text text-anchor="middle" x="994" y="-81.5" font-family="Helvetica,sans-Serif" font-size="10.00">Math/GenVector/Rotation3D.h</text>
</g>
<!-- Node9&#45;&gt;Node12 -->
<g id="edge11" class="edge"><title>Node9&#45;&gt;Node12</title>
<path fill="none" stroke="midnightblue" d="M1027.9,-142.372C1021.98,-132.348 1012.05,-115.546 1004.46,-102.708"/>
<polygon fill="midnightblue" stroke="midnightblue" points="1007.32,-100.67 999.224,-93.8411 1001.3,-104.231 1007.32,-100.67"/>
</g>
<!-- Node13 -->
<g id="node13" class="node"><title>Node13</title>
<polygon fill="none" stroke="#bfbfbf" points="1087,-74.5 1087,-93.5 1243,-93.5 1243,-74.5 1087,-74.5"/>
<text text-anchor="middle" x="1165" y="-81.5" font-family="Helvetica,sans-Serif" font-size="10.00">Math/GenVector/Transform3D.h</text>
</g>
<!-- Node9&#45;&gt;Node13 -->
<g id="edge12" class="edge"><title>Node9&#45;&gt;Node13</title>
<path fill="none" stroke="midnightblue" d="M1050.26,-142.372C1072.79,-131.106 1112.44,-111.279 1138.72,-98.1403"/>
<polygon fill="midnightblue" stroke="midnightblue" points="1140.36,-101.233 1147.74,-93.6305 1137.23,-94.9722 1140.36,-101.233"/>
</g>
<!-- Node14 -->
<g id="node14" class="node"><title>Node14</title>
<polygon fill="none" stroke="#bfbfbf" points="1261,-74.5 1261,-93.5 1421,-93.5 1421,-74.5 1261,-74.5"/>
<text text-anchor="middle" x="1341" y="-81.5" font-family="Helvetica,sans-Serif" font-size="10.00">Math/GenVector/Translation3D.h</text>
</g>
<!-- Node9&#45;&gt;Node14 -->
<g id="edge13" class="edge"><title>Node9&#45;&gt;Node14</title>
<path fill="none" stroke="midnightblue" d="M1072.95,-142.439C1128.8,-130.471 1230.19,-108.744 1290.99,-95.7158"/>
<polygon fill="midnightblue" stroke="midnightblue" points="1292.08,-99.0632 1301.12,-93.5455 1290.61,-92.2186 1292.08,-99.0632"/>
</g>
<!-- Node15 -->
<g id="node15" class="node"><title>Node15</title>
<polygon fill="none" stroke="#bfbfbf" points="388,-74.5 388,-93.5 444,-93.5 444,-74.5 388,-74.5"/>
<text text-anchor="middle" x="416" y="-81.5" font-family="Helvetica,sans-Serif" font-size="10.00">Rtypes.h</text>
</g>
<!-- Node9&#45;&gt;Node15 -->
<g id="edge14" class="edge"><title>Node9&#45;&gt;Node15</title>
<path fill="none" stroke="midnightblue" d="M970.34,-145.611C821.62,-132.806 459.246,-101.505 453,-100 449.932,-99.2608 446.785,-98.31 443.684,-97.2463"/>
<polygon fill="midnightblue" stroke="midnightblue" points="444.679,-93.8799 434.088,-93.5845 442.183,-100.42 444.679,-93.8799"/>
</g>
<!-- Node16 -->
<g id="node16" class="node"><title>Node16</title>
<polygon fill="none" stroke="#bfbfbf" points="462,-74.5 462,-93.5 538,-93.5 538,-74.5 462,-74.5"/>
<text text-anchor="middle" x="500" y="-81.5" font-family="Helvetica,sans-Serif" font-size="10.00">TGeoMatrix.h</text>
</g>
<!-- Node9&#45;&gt;Node16 -->
<g id="edge15" class="edge"><title>Node9&#45;&gt;Node16</title>
<path fill="none" stroke="midnightblue" d="M970.263,-145.139C848.275,-133.637 587.478,-108.49 547,-100 542.541,-99.0649 537.907,-97.8708 533.361,-96.5658"/>
<polygon fill="midnightblue" stroke="midnightblue" points="534.244,-93.1756 523.657,-93.5891 532.191,-99.8679 534.244,-93.1756"/>
</g>
<!-- Node9&#45;&gt;Node17 -->
<g id="edge16" class="edge"><title>Node9&#45;&gt;Node17</title>
<path fill="none" stroke="midnightblue" d="M1095.62,-146.116C1227.94,-135.646 1527.61,-111.093 1573,-100 1576.07,-99.2509 1579.21,-98.2937 1582.31,-97.2262"/>
<polygon fill="midnightblue" stroke="midnightblue" points="1583.81,-100.399 1591.91,-93.56 1581.32,-93.8601 1583.81,-100.399"/>
</g>
<!-- Node18&#45;&gt;Node4 -->
<g id="edge20" class="edge"><title>Node18&#45;&gt;Node4</title>
<path fill="none" stroke="midnightblue" d="M861.233,-272.467C915.934,-261.671 1010.1,-243.086 1069.05,-231.45"/>
<polygon fill="midnightblue" stroke="midnightblue" points="1069.78,-234.874 1078.92,-229.503 1068.43,-228.006 1069.78,-234.874"/>
</g>
<!-- Node19 -->
<g id="node19" class="node"><title>Node19</title>
<g id="a_node19"><a xlink:href="../../d6/d51/TPC_2base_2include_2TPCBase_2Constants_8h.html" target="_top" xlink:title="TPCBase/Constants.h">
<polygon fill="none" stroke="black" points="760,-210.5 760,-229.5 876,-229.5 876,-210.5 760,-210.5"/>
<text text-anchor="middle" x="818" y="-217.5" font-family="Helvetica,sans-Serif" font-size="10.00">TPCBase/Constants.h</text>
</a>
</g>
</g>
<!-- Node18&#45;&gt;Node19 -->
<g id="edge19" class="edge"><title>Node18&#45;&gt;Node19</title>
<path fill="none" stroke="midnightblue" d="M818,-272.403C818,-263.938 818,-250.728 818,-239.82"/>
<polygon fill="midnightblue" stroke="midnightblue" points="821.5,-239.581 818,-229.581 814.5,-239.581 821.5,-239.581"/>
</g>
<!-- Node20&#45;&gt;Node4 -->
<g id="edge22" class="edge"><title>Node20&#45;&gt;Node4</title>
<path fill="none" stroke="midnightblue" d="M855.009,-328.39C866.884,-314.387 892.375,-286.764 920,-272 965.826,-247.508 1023.83,-234.444 1065.91,-227.695"/>
<polygon fill="midnightblue" stroke="midnightblue" points="1066.63,-231.126 1075.98,-226.151 1065.57,-224.207 1066.63,-231.126"/>
</g>
<!-- Node20&#45;&gt;Node18 -->
<g id="edge23" class="edge"><title>Node20&#45;&gt;Node18</title>
<path fill="none" stroke="midnightblue" d="M843.046,-328.083C838.896,-320.613 832.847,-309.724 827.733,-300.52"/>
<polygon fill="midnightblue" stroke="midnightblue" points="830.778,-298.793 822.862,-291.751 824.659,-302.192 830.778,-298.793"/>
</g>
<!-- Node22 -->
<g id="node22" class="node"><title>Node22</title>
<g id="a_node22"><a xlink:href="../../d0/d60/DigitTime_8h.html" target="_top" xlink:title="Definition of the Time Bin container. ">
<polygon fill="none" stroke="black" points="328,-558.5 328,-577.5 464,-577.5 464,-558.5 328,-558.5"/>
<text text-anchor="middle" x="396" y="-565.5" font-family="Helvetica,sans-Serif" font-size="10.00">TPCSimulation/DigitTime.h</text>
</a>
</g>
</g>
<!-- Node21&#45;&gt;Node22 -->
<g id="edge25" class="edge"><title>Node21&#45;&gt;Node22</title>
<path fill="none" stroke="midnightblue" d="M493.667,-620.403C474.789,-610.468 443.493,-593.997 421.424,-582.381"/>
<polygon fill="midnightblue" stroke="midnightblue" points="422.782,-579.141 412.303,-577.581 419.522,-585.335 422.782,-579.141"/>
</g>
<!-- Node21&#45;&gt;Node39 -->
<g id="edge45" class="edge"><title>Node21&#45;&gt;Node39</title>
<path fill="none" stroke="midnightblue" d="M522.035,-620.403C533.412,-612.277 550.909,-599.779 565.801,-589.142"/>
<polygon fill="midnightblue" stroke="midnightblue" points="568.1,-591.801 574.203,-583.141 564.031,-586.105 568.1,-591.801"/>
</g>
<!-- Node51 -->
<g id="node51" class="node"><title>Node51</title>
<polygon fill="none" stroke="#bfbfbf" points="512.5,-496.5 512.5,-515.5 555.5,-515.5 555.5,-496.5 512.5,-496.5"/>
<text text-anchor="middle" x="534" y="-503.5" font-family="Helvetica,sans-Serif" font-size="10.00">deque</text>
</g>
<!-- Node21&#45;&gt;Node51 -->
<g id="edge76" class="edge"><title>Node21&#45;&gt;Node51</title>
<path fill="none" stroke="midnightblue" d="M508.647,-620.288C506.702,-605.84 503.969,-576.122 510,-552 512.439,-542.245 517.437,-532.29 522.243,-524.231"/>
<polygon fill="midnightblue" stroke="midnightblue" points="525.213,-526.083 527.633,-515.768 519.309,-522.322 525.213,-526.083"/>
</g>
<!-- Node23 -->
<g id="node23" class="node"><title>Node23</title>
<g id="a_node23"><a xlink:href="../../de/dc8/DigitRow_8h.html" target="_top" xlink:title="Definition of the Row container. ">
<polygon fill="none" stroke="black" points="358,-272.5 358,-291.5 492,-291.5 492,-272.5 358,-272.5"/>
<text text-anchor="middle" x="425" y="-279.5" font-family="Helvetica,sans-Serif" font-size="10.00">TPCSimulation/DigitRow.h</text>
</a>
</g>
</g>
<!-- Node22&#45;&gt;Node23 -->
<g id="edge26" class="edge"><title>Node22&#45;&gt;Node23</title>
<path fill="none" stroke="midnightblue" d="M397.013,-558.283C399.166,-538.983 404,-491.172 404,-451 404,-451 404,-451 404,-393 404,-360.384 413.018,-323.278 419.235,-301.573"/>
<polygon fill="midnightblue" stroke="midnightblue" points="422.666,-302.315 422.168,-291.732 415.957,-300.316 422.666,-302.315"/>
</g>
<!-- Node24 -->
<g id="node24" class="node"><title>Node24</title>
<g id="a_node24"><a xlink:href="../../d3/d5d/DigitPad_8h.html" target="_top" xlink:title="Definition of the Pad container. ">
<polygon fill="none" stroke="black" points="359.5,-210.5 359.5,-229.5 490.5,-229.5 490.5,-210.5 359.5,-210.5"/>
<text text-anchor="middle" x="425" y="-217.5" font-family="Helvetica,sans-Serif" font-size="10.00">TPCSimulation/DigitPad.h</text>
</a>
</g>
</g>
<!-- Node23&#45;&gt;Node24 -->
<g id="edge27" class="edge"><title>Node23&#45;&gt;Node24</title>
<path fill="none" stroke="midnightblue" d="M425,-272.403C425,-263.938 425,-250.728 425,-239.82"/>
<polygon fill="midnightblue" stroke="midnightblue" points="428.5,-239.581 425,-229.581 421.5,-239.581 428.5,-239.581"/>
</g>
<!-- Node34 -->
<g id="node34" class="node"><title>Node34</title>
<g id="a_node34"><a xlink:href="../../df/db1/TPC_2base_2include_2TPCBase_2Digit_8h.html" target="_top" xlink:title="TPCBase/Digit.h">
<polygon fill="none" stroke="black" points="650.5,-210.5 650.5,-229.5 741.5,-229.5 741.5,-210.5 650.5,-210.5"/>
<text text-anchor="middle" x="696" y="-217.5" font-family="Helvetica,sans-Serif" font-size="10.00">TPCBase/Digit.h</text>
</a>
</g>
</g>
<!-- Node23&#45;&gt;Node34 -->
<g id="edge38" class="edge"><title>Node23&#45;&gt;Node34</title>
<path fill="none" stroke="midnightblue" d="M463.54,-272.467C512,-261.738 595.208,-243.316 647.819,-231.667"/>
<polygon fill="midnightblue" stroke="midnightblue" points="648.586,-235.082 657.593,-229.503 647.073,-228.248 648.586,-235.082"/>
</g>
<!-- Node37 -->
<g id="node37" class="node"><title>Node37</title>
<g id="a_node37"><a xlink:href="../../dd/df5/DigitMCMetaData_8h.html" target="_top" xlink:title="Definition of the Meta Data object of the Monte Carlo Digit. ">
<polygon fill="none" stroke="black" points="198.5,-205 198.5,-235 341.5,-235 341.5,-205 198.5,-205"/>
<text text-anchor="start" x="206.5" y="-223" font-family="Helvetica,sans-Serif" font-size="10.00">TPCSimulation/DigitMCMeta</text>
<text text-anchor="middle" x="270" y="-212" font-family="Helvetica,sans-Serif" font-size="10.00">Data.h</text>
</a>
</g>
</g>
<!-- Node23&#45;&gt;Node37 -->
<g id="edge42" class="edge"><title>Node23&#45;&gt;Node37</title>
<path fill="none" stroke="midnightblue" d="M402.792,-272.403C380.155,-263.641 344.385,-249.794 315.67,-238.679"/>
<polygon fill="midnightblue" stroke="midnightblue" points="316.821,-235.371 306.232,-235.025 314.294,-241.899 316.821,-235.371"/>
</g>
<!-- Node38 -->
<g id="node38" class="node"><title>Node38</title>
<polygon fill="none" stroke="#bfbfbf" points="509,-210.5 509,-229.5 561,-229.5 561,-210.5 509,-210.5"/>
<text text-anchor="middle" x="535" y="-217.5" font-family="Helvetica,sans-Serif" font-size="10.00">memory</text>
</g>
<!-- Node23&#45;&gt;Node38 -->
<g id="edge44" class="edge"><title>Node23&#45;&gt;Node38</title>
<path fill="none" stroke="midnightblue" d="M440.76,-272.403C458.976,-262.468 489.173,-245.997 510.468,-234.381"/>
<polygon fill="midnightblue" stroke="midnightblue" points="512.166,-237.442 519.269,-229.581 508.814,-231.297 512.166,-237.442"/>
</g>
<!-- Node25 -->
<g id="node25" class="node"><title>Node25</title>
<polygon fill="none" stroke="#bfbfbf" points="548.5,-142.5 548.5,-161.5 583.5,-161.5 583.5,-142.5 548.5,-142.5"/>
<text text-anchor="middle" x="566" y="-149.5" font-family="Helvetica,sans-Serif" font-size="10.00">map</text>
</g>
<!-- Node24&#45;&gt;Node25 -->
<g id="edge28" class="edge"><title>Node24&#45;&gt;Node25</title>
<path fill="none" stroke="midnightblue" d="M445.428,-210.493C468.434,-200.767 506.812,-184.104 539,-168 539.983,-167.508 540.982,-166.999 541.988,-166.478"/>
<polygon fill="midnightblue" stroke="midnightblue" points="543.834,-169.459 550.986,-161.642 540.521,-163.293 543.834,-169.459"/>
</g>
<!-- Node26 -->
<g id="node26" class="node"><title>Node26</title>
<polygon fill="none" stroke="#bfbfbf" points="298,-142.5 298,-161.5 398,-161.5 398,-142.5 298,-142.5"/>
<text text-anchor="middle" x="348" y="-149.5" font-family="Helvetica,sans-Serif" font-size="10.00">FairRootManager.h</text>
</g>
<!-- Node24&#45;&gt;Node26 -->
<g id="edge29" class="edge"><title>Node24&#45;&gt;Node26</title>
<path fill="none" stroke="midnightblue" d="M414.934,-210.372C402.551,-199.758 381.303,-181.545 366.066,-168.485"/>
<polygon fill="midnightblue" stroke="midnightblue" points="368.185,-165.692 358.315,-161.841 363.629,-171.006 368.185,-165.692"/>
</g>
<!-- Node27 -->
<g id="node27" class="node"><title>Node27</title>
<g id="a_node27"><a xlink:href="../../db/d14/MCTruthContainer_8h.html" target="_top" xlink:title="Definition of a container to keep Monte Carlo truth external to simulation objects. ">
<polygon fill="none" stroke="black" points="128,-137 128,-167 242,-167 242,-137 128,-137"/>
<text text-anchor="start" x="136" y="-155" font-family="Helvetica,sans-Serif" font-size="10.00">SimulationDataFormat</text>
<text text-anchor="middle" x="185" y="-144" font-family="Helvetica,sans-Serif" font-size="10.00">/MCTruthContainer.h</text>
</a>
</g>
</g>
<!-- Node24&#45;&gt;Node27 -->
<g id="edge30" class="edge"><title>Node24&#45;&gt;Node27</title>
<path fill="none" stroke="midnightblue" d="M393.624,-210.372C356.258,-200.096 292.989,-182.697 245.901,-169.748"/>
<polygon fill="midnightblue" stroke="midnightblue" points="246.684,-166.333 236.114,-167.056 244.828,-173.083 246.684,-166.333"/>
</g>
<!-- Node33 -->
<g id="node33" class="node"><title>Node33</title>
<g id="a_node33"><a xlink:href="../../d7/dcd/MCCompLabel_8h.html" target="_top" xlink:title="SimulationDataFormat\l/MCCompLabel.h">
<polygon fill="none" stroke="black" points="416,-137 416,-167 530,-167 530,-137 416,-137"/>
<text text-anchor="start" x="424" y="-155" font-family="Helvetica,sans-Serif" font-size="10.00">SimulationDataFormat</text>
<text text-anchor="middle" x="473" y="-144" font-family="Helvetica,sans-Serif" font-size="10.00">/MCCompLabel.h</text>
</a>
</g>
</g>
<!-- Node24&#45;&gt;Node33 -->
<g id="edge36" class="edge"><title>Node24&#45;&gt;Node33</title>
<path fill="none" stroke="midnightblue" d="M431.275,-210.372C437.696,-201.543 447.941,-187.456 456.672,-175.45"/>
<polygon fill="midnightblue" stroke="midnightblue" points="459.635,-177.327 462.686,-167.181 453.974,-173.21 459.635,-177.327"/>
</g>
<!-- Node28 -->
<g id="node28" class="node"><title>Node28</title>
<polygon fill="none" stroke="#bfbfbf" points="80,-74.5 80,-93.5 142,-93.5 142,-74.5 80,-74.5"/>
<text text-anchor="middle" x="111" y="-81.5" font-family="Helvetica,sans-Serif" font-size="10.00">TNamed.h</text>
</g>
<!-- Node27&#45;&gt;Node28 -->
<g id="edge31" class="edge"><title>Node27&#45;&gt;Node28</title>
<path fill="none" stroke="midnightblue" d="M168.943,-136.679C157.062,-126.082 140.885,-111.655 128.644,-100.736"/>
<polygon fill="midnightblue" stroke="midnightblue" points="130.691,-97.8724 120.898,-93.8283 126.032,-103.097 130.691,-97.8724"/>
</g>
<!-- Node29 -->
<g id="node29" class="node"><title>Node29</title>
<polygon fill="none" stroke="#bfbfbf" points="160.5,-74.5 160.5,-93.5 209.5,-93.5 209.5,-74.5 160.5,-74.5"/>
<text text-anchor="middle" x="185" y="-81.5" font-family="Helvetica,sans-Serif" font-size="10.00">cassert</text>
</g>
<!-- Node27&#45;&gt;Node29 -->
<g id="edge32" class="edge"><title>Node27&#45;&gt;Node29</title>
<path fill="none" stroke="midnightblue" d="M185,-136.679C185,-127.101 185,-114.394 185,-103.977"/>
<polygon fill="midnightblue" stroke="midnightblue" points="188.5,-103.828 185,-93.8283 181.5,-103.828 188.5,-103.828"/>
</g>
<!-- Node30 -->
<g id="node30" class="node"><title>Node30</title>
<polygon fill="none" stroke="#bfbfbf" points="227.5,-74.5 227.5,-93.5 286.5,-93.5 286.5,-74.5 227.5,-74.5"/>
<text text-anchor="middle" x="257" y="-81.5" font-family="Helvetica,sans-Serif" font-size="10.00">stdexcept</text>
</g>
<!-- Node27&#45;&gt;Node30 -->
<g id="edge33" class="edge"><title>Node27&#45;&gt;Node30</title>
<path fill="none" stroke="midnightblue" d="M200.623,-136.679C212.183,-126.082 227.922,-111.655 239.833,-100.736"/>
<polygon fill="midnightblue" stroke="midnightblue" points="242.363,-103.166 247.369,-93.8283 237.633,-98.0055 242.363,-103.166"/>
</g>
<!-- Node31 -->
<g id="node31" class="node"><title>Node31</title>
<polygon fill="none" stroke="#bfbfbf" points="304.5,-74.5 304.5,-93.5 349.5,-93.5 349.5,-74.5 304.5,-74.5"/>
<text text-anchor="middle" x="327" y="-81.5" font-family="Helvetica,sans-Serif" font-size="10.00">gsl/gsl</text>
</g>
<!-- Node27&#45;&gt;Node31 -->
<g id="edge34" class="edge"><title>Node27&#45;&gt;Node31</title>
<path fill="none" stroke="midnightblue" d="M215.364,-136.964C237.462,-126.739 268.099,-112.541 295,-100 296.39,-99.3519 297.814,-98.6873 299.252,-98.0156"/>
<polygon fill="midnightblue" stroke="midnightblue" points="301.156,-100.989 308.73,-93.5801 298.189,-94.6486 301.156,-100.989"/>
</g>
<!-- Node32 -->
<g id="node32" class="node"><title>Node32</title>
<polygon fill="none" stroke="#bfbfbf" points="0,-74.5 0,-93.5 62,-93.5 62,-74.5 0,-74.5"/>
<text text-anchor="middle" x="31" y="-81.5" font-family="Helvetica,sans-Serif" font-size="10.00">type_traits</text>
</g>
<!-- Node27&#45;&gt;Node32 -->
<g id="edge35" class="edge"><title>Node27&#45;&gt;Node32</title>
<path fill="none" stroke="midnightblue" d="M151.963,-136.841C124.848,-125.221 86.7944,-108.912 60.648,-97.7063"/>
<polygon fill="midnightblue" stroke="midnightblue" points="61.8279,-94.4041 51.2577,-93.6819 59.0704,-100.838 61.8279,-94.4041"/>
</g>
<!-- Node33&#45;&gt;Node15 -->
<g id="edge37" class="edge"><title>Node33&#45;&gt;Node15</title>
<path fill="none" stroke="midnightblue" d="M460.632,-136.679C451.744,-126.388 439.736,-112.484 430.414,-101.69"/>
<polygon fill="midnightblue" stroke="midnightblue" points="432.81,-99.1089 423.624,-93.8283 427.512,-103.684 432.81,-99.1089"/>
</g>
<!-- Node35 -->
<g id="node35" class="node"><title>Node35</title>
<g id="a_node35"><a xlink:href="../../df/d5d/common_2include_2CommonDataFormat_2TimeStamp_8h.html" target="_top" xlink:title="CommonDataFormat/TimeStamp.h">
<polygon fill="none" stroke="black" points="679,-142.5 679,-161.5 849,-161.5 849,-142.5 679,-142.5"/>
<text text-anchor="middle" x="764" y="-149.5" font-family="Helvetica,sans-Serif" font-size="10.00">CommonDataFormat/TimeStamp.h</text>
</a>
</g>
</g>
<!-- Node34&#45;&gt;Node35 -->
<g id="edge39" class="edge"><title>Node34&#45;&gt;Node35</title>
<path fill="none" stroke="midnightblue" d="M704.89,-210.372C715.724,-199.856 734.243,-181.882 747.67,-168.85"/>
<polygon fill="midnightblue" stroke="midnightblue" points="750.153,-171.317 754.891,-161.841 745.277,-166.294 750.153,-171.317"/>
</g>
<!-- Node36 -->
<g id="node36" class="node"><title>Node36</title>
<polygon fill="none" stroke="#bfbfbf" points="601.5,-142.5 601.5,-161.5 660.5,-161.5 660.5,-142.5 601.5,-142.5"/>
<text text-anchor="middle" x="631" y="-149.5" font-family="Helvetica,sans-Serif" font-size="10.00">TObject.h</text>
</g>
<!-- Node34&#45;&gt;Node36 -->
<g id="edge41" class="edge"><title>Node34&#45;&gt;Node36</title>
<path fill="none" stroke="midnightblue" d="M687.502,-210.372C677.243,-199.955 659.775,-182.217 646.971,-169.216"/>
<polygon fill="midnightblue" stroke="midnightblue" points="649.218,-166.51 639.707,-161.841 644.23,-171.422 649.218,-166.51"/>
</g>
<!-- Node35&#45;&gt;Node15 -->
<g id="edge40" class="edge"><title>Node35&#45;&gt;Node15</title>
<path fill="none" stroke="midnightblue" d="M710.051,-142.472C624.299,-128.872 465.263,-103.445 453,-100 450.185,-99.2092 447.293,-98.2717 444.425,-97.2572"/>
<polygon fill="midnightblue" stroke="midnightblue" points="445.511,-93.925 434.92,-93.6136 443.005,-100.461 445.511,-93.925"/>
</g>
<!-- Node37&#45;&gt;Node15 -->
<g id="edge43" class="edge"><title>Node37&#45;&gt;Node15</title>
<path fill="none" stroke="midnightblue" d="M269.457,-204.928C269.519,-186.872 272.293,-155.557 289,-136 300.993,-121.961 345.235,-106.171 378.147,-95.93"/>
<polygon fill="midnightblue" stroke="midnightblue" points="379.407,-99.205 387.95,-92.9381 377.363,-92.5099 379.407,-99.205"/>
</g>
<!-- Node39&#45;&gt;Node20 -->
<g id="edge46" class="edge"><title>Node39&#45;&gt;Node20</title>
<path fill="none" stroke="midnightblue" d="M597.874,-552.935C605.146,-528.273 622.621,-476.395 650,-440 673.33,-408.986 683.197,-403.066 717,-384 743.627,-368.982 776.113,-357.782 802.073,-350.313"/>
<polygon fill="midnightblue" stroke="midnightblue" points="803.344,-353.592 812.037,-347.535 801.464,-346.849 803.344,-353.592"/>
</g>
<!-- Node39&#45;&gt;Node40 -->
<g id="edge47" class="edge"><title>Node39&#45;&gt;Node40</title>
<path fill="none" stroke="midnightblue" d="M668.53,-558.531C773.407,-546.613 962.603,-525.113 1060.14,-514.029"/>
<polygon fill="midnightblue" stroke="midnightblue" points="1060.6,-517.5 1070.14,-512.893 1059.81,-510.544 1060.6,-517.5"/>
</g>
<!-- Node39&#45;&gt;Node51 -->
<g id="edge75" class="edge"><title>Node39&#45;&gt;Node51</title>
<path fill="none" stroke="midnightblue" d="M579.781,-552.781C570.792,-543.792 559.162,-532.162 549.873,-522.873"/>
<polygon fill="midnightblue" stroke="midnightblue" points="552.277,-520.327 542.731,-515.731 547.327,-525.277 552.277,-520.327"/>
</g>
<!-- Node40&#45;&gt;Node4 -->
<g id="edge53" class="edge"><title>Node40&#45;&gt;Node4</title>
<path fill="none" stroke="midnightblue" d="M1173.7,-502.685C1242.17,-498.571 1357.91,-487.64 1389,-460 1411.49,-440.003 1408,-425.098 1408,-395 1408,-395 1408,-395 1408,-337 1408,-287.635 1259.83,-249.238 1176.79,-231.593"/>
<polygon fill="midnightblue" stroke="midnightblue" points="1177.51,-228.167 1167,-229.545 1176.07,-235.019 1177.51,-228.167"/>
</g>
<!-- Node40&#45;&gt;Node5 -->
<g id="edge52" class="edge"><title>Node40&#45;&gt;Node5</title>
<path fill="none" stroke="midnightblue" d="M1173.73,-502.416C1246.32,-497.885 1373.74,-486.355 1411,-460 1437.79,-441.052 1446,-427.811 1446,-395 1446,-395 1446,-395 1446,-281 1446,-217.731 1368.27,-179.881 1322.9,-163.176"/>
<polygon fill="midnightblue" stroke="midnightblue" points="1323.8,-159.784 1313.21,-159.747 1321.47,-166.383 1323.8,-159.784"/>
</g>
<!-- Node40&#45;&gt;Node18 -->
<g id="edge74" class="edge"><title>Node40&#45;&gt;Node18</title>
<path fill="none" stroke="midnightblue" d="M1070.19,-501.307C989.68,-495.016 838.617,-480.842 789,-460 751.624,-444.3 734.811,-440.417 717,-404 695.259,-359.548 754.634,-317.518 791.372,-296.67"/>
<polygon fill="midnightblue" stroke="midnightblue" points="793.523,-299.482 800.605,-291.602 790.154,-293.346 793.523,-299.482"/>
</g>
<!-- Node40&#45;&gt;Node25 -->
<g id="edge48" class="edge"><title>Node40&#45;&gt;Node25</title>
<path fill="none" stroke="midnightblue" d="M1070.35,-503.033C980.493,-498.928 799.558,-487.445 743,-460 674.577,-426.797 622,-415.053 622,-339 622,-339 622,-339 622,-281 622,-238.173 595.362,-193.534 578.83,-169.955"/>
<polygon fill="midnightblue" stroke="midnightblue" points="581.571,-167.772 572.867,-161.731 575.904,-171.881 581.571,-167.772"/>
</g>
<!-- Node41 -->
<g id="node41" class="node"><title>Node41</title>
<polygon fill="none" stroke="#bfbfbf" points="1200,-384.5 1200,-403.5 1244,-403.5 1244,-384.5 1200,-384.5"/>
<text text-anchor="middle" x="1222" y="-391.5" font-family="Helvetica,sans-Serif" font-size="10.00">vector</text>
</g>
<!-- Node40&#45;&gt;Node41 -->
<g id="edge49" class="edge"><title>Node40&#45;&gt;Node41</title>
<path fill="none" stroke="midnightblue" d="M1122.46,-496.478C1123.59,-483.086 1127.5,-456.902 1141,-440 1153.67,-424.135 1173.54,-412.975 1190.43,-405.737"/>
<polygon fill="midnightblue" stroke="midnightblue" points="1191.97,-408.89 1199.95,-401.922 1189.37,-402.392 1191.97,-408.89"/>
</g>
<!-- Node42 -->
<g id="node42" class="node"><title>Node42</title>
<polygon fill="none" stroke="#bfbfbf" points="1342,-440.5 1342,-459.5 1380,-459.5 1380,-440.5 1342,-440.5"/>
<text text-anchor="middle" x="1361" y="-447.5" font-family="Helvetica,sans-Serif" font-size="10.00">array</text>
</g>
<!-- Node40&#45;&gt;Node42 -->
<g id="edge50" class="edge"><title>Node40&#45;&gt;Node42</title>
<path fill="none" stroke="midnightblue" d="M1163.97,-496.489C1205.7,-487.872 1271.47,-473.873 1328,-460 1329.27,-459.69 1330.56,-459.366 1331.86,-459.034"/>
<polygon fill="midnightblue" stroke="midnightblue" points="1333.07,-462.334 1341.85,-456.401 1331.29,-455.566 1333.07,-462.334"/>
</g>
<!-- Node43 -->
<g id="node43" class="node"><title>Node43</title>
<polygon fill="none" stroke="#bfbfbf" points="1512.5,-440.5 1512.5,-459.5 1553.5,-459.5 1553.5,-440.5 1512.5,-440.5"/>
<text text-anchor="middle" x="1533" y="-447.5" font-family="Helvetica,sans-Serif" font-size="10.00">string</text>
</g>
<!-- Node40&#45;&gt;Node43 -->
<g id="edge51" class="edge"><title>Node40&#45;&gt;Node43</title>
<path fill="none" stroke="midnightblue" d="M1173.72,-500.995C1246.51,-494.864 1383.14,-481.542 1498,-460 1499.46,-459.725 1500.96,-459.424 1502.46,-459.104"/>
<polygon fill="midnightblue" stroke="midnightblue" points="1503.43,-462.472 1512.37,-456.788 1501.84,-455.655 1503.43,-462.472"/>
</g>
<!-- Node44 -->
<g id="node44" class="node"><title>Node44</title>
<g id="a_node44"><a xlink:href="../../de/d41/PadPos_8h.html" target="_top" xlink:title="TPCBase/PadPos.h">
<polygon fill="none" stroke="black" points="1038.5,-328.5 1038.5,-347.5 1143.5,-347.5 1143.5,-328.5 1038.5,-328.5"/>
<text text-anchor="middle" x="1091" y="-335.5" font-family="Helvetica,sans-Serif" font-size="10.00">TPCBase/PadPos.h</text>
</a>
</g>
</g>
<!-- Node40&#45;&gt;Node44 -->
<g id="edge54" class="edge"><title>Node40&#45;&gt;Node44</title>
<path fill="none" stroke="midnightblue" d="M1173.93,-498.422C1219.02,-491.518 1279.33,-478.996 1294,-460 1299.43,-452.964 1295.85,-448.694 1294,-440 1288.32,-413.342 1289.86,-401.544 1269,-384 1237,-357.089 1191.06,-345.941 1153.87,-341.468"/>
<polygon fill="midnightblue" stroke="midnightblue" points="1153.95,-337.956 1143.63,-340.376 1153.2,-344.917 1153.95,-337.956"/>
</g>
<!-- Node45 -->
<g id="node45" class="node"><title>Node45</title>
<g id="a_node45"><a xlink:href="../../dd/d0b/PadSecPos_8h.html" target="_top" xlink:title="TPCBase/PadSecPos.h">
<polygon fill="none" stroke="black" points="984,-384.5 984,-403.5 1106,-403.5 1106,-384.5 984,-384.5"/>
<text text-anchor="middle" x="1045" y="-391.5" font-family="Helvetica,sans-Serif" font-size="10.00">TPCBase/PadSecPos.h</text>
</a>
</g>
</g>
<!-- Node40&#45;&gt;Node45 -->
<g id="edge55" class="edge"><title>Node40&#45;&gt;Node45</title>
<path fill="none" stroke="midnightblue" d="M1070.19,-505.706C987.594,-505.6 831.795,-499.945 797,-460 791.162,-453.297 791.303,-446.823 797,-440 802.839,-433.006 906.06,-416.064 977.474,-405.08"/>
<polygon fill="midnightblue" stroke="midnightblue" points="978.409,-408.477 987.764,-403.504 977.35,-401.558 978.409,-408.477"/>
</g>
<!-- Node46 -->
<g id="node46" class="node"><title>Node46</title>
<g id="a_node46"><a xlink:href="../../da/d61/PadROCPos_8h.html" target="_top" xlink:title="TPCBase/PadROCPos.h">
<polygon fill="none" stroke="black" points="838,-384.5 838,-403.5 966,-403.5 966,-384.5 838,-384.5"/>
<text text-anchor="middle" x="902" y="-391.5" font-family="Helvetica,sans-Serif" font-size="10.00">TPCBase/PadROCPos.h</text>
</a>
</g>
</g>
<!-- Node40&#45;&gt;Node46 -->
<g id="edge58" class="edge"><title>Node40&#45;&gt;Node46</title>
<path fill="none" stroke="midnightblue" d="M1078.56,-496.475C1048.73,-489.458 1008.9,-477.742 977,-460 953.621,-446.999 931.015,-425.862 916.843,-411.238"/>
<polygon fill="midnightblue" stroke="midnightblue" points="919.298,-408.74 909.886,-403.876 914.211,-413.548 919.298,-408.74"/>
</g>
<!-- Node47 -->
<g id="node47" class="node"><title>Node47</title>
<g id="a_node47"><a xlink:href="../../d3/d54/DigitPos_8h.html" target="_top" xlink:title="TPCBase/DigitPos.h">
<polygon fill="none" stroke="black" points="986,-440.5 986,-459.5 1094,-459.5 1094,-440.5 986,-440.5"/>
<text text-anchor="middle" x="1040" y="-447.5" font-family="Helvetica,sans-Serif" font-size="10.00">TPCBase/DigitPos.h</text>
</a>
</g>
</g>
<!-- Node40&#45;&gt;Node47 -->
<g id="edge62" class="edge"><title>Node40&#45;&gt;Node47</title>
<path fill="none" stroke="midnightblue" d="M1108.83,-496.324C1096.15,-487.979 1076.77,-475.212 1061.79,-465.352"/>
<polygon fill="midnightblue" stroke="midnightblue" points="1063.42,-462.231 1053.14,-459.655 1059.57,-468.078 1063.42,-462.231"/>
</g>
<!-- Node48 -->
<g id="node48" class="node"><title>Node48</title>
<g id="a_node48"><a xlink:href="../../d1/d1f/FECInfo_8h.html" target="_top" xlink:title="TPCBase/FECInfo.h">
<polygon fill="none" stroke="black" points="1474.5,-328.5 1474.5,-347.5 1581.5,-347.5 1581.5,-328.5 1474.5,-328.5"/>
<text text-anchor="middle" x="1528" y="-335.5" font-family="Helvetica,sans-Serif" font-size="10.00">TPCBase/FECInfo.h</text>
</a>
</g>
</g>
<!-- Node40&#45;&gt;Node48 -->
<g id="edge67" class="edge"><title>Node40&#45;&gt;Node48</title>
<path fill="none" stroke="midnightblue" d="M1173.77,-503.674C1256.65,-500.645 1414.42,-490.885 1460,-460 1496.29,-435.406 1515.34,-384.656 1523.33,-357.349"/>
<polygon fill="midnightblue" stroke="midnightblue" points="1526.76,-358.096 1526.02,-347.526 1520,-356.248 1526.76,-358.096"/>
</g>
<!-- Node49 -->
<g id="node49" class="node"><title>Node49</title>
<g id="a_node49"><a xlink:href="../../da/d9d/PadRegionInfo_8h.html" target="_top" xlink:title="TPCBase/PadRegionInfo.h">
<polygon fill="none" stroke="black" points="1150.5,-440.5 1150.5,-459.5 1285.5,-459.5 1285.5,-440.5 1150.5,-440.5"/>
<text text-anchor="middle" x="1218" y="-447.5" font-family="Helvetica,sans-Serif" font-size="10.00">TPCBase/PadRegionInfo.h</text>
</a>
</g>
</g>
<!-- Node40&#45;&gt;Node49 -->
<g id="edge69" class="edge"><title>Node40&#45;&gt;Node49</title>
<path fill="none" stroke="midnightblue" d="M1137.42,-496.324C1152.54,-487.822 1175.82,-474.729 1193.47,-464.797"/>
<polygon fill="midnightblue" stroke="midnightblue" points="1195.61,-467.608 1202.61,-459.655 1192.18,-461.507 1195.61,-467.608"/>
</g>
<!-- Node50 -->
<g id="node50" class="node"><title>Node50</title>
<g id="a_node50"><a xlink:href="../../d6/d42/PartitionInfo_8h.html" target="_top" xlink:title="TPCBase/PartitionInfo.h">
<polygon fill="none" stroke="black" points="806.5,-440.5 806.5,-459.5 929.5,-459.5 929.5,-440.5 806.5,-440.5"/>
<text text-anchor="middle" x="868" y="-447.5" font-family="Helvetica,sans-Serif" font-size="10.00">TPCBase/PartitionInfo.h</text>
</a>
</g>
</g>
<!-- Node40&#45;&gt;Node50 -->
<g id="edge73" class="edge"><title>Node40&#45;&gt;Node50</title>
<path fill="none" stroke="midnightblue" d="M1081.75,-496.444C1037.35,-487.004 965.847,-471.802 917.912,-461.611"/>
<polygon fill="midnightblue" stroke="midnightblue" points="918.568,-458.173 908.059,-459.516 917.112,-465.02 918.568,-458.173"/>
</g>
<!-- Node45&#45;&gt;Node18 -->
<g id="edge56" class="edge"><title>Node45&#45;&gt;Node18</title>
<path fill="none" stroke="midnightblue" d="M1027.19,-384.368C987.571,-365.171 891.964,-318.842 844.98,-296.074"/>
<polygon fill="midnightblue" stroke="midnightblue" points="846.255,-292.803 835.73,-291.591 843.202,-299.102 846.255,-292.803"/>
</g>
<!-- Node45&#45;&gt;Node44 -->
<g id="edge57" class="edge"><title>Node45&#45;&gt;Node44</title>
<path fill="none" stroke="midnightblue" d="M1052.6,-384.083C1059.23,-376.298 1069.02,-364.801 1077.06,-355.367"/>
<polygon fill="midnightblue" stroke="midnightblue" points="1079.73,-357.633 1083.55,-347.751 1074.4,-353.094 1079.73,-357.633"/>
</g>
<!-- Node46&#45;&gt;Node4 -->
<g id="edge59" class="edge"><title>Node46&#45;&gt;Node4</title>
<path fill="none" stroke="midnightblue" d="M912.91,-384.47C948.024,-357.017 1058.42,-270.712 1103.02,-235.837"/>
<polygon fill="midnightblue" stroke="midnightblue" points="1105.3,-238.498 1111.02,-229.581 1100.99,-232.983 1105.3,-238.498"/>
</g>
<!-- Node46&#45;&gt;Node20 -->
<g id="edge60" class="edge"><title>Node46&#45;&gt;Node20</title>
<path fill="none" stroke="midnightblue" d="M893.083,-384.083C885.22,-376.22 873.569,-364.569 864.081,-355.081"/>
<polygon fill="midnightblue" stroke="midnightblue" points="866.297,-352.347 856.751,-347.751 861.347,-357.297 866.297,-352.347"/>
</g>
<!-- Node46&#45;&gt;Node44 -->
<g id="edge61" class="edge"><title>Node46&#45;&gt;Node44</title>
<path fill="none" stroke="midnightblue" d="M931.948,-384.444C964.158,-375.241 1015.53,-360.562 1051.14,-350.388"/>
<polygon fill="midnightblue" stroke="midnightblue" points="1052.54,-353.629 1061.19,-347.516 1050.62,-346.898 1052.54,-353.629"/>
</g>
<!-- Node47&#45;&gt;Node3 -->
<g id="edge64" class="edge"><title>Node47&#45;&gt;Node3</title>
<path fill="none" stroke="midnightblue" d="M997.693,-440.444C950.92,-430.984 875.54,-415.738 825.15,-405.547"/>
<polygon fill="midnightblue" stroke="midnightblue" points="825.604,-402.068 815.109,-403.516 824.217,-408.929 825.604,-402.068"/>
</g>
<!-- Node47&#45;&gt;Node4 -->
<g id="edge63" class="edge"><title>Node47&#45;&gt;Node4</title>
<path fill="none" stroke="midnightblue" d="M1070.21,-440.479C1089.88,-433.538 1114.81,-421.91 1131,-404 1148.83,-384.284 1147.26,-374.155 1152,-348 1159.14,-308.599 1142.12,-263.065 1130.9,-238.649"/>
<polygon fill="midnightblue" stroke="midnightblue" points="1134.02,-237.056 1126.53,-229.558 1127.71,-240.087 1134.02,-237.056"/>
</g>
<!-- Node47&#45;&gt;Node44 -->
<g id="edge65" class="edge"><title>Node47&#45;&gt;Node44</title>
<path fill="none" stroke="midnightblue" d="M1067.28,-440.453C1084.29,-433.548 1104.83,-421.971 1115,-404 1123.75,-388.543 1114.42,-369.293 1104.96,-355.767"/>
<polygon fill="midnightblue" stroke="midnightblue" points="1107.75,-353.649 1098.91,-347.803 1102.17,-357.883 1107.75,-353.649"/>
</g>
<!-- Node47&#45;&gt;Node45 -->
<g id="edge66" class="edge"><title>Node47&#45;&gt;Node45</title>
<path fill="none" stroke="midnightblue" d="M1040.83,-440.083C1041.48,-433.006 1042.42,-422.861 1043.24,-413.986"/>
<polygon fill="midnightblue" stroke="midnightblue" points="1046.75,-414.031 1044.19,-403.751 1039.78,-413.386 1046.75,-414.031"/>
</g>
<!-- Node48&#45;&gt;Node17 -->
<g id="edge68" class="edge"><title>Node48&#45;&gt;Node17</title>
<path fill="none" stroke="midnightblue" d="M1530.82,-328.326C1542.58,-292.203 1587.78,-153.277 1604.09,-103.16"/>
<polygon fill="midnightblue" stroke="midnightblue" points="1607.42,-104.23 1607.19,-93.6379 1600.77,-102.064 1607.42,-104.23"/>
</g>
<!-- Node49&#45;&gt;Node4 -->
<g id="edge71" class="edge"><title>Node49&#45;&gt;Node4</title>
<path fill="none" stroke="midnightblue" d="M1233.73,-440.236C1245.89,-432.481 1261.81,-419.929 1269,-404 1272.66,-395.898 1272.19,-392.297 1269,-384 1243.53,-317.716 1177.25,-261.562 1143.07,-235.913"/>
<polygon fill="midnightblue" stroke="midnightblue" points="1144.86,-232.884 1134.72,-229.782 1140.71,-238.524 1144.86,-232.884"/>
</g>
<!-- Node49&#45;&gt;Node41 -->
<g id="edge70" class="edge"><title>Node49&#45;&gt;Node41</title>
<path fill="none" stroke="midnightblue" d="M1218.66,-440.083C1219.18,-433.006 1219.94,-422.861 1220.59,-413.986"/>
<polygon fill="midnightblue" stroke="midnightblue" points="1224.1,-413.982 1221.35,-403.751 1217.12,-413.465 1224.1,-413.982"/>
</g>
<!-- Node49&#45;&gt;Node44 -->
<g id="edge72" class="edge"><title>Node49&#45;&gt;Node44</title>
<path fill="none" stroke="midnightblue" d="M1228.39,-440.475C1242.92,-427.528 1266.01,-402.464 1252,-384 1239.83,-367.962 1193.56,-356.09 1153.73,-348.58"/>
<polygon fill="midnightblue" stroke="midnightblue" points="1154.23,-345.114 1143.77,-346.764 1152.98,-352 1154.23,-345.114"/>
</g>
</g>
</svg>
