<?xml version="1.0" encoding="UTF-8" standalone="no"?>
<!DOCTYPE svg PUBLIC "-//W3C//DTD SVG 1.1//EN"
 "http://www.w3.org/Graphics/SVG/1.1/DTD/svg11.dtd">
<!-- Generated by graphviz version 2.36.0 (20140111.2315)
 -->
<!-- Title: o2::DataFlow::StreamingState Pages: 1 -->
<svg width="1383pt" height="1156pt"
 viewBox="0.00 0.00 1382.57 1156.00" xmlns="http://www.w3.org/2000/svg" xmlns:xlink="http://www.w3.org/1999/xlink">
<g id="graph0" class="graph" transform="scale(1 1) rotate(0) translate(4 1152)">
<title>o2::DataFlow::StreamingState</title>
<!-- Node1 -->
<g id="node1" class="node"><title>Node1</title>
<polygon fill="#bfbfbf" stroke="black" points="681.073,-0.5 681.073,-57.5 830.073,-57.5 830.073,-0.5 681.073,-0.5"/>
<text text-anchor="middle" x="755.573" y="-45.5" font-family="Helvetica,sans-Serif" font-size="10.00">o2::DataFlow::StreamingState</text>
<polyline fill="none" stroke="black" points="681.073,-38.5 830.073,-38.5 "/>
<text text-anchor="middle" x="755.573" y="-26.5" font-family="Helvetica,sans-Serif" font-size="10.00"> </text>
<polyline fill="none" stroke="black" points="681.073,-19.5 830.073,-19.5 "/>
<text text-anchor="start" x="689.073" y="-7.5" font-family="Helvetica,sans-Serif" font-size="10.00">+ StreamingState()</text>
</g>
<!-- Node2 -->
<g id="node2" class="node"><title>Node2</title>
<polygon fill="none" stroke="#bfbfbf" points="589.073,-166.5 589.073,-223.5 662.073,-223.5 662.073,-166.5 589.073,-166.5"/>
<text text-anchor="middle" x="625.573" y="-211.5" font-family="Helvetica,sans-Serif" font-size="10.00">ParsingState</text>
<polyline fill="none" stroke="#bfbfbf" points="589.073,-204.5 662.073,-204.5 "/>
<text text-anchor="middle" x="625.573" y="-192.5" font-family="Helvetica,sans-Serif" font-size="10.00"> </text>
<polyline fill="none" stroke="#bfbfbf" points="589.073,-185.5 662.073,-185.5 "/>
<text text-anchor="middle" x="625.573" y="-173.5" font-family="Helvetica,sans-Serif" font-size="10.00"> </text>
</g>
<!-- Node2&#45;&gt;Node1 -->
<g id="edge1" class="edge"><title>Node2&#45;&gt;Node1</title>
<path fill="none" stroke="#404040" d="M626.325,-166.154C628.415,-140.113 635.242,-101.512 656.573,-76 660.647,-71.1269 665.352,-66.7414 670.451,-62.7992"/>
<polygon fill="none" stroke="#404040" points="670.8,-62.5589 673.473,-55.8615 680.684,-55.7531 678.011,-62.4505 670.8,-62.5589"/>
<text text-anchor="middle" x="672.073" y="-84.5" font-family="Helvetica,sans-Serif" font-size="10.00"> +state</text>
</g>
<!-- Node3 -->
<g id="node3" class="node"><title>Node3</title>
<polygon fill="none" stroke="#bfbfbf" points="680.073,-166.5 680.073,-223.5 715.073,-223.5 715.073,-166.5 680.073,-166.5"/>
<text text-anchor="middle" x="697.573" y="-211.5" font-family="Helvetica,sans-Serif" font-size="10.00">bool</text>
<polyline fill="none" stroke="#bfbfbf" points="680.073,-204.5 715.073,-204.5 "/>
<text text-anchor="middle" x="697.573" y="-192.5" font-family="Helvetica,sans-Serif" font-size="10.00"> </text>
<polyline fill="none" stroke="#bfbfbf" points="680.073,-185.5 715.073,-185.5 "/>
<text text-anchor="middle" x="697.573" y="-173.5" font-family="Helvetica,sans-Serif" font-size="10.00"> </text>
</g>
<!-- Node3&#45;&gt;Node1 -->
<g id="edge2" class="edge"><title>Node3&#45;&gt;Node1</title>
<path fill="none" stroke="#404040" d="M691.385,-166.258C687.272,-141.338 684.846,-104.407 698.573,-76 700.129,-72.7798 702.031,-69.7119 704.185,-66.8018"/>
<polygon fill="none" stroke="#404040" points="704.416,-66.5382 705.371,-59.3906 712.336,-57.523 711.381,-64.6707 704.416,-66.5382"/>
<text text-anchor="middle" x="745.573" y="-90" font-family="Helvetica,sans-Serif" font-size="10.00"> +hasDataHeader</text>
<text text-anchor="middle" x="745.573" y="-79" font-family="Helvetica,sans-Serif" font-size="10.00">+hasConcreteHeader</text>
</g>
<!-- Node4 -->
<g id="node4" class="node"><title>Node4</title>
<polygon fill="none" stroke="#bfbfbf" points="794.073,-166.5 794.073,-223.5 835.073,-223.5 835.073,-166.5 794.073,-166.5"/>
<text text-anchor="middle" x="814.573" y="-211.5" font-family="Helvetica,sans-Serif" font-size="10.00">void *</text>
<polyline fill="none" stroke="#bfbfbf" points="794.073,-204.5 835.073,-204.5 "/>
<text text-anchor="middle" x="814.573" y="-192.5" font-family="Helvetica,sans-Serif" font-size="10.00"> </text>
<polyline fill="none" stroke="#bfbfbf" points="794.073,-185.5 835.073,-185.5 "/>
<text text-anchor="middle" x="814.573" y="-173.5" font-family="Helvetica,sans-Serif" font-size="10.00"> </text>
</g>
<!-- Node4&#45;&gt;Node1 -->
<g id="edge3" class="edge"><title>Node4&#45;&gt;Node1</title>
<path fill="none" stroke="#404040" d="M813.222,-166.134C811.147,-141.461 805.889,-104.97 792.573,-76 791.299,-73.2296 789.822,-70.4819 788.206,-67.789"/>
<polygon fill="none" stroke="#404040" points="788.136,-67.6857 781.463,-64.9532 781.419,-57.7422 788.092,-60.4748 788.136,-67.6857"/>
<text text-anchor="middle" x="835.073" y="-90" font-family="Helvetica,sans-Serif" font-size="10.00"> +headerBuffer</text>
<text text-anchor="middle" x="835.073" y="-79" font-family="Helvetica,sans-Serif" font-size="10.00">+payloadBuffer</text>
</g>
<!-- Node5 -->
<g id="node5" class="node"><title>Node5</title>
<g id="a_node5"><a xlink:href="../../db/d87/structo2_1_1header_1_1DataHeader.html" target="_top" xlink:title="the main header struct ">
<polygon fill="none" stroke="black" points="853.073,-117 853.073,-273 974.073,-273 974.073,-117 853.073,-117"/>
<text text-anchor="middle" x="913.573" y="-261" font-family="Helvetica,sans-Serif" font-size="10.00">o2::header::DataHeader</text>
<polyline fill="none" stroke="black" points="853.073,-254 974.073,-254 "/>
<text text-anchor="middle" x="913.573" y="-242" font-family="Helvetica,sans-Serif" font-size="10.00"> </text>
<polyline fill="none" stroke="black" points="853.073,-235 974.073,-235 "/>
<text text-anchor="start" x="861.073" y="-223" font-family="Helvetica,sans-Serif" font-size="10.00">+ DataHeader()</text>
<text text-anchor="start" x="861.073" y="-212" font-family="Helvetica,sans-Serif" font-size="10.00">+ DataHeader()</text>
<text text-anchor="start" x="861.073" y="-201" font-family="Helvetica,sans-Serif" font-size="10.00">+ DataHeader()</text>
<text text-anchor="start" x="861.073" y="-190" font-family="Helvetica,sans-Serif" font-size="10.00">+ operator=()</text>
<text text-anchor="start" x="861.073" y="-179" font-family="Helvetica,sans-Serif" font-size="10.00">+ operator==()</text>
<text text-anchor="start" x="861.073" y="-168" font-family="Helvetica,sans-Serif" font-size="10.00">+ operator==()</text>
<text text-anchor="start" x="861.073" y="-157" font-family="Helvetica,sans-Serif" font-size="10.00">+ operator==()</text>
<text text-anchor="start" x="861.073" y="-146" font-family="Helvetica,sans-Serif" font-size="10.00">+ operator==()</text>
<text text-anchor="start" x="861.073" y="-135" font-family="Helvetica,sans-Serif" font-size="10.00">+ print()</text>
<text text-anchor="start" x="861.073" y="-124" font-family="Helvetica,sans-Serif" font-size="10.00">+ Get()</text>
</a>
</g>
</g>
<!-- Node5&#45;&gt;Node1 -->
<g id="edge4" class="edge"><title>Node5&#45;&gt;Node1</title>
<path fill="none" stroke="#404040" d="M897.487,-116.816C891.587,-101.919 883.541,-87.4175 872.573,-76 863.75,-66.8153 852.871,-59.4277 841.331,-53.4952"/>
<polygon fill="none" stroke="#404040" points="840.977,-53.3299 833.847,-54.4086 830.109,-48.242 837.239,-47.1633 840.977,-53.3299"/>
<text text-anchor="middle" x="898.573" y="-84.5" font-family="Helvetica,sans-Serif" font-size="10.00"> +dh</text>
</g>
<!-- Node6 -->
<g id="node6" class="node"><title>Node6</title>
<g id="a_node6"><a xlink:href="../../d8/dbd/structo2_1_1header_1_1BaseHeader.html" target="_top" xlink:title="the base header struct Every header type must begin (i.e. derive) with this. Don&#39;t use this struct di...">
<polygon fill="none" stroke="black" points="680.573,-332.5 680.573,-455.5 802.573,-455.5 802.573,-332.5 680.573,-332.5"/>
<text text-anchor="middle" x="741.573" y="-443.5" font-family="Helvetica,sans-Serif" font-size="10.00">o2::header::BaseHeader</text>
<polyline fill="none" stroke="black" points="680.573,-436.5 802.573,-436.5 "/>
<text text-anchor="middle" x="741.573" y="-424.5" font-family="Helvetica,sans-Serif" font-size="10.00"> </text>
<polyline fill="none" stroke="black" points="680.573,-417.5 802.573,-417.5 "/>
<text text-anchor="start" x="688.573" y="-405.5" font-family="Helvetica,sans-Serif" font-size="10.00">+ BaseHeader()</text>
<text text-anchor="start" x="688.573" y="-394.5" font-family="Helvetica,sans-Serif" font-size="10.00">+ BaseHeader()</text>
<text text-anchor="start" x="688.573" y="-383.5" font-family="Helvetica,sans-Serif" font-size="10.00">+ BaseHeader()</text>
<text text-anchor="start" x="688.573" y="-372.5" font-family="Helvetica,sans-Serif" font-size="10.00">+ size()</text>
<text text-anchor="start" x="688.573" y="-361.5" font-family="Helvetica,sans-Serif" font-size="10.00">+ data()</text>
<text text-anchor="start" x="688.573" y="-350.5" font-family="Helvetica,sans-Serif" font-size="10.00">+ next()</text>
<text text-anchor="start" x="688.573" y="-339.5" font-family="Helvetica,sans-Serif" font-size="10.00">+ get()</text>
</a>
</g>
</g>
<!-- Node6&#45;&gt;Node5 -->
<g id="edge5" class="edge"><title>Node6&#45;&gt;Node5</title>
<path fill="none" stroke="midnightblue" d="M801.163,-324.749C817.901,-305.577 836.118,-284.713 852.918,-265.471"/>
<polygon fill="none" stroke="midnightblue" points="798.522,-322.451 794.582,-332.286 803.796,-327.055 798.522,-322.451"/>
</g>
<!-- Node7 -->
<g id="node7" class="node"><title>Node7</title>
<g id="a_node7"><a xlink:href="../../d9/db3/structo2_1_1header_1_1Descriptor.html" target="_top" xlink:title="{o2::header::Descriptor\l\&lt; gSizeHeaderDescriptionString \&gt;\n||+ Descriptor()\l+ Descriptor()\l+ Descriptor()\l+ Descriptor()\l+ operator=()\l+ operator ItgType()\l+ runtimeInit()\l+ operator==()\l+ operator==()\l+ operator!=()\l+ operator!=()\l+ print()\l}">
<polygon fill="none" stroke="black" points="395.573,-580.5 395.573,-769.5 561.573,-769.5 561.573,-580.5 395.573,-580.5"/>
<text text-anchor="start" x="403.573" y="-757.5" font-family="Helvetica,sans-Serif" font-size="10.00">o2::header::Descriptor</text>
<text text-anchor="middle" x="478.573" y="-746.5" font-family="Helvetica,sans-Serif" font-size="10.00">&lt; gSizeHeaderDescriptionString &gt;</text>
<polyline fill="none" stroke="black" points="395.573,-739.5 561.573,-739.5 "/>
<text text-anchor="middle" x="478.573" y="-727.5" font-family="Helvetica,sans-Serif" font-size="10.00"> </text>
<polyline fill="none" stroke="black" points="395.573,-720.5 561.573,-720.5 "/>
<text text-anchor="start" x="403.573" y="-708.5" font-family="Helvetica,sans-Serif" font-size="10.00">+ Descriptor()</text>
<text text-anchor="start" x="403.573" y="-697.5" font-family="Helvetica,sans-Serif" font-size="10.00">+ Descriptor()</text>
<text text-anchor="start" x="403.573" y="-686.5" font-family="Helvetica,sans-Serif" font-size="10.00">+ Descriptor()</text>
<text text-anchor="start" x="403.573" y="-675.5" font-family="Helvetica,sans-Serif" font-size="10.00">+ Descriptor()</text>
<text text-anchor="start" x="403.573" y="-664.5" font-family="Helvetica,sans-Serif" font-size="10.00">+ operator=()</text>
<text text-anchor="start" x="403.573" y="-653.5" font-family="Helvetica,sans-Serif" font-size="10.00">+ operator ItgType()</text>
<text text-anchor="start" x="403.573" y="-642.5" font-family="Helvetica,sans-Serif" font-size="10.00">+ runtimeInit()</text>
<text text-anchor="start" x="403.573" y="-631.5" font-family="Helvetica,sans-Serif" font-size="10.00">+ operator==()</text>
<text text-anchor="start" x="403.573" y="-620.5" font-family="Helvetica,sans-Serif" font-size="10.00">+ operator==()</text>
<text text-anchor="start" x="403.573" y="-609.5" font-family="Helvetica,sans-Serif" font-size="10.00">+ operator!=()</text>
<text text-anchor="start" x="403.573" y="-598.5" font-family="Helvetica,sans-Serif" font-size="10.00">+ operator!=()</text>
<text text-anchor="start" x="403.573" y="-587.5" font-family="Helvetica,sans-Serif" font-size="10.00">+ print()</text>
</a>
</g>
</g>
<!-- Node7&#45;&gt;Node6 -->
<g id="edge6" class="edge"><title>Node7&#45;&gt;Node6</title>
<path fill="none" stroke="#404040" d="M482.326,-580.407C488.216,-543.467 500.76,-503.012 526.573,-474 562.683,-433.414 621.477,-413.648 668.463,-404.039"/>
<polygon fill="none" stroke="#404040" points="668.655,-404.002 673.799,-398.948 680.442,-401.753 675.298,-406.807 668.655,-404.002"/>
<text text-anchor="middle" x="555.073" y="-515.5" font-family="Helvetica,sans-Serif" font-size="10.00"> +description</text>
</g>
<!-- Node8 -->
<g id="node8" class="node"><title>Node8</title>
<polygon fill="none" stroke="#bfbfbf" points="135.573,-1089.5 135.573,-1146.5 173.573,-1146.5 173.573,-1089.5 135.573,-1089.5"/>
<text text-anchor="middle" x="154.573" y="-1134.5" font-family="Helvetica,sans-Serif" font-size="10.00">Type</text>
<polyline fill="none" stroke="#bfbfbf" points="135.573,-1127.5 173.573,-1127.5 "/>
<text text-anchor="middle" x="154.573" y="-1115.5" font-family="Helvetica,sans-Serif" font-size="10.00"> </text>
<polyline fill="none" stroke="#bfbfbf" points="135.573,-1108.5 173.573,-1108.5 "/>
<text text-anchor="middle" x="154.573" y="-1096.5" font-family="Helvetica,sans-Serif" font-size="10.00"> </text>
</g>
<!-- Node8&#45;&gt;Node7 -->
<g id="edge7" class="edge"><title>Node8&#45;&gt;Node7</title>
<path fill="none" stroke="#404040" d="M150.67,-1089.13C144.464,-1035.67 136.865,-916.2 177.573,-828 216.392,-743.892 293.487,-806.681 384.246,-770.229"/>
<polygon fill="none" stroke="#404040" points="384.417,-770.153 388.272,-764.06 395.38,-765.275 391.524,-771.369 384.417,-770.153"/>
<text text-anchor="middle" x="187.573" y="-920.5" font-family="Helvetica,sans-Serif" font-size="10.00"> +itg</text>
</g>
<!-- Node12 -->
<g id="node12" class="node"><title>Node12</title>
<g id="a_node12"><a xlink:href="../../d9/db3/structo2_1_1header_1_1Descriptor.html" target="_top" xlink:title="{o2::header::Descriptor\l\&lt; N, PrinterPolicy \&gt;\n||+ Descriptor()\l+ Descriptor()\l+ Descriptor()\l+ operator=()\l+ operator ItgType()\l+ Descriptor()\l+ runtimeInit()\l+ operator==()\l+ operator!=()\l+ operator==()\l+ operator!=()\l+ print()\l}">
<polygon fill="none" stroke="black" points="280.073,-828.5 280.073,-1017.5 393.073,-1017.5 393.073,-828.5 280.073,-828.5"/>
<text text-anchor="start" x="288.073" y="-1005.5" font-family="Helvetica,sans-Serif" font-size="10.00">o2::header::Descriptor</text>
<text text-anchor="middle" x="336.573" y="-994.5" font-family="Helvetica,sans-Serif" font-size="10.00">&lt; N, PrinterPolicy &gt;</text>
<polyline fill="none" stroke="black" points="280.073,-987.5 393.073,-987.5 "/>
<text text-anchor="middle" x="336.573" y="-975.5" font-family="Helvetica,sans-Serif" font-size="10.00"> </text>
<polyline fill="none" stroke="black" points="280.073,-968.5 393.073,-968.5 "/>
<text text-anchor="start" x="288.073" y="-956.5" font-family="Helvetica,sans-Serif" font-size="10.00">+ Descriptor()</text>
<text text-anchor="start" x="288.073" y="-945.5" font-family="Helvetica,sans-Serif" font-size="10.00">+ Descriptor()</text>
<text text-anchor="start" x="288.073" y="-934.5" font-family="Helvetica,sans-Serif" font-size="10.00">+ Descriptor()</text>
<text text-anchor="start" x="288.073" y="-923.5" font-family="Helvetica,sans-Serif" font-size="10.00">+ operator=()</text>
<text text-anchor="start" x="288.073" y="-912.5" font-family="Helvetica,sans-Serif" font-size="10.00">+ operator ItgType()</text>
<text text-anchor="start" x="288.073" y="-901.5" font-family="Helvetica,sans-Serif" font-size="10.00">+ Descriptor()</text>
<text text-anchor="start" x="288.073" y="-890.5" font-family="Helvetica,sans-Serif" font-size="10.00">+ runtimeInit()</text>
<text text-anchor="start" x="288.073" y="-879.5" font-family="Helvetica,sans-Serif" font-size="10.00">+ operator==()</text>
<text text-anchor="start" x="288.073" y="-868.5" font-family="Helvetica,sans-Serif" font-size="10.00">+ operator!=()</text>
<text text-anchor="start" x="288.073" y="-857.5" font-family="Helvetica,sans-Serif" font-size="10.00">+ operator==()</text>
<text text-anchor="start" x="288.073" y="-846.5" font-family="Helvetica,sans-Serif" font-size="10.00">+ operator!=()</text>
<text text-anchor="start" x="288.073" y="-835.5" font-family="Helvetica,sans-Serif" font-size="10.00">+ print()</text>
</a>
</g>
</g>
<!-- Node8&#45;&gt;Node12 -->
<g id="edge12" class="edge"><title>Node8&#45;&gt;Node12</title>
<path fill="none" stroke="#404040" d="M173.832,-1099.48C178.024,-1095.69 182.441,-1091.7 186.573,-1088 221.509,-1056.69 233.723,-1052.44 265.573,-1018 267.775,-1015.62 269.977,-1013.17 272.17,-1010.68"/>
<polygon fill="none" stroke="#404040" points="272.255,-1010.58 273.117,-1003.42 280.057,-1001.46 279.195,-1008.62 272.255,-1010.58"/>
<text text-anchor="middle" x="257.573" y="-1050.5" font-family="Helvetica,sans-Serif" font-size="10.00"> +itg</text>
</g>
<!-- Node14 -->
<g id="node14" class="node"><title>Node14</title>
<g id="a_node14"><a xlink:href="../../d9/db3/structo2_1_1header_1_1Descriptor.html" target="_top" xlink:title="{o2::header::Descriptor\l\&lt; gSizeSerializationMethodString \&gt;\n||+ Descriptor()\l+ Descriptor()\l+ Descriptor()\l+ Descriptor()\l+ operator=()\l+ operator ItgType()\l+ runtimeInit()\l+ operator==()\l+ operator==()\l+ operator!=()\l+ operator!=()\l+ print()\l}">
<polygon fill="none" stroke="black" points="207.573,-580.5 207.573,-769.5 377.573,-769.5 377.573,-580.5 207.573,-580.5"/>
<text text-anchor="start" x="215.573" y="-757.5" font-family="Helvetica,sans-Serif" font-size="10.00">o2::header::Descriptor</text>
<text text-anchor="middle" x="292.573" y="-746.5" font-family="Helvetica,sans-Serif" font-size="10.00">&lt; gSizeSerializationMethodString &gt;</text>
<polyline fill="none" stroke="black" points="207.573,-739.5 377.573,-739.5 "/>
<text text-anchor="middle" x="292.573" y="-727.5" font-family="Helvetica,sans-Serif" font-size="10.00"> </text>
<polyline fill="none" stroke="black" points="207.573,-720.5 377.573,-720.5 "/>
<text text-anchor="start" x="215.573" y="-708.5" font-family="Helvetica,sans-Serif" font-size="10.00">+ Descriptor()</text>
<text text-anchor="start" x="215.573" y="-697.5" font-family="Helvetica,sans-Serif" font-size="10.00">+ Descriptor()</text>
<text text-anchor="start" x="215.573" y="-686.5" font-family="Helvetica,sans-Serif" font-size="10.00">+ Descriptor()</text>
<text text-anchor="start" x="215.573" y="-675.5" font-family="Helvetica,sans-Serif" font-size="10.00">+ Descriptor()</text>
<text text-anchor="start" x="215.573" y="-664.5" font-family="Helvetica,sans-Serif" font-size="10.00">+ operator=()</text>
<text text-anchor="start" x="215.573" y="-653.5" font-family="Helvetica,sans-Serif" font-size="10.00">+ operator ItgType()</text>
<text text-anchor="start" x="215.573" y="-642.5" font-family="Helvetica,sans-Serif" font-size="10.00">+ runtimeInit()</text>
<text text-anchor="start" x="215.573" y="-631.5" font-family="Helvetica,sans-Serif" font-size="10.00">+ operator==()</text>
<text text-anchor="start" x="215.573" y="-620.5" font-family="Helvetica,sans-Serif" font-size="10.00">+ operator==()</text>
<text text-anchor="start" x="215.573" y="-609.5" font-family="Helvetica,sans-Serif" font-size="10.00">+ operator!=()</text>
<text text-anchor="start" x="215.573" y="-598.5" font-family="Helvetica,sans-Serif" font-size="10.00">+ operator!=()</text>
<text text-anchor="start" x="215.573" y="-587.5" font-family="Helvetica,sans-Serif" font-size="10.00">+ print()</text>
</a>
</g>
</g>
<!-- Node8&#45;&gt;Node14 -->
<g id="edge21" class="edge"><title>Node8&#45;&gt;Node14</title>
<path fill="none" stroke="#404040" d="M135.414,-1108.92C105.836,-1095.24 50.2112,-1064.39 28.5729,-1018 -7.12361,-941.471 -11.5557,-902.3 28.5729,-828 62.8085,-764.611 135.36,-725.644 195.756,-703.057"/>
<polygon fill="none" stroke="#404040" points="195.985,-702.975 200.266,-697.172 207.269,-698.892 202.988,-704.695 195.985,-702.975"/>
<text text-anchor="middle" x="38.5729" y="-920.5" font-family="Helvetica,sans-Serif" font-size="10.00"> +itg</text>
</g>
<!-- Node9 -->
<g id="node9" class="node"><title>Node9</title>
<polygon fill="none" stroke="#bfbfbf" points="457.073,-1089.5 457.073,-1146.5 492.073,-1146.5 492.073,-1089.5 457.073,-1089.5"/>
<text text-anchor="middle" x="474.573" y="-1134.5" font-family="Helvetica,sans-Serif" font-size="10.00">char</text>
<polyline fill="none" stroke="#bfbfbf" points="457.073,-1127.5 492.073,-1127.5 "/>
<text text-anchor="middle" x="474.573" y="-1115.5" font-family="Helvetica,sans-Serif" font-size="10.00"> </text>
<polyline fill="none" stroke="#bfbfbf" points="457.073,-1108.5 492.073,-1108.5 "/>
<text text-anchor="middle" x="474.573" y="-1096.5" font-family="Helvetica,sans-Serif" font-size="10.00"> </text>
</g>
<!-- Node9&#45;&gt;Node6 -->
<g id="edge19" class="edge"><title>Node9&#45;&gt;Node6</title>
<path fill="none" stroke="#404040" d="M492.107,-1104.88C529.844,-1078.79 615.459,-1019.51 616.573,-1018 680.41,-931.653 634.597,-879.64 690.573,-788 696.47,-778.345 703.789,-780.252 708.573,-770 732.773,-718.137 739.306,-561.724 741.019,-468.086"/>
<polygon fill="none" stroke="#404040" points="741.022,-467.867 737.123,-461.801 741.222,-455.868 745.121,-461.934 741.022,-467.867"/>
<text text-anchor="middle" x="721.073" y="-796.5" font-family="Helvetica,sans-Serif" font-size="10.00"> +magicString</text>
</g>
<!-- Node9&#45;&gt;Node7 -->
<g id="edge8" class="edge"><title>Node9&#45;&gt;Node7</title>
<path fill="none" stroke="#404040" d="M480.797,-1089.47C497.288,-1015.74 540.392,-817.357 533.573,-788 533.04,-785.705 532.453,-783.403 531.817,-781.099"/>
<polygon fill="none" stroke="#404040" points="531.801,-781.046 526.21,-776.493 528.263,-769.58 533.854,-774.134 531.801,-781.046"/>
<text text-anchor="middle" x="543.073" y="-920.5" font-family="Helvetica,sans-Serif" font-size="10.00"> +str</text>
</g>
<!-- Node9&#45;&gt;Node12 -->
<g id="edge13" class="edge"><title>Node9&#45;&gt;Node12</title>
<path fill="none" stroke="#404040" d="M457.007,-1110.66C439.085,-1103.37 411.561,-1089.81 394.573,-1070 384.174,-1057.87 375.497,-1043.65 368.299,-1028.93"/>
<polygon fill="none" stroke="#404040" points="368.101,-1028.5 361.957,-1024.73 363.079,-1017.61 369.223,-1021.38 368.101,-1028.5"/>
<text text-anchor="middle" x="405.073" y="-1050.5" font-family="Helvetica,sans-Serif" font-size="10.00"> +str</text>
</g>
<!-- Node9&#45;&gt;Node14 -->
<g id="edge22" class="edge"><title>Node9&#45;&gt;Node14</title>
<path fill="none" stroke="#404040" d="M471.071,-1089.15C463.665,-1036.23 443.532,-918.35 401.573,-828 394,-811.692 384.603,-795.328 374.526,-779.695"/>
<polygon fill="none" stroke="#404040" points="374.43,-779.549 367.786,-776.746 367.818,-769.535 374.462,-772.338 374.43,-779.549"/>
<text text-anchor="middle" x="470.073" y="-920.5" font-family="Helvetica,sans-Serif" font-size="10.00"> +str</text>
</g>
<!-- Node10 -->
<g id="node10" class="node"><title>Node10</title>
<polygon fill="none" stroke="#bfbfbf" points="196.073,-1089.5 196.073,-1146.5 225.073,-1146.5 225.073,-1089.5 196.073,-1089.5"/>
<text text-anchor="middle" x="210.573" y="-1134.5" font-family="Helvetica,sans-Serif" font-size="10.00">int</text>
<polyline fill="none" stroke="#bfbfbf" points="196.073,-1127.5 225.073,-1127.5 "/>
<text text-anchor="middle" x="210.573" y="-1115.5" font-family="Helvetica,sans-Serif" font-size="10.00"> </text>
<polyline fill="none" stroke="#bfbfbf" points="196.073,-1108.5 225.073,-1108.5 "/>
<text text-anchor="middle" x="210.573" y="-1096.5" font-family="Helvetica,sans-Serif" font-size="10.00"> </text>
</g>
<!-- Node10&#45;&gt;Node7 -->
<g id="edge9" class="edge"><title>Node10&#45;&gt;Node7</title>
<path fill="none" stroke="#404040" d="M207.8,-1089.42C201.221,-1016.92 188.536,-824.091 235.573,-788 286.262,-749.108 321.865,-794.333 384.252,-770.149"/>
<polygon fill="none" stroke="#404040" points="384.386,-770.09 388.25,-764.001 395.356,-765.226 391.492,-771.314 384.386,-770.09"/>
<text text-anchor="middle" x="238.073" y="-931.5" font-family="Helvetica,sans-Serif" font-size="10.00"> +arraySize</text>
<text text-anchor="middle" x="238.073" y="-920.5" font-family="Helvetica,sans-Serif" font-size="10.00">+size</text>
<text text-anchor="middle" x="238.073" y="-909.5" font-family="Helvetica,sans-Serif" font-size="10.00">+bitcount</text>
</g>
<!-- Node10&#45;&gt;Node12 -->
<g id="edge14" class="edge"><title>Node10&#45;&gt;Node12</title>
<path fill="none" stroke="#404040" d="M225.215,-1111.04C241.591,-1103.68 267.872,-1089.68 283.573,-1070 293.357,-1057.74 301.431,-1043.51 308.067,-1028.84"/>
<polygon fill="none" stroke="#404040" points="308.167,-1028.61 306.836,-1021.52 312.866,-1017.57 314.197,-1024.65 308.167,-1028.61"/>
<text text-anchor="middle" x="330.073" y="-1061.5" font-family="Helvetica,sans-Serif" font-size="10.00"> +arraySize</text>
<text text-anchor="middle" x="330.073" y="-1050.5" font-family="Helvetica,sans-Serif" font-size="10.00">+size</text>
<text text-anchor="middle" x="330.073" y="-1039.5" font-family="Helvetica,sans-Serif" font-size="10.00">+bitcount</text>
</g>
<!-- Node10&#45;&gt;Node14 -->
<g id="edge23" class="edge"><title>Node10&#45;&gt;Node14</title>
<path fill="none" stroke="#404040" d="M195.996,-1100.78C191.823,-1096.45 187.159,-1091.9 182.573,-1088 140.959,-1052.63 106.908,-1066.38 81.5729,-1018 42.4009,-943.191 43.0838,-903.163 81.5729,-828 106.001,-780.296 153.146,-744.149 196.686,-719.099"/>
<polygon fill="none" stroke="#404040" points="196.893,-718.983 200.179,-712.564 207.368,-713.128 204.082,-719.547 196.893,-718.983"/>
<text text-anchor="middle" x="107.073" y="-931.5" font-family="Helvetica,sans-Serif" font-size="10.00"> +arraySize</text>
<text text-anchor="middle" x="107.073" y="-920.5" font-family="Helvetica,sans-Serif" font-size="10.00">+size</text>
<text text-anchor="middle" x="107.073" y="-909.5" font-family="Helvetica,sans-Serif" font-size="10.00">+bitcount</text>
</g>
<!-- Node11 -->
<g id="node11" class="node"><title>Node11</title>
<polygon fill="none" stroke="#bfbfbf" points="692.073,-1089 692.073,-1147 721.073,-1147 721.073,-1089 692.073,-1089"/>
<polyline fill="none" stroke="#bfbfbf" points="692.073,-1127 721.073,-1127 "/>
<text text-anchor="middle" x="706.573" y="-1115" font-family="Helvetica,sans-Serif" font-size="10.00"> </text>
<polyline fill="none" stroke="#bfbfbf" points="692.073,-1108 721.073,-1108 "/>
<text text-anchor="middle" x="706.573" y="-1096" font-family="Helvetica,sans-Serif" font-size="10.00"> </text>
</g>
<!-- Node11&#45;&gt;Node6 -->
<g id="edge16" class="edge"><title>Node11&#45;&gt;Node6</title>
<path fill="none" stroke="#404040" d="M721.097,-1089.31C730.342,-1069.94 741.345,-1043.14 745.573,-1018 763.008,-914.332 751.66,-608.905 745.187,-467.884"/>
<polygon fill="none" stroke="#404040" points="745.172,-467.562 740.898,-461.754 744.615,-455.575 748.889,-461.382 745.172,-467.562"/>
<text text-anchor="middle" x="768.073" y="-796.5" font-family="Helvetica,sans-Serif" font-size="10.00"> +@5</text>
</g>
<!-- Node11&#45;&gt;Node6 -->
<g id="edge18" class="edge"><title>Node11&#45;&gt;Node6</title>
<path fill="none" stroke="#404040" d="M721.22,-1104.84C730.874,-1096.08 743.074,-1083.48 750.573,-1070 762.209,-1049.09 760.302,-1041.55 764.573,-1018 807.723,-780.1 800.221,-712.673 761.573,-474 761.223,-471.842 760.843,-469.656 760.437,-467.455"/>
<polygon fill="none" stroke="#404040" points="760.417,-467.354 755.312,-462.261 758.05,-455.59 763.155,-460.683 760.417,-467.354"/>
<text text-anchor="middle" x="806.073" y="-796.5" font-family="Helvetica,sans-Serif" font-size="10.00"> +@7</text>
</g>
<!-- Node11&#45;&gt;Node7 -->
<g id="edge10" class="edge"><title>Node11&#45;&gt;Node7</title>
<path fill="none" stroke="#404040" d="M709.728,-1088.75C717.055,-1017.27 731.761,-831.76 692.573,-788 657.474,-748.807 622.688,-793.412 575.573,-770 574.392,-769.413 573.215,-768.806 572.045,-768.181"/>
<polygon fill="none" stroke="#404040" points="572.013,-768.163 564.814,-768.576 561.664,-762.089 568.863,-761.676 572.013,-768.163"/>
<text text-anchor="middle" x="732.073" y="-920.5" font-family="Helvetica,sans-Serif" font-size="10.00"> +@3</text>
</g>
<!-- Node11&#45;&gt;Node12 -->
<g id="edge15" class="edge"><title>Node11&#45;&gt;Node12</title>
<path fill="none" stroke="#404040" d="M691.788,-1115.26C645.69,-1109.22 502.02,-1085.69 407.573,-1018 405.859,-1016.77 404.167,-1015.49 402.5,-1014.16"/>
<polygon fill="none" stroke="#404040" points="402.265,-1013.96 395.113,-1013.03 393.216,-1006.07 400.368,-1007 402.265,-1013.96"/>
<text text-anchor="middle" x="519.073" y="-1050.5" font-family="Helvetica,sans-Serif" font-size="10.00"> +@3</text>
</g>
<!-- Node11&#45;&gt;Node14 -->
<g id="edge24" class="edge"><title>Node11&#45;&gt;Node14</title>
<path fill="none" stroke="#404040" d="M695.808,-1088.83C667.477,-1016.23 589.273,-825.759 534.573,-788 483.13,-752.489 450.052,-793.778 388.983,-770.197"/>
<polygon fill="none" stroke="#404040" points="388.653,-770.052 381.55,-771.296 377.67,-765.217 384.773,-763.974 388.653,-770.052"/>
<text text-anchor="middle" x="679.073" y="-920.5" font-family="Helvetica,sans-Serif" font-size="10.00"> +@3</text>
</g>
<!-- Node12&#45;&gt;Node5 -->
<g id="edge32" class="edge"><title>Node12&#45;&gt;Node5</title>
<path fill="none" stroke="#404040" d="M279.965,-840.072C275.956,-835.82 271.816,-831.759 267.573,-828 255.359,-817.179 248.38,-820.112 235.573,-810 216.566,-794.993 207.403,-792.55 198.573,-770 150.587,-647.457 150.839,-593.219 206.573,-474 244.908,-392 271.747,-372.752 352.573,-332 450.698,-282.526 487.44,-304.895 596.573,-292 648.025,-285.92 777.716,-296.816 841.536,-273.603"/>
<polygon fill="none" stroke="#404040" points="841.616,-273.569 845.564,-267.536 852.653,-268.86 848.704,-274.894 841.616,-273.569"/>
<text text-anchor="middle" x="255.073" y="-521" font-family="Helvetica,sans-Serif" font-size="10.00"> +sHeaderType</text>
<text text-anchor="middle" x="255.073" y="-510" font-family="Helvetica,sans-Serif" font-size="10.00">+sSerializationMethod</text>
</g>
<!-- Node12&#45;&gt;Node6 -->
<g id="edge26" class="edge"><title>Node12&#45;&gt;Node6</title>
<path fill="none" stroke="#404040" d="M393.217,-830.95C394.64,-829.919 396.092,-828.934 397.573,-828 449.51,-795.228 480.223,-838.593 534.573,-810 555.74,-798.864 559.684,-791.295 570.573,-770 609.903,-693.084 576.937,-659.141 611.573,-580 629.407,-539.25 656.923,-498.329 682.057,-465.371"/>
<polygon fill="none" stroke="#404040" points="682.077,-465.345 682.583,-458.152 689.418,-455.852 688.912,-463.046 682.077,-465.345"/>
<text text-anchor="middle" x="660.073" y="-678" font-family="Helvetica,sans-Serif" font-size="10.00"> +sHeaderType</text>
<text text-anchor="middle" x="660.073" y="-667" font-family="Helvetica,sans-Serif" font-size="10.00">+sSerializationMethod</text>
</g>
<!-- Node12&#45;&gt;Node7 -->
<g id="edge11" class="edge"><title>Node12&#45;&gt;Node7</title>
<path fill="none" stroke="orange" d="M395.88,-819.256C405.334,-802.879 415.072,-786.009 424.399,-769.851"/>
<polygon fill="orange" stroke="orange" points="392.63,-817.886 390.662,-828.296 398.693,-821.385 392.63,-817.886"/>
<text text-anchor="start" x="412.573" y="-802" font-family="Helvetica,sans-Serif" font-size="10.00"> &lt; gSizeHeaderDescription</text>
<text text-anchor="middle" x="471.573" y="-791" font-family="Helvetica,sans-Serif" font-size="10.00">String &gt;</text>
</g>
<!-- Node12&#45;&gt;Node14 -->
<g id="edge25" class="edge"><title>Node12&#45;&gt;Node14</title>
<path fill="none" stroke="orange" d="M273.141,-836.313C270.63,-833.471 268.103,-830.691 265.573,-828 257.153,-819.044 249.71,-821.168 244.573,-810 238.687,-797.203 237.802,-783.462 239.983,-769.831"/>
<polygon fill="orange" stroke="orange" points="270.56,-838.679 279.742,-843.964 275.859,-834.106 270.56,-838.679"/>
<text text-anchor="start" x="244.573" y="-802" font-family="Helvetica,sans-Serif" font-size="10.00"> &lt; gSizeSerializationMethod</text>
<text text-anchor="middle" x="306.073" y="-791" font-family="Helvetica,sans-Serif" font-size="10.00">String &gt;</text>
</g>
<!-- Node13 -->
<g id="node13" class="node"><title>Node13</title>
<polygon fill="none" stroke="#bfbfbf" points="858.073,-646.5 858.073,-703.5 909.073,-703.5 909.073,-646.5 858.073,-646.5"/>
<text text-anchor="middle" x="883.573" y="-691.5" font-family="Helvetica,sans-Serif" font-size="10.00">uint32_t</text>
<polyline fill="none" stroke="#bfbfbf" points="858.073,-684.5 909.073,-684.5 "/>
<text text-anchor="middle" x="883.573" y="-672.5" font-family="Helvetica,sans-Serif" font-size="10.00"> </text>
<polyline fill="none" stroke="#bfbfbf" points="858.073,-665.5 909.073,-665.5 "/>
<text text-anchor="middle" x="883.573" y="-653.5" font-family="Helvetica,sans-Serif" font-size="10.00"> </text>
</g>
<!-- Node13&#45;&gt;Node5 -->
<g id="edge27" class="edge"><title>Node13&#45;&gt;Node5</title>
<path fill="none" stroke="#404040" d="M888.317,-646.477C892.019,-623.862 896.958,-590.952 899.573,-562 908.079,-467.815 911.427,-359.539 912.739,-285.332"/>
<polygon fill="none" stroke="#404040" points="912.74,-285.262 908.84,-279.196 912.94,-273.264 916.839,-279.329 912.74,-285.262"/>
<text text-anchor="middle" x="936.073" y="-397" font-family="Helvetica,sans-Serif" font-size="10.00"> +reserved</text>
<text text-anchor="middle" x="936.073" y="-386" font-family="Helvetica,sans-Serif" font-size="10.00">+sVersion</text>
</g>
<!-- Node13&#45;&gt;Node6 -->
<g id="edge17" class="edge"><title>Node13&#45;&gt;Node6</title>
<path fill="none" stroke="#404040" d="M864.829,-646.049C850.743,-624.005 831.84,-592.067 819.573,-562 804.301,-524.571 813.495,-510.713 796.573,-474 795.436,-471.534 794.222,-469.062 792.945,-466.596"/>
<polygon fill="none" stroke="#404040" points="792.806,-466.346 786.399,-463.038 786.988,-455.851 793.395,-459.159 792.806,-466.346"/>
<text text-anchor="middle" x="859.573" y="-554" font-family="Helvetica,sans-Serif" font-size="10.00"> +headerVersion</text>
<text text-anchor="middle" x="859.573" y="-543" font-family="Helvetica,sans-Serif" font-size="10.00">+headerSize</text>
<text text-anchor="middle" x="859.573" y="-532" font-family="Helvetica,sans-Serif" font-size="10.00">+sMagicString</text>
<text text-anchor="middle" x="859.573" y="-521" font-family="Helvetica,sans-Serif" font-size="10.00">+flagsNextHeader</text>
<text text-anchor="middle" x="859.573" y="-510" font-family="Helvetica,sans-Serif" font-size="10.00">+magicStringInt</text>
<text text-anchor="middle" x="859.573" y="-499" font-family="Helvetica,sans-Serif" font-size="10.00">+flagsUnused</text>
<text text-anchor="middle" x="859.573" y="-488" font-family="Helvetica,sans-Serif" font-size="10.00">+flags</text>
<text text-anchor="middle" x="859.573" y="-477" font-family="Helvetica,sans-Serif" font-size="10.00">+sVersion</text>
</g>
<!-- Node14&#45;&gt;Node5 -->
<g id="edge31" class="edge"><title>Node14&#45;&gt;Node5</title>
<path fill="none" stroke="#404040" d="M301.967,-580.488C308.985,-544.816 321.227,-505.255 342.573,-474 404.054,-383.976 442.329,-374.842 542.573,-332 664.302,-279.976 721.706,-337.634 842.166,-273.96"/>
<polygon fill="none" stroke="#404040" points="842.348,-273.86 845.678,-267.464 852.863,-268.077 849.533,-274.474 842.348,-273.86"/>
<text text-anchor="middle" x="607.073" y="-391.5" font-family="Helvetica,sans-Serif" font-size="10.00"> +payloadSerializationMethod</text>
</g>
<!-- Node14&#45;&gt;Node6 -->
<g id="edge20" class="edge"><title>Node14&#45;&gt;Node6</title>
<path fill="none" stroke="#404040" d="M334.115,-580.365C355.444,-542.168 384.954,-500.776 422.573,-474 495.692,-421.955 599.399,-404.042 668.495,-397.965"/>
<polygon fill="none" stroke="#404040" points="668.591,-397.958 674.25,-393.489 680.552,-396.994 674.893,-401.463 668.591,-397.958"/>
<text text-anchor="middle" x="453.073" y="-515.5" font-family="Helvetica,sans-Serif" font-size="10.00"> +serialization</text>
</g>
<!-- Node15 -->
<g id="node15" class="node"><title>Node15</title>
<polygon fill="none" stroke="#bfbfbf" points="979.073,-365.5 979.073,-422.5 1030.07,-422.5 1030.07,-365.5 979.073,-365.5"/>
<text text-anchor="middle" x="1004.57" y="-410.5" font-family="Helvetica,sans-Serif" font-size="10.00">uint64_t</text>
<polyline fill="none" stroke="#bfbfbf" points="979.073,-403.5 1030.07,-403.5 "/>
<text text-anchor="middle" x="1004.57" y="-391.5" font-family="Helvetica,sans-Serif" font-size="10.00"> </text>
<polyline fill="none" stroke="#bfbfbf" points="979.073,-384.5 1030.07,-384.5 "/>
<text text-anchor="middle" x="1004.57" y="-372.5" font-family="Helvetica,sans-Serif" font-size="10.00"> </text>
</g>
<!-- Node15&#45;&gt;Node5 -->
<g id="edge28" class="edge"><title>Node15&#45;&gt;Node5</title>
<path fill="none" stroke="#404040" d="M991.728,-365.193C981.953,-344.032 967.929,-313.672 954.451,-284.495"/>
<polygon fill="none" stroke="#404040" points="954.355,-284.286 948.208,-280.517 949.323,-273.392 955.47,-277.162 954.355,-284.286"/>
<text text-anchor="middle" x="1007.07" y="-306" font-family="Helvetica,sans-Serif" font-size="10.00"> +payloadSize</text>
<text text-anchor="middle" x="1007.07" y="-295" font-family="Helvetica,sans-Serif" font-size="10.00">+subSpecification</text>
</g>
<!-- Node16 -->
<g id="node16" class="node"><title>Node16</title>
<polygon fill="none" stroke="#bfbfbf" points="1048.57,-360 1048.57,-428 1190.57,-428 1190.57,-360 1048.57,-360"/>
<text text-anchor="start" x="1056.57" y="-416" font-family="Helvetica,sans-Serif" font-size="10.00">Descriptor&lt; gSizeDataOrigin</text>
<text text-anchor="middle" x="1119.57" y="-405" font-family="Helvetica,sans-Serif" font-size="10.00">String, printDataOrigin &gt;</text>
<polyline fill="none" stroke="#bfbfbf" points="1048.57,-398 1190.57,-398 "/>
<text text-anchor="middle" x="1119.57" y="-386" font-family="Helvetica,sans-Serif" font-size="10.00"> </text>
<polyline fill="none" stroke="#bfbfbf" points="1048.57,-379 1190.57,-379 "/>
<text text-anchor="middle" x="1119.57" y="-367" font-family="Helvetica,sans-Serif" font-size="10.00"> </text>
</g>
<!-- Node16&#45;&gt;Node5 -->
<g id="edge29" class="edge"><title>Node16&#45;&gt;Node5</title>
<path fill="none" stroke="#404040" d="M1101.12,-359.839C1088.54,-338.965 1070.57,-312.241 1050.57,-292 1031.01,-272.205 1006.9,-253.778 984.383,-238.469"/>
<polygon fill="none" stroke="#404040" points="984.157,-238.318 976.946,-238.317 974.173,-231.661 981.384,-231.661 984.157,-238.318"/>
<text text-anchor="middle" x="1095.57" y="-300.5" font-family="Helvetica,sans-Serif" font-size="10.00"> +dataOrigin</text>
</g>
<!-- Node17 -->
<g id="node17" class="node"><title>Node17</title>
<polygon fill="none" stroke="#bfbfbf" points="1208.57,-360 1208.57,-428 1374.57,-428 1374.57,-360 1208.57,-360"/>
<text text-anchor="start" x="1216.57" y="-416" font-family="Helvetica,sans-Serif" font-size="10.00">Descriptor&lt; gSizeDataDescription</text>
<text text-anchor="middle" x="1291.57" y="-405" font-family="Helvetica,sans-Serif" font-size="10.00">String, printDataDescription &gt;</text>
<polyline fill="none" stroke="#bfbfbf" points="1208.57,-398 1374.57,-398 "/>
<text text-anchor="middle" x="1291.57" y="-386" font-family="Helvetica,sans-Serif" font-size="10.00"> </text>
<polyline fill="none" stroke="#bfbfbf" points="1208.57,-379 1374.57,-379 "/>
<text text-anchor="middle" x="1291.57" y="-367" font-family="Helvetica,sans-Serif" font-size="10.00"> </text>
</g>
<!-- Node17&#45;&gt;Node5 -->
<g id="edge30" class="edge"><title>Node17&#45;&gt;Node5</title>
<path fill="none" stroke="#404040" d="M1243.36,-359.934C1229.39,-350.652 1214.01,-340.719 1199.57,-332 1129.61,-289.738 1044.45,-250.696 985.342,-225.387"/>
<polygon fill="none" stroke="#404040" points="985.291,-225.365 978.204,-226.697 974.249,-220.667 981.336,-219.335 985.291,-225.365"/>
<text text-anchor="middle" x="1201.57" y="-300.5" font-family="Helvetica,sans-Serif" font-size="10.00"> +dataDescription</text>
</g>
</g>
</svg>
