<?xml version="1.0" encoding="UTF-8" standalone="no"?>
<!DOCTYPE svg PUBLIC "-//W3C//DTD SVG 1.1//EN"
 "http://www.w3.org/Graphics/SVG/1.1/DTD/svg11.dtd">
<!-- Generated by graphviz version 2.36.0 (20140111.2315)
 -->
<!-- Title: /home/travis/build/AliceO2Group/AliceO2/Detectors/TPC/simulation/include/TPCSimulation/DigitContainer.h Pages: 1 -->
<svg width="1985pt" height="738pt"
 viewBox="0.00 0.00 1985.00 738.00" xmlns="http://www.w3.org/2000/svg" xmlns:xlink="http://www.w3.org/1999/xlink">
<g id="graph0" class="graph" transform="scale(1 1) rotate(0) translate(4 734)">
<title>/home/travis/build/AliceO2Group/AliceO2/Detectors/TPC/simulation/include/TPCSimulation/DigitContainer.h</title>
<!-- Node1 -->
<g id="node1" class="node"><title>Node1</title>
<polygon fill="#bfbfbf" stroke="black" points="844.5,-677 844.5,-729 1037.5,-729 1037.5,-677 844.5,-677"/>
<text text-anchor="start" x="852.5" y="-717" font-family="Helvetica,sans-Serif" font-size="10.00">/home/travis/build</text>
<text text-anchor="start" x="852.5" y="-706" font-family="Helvetica,sans-Serif" font-size="10.00">/AliceO2Group/AliceO2</text>
<text text-anchor="start" x="852.5" y="-695" font-family="Helvetica,sans-Serif" font-size="10.00">/Detectors/TPC/simulation</text>
<text text-anchor="middle" x="941" y="-684" font-family="Helvetica,sans-Serif" font-size="10.00">/include/TPCSimulation/DigitContainer.h</text>
</g>
<!-- Node2 -->
<g id="node2" class="node"><title>Node2</title>
<g id="a_node2"><a xlink:href="../../df/d26/CRU_8h.html" target="_top" xlink:title="TPCBase/CRU.h">
<polygon fill="none" stroke="black" points="342.5,-384.5 342.5,-403.5 435.5,-403.5 435.5,-384.5 342.5,-384.5"/>
<text text-anchor="middle" x="389" y="-391.5" font-family="Helvetica,sans-Serif" font-size="10.00">TPCBase/CRU.h</text>
</a>
</g>
</g>
<!-- Node1&#45;&gt;Node2 -->
<g id="edge1" class="edge"><title>Node1&#45;&gt;Node2</title>
<path fill="none" stroke="midnightblue" d="M844.478,-697.579C690.882,-687.876 408,-657.934 408,-569 408,-569 408,-569 408,-505 408,-472.489 399.841,-435.35 394.216,-413.61"/>
<polygon fill="midnightblue" stroke="midnightblue" points="397.541,-412.498 391.562,-403.751 390.782,-414.317 397.541,-412.498"/>
</g>
<!-- Node20 -->
<g id="node20" class="node"><title>Node20</title>
<g id="a_node20"><a xlink:href="../../d6/d95/DigitCRU_8h.html" target="_top" xlink:title="Definition of the CRU container. ">
<polygon fill="none" stroke="black" points="971.5,-620.5 971.5,-639.5 1108.5,-639.5 1108.5,-620.5 971.5,-620.5"/>
<text text-anchor="middle" x="1040" y="-627.5" font-family="Helvetica,sans-Serif" font-size="10.00">TPCSimulation/DigitCRU.h</text>
</a>
</g>
</g>
<!-- Node1&#45;&gt;Node20 -->
<g id="edge23" class="edge"><title>Node1&#45;&gt;Node20</title>
<path fill="none" stroke="midnightblue" d="M975.904,-676.968C990.418,-666.559 1006.77,-654.831 1019.33,-645.827"/>
<polygon fill="midnightblue" stroke="midnightblue" points="1021.63,-648.482 1027.72,-639.81 1017.55,-642.793 1021.63,-648.482"/>
</g>
<!-- Node38 -->
<g id="node38" class="node"><title>Node38</title>
<g id="a_node38"><a xlink:href="../../d6/dba/CommonModeContainer_8h.html" target="_top" xlink:title="Definition of the Common Mode computation. ">
<polygon fill="none" stroke="black" points="866.5,-553 866.5,-583 1015.5,-583 1015.5,-553 866.5,-553"/>
<text text-anchor="start" x="874.5" y="-571" font-family="Helvetica,sans-Serif" font-size="10.00">TPCSimulation/CommonMode</text>
<text text-anchor="middle" x="941" y="-560" font-family="Helvetica,sans-Serif" font-size="10.00">Container.h</text>
</a>
</g>
</g>
<!-- Node1&#45;&gt;Node38 -->
<g id="edge76" class="edge"><title>Node1&#45;&gt;Node38</title>
<path fill="none" stroke="midnightblue" d="M941,-676.984C941,-653.078 941,-617.265 941,-593.525"/>
<polygon fill="midnightblue" stroke="midnightblue" points="944.5,-593.249 941,-583.249 937.5,-593.249 944.5,-593.249"/>
</g>
<!-- Node3 -->
<g id="node3" class="node"><title>Node3</title>
<g id="a_node3"><a xlink:href="../../d1/d73/Defs_8h.html" target="_top" xlink:title="Common definitions for 2D coordinates. ">
<polygon fill="none" stroke="black" points="628,-210.5 628,-229.5 720,-229.5 720,-210.5 628,-210.5"/>
<text text-anchor="middle" x="674" y="-217.5" font-family="Helvetica,sans-Serif" font-size="10.00">TPCBase/Defs.h</text>
</a>
</g>
</g>
<!-- Node2&#45;&gt;Node3 -->
<g id="edge2" class="edge"><title>Node2&#45;&gt;Node3</title>
<path fill="none" stroke="midnightblue" d="M393.913,-384.343C401.991,-370.765 419.267,-344.331 440,-328 500.407,-280.418 585.38,-248.446 634.568,-232.605"/>
<polygon fill="midnightblue" stroke="midnightblue" points="635.724,-235.911 644.205,-229.561 633.615,-229.236 635.724,-235.911"/>
</g>
<!-- Node17 -->
<g id="node17" class="node"><title>Node17</title>
<g id="a_node17"><a xlink:href="../../d3/dd6/Sector_8h.html" target="_top" xlink:title="TPCBase/Sector.h">
<polygon fill="none" stroke="black" points="311.5,-272.5 311.5,-291.5 410.5,-291.5 410.5,-272.5 311.5,-272.5"/>
<text text-anchor="middle" x="361" y="-279.5" font-family="Helvetica,sans-Serif" font-size="10.00">TPCBase/Sector.h</text>
</a>
</g>
</g>
<!-- Node2&#45;&gt;Node17 -->
<g id="edge17" class="edge"><title>Node2&#45;&gt;Node17</title>
<path fill="none" stroke="midnightblue" d="M386.803,-384.368C382.284,-366.617 371.861,-325.666 365.734,-301.597"/>
<polygon fill="midnightblue" stroke="midnightblue" points="369.046,-300.419 363.187,-291.591 362.262,-302.146 369.046,-300.419"/>
</g>
<!-- Node19 -->
<g id="node19" class="node"><title>Node19</title>
<g id="a_node19"><a xlink:href="../../dc/d14/ROC_8h.html" target="_top" xlink:title="TPCBase/ROC.h">
<polygon fill="none" stroke="black" points="449.5,-328.5 449.5,-347.5 542.5,-347.5 542.5,-328.5 449.5,-328.5"/>
<text text-anchor="middle" x="496" y="-335.5" font-family="Helvetica,sans-Serif" font-size="10.00">TPCBase/ROC.h</text>
</a>
</g>
</g>
<!-- Node2&#45;&gt;Node19 -->
<g id="edge20" class="edge"><title>Node2&#45;&gt;Node19</title>
<path fill="none" stroke="midnightblue" d="M406.191,-384.324C423.351,-375.664 449.946,-362.242 469.747,-352.249"/>
<polygon fill="midnightblue" stroke="midnightblue" points="471.501,-355.285 478.851,-347.655 468.347,-349.035 471.501,-355.285"/>
</g>
<!-- Node4 -->
<g id="node4" class="node"><title>Node4</title>
<polygon fill="none" stroke="#bfbfbf" points="999,-142.5 999,-161.5 1043,-161.5 1043,-142.5 999,-142.5"/>
<text text-anchor="middle" x="1021" y="-149.5" font-family="Helvetica,sans-Serif" font-size="10.00">cmath</text>
</g>
<!-- Node3&#45;&gt;Node4 -->
<g id="edge3" class="edge"><title>Node3&#45;&gt;Node4</title>
<path fill="none" stroke="midnightblue" d="M719.008,-210.439C790.082,-196.921 926.602,-170.955 988.757,-159.133"/>
<polygon fill="midnightblue" stroke="midnightblue" points="989.601,-162.535 998.771,-157.228 988.293,-155.658 989.601,-162.535"/>
</g>
<!-- Node5 -->
<g id="node5" class="node"><title>Node5</title>
<g id="a_node5"><a xlink:href="../../d2/dd0/Cartesian2D_8h.html" target="_top" xlink:title="MathUtils/Cartesian2D.h">
<polygon fill="none" stroke="black" points="103.5,-74.5 103.5,-93.5 228.5,-93.5 228.5,-74.5 103.5,-74.5"/>
<text text-anchor="middle" x="166" y="-81.5" font-family="Helvetica,sans-Serif" font-size="10.00">MathUtils/Cartesian2D.h</text>
</a>
</g>
</g>
<!-- Node3&#45;&gt;Node5 -->
<g id="edge4" class="edge"><title>Node3&#45;&gt;Node5</title>
<path fill="none" stroke="midnightblue" d="M641.45,-210.414C552.83,-187.038 307.279,-122.266 208.231,-96.1397"/>
<polygon fill="midnightblue" stroke="midnightblue" points="208.841,-92.681 198.279,-93.5146 207.056,-99.4495 208.841,-92.681"/>
</g>
<!-- Node8 -->
<g id="node8" class="node"><title>Node8</title>
<g id="a_node8"><a xlink:href="../../dd/d76/Cartesian3D_8h.html" target="_top" xlink:title="MathUtils/Cartesian3D.h">
<polygon fill="none" stroke="black" points="673.5,-142.5 673.5,-161.5 798.5,-161.5 798.5,-142.5 673.5,-142.5"/>
<text text-anchor="middle" x="736" y="-149.5" font-family="Helvetica,sans-Serif" font-size="10.00">MathUtils/Cartesian3D.h</text>
</a>
</g>
</g>
<!-- Node3&#45;&gt;Node8 -->
<g id="edge7" class="edge"><title>Node3&#45;&gt;Node8</title>
<path fill="none" stroke="midnightblue" d="M682.105,-210.372C691.891,-199.955 708.553,-182.217 720.767,-169.216"/>
<polygon fill="midnightblue" stroke="midnightblue" points="723.399,-171.526 727.695,-161.841 718.297,-166.733 723.399,-171.526"/>
</g>
<!-- Node6 -->
<g id="node6" class="node"><title>Node6</title>
<polygon fill="none" stroke="#bfbfbf" points="-0.5,-1 -0.5,-31 150.5,-31 150.5,-1 -0.5,-1"/>
<text text-anchor="start" x="7.5" y="-19" font-family="Helvetica,sans-Serif" font-size="10.00">Math/GenVector/Displacement</text>
<text text-anchor="middle" x="75" y="-8" font-family="Helvetica,sans-Serif" font-size="10.00">Vector2D.h</text>
</g>
<!-- Node5&#45;&gt;Node6 -->
<g id="edge5" class="edge"><title>Node5&#45;&gt;Node6</title>
<path fill="none" stroke="midnightblue" d="M154.103,-74.3717C141.221,-65.0286 120.22,-49.7966 103.093,-37.375"/>
<polygon fill="midnightblue" stroke="midnightblue" points="104.703,-34.2194 94.5532,-31.1815 100.593,-39.8859 104.703,-34.2194"/>
</g>
<!-- Node7 -->
<g id="node7" class="node"><title>Node7</title>
<polygon fill="none" stroke="#bfbfbf" points="169,-6.5 169,-25.5 345,-25.5 345,-6.5 169,-6.5"/>
<text text-anchor="middle" x="257" y="-13.5" font-family="Helvetica,sans-Serif" font-size="10.00">Math/GenVector/PositionVector2D.h</text>
</g>
<!-- Node5&#45;&gt;Node7 -->
<g id="edge6" class="edge"><title>Node5&#45;&gt;Node7</title>
<path fill="none" stroke="midnightblue" d="M177.897,-74.3717C192.884,-63.5015 218.862,-44.6602 236.942,-31.5474"/>
<polygon fill="midnightblue" stroke="midnightblue" points="239.06,-34.3349 245.1,-25.6305 234.95,-28.6684 239.06,-34.3349"/>
</g>
<!-- Node8&#45;&gt;Node5 -->
<g id="edge16" class="edge"><title>Node8&#45;&gt;Node5</title>
<path fill="none" stroke="midnightblue" d="M673.492,-146.757C578.717,-139.84 393.161,-124.405 237,-100 229.123,-98.769 220.802,-97.23 212.738,-95.6105"/>
<polygon fill="midnightblue" stroke="midnightblue" points="213.215,-92.1352 202.713,-93.5333 211.795,-98.9896 213.215,-92.1352"/>
</g>
<!-- Node9 -->
<g id="node9" class="node"><title>Node9</title>
<polygon fill="none" stroke="#bfbfbf" points="860.5,-69 860.5,-99 1011.5,-99 1011.5,-69 860.5,-69"/>
<text text-anchor="start" x="868.5" y="-87" font-family="Helvetica,sans-Serif" font-size="10.00">Math/GenVector/Displacement</text>
<text text-anchor="middle" x="936" y="-76" font-family="Helvetica,sans-Serif" font-size="10.00">Vector3D.h</text>
</g>
<!-- Node8&#45;&gt;Node9 -->
<g id="edge8" class="edge"><title>Node8&#45;&gt;Node9</title>
<path fill="none" stroke="midnightblue" d="M762.147,-142.372C792.894,-132.225 844.689,-115.133 883.765,-102.237"/>
<polygon fill="midnightblue" stroke="midnightblue" points="885.006,-105.514 893.405,-99.0562 882.812,-98.8664 885.006,-105.514"/>
</g>
<!-- Node10 -->
<g id="node10" class="node"><title>Node10</title>
<polygon fill="none" stroke="#bfbfbf" points="1030,-74.5 1030,-93.5 1206,-93.5 1206,-74.5 1030,-74.5"/>
<text text-anchor="middle" x="1118" y="-81.5" font-family="Helvetica,sans-Serif" font-size="10.00">Math/GenVector/PositionVector3D.h</text>
</g>
<!-- Node8&#45;&gt;Node10 -->
<g id="edge9" class="edge"><title>Node8&#45;&gt;Node10</title>
<path fill="none" stroke="midnightblue" d="M785.548,-142.439C855.537,-130.347 983.175,-108.294 1058.3,-95.3148"/>
<polygon fill="midnightblue" stroke="midnightblue" points="1059.28,-98.697 1068.54,-93.5455 1058.09,-91.7992 1059.28,-98.697"/>
</g>
<!-- Node11 -->
<g id="node11" class="node"><title>Node11</title>
<polygon fill="none" stroke="#bfbfbf" points="246.5,-74.5 246.5,-93.5 395.5,-93.5 395.5,-74.5 246.5,-74.5"/>
<text text-anchor="middle" x="321" y="-81.5" font-family="Helvetica,sans-Serif" font-size="10.00">Math/GenVector/Rotation3D.h</text>
</g>
<!-- Node8&#45;&gt;Node11 -->
<g id="edge10" class="edge"><title>Node8&#45;&gt;Node11</title>
<path fill="none" stroke="midnightblue" d="M677.934,-142.481C611.789,-132.678 500.497,-115.881 405,-100 396.093,-98.5187 386.665,-96.8924 377.47,-95.2742"/>
<polygon fill="midnightblue" stroke="midnightblue" points="378.076,-91.8272 367.619,-93.5287 376.855,-98.7198 378.076,-91.8272"/>
</g>
<!-- Node12 -->
<g id="node12" class="node"><title>Node12</title>
<polygon fill="none" stroke="#bfbfbf" points="414,-74.5 414,-93.5 570,-93.5 570,-74.5 414,-74.5"/>
<text text-anchor="middle" x="492" y="-81.5" font-family="Helvetica,sans-Serif" font-size="10.00">Math/GenVector/Transform3D.h</text>
</g>
<!-- Node8&#45;&gt;Node12 -->
<g id="edge11" class="edge"><title>Node8&#45;&gt;Node12</title>
<path fill="none" stroke="midnightblue" d="M704.101,-142.372C660.324,-130.53 581.574,-109.229 533.328,-96.179"/>
<polygon fill="midnightblue" stroke="midnightblue" points="534.087,-92.7584 523.52,-93.5259 532.259,-99.5156 534.087,-92.7584"/>
</g>
<!-- Node13 -->
<g id="node13" class="node"><title>Node13</title>
<polygon fill="none" stroke="#bfbfbf" points="588,-74.5 588,-93.5 748,-93.5 748,-74.5 588,-74.5"/>
<text text-anchor="middle" x="668" y="-81.5" font-family="Helvetica,sans-Serif" font-size="10.00">Math/GenVector/Translation3D.h</text>
</g>
<!-- Node8&#45;&gt;Node13 -->
<g id="edge12" class="edge"><title>Node8&#45;&gt;Node13</title>
<path fill="none" stroke="midnightblue" d="M727.11,-142.372C716.276,-131.856 697.757,-113.882 684.33,-100.85"/>
<polygon fill="midnightblue" stroke="midnightblue" points="686.723,-98.2944 677.109,-93.8411 681.847,-103.317 686.723,-98.2944"/>
</g>
<!-- Node14 -->
<g id="node14" class="node"><title>Node14</title>
<polygon fill="none" stroke="#bfbfbf" points="1390,-74.5 1390,-93.5 1446,-93.5 1446,-74.5 1390,-74.5"/>
<text text-anchor="middle" x="1418" y="-81.5" font-family="Helvetica,sans-Serif" font-size="10.00">Rtypes.h</text>
</g>
<!-- Node8&#45;&gt;Node14 -->
<g id="edge13" class="edge"><title>Node8&#45;&gt;Node14</title>
<path fill="none" stroke="midnightblue" d="M798.845,-145.63C901.191,-136.785 1110.22,-118.3 1287,-100 1318.22,-96.7682 1353.58,-92.6954 1379.68,-89.6096"/>
<polygon fill="midnightblue" stroke="midnightblue" points="1380.39,-93.0498 1389.91,-88.3951 1379.57,-86.0986 1380.39,-93.0498"/>
</g>
<!-- Node15 -->
<g id="node15" class="node"><title>Node15</title>
<polygon fill="none" stroke="#bfbfbf" points="766,-74.5 766,-93.5 842,-93.5 842,-74.5 766,-74.5"/>
<text text-anchor="middle" x="804" y="-81.5" font-family="Helvetica,sans-Serif" font-size="10.00">TGeoMatrix.h</text>
</g>
<!-- Node8&#45;&gt;Node15 -->
<g id="edge14" class="edge"><title>Node8&#45;&gt;Node15</title>
<path fill="none" stroke="midnightblue" d="M744.89,-142.372C755.724,-131.856 774.243,-113.882 787.67,-100.85"/>
<polygon fill="midnightblue" stroke="midnightblue" points="790.153,-103.317 794.891,-93.8411 785.277,-98.2944 790.153,-103.317"/>
</g>
<!-- Node16 -->
<g id="node16" class="node"><title>Node16</title>
<polygon fill="none" stroke="#bfbfbf" points="1224,-74.5 1224,-93.5 1278,-93.5 1278,-74.5 1224,-74.5"/>
<text text-anchor="middle" x="1251" y="-81.5" font-family="Helvetica,sans-Serif" font-size="10.00">iostream</text>
</g>
<!-- Node8&#45;&gt;Node16 -->
<g id="edge15" class="edge"><title>Node8&#45;&gt;Node16</title>
<path fill="none" stroke="midnightblue" d="M798.72,-146.49C909.854,-138.136 1136.89,-119.337 1214,-100 1217.06,-99.2323 1220.2,-98.2632 1223.3,-97.1886"/>
<polygon fill="midnightblue" stroke="midnightblue" points="1224.81,-100.36 1232.89,-93.5139 1222.3,-93.8229 1224.81,-100.36"/>
</g>
<!-- Node17&#45;&gt;Node3 -->
<g id="edge19" class="edge"><title>Node17&#45;&gt;Node3</title>
<path fill="none" stroke="midnightblue" d="M405.513,-272.467C461.833,-261.671 558.787,-243.086 619.485,-231.45"/>
<polygon fill="midnightblue" stroke="midnightblue" points="620.478,-234.824 629.641,-229.503 619.161,-227.949 620.478,-234.824"/>
</g>
<!-- Node18 -->
<g id="node18" class="node"><title>Node18</title>
<g id="a_node18"><a xlink:href="../../d6/d51/TPC_2base_2include_2TPCBase_2Constants_8h.html" target="_top" xlink:title="TPCBase/Constants.h">
<polygon fill="none" stroke="black" points="303,-210.5 303,-229.5 419,-229.5 419,-210.5 303,-210.5"/>
<text text-anchor="middle" x="361" y="-217.5" font-family="Helvetica,sans-Serif" font-size="10.00">TPCBase/Constants.h</text>
</a>
</g>
</g>
<!-- Node17&#45;&gt;Node18 -->
<g id="edge18" class="edge"><title>Node17&#45;&gt;Node18</title>
<path fill="none" stroke="midnightblue" d="M361,-272.403C361,-263.938 361,-250.728 361,-239.82"/>
<polygon fill="midnightblue" stroke="midnightblue" points="364.5,-239.581 361,-229.581 357.5,-239.581 364.5,-239.581"/>
</g>
<!-- Node19&#45;&gt;Node3 -->
<g id="edge21" class="edge"><title>Node19&#45;&gt;Node3</title>
<path fill="none" stroke="midnightblue" d="M509.089,-328.47C539.435,-308.694 614.848,-259.548 652.252,-235.173"/>
<polygon fill="midnightblue" stroke="midnightblue" points="654.425,-237.934 660.892,-229.542 650.603,-232.07 654.425,-237.934"/>
</g>
<!-- Node19&#45;&gt;Node17 -->
<g id="edge22" class="edge"><title>Node19&#45;&gt;Node17</title>
<path fill="none" stroke="midnightblue" d="M474.609,-328.444C452.293,-319.517 417.097,-305.439 391.792,-295.317"/>
<polygon fill="midnightblue" stroke="midnightblue" points="392.876,-291.981 382.291,-291.516 390.276,-298.48 392.876,-291.981"/>
</g>
<!-- Node21 -->
<g id="node21" class="node"><title>Node21</title>
<g id="a_node21"><a xlink:href="../../d0/d60/DigitTime_8h.html" target="_top" xlink:title="Definition of the Time Bin container. ">
<polygon fill="none" stroke="black" points="1227,-558.5 1227,-577.5 1363,-577.5 1363,-558.5 1227,-558.5"/>
<text text-anchor="middle" x="1295" y="-565.5" font-family="Helvetica,sans-Serif" font-size="10.00">TPCSimulation/DigitTime.h</text>
</a>
</g>
</g>
<!-- Node20&#45;&gt;Node21 -->
<g id="edge24" class="edge"><title>Node20&#45;&gt;Node21</title>
<path fill="none" stroke="midnightblue" d="M1076.26,-620.467C1121.67,-609.783 1199.51,-591.469 1249.05,-579.813"/>
<polygon fill="midnightblue" stroke="midnightblue" points="1249.93,-583.201 1258.86,-577.503 1248.32,-576.387 1249.93,-583.201"/>
</g>
<!-- Node20&#45;&gt;Node38 -->
<g id="edge44" class="edge"><title>Node20&#45;&gt;Node38</title>
<path fill="none" stroke="midnightblue" d="M1025.82,-620.403C1012.16,-612.125 991.013,-599.311 973.253,-588.547"/>
<polygon fill="midnightblue" stroke="midnightblue" points="974.698,-585.331 964.332,-583.141 971.07,-591.317 974.698,-585.331"/>
</g>
<!-- Node50 -->
<g id="node50" class="node"><title>Node50</title>
<polygon fill="none" stroke="#bfbfbf" points="1018.5,-496.5 1018.5,-515.5 1061.5,-515.5 1061.5,-496.5 1018.5,-496.5"/>
<text text-anchor="middle" x="1040" y="-503.5" font-family="Helvetica,sans-Serif" font-size="10.00">deque</text>
</g>
<!-- Node20&#45;&gt;Node50 -->
<g id="edge75" class="edge"><title>Node20&#45;&gt;Node50</title>
<path fill="none" stroke="midnightblue" d="M1040,-620.226C1040,-600.53 1040,-552.437 1040,-525.7"/>
<polygon fill="midnightblue" stroke="midnightblue" points="1043.5,-525.694 1040,-515.694 1036.5,-525.694 1043.5,-525.694"/>
</g>
<!-- Node22 -->
<g id="node22" class="node"><title>Node22</title>
<g id="a_node22"><a xlink:href="../../de/dc8/DigitRow_8h.html" target="_top" xlink:title="Definition of the Row container. ">
<polygon fill="none" stroke="black" points="1439,-272.5 1439,-291.5 1573,-291.5 1573,-272.5 1439,-272.5"/>
<text text-anchor="middle" x="1506" y="-279.5" font-family="Helvetica,sans-Serif" font-size="10.00">TPCSimulation/DigitRow.h</text>
</a>
</g>
</g>
<!-- Node21&#45;&gt;Node22 -->
<g id="edge25" class="edge"><title>Node21&#45;&gt;Node22</title>
<path fill="none" stroke="midnightblue" d="M1341.4,-558.432C1395.32,-545.482 1477,-515.26 1477,-451 1477,-451 1477,-451 1477,-393 1477,-359.716 1489.57,-322.584 1498.16,-301.094"/>
<polygon fill="midnightblue" stroke="midnightblue" points="1501.48,-302.213 1502.09,-291.635 1495.02,-299.525 1501.48,-302.213"/>
</g>
<!-- Node23 -->
<g id="node23" class="node"><title>Node23</title>
<g id="a_node23"><a xlink:href="../../d3/d5d/DigitPad_8h.html" target="_top" xlink:title="Definition of the Pad container. ">
<polygon fill="none" stroke="black" points="1439.5,-210.5 1439.5,-229.5 1570.5,-229.5 1570.5,-210.5 1439.5,-210.5"/>
<text text-anchor="middle" x="1505" y="-217.5" font-family="Helvetica,sans-Serif" font-size="10.00">TPCSimulation/DigitPad.h</text>
</a>
</g>
</g>
<!-- Node22&#45;&gt;Node23 -->
<g id="edge26" class="edge"><title>Node22&#45;&gt;Node23</title>
<path fill="none" stroke="midnightblue" d="M1505.86,-272.403C1505.72,-263.938 1505.5,-250.728 1505.31,-239.82"/>
<polygon fill="midnightblue" stroke="midnightblue" points="1508.81,-239.521 1505.14,-229.581 1501.81,-239.638 1508.81,-239.521"/>
</g>
<!-- Node33 -->
<g id="node33" class="node"><title>Node33</title>
<g id="a_node33"><a xlink:href="../../df/db1/TPC_2base_2include_2TPCBase_2Digit_8h.html" target="_top" xlink:title="TPCBase/Digit.h">
<polygon fill="none" stroke="black" points="1265.5,-210.5 1265.5,-229.5 1356.5,-229.5 1356.5,-210.5 1265.5,-210.5"/>
<text text-anchor="middle" x="1311" y="-217.5" font-family="Helvetica,sans-Serif" font-size="10.00">TPCBase/Digit.h</text>
</a>
</g>
</g>
<!-- Node22&#45;&gt;Node33 -->
<g id="edge37" class="edge"><title>Node22&#45;&gt;Node33</title>
<path fill="none" stroke="midnightblue" d="M1478.06,-272.403C1444.03,-261.933 1386.42,-244.205 1348.54,-232.55"/>
<polygon fill="midnightblue" stroke="midnightblue" points="1349.47,-229.176 1338.89,-229.581 1347.42,-235.867 1349.47,-229.176"/>
</g>
<!-- Node36 -->
<g id="node36" class="node"><title>Node36</title>
<g id="a_node36"><a xlink:href="../../dd/df5/DigitMCMetaData_8h.html" target="_top" xlink:title="Definition of the Meta Data object of the Monte Carlo Digit. ">
<polygon fill="none" stroke="black" points="1659.5,-205 1659.5,-235 1802.5,-235 1802.5,-205 1659.5,-205"/>
<text text-anchor="start" x="1667.5" y="-223" font-family="Helvetica,sans-Serif" font-size="10.00">TPCSimulation/DigitMCMeta</text>
<text text-anchor="middle" x="1731" y="-212" font-family="Helvetica,sans-Serif" font-size="10.00">Data.h</text>
</a>
</g>
</g>
<!-- Node22&#45;&gt;Node36 -->
<g id="edge41" class="edge"><title>Node22&#45;&gt;Node36</title>
<path fill="none" stroke="midnightblue" d="M1538.24,-272.403C1572.1,-263.374 1626.2,-248.947 1668.48,-237.672"/>
<polygon fill="midnightblue" stroke="midnightblue" points="1669.64,-240.984 1678.41,-235.025 1667.84,-234.22 1669.64,-240.984"/>
</g>
<!-- Node37 -->
<g id="node37" class="node"><title>Node37</title>
<polygon fill="none" stroke="#bfbfbf" points="1589,-210.5 1589,-229.5 1641,-229.5 1641,-210.5 1589,-210.5"/>
<text text-anchor="middle" x="1615" y="-217.5" font-family="Helvetica,sans-Serif" font-size="10.00">memory</text>
</g>
<!-- Node22&#45;&gt;Node37 -->
<g id="edge43" class="edge"><title>Node22&#45;&gt;Node37</title>
<path fill="none" stroke="midnightblue" d="M1521.62,-272.403C1539.59,-262.512 1569.32,-246.144 1590.41,-234.538"/>
<polygon fill="midnightblue" stroke="midnightblue" points="1592.34,-237.469 1599.41,-229.581 1588.96,-231.337 1592.34,-237.469"/>
</g>
<!-- Node24 -->
<g id="node24" class="node"><title>Node24</title>
<polygon fill="none" stroke="#bfbfbf" points="1414.5,-142.5 1414.5,-161.5 1449.5,-161.5 1449.5,-142.5 1414.5,-142.5"/>
<text text-anchor="middle" x="1432" y="-149.5" font-family="Helvetica,sans-Serif" font-size="10.00">map</text>
</g>
<!-- Node23&#45;&gt;Node24 -->
<g id="edge27" class="edge"><title>Node23&#45;&gt;Node24</title>
<path fill="none" stroke="midnightblue" d="M1495.46,-210.372C1483.83,-199.856 1463.95,-181.882 1449.53,-168.85"/>
<polygon fill="midnightblue" stroke="midnightblue" points="1451.54,-165.951 1441.78,-161.841 1446.85,-171.144 1451.54,-165.951"/>
</g>
<!-- Node25 -->
<g id="node25" class="node"><title>Node25</title>
<polygon fill="none" stroke="#bfbfbf" points="1600,-142.5 1600,-161.5 1700,-161.5 1700,-142.5 1600,-142.5"/>
<text text-anchor="middle" x="1650" y="-149.5" font-family="Helvetica,sans-Serif" font-size="10.00">FairRootManager.h</text>
</g>
<!-- Node23&#45;&gt;Node25 -->
<g id="edge28" class="edge"><title>Node23&#45;&gt;Node25</title>
<path fill="none" stroke="midnightblue" d="M1523.96,-210.372C1548.92,-199.007 1593.03,-178.931 1621.89,-165.796"/>
<polygon fill="midnightblue" stroke="midnightblue" points="1623.39,-168.959 1631.04,-161.63 1620.49,-162.588 1623.39,-168.959"/>
</g>
<!-- Node26 -->
<g id="node26" class="node"><title>Node26</title>
<g id="a_node26"><a xlink:href="../../db/d14/MCTruthContainer_8h.html" target="_top" xlink:title="Definition of a container to keep Monte Carlo truth external to simulation objects. ">
<polygon fill="none" stroke="black" points="1756,-137 1756,-167 1870,-167 1870,-137 1756,-137"/>
<text text-anchor="start" x="1764" y="-155" font-family="Helvetica,sans-Serif" font-size="10.00">SimulationDataFormat</text>
<text text-anchor="middle" x="1813" y="-144" font-family="Helvetica,sans-Serif" font-size="10.00">/MCTruthContainer.h</text>
</a>
</g>
</g>
<!-- Node23&#45;&gt;Node26 -->
<g id="edge29" class="edge"><title>Node23&#45;&gt;Node26</title>
<path fill="none" stroke="midnightblue" d="M1544.95,-210.439C1595.83,-199.536 1684.5,-180.536 1745.85,-167.389"/>
<polygon fill="midnightblue" stroke="midnightblue" points="1746.79,-170.768 1755.83,-165.251 1745.32,-163.924 1746.79,-170.768"/>
</g>
<!-- Node32 -->
<g id="node32" class="node"><title>Node32</title>
<g id="a_node32"><a xlink:href="../../d7/dcd/MCCompLabel_8h.html" target="_top" xlink:title="SimulationDataFormat\l/MCCompLabel.h">
<polygon fill="none" stroke="black" points="1468,-137 1468,-167 1582,-167 1582,-137 1468,-137"/>
<text text-anchor="start" x="1476" y="-155" font-family="Helvetica,sans-Serif" font-size="10.00">SimulationDataFormat</text>
<text text-anchor="middle" x="1525" y="-144" font-family="Helvetica,sans-Serif" font-size="10.00">/MCCompLabel.h</text>
</a>
</g>
</g>
<!-- Node23&#45;&gt;Node32 -->
<g id="edge35" class="edge"><title>Node23&#45;&gt;Node32</title>
<path fill="none" stroke="midnightblue" d="M1507.61,-210.372C1510.19,-201.886 1514.23,-188.542 1517.77,-176.858"/>
<polygon fill="midnightblue" stroke="midnightblue" points="1521.15,-177.767 1520.7,-167.181 1514.45,-175.737 1521.15,-177.767"/>
</g>
<!-- Node27 -->
<g id="node27" class="node"><title>Node27</title>
<polygon fill="none" stroke="#bfbfbf" points="1708,-74.5 1708,-93.5 1770,-93.5 1770,-74.5 1708,-74.5"/>
<text text-anchor="middle" x="1739" y="-81.5" font-family="Helvetica,sans-Serif" font-size="10.00">TNamed.h</text>
</g>
<!-- Node26&#45;&gt;Node27 -->
<g id="edge30" class="edge"><title>Node26&#45;&gt;Node27</title>
<path fill="none" stroke="midnightblue" d="M1796.94,-136.679C1785.06,-126.082 1768.89,-111.655 1756.64,-100.736"/>
<polygon fill="midnightblue" stroke="midnightblue" points="1758.69,-97.8724 1748.9,-93.8283 1754.03,-103.097 1758.69,-97.8724"/>
</g>
<!-- Node28 -->
<g id="node28" class="node"><title>Node28</title>
<polygon fill="none" stroke="#bfbfbf" points="1788.5,-74.5 1788.5,-93.5 1837.5,-93.5 1837.5,-74.5 1788.5,-74.5"/>
<text text-anchor="middle" x="1813" y="-81.5" font-family="Helvetica,sans-Serif" font-size="10.00">cassert</text>
</g>
<!-- Node26&#45;&gt;Node28 -->
<g id="edge31" class="edge"><title>Node26&#45;&gt;Node28</title>
<path fill="none" stroke="midnightblue" d="M1813,-136.679C1813,-127.101 1813,-114.394 1813,-103.977"/>
<polygon fill="midnightblue" stroke="midnightblue" points="1816.5,-103.828 1813,-93.8283 1809.5,-103.828 1816.5,-103.828"/>
</g>
<!-- Node29 -->
<g id="node29" class="node"><title>Node29</title>
<polygon fill="none" stroke="#bfbfbf" points="1855.5,-74.5 1855.5,-93.5 1914.5,-93.5 1914.5,-74.5 1855.5,-74.5"/>
<text text-anchor="middle" x="1885" y="-81.5" font-family="Helvetica,sans-Serif" font-size="10.00">stdexcept</text>
</g>
<!-- Node26&#45;&gt;Node29 -->
<g id="edge32" class="edge"><title>Node26&#45;&gt;Node29</title>
<path fill="none" stroke="midnightblue" d="M1828.62,-136.679C1840.18,-126.082 1855.92,-111.655 1867.83,-100.736"/>
<polygon fill="midnightblue" stroke="midnightblue" points="1870.36,-103.166 1875.37,-93.8283 1865.63,-98.0055 1870.36,-103.166"/>
</g>
<!-- Node30 -->
<g id="node30" class="node"><title>Node30</title>
<polygon fill="none" stroke="#bfbfbf" points="1932.5,-74.5 1932.5,-93.5 1977.5,-93.5 1977.5,-74.5 1932.5,-74.5"/>
<text text-anchor="middle" x="1955" y="-81.5" font-family="Helvetica,sans-Serif" font-size="10.00">gsl/gsl</text>
</g>
<!-- Node26&#45;&gt;Node30 -->
<g id="edge33" class="edge"><title>Node26&#45;&gt;Node30</title>
<path fill="none" stroke="midnightblue" d="M1843.36,-136.964C1865.46,-126.739 1896.1,-112.541 1923,-100 1924.39,-99.3519 1925.81,-98.6873 1927.25,-98.0156"/>
<polygon fill="midnightblue" stroke="midnightblue" points="1929.16,-100.989 1936.73,-93.5801 1926.19,-94.6486 1929.16,-100.989"/>
</g>
<!-- Node31 -->
<g id="node31" class="node"><title>Node31</title>
<polygon fill="none" stroke="#bfbfbf" points="1628,-74.5 1628,-93.5 1690,-93.5 1690,-74.5 1628,-74.5"/>
<text text-anchor="middle" x="1659" y="-81.5" font-family="Helvetica,sans-Serif" font-size="10.00">type_traits</text>
</g>
<!-- Node26&#45;&gt;Node31 -->
<g id="edge34" class="edge"><title>Node26&#45;&gt;Node31</title>
<path fill="none" stroke="midnightblue" d="M1779.96,-136.841C1752.85,-125.221 1714.79,-108.912 1688.65,-97.7063"/>
<polygon fill="midnightblue" stroke="midnightblue" points="1689.83,-94.4041 1679.26,-93.6819 1687.07,-100.838 1689.83,-94.4041"/>
</g>
<!-- Node32&#45;&gt;Node14 -->
<g id="edge36" class="edge"><title>Node32&#45;&gt;Node14</title>
<path fill="none" stroke="midnightblue" d="M1502.05,-136.841C1483.95,-125.681 1458.85,-110.198 1440.8,-99.0625"/>
<polygon fill="midnightblue" stroke="midnightblue" points="1442.42,-95.9529 1432.08,-93.6819 1438.75,-101.911 1442.42,-95.9529"/>
</g>
<!-- Node34 -->
<g id="node34" class="node"><title>Node34</title>
<g id="a_node34"><a xlink:href="../../df/d5d/common_2include_2CommonDataFormat_2TimeStamp_8h.html" target="_top" xlink:title="CommonDataFormat/TimeStamp.h">
<polygon fill="none" stroke="black" points="1226,-142.5 1226,-161.5 1396,-161.5 1396,-142.5 1226,-142.5"/>
<text text-anchor="middle" x="1311" y="-149.5" font-family="Helvetica,sans-Serif" font-size="10.00">CommonDataFormat/TimeStamp.h</text>
</a>
</g>
</g>
<!-- Node33&#45;&gt;Node34 -->
<g id="edge38" class="edge"><title>Node33&#45;&gt;Node34</title>
<path fill="none" stroke="midnightblue" d="M1311,-210.372C1311,-200.643 1311,-184.528 1311,-171.85"/>
<polygon fill="midnightblue" stroke="midnightblue" points="1314.5,-171.841 1311,-161.841 1307.5,-171.841 1314.5,-171.841"/>
</g>
<!-- Node35 -->
<g id="node35" class="node"><title>Node35</title>
<polygon fill="none" stroke="#bfbfbf" points="1148.5,-142.5 1148.5,-161.5 1207.5,-161.5 1207.5,-142.5 1148.5,-142.5"/>
<text text-anchor="middle" x="1178" y="-149.5" font-family="Helvetica,sans-Serif" font-size="10.00">TObject.h</text>
</g>
<!-- Node33&#45;&gt;Node35 -->
<g id="edge40" class="edge"><title>Node33&#45;&gt;Node35</title>
<path fill="none" stroke="midnightblue" d="M1293.61,-210.372C1270.91,-199.106 1230.96,-179.279 1204.48,-166.14"/>
<polygon fill="midnightblue" stroke="midnightblue" points="1205.91,-162.94 1195.39,-161.63 1202.79,-169.211 1205.91,-162.94"/>
</g>
<!-- Node34&#45;&gt;Node14 -->
<g id="edge39" class="edge"><title>Node34&#45;&gt;Node14</title>
<path fill="none" stroke="midnightblue" d="M1324.99,-142.372C1342.85,-131.353 1373.99,-112.145 1395.28,-99.0142"/>
<polygon fill="midnightblue" stroke="midnightblue" points="1397.33,-101.859 1404.01,-93.6305 1393.66,-95.9015 1397.33,-101.859"/>
</g>
<!-- Node36&#45;&gt;Node14 -->
<g id="edge42" class="edge"><title>Node36&#45;&gt;Node14</title>
<path fill="none" stroke="midnightblue" d="M1731.56,-204.947C1731.48,-186.319 1728.33,-153.741 1709,-136 1672.7,-102.681 1526.97,-90.6475 1456.52,-86.7174"/>
<polygon fill="midnightblue" stroke="midnightblue" points="1456.46,-83.2095 1446.29,-86.1744 1456.09,-90.1997 1456.46,-83.2095"/>
</g>
<!-- Node38&#45;&gt;Node19 -->
<g id="edge45" class="edge"><title>Node38&#45;&gt;Node19</title>
<path fill="none" stroke="midnightblue" d="M866.48,-554.007C787.807,-538.488 661.51,-508.375 561,-460 522.546,-441.492 502.482,-441.97 483,-404 475.464,-389.313 480.454,-370.679 486.3,-357.131"/>
<polygon fill="midnightblue" stroke="midnightblue" points="489.554,-358.44 490.743,-347.912 483.248,-355.401 489.554,-358.44"/>
</g>
<!-- Node39 -->
<g id="node39" class="node"><title>Node39</title>
<g id="a_node39"><a xlink:href="../../d7/d2c/Mapper_8h.html" target="_top" xlink:title="TPCBase/Mapper.h">
<polygon fill="none" stroke="black" points="892.5,-496.5 892.5,-515.5 995.5,-515.5 995.5,-496.5 892.5,-496.5"/>
<text text-anchor="middle" x="944" y="-503.5" font-family="Helvetica,sans-Serif" font-size="10.00">TPCBase/Mapper.h</text>
</a>
</g>
</g>
<!-- Node38&#45;&gt;Node39 -->
<g id="edge46" class="edge"><title>Node38&#45;&gt;Node39</title>
<path fill="none" stroke="midnightblue" d="M941.711,-552.781C942.115,-544.691 942.627,-534.462 943.064,-525.725"/>
<polygon fill="midnightblue" stroke="midnightblue" points="946.56,-525.893 943.563,-515.731 939.568,-525.543 946.56,-525.893"/>
</g>
<!-- Node38&#45;&gt;Node50 -->
<g id="edge74" class="edge"><title>Node38&#45;&gt;Node50</title>
<path fill="none" stroke="midnightblue" d="M964.211,-552.933C980.168,-543.262 1001.26,-530.479 1017.14,-520.855"/>
<polygon fill="midnightblue" stroke="midnightblue" points="1019.07,-523.776 1025.81,-515.6 1015.44,-517.79 1019.07,-523.776"/>
</g>
<!-- Node39&#45;&gt;Node3 -->
<g id="edge52" class="edge"><title>Node39&#45;&gt;Node3</title>
<path fill="none" stroke="midnightblue" d="M967.773,-496.351C984.614,-489.078 1006.52,-477.103 1020,-460 1038.71,-436.259 1040,-425.225 1040,-395 1040,-395 1040,-395 1040,-337 1040,-272.879 833.282,-239.619 730.557,-227.05"/>
<polygon fill="midnightblue" stroke="midnightblue" points="730.699,-223.542 720.354,-225.827 729.867,-230.492 730.699,-223.542"/>
</g>
<!-- Node39&#45;&gt;Node4 -->
<g id="edge51" class="edge"><title>Node39&#45;&gt;Node4</title>
<path fill="none" stroke="midnightblue" d="M973.919,-496.495C994.658,-489.407 1021.87,-477.598 1041,-460 1065.46,-437.492 1078,-428.241 1078,-395 1078,-395 1078,-395 1078,-281 1078,-238.049 1050.89,-193.457 1034.06,-169.919"/>
<polygon fill="midnightblue" stroke="midnightblue" points="1036.75,-167.67 1027.99,-161.711 1031.12,-171.832 1036.75,-167.67"/>
</g>
<!-- Node39&#45;&gt;Node17 -->
<g id="edge73" class="edge"><title>Node39&#45;&gt;Node17</title>
<path fill="none" stroke="midnightblue" d="M892.474,-504.935C757.909,-503.53 401.581,-491.463 333,-404 308.933,-373.307 332.858,-325.575 348.968,-300.209"/>
<polygon fill="midnightblue" stroke="midnightblue" points="352.026,-301.931 354.644,-291.665 346.196,-298.058 352.026,-301.931"/>
</g>
<!-- Node39&#45;&gt;Node24 -->
<g id="edge47" class="edge"><title>Node39&#45;&gt;Node24</title>
<path fill="none" stroke="midnightblue" d="M995.776,-497.647C1000.25,-497.068 1004.7,-496.511 1009,-496 1089.5,-486.439 1303.52,-503.376 1372,-460 1400.46,-441.973 1411,-428.69 1411,-395 1411,-395 1411,-395 1411,-281 1411,-241.553 1420.83,-196.158 1427.04,-171.425"/>
<polygon fill="midnightblue" stroke="midnightblue" points="1430.46,-172.17 1429.59,-161.611 1423.69,-170.41 1430.46,-172.17"/>
</g>
<!-- Node40 -->
<g id="node40" class="node"><title>Node40</title>
<polygon fill="none" stroke="#bfbfbf" points="892,-384.5 892,-403.5 936,-403.5 936,-384.5 892,-384.5"/>
<text text-anchor="middle" x="914" y="-391.5" font-family="Helvetica,sans-Serif" font-size="10.00">vector</text>
</g>
<!-- Node39&#45;&gt;Node40 -->
<g id="edge48" class="edge"><title>Node39&#45;&gt;Node40</title>
<path fill="none" stroke="midnightblue" d="M915.628,-496.495C898.248,-489.653 877.404,-478.13 867,-460 856.553,-441.795 874.701,-422.494 891.393,-409.699"/>
<polygon fill="midnightblue" stroke="midnightblue" points="893.748,-412.317 899.83,-403.642 889.666,-406.631 893.748,-412.317"/>
</g>
<!-- Node41 -->
<g id="node41" class="node"><title>Node41</title>
<polygon fill="none" stroke="#bfbfbf" points="1106,-440.5 1106,-459.5 1144,-459.5 1144,-440.5 1106,-440.5"/>
<text text-anchor="middle" x="1125" y="-447.5" font-family="Helvetica,sans-Serif" font-size="10.00">array</text>
</g>
<!-- Node39&#45;&gt;Node41 -->
<g id="edge49" class="edge"><title>Node39&#45;&gt;Node41</title>
<path fill="none" stroke="midnightblue" d="M972.68,-496.444C1006.47,-486.364 1062.27,-469.715 1096.14,-459.611"/>
<polygon fill="midnightblue" stroke="midnightblue" points="1097.31,-462.913 1105.89,-456.7 1095.31,-456.205 1097.31,-462.913"/>
</g>
<!-- Node42 -->
<g id="node42" class="node"><title>Node42</title>
<polygon fill="none" stroke="#bfbfbf" points="1162.5,-440.5 1162.5,-459.5 1203.5,-459.5 1203.5,-440.5 1162.5,-440.5"/>
<text text-anchor="middle" x="1183" y="-447.5" font-family="Helvetica,sans-Serif" font-size="10.00">string</text>
</g>
<!-- Node39&#45;&gt;Node42 -->
<g id="edge50" class="edge"><title>Node39&#45;&gt;Node42</title>
<path fill="none" stroke="midnightblue" d="M988.68,-496.448C1029,-488.492 1090.14,-475.838 1152.4,-459.985"/>
<polygon fill="midnightblue" stroke="midnightblue" points="1153.59,-463.294 1162.4,-457.413 1151.85,-456.514 1153.59,-463.294"/>
</g>
<!-- Node43 -->
<g id="node43" class="node"><title>Node43</title>
<g id="a_node43"><a xlink:href="../../de/d41/PadPos_8h.html" target="_top" xlink:title="TPCBase/PadPos.h">
<polygon fill="none" stroke="black" points="773.5,-328.5 773.5,-347.5 878.5,-347.5 878.5,-328.5 773.5,-328.5"/>
<text text-anchor="middle" x="826" y="-335.5" font-family="Helvetica,sans-Serif" font-size="10.00">TPCBase/PadPos.h</text>
</a>
</g>
</g>
<!-- Node39&#45;&gt;Node43 -->
<g id="edge53" class="edge"><title>Node39&#45;&gt;Node43</title>
<path fill="none" stroke="midnightblue" d="M916.022,-496.479C897.586,-489.489 874.293,-477.803 860,-460 835.834,-429.898 828.831,-383.618 826.811,-357.893"/>
<polygon fill="midnightblue" stroke="midnightblue" points="830.289,-357.422 826.189,-347.653 823.301,-357.846 830.289,-357.422"/>
</g>
<!-- Node44 -->
<g id="node44" class="node"><title>Node44</title>
<g id="a_node44"><a xlink:href="../../dd/d0b/PadSecPos_8h.html" target="_top" xlink:title="TPCBase/PadSecPos.h">
<polygon fill="none" stroke="black" points="492,-384.5 492,-403.5 614,-403.5 614,-384.5 492,-384.5"/>
<text text-anchor="middle" x="553" y="-391.5" font-family="Helvetica,sans-Serif" font-size="10.00">TPCBase/PadSecPos.h</text>
</a>
</g>
</g>
<!-- Node39&#45;&gt;Node44 -->
<g id="edge54" class="edge"><title>Node39&#45;&gt;Node44</title>
<path fill="none" stroke="midnightblue" d="M892.257,-504.938C803.431,-503.822 626.858,-496.874 579,-460 564.73,-449.005 558.268,-428.953 555.357,-414.017"/>
<polygon fill="midnightblue" stroke="midnightblue" points="558.765,-413.161 553.752,-403.827 551.851,-414.25 558.765,-413.161"/>
</g>
<!-- Node45 -->
<g id="node45" class="node"><title>Node45</title>
<g id="a_node45"><a xlink:href="../../da/d61/PadROCPos_8h.html" target="_top" xlink:title="TPCBase/PadROCPos.h">
<polygon fill="none" stroke="black" points="670,-384.5 670,-403.5 798,-403.5 798,-384.5 670,-384.5"/>
<text text-anchor="middle" x="734" y="-391.5" font-family="Helvetica,sans-Serif" font-size="10.00">TPCBase/PadROCPos.h</text>
</a>
</g>
</g>
<!-- Node39&#45;&gt;Node45 -->
<g id="edge57" class="edge"><title>Node39&#45;&gt;Node45</title>
<path fill="none" stroke="midnightblue" d="M894.026,-496.488C864.007,-489.803 825.954,-478.452 796,-460 775.548,-447.402 757.261,-426.432 745.939,-411.726"/>
<polygon fill="midnightblue" stroke="midnightblue" points="748.607,-409.448 739.832,-403.51 742.988,-413.623 748.607,-409.448"/>
</g>
<!-- Node46 -->
<g id="node46" class="node"><title>Node46</title>
<g id="a_node46"><a xlink:href="../../d3/d54/DigitPos_8h.html" target="_top" xlink:title="TPCBase/DigitPos.h">
<polygon fill="none" stroke="black" points="588,-440.5 588,-459.5 696,-459.5 696,-440.5 588,-440.5"/>
<text text-anchor="middle" x="642" y="-447.5" font-family="Helvetica,sans-Serif" font-size="10.00">TPCBase/DigitPos.h</text>
</a>
</g>
</g>
<!-- Node39&#45;&gt;Node46 -->
<g id="edge61" class="edge"><title>Node39&#45;&gt;Node46</title>
<path fill="none" stroke="midnightblue" d="M896.147,-496.444C842.801,-486.905 756.555,-471.483 699.564,-461.293"/>
<polygon fill="midnightblue" stroke="midnightblue" points="700.089,-457.831 689.629,-459.516 698.857,-464.722 700.089,-457.831"/>
</g>
<!-- Node47 -->
<g id="node47" class="node"><title>Node47</title>
<g id="a_node47"><a xlink:href="../../d1/d1f/FECInfo_8h.html" target="_top" xlink:title="TPCBase/FECInfo.h">
<polygon fill="none" stroke="black" points="1191.5,-328.5 1191.5,-347.5 1298.5,-347.5 1298.5,-328.5 1191.5,-328.5"/>
<text text-anchor="middle" x="1245" y="-335.5" font-family="Helvetica,sans-Serif" font-size="10.00">TPCBase/FECInfo.h</text>
</a>
</g>
</g>
<!-- Node39&#45;&gt;Node47 -->
<g id="edge66" class="edge"><title>Node39&#45;&gt;Node47</title>
<path fill="none" stroke="midnightblue" d="M995.78,-497.672C1000.25,-497.088 1004.7,-496.522 1009,-496 1047.15,-491.364 1327.28,-488.554 1353,-460 1388.22,-420.906 1314.48,-374.413 1272.08,-352.153"/>
<polygon fill="midnightblue" stroke="midnightblue" points="1273.55,-348.977 1263.06,-347.532 1270.36,-355.207 1273.55,-348.977"/>
</g>
<!-- Node48 -->
<g id="node48" class="node"><title>Node48</title>
<g id="a_node48"><a xlink:href="../../da/d9d/PadRegionInfo_8h.html" target="_top" xlink:title="TPCBase/PadRegionInfo.h">
<polygon fill="none" stroke="black" points="876.5,-440.5 876.5,-459.5 1011.5,-459.5 1011.5,-440.5 876.5,-440.5"/>
<text text-anchor="middle" x="944" y="-447.5" font-family="Helvetica,sans-Serif" font-size="10.00">TPCBase/PadRegionInfo.h</text>
</a>
</g>
</g>
<!-- Node39&#45;&gt;Node48 -->
<g id="edge68" class="edge"><title>Node39&#45;&gt;Node48</title>
<path fill="none" stroke="midnightblue" d="M944,-496.083C944,-489.006 944,-478.861 944,-469.986"/>
<polygon fill="midnightblue" stroke="midnightblue" points="947.5,-469.751 944,-459.751 940.5,-469.751 947.5,-469.751"/>
</g>
<!-- Node49 -->
<g id="node49" class="node"><title>Node49</title>
<g id="a_node49"><a xlink:href="../../d6/d42/PartitionInfo_8h.html" target="_top" xlink:title="TPCBase/PartitionInfo.h">
<polygon fill="none" stroke="black" points="1221.5,-440.5 1221.5,-459.5 1344.5,-459.5 1344.5,-440.5 1221.5,-440.5"/>
<text text-anchor="middle" x="1283" y="-447.5" font-family="Helvetica,sans-Serif" font-size="10.00">TPCBase/PartitionInfo.h</text>
</a>
</g>
</g>
<!-- Node39&#45;&gt;Node49 -->
<g id="edge72" class="edge"><title>Node39&#45;&gt;Node49</title>
<path fill="none" stroke="midnightblue" d="M995.856,-496.74C1055.89,-487.177 1154.78,-471.424 1219.4,-461.13"/>
<polygon fill="midnightblue" stroke="midnightblue" points="1220.15,-464.556 1229.47,-459.527 1219.04,-457.644 1220.15,-464.556"/>
</g>
<!-- Node44&#45;&gt;Node17 -->
<g id="edge55" class="edge"><title>Node44&#45;&gt;Node17</title>
<path fill="none" stroke="midnightblue" d="M555.731,-384.287C559.422,-370.632 564.135,-344.094 551,-328 534.607,-307.914 469.971,-295.766 420.596,-289.24"/>
<polygon fill="midnightblue" stroke="midnightblue" points="420.991,-285.762 410.629,-287.971 420.107,-292.706 420.991,-285.762"/>
</g>
<!-- Node44&#45;&gt;Node43 -->
<g id="edge56" class="edge"><title>Node44&#45;&gt;Node43</title>
<path fill="none" stroke="midnightblue" d="M596.258,-384.444C644.181,-374.964 721.478,-359.675 773,-349.483"/>
<polygon fill="midnightblue" stroke="midnightblue" points="773.814,-352.89 782.945,-347.516 772.456,-346.023 773.814,-352.89"/>
</g>
<!-- Node45&#45;&gt;Node3 -->
<g id="edge58" class="edge"><title>Node45&#45;&gt;Node3</title>
<path fill="none" stroke="midnightblue" d="M730.942,-384.234C721.593,-357.433 693.248,-276.178 680.424,-239.415"/>
<polygon fill="midnightblue" stroke="midnightblue" points="683.579,-237.833 676.981,-229.544 676.97,-240.139 683.579,-237.833"/>
</g>
<!-- Node45&#45;&gt;Node19 -->
<g id="edge59" class="edge"><title>Node45&#45;&gt;Node19</title>
<path fill="none" stroke="midnightblue" d="M696.288,-384.444C654.857,-375.043 588.243,-359.929 543.333,-349.739"/>
<polygon fill="midnightblue" stroke="midnightblue" points="544.062,-346.316 533.535,-347.516 542.513,-353.142 544.062,-346.316"/>
</g>
<!-- Node45&#45;&gt;Node43 -->
<g id="edge60" class="edge"><title>Node45&#45;&gt;Node43</title>
<path fill="none" stroke="midnightblue" d="M748.781,-384.324C763.267,-375.822 785.573,-362.729 802.493,-352.797"/>
<polygon fill="midnightblue" stroke="midnightblue" points="804.403,-355.735 811.255,-347.655 800.859,-349.698 804.403,-355.735"/>
</g>
<!-- Node46&#45;&gt;Node2 -->
<g id="edge63" class="edge"><title>Node46&#45;&gt;Node2</title>
<path fill="none" stroke="midnightblue" d="M601.911,-440.444C557.684,-431.004 486.461,-415.802 438.715,-405.611"/>
<polygon fill="midnightblue" stroke="midnightblue" points="439.411,-402.181 428.901,-403.516 437.95,-409.027 439.411,-402.181"/>
</g>
<!-- Node46&#45;&gt;Node3 -->
<g id="edge62" class="edge"><title>Node46&#45;&gt;Node3</title>
<path fill="none" stroke="midnightblue" d="M643.215,-440.341C647.898,-406.976 664.836,-286.295 671.387,-239.615"/>
<polygon fill="midnightblue" stroke="midnightblue" points="674.859,-240.058 672.783,-229.668 667.927,-239.085 674.859,-240.058"/>
</g>
<!-- Node46&#45;&gt;Node43 -->
<g id="edge64" class="edge"><title>Node46&#45;&gt;Node43</title>
<path fill="none" stroke="midnightblue" d="M696.217,-447.431C732.102,-443.543 777.765,-432.71 807,-404 819.179,-392.04 823.655,-372.739 825.248,-358.27"/>
<polygon fill="midnightblue" stroke="midnightblue" points="828.765,-358.163 825.999,-347.936 821.783,-357.656 828.765,-358.163"/>
</g>
<!-- Node46&#45;&gt;Node44 -->
<g id="edge65" class="edge"><title>Node46&#45;&gt;Node44</title>
<path fill="none" stroke="midnightblue" d="M627.701,-440.324C613.817,-431.9 592.508,-418.971 576.196,-409.074"/>
<polygon fill="midnightblue" stroke="midnightblue" points="577.629,-405.85 567.264,-403.655 573.998,-411.834 577.629,-405.85"/>
</g>
<!-- Node47&#45;&gt;Node16 -->
<g id="edge67" class="edge"><title>Node47&#45;&gt;Node16</title>
<path fill="none" stroke="midnightblue" d="M1233.69,-328.278C1198.08,-299.753 1093.32,-206.998 1139,-136 1141.43,-132.224 1188.97,-111.415 1221.32,-97.5714"/>
<polygon fill="midnightblue" stroke="midnightblue" points="1222.98,-100.668 1230.81,-93.5253 1220.23,-94.229 1222.98,-100.668"/>
</g>
<!-- Node48&#45;&gt;Node3 -->
<g id="edge70" class="edge"><title>Node48&#45;&gt;Node3</title>
<path fill="none" stroke="midnightblue" d="M950.315,-440.197C958.71,-427.322 971.446,-402.842 962,-384 916.414,-293.071 796.137,-249.952 726.28,-232.003"/>
<polygon fill="midnightblue" stroke="midnightblue" points="726.904,-228.551 716.355,-229.535 725.214,-235.345 726.904,-228.551"/>
</g>
<!-- Node48&#45;&gt;Node40 -->
<g id="edge69" class="edge"><title>Node48&#45;&gt;Node40</title>
<path fill="none" stroke="midnightblue" d="M939.046,-440.083C934.896,-432.613 928.847,-421.724 923.733,-412.52"/>
<polygon fill="midnightblue" stroke="midnightblue" points="926.778,-410.793 918.862,-403.751 920.659,-414.192 926.778,-410.793"/>
</g>
<!-- Node48&#45;&gt;Node43 -->
<g id="edge71" class="edge"><title>Node48&#45;&gt;Node43</title>
<path fill="none" stroke="midnightblue" d="M946.921,-440.086C950.736,-426.631 955.651,-400.913 944,-384 931.218,-365.446 909.684,-354.536 888.484,-348.124"/>
<polygon fill="midnightblue" stroke="midnightblue" points="889.368,-344.737 878.8,-345.483 887.527,-351.491 889.368,-344.737"/>
</g>
</g>
</svg>
