<?xml version="1.0" encoding="UTF-8" standalone="no"?>
<!DOCTYPE svg PUBLIC "-//W3C//DTD SVG 1.1//EN"
 "http://www.w3.org/Graphics/SVG/1.1/DTD/svg11.dtd">
<!-- Generated by graphviz version 2.36.0 (20140111.2315)
 -->
<!-- Title: /home/travis/build/AliceO2Group/AliceO2/Detectors/TPC/reconstruction/src/TrackTPC.cxx Pages: 1 -->
<!--zoomable 526 -->
<svg id="main" version="1.1" xmlns="http://www.w3.org/2000/svg" xmlns:xlink="http://www.w3.org/1999/xlink" xml:space="preserve" onload="init(evt)">
<style type="text/css"><![CDATA[
.edge:hover path { stroke: red; }
.edge:hover polygon { stroke: red; fill: red; }
]]></style>
<script type="text/javascript"><![CDATA[
var edges = document.getElementsByTagName('g');
if (edges && edges.length) {
  for (var i=0;i<edges.length;i++) {
    if (edges[i].id.substr(0,4)=='edge') {
      edges[i].setAttribute('class','edge');
    }
  }
}
]]></script>
        <defs>
                <circle id="rim" cx="0" cy="0" r="7"/>
                <circle id="rim2" cx="0" cy="0" r="3.5"/>
                <g id="zoomPlus">
                        <use xlink:href="#rim" fill="#404040">
                                <set attributeName="fill" to="#808080" begin="zoomplus.mouseover" end="zoomplus.mouseout"/>
                        </use>
                        <path d="M-4,0h8M0,-4v8" fill="none" stroke="white" stroke-width="1.5" pointer-events="none"/>
                </g>
                <g id="zoomMin">
                        <use xlink:href="#rim" fill="#404040">
                                <set attributeName="fill" to="#808080" begin="zoomminus.mouseover" end="zoomminus.mouseout"/>
                        </use>
                        <path d="M-4,0h8" fill="none" stroke="white" stroke-width="1.5" pointer-events="none"/>
                </g>
                <g id="dirArrow">
                        <path fill="none" stroke="white" stroke-width="1.5" d="M0,-3.0v7 M-2.5,-0.5L0,-3.0L2.5,-0.5"/>
                </g>
               <g id="resetDef">
                       <use xlink:href="#rim2" fill="#404040">
                               <set attributeName="fill" to="#808080" begin="reset.mouseover" end="reset.mouseout"/>
                       </use>
               </g>
        </defs>

<script type="text/javascript">
var viewWidth = 2582;
var viewHeight = 526;
var sectionId = 'dynsection-0';
</script>
<script xlink:href="../../svgpan.js"/>
<svg id="graph" class="graph">
<g id="viewport">
<title>/home/travis/build/AliceO2Group/AliceO2/Detectors/TPC/reconstruction/src/TrackTPC.cxx</title>
<!-- Node1 -->
<g id="node1" class="node"><title>Node1</title>
<polygon fill="#bfbfbf" stroke="black" points="2258,-465 2258,-517 2408,-517 2408,-465 2258,-465"/>
<text text-anchor="start" x="2266" y="-505" font-family="Helvetica,sans-Serif" font-size="10.00">/home/travis/build</text>
<text text-anchor="start" x="2266" y="-494" font-family="Helvetica,sans-Serif" font-size="10.00">/AliceO2Group/AliceO2</text>
<text text-anchor="start" x="2266" y="-483" font-family="Helvetica,sans-Serif" font-size="10.00">/Detectors/TPC/reconstruction</text>
<text text-anchor="middle" x="2333" y="-472" font-family="Helvetica,sans-Serif" font-size="10.00">/src/TrackTPC.cxx</text>
</g>
<!-- Node2 -->
<g id="node2" class="node"><title>Node2</title>
<g id="a_node2"><a xlink:href="../../d5/dc9/TrackTPC_8h.html" target="_top" xlink:title="TPCReconstruction/TrackTPC.h">
<polygon fill="none" stroke="black" points="2016.5,-408.5 2016.5,-427.5 2175.5,-427.5 2175.5,-408.5 2016.5,-408.5"/>
<text text-anchor="middle" x="2096" y="-415.5" font-family="Helvetica,sans-Serif" font-size="10.00">TPCReconstruction/TrackTPC.h</text>
</a>
</g>
</g>
<!-- Node1&#45;&gt;Node2 -->
<g id="edge1" class="edge"><title>Node1&#45;&gt;Node2</title>
<path fill="none" stroke="midnightblue" d="M2257.69,-467.438C2216.66,-455.147 2167.63,-440.459 2134.4,-430.505"/>
<polygon fill="midnightblue" stroke="midnightblue" points="2135.21,-427.092 2124.62,-427.575 2133.2,-433.798 2135.21,-427.092"/>
</g>
<!-- Node43 -->
<g id="node43" class="node"><title>Node43</title>
<g id="a_node43"><a xlink:href="../../db/dad/ParameterDetector_8h.html" target="_top" xlink:title="Definition of the parameter class for the detector. ">
<polygon fill="none" stroke="black" points="2420.5,-346.5 2420.5,-365.5 2573.5,-365.5 2573.5,-346.5 2420.5,-346.5"/>
<text text-anchor="middle" x="2497" y="-353.5" font-family="Helvetica,sans-Serif" font-size="10.00">TPCBase/ParameterDetector.h</text>
</a>
</g>
</g>
<!-- Node1&#45;&gt;Node43 -->
<g id="edge63" class="edge"><title>Node1&#45;&gt;Node43</title>
<path fill="none" stroke="midnightblue" d="M2408.09,-472.835C2433.83,-463.498 2460.72,-449.324 2479,-428 2491.52,-413.395 2495.53,-391.258 2496.71,-375.59"/>
<polygon fill="midnightblue" stroke="midnightblue" points="2500.21,-375.67 2497.16,-365.526 2493.22,-375.361 2500.21,-375.67"/>
</g>
<!-- Node44 -->
<g id="node44" class="node"><title>Node44</title>
<g id="a_node44"><a xlink:href="../../db/d5b/ParameterGas_8h.html" target="_top" xlink:title="Definition of the parameter class for the detector gas. ">
<polygon fill="none" stroke="black" points="2228,-346.5 2228,-365.5 2362,-365.5 2362,-346.5 2228,-346.5"/>
<text text-anchor="middle" x="2295" y="-353.5" font-family="Helvetica,sans-Serif" font-size="10.00">TPCBase/ParameterGas.h</text>
</a>
</g>
</g>
<!-- Node1&#45;&gt;Node44 -->
<g id="edge65" class="edge"><title>Node1&#45;&gt;Node44</title>
<path fill="none" stroke="midnightblue" d="M2314.5,-464.758C2307.66,-453.985 2300.68,-440.93 2297,-428 2292.1,-410.78 2292.12,-390.255 2293.05,-375.713"/>
<polygon fill="midnightblue" stroke="midnightblue" points="2296.55,-375.771 2293.91,-365.511 2289.58,-375.179 2296.55,-375.771"/>
</g>
<!-- Node45 -->
<g id="node45" class="node"><title>Node45</title>
<g id="a_node45"><a xlink:href="../../d3/d47/ParameterElectronics_8h.html" target="_top" xlink:title="Definition of the parameter class for the detector electronics. ">
<polygon fill="none" stroke="black" points="2306,-408.5 2306,-427.5 2470,-427.5 2470,-408.5 2306,-408.5"/>
<text text-anchor="middle" x="2388" y="-415.5" font-family="Helvetica,sans-Serif" font-size="10.00">TPCBase/ParameterElectronics.h</text>
</a>
</g>
</g>
<!-- Node1&#45;&gt;Node45 -->
<g id="edge67" class="edge"><title>Node1&#45;&gt;Node45</title>
<path fill="none" stroke="midnightblue" d="M2352.55,-464.768C2359.97,-455.183 2368.24,-444.506 2374.93,-435.877"/>
<polygon fill="midnightblue" stroke="midnightblue" points="2377.86,-437.806 2381.22,-427.757 2372.33,-433.519 2377.86,-437.806"/>
</g>
<!-- Node3 -->
<g id="node3" class="node"><title>Node3</title>
<g id="a_node3"><a xlink:href="../../d7/d8b/DataFormats_2Reconstruction_2include_2ReconstructionDataFormats_2Track_8h.html" target="_top" xlink:title="ReconstructionDataFormats\l/Track.h">
<polygon fill="none" stroke="black" points="1717,-341 1717,-371 1857,-371 1857,-341 1717,-341"/>
<text text-anchor="start" x="1725" y="-359" font-family="Helvetica,sans-Serif" font-size="10.00">ReconstructionDataFormats</text>
<text text-anchor="middle" x="1787" y="-348" font-family="Helvetica,sans-Serif" font-size="10.00">/Track.h</text>
</a>
</g>
</g>
<!-- Node2&#45;&gt;Node3 -->
<g id="edge2" class="edge"><title>Node2&#45;&gt;Node3</title>
<path fill="none" stroke="midnightblue" d="M2052.06,-408.467C2004.02,-399.139 1926.03,-383.996 1867.06,-372.545"/>
<polygon fill="midnightblue" stroke="midnightblue" points="1867.51,-369.067 1857.02,-370.597 1866.17,-375.939 1867.51,-369.067"/>
</g>
<!-- Node37 -->
<g id="node37" class="node"><title>Node37</title>
<g id="a_node37"><a xlink:href="../../de/dcd/ClusterNative_8h.html" target="_top" xlink:title="Class of a TPC cluster in TPC&#45;native coordinates (row, time) ">
<polygon fill="none" stroke="black" points="1400.5,-210.5 1400.5,-229.5 1565.5,-229.5 1565.5,-210.5 1400.5,-210.5"/>
<text text-anchor="middle" x="1483" y="-217.5" font-family="Helvetica,sans-Serif" font-size="10.00">DataFormatsTPC/ClusterNative.h</text>
</a>
</g>
</g>
<!-- Node2&#45;&gt;Node37 -->
<g id="edge50" class="edge"><title>Node2&#45;&gt;Node37</title>
<path fill="none" stroke="midnightblue" d="M2098.14,-408.18C2103.73,-382.717 2115.79,-308.578 2077,-272 2036.31,-233.635 1630.54,-242.506 1575,-236 1563.69,-234.675 1551.64,-232.945 1540.12,-231.132"/>
<polygon fill="midnightblue" stroke="midnightblue" points="1540.59,-227.663 1530.16,-229.526 1539.48,-234.574 1540.59,-227.663"/>
</g>
<!-- Node39 -->
<g id="node39" class="node"><title>Node39</title>
<g id="a_node39"><a xlink:href="../../d1/d73/Defs_8h.html" target="_top" xlink:title="Common definitions for 2D coordinates. ">
<polygon fill="none" stroke="black" points="265,-210.5 265,-229.5 357,-229.5 357,-210.5 265,-210.5"/>
<text text-anchor="middle" x="311" y="-217.5" font-family="Helvetica,sans-Serif" font-size="10.00">TPCBase/Defs.h</text>
</a>
</g>
</g>
<!-- Node2&#45;&gt;Node39 -->
<g id="edge54" class="edge"><title>Node2&#45;&gt;Node39</title>
<path fill="none" stroke="midnightblue" d="M2016.49,-415.745C1696.91,-410.17 516.148,-384.267 371,-304 345.03,-289.638 327.419,-258.723 318.307,-238.943"/>
<polygon fill="midnightblue" stroke="midnightblue" points="321.512,-237.538 314.317,-229.762 315.092,-240.328 321.512,-237.538"/>
</g>
<!-- Node40 -->
<g id="node40" class="node"><title>Node40</title>
<g id="a_node40"><a xlink:href="../../d6/d6f/TPC_2reconstruction_2include_2TPCReconstruction_2Cluster_8h.html" target="_top" xlink:title="TPCReconstruction/Cluster.h">
<polygon fill="none" stroke="black" points="2108,-210.5 2108,-229.5 2254,-229.5 2254,-210.5 2108,-210.5"/>
<text text-anchor="middle" x="2181" y="-217.5" font-family="Helvetica,sans-Serif" font-size="10.00">TPCReconstruction/Cluster.h</text>
</a>
</g>
</g>
<!-- Node2&#45;&gt;Node40 -->
<g id="edge58" class="edge"><title>Node2&#45;&gt;Node40</title>
<path fill="none" stroke="midnightblue" d="M2099.76,-408.325C2112.71,-378.474 2155.59,-279.594 2173.27,-238.818"/>
<polygon fill="midnightblue" stroke="midnightblue" points="2176.51,-240.142 2177.28,-229.575 2170.09,-237.356 2176.51,-240.142"/>
</g>
<!-- Node4 -->
<g id="node4" class="node"><title>Node4</title>
<polygon fill="none" stroke="#bfbfbf" points="1955,-74.5 1955,-93.5 2011,-93.5 2011,-74.5 1955,-74.5"/>
<text text-anchor="middle" x="1983" y="-81.5" font-family="Helvetica,sans-Serif" font-size="10.00">Rtypes.h</text>
</g>
<!-- Node3&#45;&gt;Node4 -->
<g id="edge3" class="edge"><title>Node3&#45;&gt;Node4</title>
<path fill="none" stroke="midnightblue" d="M1797.26,-340.864C1830.41,-295.197 1934.57,-151.716 1970.59,-102.09"/>
<polygon fill="midnightblue" stroke="midnightblue" points="1973.63,-103.864 1976.67,-93.7155 1967.97,-99.752 1973.63,-103.864"/>
</g>
<!-- Node5 -->
<g id="node5" class="node"><title>Node5</title>
<polygon fill="none" stroke="#bfbfbf" points="1888,-278.5 1888,-297.5 1944,-297.5 1944,-278.5 1888,-278.5"/>
<text text-anchor="middle" x="1916" y="-285.5" font-family="Helvetica,sans-Serif" font-size="10.00">algorithm</text>
</g>
<!-- Node3&#45;&gt;Node5 -->
<g id="edge4" class="edge"><title>Node3&#45;&gt;Node5</title>
<path fill="none" stroke="midnightblue" d="M1814.67,-340.841C1836.99,-329.425 1868.14,-313.485 1890,-302.303"/>
<polygon fill="midnightblue" stroke="midnightblue" points="1891.72,-305.353 1899.03,-297.682 1888.53,-299.121 1891.72,-305.353"/>
</g>
<!-- Node6 -->
<g id="node6" class="node"><title>Node6</title>
<polygon fill="none" stroke="#bfbfbf" points="2295,-6.5 2295,-25.5 2333,-25.5 2333,-6.5 2295,-6.5"/>
<text text-anchor="middle" x="2314" y="-13.5" font-family="Helvetica,sans-Serif" font-size="10.00">array</text>
</g>
<!-- Node3&#45;&gt;Node6 -->
<g id="edge5" class="edge"><title>Node3&#45;&gt;Node6</title>
<path fill="none" stroke="midnightblue" d="M1857.01,-345.851C1974.46,-329.175 2204.16,-290.463 2263,-236 2320.47,-182.803 2319.19,-78.4988 2315.94,-35.8511"/>
<polygon fill="midnightblue" stroke="midnightblue" points="2319.42,-35.4125 2315.04,-25.7625 2312.44,-36.0336 2319.42,-35.4125"/>
</g>
<!-- Node7 -->
<g id="node7" class="node"><title>Node7</title>
<polygon fill="none" stroke="#bfbfbf" points="1962.5,-278.5 1962.5,-297.5 2003.5,-297.5 2003.5,-278.5 1962.5,-278.5"/>
<text text-anchor="middle" x="1983" y="-285.5" font-family="Helvetica,sans-Serif" font-size="10.00">cfloat</text>
</g>
<!-- Node3&#45;&gt;Node7 -->
<g id="edge6" class="edge"><title>Node3&#45;&gt;Node7</title>
<path fill="none" stroke="midnightblue" d="M1839.72,-340.904C1872.46,-331.61 1915.18,-318.504 1952,-304 1953.64,-303.352 1955.32,-302.654 1957,-301.926"/>
<polygon fill="midnightblue" stroke="midnightblue" points="1958.85,-304.927 1966.47,-297.566 1955.93,-298.569 1958.85,-304.927"/>
</g>
<!-- Node8 -->
<g id="node8" class="node"><title>Node8</title>
<polygon fill="none" stroke="#bfbfbf" points="363,-6.5 363,-25.5 407,-25.5 407,-6.5 363,-6.5"/>
<text text-anchor="middle" x="385" y="-13.5" font-family="Helvetica,sans-Serif" font-size="10.00">cmath</text>
</g>
<!-- Node3&#45;&gt;Node8 -->
<g id="edge7" class="edge"><title>Node3&#45;&gt;Node8</title>
<path fill="none" stroke="midnightblue" d="M1716.62,-354.734C1463.32,-353.434 607.078,-345.949 492,-304 435.454,-283.388 385,-281.186 385,-221 385,-221 385,-221 385,-151 385,-110.046 385,-62.0525 385,-36.0664"/>
<polygon fill="midnightblue" stroke="midnightblue" points="388.5,-35.7797 385,-25.7798 381.5,-35.7798 388.5,-35.7797"/>
</g>
<!-- Node9 -->
<g id="node9" class="node"><title>Node9</title>
<polygon fill="none" stroke="#bfbfbf" points="2022,-278.5 2022,-297.5 2068,-297.5 2068,-278.5 2022,-278.5"/>
<text text-anchor="middle" x="2045" y="-285.5" font-family="Helvetica,sans-Serif" font-size="10.00">cstring</text>
</g>
<!-- Node3&#45;&gt;Node9 -->
<g id="edge8" class="edge"><title>Node3&#45;&gt;Node9</title>
<path fill="none" stroke="midnightblue" d="M1857.19,-342.912C1902.09,-334.247 1961.23,-321.094 2012,-304 2014.13,-303.282 2016.31,-302.472 2018.49,-301.61"/>
<polygon fill="midnightblue" stroke="midnightblue" points="2019.99,-304.775 2027.8,-297.618 2017.23,-298.341 2019.99,-304.775"/>
</g>
<!-- Node10 -->
<g id="node10" class="node"><title>Node10</title>
<polygon fill="none" stroke="#bfbfbf" points="1427,-74.5 1427,-93.5 1481,-93.5 1481,-74.5 1427,-74.5"/>
<text text-anchor="middle" x="1454" y="-81.5" font-family="Helvetica,sans-Serif" font-size="10.00">iostream</text>
</g>
<!-- Node3&#45;&gt;Node10 -->
<g id="edge9" class="edge"><title>Node3&#45;&gt;Node10</title>
<path fill="none" stroke="midnightblue" d="M1717,-355.756C1581.87,-356.11 1290.75,-351.167 1204,-304 1170.34,-285.697 1163.45,-272.237 1151,-236 1135.79,-191.739 1146.34,-163.793 1184,-136 1268.66,-73.5146 1316.69,-128.444 1418,-100 1420.81,-99.2107 1423.7,-98.2617 1426.55,-97.2291"/>
<polygon fill="midnightblue" stroke="midnightblue" points="1427.97,-100.432 1435.99,-93.5075 1425.4,-93.9198 1427.97,-100.432"/>
</g>
<!-- Node11 -->
<g id="node11" class="node"><title>Node11</title>
<polygon fill="none" stroke="#bfbfbf" points="1607.5,-278.5 1607.5,-297.5 1690.5,-297.5 1690.5,-278.5 1607.5,-278.5"/>
<text text-anchor="middle" x="1649" y="-285.5" font-family="Helvetica,sans-Serif" font-size="10.00">Math/SMatrix.h</text>
</g>
<!-- Node3&#45;&gt;Node11 -->
<g id="edge10" class="edge"><title>Node3&#45;&gt;Node11</title>
<path fill="none" stroke="midnightblue" d="M1757.4,-340.841C1733.31,-329.323 1699.6,-313.199 1676.19,-302.004"/>
<polygon fill="midnightblue" stroke="midnightblue" points="1677.68,-298.839 1667.15,-297.682 1674.66,-305.154 1677.68,-298.839"/>
</g>
<!-- Node12 -->
<g id="node12" class="node"><title>Node12</title>
<polygon fill="none" stroke="#bfbfbf" points="1708.5,-278.5 1708.5,-297.5 1793.5,-297.5 1793.5,-278.5 1708.5,-278.5"/>
<text text-anchor="middle" x="1751" y="-285.5" font-family="Helvetica,sans-Serif" font-size="10.00">Math/SVector.h</text>
</g>
<!-- Node3&#45;&gt;Node12 -->
<g id="edge11" class="edge"><title>Node3&#45;&gt;Node12</title>
<path fill="none" stroke="midnightblue" d="M1779.19,-340.679C1773.74,-330.694 1766.44,-317.307 1760.63,-306.66"/>
<polygon fill="midnightblue" stroke="midnightblue" points="1763.68,-304.931 1755.82,-297.828 1757.53,-308.283 1763.68,-304.931"/>
</g>
<!-- Node13 -->
<g id="node13" class="node"><title>Node13</title>
<g id="a_node13"><a xlink:href="../../d6/d84/MathConstants_8h.html" target="_top" xlink:title="useful math constants ">
<polygon fill="none" stroke="black" points="1076.5,-6.5 1076.5,-25.5 1255.5,-25.5 1255.5,-6.5 1076.5,-6.5"/>
<text text-anchor="middle" x="1166" y="-13.5" font-family="Helvetica,sans-Serif" font-size="10.00">CommonConstants/MathConstants.h</text>
</a>
</g>
</g>
<!-- Node3&#45;&gt;Node13 -->
<g id="edge12" class="edge"><title>Node3&#45;&gt;Node13</title>
<path fill="none" stroke="midnightblue" d="M1716.54,-355.547C1437.23,-356.802 423,-352.316 423,-221 423,-221 423,-221 423,-151 423,-113.157 413.253,-92.6112 442,-68 488.319,-28.3448 878.504,-19.5002 1066.07,-17.5447"/>
<polygon fill="midnightblue" stroke="midnightblue" points="1066.25,-21.0432 1076.22,-17.4436 1066.18,-14.0435 1066.25,-21.0432"/>
</g>
<!-- Node14 -->
<g id="node14" class="node"><title>Node14</title>
<g id="a_node14"><a xlink:href="../../dd/d76/Cartesian3D_8h.html" target="_top" xlink:title="MathUtils/Cartesian3D.h">
<polygon fill="none" stroke="black" points="949.5,-142.5 949.5,-161.5 1074.5,-161.5 1074.5,-142.5 949.5,-142.5"/>
<text text-anchor="middle" x="1012" y="-149.5" font-family="Helvetica,sans-Serif" font-size="10.00">MathUtils/Cartesian3D.h</text>
</a>
</g>
</g>
<!-- Node3&#45;&gt;Node14 -->
<g id="edge13" class="edge"><title>Node3&#45;&gt;Node14</title>
<path fill="none" stroke="midnightblue" d="M1716.86,-353.746C1550.18,-350.221 1140.44,-338.148 1089,-304 1042.51,-273.134 1022.64,-205.135 1015.47,-171.956"/>
<polygon fill="midnightblue" stroke="midnightblue" points="1018.83,-170.911 1013.44,-161.791 1011.96,-172.283 1018.83,-170.911"/>
</g>
<!-- Node24 -->
<g id="node24" class="node"><title>Node24</title>
<g id="a_node24"><a xlink:href="../../d9/ded/Utils_8h.html" target="_top" xlink:title="General auxilliary methods. ">
<polygon fill="none" stroke="black" points="1771,-74.5 1771,-93.5 1861,-93.5 1861,-74.5 1771,-74.5"/>
<text text-anchor="middle" x="1816" y="-81.5" font-family="Helvetica,sans-Serif" font-size="10.00">MathUtils/Utils.h</text>
</a>
</g>
</g>
<!-- Node3&#45;&gt;Node24 -->
<g id="edge25" class="edge"><title>Node3&#45;&gt;Node24</title>
<path fill="none" stroke="midnightblue" d="M1792.06,-340.913C1795.48,-330.783 1799.75,-316.724 1802,-304 1814.92,-230.901 1816.28,-142.211 1816.2,-104.008"/>
<polygon fill="midnightblue" stroke="midnightblue" points="1819.7,-103.824 1816.13,-93.8459 1812.7,-103.867 1819.7,-103.824"/>
</g>
<!-- Node25 -->
<g id="node25" class="node"><title>Node25</title>
<g id="a_node25"><a xlink:href="../../d4/de2/BaseCluster_8h.html" target="_top" xlink:title="ReconstructionDataFormats\l/BaseCluster.h">
<polygon fill="none" stroke="black" points="1213,-273 1213,-303 1353,-303 1353,-273 1213,-273"/>
<text text-anchor="start" x="1221" y="-291" font-family="Helvetica,sans-Serif" font-size="10.00">ReconstructionDataFormats</text>
<text text-anchor="middle" x="1283" y="-280" font-family="Helvetica,sans-Serif" font-size="10.00">/BaseCluster.h</text>
</a>
</g>
</g>
<!-- Node3&#45;&gt;Node25 -->
<g id="edge29" class="edge"><title>Node3&#45;&gt;Node25</title>
<path fill="none" stroke="midnightblue" d="M1716.92,-345.823C1624.18,-333.679 1461.06,-312.318 1363.41,-299.53"/>
<polygon fill="midnightblue" stroke="midnightblue" points="1363.66,-296.033 1353.29,-298.205 1362.76,-302.974 1363.66,-296.033"/>
</g>
<!-- Node14&#45;&gt;Node4 -->
<g id="edge19" class="edge"><title>Node14&#45;&gt;Node4</title>
<path fill="none" stroke="midnightblue" d="M1074.58,-147.873C1245.09,-139.257 1715.43,-114.834 1870,-100 1894.89,-97.6118 1922.73,-93.9279 1944.55,-90.8087"/>
<polygon fill="midnightblue" stroke="midnightblue" points="1945.34,-94.2301 1954.74,-89.3309 1944.34,-87.3026 1945.34,-94.2301"/>
</g>
<!-- Node14&#45;&gt;Node10 -->
<g id="edge21" class="edge"><title>Node14&#45;&gt;Node10</title>
<path fill="none" stroke="midnightblue" d="M1052.65,-142.423C1064.35,-140.134 1077.15,-137.799 1089,-136 1234.43,-113.918 1275.55,-136.661 1418,-100 1420.99,-99.2316 1424.05,-98.2621 1427.07,-97.1873"/>
<polygon fill="midnightblue" stroke="midnightblue" points="1428.38,-100.432 1436.4,-93.5123 1425.81,-93.9182 1428.38,-100.432"/>
</g>
<!-- Node15 -->
<g id="node15" class="node"><title>Node15</title>
<polygon fill="none" stroke="#bfbfbf" points="897.5,-69 897.5,-99 1048.5,-99 1048.5,-69 897.5,-69"/>
<text text-anchor="start" x="905.5" y="-87" font-family="Helvetica,sans-Serif" font-size="10.00">Math/GenVector/Displacement</text>
<text text-anchor="middle" x="973" y="-76" font-family="Helvetica,sans-Serif" font-size="10.00">Vector3D.h</text>
</g>
<!-- Node14&#45;&gt;Node15 -->
<g id="edge14" class="edge"><title>Node14&#45;&gt;Node15</title>
<path fill="none" stroke="midnightblue" d="M1006.9,-142.372C1001.74,-133.629 993.522,-119.729 986.473,-107.801"/>
<polygon fill="midnightblue" stroke="midnightblue" points="989.481,-106.01 981.38,-99.1815 983.454,-109.571 989.481,-106.01"/>
</g>
<!-- Node16 -->
<g id="node16" class="node"><title>Node16</title>
<polygon fill="none" stroke="#bfbfbf" points="1067,-74.5 1067,-93.5 1243,-93.5 1243,-74.5 1067,-74.5"/>
<text text-anchor="middle" x="1155" y="-81.5" font-family="Helvetica,sans-Serif" font-size="10.00">Math/GenVector/PositionVector3D.h</text>
</g>
<!-- Node14&#45;&gt;Node16 -->
<g id="edge15" class="edge"><title>Node14&#45;&gt;Node16</title>
<path fill="none" stroke="midnightblue" d="M1030.69,-142.372C1055.21,-131.057 1098.44,-111.105 1126.9,-97.9678"/>
<polygon fill="midnightblue" stroke="midnightblue" points="1128.69,-100.999 1136.3,-93.6305 1125.75,-94.6432 1128.69,-100.999"/>
</g>
<!-- Node17 -->
<g id="node17" class="node"><title>Node17</title>
<polygon fill="none" stroke="#bfbfbf" points="1260.5,-74.5 1260.5,-93.5 1409.5,-93.5 1409.5,-74.5 1260.5,-74.5"/>
<text text-anchor="middle" x="1335" y="-81.5" font-family="Helvetica,sans-Serif" font-size="10.00">Math/GenVector/Rotation3D.h</text>
</g>
<!-- Node14&#45;&gt;Node17 -->
<g id="edge16" class="edge"><title>Node14&#45;&gt;Node17</title>
<path fill="none" stroke="midnightblue" d="M1053.9,-142.439C1112.71,-130.421 1219.68,-108.565 1283.35,-95.5547"/>
<polygon fill="midnightblue" stroke="midnightblue" points="1284.08,-98.9767 1293.18,-93.5455 1282.68,-92.1184 1284.08,-98.9767"/>
</g>
<!-- Node18 -->
<g id="node18" class="node"><title>Node18</title>
<polygon fill="none" stroke="#bfbfbf" points="451,-74.5 451,-93.5 607,-93.5 607,-74.5 451,-74.5"/>
<text text-anchor="middle" x="529" y="-81.5" font-family="Helvetica,sans-Serif" font-size="10.00">Math/GenVector/Transform3D.h</text>
</g>
<!-- Node14&#45;&gt;Node18 -->
<g id="edge17" class="edge"><title>Node14&#45;&gt;Node18</title>
<path fill="none" stroke="midnightblue" d="M949.471,-143.783C871.328,-134.571 733.556,-117.696 616,-100 606.439,-98.5607 596.306,-96.9199 586.465,-95.2642"/>
<polygon fill="midnightblue" stroke="midnightblue" points="586.797,-91.7704 576.351,-93.5413 585.621,-98.671 586.797,-91.7704"/>
</g>
<!-- Node19 -->
<g id="node19" class="node"><title>Node19</title>
<polygon fill="none" stroke="#bfbfbf" points="625,-74.5 625,-93.5 785,-93.5 785,-74.5 625,-74.5"/>
<text text-anchor="middle" x="705" y="-81.5" font-family="Helvetica,sans-Serif" font-size="10.00">Math/GenVector/Translation3D.h</text>
</g>
<!-- Node14&#45;&gt;Node19 -->
<g id="edge18" class="edge"><title>Node14&#45;&gt;Node19</title>
<path fill="none" stroke="midnightblue" d="M972.18,-142.439C916.508,-130.471 815.447,-108.744 754.845,-95.7158"/>
<polygon fill="midnightblue" stroke="midnightblue" points="755.262,-92.2256 744.75,-93.5455 753.791,-99.0692 755.262,-92.2256"/>
</g>
<!-- Node20 -->
<g id="node20" class="node"><title>Node20</title>
<polygon fill="none" stroke="#bfbfbf" points="803,-74.5 803,-93.5 879,-93.5 879,-74.5 803,-74.5"/>
<text text-anchor="middle" x="841" y="-81.5" font-family="Helvetica,sans-Serif" font-size="10.00">TGeoMatrix.h</text>
</g>
<!-- Node14&#45;&gt;Node20 -->
<g id="edge20" class="edge"><title>Node14&#45;&gt;Node20</title>
<path fill="none" stroke="midnightblue" d="M989.645,-142.372C959.735,-130.827 906.531,-110.293 872.55,-97.1772"/>
<polygon fill="midnightblue" stroke="midnightblue" points="873.679,-93.8615 863.09,-93.5259 871.159,-100.392 873.679,-93.8615"/>
</g>
<!-- Node21 -->
<g id="node21" class="node"><title>Node21</title>
<g id="a_node21"><a xlink:href="../../d2/dd0/Cartesian2D_8h.html" target="_top" xlink:title="MathUtils/Cartesian2D.h">
<polygon fill="none" stroke="black" points="193.5,-74.5 193.5,-93.5 318.5,-93.5 318.5,-74.5 193.5,-74.5"/>
<text text-anchor="middle" x="256" y="-81.5" font-family="Helvetica,sans-Serif" font-size="10.00">MathUtils/Cartesian2D.h</text>
</a>
</g>
</g>
<!-- Node14&#45;&gt;Node21 -->
<g id="edge22" class="edge"><title>Node14&#45;&gt;Node21</title>
<path fill="none" stroke="midnightblue" d="M949.49,-145.543C810.61,-133.418 476.992,-104.293 328.918,-91.3659"/>
<polygon fill="midnightblue" stroke="midnightblue" points="328.849,-87.8466 318.583,-90.4636 328.241,-94.8201 328.849,-87.8466"/>
</g>
<!-- Node22 -->
<g id="node22" class="node"><title>Node22</title>
<polygon fill="none" stroke="#bfbfbf" points="-0.5,-1 -0.5,-31 150.5,-31 150.5,-1 -0.5,-1"/>
<text text-anchor="start" x="7.5" y="-19" font-family="Helvetica,sans-Serif" font-size="10.00">Math/GenVector/Displacement</text>
<text text-anchor="middle" x="75" y="-8" font-family="Helvetica,sans-Serif" font-size="10.00">Vector2D.h</text>
</g>
<!-- Node21&#45;&gt;Node22 -->
<g id="edge23" class="edge"><title>Node21&#45;&gt;Node22</title>
<path fill="none" stroke="midnightblue" d="M232.337,-74.3717C204.747,-64.3109 158.43,-47.4219 123.174,-34.5662"/>
<polygon fill="midnightblue" stroke="midnightblue" points="124.142,-31.1938 113.548,-31.0562 121.744,-37.7703 124.142,-31.1938"/>
</g>
<!-- Node23 -->
<g id="node23" class="node"><title>Node23</title>
<polygon fill="none" stroke="#bfbfbf" points="169,-6.5 169,-25.5 345,-25.5 345,-6.5 169,-6.5"/>
<text text-anchor="middle" x="257" y="-13.5" font-family="Helvetica,sans-Serif" font-size="10.00">Math/GenVector/PositionVector2D.h</text>
</g>
<!-- Node21&#45;&gt;Node23 -->
<g id="edge24" class="edge"><title>Node21&#45;&gt;Node23</title>
<path fill="none" stroke="midnightblue" d="M256.131,-74.3717C256.278,-64.6426 256.522,-48.528 256.714,-35.8504"/>
<polygon fill="midnightblue" stroke="midnightblue" points="260.214,-35.893 256.866,-25.8411 253.215,-35.7869 260.214,-35.893"/>
</g>
<!-- Node24&#45;&gt;Node6 -->
<g id="edge26" class="edge"><title>Node24&#45;&gt;Node6</title>
<path fill="none" stroke="midnightblue" d="M1846.45,-74.4336C1855.58,-72.0904 1865.65,-69.7245 1875,-68 2027.87,-39.8168 2213.73,-24.2998 2284.62,-19.0526"/>
<polygon fill="midnightblue" stroke="midnightblue" points="2284.89,-22.5424 2294.61,-18.3254 2284.38,-15.5609 2284.89,-22.5424"/>
</g>
<!-- Node24&#45;&gt;Node8 -->
<g id="edge27" class="edge"><title>Node24&#45;&gt;Node8</title>
<path fill="none" stroke="midnightblue" d="M1789.41,-74.4282C1780.47,-71.9036 1770.39,-69.4354 1761,-68 1624.38,-47.1216 611.758,-22.347 417.259,-17.7523"/>
<polygon fill="midnightblue" stroke="midnightblue" points="417.196,-14.2499 407.116,-17.5135 417.031,-21.248 417.196,-14.2499"/>
</g>
<!-- Node24&#45;&gt;Node13 -->
<g id="edge28" class="edge"><title>Node24&#45;&gt;Node13</title>
<path fill="none" stroke="midnightblue" d="M1788.52,-74.4593C1779.8,-72.0305 1770.06,-69.6105 1761,-68 1588.54,-37.351 1384.56,-24.9433 1265.78,-20.0489"/>
<polygon fill="midnightblue" stroke="midnightblue" points="1265.75,-16.5449 1255.62,-19.6399 1265.47,-23.5392 1265.75,-16.5449"/>
</g>
<!-- Node25&#45;&gt;Node10 -->
<g id="edge34" class="edge"><title>Node25&#45;&gt;Node10</title>
<path fill="none" stroke="midnightblue" d="M1212.72,-273.527C1192.28,-265.994 1172.2,-254.262 1160,-236 1152.1,-224.173 1153.03,-216.394 1160,-204 1220.63,-96.2561 1300.58,-138.688 1418,-100 1420.42,-99.2028 1422.91,-98.3159 1425.39,-97.383"/>
<polygon fill="midnightblue" stroke="midnightblue" points="1426.78,-100.597 1434.78,-93.6483 1424.19,-94.0923 1426.78,-100.597"/>
</g>
<!-- Node25&#45;&gt;Node14 -->
<g id="edge49" class="edge"><title>Node25&#45;&gt;Node14</title>
<path fill="none" stroke="midnightblue" d="M1226.1,-272.978C1195.77,-264.385 1158.37,-251.955 1127,-236 1089.61,-216.979 1051.05,-186.511 1029.44,-168.259"/>
<polygon fill="midnightblue" stroke="midnightblue" points="1031.64,-165.539 1021.77,-161.691 1027.09,-170.855 1031.64,-165.539"/>
</g>
<!-- Node26 -->
<g id="node26" class="node"><title>Node26</title>
<polygon fill="none" stroke="#bfbfbf" points="1284.5,-210.5 1284.5,-229.5 1343.5,-229.5 1343.5,-210.5 1284.5,-210.5"/>
<text text-anchor="middle" x="1314" y="-217.5" font-family="Helvetica,sans-Serif" font-size="10.00">TObject.h</text>
</g>
<!-- Node25&#45;&gt;Node26 -->
<g id="edge30" class="edge"><title>Node25&#45;&gt;Node26</title>
<path fill="none" stroke="midnightblue" d="M1289.73,-272.679C1294.37,-262.796 1300.58,-249.579 1305.55,-238.986"/>
<polygon fill="midnightblue" stroke="midnightblue" points="1308.77,-240.368 1309.85,-229.828 1302.43,-237.392 1308.77,-240.368"/>
</g>
<!-- Node27 -->
<g id="node27" class="node"><title>Node27</title>
<polygon fill="none" stroke="#bfbfbf" points="1499.5,-74.5 1499.5,-93.5 1540.5,-93.5 1540.5,-74.5 1499.5,-74.5"/>
<text text-anchor="middle" x="1520" y="-81.5" font-family="Helvetica,sans-Serif" font-size="10.00">bitset</text>
</g>
<!-- Node25&#45;&gt;Node27 -->
<g id="edge31" class="edge"><title>Node25&#45;&gt;Node27</title>
<path fill="none" stroke="midnightblue" d="M1313.56,-272.836C1328.02,-264.367 1343.88,-252.093 1352,-236 1358.4,-223.302 1358.3,-216.753 1352,-204 1340.35,-180.406 1316.65,-191.594 1305,-168 1298.7,-155.247 1295.95,-146.975 1305,-136 1358.27,-71.3597 1410.7,-126.978 1490,-100 1491.86,-99.367 1493.75,-98.6402 1495.63,-97.8554"/>
<polygon fill="midnightblue" stroke="midnightblue" points="1497.18,-100.997 1504.78,-93.6126 1494.23,-94.6479 1497.18,-100.997"/>
</g>
<!-- Node28 -->
<g id="node28" class="node"><title>Node28</title>
<polygon fill="none" stroke="#bfbfbf" points="1169,-210.5 1169,-229.5 1219,-229.5 1219,-210.5 1169,-210.5"/>
<text text-anchor="middle" x="1194" y="-217.5" font-family="Helvetica,sans-Serif" font-size="10.00">iomanip</text>
</g>
<!-- Node25&#45;&gt;Node28 -->
<g id="edge32" class="edge"><title>Node25&#45;&gt;Node28</title>
<path fill="none" stroke="midnightblue" d="M1263.69,-272.679C1248.9,-261.713 1228.58,-246.645 1213.7,-235.609"/>
<polygon fill="midnightblue" stroke="midnightblue" points="1215.77,-232.783 1205.65,-229.638 1211.6,-238.406 1215.77,-232.783"/>
</g>
<!-- Node29 -->
<g id="node29" class="node"><title>Node29</title>
<polygon fill="none" stroke="#bfbfbf" points="1237.5,-210.5 1237.5,-229.5 1266.5,-229.5 1266.5,-210.5 1237.5,-210.5"/>
<text text-anchor="middle" x="1252" y="-217.5" font-family="Helvetica,sans-Serif" font-size="10.00">ios</text>
</g>
<!-- Node25&#45;&gt;Node29 -->
<g id="edge33" class="edge"><title>Node25&#45;&gt;Node29</title>
<path fill="none" stroke="midnightblue" d="M1276.27,-272.679C1271.63,-262.796 1265.42,-249.579 1260.45,-238.986"/>
<polygon fill="midnightblue" stroke="midnightblue" points="1263.57,-237.392 1256.15,-229.828 1257.23,-240.368 1263.57,-237.392"/>
</g>
<!-- Node30 -->
<g id="node30" class="node"><title>Node30</title>
<g id="a_node30"><a xlink:href="../../d4/d20/DetMatrixCache_8h.html" target="_top" xlink:title="DetectorsCommonDataFormats\l/DetMatrixCache.h">
<polygon fill="none" stroke="black" points="1584,-205 1584,-235 1740,-235 1740,-205 1584,-205"/>
<text text-anchor="start" x="1592" y="-223" font-family="Helvetica,sans-Serif" font-size="10.00">DetectorsCommonDataFormats</text>
<text text-anchor="middle" x="1662" y="-212" font-family="Helvetica,sans-Serif" font-size="10.00">/DetMatrixCache.h</text>
</a>
</g>
</g>
<!-- Node25&#45;&gt;Node30 -->
<g id="edge35" class="edge"><title>Node25&#45;&gt;Node30</title>
<path fill="none" stroke="midnightblue" d="M1353.4,-274.741C1415.6,-263.908 1506.6,-248.061 1573.68,-236.381"/>
<polygon fill="midnightblue" stroke="midnightblue" points="1574.56,-239.78 1583.81,-234.616 1573.36,-232.884 1574.56,-239.78"/>
</g>
<!-- Node30&#45;&gt;Node4 -->
<g id="edge48" class="edge"><title>Node30&#45;&gt;Node4</title>
<path fill="none" stroke="midnightblue" d="M1740.15,-208.183C1781.36,-200.531 1831.94,-187.978 1874,-168 1893.3,-158.831 1939.21,-121.642 1964.86,-100.285"/>
<polygon fill="midnightblue" stroke="midnightblue" points="1967.29,-102.814 1972.72,-93.7124 1962.8,-97.4449 1967.29,-102.814"/>
</g>
<!-- Node30&#45;&gt;Node6 -->
<g id="edge37" class="edge"><title>Node30&#45;&gt;Node6</title>
<path fill="none" stroke="midnightblue" d="M1709.52,-204.923C1737.42,-195.899 1772.99,-183.067 1803,-168 1852.02,-143.388 1861.65,-132.278 1906,-100 1924.41,-86.6032 1925.09,-76.9961 1946,-68 2006.99,-41.7647 2207.88,-24.7427 2284.21,-19.0826"/>
<polygon fill="midnightblue" stroke="midnightblue" points="2284.82,-22.5477 2294.54,-18.3302 2284.31,-15.5662 2284.82,-22.5477"/>
</g>
<!-- Node30&#45;&gt;Node14 -->
<g id="edge47" class="edge"><title>Node30&#45;&gt;Node14</title>
<path fill="none" stroke="midnightblue" d="M1583.84,-205.35C1580.52,-204.874 1577.23,-204.421 1574,-204 1398.95,-181.174 1191.9,-165.214 1084.62,-157.764"/>
<polygon fill="midnightblue" stroke="midnightblue" points="1084.77,-154.266 1074.55,-157.069 1084.28,-161.249 1084.77,-154.266"/>
</g>
<!-- Node31 -->
<g id="node31" class="node"><title>Node31</title>
<polygon fill="none" stroke="#bfbfbf" points="1548.5,-142.5 1548.5,-161.5 1619.5,-161.5 1619.5,-142.5 1548.5,-142.5"/>
<text text-anchor="middle" x="1584" y="-149.5" font-family="Helvetica,sans-Serif" font-size="10.00">FairLogger.h</text>
</g>
<!-- Node30&#45;&gt;Node31 -->
<g id="edge36" class="edge"><title>Node30&#45;&gt;Node31</title>
<path fill="none" stroke="midnightblue" d="M1645.08,-204.679C1632.43,-193.981 1615.17,-179.377 1602.23,-168.422"/>
<polygon fill="midnightblue" stroke="midnightblue" points="1604.33,-165.616 1594.43,-161.828 1599.81,-170.96 1604.33,-165.616"/>
</g>
<!-- Node32 -->
<g id="node32" class="node"><title>Node32</title>
<polygon fill="none" stroke="#bfbfbf" points="1486,-142.5 1486,-161.5 1530,-161.5 1530,-142.5 1486,-142.5"/>
<text text-anchor="middle" x="1508" y="-149.5" font-family="Helvetica,sans-Serif" font-size="10.00">vector</text>
</g>
<!-- Node30&#45;&gt;Node32 -->
<g id="edge38" class="edge"><title>Node30&#45;&gt;Node32</title>
<path fill="none" stroke="midnightblue" d="M1626.51,-204.916C1601.82,-194.962 1568.21,-181.11 1539,-168 1537.6,-167.373 1536.17,-166.721 1534.73,-166.055"/>
<polygon fill="midnightblue" stroke="midnightblue" points="1535.83,-162.703 1525.3,-161.587 1532.84,-169.029 1535.83,-162.703"/>
</g>
<!-- Node33 -->
<g id="node33" class="node"><title>Node33</title>
<g id="a_node33"><a xlink:href="../../d6/d31/DetID_8h.html" target="_top" xlink:title="DetectorsCommonDataFormats\l/DetID.h">
<polygon fill="none" stroke="black" points="1638,-137 1638,-167 1794,-167 1794,-137 1638,-137"/>
<text text-anchor="start" x="1646" y="-155" font-family="Helvetica,sans-Serif" font-size="10.00">DetectorsCommonDataFormats</text>
<text text-anchor="middle" x="1716" y="-144" font-family="Helvetica,sans-Serif" font-size="10.00">/DetID.h</text>
</a>
</g>
</g>
<!-- Node30&#45;&gt;Node33 -->
<g id="edge39" class="edge"><title>Node30&#45;&gt;Node33</title>
<path fill="none" stroke="midnightblue" d="M1673.72,-204.679C1680.79,-196.03 1689.96,-184.829 1697.95,-175.067"/>
<polygon fill="midnightblue" stroke="midnightblue" points="1700.68,-177.249 1704.31,-167.293 1695.26,-172.816 1700.68,-177.249"/>
</g>
<!-- Node33&#45;&gt;Node4 -->
<g id="edge40" class="edge"><title>Node33&#45;&gt;Node4</title>
<path fill="none" stroke="midnightblue" d="M1772.95,-136.922C1824.81,-124.103 1899.95,-105.529 1944.9,-94.4192"/>
<polygon fill="midnightblue" stroke="midnightblue" points="1945.95,-97.7627 1954.82,-91.9653 1944.27,-90.9673 1945.95,-97.7627"/>
</g>
<!-- Node33&#45;&gt;Node6 -->
<g id="edge41" class="edge"><title>Node33&#45;&gt;Node6</title>
<path fill="none" stroke="midnightblue" d="M1772.63,-136.955C1802.52,-128.388 1839.27,-115.99 1870,-100 1891.13,-89.0038 1890.9,-76.9056 1913,-68 1980.76,-40.6884 2203.55,-24.0673 2284.37,-18.8132"/>
<polygon fill="midnightblue" stroke="midnightblue" points="2285.05,-22.2773 2294.81,-18.1473 2284.6,-15.2915 2285.05,-22.2773"/>
</g>
<!-- Node33&#45;&gt;Node24 -->
<g id="edge46" class="edge"><title>Node33&#45;&gt;Node24</title>
<path fill="none" stroke="midnightblue" d="M1737.7,-136.679C1754.47,-125.611 1777.57,-110.363 1794.33,-99.3002"/>
<polygon fill="midnightblue" stroke="midnightblue" points="1796.49,-102.067 1802.91,-93.6379 1792.64,-96.2252 1796.49,-102.067"/>
</g>
<!-- Node33&#45;&gt;Node27 -->
<g id="edge42" class="edge"><title>Node33&#45;&gt;Node27</title>
<path fill="none" stroke="midnightblue" d="M1662.14,-136.897C1629.27,-127.692 1586.67,-114.681 1550,-100 1548.4,-99.3601 1546.77,-98.668 1545.14,-97.9442"/>
<polygon fill="midnightblue" stroke="midnightblue" points="1546.5,-94.7164 1535.97,-93.5962 1543.5,-101.042 1546.5,-94.7164"/>
</g>
<!-- Node34 -->
<g id="node34" class="node"><title>Node34</title>
<polygon fill="none" stroke="#bfbfbf" points="1623.5,-74.5 1623.5,-93.5 1672.5,-93.5 1672.5,-74.5 1623.5,-74.5"/>
<text text-anchor="middle" x="1648" y="-81.5" font-family="Helvetica,sans-Serif" font-size="10.00">cassert</text>
</g>
<!-- Node33&#45;&gt;Node34 -->
<g id="edge43" class="edge"><title>Node33&#45;&gt;Node34</title>
<path fill="none" stroke="midnightblue" d="M1701.25,-136.679C1690.43,-126.184 1675.75,-111.932 1664.54,-101.052"/>
<polygon fill="midnightblue" stroke="midnightblue" points="1666.71,-98.2815 1657.1,-93.8283 1661.83,-103.305 1666.71,-98.2815"/>
</g>
<!-- Node35 -->
<g id="node35" class="node"><title>Node35</title>
<polygon fill="none" stroke="#bfbfbf" points="1559,-74.5 1559,-93.5 1605,-93.5 1605,-74.5 1559,-74.5"/>
<text text-anchor="middle" x="1582" y="-81.5" font-family="Helvetica,sans-Serif" font-size="10.00">cstdint</text>
</g>
<!-- Node33&#45;&gt;Node35 -->
<g id="edge44" class="edge"><title>Node33&#45;&gt;Node35</title>
<path fill="none" stroke="midnightblue" d="M1687.25,-136.841C1663.97,-125.374 1631.42,-109.342 1608.7,-98.1532"/>
<polygon fill="midnightblue" stroke="midnightblue" points="1610.14,-94.9606 1599.63,-93.6819 1607.05,-101.24 1610.14,-94.9606"/>
</g>
<!-- Node36 -->
<g id="node36" class="node"><title>Node36</title>
<polygon fill="none" stroke="#bfbfbf" points="1691,-74.5 1691,-93.5 1753,-93.5 1753,-74.5 1691,-74.5"/>
<text text-anchor="middle" x="1722" y="-81.5" font-family="Helvetica,sans-Serif" font-size="10.00">type_traits</text>
</g>
<!-- Node33&#45;&gt;Node36 -->
<g id="edge45" class="edge"><title>Node33&#45;&gt;Node36</title>
<path fill="none" stroke="midnightblue" d="M1717.3,-136.679C1718.17,-127.101 1719.33,-114.394 1720.27,-103.977"/>
<polygon fill="midnightblue" stroke="midnightblue" points="1723.78,-104.104 1721.2,-93.8283 1716.81,-103.47 1723.78,-104.104"/>
</g>
<!-- Node37&#45;&gt;Node32 -->
<g id="edge52" class="edge"><title>Node37&#45;&gt;Node32</title>
<path fill="none" stroke="midnightblue" d="M1486.27,-210.372C1489.99,-200.544 1496.18,-184.202 1501,-171.467"/>
<polygon fill="midnightblue" stroke="midnightblue" points="1504.38,-172.433 1504.65,-161.841 1497.84,-169.953 1504.38,-172.433"/>
</g>
<!-- Node37&#45;&gt;Node35 -->
<g id="edge51" class="edge"><title>Node37&#45;&gt;Node35</title>
<path fill="none" stroke="midnightblue" d="M1479.3,-210.44C1473.02,-194.443 1462.28,-159.512 1477,-136 1479.24,-132.416 1523.21,-111.82 1553.53,-97.9227"/>
<polygon fill="midnightblue" stroke="midnightblue" points="1555.18,-101.015 1562.82,-93.6761 1552.27,-94.6483 1555.18,-101.015"/>
</g>
<!-- Node38 -->
<g id="node38" class="node"><title>Node38</title>
<g id="a_node38"><a xlink:href="../../d6/d51/TPC_2base_2include_2TPCBase_2Constants_8h.html" target="_top" xlink:title="TPCBase/Constants.h">
<polygon fill="none" stroke="black" points="1314,-142.5 1314,-161.5 1430,-161.5 1430,-142.5 1314,-142.5"/>
<text text-anchor="middle" x="1372" y="-149.5" font-family="Helvetica,sans-Serif" font-size="10.00">TPCBase/Constants.h</text>
</a>
</g>
</g>
<!-- Node37&#45;&gt;Node38 -->
<g id="edge53" class="edge"><title>Node37&#45;&gt;Node38</title>
<path fill="none" stroke="midnightblue" d="M1468.49,-210.372C1449.87,-199.304 1417.36,-179.972 1395.27,-166.838"/>
<polygon fill="midnightblue" stroke="midnightblue" points="1396.9,-163.733 1386.51,-161.63 1393.32,-169.75 1396.9,-163.733"/>
</g>
<!-- Node39&#45;&gt;Node8 -->
<g id="edge55" class="edge"><title>Node39&#45;&gt;Node8</title>
<path fill="none" stroke="midnightblue" d="M314.18,-210.32C325.326,-179.893 362.789,-77.6304 378.245,-35.4401"/>
<polygon fill="midnightblue" stroke="midnightblue" points="381.595,-36.4686 381.749,-25.8748 375.023,-34.0607 381.595,-36.4686"/>
</g>
<!-- Node39&#45;&gt;Node14 -->
<g id="edge57" class="edge"><title>Node39&#45;&gt;Node14</title>
<path fill="none" stroke="midnightblue" d="M357.266,-214.644C476.483,-203.42 794.894,-173.441 939.161,-159.858"/>
<polygon fill="midnightblue" stroke="midnightblue" points="939.614,-163.331 949.242,-158.909 938.958,-156.362 939.614,-163.331"/>
</g>
<!-- Node39&#45;&gt;Node21 -->
<g id="edge56" class="edge"><title>Node39&#45;&gt;Node21</title>
<path fill="none" stroke="midnightblue" d="M307.391,-210.208C298.494,-188.532 275.365,-132.181 263.405,-103.041"/>
<polygon fill="midnightblue" stroke="midnightblue" points="266.586,-101.572 259.55,-93.6503 260.11,-104.23 266.586,-101.572"/>
</g>
<!-- Node40&#45;&gt;Node4 -->
<g id="edge59" class="edge"><title>Node40&#45;&gt;Node4</title>
<path fill="none" stroke="midnightblue" d="M2179.44,-210.341C2175.97,-193.541 2166.01,-156.389 2143,-136 2108.84,-105.734 2056.63,-93.4124 2021.21,-88.4071"/>
<polygon fill="midnightblue" stroke="midnightblue" points="2021.62,-84.9301 2011.25,-87.1285 2020.72,-91.8731 2021.62,-84.9301"/>
</g>
<!-- Node41 -->
<g id="node41" class="node"><title>Node41</title>
<g id="a_node41"><a xlink:href="../../df/d5d/common_2include_2CommonDataFormat_2TimeStamp_8h.html" target="_top" xlink:title="CommonDataFormat/TimeStamp.h">
<polygon fill="none" stroke="black" points="1964,-142.5 1964,-161.5 2134,-161.5 2134,-142.5 1964,-142.5"/>
<text text-anchor="middle" x="2049" y="-149.5" font-family="Helvetica,sans-Serif" font-size="10.00">CommonDataFormat/TimeStamp.h</text>
</a>
</g>
</g>
<!-- Node40&#45;&gt;Node41 -->
<g id="edge60" class="edge"><title>Node40&#45;&gt;Node41</title>
<path fill="none" stroke="midnightblue" d="M2163.74,-210.372C2141.21,-199.106 2101.56,-179.279 2075.28,-166.14"/>
<polygon fill="midnightblue" stroke="midnightblue" points="2076.77,-162.972 2066.26,-161.63 2073.64,-169.233 2076.77,-162.972"/>
</g>
<!-- Node42 -->
<g id="node42" class="node"><title>Node42</title>
<polygon fill="none" stroke="#bfbfbf" points="2190.5,-137 2190.5,-167 2285.5,-167 2285.5,-137 2190.5,-137"/>
<text text-anchor="start" x="2198.5" y="-155" font-family="Helvetica,sans-Serif" font-size="10.00">boost/serialization</text>
<text text-anchor="middle" x="2238" y="-144" font-family="Helvetica,sans-Serif" font-size="10.00">/base_object.hpp</text>
</g>
<!-- Node40&#45;&gt;Node42 -->
<g id="edge62" class="edge"><title>Node40&#45;&gt;Node42</title>
<path fill="none" stroke="midnightblue" d="M2188.45,-210.372C2196.22,-201.371 2208.72,-186.907 2219.21,-174.753"/>
<polygon fill="midnightblue" stroke="midnightblue" points="2221.87,-177.037 2225.75,-167.181 2216.57,-172.462 2221.87,-177.037"/>
</g>
<!-- Node41&#45;&gt;Node4 -->
<g id="edge61" class="edge"><title>Node41&#45;&gt;Node4</title>
<path fill="none" stroke="midnightblue" d="M2040.37,-142.372C2029.95,-131.955 2012.22,-114.217 1999.22,-101.216"/>
<polygon fill="midnightblue" stroke="midnightblue" points="2001.39,-98.4373 1991.84,-93.8411 1996.44,-103.387 2001.39,-98.4373"/>
</g>
<!-- Node43&#45;&gt;Node6 -->
<g id="edge64" class="edge"><title>Node43&#45;&gt;Node6</title>
<path fill="none" stroke="midnightblue" d="M2493.23,-346.413C2484.38,-325.433 2463,-269.722 2463,-221 2463,-221 2463,-221 2463,-151 2463,-86.9318 2385.9,-45.6979 2342.62,-27.5999"/>
<polygon fill="midnightblue" stroke="midnightblue" points="2343.76,-24.2851 2333.17,-23.7919 2341.14,-30.7773 2343.76,-24.2851"/>
</g>
<!-- Node44&#45;&gt;Node6 -->
<g id="edge66" class="edge"><title>Node44&#45;&gt;Node6</title>
<path fill="none" stroke="midnightblue" d="M2301.54,-346.445C2316.51,-325.975 2352,-272.068 2352,-221 2352,-221 2352,-221 2352,-151 2352,-108.048 2333.71,-60.1895 2322.5,-34.9112"/>
<polygon fill="midnightblue" stroke="midnightblue" points="2325.56,-33.1743 2318.21,-25.5403 2319.19,-36.0895 2325.56,-33.1743"/>
</g>
<!-- Node45&#45;&gt;Node6 -->
<g id="edge68" class="edge"><title>Node45&#45;&gt;Node6</title>
<path fill="none" stroke="midnightblue" d="M2388.23,-408.309C2388.75,-387.635 2390,-333.894 2390,-289 2390,-289 2390,-289 2390,-151 2390,-103.151 2352.88,-56.7361 2330.53,-33.1198"/>
<polygon fill="midnightblue" stroke="midnightblue" points="2332.81,-30.4534 2323.32,-25.7523 2327.81,-35.3483 2332.81,-30.4534"/>
</g>
</g>
</svg>
        <g id="navigator" transform="translate(0 0)" fill="#404254">
                <rect fill="#f2f5e9" fill-opacity="0.5" stroke="#606060" stroke-width=".5" x="0" y="0" width="60" height="60"/>
                <use id="zoomplus" xlink:href="#zoomPlus" x="17" y="9" onmousedown="handleZoom(evt,'in')"/>
                <use id="zoomminus" xlink:href="#zoomMin" x="42" y="9" onmousedown="handleZoom(evt,'out')"/>
                <use id="reset" xlink:href="#resetDef" x="30" y="36" onmousedown="handleReset()"/>
                <g id="arrowUp" xlink:href="#dirArrow" transform="translate(30 24)" onmousedown="handlePan(0,-1)">
                  <use xlink:href="#rim" fill="#404040">
                        <set attributeName="fill" to="#808080" begin="arrowUp.mouseover" end="arrowUp.mouseout"/>
                  </use>
                  <path fill="none" stroke="white" stroke-width="1.5" d="M0,-3.0v7 M-2.5,-0.5L0,-3.0L2.5,-0.5"/>
                </g>
                <g id="arrowRight" xlink:href="#dirArrow" transform="rotate(90) translate(36 -43)" onmousedown="handlePan(1,0)">
                  <use xlink:href="#rim" fill="#404040">
                        <set attributeName="fill" to="#808080" begin="arrowRight.mouseover" end="arrowRight.mouseout"/>
                  </use>
                  <path fill="none" stroke="white" stroke-width="1.5" d="M0,-3.0v7 M-2.5,-0.5L0,-3.0L2.5,-0.5"/>
                </g>
                <g id="arrowDown" xlink:href="#dirArrow" transform="rotate(180) translate(-30 -48)" onmousedown="handlePan(0,1)">
                  <use xlink:href="#rim" fill="#404040">
                        <set attributeName="fill" to="#808080" begin="arrowDown.mouseover" end="arrowDown.mouseout"/>
                  </use>
                  <path fill="none" stroke="white" stroke-width="1.5" d="M0,-3.0v7 M-2.5,-0.5L0,-3.0L2.5,-0.5"/>
                </g>
                <g id="arrowLeft" xlink:href="#dirArrow" transform="rotate(270) translate(-36 17)" onmousedown="handlePan(-1,0)">
                  <use xlink:href="#rim" fill="#404040">
                        <set attributeName="fill" to="#808080" begin="arrowLeft.mouseover" end="arrowLeft.mouseout"/>
                  </use>
                  <path fill="none" stroke="white" stroke-width="1.5" d="M0,-3.0v7 M-2.5,-0.5L0,-3.0L2.5,-0.5"/>
                </g>
        </g>
        <svg viewBox="0 0 15 15" width="100%" height="30px" preserveAspectRatio="xMaxYMin meet">
         <g id="arrow_out" transform="scale(0.3 0.3)">
          <a xlink:href="TrackTPC_8cxx__incl_org.svg" target="_base">
           <rect id="button" ry="5" rx="5" y="6" x="6" height="38" width="38"
                fill="#f2f5e9" fill-opacity="0.5" stroke="#606060" stroke-width="1.0"/>
           <path id="arrow"
             d="M 11.500037,31.436501 C 11.940474,20.09759 22.043105,11.32322 32.158766,21.979434 L 37.068811,17.246167 C 37.068811,17.246167 37.088388,32 37.088388,32 L 22.160133,31.978069 C 22.160133,31.978069 26.997745,27.140456 26.997745,27.140456 C 18.528582,18.264221 13.291696,25.230495 11.500037,31.436501 z"
             style="fill:#404040;"/>
          </a>
         </g>
        </svg>
</svg>
