<?xml version="1.0" encoding="UTF-8" standalone="no"?>
<!DOCTYPE svg PUBLIC "-//W3C//DTD SVG 1.1//EN"
 "http://www.w3.org/Graphics/SVG/1.1/DTD/svg11.dtd">
<!-- Generated by graphviz version 2.36.0 (20140111.2315)
 -->
<!-- Title: o2::TPC::Digit Pages: 1 -->
<svg width="237pt" height="316pt"
 viewBox="0.00 0.00 237.00 316.00" xmlns="http://www.w3.org/2000/svg" xmlns:xlink="http://www.w3.org/1999/xlink">
<g id="graph0" class="graph" transform="scale(1 1) rotate(0) translate(4 312)">
<title>o2::TPC::Digit</title>
<!-- Node1 -->
<g id="node1" class="node"><title>Node1</title>
<polygon fill="#bfbfbf" stroke="black" points="81,-0.5 81,-145.5 179,-145.5 179,-0.5 81,-0.5"/>
<text text-anchor="middle" x="130" y="-133.5" font-family="Helvetica,sans-Serif" font-size="10.00">o2::TPC::Digit</text>
<polyline fill="none" stroke="black" points="81,-126.5 179,-126.5 "/>
<text text-anchor="middle" x="130" y="-114.5" font-family="Helvetica,sans-Serif" font-size="10.00"> </text>
<polyline fill="none" stroke="black" points="81,-107.5 179,-107.5 "/>
<text text-anchor="start" x="89" y="-95.5" font-family="Helvetica,sans-Serif" font-size="10.00">+ Digit()</text>
<text text-anchor="start" x="89" y="-84.5" font-family="Helvetica,sans-Serif" font-size="10.00">+ Digit()</text>
<text text-anchor="start" x="89" y="-73.5" font-family="Helvetica,sans-Serif" font-size="10.00">+ ~Digit()</text>
<text text-anchor="start" x="89" y="-62.5" font-family="Helvetica,sans-Serif" font-size="10.00">+ getCharge()</text>
<text text-anchor="start" x="89" y="-51.5" font-family="Helvetica,sans-Serif" font-size="10.00">+ getChargeFloat()</text>
<text text-anchor="start" x="89" y="-40.5" font-family="Helvetica,sans-Serif" font-size="10.00">+ getCRU()</text>
<text text-anchor="start" x="89" y="-29.5" font-family="Helvetica,sans-Serif" font-size="10.00">+ getRow()</text>
<text text-anchor="start" x="89" y="-18.5" font-family="Helvetica,sans-Serif" font-size="10.00">+ getPad()</text>
<text text-anchor="start" x="89" y="-7.5" font-family="Helvetica,sans-Serif" font-size="10.00"># ClassDefNV()</text>
</g>
<!-- Node2 -->
<g id="node2" class="node"><title>Node2</title>
<g id="a_node2"><a xlink:href="../../d0/d94/classo2_1_1dataformats_1_1TimeStamp.html" target="_top" xlink:title="{DigitBase\n||+ TimeStamp()\l+ TimeStamp()\l+ getTimeStamp()\l+ setTimeStamp()\l}">
<polygon fill="none" stroke="black" points="-0.5,-217 -0.5,-307 94.5,-307 94.5,-217 -0.5,-217"/>
<text text-anchor="middle" x="47" y="-295" font-family="Helvetica,sans-Serif" font-size="10.00">DigitBase</text>
<polyline fill="none" stroke="black" points="-0.5,-288 94.5,-288 "/>
<text text-anchor="middle" x="47" y="-276" font-family="Helvetica,sans-Serif" font-size="10.00"> </text>
<polyline fill="none" stroke="black" points="-0.5,-269 94.5,-269 "/>
<text text-anchor="start" x="7.5" y="-257" font-family="Helvetica,sans-Serif" font-size="10.00">+ TimeStamp()</text>
<text text-anchor="start" x="7.5" y="-246" font-family="Helvetica,sans-Serif" font-size="10.00">+ TimeStamp()</text>
<text text-anchor="start" x="7.5" y="-235" font-family="Helvetica,sans-Serif" font-size="10.00">+ getTimeStamp()</text>
<text text-anchor="start" x="7.5" y="-224" font-family="Helvetica,sans-Serif" font-size="10.00">+ setTimeStamp()</text>
</a>
</g>
</g>
<!-- Node2&#45;&gt;Node1 -->
<g id="edge1" class="edge"><title>Node2&#45;&gt;Node1</title>
<path fill="none" stroke="midnightblue" d="M70.7493,-207.493C79.2777,-188.278 89.0385,-166.287 98.1437,-145.773"/>
<polygon fill="none" stroke="midnightblue" points="67.5277,-206.124 66.6698,-216.684 73.9258,-208.963 67.5277,-206.124"/>
</g>
<!-- Node3 -->
<g id="node3" class="node"><title>Node3</title>
<g id="a_node3"><a xlink:href="../../d4/dc3/classfloat.html" target="_top" xlink:title="{float\n||}">
<polygon fill="none" stroke="black" points="112.5,-233.5 112.5,-290.5 147.5,-290.5 147.5,-233.5 112.5,-233.5"/>
<text text-anchor="middle" x="130" y="-278.5" font-family="Helvetica,sans-Serif" font-size="10.00">float</text>
<polyline fill="none" stroke="black" points="112.5,-271.5 147.5,-271.5 "/>
<text text-anchor="middle" x="130" y="-259.5" font-family="Helvetica,sans-Serif" font-size="10.00"> </text>
<polyline fill="none" stroke="black" points="112.5,-252.5 147.5,-252.5 "/>
<text text-anchor="middle" x="130" y="-240.5" font-family="Helvetica,sans-Serif" font-size="10.00"> </text>
</a>
</g>
</g>
<!-- Node3&#45;&gt;Node1 -->
<g id="edge2" class="edge"><title>Node3&#45;&gt;Node1</title>
<path fill="none" stroke="#404040" d="M130,-233.408C130,-213.408 130,-185.223 130,-158.104"/>
<polygon fill="none" stroke="#404040" points="130,-157.752 126,-151.752 130,-145.752 134,-151.752 130,-157.752"/>
<text text-anchor="middle" x="154.5" y="-178.5" font-family="Helvetica,sans-Serif" font-size="10.00"> #mCharge</text>
</g>
<!-- Node4 -->
<g id="node4" class="node"><title>Node4</title>
<polygon fill="none" stroke="#bfbfbf" points="174,-233.5 174,-290.5 230,-290.5 230,-233.5 174,-233.5"/>
<text text-anchor="middle" x="202" y="-278.5" font-family="Helvetica,sans-Serif" font-size="10.00">unsigned</text>
<polyline fill="none" stroke="#bfbfbf" points="174,-271.5 230,-271.5 "/>
<text text-anchor="middle" x="202" y="-259.5" font-family="Helvetica,sans-Serif" font-size="10.00"> </text>
<polyline fill="none" stroke="#bfbfbf" points="174,-252.5 230,-252.5 "/>
<text text-anchor="middle" x="202" y="-240.5" font-family="Helvetica,sans-Serif" font-size="10.00"> </text>
</g>
<!-- Node4&#45;&gt;Node1 -->
<g id="edge3" class="edge"><title>Node4&#45;&gt;Node1</title>
<path fill="none" stroke="#404040" d="M197.859,-233.21C194.401,-213.475 188.631,-186.582 180,-164 179.09,-161.619 178.127,-159.225 177.118,-156.825"/>
<polygon fill="none" stroke="#404040" points="176.995,-156.55 170.897,-152.702 172.104,-145.592 178.202,-149.44 176.995,-156.55"/>
<text text-anchor="middle" x="209.5" y="-189.5" font-family="Helvetica,sans-Serif" font-size="10.00"> #mPad</text>
<text text-anchor="middle" x="209.5" y="-178.5" font-family="Helvetica,sans-Serif" font-size="10.00">#mCRU</text>
<text text-anchor="middle" x="209.5" y="-167.5" font-family="Helvetica,sans-Serif" font-size="10.00">#mRow</text>
</g>
</g>
</svg>
