<?xml version="1.0" encoding="UTF-8" standalone="no"?>
<!DOCTYPE svg PUBLIC "-//W3C//DTD SVG 1.1//EN"
 "http://www.w3.org/Graphics/SVG/1.1/DTD/svg11.dtd">
<!-- Generated by graphviz version 2.36.0 (20140111.2315)
 -->
<!-- Title: /home/travis/build/AliceO2Group/AliceO2/Framework/Core/include/Framework/InputRecord.h Pages: 1 -->
<svg width="1628pt" height="286pt"
 viewBox="0.00 0.00 1627.93 286.00" xmlns="http://www.w3.org/2000/svg" xmlns:xlink="http://www.w3.org/1999/xlink">
<g id="graph0" class="graph" transform="scale(1 1) rotate(0) translate(4 282)">
<title>/home/travis/build/AliceO2Group/AliceO2/Framework/Core/include/Framework/InputRecord.h</title>
<!-- Node1 -->
<g id="node1" class="node"><title>Node1</title>
<polygon fill="#bfbfbf" stroke="black" points="1007.43,-225 1007.43,-277 1140.43,-277 1140.43,-225 1007.43,-225"/>
<text text-anchor="start" x="1015.43" y="-265" font-family="Helvetica,sans-Serif" font-size="10.00">/home/travis/build</text>
<text text-anchor="start" x="1015.43" y="-254" font-family="Helvetica,sans-Serif" font-size="10.00">/AliceO2Group/AliceO2</text>
<text text-anchor="start" x="1015.43" y="-243" font-family="Helvetica,sans-Serif" font-size="10.00">/Framework/Core/include</text>
<text text-anchor="middle" x="1073.93" y="-232" font-family="Helvetica,sans-Serif" font-size="10.00">/Framework/InputRecord.h</text>
</g>
<!-- Node2 -->
<g id="node2" class="node"><title>Node2</title>
<g id="a_node2"><a xlink:href="../../d5/dfb/DataRef_8h.html" target="_top" xlink:title="Framework/DataRef.h">
<polygon fill="none" stroke="black" points="430.43,-112.5 430.43,-131.5 543.43,-131.5 543.43,-112.5 430.43,-112.5"/>
<text text-anchor="middle" x="486.93" y="-119.5" font-family="Helvetica,sans-Serif" font-size="10.00">Framework/DataRef.h</text>
</a>
</g>
</g>
<!-- Node1&#45;&gt;Node2 -->
<g id="edge1" class="edge"><title>Node1&#45;&gt;Node2</title>
<path fill="none" stroke="midnightblue" d="M1007.38,-242.867C928.86,-233.672 794.721,-215.519 681.93,-188 622.896,-173.597 556.119,-149.595 518.02,-135.137"/>
<polygon fill="midnightblue" stroke="midnightblue" points="519.11,-131.807 508.519,-131.504 516.609,-138.345 519.11,-131.807"/>
</g>
<!-- Node3 -->
<g id="node3" class="node"><title>Node3</title>
<g id="a_node3"><a xlink:href="../../d5/db8/DataRefUtils_8h.html" target="_top" xlink:title="Framework/DataRefUtils.h">
<polygon fill="none" stroke="black" points="732.93,-168.5 732.93,-187.5 866.93,-187.5 866.93,-168.5 732.93,-168.5"/>
<text text-anchor="middle" x="799.93" y="-175.5" font-family="Helvetica,sans-Serif" font-size="10.00">Framework/DataRefUtils.h</text>
</a>
</g>
</g>
<!-- Node1&#45;&gt;Node3 -->
<g id="edge2" class="edge"><title>Node1&#45;&gt;Node3</title>
<path fill="none" stroke="midnightblue" d="M1007.25,-232.722C955.964,-219.432 886.633,-201.467 842.591,-190.054"/>
<polygon fill="midnightblue" stroke="midnightblue" points="843.338,-186.632 832.78,-187.512 841.582,-193.409 843.338,-186.632"/>
</g>
<!-- Node6 -->
<g id="node6" class="node"><title>Node6</title>
<polygon fill="none" stroke="#bfbfbf" points="145.93,-0.5 145.93,-19.5 197.93,-19.5 197.93,-0.5 145.93,-0.5"/>
<text text-anchor="middle" x="171.93" y="-7.5" font-family="Helvetica,sans-Serif" font-size="10.00">memory</text>
</g>
<!-- Node1&#45;&gt;Node6 -->
<g id="edge43" class="edge"><title>Node1&#45;&gt;Node6</title>
<path fill="none" stroke="midnightblue" d="M1007.13,-250.584C792.171,-250.83 125.405,-238.305 6.93028,-76 -27.0765,-29.4123 77.0505,-16.2009 135.351,-12.4653"/>
<polygon fill="midnightblue" stroke="midnightblue" points="135.878,-15.9409 145.66,-11.8722 135.476,-8.95245 135.878,-15.9409"/>
</g>
<!-- Node7 -->
<g id="node7" class="node"><title>Node7</title>
<polygon fill="none" stroke="#bfbfbf" points="1059.43,-0.5 1059.43,-19.5 1108.43,-19.5 1108.43,-0.5 1059.43,-0.5"/>
<text text-anchor="middle" x="1083.93" y="-7.5" font-family="Helvetica,sans-Serif" font-size="10.00">cassert</text>
</g>
<!-- Node1&#45;&gt;Node7 -->
<g id="edge41" class="edge"><title>Node1&#45;&gt;Node7</title>
<path fill="none" stroke="midnightblue" d="M1084.03,-224.797C1087.96,-213.705 1091.98,-200.402 1093.93,-188 1102.92,-130.864 1093.32,-62.2335 1087.58,-29.7724"/>
<polygon fill="midnightblue" stroke="midnightblue" points="1090.95,-28.7318 1085.68,-19.5378 1084.07,-30.0085 1090.95,-28.7318"/>
</g>
<!-- Node8 -->
<g id="node8" class="node"><title>Node8</title>
<polygon fill="none" stroke="#bfbfbf" points="1126.93,-0.5 1126.93,-19.5 1172.93,-19.5 1172.93,-0.5 1126.93,-0.5"/>
<text text-anchor="middle" x="1149.93" y="-7.5" font-family="Helvetica,sans-Serif" font-size="10.00">cstring</text>
</g>
<!-- Node1&#45;&gt;Node8 -->
<g id="edge40" class="edge"><title>Node1&#45;&gt;Node8</title>
<path fill="none" stroke="midnightblue" d="M1090.82,-224.94C1097.58,-213.984 1104.93,-200.744 1109.93,-188 1131.66,-132.651 1143.09,-62.7021 1147.6,-29.7694"/>
<polygon fill="midnightblue" stroke="midnightblue" points="1151.08,-30.1185 1148.91,-19.7491 1144.14,-29.2107 1151.08,-30.1185"/>
</g>
<!-- Node10 -->
<g id="node10" class="node"><title>Node10</title>
<g id="a_node10"><a xlink:href="../../d8/d3c/TMessageSerializer_8h.html" target="_top" xlink:title="Framework/TMessageSerializer.h">
<polygon fill="none" stroke="black" points="249.43,-112.5 249.43,-131.5 412.43,-131.5 412.43,-112.5 249.43,-112.5"/>
<text text-anchor="middle" x="330.93" y="-119.5" font-family="Helvetica,sans-Serif" font-size="10.00">Framework/TMessageSerializer.h</text>
</a>
</g>
</g>
<!-- Node1&#45;&gt;Node10 -->
<g id="edge35" class="edge"><title>Node1&#45;&gt;Node10</title>
<path fill="none" stroke="midnightblue" d="M1007.21,-242.995C917.279,-233.106 752.363,-213.389 612.93,-188 527.309,-172.41 428.447,-148.158 373.463,-134.104"/>
<polygon fill="midnightblue" stroke="midnightblue" points="374.276,-130.699 363.72,-131.603 372.536,-137.479 374.276,-130.699"/>
</g>
<!-- Node11 -->
<g id="node11" class="node"><title>Node11</title>
<polygon fill="none" stroke="#bfbfbf" points="16.4303,-56.5 16.4303,-75.5 143.43,-75.5 143.43,-56.5 16.4303,-56.5"/>
<text text-anchor="middle" x="79.9303" y="-63.5" font-family="Helvetica,sans-Serif" font-size="10.00">fairmq/FairMQMessage.h</text>
</g>
<!-- Node1&#45;&gt;Node11 -->
<g id="edge34" class="edge"><title>Node1&#45;&gt;Node11</title>
<path fill="none" stroke="midnightblue" d="M1007.31,-247.44C864.002,-240.455 516.956,-215.583 239.93,-132 192.013,-117.543 138.554,-94.3011 107.155,-79.879"/>
<polygon fill="midnightblue" stroke="midnightblue" points="108.316,-76.5592 97.771,-75.5287 105.372,-82.91 108.316,-76.5592"/>
</g>
<!-- Node19 -->
<g id="node19" class="node"><title>Node19</title>
<g id="a_node19"><a xlink:href="../../d0/d95/TypeTraits_8h.html" target="_top" xlink:title="Framework/TypeTraits.h">
<polygon fill="none" stroke="black" points="561.43,-112.5 561.43,-131.5 684.43,-131.5 684.43,-112.5 561.43,-112.5"/>
<text text-anchor="middle" x="622.93" y="-119.5" font-family="Helvetica,sans-Serif" font-size="10.00">Framework/TypeTraits.h</text>
</a>
</g>
</g>
<!-- Node1&#45;&gt;Node19 -->
<g id="edge33" class="edge"><title>Node1&#45;&gt;Node19</title>
<path fill="none" stroke="midnightblue" d="M1007.32,-246.044C935.294,-239.992 818.154,-224.935 723.93,-188 692.448,-175.659 660.323,-152.871 641.003,-137.823"/>
<polygon fill="midnightblue" stroke="midnightblue" points="643.08,-135.004 633.075,-131.519 638.724,-140.483 643.08,-135.004"/>
</g>
<!-- Node20 -->
<g id="node20" class="node"><title>Node20</title>
<polygon fill="none" stroke="#bfbfbf" points="761.93,-56.5 761.93,-75.5 823.93,-75.5 823.93,-56.5 761.93,-56.5"/>
<text text-anchor="middle" x="792.93" y="-63.5" font-family="Helvetica,sans-Serif" font-size="10.00">type_traits</text>
</g>
<!-- Node1&#45;&gt;Node20 -->
<g id="edge44" class="edge"><title>Node1&#45;&gt;Node20</title>
<path fill="none" stroke="midnightblue" d="M1078.27,-224.813C1082.02,-193.875 1082.98,-141.835 1053.93,-112 1024.09,-81.3521 899.775,-71.4835 834.061,-68.3786"/>
<polygon fill="midnightblue" stroke="midnightblue" points="834.186,-64.8808 824.041,-67.9362 833.877,-71.874 834.186,-64.8808"/>
</g>
<!-- Node21 -->
<g id="node21" class="node"><title>Node21</title>
<polygon fill="none" stroke="#bfbfbf" points="989.93,-112.5 989.93,-131.5 1045.93,-131.5 1045.93,-112.5 989.93,-112.5"/>
<text text-anchor="middle" x="1017.93" y="-119.5" font-family="Helvetica,sans-Serif" font-size="10.00">TClass.h</text>
</g>
<!-- Node1&#45;&gt;Node21 -->
<g id="edge36" class="edge"><title>Node1&#45;&gt;Node21</title>
<path fill="none" stroke="midnightblue" d="M1062.87,-224.909C1051.96,-200.184 1035.57,-163.015 1025.89,-141.061"/>
<polygon fill="midnightblue" stroke="midnightblue" points="1028.97,-139.366 1021.73,-131.628 1022.57,-142.19 1028.97,-139.366"/>
</g>
<!-- Node25 -->
<g id="node25" class="node"><title>Node25</title>
<g id="a_node25"><a xlink:href="../../d5/d19/InputRoute_8h.html" target="_top" xlink:title="Framework/InputRoute.h">
<polygon fill="none" stroke="black" points="1221.43,-168.5 1221.43,-187.5 1346.43,-187.5 1346.43,-168.5 1221.43,-168.5"/>
<text text-anchor="middle" x="1283.93" y="-175.5" font-family="Helvetica,sans-Serif" font-size="10.00">Framework/InputRoute.h</text>
</a>
</g>
</g>
<!-- Node1&#45;&gt;Node25 -->
<g id="edge27" class="edge"><title>Node1&#45;&gt;Node25</title>
<path fill="none" stroke="midnightblue" d="M1140.66,-227.438C1176.55,-215.306 1219.34,-200.839 1248.75,-190.893"/>
<polygon fill="midnightblue" stroke="midnightblue" points="1250.22,-194.094 1258.57,-187.575 1247.97,-187.462 1250.22,-194.094"/>
</g>
<!-- Node27 -->
<g id="node27" class="node"><title>Node27</title>
<polygon fill="none" stroke="#bfbfbf" points="1307.43,-56.5 1307.43,-75.5 1348.43,-75.5 1348.43,-56.5 1307.43,-56.5"/>
<text text-anchor="middle" x="1327.93" y="-63.5" font-family="Helvetica,sans-Serif" font-size="10.00">string</text>
</g>
<!-- Node1&#45;&gt;Node27 -->
<g id="edge38" class="edge"><title>Node1&#45;&gt;Node27</title>
<path fill="none" stroke="midnightblue" d="M1140.72,-245.41C1199.95,-239.047 1287.31,-223.912 1354.93,-188 1392.7,-167.942 1436.08,-148.581 1413.93,-112 1401.89,-92.1136 1377.85,-80.5923 1358.25,-74.1954"/>
<polygon fill="midnightblue" stroke="midnightblue" points="1359.06,-70.7878 1348.48,-71.3002 1357.07,-77.4989 1359.06,-70.7878"/>
</g>
<!-- Node29 -->
<g id="node29" class="node"><title>Node29</title>
<polygon fill="none" stroke="#bfbfbf" points="1432.43,-168.5 1432.43,-187.5 1479.43,-187.5 1479.43,-168.5 1432.43,-168.5"/>
<text text-anchor="middle" x="1455.93" y="-175.5" font-family="Helvetica,sans-Serif" font-size="10.00">iterator</text>
</g>
<!-- Node1&#45;&gt;Node29 -->
<g id="edge37" class="edge"><title>Node1&#45;&gt;Node29</title>
<path fill="none" stroke="midnightblue" d="M1140.73,-239.065C1210.19,-227.435 1321.99,-207.993 1417.93,-188 1419.38,-187.697 1420.86,-187.381 1422.36,-187.055"/>
<polygon fill="midnightblue" stroke="midnightblue" points="1423.28,-190.436 1432.26,-184.816 1421.73,-183.608 1423.28,-190.436"/>
</g>
<!-- Node30 -->
<g id="node30" class="node"><title>Node30</title>
<polygon fill="none" stroke="#bfbfbf" points="1497.93,-168.5 1497.93,-187.5 1541.93,-187.5 1541.93,-168.5 1497.93,-168.5"/>
<text text-anchor="middle" x="1519.93" y="-175.5" font-family="Helvetica,sans-Serif" font-size="10.00">vector</text>
</g>
<!-- Node1&#45;&gt;Node30 -->
<g id="edge39" class="edge"><title>Node1&#45;&gt;Node30</title>
<path fill="none" stroke="midnightblue" d="M1140.72,-242.616C1220.85,-233.172 1359.34,-214.993 1487.64,-187.798"/>
<polygon fill="midnightblue" stroke="midnightblue" points="1488.6,-191.172 1497.64,-185.655 1487.13,-184.328 1488.6,-191.172"/>
</g>
<!-- Node31 -->
<g id="node31" class="node"><title>Node31</title>
<polygon fill="none" stroke="#bfbfbf" points="1560.43,-168.5 1560.43,-187.5 1619.43,-187.5 1619.43,-168.5 1560.43,-168.5"/>
<text text-anchor="middle" x="1589.93" y="-175.5" font-family="Helvetica,sans-Serif" font-size="10.00">exception</text>
</g>
<!-- Node1&#45;&gt;Node31 -->
<g id="edge42" class="edge"><title>Node1&#45;&gt;Node31</title>
<path fill="none" stroke="midnightblue" d="M1140.45,-243.286C1232.74,-233.527 1404.69,-213.743 1549.93,-188 1550.04,-187.981 1550.14,-187.963 1550.25,-187.944"/>
<polygon fill="midnightblue" stroke="midnightblue" points="1551.14,-191.336 1560.28,-185.989 1549.8,-184.465 1551.14,-191.336"/>
</g>
<!-- Node3&#45;&gt;Node2 -->
<g id="edge3" class="edge"><title>Node3&#45;&gt;Node2</title>
<path fill="none" stroke="midnightblue" d="M750.334,-168.444C694.931,-158.885 605.288,-143.419 546.225,-133.23"/>
<polygon fill="midnightblue" stroke="midnightblue" points="546.744,-129.768 536.294,-131.516 545.553,-136.666 546.744,-129.768"/>
</g>
<!-- Node4 -->
<g id="node4" class="node"><title>Node4</title>
<g id="a_node4"><a xlink:href="../../dc/dcd/DataHeader_8h.html" target="_top" xlink:title="Headers/DataHeader.h">
<polygon fill="none" stroke="black" points="959.43,-56.5 959.43,-75.5 1076.43,-75.5 1076.43,-56.5 959.43,-56.5"/>
<text text-anchor="middle" x="1017.93" y="-63.5" font-family="Helvetica,sans-Serif" font-size="10.00">Headers/DataHeader.h</text>
</a>
</g>
</g>
<!-- Node3&#45;&gt;Node4 -->
<g id="edge4" class="edge"><title>Node3&#45;&gt;Node4</title>
<path fill="none" stroke="midnightblue" d="M841.482,-168.488C870.782,-161.396 910.283,-149.587 941.93,-132 965.491,-118.907 988.426,-97.7889 1002.83,-83.1946"/>
<polygon fill="midnightblue" stroke="midnightblue" points="1005.49,-85.4808 1009.9,-75.8502 1000.45,-80.6248 1005.49,-85.4808"/>
</g>
<!-- Node3&#45;&gt;Node10 -->
<g id="edge10" class="edge"><title>Node3&#45;&gt;Node10</title>
<path fill="none" stroke="midnightblue" d="M732.734,-169.263C648.996,-159.622 505.868,-143.142 414.963,-132.675"/>
<polygon fill="midnightblue" stroke="midnightblue" points="415.3,-129.191 404.966,-131.524 414.5,-136.145 415.3,-129.191"/>
</g>
<!-- Node3&#45;&gt;Node19 -->
<g id="edge20" class="edge"><title>Node3&#45;&gt;Node19</title>
<path fill="none" stroke="midnightblue" d="M771.884,-168.444C741.848,-159.28 694.017,-144.688 660.688,-134.519"/>
<polygon fill="midnightblue" stroke="midnightblue" points="661.431,-131.087 650.845,-131.516 659.389,-137.782 661.431,-131.087"/>
</g>
<!-- Node3&#45;&gt;Node20 -->
<g id="edge25" class="edge"><title>Node3&#45;&gt;Node20</title>
<path fill="none" stroke="midnightblue" d="M776.476,-168.408C760.769,-161.28 741.312,-149.458 731.93,-132 720.891,-111.456 743.987,-92.5751 764.855,-80.5179"/>
<polygon fill="midnightblue" stroke="midnightblue" points="766.738,-83.4784 773.855,-75.6303 763.397,-77.3269 766.738,-83.4784"/>
</g>
<!-- Node3&#45;&gt;Node21 -->
<g id="edge22" class="edge"><title>Node3&#45;&gt;Node21</title>
<path fill="none" stroke="midnightblue" d="M834.473,-168.444C874.096,-158.629 938.864,-142.585 979.897,-132.421"/>
<polygon fill="midnightblue" stroke="midnightblue" points="980.923,-135.773 989.788,-129.971 979.24,-128.978 980.923,-135.773"/>
</g>
<!-- Node22 -->
<g id="node22" class="node"><title>Node22</title>
<polygon fill="none" stroke="#bfbfbf" points="874.43,-112.5 874.43,-131.5 933.43,-131.5 933.43,-112.5 874.43,-112.5"/>
<text text-anchor="middle" x="903.93" y="-119.5" font-family="Helvetica,sans-Serif" font-size="10.00">stdexcept</text>
</g>
<!-- Node3&#45;&gt;Node22 -->
<g id="edge23" class="edge"><title>Node3&#45;&gt;Node22</title>
<path fill="none" stroke="midnightblue" d="M816.64,-168.324C833.242,-159.703 858.932,-146.364 878.151,-136.386"/>
<polygon fill="midnightblue" stroke="midnightblue" points="880,-139.369 887.262,-131.655 876.775,-133.156 880,-139.369"/>
</g>
<!-- Node23 -->
<g id="node23" class="node"><title>Node23</title>
<polygon fill="none" stroke="#bfbfbf" points="740.93,-112.5 740.93,-131.5 792.93,-131.5 792.93,-112.5 740.93,-112.5"/>
<text text-anchor="middle" x="766.93" y="-119.5" font-family="Helvetica,sans-Serif" font-size="10.00">sstream</text>
</g>
<!-- Node3&#45;&gt;Node23 -->
<g id="edge24" class="edge"><title>Node3&#45;&gt;Node23</title>
<path fill="none" stroke="midnightblue" d="M794.481,-168.083C789.916,-160.613 783.262,-149.724 777.637,-140.52"/>
<polygon fill="midnightblue" stroke="midnightblue" points="780.479,-138.459 772.278,-131.751 774.506,-142.109 780.479,-138.459"/>
</g>
<!-- Node24 -->
<g id="node24" class="node"><title>Node24</title>
<polygon fill="none" stroke="#bfbfbf" points="811.43,-112.5 811.43,-131.5 856.43,-131.5 856.43,-112.5 811.43,-112.5"/>
<text text-anchor="middle" x="833.93" y="-119.5" font-family="Helvetica,sans-Serif" font-size="10.00">gsl/gsl</text>
</g>
<!-- Node3&#45;&gt;Node24 -->
<g id="edge26" class="edge"><title>Node3&#45;&gt;Node24</title>
<path fill="none" stroke="midnightblue" d="M805.545,-168.083C810.298,-160.534 817.248,-149.495 823.082,-140.23"/>
<polygon fill="midnightblue" stroke="midnightblue" points="826.054,-142.078 828.42,-131.751 820.13,-138.349 826.054,-142.078"/>
</g>
<!-- Node5 -->
<g id="node5" class="node"><title>Node5</title>
<polygon fill="none" stroke="#bfbfbf" points="994.93,-0.5 994.93,-19.5 1040.93,-19.5 1040.93,-0.5 994.93,-0.5"/>
<text text-anchor="middle" x="1017.93" y="-7.5" font-family="Helvetica,sans-Serif" font-size="10.00">cstdint</text>
</g>
<!-- Node4&#45;&gt;Node5 -->
<g id="edge5" class="edge"><title>Node4&#45;&gt;Node5</title>
<path fill="none" stroke="midnightblue" d="M1017.93,-56.083C1017.93,-49.0059 1017.93,-38.8611 1017.93,-29.9865"/>
<polygon fill="midnightblue" stroke="midnightblue" points="1021.43,-29.751 1017.93,-19.7511 1014.43,-29.7511 1021.43,-29.751"/>
</g>
<!-- Node4&#45;&gt;Node6 -->
<g id="edge6" class="edge"><title>Node4&#45;&gt;Node6</title>
<path fill="none" stroke="midnightblue" d="M959.113,-61.2457C795.849,-50.8246 340.404,-21.7537 208.287,-13.3207"/>
<polygon fill="midnightblue" stroke="midnightblue" points="208.48,-9.82592 198.277,-12.6817 208.034,-16.8117 208.48,-9.82592"/>
</g>
<!-- Node4&#45;&gt;Node7 -->
<g id="edge7" class="edge"><title>Node4&#45;&gt;Node7</title>
<path fill="none" stroke="midnightblue" d="M1028.53,-56.324C1038.39,-48.2631 1053.28,-36.0765 1065.15,-26.3695"/>
<polygon fill="midnightblue" stroke="midnightblue" points="1067.61,-28.8752 1073.13,-19.8339 1063.18,-23.4575 1067.61,-28.8752"/>
</g>
<!-- Node4&#45;&gt;Node8 -->
<g id="edge8" class="edge"><title>Node4&#45;&gt;Node8</title>
<path fill="none" stroke="midnightblue" d="M1038.85,-56.4435C1060.67,-47.5171 1095.08,-33.4387 1119.82,-23.3168"/>
<polygon fill="midnightblue" stroke="midnightblue" points="1121.18,-26.5422 1129.11,-19.5164 1118.53,-20.0634 1121.18,-26.5422"/>
</g>
<!-- Node9 -->
<g id="node9" class="node"><title>Node9</title>
<polygon fill="none" stroke="#bfbfbf" points="920.93,-0.5 920.93,-19.5 976.93,-19.5 976.93,-0.5 920.93,-0.5"/>
<text text-anchor="middle" x="948.93" y="-7.5" font-family="Helvetica,sans-Serif" font-size="10.00">algorithm</text>
</g>
<!-- Node4&#45;&gt;Node9 -->
<g id="edge9" class="edge"><title>Node4&#45;&gt;Node9</title>
<path fill="none" stroke="midnightblue" d="M1006.84,-56.324C996.444,-48.1849 980.67,-35.8395 968.209,-26.0874"/>
<polygon fill="midnightblue" stroke="midnightblue" points="970.25,-23.2407 960.218,-19.8339 965.936,-28.7533 970.25,-23.2407"/>
</g>
<!-- Node10&#45;&gt;Node6 -->
<g id="edge18" class="edge"><title>Node10&#45;&gt;Node6</title>
<path fill="none" stroke="midnightblue" d="M261.425,-112.456C236.288,-106.122 209.543,-95.1144 190.93,-76 179.022,-63.7704 174.51,-44.5056 172.835,-30.119"/>
<polygon fill="midnightblue" stroke="midnightblue" points="176.3,-29.5433 172.012,-19.8547 169.322,-30.1023 176.3,-29.5433"/>
</g>
<!-- Node10&#45;&gt;Node11 -->
<g id="edge11" class="edge"><title>Node10&#45;&gt;Node11</title>
<path fill="none" stroke="midnightblue" d="M291.159,-112.444C247.372,-103.023 176.917,-87.8656 129.55,-77.6752"/>
<polygon fill="midnightblue" stroke="midnightblue" points="130.028,-74.1981 119.516,-75.5164 128.556,-81.0415 130.028,-74.1981"/>
</g>
<!-- Node12 -->
<g id="node12" class="node"><title>Node12</title>
<polygon fill="none" stroke="#bfbfbf" points="607.43,-56.5 607.43,-75.5 654.43,-75.5 654.43,-56.5 607.43,-56.5"/>
<text text-anchor="middle" x="630.93" y="-63.5" font-family="Helvetica,sans-Serif" font-size="10.00">TList.h</text>
</g>
<!-- Node10&#45;&gt;Node12 -->
<g id="edge12" class="edge"><title>Node10&#45;&gt;Node12</title>
<path fill="none" stroke="midnightblue" d="M390.654,-112.489C444.761,-104.402 526.549,-91.2353 596.93,-76 597.035,-75.9774 597.139,-75.9547 597.244,-75.9318"/>
<polygon fill="midnightblue" stroke="midnightblue" points="598.293,-79.2803 607.219,-73.5718 596.682,-72.4684 598.293,-79.2803"/>
</g>
<!-- Node13 -->
<g id="node13" class="node"><title>Node13</title>
<polygon fill="none" stroke="#bfbfbf" points="672.43,-56.5 672.43,-75.5 743.43,-75.5 743.43,-56.5 672.43,-56.5"/>
<text text-anchor="middle" x="707.93" y="-63.5" font-family="Helvetica,sans-Serif" font-size="10.00">TMessage.h</text>
</g>
<!-- Node10&#45;&gt;Node13 -->
<g id="edge13" class="edge"><title>Node10&#45;&gt;Node13</title>
<path fill="none" stroke="midnightblue" d="M403.665,-112.473C468.757,-104.537 567.017,-91.8095 662.032,-76.0588"/>
<polygon fill="midnightblue" stroke="midnightblue" points="662.82,-79.4758 672.106,-74.3753 661.666,-72.5715 662.82,-79.4758"/>
</g>
<!-- Node14 -->
<g id="node14" class="node"><title>Node14</title>
<polygon fill="none" stroke="#bfbfbf" points="200.43,-56.5 200.43,-75.5 269.43,-75.5 269.43,-56.5 200.43,-56.5"/>
<text text-anchor="middle" x="234.93" y="-63.5" font-family="Helvetica,sans-Serif" font-size="10.00">TObjArray.h</text>
</g>
<!-- Node10&#45;&gt;Node14 -->
<g id="edge14" class="edge"><title>Node10&#45;&gt;Node14</title>
<path fill="none" stroke="midnightblue" d="M315.506,-112.324C300.391,-103.822 277.115,-90.7288 259.459,-80.7975"/>
<polygon fill="midnightblue" stroke="midnightblue" points="260.748,-77.5066 250.316,-75.6545 257.316,-83.6077 260.748,-77.5066"/>
</g>
<!-- Node15 -->
<g id="node15" class="node"><title>Node15</title>
<polygon fill="none" stroke="#bfbfbf" points="287.43,-56.5 287.43,-75.5 374.43,-75.5 374.43,-56.5 287.43,-56.5"/>
<text text-anchor="middle" x="330.93" y="-63.5" font-family="Helvetica,sans-Serif" font-size="10.00">TStreamerInfo.h</text>
</g>
<!-- Node10&#45;&gt;Node15 -->
<g id="edge15" class="edge"><title>Node10&#45;&gt;Node15</title>
<path fill="none" stroke="midnightblue" d="M330.93,-112.083C330.93,-105.006 330.93,-94.8611 330.93,-85.9865"/>
<polygon fill="midnightblue" stroke="midnightblue" points="334.43,-85.751 330.93,-75.7511 327.43,-85.7511 334.43,-85.751"/>
</g>
<!-- Node16 -->
<g id="node16" class="node"><title>Node16</title>
<polygon fill="none" stroke="#bfbfbf" points="392.43,-56.5 392.43,-75.5 455.43,-75.5 455.43,-56.5 392.43,-56.5"/>
<text text-anchor="middle" x="423.93" y="-63.5" font-family="Helvetica,sans-Serif" font-size="10.00">gsl/gsl_util</text>
</g>
<!-- Node10&#45;&gt;Node16 -->
<g id="edge16" class="edge"><title>Node10&#45;&gt;Node16</title>
<path fill="none" stroke="midnightblue" d="M345.872,-112.324C360.515,-103.822 383.064,-90.7288 400.168,-80.7975"/>
<polygon fill="midnightblue" stroke="midnightblue" points="402.135,-83.7027 409.025,-75.6545 398.62,-77.6491 402.135,-83.7027"/>
</g>
<!-- Node17 -->
<g id="node17" class="node"><title>Node17</title>
<polygon fill="none" stroke="#bfbfbf" points="473.43,-56.5 473.43,-75.5 526.43,-75.5 526.43,-56.5 473.43,-56.5"/>
<text text-anchor="middle" x="499.93" y="-63.5" font-family="Helvetica,sans-Serif" font-size="10.00">gsl/span</text>
</g>
<!-- Node10&#45;&gt;Node17 -->
<g id="edge17" class="edge"><title>Node10&#45;&gt;Node17</title>
<path fill="none" stroke="midnightblue" d="M357.709,-112.444C386.263,-103.32 431.663,-88.8133 463.467,-78.6509"/>
<polygon fill="midnightblue" stroke="midnightblue" points="464.817,-81.8941 473.277,-75.5164 462.686,-75.2262 464.817,-81.8941"/>
</g>
<!-- Node18 -->
<g id="node18" class="node"><title>Node18</title>
<polygon fill="none" stroke="#bfbfbf" points="544.93,-56.5 544.93,-75.5 588.93,-75.5 588.93,-56.5 544.93,-56.5"/>
<text text-anchor="middle" x="566.93" y="-63.5" font-family="Helvetica,sans-Serif" font-size="10.00">mutex</text>
</g>
<!-- Node10&#45;&gt;Node18 -->
<g id="edge19" class="edge"><title>Node10&#45;&gt;Node18</title>
<path fill="none" stroke="midnightblue" d="M372.899,-112.473C412.157,-104.334 472.639,-91.3789 534.634,-75.9539"/>
<polygon fill="midnightblue" stroke="midnightblue" points="535.745,-79.2838 544.594,-73.4574 534.043,-72.4938 535.745,-79.2838"/>
</g>
<!-- Node19&#45;&gt;Node20 -->
<g id="edge21" class="edge"><title>Node19&#45;&gt;Node20</title>
<path fill="none" stroke="midnightblue" d="M649.867,-112.444C678.591,-103.32 724.259,-88.8133 756.251,-78.6509"/>
<polygon fill="midnightblue" stroke="midnightblue" points="757.648,-81.8797 766.119,-75.5164 755.529,-75.2081 757.648,-81.8797"/>
</g>
<!-- Node26 -->
<g id="node26" class="node"><title>Node26</title>
<g id="a_node26"><a xlink:href="../../d5/d3f/InputSpec_8h.html" target="_top" xlink:title="Framework/InputSpec.h">
<polygon fill="none" stroke="black" points="1178.43,-112.5 1178.43,-131.5 1299.43,-131.5 1299.43,-112.5 1178.43,-112.5"/>
<text text-anchor="middle" x="1238.93" y="-119.5" font-family="Helvetica,sans-Serif" font-size="10.00">Framework/InputSpec.h</text>
</a>
</g>
</g>
<!-- Node25&#45;&gt;Node26 -->
<g id="edge28" class="edge"><title>Node25&#45;&gt;Node26</title>
<path fill="none" stroke="midnightblue" d="M1276.5,-168.083C1270.08,-160.377 1260.62,-149.033 1252.81,-139.653"/>
<polygon fill="midnightblue" stroke="midnightblue" points="1255.31,-137.193 1246.22,-131.751 1249.94,-141.674 1255.31,-137.193"/>
</g>
<!-- Node25&#45;&gt;Node27 -->
<g id="edge32" class="edge"><title>Node25&#45;&gt;Node27</title>
<path fill="none" stroke="midnightblue" d="M1289.23,-168.28C1294.47,-159.388 1302.49,-145.08 1307.93,-132 1314.31,-116.67 1319.71,-98.5686 1323.29,-85.3661"/>
<polygon fill="midnightblue" stroke="midnightblue" points="1326.7,-86.157 1325.85,-75.5967 1319.93,-84.385 1326.7,-86.157"/>
</g>
<!-- Node28 -->
<g id="node28" class="node"><title>Node28</title>
<polygon fill="none" stroke="#bfbfbf" points="1356.43,-112.5 1356.43,-131.5 1405.43,-131.5 1405.43,-112.5 1356.43,-112.5"/>
<text text-anchor="middle" x="1380.93" y="-119.5" font-family="Helvetica,sans-Serif" font-size="10.00">cstddef</text>
</g>
<!-- Node25&#45;&gt;Node28 -->
<g id="edge31" class="edge"><title>Node25&#45;&gt;Node28</title>
<path fill="none" stroke="midnightblue" d="M1299.52,-168.324C1314.93,-159.743 1338.74,-146.486 1356.64,-136.522"/>
<polygon fill="midnightblue" stroke="midnightblue" points="1358.35,-139.577 1365.38,-131.655 1354.94,-133.461 1358.35,-139.577"/>
</g>
<!-- Node26&#45;&gt;Node4 -->
<g id="edge30" class="edge"><title>Node26&#45;&gt;Node4</title>
<path fill="none" stroke="midnightblue" d="M1203.91,-112.444C1165.68,-103.102 1104.36,-88.1194 1062.67,-77.9326"/>
<polygon fill="midnightblue" stroke="midnightblue" points="1063.33,-74.4901 1052.78,-75.5164 1061.67,-81.2901 1063.33,-74.4901"/>
</g>
<!-- Node26&#45;&gt;Node27 -->
<g id="edge29" class="edge"><title>Node26&#45;&gt;Node27</title>
<path fill="none" stroke="midnightblue" d="M1253.23,-112.324C1267.11,-103.9 1288.42,-90.9709 1304.73,-81.0741"/>
<polygon fill="midnightblue" stroke="midnightblue" points="1306.93,-83.8341 1313.67,-75.6545 1303.3,-77.8495 1306.93,-83.8341"/>
</g>
</g>
</svg>
