<?xml version="1.0" encoding="UTF-8" standalone="no"?>
<!DOCTYPE svg PUBLIC "-//W3C//DTD SVG 1.1//EN"
 "http://www.w3.org/Graphics/SVG/1.1/DTD/svg11.dtd">
<!-- Generated by graphviz version 2.36.0 (20140111.2315)
 -->
<!-- Title: o2::framework::is_messageable&lt; T &gt; Pages: 1 -->
<svg width="186pt" height="216pt"
 viewBox="0.00 0.00 186.00 216.00" xmlns="http://www.w3.org/2000/svg" xmlns:xlink="http://www.w3.org/1999/xlink">
<g id="graph0" class="graph" transform="scale(1 1) rotate(0) translate(4 212)">
<title>o2::framework::is_messageable&lt; T &gt;</title>
<!-- Node1 -->
<g id="node1" class="node"><title>Node1</title>
<polygon fill="#bfbfbf" stroke="black" points="-0.5,-0.5 -0.5,-57.5 178.5,-57.5 178.5,-0.5 -0.5,-0.5"/>
<text text-anchor="middle" x="89" y="-45.5" font-family="Helvetica,sans-Serif" font-size="10.00">o2::framework::is_messageable&lt; T &gt;</text>
<polyline fill="none" stroke="black" points="-0.5,-38.5 178.5,-38.5 "/>
<text text-anchor="middle" x="89" y="-26.5" font-family="Helvetica,sans-Serif" font-size="10.00"> </text>
<polyline fill="none" stroke="black" points="-0.5,-19.5 178.5,-19.5 "/>
<text text-anchor="middle" x="89" y="-7.5" font-family="Helvetica,sans-Serif" font-size="10.00"> </text>
</g>
<!-- Node2 -->
<g id="node2" class="node"><title>Node2</title>
<g id="a_node2"><a xlink:href="../../db/d0a/classstd_1_1conditional_1_1type.html" target="_top" xlink:title="{std::conditional\&lt; std\l::is_trivially_copyable\l\&lt; T \&gt;::value &amp;&amp;!std::is\l_polymorphic\&lt; T \&gt;::value,\l std::true_type, std::false\l_type \&gt;::type\n||}">
<polygon fill="none" stroke="black" points="23.5,-95 23.5,-207 154.5,-207 154.5,-95 23.5,-95"/>
<text text-anchor="start" x="31.5" y="-195" font-family="Helvetica,sans-Serif" font-size="10.00">std::conditional&lt; std</text>
<text text-anchor="start" x="31.5" y="-184" font-family="Helvetica,sans-Serif" font-size="10.00">::is_trivially_copyable</text>
<text text-anchor="start" x="31.5" y="-173" font-family="Helvetica,sans-Serif" font-size="10.00">&lt; T &gt;::value &amp;&amp;!std::is</text>
<text text-anchor="start" x="31.5" y="-162" font-family="Helvetica,sans-Serif" font-size="10.00">_polymorphic&lt; T &gt;::value,</text>
<text text-anchor="start" x="31.5" y="-151" font-family="Helvetica,sans-Serif" font-size="10.00"> std::true_type, std::false</text>
<text text-anchor="middle" x="89" y="-140" font-family="Helvetica,sans-Serif" font-size="10.00">_type &gt;::type</text>
<polyline fill="none" stroke="black" points="23.5,-133 154.5,-133 "/>
<text text-anchor="middle" x="89" y="-121" font-family="Helvetica,sans-Serif" font-size="10.00"> </text>
<polyline fill="none" stroke="black" points="23.5,-114 154.5,-114 "/>
<text text-anchor="middle" x="89" y="-102" font-family="Helvetica,sans-Serif" font-size="10.00"> </text>
</a>
</g>
</g>
<!-- Node2&#45;&gt;Node1 -->
<g id="edge1" class="edge"><title>Node2&#45;&gt;Node1</title>
<path fill="none" stroke="midnightblue" d="M89,-84.89C89,-75.2893 89,-65.8644 89,-57.6081"/>
<polygon fill="none" stroke="midnightblue" points="85.5001,-84.9169 89,-94.917 92.5001,-84.917 85.5001,-84.9169"/>
</g>
</g>
</svg>
