<?xml version="1.0" encoding="UTF-8" standalone="no"?>
<!DOCTYPE svg PUBLIC "-//W3C//DTD SVG 1.1//EN"
 "http://www.w3.org/Graphics/SVG/1.1/DTD/svg11.dtd">
<!-- Generated by graphviz version 2.36.0 (20140111.2315)
 -->
<!-- Title: /home/travis/build/AliceO2Group/AliceO2/Detectors/TPC/simulation/include/TPCSimulation/DigitCRU.h Pages: 1 -->
<svg width="1709pt" height="682pt"
 viewBox="0.00 0.00 1709.00 682.00" xmlns="http://www.w3.org/2000/svg" xmlns:xlink="http://www.w3.org/1999/xlink">
<g id="graph0" class="graph" transform="scale(1 1) rotate(0) translate(4 678)">
<title>/home/travis/build/AliceO2Group/AliceO2/Detectors/TPC/simulation/include/TPCSimulation/DigitCRU.h</title>
<!-- Node1 -->
<g id="node1" class="node"><title>Node1</title>
<polygon fill="#bfbfbf" stroke="black" points="933.5,-621 933.5,-673 1106.5,-673 1106.5,-621 933.5,-621"/>
<text text-anchor="start" x="941.5" y="-661" font-family="Helvetica,sans-Serif" font-size="10.00">/home/travis/build</text>
<text text-anchor="start" x="941.5" y="-650" font-family="Helvetica,sans-Serif" font-size="10.00">/AliceO2Group/AliceO2</text>
<text text-anchor="start" x="941.5" y="-639" font-family="Helvetica,sans-Serif" font-size="10.00">/Detectors/TPC/simulation</text>
<text text-anchor="middle" x="1020" y="-628" font-family="Helvetica,sans-Serif" font-size="10.00">/include/TPCSimulation/DigitCRU.h</text>
</g>
<!-- Node2 -->
<g id="node2" class="node"><title>Node2</title>
<g id="a_node2"><a xlink:href="../../d0/d60/DigitTime_8h.html" target="_top" xlink:title="Definition of the Time Bin container. ">
<polygon fill="none" stroke="black" points="638,-558.5 638,-577.5 774,-577.5 774,-558.5 638,-558.5"/>
<text text-anchor="middle" x="706" y="-565.5" font-family="Helvetica,sans-Serif" font-size="10.00">TPCSimulation/DigitTime.h</text>
</a>
</g>
</g>
<!-- Node1&#45;&gt;Node2 -->
<g id="edge1" class="edge"><title>Node1&#45;&gt;Node2</title>
<path fill="none" stroke="midnightblue" d="M933.367,-624.756C874.175,-610.24 798.159,-591.599 750.755,-579.975"/>
<polygon fill="midnightblue" stroke="midnightblue" points="751.347,-576.516 740.801,-577.534 749.68,-583.315 751.347,-576.516"/>
</g>
<!-- Node20 -->
<g id="node20" class="node"><title>Node20</title>
<g id="a_node20"><a xlink:href="../../d6/dba/CommonModeContainer_8h.html" target="_top" xlink:title="Definition of the Common Mode computation. ">
<polygon fill="none" stroke="black" points="945.5,-553 945.5,-583 1094.5,-583 1094.5,-553 945.5,-553"/>
<text text-anchor="start" x="953.5" y="-571" font-family="Helvetica,sans-Serif" font-size="10.00">TPCSimulation/CommonMode</text>
<text text-anchor="middle" x="1020" y="-560" font-family="Helvetica,sans-Serif" font-size="10.00">Container.h</text>
</a>
</g>
</g>
<!-- Node1&#45;&gt;Node20 -->
<g id="edge21" class="edge"><title>Node1&#45;&gt;Node20</title>
<path fill="none" stroke="midnightblue" d="M1020,-620.787C1020,-612.029 1020,-602.225 1020,-593.523"/>
<polygon fill="midnightblue" stroke="midnightblue" points="1023.5,-593.252 1020,-583.252 1016.5,-593.252 1023.5,-593.252"/>
</g>
<!-- Node49 -->
<g id="node49" class="node"><title>Node49</title>
<polygon fill="none" stroke="#bfbfbf" points="1100.5,-496.5 1100.5,-515.5 1143.5,-515.5 1143.5,-496.5 1100.5,-496.5"/>
<text text-anchor="middle" x="1122" y="-503.5" font-family="Helvetica,sans-Serif" font-size="10.00">deque</text>
</g>
<!-- Node1&#45;&gt;Node49 -->
<g id="edge73" class="edge"><title>Node1&#45;&gt;Node49</title>
<path fill="none" stroke="midnightblue" d="M1065.12,-620.785C1079.11,-610.963 1093.36,-598.54 1103,-584 1114.62,-566.472 1119.14,-542.447 1120.89,-525.919"/>
<polygon fill="midnightblue" stroke="midnightblue" points="1124.39,-526.098 1121.72,-515.846 1117.41,-525.527 1124.39,-526.098"/>
</g>
<!-- Node3 -->
<g id="node3" class="node"><title>Node3</title>
<g id="a_node3"><a xlink:href="../../de/dc8/DigitRow_8h.html" target="_top" xlink:title="Definition of the Row container. ">
<polygon fill="none" stroke="black" points="380,-272.5 380,-291.5 514,-291.5 514,-272.5 380,-272.5"/>
<text text-anchor="middle" x="447" y="-279.5" font-family="Helvetica,sans-Serif" font-size="10.00">TPCSimulation/DigitRow.h</text>
</a>
</g>
</g>
<!-- Node2&#45;&gt;Node3 -->
<g id="edge2" class="edge"><title>Node2&#45;&gt;Node3</title>
<path fill="none" stroke="midnightblue" d="M673.926,-558.383C629.062,-544.157 553,-511.167 553,-451 553,-451 553,-451 553,-393 553,-347.815 506.05,-314.052 474.643,-296.521"/>
<polygon fill="midnightblue" stroke="midnightblue" points="475.932,-293.241 465.464,-291.607 472.628,-299.412 475.932,-293.241"/>
</g>
<!-- Node4 -->
<g id="node4" class="node"><title>Node4</title>
<g id="a_node4"><a xlink:href="../../d3/d5d/DigitPad_8h.html" target="_top" xlink:title="Definition of the Pad container. ">
<polygon fill="none" stroke="black" points="536.5,-210.5 536.5,-229.5 667.5,-229.5 667.5,-210.5 536.5,-210.5"/>
<text text-anchor="middle" x="602" y="-217.5" font-family="Helvetica,sans-Serif" font-size="10.00">TPCSimulation/DigitPad.h</text>
</a>
</g>
</g>
<!-- Node3&#45;&gt;Node4 -->
<g id="edge3" class="edge"><title>Node3&#45;&gt;Node4</title>
<path fill="none" stroke="midnightblue" d="M469.208,-272.403C495.681,-262.156 540.114,-244.956 570.22,-233.302"/>
<polygon fill="midnightblue" stroke="midnightblue" points="571.771,-236.455 579.833,-229.581 569.244,-229.927 571.771,-236.455"/>
</g>
<!-- Node15 -->
<g id="node15" class="node"><title>Node15</title>
<g id="a_node15"><a xlink:href="../../df/db1/TPC_2base_2include_2TPCBase_2Digit_8h.html" target="_top" xlink:title="TPCBase/Digit.h">
<polygon fill="none" stroke="black" points="266.5,-210.5 266.5,-229.5 357.5,-229.5 357.5,-210.5 266.5,-210.5"/>
<text text-anchor="middle" x="312" y="-217.5" font-family="Helvetica,sans-Serif" font-size="10.00">TPCBase/Digit.h</text>
</a>
</g>
</g>
<!-- Node3&#45;&gt;Node15 -->
<g id="edge14" class="edge"><title>Node3&#45;&gt;Node15</title>
<path fill="none" stroke="midnightblue" d="M427.658,-272.403C404.901,-262.29 366.908,-245.404 340.712,-233.761"/>
<polygon fill="midnightblue" stroke="midnightblue" points="341.866,-230.444 331.306,-229.581 339.023,-236.84 341.866,-230.444"/>
</g>
<!-- Node18 -->
<g id="node18" class="node"><title>Node18</title>
<g id="a_node18"><a xlink:href="../../dd/df5/DigitMCMetaData_8h.html" target="_top" xlink:title="Definition of the Meta Data object of the Monte Carlo Digit. ">
<polygon fill="none" stroke="black" points="375.5,-205 375.5,-235 518.5,-235 518.5,-205 375.5,-205"/>
<text text-anchor="start" x="383.5" y="-223" font-family="Helvetica,sans-Serif" font-size="10.00">TPCSimulation/DigitMCMeta</text>
<text text-anchor="middle" x="447" y="-212" font-family="Helvetica,sans-Serif" font-size="10.00">Data.h</text>
</a>
</g>
</g>
<!-- Node3&#45;&gt;Node18 -->
<g id="edge18" class="edge"><title>Node3&#45;&gt;Node18</title>
<path fill="none" stroke="midnightblue" d="M447,-272.403C447,-265.341 447,-254.975 447,-245.399"/>
<polygon fill="midnightblue" stroke="midnightblue" points="450.5,-245.141 447,-235.141 443.5,-245.141 450.5,-245.141"/>
</g>
<!-- Node19 -->
<g id="node19" class="node"><title>Node19</title>
<polygon fill="none" stroke="#bfbfbf" points="196,-210.5 196,-229.5 248,-229.5 248,-210.5 196,-210.5"/>
<text text-anchor="middle" x="222" y="-217.5" font-family="Helvetica,sans-Serif" font-size="10.00">memory</text>
</g>
<!-- Node3&#45;&gt;Node19 -->
<g id="edge20" class="edge"><title>Node3&#45;&gt;Node19</title>
<path fill="none" stroke="midnightblue" d="M401.087,-272.439C362.219,-264.644 305.287,-251.933 257,-236 254.583,-235.202 252.101,-234.306 249.629,-233.357"/>
<polygon fill="midnightblue" stroke="midnightblue" points="250.879,-230.087 240.298,-229.546 248.232,-236.567 250.879,-230.087"/>
</g>
<!-- Node5 -->
<g id="node5" class="node"><title>Node5</title>
<polygon fill="none" stroke="#bfbfbf" points="725.5,-142.5 725.5,-161.5 760.5,-161.5 760.5,-142.5 725.5,-142.5"/>
<text text-anchor="middle" x="743" y="-149.5" font-family="Helvetica,sans-Serif" font-size="10.00">map</text>
</g>
<!-- Node4&#45;&gt;Node5 -->
<g id="edge4" class="edge"><title>Node4&#45;&gt;Node5</title>
<path fill="none" stroke="midnightblue" d="M622.428,-210.493C645.434,-200.767 683.812,-184.104 716,-168 716.983,-167.508 717.982,-166.999 718.988,-166.478"/>
<polygon fill="midnightblue" stroke="midnightblue" points="720.834,-169.459 727.986,-161.642 717.521,-163.293 720.834,-169.459"/>
</g>
<!-- Node6 -->
<g id="node6" class="node"><title>Node6</title>
<polygon fill="none" stroke="#bfbfbf" points="475,-142.5 475,-161.5 575,-161.5 575,-142.5 475,-142.5"/>
<text text-anchor="middle" x="525" y="-149.5" font-family="Helvetica,sans-Serif" font-size="10.00">FairRootManager.h</text>
</g>
<!-- Node4&#45;&gt;Node6 -->
<g id="edge5" class="edge"><title>Node4&#45;&gt;Node6</title>
<path fill="none" stroke="midnightblue" d="M591.934,-210.372C579.551,-199.758 558.303,-181.545 543.066,-168.485"/>
<polygon fill="midnightblue" stroke="midnightblue" points="545.185,-165.692 535.315,-161.841 540.629,-171.006 545.185,-165.692"/>
</g>
<!-- Node7 -->
<g id="node7" class="node"><title>Node7</title>
<g id="a_node7"><a xlink:href="../../db/d14/MCTruthContainer_8h.html" target="_top" xlink:title="Definition of a container to keep Monte Carlo truth external to simulation objects. ">
<polygon fill="none" stroke="black" points="117,-137 117,-167 231,-167 231,-137 117,-137"/>
<text text-anchor="start" x="125" y="-155" font-family="Helvetica,sans-Serif" font-size="10.00">SimulationDataFormat</text>
<text text-anchor="middle" x="174" y="-144" font-family="Helvetica,sans-Serif" font-size="10.00">/MCTruthContainer.h</text>
</a>
</g>
</g>
<!-- Node4&#45;&gt;Node7 -->
<g id="edge6" class="edge"><title>Node4&#45;&gt;Node7</title>
<path fill="none" stroke="midnightblue" d="M562.007,-210.442C550.717,-208.179 538.403,-205.853 527,-204 403.331,-183.904 368.372,-189.94 241.291,-168.119"/>
<polygon fill="midnightblue" stroke="midnightblue" points="241.62,-164.623 231.167,-166.356 240.419,-171.52 241.62,-164.623"/>
</g>
<!-- Node13 -->
<g id="node13" class="node"><title>Node13</title>
<g id="a_node13"><a xlink:href="../../d7/dcd/MCCompLabel_8h.html" target="_top" xlink:title="SimulationDataFormat\l/MCCompLabel.h">
<polygon fill="none" stroke="black" points="593,-137 593,-167 707,-167 707,-137 593,-137"/>
<text text-anchor="start" x="601" y="-155" font-family="Helvetica,sans-Serif" font-size="10.00">SimulationDataFormat</text>
<text text-anchor="middle" x="650" y="-144" font-family="Helvetica,sans-Serif" font-size="10.00">/MCCompLabel.h</text>
</a>
</g>
</g>
<!-- Node4&#45;&gt;Node13 -->
<g id="edge12" class="edge"><title>Node4&#45;&gt;Node13</title>
<path fill="none" stroke="midnightblue" d="M608.275,-210.372C614.696,-201.543 624.941,-187.456 633.672,-175.45"/>
<polygon fill="midnightblue" stroke="midnightblue" points="636.635,-177.327 639.686,-167.181 630.974,-173.21 636.635,-177.327"/>
</g>
<!-- Node8 -->
<g id="node8" class="node"><title>Node8</title>
<polygon fill="none" stroke="#bfbfbf" points="143,-74.5 143,-93.5 205,-93.5 205,-74.5 143,-74.5"/>
<text text-anchor="middle" x="174" y="-81.5" font-family="Helvetica,sans-Serif" font-size="10.00">TNamed.h</text>
</g>
<!-- Node7&#45;&gt;Node8 -->
<g id="edge7" class="edge"><title>Node7&#45;&gt;Node8</title>
<path fill="none" stroke="midnightblue" d="M174,-136.679C174,-127.101 174,-114.394 174,-103.977"/>
<polygon fill="midnightblue" stroke="midnightblue" points="177.5,-103.828 174,-93.8283 170.5,-103.828 177.5,-103.828"/>
</g>
<!-- Node9 -->
<g id="node9" class="node"><title>Node9</title>
<polygon fill="none" stroke="#bfbfbf" points="223.5,-74.5 223.5,-93.5 272.5,-93.5 272.5,-74.5 223.5,-74.5"/>
<text text-anchor="middle" x="248" y="-81.5" font-family="Helvetica,sans-Serif" font-size="10.00">cassert</text>
</g>
<!-- Node7&#45;&gt;Node9 -->
<g id="edge8" class="edge"><title>Node7&#45;&gt;Node9</title>
<path fill="none" stroke="midnightblue" d="M190.057,-136.679C201.938,-126.082 218.115,-111.655 230.356,-100.736"/>
<polygon fill="midnightblue" stroke="midnightblue" points="232.968,-103.097 238.102,-93.8283 228.309,-97.8724 232.968,-103.097"/>
</g>
<!-- Node10 -->
<g id="node10" class="node"><title>Node10</title>
<polygon fill="none" stroke="#bfbfbf" points="290.5,-74.5 290.5,-93.5 349.5,-93.5 349.5,-74.5 290.5,-74.5"/>
<text text-anchor="middle" x="320" y="-81.5" font-family="Helvetica,sans-Serif" font-size="10.00">stdexcept</text>
</g>
<!-- Node7&#45;&gt;Node10 -->
<g id="edge9" class="edge"><title>Node7&#45;&gt;Node10</title>
<path fill="none" stroke="midnightblue" d="M205.321,-136.841C230.914,-125.272 266.786,-109.055 291.564,-97.8547"/>
<polygon fill="midnightblue" stroke="midnightblue" points="293.124,-100.99 300.795,-93.6819 290.241,-94.6119 293.124,-100.99"/>
</g>
<!-- Node11 -->
<g id="node11" class="node"><title>Node11</title>
<polygon fill="none" stroke="#bfbfbf" points="-0.5,-74.5 -0.5,-93.5 44.5,-93.5 44.5,-74.5 -0.5,-74.5"/>
<text text-anchor="middle" x="22" y="-81.5" font-family="Helvetica,sans-Serif" font-size="10.00">gsl/gsl</text>
</g>
<!-- Node7&#45;&gt;Node11 -->
<g id="edge10" class="edge"><title>Node7&#45;&gt;Node11</title>
<path fill="none" stroke="midnightblue" d="M139.977,-136.929C115.875,-126.866 82.8325,-112.879 54,-100 52.4209,-99.2946 50.8016,-98.5627 49.1701,-97.8187"/>
<polygon fill="midnightblue" stroke="midnightblue" points="50.4326,-94.5465 39.8871,-93.525 47.4939,-100.9 50.4326,-94.5465"/>
</g>
<!-- Node12 -->
<g id="node12" class="node"><title>Node12</title>
<polygon fill="none" stroke="#bfbfbf" points="63,-74.5 63,-93.5 125,-93.5 125,-74.5 63,-74.5"/>
<text text-anchor="middle" x="94" y="-81.5" font-family="Helvetica,sans-Serif" font-size="10.00">type_traits</text>
</g>
<!-- Node7&#45;&gt;Node12 -->
<g id="edge11" class="edge"><title>Node7&#45;&gt;Node12</title>
<path fill="none" stroke="midnightblue" d="M156.641,-136.679C143.673,-125.981 125.972,-111.377 112.694,-100.422"/>
<polygon fill="midnightblue" stroke="midnightblue" points="114.642,-97.4923 104.701,-93.8283 110.187,-102.892 114.642,-97.4923"/>
</g>
<!-- Node14 -->
<g id="node14" class="node"><title>Node14</title>
<polygon fill="none" stroke="#bfbfbf" points="421,-74.5 421,-93.5 477,-93.5 477,-74.5 421,-74.5"/>
<text text-anchor="middle" x="449" y="-81.5" font-family="Helvetica,sans-Serif" font-size="10.00">Rtypes.h</text>
</g>
<!-- Node13&#45;&gt;Node14 -->
<g id="edge13" class="edge"><title>Node13&#45;&gt;Node14</title>
<path fill="none" stroke="midnightblue" d="M606.88,-136.841C570.449,-124.879 518.89,-107.949 484.728,-96.7315"/>
<polygon fill="midnightblue" stroke="midnightblue" points="485.744,-93.3813 475.151,-93.5868 483.56,-100.032 485.744,-93.3813"/>
</g>
<!-- Node16 -->
<g id="node16" class="node"><title>Node16</title>
<g id="a_node16"><a xlink:href="../../df/d5d/common_2include_2CommonDataFormat_2TimeStamp_8h.html" target="_top" xlink:title="CommonDataFormat/TimeStamp.h">
<polygon fill="none" stroke="black" points="249,-142.5 249,-161.5 419,-161.5 419,-142.5 249,-142.5"/>
<text text-anchor="middle" x="334" y="-149.5" font-family="Helvetica,sans-Serif" font-size="10.00">CommonDataFormat/TimeStamp.h</text>
</a>
</g>
</g>
<!-- Node15&#45;&gt;Node16 -->
<g id="edge15" class="edge"><title>Node15&#45;&gt;Node16</title>
<path fill="none" stroke="midnightblue" d="M314.876,-210.372C318.152,-200.544 323.599,-184.202 327.844,-171.467"/>
<polygon fill="midnightblue" stroke="midnightblue" points="331.211,-172.435 331.053,-161.841 324.57,-170.221 331.211,-172.435"/>
</g>
<!-- Node17 -->
<g id="node17" class="node"><title>Node17</title>
<polygon fill="none" stroke="#bfbfbf" points="39.5,-142.5 39.5,-161.5 98.5,-161.5 98.5,-142.5 39.5,-142.5"/>
<text text-anchor="middle" x="69" y="-149.5" font-family="Helvetica,sans-Serif" font-size="10.00">TObject.h</text>
</g>
<!-- Node15&#45;&gt;Node17 -->
<g id="edge17" class="edge"><title>Node15&#45;&gt;Node17</title>
<path fill="none" stroke="midnightblue" d="M281.208,-210.432C273.328,-208.286 264.86,-206.021 257,-204 191.018,-187.035 173.042,-188.271 108,-168 105.208,-167.13 102.328,-166.162 99.4576,-165.148"/>
<polygon fill="midnightblue" stroke="midnightblue" points="100.467,-161.79 89.8735,-161.603 98.0382,-168.355 100.467,-161.79"/>
</g>
<!-- Node16&#45;&gt;Node14 -->
<g id="edge16" class="edge"><title>Node16&#45;&gt;Node14</title>
<path fill="none" stroke="midnightblue" d="M349.034,-142.372C368.405,-131.254 402.304,-111.8 425.194,-98.6624"/>
<polygon fill="midnightblue" stroke="midnightblue" points="427.031,-101.644 433.962,-93.6305 423.547,-95.5725 427.031,-101.644"/>
</g>
<!-- Node18&#45;&gt;Node14 -->
<g id="edge19" class="edge"><title>Node18&#45;&gt;Node14</title>
<path fill="none" stroke="midnightblue" d="M447.214,-204.66C447.577,-180.32 448.314,-130.933 448.719,-103.837"/>
<polygon fill="midnightblue" stroke="midnightblue" points="452.22,-103.779 448.87,-93.7275 445.221,-103.674 452.22,-103.779"/>
</g>
<!-- Node21 -->
<g id="node21" class="node"><title>Node21</title>
<g id="a_node21"><a xlink:href="../../dc/d14/ROC_8h.html" target="_top" xlink:title="TPCBase/ROC.h">
<polygon fill="none" stroke="black" points="967.5,-328.5 967.5,-347.5 1060.5,-347.5 1060.5,-328.5 967.5,-328.5"/>
<text text-anchor="middle" x="1014" y="-335.5" font-family="Helvetica,sans-Serif" font-size="10.00">TPCBase/ROC.h</text>
</a>
</g>
</g>
<!-- Node20&#45;&gt;Node21 -->
<g id="edge22" class="edge"><title>Node20&#45;&gt;Node21</title>
<path fill="none" stroke="midnightblue" d="M980.652,-552.967C942.214,-536.958 885.712,-506.776 859,-460 842.236,-430.645 835.632,-410.979 856,-384 868.436,-367.527 917.314,-355.297 957.452,-347.777"/>
<polygon fill="midnightblue" stroke="midnightblue" points="958.225,-351.194 967.441,-345.967 956.977,-344.307 958.225,-351.194"/>
</g>
<!-- Node37 -->
<g id="node37" class="node"><title>Node37</title>
<g id="a_node37"><a xlink:href="../../d7/d2c/Mapper_8h.html" target="_top" xlink:title="TPCBase/Mapper.h">
<polygon fill="none" stroke="black" points="979.5,-496.5 979.5,-515.5 1082.5,-515.5 1082.5,-496.5 979.5,-496.5"/>
<text text-anchor="middle" x="1031" y="-503.5" font-family="Helvetica,sans-Serif" font-size="10.00">TPCBase/Mapper.h</text>
</a>
</g>
</g>
<!-- Node20&#45;&gt;Node37 -->
<g id="edge41" class="edge"><title>Node20&#45;&gt;Node37</title>
<path fill="none" stroke="midnightblue" d="M1022.61,-552.781C1024.09,-544.691 1025.97,-534.462 1027.57,-525.725"/>
<polygon fill="midnightblue" stroke="midnightblue" points="1031.04,-526.198 1029.4,-515.731 1024.15,-524.935 1031.04,-526.198"/>
</g>
<!-- Node20&#45;&gt;Node49 -->
<g id="edge72" class="edge"><title>Node20&#45;&gt;Node49</title>
<path fill="none" stroke="midnightblue" d="M1043.91,-552.933C1060.35,-543.262 1082.09,-530.479 1098.45,-520.855"/>
<polygon fill="midnightblue" stroke="midnightblue" points="1100.54,-523.687 1107.38,-515.6 1096.99,-517.654 1100.54,-523.687"/>
</g>
<!-- Node22 -->
<g id="node22" class="node"><title>Node22</title>
<g id="a_node22"><a xlink:href="../../d1/d73/Defs_8h.html" target="_top" xlink:title="Common definitions for 2D coordinates. ">
<polygon fill="none" stroke="black" points="1035,-210.5 1035,-229.5 1127,-229.5 1127,-210.5 1035,-210.5"/>
<text text-anchor="middle" x="1081" y="-217.5" font-family="Helvetica,sans-Serif" font-size="10.00">TPCBase/Defs.h</text>
</a>
</g>
</g>
<!-- Node21&#45;&gt;Node22 -->
<g id="edge23" class="edge"><title>Node21&#45;&gt;Node22</title>
<path fill="none" stroke="midnightblue" d="M1019.04,-328.281C1030.05,-309.21 1056.46,-263.488 1070.99,-238.327"/>
<polygon fill="midnightblue" stroke="midnightblue" points="1074.12,-239.915 1076.09,-229.505 1068.06,-236.414 1074.12,-239.915"/>
</g>
<!-- Node35 -->
<g id="node35" class="node"><title>Node35</title>
<g id="a_node35"><a xlink:href="../../d3/dd6/Sector_8h.html" target="_top" xlink:title="TPCBase/Sector.h">
<polygon fill="none" stroke="black" points="889.5,-272.5 889.5,-291.5 988.5,-291.5 988.5,-272.5 889.5,-272.5"/>
<text text-anchor="middle" x="939" y="-279.5" font-family="Helvetica,sans-Serif" font-size="10.00">TPCBase/Sector.h</text>
</a>
</g>
</g>
<!-- Node21&#45;&gt;Node35 -->
<g id="edge38" class="edge"><title>Node21&#45;&gt;Node35</title>
<path fill="none" stroke="midnightblue" d="M1001.95,-328.324C990.537,-320.107 973.169,-307.602 959.565,-297.807"/>
<polygon fill="midnightblue" stroke="midnightblue" points="961.43,-294.837 951.269,-291.834 957.34,-300.517 961.43,-294.837"/>
</g>
<!-- Node23 -->
<g id="node23" class="node"><title>Node23</title>
<polygon fill="none" stroke="#bfbfbf" points="1335,-142.5 1335,-161.5 1379,-161.5 1379,-142.5 1335,-142.5"/>
<text text-anchor="middle" x="1357" y="-149.5" font-family="Helvetica,sans-Serif" font-size="10.00">cmath</text>
</g>
<!-- Node22&#45;&gt;Node23 -->
<g id="edge24" class="edge"><title>Node22&#45;&gt;Node23</title>
<path fill="none" stroke="midnightblue" d="M1116.8,-210.439C1170.97,-197.485 1272.95,-173.099 1324.87,-160.684"/>
<polygon fill="midnightblue" stroke="midnightblue" points="1325.94,-164.026 1334.85,-158.296 1324.31,-157.218 1325.94,-164.026"/>
</g>
<!-- Node24 -->
<g id="node24" class="node"><title>Node24</title>
<g id="a_node24"><a xlink:href="../../d2/dd0/Cartesian2D_8h.html" target="_top" xlink:title="MathUtils/Cartesian2D.h">
<polygon fill="none" stroke="black" points="527.5,-74.5 527.5,-93.5 652.5,-93.5 652.5,-74.5 527.5,-74.5"/>
<text text-anchor="middle" x="590" y="-81.5" font-family="Helvetica,sans-Serif" font-size="10.00">MathUtils/Cartesian2D.h</text>
</a>
</g>
</g>
<!-- Node22&#45;&gt;Node24 -->
<g id="edge25" class="edge"><title>Node22&#45;&gt;Node24</title>
<path fill="none" stroke="midnightblue" d="M1049.54,-210.414C963.972,-187.062 727.031,-122.397 631.109,-96.2191"/>
<polygon fill="midnightblue" stroke="midnightblue" points="631.768,-92.771 621.199,-93.5146 629.925,-99.5241 631.768,-92.771"/>
</g>
<!-- Node27 -->
<g id="node27" class="node"><title>Node27</title>
<g id="a_node27"><a xlink:href="../../dd/d76/Cartesian3D_8h.html" target="_top" xlink:title="MathUtils/Cartesian3D.h">
<polygon fill="none" stroke="black" points="1001.5,-142.5 1001.5,-161.5 1126.5,-161.5 1126.5,-142.5 1001.5,-142.5"/>
<text text-anchor="middle" x="1064" y="-149.5" font-family="Helvetica,sans-Serif" font-size="10.00">MathUtils/Cartesian3D.h</text>
</a>
</g>
</g>
<!-- Node22&#45;&gt;Node27 -->
<g id="edge28" class="edge"><title>Node22&#45;&gt;Node27</title>
<path fill="none" stroke="midnightblue" d="M1078.78,-210.372C1076.27,-200.643 1072.12,-184.528 1068.86,-171.85"/>
<polygon fill="midnightblue" stroke="midnightblue" points="1072.16,-170.652 1066.28,-161.841 1065.38,-172.398 1072.16,-170.652"/>
</g>
<!-- Node25 -->
<g id="node25" class="node"><title>Node25</title>
<polygon fill="none" stroke="#bfbfbf" points="423.5,-1 423.5,-31 574.5,-31 574.5,-1 423.5,-1"/>
<text text-anchor="start" x="431.5" y="-19" font-family="Helvetica,sans-Serif" font-size="10.00">Math/GenVector/Displacement</text>
<text text-anchor="middle" x="499" y="-8" font-family="Helvetica,sans-Serif" font-size="10.00">Vector2D.h</text>
</g>
<!-- Node24&#45;&gt;Node25 -->
<g id="edge26" class="edge"><title>Node24&#45;&gt;Node25</title>
<path fill="none" stroke="midnightblue" d="M578.103,-74.3717C565.221,-65.0286 544.22,-49.7966 527.093,-37.375"/>
<polygon fill="midnightblue" stroke="midnightblue" points="528.703,-34.2194 518.553,-31.1815 524.593,-39.8859 528.703,-34.2194"/>
</g>
<!-- Node26 -->
<g id="node26" class="node"><title>Node26</title>
<polygon fill="none" stroke="#bfbfbf" points="593,-6.5 593,-25.5 769,-25.5 769,-6.5 593,-6.5"/>
<text text-anchor="middle" x="681" y="-13.5" font-family="Helvetica,sans-Serif" font-size="10.00">Math/GenVector/PositionVector2D.h</text>
</g>
<!-- Node24&#45;&gt;Node26 -->
<g id="edge27" class="edge"><title>Node24&#45;&gt;Node26</title>
<path fill="none" stroke="midnightblue" d="M601.897,-74.3717C616.884,-63.5015 642.862,-44.6602 660.942,-31.5474"/>
<polygon fill="midnightblue" stroke="midnightblue" points="663.06,-34.3349 669.1,-25.6305 658.95,-28.6684 663.06,-34.3349"/>
</g>
<!-- Node27&#45;&gt;Node14 -->
<g id="edge34" class="edge"><title>Node27&#45;&gt;Node14</title>
<path fill="none" stroke="midnightblue" d="M1001.47,-147.625C899.684,-141.581 692.054,-126.947 518,-100 507.93,-98.4409 497.124,-96.3128 487.123,-94.1496"/>
<polygon fill="midnightblue" stroke="midnightblue" points="487.578,-90.6652 477.056,-91.905 486.054,-97.4974 487.578,-90.6652"/>
</g>
<!-- Node27&#45;&gt;Node24 -->
<g id="edge37" class="edge"><title>Node27&#45;&gt;Node24</title>
<path fill="none" stroke="midnightblue" d="M1001.45,-144.618C922.197,-136.174 781.518,-119.999 662,-100 654.208,-98.6962 645.976,-97.1463 637.973,-95.5455"/>
<polygon fill="midnightblue" stroke="midnightblue" points="638.507,-92.0822 628.008,-93.5054 637.102,-98.94 638.507,-92.0822"/>
</g>
<!-- Node28 -->
<g id="node28" class="node"><title>Node28</title>
<polygon fill="none" stroke="#bfbfbf" points="1117.5,-69 1117.5,-99 1268.5,-99 1268.5,-69 1117.5,-69"/>
<text text-anchor="start" x="1125.5" y="-87" font-family="Helvetica,sans-Serif" font-size="10.00">Math/GenVector/Displacement</text>
<text text-anchor="middle" x="1193" y="-76" font-family="Helvetica,sans-Serif" font-size="10.00">Vector3D.h</text>
</g>
<!-- Node27&#45;&gt;Node28 -->
<g id="edge29" class="edge"><title>Node27&#45;&gt;Node28</title>
<path fill="none" stroke="midnightblue" d="M1080.86,-142.372C1099.88,-132.643 1131.38,-116.529 1156.15,-103.851"/>
<polygon fill="midnightblue" stroke="midnightblue" points="1157.97,-106.852 1165.28,-99.1815 1154.79,-100.62 1157.97,-106.852"/>
</g>
<!-- Node29 -->
<g id="node29" class="node"><title>Node29</title>
<polygon fill="none" stroke="#bfbfbf" points="1287,-74.5 1287,-93.5 1463,-93.5 1463,-74.5 1287,-74.5"/>
<text text-anchor="middle" x="1375" y="-81.5" font-family="Helvetica,sans-Serif" font-size="10.00">Math/GenVector/PositionVector3D.h</text>
</g>
<!-- Node27&#45;&gt;Node29 -->
<g id="edge30" class="edge"><title>Node27&#45;&gt;Node29</title>
<path fill="none" stroke="midnightblue" d="M1104.34,-142.439C1160.85,-130.446 1263.54,-108.654 1324.89,-95.6351"/>
<polygon fill="midnightblue" stroke="midnightblue" points="1325.68,-99.0453 1334.73,-93.5455 1324.22,-92.1978 1325.68,-99.0453"/>
</g>
<!-- Node30 -->
<g id="node30" class="node"><title>Node30</title>
<polygon fill="none" stroke="#bfbfbf" points="1480.5,-74.5 1480.5,-93.5 1629.5,-93.5 1629.5,-74.5 1480.5,-74.5"/>
<text text-anchor="middle" x="1555" y="-81.5" font-family="Helvetica,sans-Serif" font-size="10.00">Math/GenVector/Rotation3D.h</text>
</g>
<!-- Node27&#45;&gt;Node30 -->
<g id="edge31" class="edge"><title>Node27&#45;&gt;Node30</title>
<path fill="none" stroke="midnightblue" d="M1126.54,-144.186C1206.56,-135.234 1349.37,-118.467 1471,-100 1480.35,-98.5806 1490.26,-96.9365 1499.87,-95.268"/>
<polygon fill="midnightblue" stroke="midnightblue" points="1500.49,-98.7115 1509.73,-93.5289 1499.28,-91.8177 1500.49,-98.7115"/>
</g>
<!-- Node31 -->
<g id="node31" class="node"><title>Node31</title>
<polygon fill="none" stroke="#bfbfbf" points="671,-74.5 671,-93.5 827,-93.5 827,-74.5 671,-74.5"/>
<text text-anchor="middle" x="749" y="-81.5" font-family="Helvetica,sans-Serif" font-size="10.00">Math/GenVector/Transform3D.h</text>
</g>
<!-- Node27&#45;&gt;Node31 -->
<g id="edge32" class="edge"><title>Node27&#45;&gt;Node31</title>
<path fill="none" stroke="midnightblue" d="M1023.14,-142.439C965.901,-130.446 861.896,-108.654 799.759,-95.6351"/>
<polygon fill="midnightblue" stroke="midnightblue" points="800.291,-92.1707 789.785,-93.5455 798.855,-99.0219 800.291,-92.1707"/>
</g>
<!-- Node32 -->
<g id="node32" class="node"><title>Node32</title>
<polygon fill="none" stroke="#bfbfbf" points="845,-74.5 845,-93.5 1005,-93.5 1005,-74.5 845,-74.5"/>
<text text-anchor="middle" x="925" y="-81.5" font-family="Helvetica,sans-Serif" font-size="10.00">Math/GenVector/Translation3D.h</text>
</g>
<!-- Node27&#45;&gt;Node32 -->
<g id="edge33" class="edge"><title>Node27&#45;&gt;Node32</title>
<path fill="none" stroke="midnightblue" d="M1045.83,-142.372C1022,-131.057 979.979,-111.105 952.311,-97.9678"/>
<polygon fill="midnightblue" stroke="midnightblue" points="953.711,-94.7581 943.176,-93.6305 950.708,-101.081 953.711,-94.7581"/>
</g>
<!-- Node33 -->
<g id="node33" class="node"><title>Node33</title>
<polygon fill="none" stroke="#bfbfbf" points="1023,-74.5 1023,-93.5 1099,-93.5 1099,-74.5 1023,-74.5"/>
<text text-anchor="middle" x="1061" y="-81.5" font-family="Helvetica,sans-Serif" font-size="10.00">TGeoMatrix.h</text>
</g>
<!-- Node27&#45;&gt;Node33 -->
<g id="edge35" class="edge"><title>Node27&#45;&gt;Node33</title>
<path fill="none" stroke="midnightblue" d="M1063.61,-142.372C1063.17,-132.643 1062.43,-116.528 1061.86,-103.85"/>
<polygon fill="midnightblue" stroke="midnightblue" points="1065.35,-103.672 1061.4,-93.8411 1058.36,-103.99 1065.35,-103.672"/>
</g>
<!-- Node34 -->
<g id="node34" class="node"><title>Node34</title>
<polygon fill="none" stroke="#bfbfbf" points="1647,-74.5 1647,-93.5 1701,-93.5 1701,-74.5 1647,-74.5"/>
<text text-anchor="middle" x="1674" y="-81.5" font-family="Helvetica,sans-Serif" font-size="10.00">iostream</text>
</g>
<!-- Node27&#45;&gt;Node34 -->
<g id="edge36" class="edge"><title>Node27&#45;&gt;Node34</title>
<path fill="none" stroke="midnightblue" d="M1126.65,-147.855C1254.72,-141.029 1542.44,-123.557 1638,-100 1640.99,-99.2621 1644.06,-98.3122 1647.08,-97.249"/>
<polygon fill="midnightblue" stroke="midnightblue" points="1648.39,-100.496 1656.42,-93.5878 1645.83,-93.9789 1648.39,-100.496"/>
</g>
<!-- Node35&#45;&gt;Node22 -->
<g id="edge40" class="edge"><title>Node35&#45;&gt;Node22</title>
<path fill="none" stroke="midnightblue" d="M959.345,-272.403C983.387,-262.245 1023.6,-245.255 1051.16,-233.607"/>
<polygon fill="midnightblue" stroke="midnightblue" points="1052.84,-236.697 1060.69,-229.581 1050.12,-230.249 1052.84,-236.697"/>
</g>
<!-- Node36 -->
<g id="node36" class="node"><title>Node36</title>
<g id="a_node36"><a xlink:href="../../d6/d51/TPC_2base_2include_2TPCBase_2Constants_8h.html" target="_top" xlink:title="TPCBase/Constants.h">
<polygon fill="none" stroke="black" points="881,-210.5 881,-229.5 997,-229.5 997,-210.5 881,-210.5"/>
<text text-anchor="middle" x="939" y="-217.5" font-family="Helvetica,sans-Serif" font-size="10.00">TPCBase/Constants.h</text>
</a>
</g>
</g>
<!-- Node35&#45;&gt;Node36 -->
<g id="edge39" class="edge"><title>Node35&#45;&gt;Node36</title>
<path fill="none" stroke="midnightblue" d="M939,-272.403C939,-263.938 939,-250.728 939,-239.82"/>
<polygon fill="midnightblue" stroke="midnightblue" points="942.5,-239.581 939,-229.581 935.5,-239.581 942.5,-239.581"/>
</g>
<!-- Node37&#45;&gt;Node5 -->
<g id="edge42" class="edge"><title>Node37&#45;&gt;Node5</title>
<path fill="none" stroke="midnightblue" d="M979.39,-498.929C885.42,-486.427 696,-453.919 696,-395 696,-395 696,-395 696,-281 696,-239.179 718.382,-194.123 732.255,-170.212"/>
<polygon fill="midnightblue" stroke="midnightblue" points="735.28,-171.973 737.424,-161.597 729.278,-168.371 735.28,-171.973"/>
</g>
<!-- Node37&#45;&gt;Node22 -->
<g id="edge47" class="edge"><title>Node37&#45;&gt;Node22</title>
<path fill="none" stroke="midnightblue" d="M979.083,-499.573C929.984,-493.243 861.436,-480.887 845,-460 824.112,-433.455 839.904,-417.391 845,-384 852.868,-332.445 842.134,-307.86 880,-272 890.858,-261.717 972.297,-243.297 1028.12,-231.636"/>
<polygon fill="midnightblue" stroke="midnightblue" points="1029.14,-234.998 1038.22,-229.54 1027.72,-228.144 1029.14,-234.998"/>
</g>
<!-- Node37&#45;&gt;Node23 -->
<g id="edge46" class="edge"><title>Node37&#45;&gt;Node23</title>
<path fill="none" stroke="midnightblue" d="M1082.68,-497.044C1085.49,-496.675 1088.28,-496.324 1091,-496 1181.16,-485.261 1421.31,-508.614 1498,-460 1526.26,-442.083 1536,-428.463 1536,-395 1536,-395 1536,-395 1536,-281 1536,-209.695 1440.85,-174.325 1389.3,-160.394"/>
<polygon fill="midnightblue" stroke="midnightblue" points="1389.87,-156.926 1379.31,-157.815 1388.12,-163.703 1389.87,-156.926"/>
</g>
<!-- Node37&#45;&gt;Node35 -->
<g id="edge71" class="edge"><title>Node37&#45;&gt;Node35</title>
<path fill="none" stroke="midnightblue" d="M979.302,-498.238C934.371,-491.205 874.169,-478.597 859,-460 816.97,-408.47 887.156,-331.306 921.62,-298.572"/>
<polygon fill="midnightblue" stroke="midnightblue" points="924.193,-300.96 929.144,-291.593 919.433,-295.828 924.193,-300.96"/>
</g>
<!-- Node38 -->
<g id="node38" class="node"><title>Node38</title>
<polygon fill="none" stroke="#bfbfbf" points="1339,-384.5 1339,-403.5 1383,-403.5 1383,-384.5 1339,-384.5"/>
<text text-anchor="middle" x="1361" y="-391.5" font-family="Helvetica,sans-Serif" font-size="10.00">vector</text>
</g>
<!-- Node37&#45;&gt;Node38 -->
<g id="edge43" class="edge"><title>Node37&#45;&gt;Node38</title>
<path fill="none" stroke="midnightblue" d="M1033.44,-496.115C1037.9,-481.719 1048.81,-453.542 1069,-440 1164.43,-376.005 1212.22,-425.964 1325,-404 1326.28,-403.751 1327.58,-403.484 1328.9,-403.205"/>
<polygon fill="midnightblue" stroke="midnightblue" points="1330.03,-406.536 1339,-400.891 1328.47,-399.713 1330.03,-406.536"/>
</g>
<!-- Node39 -->
<g id="node39" class="node"><title>Node39</title>
<polygon fill="none" stroke="#bfbfbf" points="1078,-440.5 1078,-459.5 1116,-459.5 1116,-440.5 1078,-440.5"/>
<text text-anchor="middle" x="1097" y="-447.5" font-family="Helvetica,sans-Serif" font-size="10.00">array</text>
</g>
<!-- Node37&#45;&gt;Node39 -->
<g id="edge44" class="edge"><title>Node37&#45;&gt;Node39</title>
<path fill="none" stroke="midnightblue" d="M1041.6,-496.324C1051.46,-488.263 1066.35,-476.077 1078.22,-466.369"/>
<polygon fill="midnightblue" stroke="midnightblue" points="1080.68,-468.875 1086.2,-459.834 1076.25,-463.457 1080.68,-468.875"/>
</g>
<!-- Node40 -->
<g id="node40" class="node"><title>Node40</title>
<polygon fill="none" stroke="#bfbfbf" points="1134.5,-440.5 1134.5,-459.5 1175.5,-459.5 1175.5,-440.5 1134.5,-440.5"/>
<text text-anchor="middle" x="1155" y="-447.5" font-family="Helvetica,sans-Serif" font-size="10.00">string</text>
</g>
<!-- Node37&#45;&gt;Node40 -->
<g id="edge45" class="edge"><title>Node37&#45;&gt;Node40</title>
<path fill="none" stroke="midnightblue" d="M1050.65,-496.444C1070.96,-487.596 1102.9,-473.687 1126.1,-463.586"/>
<polygon fill="midnightblue" stroke="midnightblue" points="1127.67,-466.718 1135.44,-459.516 1124.88,-460.3 1127.67,-466.718"/>
</g>
<!-- Node41 -->
<g id="node41" class="node"><title>Node41</title>
<g id="a_node41"><a xlink:href="../../de/d41/PadPos_8h.html" target="_top" xlink:title="TPCBase/PadPos.h">
<polygon fill="none" stroke="black" points="1258.5,-328.5 1258.5,-347.5 1363.5,-347.5 1363.5,-328.5 1258.5,-328.5"/>
<text text-anchor="middle" x="1311" y="-335.5" font-family="Helvetica,sans-Serif" font-size="10.00">TPCBase/PadPos.h</text>
</a>
</g>
</g>
<!-- Node37&#45;&gt;Node41 -->
<g id="edge48" class="edge"><title>Node37&#45;&gt;Node41</title>
<path fill="none" stroke="midnightblue" d="M1082.69,-497.059C1085.5,-496.686 1088.28,-496.33 1091,-496 1133.87,-490.795 1448.91,-491.92 1478,-460 1522.64,-411.017 1415.42,-369.61 1352.61,-350.431"/>
<polygon fill="midnightblue" stroke="midnightblue" points="1353.52,-347.052 1342.94,-347.547 1351.52,-353.759 1353.52,-347.052"/>
</g>
<!-- Node42 -->
<g id="node42" class="node"><title>Node42</title>
<g id="a_node42"><a xlink:href="../../dd/d0b/PadSecPos_8h.html" target="_top" xlink:title="TPCBase/PadSecPos.h">
<polygon fill="none" stroke="black" points="865,-384.5 865,-403.5 987,-403.5 987,-384.5 865,-384.5"/>
<text text-anchor="middle" x="926" y="-391.5" font-family="Helvetica,sans-Serif" font-size="10.00">TPCBase/PadSecPos.h</text>
</a>
</g>
</g>
<!-- Node37&#45;&gt;Node42 -->
<g id="edge49" class="edge"><title>Node37&#45;&gt;Node42</title>
<path fill="none" stroke="midnightblue" d="M979.369,-497.73C936.601,-490.526 880.696,-477.96 867,-460 852.687,-441.231 877.287,-421.382 898.954,-408.629"/>
<polygon fill="midnightblue" stroke="midnightblue" points="900.908,-411.547 907.939,-403.621 897.5,-405.432 900.908,-411.547"/>
</g>
<!-- Node43 -->
<g id="node43" class="node"><title>Node43</title>
<g id="a_node43"><a xlink:href="../../da/d61/PadROCPos_8h.html" target="_top" xlink:title="TPCBase/PadROCPos.h">
<polygon fill="none" stroke="black" points="1155,-384.5 1155,-403.5 1283,-403.5 1283,-384.5 1155,-384.5"/>
<text text-anchor="middle" x="1219" y="-391.5" font-family="Helvetica,sans-Serif" font-size="10.00">TPCBase/PadROCPos.h</text>
</a>
</g>
</g>
<!-- Node37&#45;&gt;Node43 -->
<g id="edge52" class="edge"><title>Node37&#45;&gt;Node43</title>
<path fill="none" stroke="midnightblue" d="M1028.77,-496.237C1025.84,-482.514 1022.53,-455.885 1036,-440 1050.31,-423.121 1100.59,-411.516 1144.83,-404.323"/>
<polygon fill="midnightblue" stroke="midnightblue" points="1145.41,-407.775 1154.75,-402.767 1144.33,-400.86 1145.41,-407.775"/>
</g>
<!-- Node44 -->
<g id="node44" class="node"><title>Node44</title>
<g id="a_node44"><a xlink:href="../../d3/d54/DigitPos_8h.html" target="_top" xlink:title="TPCBase/DigitPos.h">
<polygon fill="none" stroke="black" points="876,-440.5 876,-459.5 984,-459.5 984,-440.5 876,-440.5"/>
<text text-anchor="middle" x="930" y="-447.5" font-family="Helvetica,sans-Serif" font-size="10.00">TPCBase/DigitPos.h</text>
</a>
</g>
</g>
<!-- Node37&#45;&gt;Node44 -->
<g id="edge56" class="edge"><title>Node37&#45;&gt;Node44</title>
<path fill="none" stroke="midnightblue" d="M1014.77,-496.324C998.649,-487.703 973.7,-474.364 955.036,-464.386"/>
<polygon fill="midnightblue" stroke="midnightblue" points="956.656,-461.283 946.187,-459.655 953.356,-467.456 956.656,-461.283"/>
</g>
<!-- Node46 -->
<g id="node46" class="node"><title>Node46</title>
<g id="a_node46"><a xlink:href="../../d1/d1f/FECInfo_8h.html" target="_top" xlink:title="TPCBase/FECInfo.h">
<polygon fill="none" stroke="black" points="1577.5,-328.5 1577.5,-347.5 1684.5,-347.5 1684.5,-328.5 1577.5,-328.5"/>
<text text-anchor="middle" x="1631" y="-335.5" font-family="Helvetica,sans-Serif" font-size="10.00">TPCBase/FECInfo.h</text>
</a>
</g>
</g>
<!-- Node37&#45;&gt;Node46 -->
<g id="edge64" class="edge"><title>Node37&#45;&gt;Node46</title>
<path fill="none" stroke="midnightblue" d="M1082.68,-497.011C1085.49,-496.651 1088.28,-496.31 1091,-496 1192.65,-484.404 1461.7,-511.686 1550,-460 1589.87,-436.663 1614.09,-384.987 1624.69,-357.322"/>
<polygon fill="midnightblue" stroke="midnightblue" points="1628.06,-358.291 1628.2,-347.697 1621.49,-355.895 1628.06,-358.291"/>
</g>
<!-- Node47 -->
<g id="node47" class="node"><title>Node47</title>
<g id="a_node47"><a xlink:href="../../da/d9d/PadRegionInfo_8h.html" target="_top" xlink:title="TPCBase/PadRegionInfo.h">
<polygon fill="none" stroke="black" points="1334.5,-440.5 1334.5,-459.5 1469.5,-459.5 1469.5,-440.5 1334.5,-440.5"/>
<text text-anchor="middle" x="1402" y="-447.5" font-family="Helvetica,sans-Serif" font-size="10.00">TPCBase/PadRegionInfo.h</text>
</a>
</g>
</g>
<!-- Node37&#45;&gt;Node47 -->
<g id="edge66" class="edge"><title>Node37&#45;&gt;Node47</title>
<path fill="none" stroke="midnightblue" d="M1082.71,-497.226C1085.51,-496.81 1088.29,-496.399 1091,-496 1173.82,-483.796 1269.1,-470.053 1332.14,-461.002"/>
<polygon fill="midnightblue" stroke="midnightblue" points="1332.96,-464.42 1342.37,-459.535 1331.97,-457.491 1332.96,-464.42"/>
</g>
<!-- Node48 -->
<g id="node48" class="node"><title>Node48</title>
<g id="a_node48"><a xlink:href="../../d6/d42/PartitionInfo_8h.html" target="_top" xlink:title="TPCBase/PartitionInfo.h">
<polygon fill="none" stroke="black" points="1193.5,-440.5 1193.5,-459.5 1316.5,-459.5 1316.5,-440.5 1193.5,-440.5"/>
<text text-anchor="middle" x="1255" y="-447.5" font-family="Helvetica,sans-Serif" font-size="10.00">TPCBase/PartitionInfo.h</text>
</a>
</g>
</g>
<!-- Node37&#45;&gt;Node48 -->
<g id="edge70" class="edge"><title>Node37&#45;&gt;Node48</title>
<path fill="none" stroke="midnightblue" d="M1066.49,-496.444C1105.32,-487.083 1167.66,-472.056 1209.92,-461.868"/>
<polygon fill="midnightblue" stroke="midnightblue" points="1210.77,-465.263 1219.67,-459.516 1209.13,-458.458 1210.77,-465.263"/>
</g>
<!-- Node42&#45;&gt;Node35 -->
<g id="edge50" class="edge"><title>Node42&#45;&gt;Node35</title>
<path fill="none" stroke="midnightblue" d="M924.937,-384.106C923.644,-371.528 921.982,-347.861 925,-328 926.368,-319.001 929.19,-309.325 931.945,-301.26"/>
<polygon fill="midnightblue" stroke="midnightblue" points="935.265,-302.372 935.4,-291.778 928.688,-299.976 935.265,-302.372"/>
</g>
<!-- Node42&#45;&gt;Node41 -->
<g id="edge51" class="edge"><title>Node42&#45;&gt;Node41</title>
<path fill="none" stroke="midnightblue" d="M987.004,-384.444C1058.34,-374.438 1175.83,-357.958 1248.01,-347.834"/>
<polygon fill="midnightblue" stroke="midnightblue" points="1248.91,-351.244 1258.32,-346.388 1247.93,-344.311 1248.91,-351.244"/>
</g>
<!-- Node43&#45;&gt;Node21 -->
<g id="edge54" class="edge"><title>Node43&#45;&gt;Node21</title>
<path fill="none" stroke="midnightblue" d="M1186.52,-384.444C1151.28,-375.162 1094.9,-360.309 1056.24,-350.127"/>
<polygon fill="midnightblue" stroke="midnightblue" points="1056.89,-346.679 1046.33,-347.516 1055.11,-353.448 1056.89,-346.679"/>
</g>
<!-- Node43&#45;&gt;Node22 -->
<g id="edge53" class="edge"><title>Node43&#45;&gt;Node22</title>
<path fill="none" stroke="midnightblue" d="M1214.65,-384.496C1203.89,-363.886 1174.43,-310.163 1141,-272 1129.26,-258.595 1113.91,-245.618 1101.68,-236.108"/>
<polygon fill="midnightblue" stroke="midnightblue" points="1103.51,-233.098 1093.42,-229.841 1099.28,-238.674 1103.51,-233.098"/>
</g>
<!-- Node43&#45;&gt;Node41 -->
<g id="edge55" class="edge"><title>Node43&#45;&gt;Node41</title>
<path fill="none" stroke="midnightblue" d="M1233.78,-384.324C1248.27,-375.822 1270.57,-362.729 1287.49,-352.797"/>
<polygon fill="midnightblue" stroke="midnightblue" points="1289.4,-355.735 1296.26,-347.655 1285.86,-349.698 1289.4,-355.735"/>
</g>
<!-- Node44&#45;&gt;Node22 -->
<g id="edge57" class="edge"><title>Node44&#45;&gt;Node22</title>
<path fill="none" stroke="midnightblue" d="M984.319,-442.506C1030.61,-435.723 1091.96,-423.336 1107,-404 1145.37,-354.659 1110.3,-274.466 1091.33,-238.929"/>
<polygon fill="midnightblue" stroke="midnightblue" points="1094.18,-236.839 1086.27,-229.783 1088.05,-240.228 1094.18,-236.839"/>
</g>
<!-- Node44&#45;&gt;Node41 -->
<g id="edge62" class="edge"><title>Node44&#45;&gt;Node41</title>
<path fill="none" stroke="midnightblue" d="M984.009,-443.853C1082.07,-434.291 1280.41,-413.863 1292,-404 1305.27,-392.707 1309.54,-372.702 1310.79,-357.858"/>
<polygon fill="midnightblue" stroke="midnightblue" points="1314.29,-357.892 1311.25,-347.743 1307.3,-357.573 1314.29,-357.892"/>
</g>
<!-- Node44&#45;&gt;Node42 -->
<g id="edge63" class="edge"><title>Node44&#45;&gt;Node42</title>
<path fill="none" stroke="midnightblue" d="M929.339,-440.083C928.815,-433.006 928.064,-422.861 927.406,-413.986"/>
<polygon fill="midnightblue" stroke="midnightblue" points="930.877,-413.465 926.648,-403.751 923.897,-413.982 930.877,-413.465"/>
</g>
<!-- Node45 -->
<g id="node45" class="node"><title>Node45</title>
<g id="a_node45"><a xlink:href="../../df/d26/CRU_8h.html" target="_top" xlink:title="TPCBase/CRU.h">
<polygon fill="none" stroke="black" points="1005.5,-384.5 1005.5,-403.5 1098.5,-403.5 1098.5,-384.5 1005.5,-384.5"/>
<text text-anchor="middle" x="1052" y="-391.5" font-family="Helvetica,sans-Serif" font-size="10.00">TPCBase/CRU.h</text>
</a>
</g>
</g>
<!-- Node44&#45;&gt;Node45 -->
<g id="edge58" class="edge"><title>Node44&#45;&gt;Node45</title>
<path fill="none" stroke="midnightblue" d="M949.331,-440.444C969.32,-431.596 1000.74,-417.687 1023.56,-407.586"/>
<polygon fill="midnightblue" stroke="midnightblue" points="1025.03,-410.764 1032.76,-403.516 1022.2,-404.363 1025.03,-410.764"/>
</g>
<!-- Node45&#45;&gt;Node21 -->
<g id="edge61" class="edge"><title>Node45&#45;&gt;Node21</title>
<path fill="none" stroke="midnightblue" d="M1045.73,-384.083C1040.36,-376.455 1032.48,-365.264 1025.92,-355.941"/>
<polygon fill="midnightblue" stroke="midnightblue" points="1028.78,-353.915 1020.16,-347.751 1023.05,-357.943 1028.78,-353.915"/>
</g>
<!-- Node45&#45;&gt;Node22 -->
<g id="edge59" class="edge"><title>Node45&#45;&gt;Node22</title>
<path fill="none" stroke="midnightblue" d="M1056.11,-384.253C1060.1,-375.341 1065.98,-361.017 1069,-348 1077.72,-310.377 1080.13,-265.081 1080.78,-240.023"/>
<polygon fill="midnightblue" stroke="midnightblue" points="1084.28,-239.816 1080.97,-229.751 1077.28,-239.683 1084.28,-239.816"/>
</g>
<!-- Node45&#45;&gt;Node35 -->
<g id="edge60" class="edge"><title>Node45&#45;&gt;Node35</title>
<path fill="none" stroke="midnightblue" d="M1018.09,-384.364C997.973,-377.595 973.465,-366.2 958,-348 946.947,-334.992 942.32,-315.832 940.385,-301.682"/>
<polygon fill="midnightblue" stroke="midnightblue" points="943.854,-301.205 939.339,-291.621 936.892,-301.929 943.854,-301.205"/>
</g>
<!-- Node46&#45;&gt;Node34 -->
<g id="edge65" class="edge"><title>Node46&#45;&gt;Node34</title>
<path fill="none" stroke="midnightblue" d="M1632.48,-328.326C1638.62,-292.355 1662.15,-154.44 1670.79,-103.795"/>
<polygon fill="midnightblue" stroke="midnightblue" points="1674.29,-104.084 1672.53,-93.6379 1667.39,-102.907 1674.29,-104.084"/>
</g>
<!-- Node47&#45;&gt;Node22 -->
<g id="edge68" class="edge"><title>Node47&#45;&gt;Node22</title>
<path fill="none" stroke="midnightblue" d="M1405.29,-440.388C1409.61,-427.751 1416.01,-403.563 1410,-384 1401.17,-355.248 1395.7,-346.524 1372,-328 1301.5,-272.889 1199.84,-244.232 1137.23,-230.912"/>
<polygon fill="midnightblue" stroke="midnightblue" points="1137.65,-227.425 1127.15,-228.828 1136.23,-234.28 1137.65,-227.425"/>
</g>
<!-- Node47&#45;&gt;Node38 -->
<g id="edge67" class="edge"><title>Node47&#45;&gt;Node38</title>
<path fill="none" stroke="midnightblue" d="M1395.23,-440.083C1389.44,-432.455 1380.94,-421.264 1373.86,-411.941"/>
<polygon fill="midnightblue" stroke="midnightblue" points="1376.48,-409.599 1367.64,-403.751 1370.9,-413.832 1376.48,-409.599"/>
</g>
<!-- Node47&#45;&gt;Node41 -->
<g id="edge69" class="edge"><title>Node47&#45;&gt;Node41</title>
<path fill="none" stroke="midnightblue" d="M1402.78,-440.117C1403.49,-426.703 1402.98,-401.037 1391,-384 1380.6,-369.213 1363.7,-358.694 1348.11,-351.565"/>
<polygon fill="midnightblue" stroke="midnightblue" points="1349.22,-348.232 1338.65,-347.556 1346.49,-354.678 1349.22,-348.232"/>
</g>
</g>
</svg>
