<?xml version="1.0" encoding="UTF-8" standalone="no"?>
<!DOCTYPE svg PUBLIC "-//W3C//DTD SVG 1.1//EN"
 "http://www.w3.org/Graphics/SVG/1.1/DTD/svg11.dtd">
<!-- Generated by graphviz version 2.36.0 (20140111.2315)
 -->
<!-- Title: /home/travis/build/AliceO2Group/AliceO2/Detectors/TPC/base/src/DigitPos.cxx Pages: 1 -->
<!--zoomable 590 -->
<svg id="main" version="1.1" xmlns="http://www.w3.org/2000/svg" xmlns:xlink="http://www.w3.org/1999/xlink" xml:space="preserve" onload="init(evt)">
<style type="text/css"><![CDATA[
.edge:hover path { stroke: red; }
.edge:hover polygon { stroke: red; fill: red; }
]]></style>
<script type="text/javascript"><![CDATA[
var edges = document.getElementsByTagName('g');
if (edges && edges.length) {
  for (var i=0;i<edges.length;i++) {
    if (edges[i].id.substr(0,4)=='edge') {
      edges[i].setAttribute('class','edge');
    }
  }
}
]]></script>
        <defs>
                <circle id="rim" cx="0" cy="0" r="7"/>
                <circle id="rim2" cx="0" cy="0" r="3.5"/>
                <g id="zoomPlus">
                        <use xlink:href="#rim" fill="#404040">
                                <set attributeName="fill" to="#808080" begin="zoomplus.mouseover" end="zoomplus.mouseout"/>
                        </use>
                        <path d="M-4,0h8M0,-4v8" fill="none" stroke="white" stroke-width="1.5" pointer-events="none"/>
                </g>
                <g id="zoomMin">
                        <use xlink:href="#rim" fill="#404040">
                                <set attributeName="fill" to="#808080" begin="zoomminus.mouseover" end="zoomminus.mouseout"/>
                        </use>
                        <path d="M-4,0h8" fill="none" stroke="white" stroke-width="1.5" pointer-events="none"/>
                </g>
                <g id="dirArrow">
                        <path fill="none" stroke="white" stroke-width="1.5" d="M0,-3.0v7 M-2.5,-0.5L0,-3.0L2.5,-0.5"/>
                </g>
               <g id="resetDef">
                       <use xlink:href="#rim2" fill="#404040">
                               <set attributeName="fill" to="#808080" begin="reset.mouseover" end="reset.mouseout"/>
                       </use>
               </g>
        </defs>

<script type="text/javascript">
var viewWidth = 1434;
var viewHeight = 590;
var sectionId = 'dynsection-0';
</script>
<script xlink:href="../../svgpan.js"/>
<svg id="graph" class="graph">
<g id="viewport">
<title>/home/travis/build/AliceO2Group/AliceO2/Detectors/TPC/base/src/DigitPos.cxx</title>
<!-- Node1 -->
<g id="node1" class="node"><title>Node1</title>
<polygon fill="#bfbfbf" stroke="black" points="768,-529 768,-581 894,-581 894,-529 768,-529"/>
<text text-anchor="start" x="776" y="-569" font-family="Helvetica,sans-Serif" font-size="10.00">/home/travis/build</text>
<text text-anchor="start" x="776" y="-558" font-family="Helvetica,sans-Serif" font-size="10.00">/AliceO2Group/AliceO2</text>
<text text-anchor="start" x="776" y="-547" font-family="Helvetica,sans-Serif" font-size="10.00">/Detectors/TPC/base/src</text>
<text text-anchor="middle" x="831" y="-536" font-family="Helvetica,sans-Serif" font-size="10.00">/DigitPos.cxx</text>
</g>
<!-- Node2 -->
<g id="node2" class="node"><title>Node2</title>
<g id="a_node2"><a xlink:href="../../d3/d54/DigitPos_8h.html" target="_top" xlink:title="TPCBase/DigitPos.h">
<polygon fill="none" stroke="black" points="366,-416.5 366,-435.5 474,-435.5 474,-416.5 366,-416.5"/>
<text text-anchor="middle" x="420" y="-423.5" font-family="Helvetica,sans-Serif" font-size="10.00">TPCBase/DigitPos.h</text>
</a>
</g>
</g>
<!-- Node1&#45;&gt;Node2 -->
<g id="edge1" class="edge"><title>Node1&#45;&gt;Node2</title>
<path fill="none" stroke="midnightblue" d="M767.682,-534.435C680.976,-507.642 528.034,-460.383 457.527,-438.596"/>
<polygon fill="midnightblue" stroke="midnightblue" points="458.328,-435.18 447.741,-435.572 456.261,-441.868 458.328,-435.18"/>
</g>
<!-- Node23 -->
<g id="node23" class="node"><title>Node23</title>
<g id="a_node23"><a xlink:href="../../d7/d2c/Mapper_8h.html" target="_top" xlink:title="TPCBase/Mapper.h">
<polygon fill="none" stroke="black" points="943.5,-472.5 943.5,-491.5 1046.5,-491.5 1046.5,-472.5 943.5,-472.5"/>
<text text-anchor="middle" x="995" y="-479.5" font-family="Helvetica,sans-Serif" font-size="10.00">TPCBase/Mapper.h</text>
</a>
</g>
</g>
<!-- Node1&#45;&gt;Node23 -->
<g id="edge29" class="edge"><title>Node1&#45;&gt;Node23</title>
<path fill="none" stroke="midnightblue" d="M888.82,-528.968C914.774,-517.732 944.276,-504.96 965.585,-495.735"/>
<polygon fill="midnightblue" stroke="midnightblue" points="967.259,-498.824 975.045,-491.639 964.478,-492.4 967.259,-498.824"/>
</g>
<!-- Node3 -->
<g id="node3" class="node"><title>Node3</title>
<g id="a_node3"><a xlink:href="../../d1/d73/Defs_8h.html" target="_top" xlink:title="Common definitions for 2D coordinates. ">
<polygon fill="none" stroke="black" points="585,-192.5 585,-211.5 677,-211.5 677,-192.5 585,-192.5"/>
<text text-anchor="middle" x="631" y="-199.5" font-family="Helvetica,sans-Serif" font-size="10.00">TPCBase/Defs.h</text>
</a>
</g>
</g>
<!-- Node2&#45;&gt;Node3 -->
<g id="edge2" class="edge"><title>Node2&#45;&gt;Node3</title>
<path fill="none" stroke="midnightblue" d="M402.498,-416.465C389.213,-408.917 371.924,-396.533 364,-380 360.158,-371.984 361.777,-368.606 364,-360 378.623,-303.392 384.714,-280.966 433,-248 474.958,-219.355 532.425,-208.7 574.642,-204.858"/>
<polygon fill="midnightblue" stroke="midnightblue" points="575.071,-208.335 584.757,-204.041 574.507,-201.358 575.071,-208.335"/>
</g>
<!-- Node17 -->
<g id="node17" class="node"><title>Node17</title>
<g id="a_node17"><a xlink:href="../../df/d26/CRU_8h.html" target="_top" xlink:title="TPCBase/CRU.h">
<polygon fill="none" stroke="black" points="373.5,-360.5 373.5,-379.5 466.5,-379.5 466.5,-360.5 373.5,-360.5"/>
<text text-anchor="middle" x="420" y="-367.5" font-family="Helvetica,sans-Serif" font-size="10.00">TPCBase/CRU.h</text>
</a>
</g>
</g>
<!-- Node2&#45;&gt;Node17 -->
<g id="edge17" class="edge"><title>Node2&#45;&gt;Node17</title>
<path fill="none" stroke="midnightblue" d="M420,-416.083C420,-409.006 420,-398.861 420,-389.986"/>
<polygon fill="midnightblue" stroke="midnightblue" points="423.5,-389.751 420,-379.751 416.5,-389.751 423.5,-389.751"/>
</g>
<!-- Node21 -->
<g id="node21" class="node"><title>Node21</title>
<g id="a_node21"><a xlink:href="../../de/d41/PadPos_8h.html" target="_top" xlink:title="TPCBase/PadPos.h">
<polygon fill="none" stroke="black" points="766.5,-304.5 766.5,-323.5 871.5,-323.5 871.5,-304.5 766.5,-304.5"/>
<text text-anchor="middle" x="819" y="-311.5" font-family="Helvetica,sans-Serif" font-size="10.00">TPCBase/PadPos.h</text>
</a>
</g>
</g>
<!-- Node2&#45;&gt;Node21 -->
<g id="edge25" class="edge"><title>Node2&#45;&gt;Node21</title>
<path fill="none" stroke="midnightblue" d="M474.243,-425.698C567.302,-425.765 752.007,-420.6 800,-380 813.304,-368.745 817.572,-348.734 818.807,-333.879"/>
<polygon fill="midnightblue" stroke="midnightblue" points="822.309,-333.901 819.26,-323.754 815.316,-333.588 822.309,-333.901"/>
</g>
<!-- Node22 -->
<g id="node22" class="node"><title>Node22</title>
<g id="a_node22"><a xlink:href="../../dd/d0b/PadSecPos_8h.html" target="_top" xlink:title="TPCBase/PadSecPos.h">
<polygon fill="none" stroke="black" points="523,-360.5 523,-379.5 645,-379.5 645,-360.5 523,-360.5"/>
<text text-anchor="middle" x="584" y="-367.5" font-family="Helvetica,sans-Serif" font-size="10.00">TPCBase/PadSecPos.h</text>
</a>
</g>
</g>
<!-- Node2&#45;&gt;Node22 -->
<g id="edge26" class="edge"><title>Node2&#45;&gt;Node22</title>
<path fill="none" stroke="midnightblue" d="M445.986,-416.444C473.696,-407.32 517.752,-392.813 548.616,-382.651"/>
<polygon fill="midnightblue" stroke="midnightblue" points="549.732,-385.968 558.135,-379.516 547.542,-379.32 549.732,-385.968"/>
</g>
<!-- Node4 -->
<g id="node4" class="node"><title>Node4</title>
<polygon fill="none" stroke="#bfbfbf" points="1030,-136.5 1030,-155.5 1074,-155.5 1074,-136.5 1030,-136.5"/>
<text text-anchor="middle" x="1052" y="-143.5" font-family="Helvetica,sans-Serif" font-size="10.00">cmath</text>
</g>
<!-- Node3&#45;&gt;Node4 -->
<g id="edge3" class="edge"><title>Node3&#45;&gt;Node4</title>
<path fill="none" stroke="midnightblue" d="M677.193,-193.304C680.171,-192.85 683.127,-192.412 686,-192 808.811,-174.409 955.418,-157.664 1019.42,-150.564"/>
<polygon fill="midnightblue" stroke="midnightblue" points="1020.12,-154.008 1029.68,-149.431 1019.35,-147.05 1020.12,-154.008"/>
</g>
<!-- Node5 -->
<g id="node5" class="node"><title>Node5</title>
<g id="a_node5"><a xlink:href="../../d2/dd0/Cartesian2D_8h.html" target="_top" xlink:title="MathUtils/Cartesian2D.h">
<polygon fill="none" stroke="black" points="1050.5,-74.5 1050.5,-93.5 1175.5,-93.5 1175.5,-74.5 1050.5,-74.5"/>
<text text-anchor="middle" x="1113" y="-81.5" font-family="Helvetica,sans-Serif" font-size="10.00">MathUtils/Cartesian2D.h</text>
</a>
</g>
</g>
<!-- Node3&#45;&gt;Node5 -->
<g id="edge4" class="edge"><title>Node3&#45;&gt;Node5</title>
<path fill="none" stroke="midnightblue" d="M666.443,-192.47C752.445,-171.772 972.127,-118.903 1067.58,-95.9313"/>
<polygon fill="midnightblue" stroke="midnightblue" points="1068.6,-99.285 1077.51,-93.5423 1066.96,-92.4793 1068.6,-99.285"/>
</g>
<!-- Node8 -->
<g id="node8" class="node"><title>Node8</title>
<g id="a_node8"><a xlink:href="../../dd/d76/Cartesian3D_8h.html" target="_top" xlink:title="MathUtils/Cartesian3D.h">
<polygon fill="none" stroke="black" points="568.5,-136.5 568.5,-155.5 693.5,-155.5 693.5,-136.5 568.5,-136.5"/>
<text text-anchor="middle" x="631" y="-143.5" font-family="Helvetica,sans-Serif" font-size="10.00">MathUtils/Cartesian3D.h</text>
</a>
</g>
</g>
<!-- Node3&#45;&gt;Node8 -->
<g id="edge7" class="edge"><title>Node3&#45;&gt;Node8</title>
<path fill="none" stroke="midnightblue" d="M631,-192.083C631,-185.006 631,-174.861 631,-165.986"/>
<polygon fill="midnightblue" stroke="midnightblue" points="634.5,-165.751 631,-155.751 627.5,-165.751 634.5,-165.751"/>
</g>
<!-- Node6 -->
<g id="node6" class="node"><title>Node6</title>
<polygon fill="none" stroke="#bfbfbf" points="946.5,-1 946.5,-31 1097.5,-31 1097.5,-1 946.5,-1"/>
<text text-anchor="start" x="954.5" y="-19" font-family="Helvetica,sans-Serif" font-size="10.00">Math/GenVector/Displacement</text>
<text text-anchor="middle" x="1022" y="-8" font-family="Helvetica,sans-Serif" font-size="10.00">Vector2D.h</text>
</g>
<!-- Node5&#45;&gt;Node6 -->
<g id="edge5" class="edge"><title>Node5&#45;&gt;Node6</title>
<path fill="none" stroke="midnightblue" d="M1101.1,-74.3717C1088.22,-65.0286 1067.22,-49.7966 1050.09,-37.375"/>
<polygon fill="midnightblue" stroke="midnightblue" points="1051.7,-34.2194 1041.55,-31.1815 1047.59,-39.8859 1051.7,-34.2194"/>
</g>
<!-- Node7 -->
<g id="node7" class="node"><title>Node7</title>
<polygon fill="none" stroke="#bfbfbf" points="1116,-6.5 1116,-25.5 1292,-25.5 1292,-6.5 1116,-6.5"/>
<text text-anchor="middle" x="1204" y="-13.5" font-family="Helvetica,sans-Serif" font-size="10.00">Math/GenVector/PositionVector2D.h</text>
</g>
<!-- Node5&#45;&gt;Node7 -->
<g id="edge6" class="edge"><title>Node5&#45;&gt;Node7</title>
<path fill="none" stroke="midnightblue" d="M1124.9,-74.3717C1139.88,-63.5015 1165.86,-44.6602 1183.94,-31.5474"/>
<polygon fill="midnightblue" stroke="midnightblue" points="1186.06,-34.3349 1192.1,-25.6305 1181.95,-28.6684 1186.06,-34.3349"/>
</g>
<!-- Node8&#45;&gt;Node5 -->
<g id="edge16" class="edge"><title>Node8&#45;&gt;Node5</title>
<path fill="none" stroke="midnightblue" d="M693.764,-139.998C774.424,-133.139 918.649,-119.413 1041,-100 1048.89,-98.7479 1057.23,-97.2116 1065.32,-95.6049"/>
<polygon fill="midnightblue" stroke="midnightblue" points="1066.29,-98.9792 1075.38,-93.5482 1064.89,-92.1209 1066.29,-98.9792"/>
</g>
<!-- Node9 -->
<g id="node9" class="node"><title>Node9</title>
<polygon fill="none" stroke="#bfbfbf" points="687.5,-69 687.5,-99 838.5,-99 838.5,-69 687.5,-69"/>
<text text-anchor="start" x="695.5" y="-87" font-family="Helvetica,sans-Serif" font-size="10.00">Math/GenVector/Displacement</text>
<text text-anchor="middle" x="763" y="-76" font-family="Helvetica,sans-Serif" font-size="10.00">Vector3D.h</text>
</g>
<!-- Node8&#45;&gt;Node9 -->
<g id="edge8" class="edge"><title>Node8&#45;&gt;Node9</title>
<path fill="none" stroke="midnightblue" d="M649.912,-136.403C668.855,-127.793 698.597,-114.274 722.825,-103.261"/>
<polygon fill="midnightblue" stroke="midnightblue" points="724.489,-106.35 732.144,-99.0253 721.592,-99.9771 724.489,-106.35"/>
</g>
<!-- Node10 -->
<g id="node10" class="node"><title>Node10</title>
<polygon fill="none" stroke="#bfbfbf" points="857,-74.5 857,-93.5 1033,-93.5 1033,-74.5 857,-74.5"/>
<text text-anchor="middle" x="945" y="-81.5" font-family="Helvetica,sans-Serif" font-size="10.00">Math/GenVector/PositionVector3D.h</text>
</g>
<!-- Node8&#45;&gt;Node10 -->
<g id="edge9" class="edge"><title>Node8&#45;&gt;Node10</title>
<path fill="none" stroke="midnightblue" d="M675.655,-136.467C732.155,-125.671 829.419,-107.086 890.311,-95.4501"/>
<polygon fill="midnightblue" stroke="midnightblue" points="891.334,-98.8181 900.499,-93.5034 890.02,-91.9425 891.334,-98.8181"/>
</g>
<!-- Node11 -->
<g id="node11" class="node"><title>Node11</title>
<polygon fill="none" stroke="#bfbfbf" points="-0.5,-74.5 -0.5,-93.5 148.5,-93.5 148.5,-74.5 -0.5,-74.5"/>
<text text-anchor="middle" x="74" y="-81.5" font-family="Helvetica,sans-Serif" font-size="10.00">Math/GenVector/Rotation3D.h</text>
</g>
<!-- Node8&#45;&gt;Node11 -->
<g id="edge10" class="edge"><title>Node8&#45;&gt;Node11</title>
<path fill="none" stroke="midnightblue" d="M568.452,-140.688C477.742,-134.064 304.5,-120.015 158,-100 148.203,-98.6615 137.804,-97.0012 127.783,-95.2779"/>
<polygon fill="midnightblue" stroke="midnightblue" points="128.379,-91.8292 117.924,-93.5432 127.166,-98.7233 128.379,-91.8292"/>
</g>
<!-- Node12 -->
<g id="node12" class="node"><title>Node12</title>
<polygon fill="none" stroke="#bfbfbf" points="167,-74.5 167,-93.5 323,-93.5 323,-74.5 167,-74.5"/>
<text text-anchor="middle" x="245" y="-81.5" font-family="Helvetica,sans-Serif" font-size="10.00">Math/GenVector/Transform3D.h</text>
</g>
<!-- Node8&#45;&gt;Node12 -->
<g id="edge11" class="edge"><title>Node8&#45;&gt;Node12</title>
<path fill="none" stroke="midnightblue" d="M571.94,-136.491C511.585,-127.707 415.176,-113.428 332,-100 322.679,-98.4952 312.806,-96.8461 303.187,-95.2092"/>
<polygon fill="midnightblue" stroke="midnightblue" points="303.736,-91.7523 293.288,-93.5144 302.554,-98.6519 303.736,-91.7523"/>
</g>
<!-- Node13 -->
<g id="node13" class="node"><title>Node13</title>
<polygon fill="none" stroke="#bfbfbf" points="341,-74.5 341,-93.5 501,-93.5 501,-74.5 341,-74.5"/>
<text text-anchor="middle" x="421" y="-81.5" font-family="Helvetica,sans-Serif" font-size="10.00">Math/GenVector/Translation3D.h</text>
</g>
<!-- Node8&#45;&gt;Node13 -->
<g id="edge12" class="edge"><title>Node8&#45;&gt;Node13</title>
<path fill="none" stroke="midnightblue" d="M600.912,-136.403C564.11,-125.889 501.689,-108.054 460.906,-96.4016"/>
<polygon fill="midnightblue" stroke="midnightblue" points="461.609,-92.9625 451.032,-93.5806 459.686,-99.6932 461.609,-92.9625"/>
</g>
<!-- Node14 -->
<g id="node14" class="node"><title>Node14</title>
<polygon fill="none" stroke="#bfbfbf" points="519,-74.5 519,-93.5 575,-93.5 575,-74.5 519,-74.5"/>
<text text-anchor="middle" x="547" y="-81.5" font-family="Helvetica,sans-Serif" font-size="10.00">Rtypes.h</text>
</g>
<!-- Node8&#45;&gt;Node14 -->
<g id="edge13" class="edge"><title>Node8&#45;&gt;Node14</title>
<path fill="none" stroke="midnightblue" d="M618.965,-136.403C605.492,-126.78 583.434,-111.024 567.285,-99.4891"/>
<polygon fill="midnightblue" stroke="midnightblue" points="569.185,-96.5449 559.013,-93.5806 565.116,-102.241 569.185,-96.5449"/>
</g>
<!-- Node15 -->
<g id="node15" class="node"><title>Node15</title>
<polygon fill="none" stroke="#bfbfbf" points="593,-74.5 593,-93.5 669,-93.5 669,-74.5 593,-74.5"/>
<text text-anchor="middle" x="631" y="-81.5" font-family="Helvetica,sans-Serif" font-size="10.00">TGeoMatrix.h</text>
</g>
<!-- Node8&#45;&gt;Node15 -->
<g id="edge14" class="edge"><title>Node8&#45;&gt;Node15</title>
<path fill="none" stroke="midnightblue" d="M631,-136.403C631,-127.938 631,-114.728 631,-103.82"/>
<polygon fill="midnightblue" stroke="midnightblue" points="634.5,-103.581 631,-93.5806 627.5,-103.581 634.5,-103.581"/>
</g>
<!-- Node16 -->
<g id="node16" class="node"><title>Node16</title>
<polygon fill="none" stroke="#bfbfbf" points="1234,-74.5 1234,-93.5 1288,-93.5 1288,-74.5 1234,-74.5"/>
<text text-anchor="middle" x="1261" y="-81.5" font-family="Helvetica,sans-Serif" font-size="10.00">iostream</text>
</g>
<!-- Node8&#45;&gt;Node16 -->
<g id="edge15" class="edge"><title>Node8&#45;&gt;Node16</title>
<path fill="none" stroke="midnightblue" d="M693.861,-142.164C796.716,-137.014 1007.23,-124.334 1184,-100 1196.97,-98.2153 1211.05,-95.6569 1223.58,-93.1572"/>
<polygon fill="midnightblue" stroke="midnightblue" points="1224.59,-96.5233 1233.68,-91.0894 1223.18,-89.6654 1224.59,-96.5233"/>
</g>
<!-- Node17&#45;&gt;Node3 -->
<g id="edge18" class="edge"><title>Node17&#45;&gt;Node3</title>
<path fill="none" stroke="midnightblue" d="M413.656,-360.455C404.868,-347.482 391.224,-322.386 402,-304 437.474,-243.476 519.287,-219.121 574.88,-209.387"/>
<polygon fill="midnightblue" stroke="midnightblue" points="575.638,-212.809 584.938,-207.734 574.503,-205.902 575.638,-212.809"/>
</g>
<!-- Node18 -->
<g id="node18" class="node"><title>Node18</title>
<g id="a_node18"><a xlink:href="../../d3/dd6/Sector_8h.html" target="_top" xlink:title="TPCBase/Sector.h">
<polygon fill="none" stroke="black" points="541.5,-248.5 541.5,-267.5 640.5,-267.5 640.5,-248.5 541.5,-248.5"/>
<text text-anchor="middle" x="591" y="-255.5" font-family="Helvetica,sans-Serif" font-size="10.00">TPCBase/Sector.h</text>
</a>
</g>
</g>
<!-- Node17&#45;&gt;Node18 -->
<g id="edge19" class="edge"><title>Node17&#45;&gt;Node18</title>
<path fill="none" stroke="midnightblue" d="M441.471,-360.39C460.846,-352.213 489.785,-338.969 513,-324 535.75,-309.331 559.273,-288.872 574.455,-274.848"/>
<polygon fill="midnightblue" stroke="midnightblue" points="577.075,-277.19 581.974,-267.796 572.286,-272.084 577.075,-277.19"/>
</g>
<!-- Node20 -->
<g id="node20" class="node"><title>Node20</title>
<g id="a_node20"><a xlink:href="../../dc/d14/ROC_8h.html" target="_top" xlink:title="TPCBase/ROC.h">
<polygon fill="none" stroke="black" points="411.5,-304.5 411.5,-323.5 504.5,-323.5 504.5,-304.5 411.5,-304.5"/>
<text text-anchor="middle" x="458" y="-311.5" font-family="Helvetica,sans-Serif" font-size="10.00">TPCBase/ROC.h</text>
</a>
</g>
</g>
<!-- Node17&#45;&gt;Node20 -->
<g id="edge22" class="edge"><title>Node17&#45;&gt;Node20</title>
<path fill="none" stroke="midnightblue" d="M426.275,-360.083C431.642,-352.455 439.518,-341.264 446.079,-331.941"/>
<polygon fill="midnightblue" stroke="midnightblue" points="448.949,-333.943 451.842,-323.751 443.225,-329.915 448.949,-333.943"/>
</g>
<!-- Node18&#45;&gt;Node3 -->
<g id="edge21" class="edge"><title>Node18&#45;&gt;Node3</title>
<path fill="none" stroke="midnightblue" d="M597.605,-248.083C603.255,-240.455 611.545,-229.264 618.451,-219.941"/>
<polygon fill="midnightblue" stroke="midnightblue" points="621.378,-221.87 624.518,-211.751 615.753,-217.703 621.378,-221.87"/>
</g>
<!-- Node19 -->
<g id="node19" class="node"><title>Node19</title>
<g id="a_node19"><a xlink:href="../../d6/d51/TPC_2base_2include_2TPCBase_2Constants_8h.html" target="_top" xlink:title="TPCBase/Constants.h">
<polygon fill="none" stroke="black" points="695,-192.5 695,-211.5 811,-211.5 811,-192.5 695,-192.5"/>
<text text-anchor="middle" x="753" y="-199.5" font-family="Helvetica,sans-Serif" font-size="10.00">TPCBase/Constants.h</text>
</a>
</g>
</g>
<!-- Node18&#45;&gt;Node19 -->
<g id="edge20" class="edge"><title>Node18&#45;&gt;Node19</title>
<path fill="none" stroke="midnightblue" d="M616.669,-248.444C643.923,-239.359 687.184,-224.939 717.651,-214.783"/>
<polygon fill="midnightblue" stroke="midnightblue" points="719.071,-217.999 727.451,-211.516 716.857,-211.358 719.071,-217.999"/>
</g>
<!-- Node20&#45;&gt;Node3 -->
<g id="edge23" class="edge"><title>Node20&#45;&gt;Node3</title>
<path fill="none" stroke="midnightblue" d="M466.423,-304.08C479.486,-290.618 505.861,-264.89 532,-248 552.619,-234.676 577.834,-223.278 597.656,-215.286"/>
<polygon fill="midnightblue" stroke="midnightblue" points="599.168,-218.453 607.193,-211.535 596.605,-211.938 599.168,-218.453"/>
</g>
<!-- Node20&#45;&gt;Node18 -->
<g id="edge24" class="edge"><title>Node20&#45;&gt;Node18</title>
<path fill="none" stroke="midnightblue" d="M479.074,-304.444C501.06,-295.517 535.734,-281.439 560.664,-271.317"/>
<polygon fill="midnightblue" stroke="midnightblue" points="562.076,-274.521 570.024,-267.516 559.442,-268.035 562.076,-274.521"/>
</g>
<!-- Node22&#45;&gt;Node18 -->
<g id="edge27" class="edge"><title>Node22&#45;&gt;Node18</title>
<path fill="none" stroke="midnightblue" d="M584.549,-360.368C585.679,-342.617 588.285,-301.666 589.817,-277.597"/>
<polygon fill="midnightblue" stroke="midnightblue" points="593.311,-277.794 590.453,-267.591 586.325,-277.349 593.311,-277.794"/>
</g>
<!-- Node22&#45;&gt;Node21 -->
<g id="edge28" class="edge"><title>Node22&#45;&gt;Node21</title>
<path fill="none" stroke="midnightblue" d="M621.236,-360.444C662.06,-351.063 727.643,-335.993 771.984,-325.804"/>
<polygon fill="midnightblue" stroke="midnightblue" points="772.976,-329.167 781.938,-323.516 771.408,-322.345 772.976,-329.167"/>
</g>
<!-- Node23&#45;&gt;Node2 -->
<g id="edge42" class="edge"><title>Node23&#45;&gt;Node2</title>
<path fill="none" stroke="midnightblue" d="M943.47,-477.164C851.759,-470.171 654.222,-454.368 488,-436 486.735,-435.86 485.457,-435.716 484.17,-435.569"/>
<polygon fill="midnightblue" stroke="midnightblue" points="484.508,-432.085 474.165,-434.383 483.683,-439.036 484.508,-432.085"/>
</g>
<!-- Node23&#45;&gt;Node3 -->
<g id="edge35" class="edge"><title>Node23&#45;&gt;Node3</title>
<path fill="none" stroke="midnightblue" d="M1000.28,-472.231C1010.73,-454.043 1033,-410.601 1033,-371 1033,-371 1033,-371 1033,-313 1033,-277.566 797.632,-231.954 687.091,-212.487"/>
<polygon fill="midnightblue" stroke="midnightblue" points="687.568,-209.017 677.115,-210.741 686.362,-215.912 687.568,-209.017"/>
</g>
<!-- Node23&#45;&gt;Node4 -->
<g id="edge34" class="edge"><title>Node23&#45;&gt;Node4</title>
<path fill="none" stroke="midnightblue" d="M1046.61,-476.816C1105.19,-471.046 1195.87,-458.688 1221,-436 1243.43,-415.744 1241,-401.225 1241,-371 1241,-371 1241,-371 1241,-257 1241,-185.281 1138.09,-159.51 1084.14,-150.928"/>
<polygon fill="midnightblue" stroke="midnightblue" points="1084.46,-147.436 1074.05,-149.432 1083.43,-154.361 1084.46,-147.436"/>
</g>
<!-- Node23&#45;&gt;Node18 -->
<g id="edge50" class="edge"><title>Node23&#45;&gt;Node18</title>
<path fill="none" stroke="midnightblue" d="M943.312,-478.457C829.803,-471.64 564.798,-448.559 514,-380 508.708,-372.858 511.156,-368.422 514,-360 514.416,-358.769 556.007,-304.539 577.881,-276.065"/>
<polygon fill="midnightblue" stroke="midnightblue" points="580.895,-277.887 584.213,-267.825 575.345,-273.622 580.895,-277.887"/>
</g>
<!-- Node23&#45;&gt;Node21 -->
<g id="edge36" class="edge"><title>Node23&#45;&gt;Node21</title>
<path fill="none" stroke="midnightblue" d="M943.265,-474.487C897.907,-467.595 836.932,-455.053 822,-436 821.349,-435.169 821.03,-361.055 821,-360 820.752,-351.393 820.348,-341.865 819.967,-333.8"/>
<polygon fill="midnightblue" stroke="midnightblue" points="823.453,-333.439 819.463,-323.624 816.462,-333.785 823.453,-333.439"/>
</g>
<!-- Node23&#45;&gt;Node22 -->
<g id="edge37" class="edge"><title>Node23&#45;&gt;Node22</title>
<path fill="none" stroke="midnightblue" d="M943.091,-473.576C895.094,-466.121 822.028,-453.266 760,-436 707.306,-421.332 648.013,-397.939 613.452,-383.579"/>
<polygon fill="midnightblue" stroke="midnightblue" points="614.546,-380.243 603.97,-379.608 611.841,-386.699 614.546,-380.243"/>
</g>
<!-- Node24 -->
<g id="node24" class="node"><title>Node24</title>
<polygon fill="none" stroke="#bfbfbf" points="1061.5,-416.5 1061.5,-435.5 1096.5,-435.5 1096.5,-416.5 1061.5,-416.5"/>
<text text-anchor="middle" x="1079" y="-423.5" font-family="Helvetica,sans-Serif" font-size="10.00">map</text>
</g>
<!-- Node23&#45;&gt;Node24 -->
<g id="edge30" class="edge"><title>Node23&#45;&gt;Node24</title>
<path fill="none" stroke="midnightblue" d="M1008.5,-472.324C1021.6,-463.9 1041.71,-450.971 1057.11,-441.074"/>
<polygon fill="midnightblue" stroke="midnightblue" points="1059.02,-444.006 1065.54,-435.655 1055.23,-438.118 1059.02,-444.006"/>
</g>
<!-- Node25 -->
<g id="node25" class="node"><title>Node25</title>
<polygon fill="none" stroke="#bfbfbf" points="961,-360.5 961,-379.5 1005,-379.5 1005,-360.5 961,-360.5"/>
<text text-anchor="middle" x="983" y="-367.5" font-family="Helvetica,sans-Serif" font-size="10.00">vector</text>
</g>
<!-- Node23&#45;&gt;Node25 -->
<g id="edge31" class="edge"><title>Node23&#45;&gt;Node25</title>
<path fill="none" stroke="midnightblue" d="M994.058,-472.368C992.122,-454.617 987.655,-413.666 985.029,-389.597"/>
<polygon fill="midnightblue" stroke="midnightblue" points="988.501,-389.153 983.937,-379.591 981.542,-389.912 988.501,-389.153"/>
</g>
<!-- Node26 -->
<g id="node26" class="node"><title>Node26</title>
<polygon fill="none" stroke="#bfbfbf" points="1115,-416.5 1115,-435.5 1153,-435.5 1153,-416.5 1115,-416.5"/>
<text text-anchor="middle" x="1134" y="-423.5" font-family="Helvetica,sans-Serif" font-size="10.00">array</text>
</g>
<!-- Node23&#45;&gt;Node26 -->
<g id="edge32" class="edge"><title>Node23&#45;&gt;Node26</title>
<path fill="none" stroke="midnightblue" d="M1017.02,-472.444C1040.92,-463.161 1079.15,-448.308 1105.36,-438.125"/>
<polygon fill="midnightblue" stroke="midnightblue" points="1106.71,-441.357 1114.76,-434.473 1104.18,-434.832 1106.71,-441.357"/>
</g>
<!-- Node27 -->
<g id="node27" class="node"><title>Node27</title>
<polygon fill="none" stroke="#bfbfbf" points="1171.5,-416.5 1171.5,-435.5 1212.5,-435.5 1212.5,-416.5 1171.5,-416.5"/>
<text text-anchor="middle" x="1192" y="-423.5" font-family="Helvetica,sans-Serif" font-size="10.00">string</text>
</g>
<!-- Node23&#45;&gt;Node27 -->
<g id="edge33" class="edge"><title>Node23&#45;&gt;Node27</title>
<path fill="none" stroke="midnightblue" d="M1027.72,-472.477C1059.46,-464.141 1109.24,-450.903 1161.57,-436.063"/>
<polygon fill="midnightblue" stroke="midnightblue" points="1162.71,-439.378 1171.37,-433.274 1160.79,-432.645 1162.71,-439.378"/>
</g>
<!-- Node28 -->
<g id="node28" class="node"><title>Node28</title>
<g id="a_node28"><a xlink:href="../../da/d61/PadROCPos_8h.html" target="_top" xlink:title="TPCBase/PadROCPos.h">
<polygon fill="none" stroke="black" points="663,-360.5 663,-379.5 791,-379.5 791,-360.5 663,-360.5"/>
<text text-anchor="middle" x="727" y="-367.5" font-family="Helvetica,sans-Serif" font-size="10.00">TPCBase/PadROCPos.h</text>
</a>
</g>
</g>
<!-- Node23&#45;&gt;Node28 -->
<g id="edge38" class="edge"><title>Node23&#45;&gt;Node28</title>
<path fill="none" stroke="midnightblue" d="M943.349,-478.125C899.782,-473.801 837.028,-462.994 789,-436 768.06,-424.231 749.873,-403.093 738.707,-388.121"/>
<polygon fill="midnightblue" stroke="midnightblue" points="741.368,-385.826 732.7,-379.734 735.678,-389.902 741.368,-385.826"/>
</g>
<!-- Node29 -->
<g id="node29" class="node"><title>Node29</title>
<g id="a_node29"><a xlink:href="../../d1/d1f/FECInfo_8h.html" target="_top" xlink:title="TPCBase/FECInfo.h">
<polygon fill="none" stroke="black" points="1318.5,-248.5 1318.5,-267.5 1425.5,-267.5 1425.5,-248.5 1318.5,-248.5"/>
<text text-anchor="middle" x="1372" y="-255.5" font-family="Helvetica,sans-Serif" font-size="10.00">TPCBase/FECInfo.h</text>
</a>
</g>
</g>
<!-- Node23&#45;&gt;Node29 -->
<g id="edge43" class="edge"><title>Node23&#45;&gt;Node29</title>
<path fill="none" stroke="midnightblue" d="M1046.84,-479.044C1150.99,-474.578 1377.76,-461.956 1401,-436 1441.63,-390.619 1403.24,-311.248 1382.86,-276.326"/>
<polygon fill="midnightblue" stroke="midnightblue" points="1385.84,-274.477 1377.67,-267.72 1379.84,-278.092 1385.84,-274.477"/>
</g>
<!-- Node30 -->
<g id="node30" class="node"><title>Node30</title>
<g id="a_node30"><a xlink:href="../../da/d9d/PadRegionInfo_8h.html" target="_top" xlink:title="TPCBase/PadRegionInfo.h">
<polygon fill="none" stroke="black" points="831.5,-416.5 831.5,-435.5 966.5,-435.5 966.5,-416.5 831.5,-416.5"/>
<text text-anchor="middle" x="899" y="-423.5" font-family="Helvetica,sans-Serif" font-size="10.00">TPCBase/PadRegionInfo.h</text>
</a>
</g>
</g>
<!-- Node23&#45;&gt;Node30 -->
<g id="edge45" class="edge"><title>Node23&#45;&gt;Node30</title>
<path fill="none" stroke="midnightblue" d="M979.576,-472.324C964.46,-463.822 941.185,-450.729 923.529,-440.797"/>
<polygon fill="midnightblue" stroke="midnightblue" points="924.817,-437.507 914.386,-435.655 921.386,-443.608 924.817,-437.507"/>
</g>
<!-- Node31 -->
<g id="node31" class="node"><title>Node31</title>
<g id="a_node31"><a xlink:href="../../d6/d42/PartitionInfo_8h.html" target="_top" xlink:title="TPCBase/PartitionInfo.h">
<polygon fill="none" stroke="black" points="1269.5,-416.5 1269.5,-435.5 1392.5,-435.5 1392.5,-416.5 1269.5,-416.5"/>
<text text-anchor="middle" x="1331" y="-423.5" font-family="Helvetica,sans-Serif" font-size="10.00">TPCBase/PartitionInfo.h</text>
</a>
</g>
</g>
<!-- Node23&#45;&gt;Node31 -->
<g id="edge49" class="edge"><title>Node23&#45;&gt;Node31</title>
<path fill="none" stroke="midnightblue" d="M1046.76,-472.681C1106.35,-463.105 1204.2,-447.379 1268.11,-437.107"/>
<polygon fill="midnightblue" stroke="midnightblue" points="1268.75,-440.549 1278.07,-435.507 1267.64,-433.638 1268.75,-440.549"/>
</g>
<!-- Node28&#45;&gt;Node3 -->
<g id="edge39" class="edge"><title>Node28&#45;&gt;Node3</title>
<path fill="none" stroke="midnightblue" d="M721.839,-360.075C706.597,-333.719 661.58,-255.878 641.213,-220.661"/>
<polygon fill="midnightblue" stroke="midnightblue" points="643.991,-218.473 635.955,-211.568 637.932,-221.977 643.991,-218.473"/>
</g>
<!-- Node28&#45;&gt;Node20 -->
<g id="edge40" class="edge"><title>Node28&#45;&gt;Node20</title>
<path fill="none" stroke="midnightblue" d="M684.376,-360.444C637.253,-350.984 561.308,-335.738 510.541,-325.547"/>
<polygon fill="midnightblue" stroke="midnightblue" points="510.918,-322.053 500.424,-323.516 509.54,-328.916 510.918,-322.053"/>
</g>
<!-- Node28&#45;&gt;Node21 -->
<g id="edge41" class="edge"><title>Node28&#45;&gt;Node21</title>
<path fill="none" stroke="midnightblue" d="M741.781,-360.324C756.267,-351.822 778.573,-338.729 795.493,-328.797"/>
<polygon fill="midnightblue" stroke="midnightblue" points="797.403,-331.735 804.255,-323.655 793.859,-325.698 797.403,-331.735"/>
</g>
<!-- Node29&#45;&gt;Node16 -->
<g id="edge44" class="edge"><title>Node29&#45;&gt;Node16</title>
<path fill="none" stroke="midnightblue" d="M1366.34,-248.234C1348.82,-221.086 1295.25,-138.067 1271.98,-102.012"/>
<polygon fill="midnightblue" stroke="midnightblue" points="1274.88,-100.049 1266.51,-93.5442 1269,-103.844 1274.88,-100.049"/>
</g>
<!-- Node30&#45;&gt;Node3 -->
<g id="edge47" class="edge"><title>Node30&#45;&gt;Node3</title>
<path fill="none" stroke="midnightblue" d="M900.383,-416.193C903.279,-394.431 907.603,-337.464 880,-304 852.598,-270.779 735.214,-232.944 671.886,-214.429"/>
<polygon fill="midnightblue" stroke="midnightblue" points="672.788,-211.046 662.209,-211.627 670.841,-217.77 672.788,-211.046"/>
</g>
<!-- Node30&#45;&gt;Node21 -->
<g id="edge48" class="edge"><title>Node30&#45;&gt;Node21</title>
<path fill="none" stroke="midnightblue" d="M896.646,-416.369C892.791,-403.284 884.213,-378.042 871,-360 862.513,-348.411 850.518,-337.776 840.187,-329.758"/>
<polygon fill="midnightblue" stroke="midnightblue" points="842.125,-326.837 832.014,-323.674 837.946,-332.453 842.125,-326.837"/>
</g>
<!-- Node30&#45;&gt;Node25 -->
<g id="edge46" class="edge"><title>Node30&#45;&gt;Node25</title>
<path fill="none" stroke="midnightblue" d="M912.496,-416.324C925.6,-407.9 945.712,-394.971 961.107,-385.074"/>
<polygon fill="midnightblue" stroke="midnightblue" points="963.018,-388.006 969.537,-379.655 959.233,-382.118 963.018,-388.006"/>
</g>
</g>
</svg>
        <g id="navigator" transform="translate(0 0)" fill="#404254">
                <rect fill="#f2f5e9" fill-opacity="0.5" stroke="#606060" stroke-width=".5" x="0" y="0" width="60" height="60"/>
                <use id="zoomplus" xlink:href="#zoomPlus" x="17" y="9" onmousedown="handleZoom(evt,'in')"/>
                <use id="zoomminus" xlink:href="#zoomMin" x="42" y="9" onmousedown="handleZoom(evt,'out')"/>
                <use id="reset" xlink:href="#resetDef" x="30" y="36" onmousedown="handleReset()"/>
                <g id="arrowUp" xlink:href="#dirArrow" transform="translate(30 24)" onmousedown="handlePan(0,-1)">
                  <use xlink:href="#rim" fill="#404040">
                        <set attributeName="fill" to="#808080" begin="arrowUp.mouseover" end="arrowUp.mouseout"/>
                  </use>
                  <path fill="none" stroke="white" stroke-width="1.5" d="M0,-3.0v7 M-2.5,-0.5L0,-3.0L2.5,-0.5"/>
                </g>
                <g id="arrowRight" xlink:href="#dirArrow" transform="rotate(90) translate(36 -43)" onmousedown="handlePan(1,0)">
                  <use xlink:href="#rim" fill="#404040">
                        <set attributeName="fill" to="#808080" begin="arrowRight.mouseover" end="arrowRight.mouseout"/>
                  </use>
                  <path fill="none" stroke="white" stroke-width="1.5" d="M0,-3.0v7 M-2.5,-0.5L0,-3.0L2.5,-0.5"/>
                </g>
                <g id="arrowDown" xlink:href="#dirArrow" transform="rotate(180) translate(-30 -48)" onmousedown="handlePan(0,1)">
                  <use xlink:href="#rim" fill="#404040">
                        <set attributeName="fill" to="#808080" begin="arrowDown.mouseover" end="arrowDown.mouseout"/>
                  </use>
                  <path fill="none" stroke="white" stroke-width="1.5" d="M0,-3.0v7 M-2.5,-0.5L0,-3.0L2.5,-0.5"/>
                </g>
                <g id="arrowLeft" xlink:href="#dirArrow" transform="rotate(270) translate(-36 17)" onmousedown="handlePan(-1,0)">
                  <use xlink:href="#rim" fill="#404040">
                        <set attributeName="fill" to="#808080" begin="arrowLeft.mouseover" end="arrowLeft.mouseout"/>
                  </use>
                  <path fill="none" stroke="white" stroke-width="1.5" d="M0,-3.0v7 M-2.5,-0.5L0,-3.0L2.5,-0.5"/>
                </g>
        </g>
        <svg viewBox="0 0 15 15" width="100%" height="30px" preserveAspectRatio="xMaxYMin meet">
         <g id="arrow_out" transform="scale(0.3 0.3)">
          <a xlink:href="DigitPos_8cxx__incl_org.svg" target="_base">
           <rect id="button" ry="5" rx="5" y="6" x="6" height="38" width="38"
                fill="#f2f5e9" fill-opacity="0.5" stroke="#606060" stroke-width="1.0"/>
           <path id="arrow"
             d="M 11.500037,31.436501 C 11.940474,20.09759 22.043105,11.32322 32.158766,21.979434 L 37.068811,17.246167 C 37.068811,17.246167 37.088388,32 37.088388,32 L 22.160133,31.978069 C 22.160133,31.978069 26.997745,27.140456 26.997745,27.140456 C 18.528582,18.264221 13.291696,25.230495 11.500037,31.436501 z"
             style="fill:#404040;"/>
          </a>
         </g>
        </svg>
</svg>
