<?xml version="1.0" encoding="UTF-8" standalone="no"?>
<!DOCTYPE svg PUBLIC "-//W3C//DTD SVG 1.1//EN"
 "http://www.w3.org/Graphics/SVG/1.1/DTD/svg11.dtd">
<!-- Generated by graphviz version 2.36.0 (20140111.2315)
 -->
<!-- Title: FairTask Pages: 1 -->
<svg width="1596pt" height="282pt"
 viewBox="0.00 0.00 1596.00 282.00" xmlns="http://www.w3.org/2000/svg" xmlns:xlink="http://www.w3.org/1999/xlink">
<g id="graph0" class="graph" transform="scale(1 1) rotate(0) translate(4 278)">
<title>FairTask</title>
<!-- Node1 -->
<g id="node1" class="node"><title>Node1</title>
<polygon fill="#bfbfbf" stroke="black" points="757.5,-216.5 757.5,-273.5 812.5,-273.5 812.5,-216.5 757.5,-216.5"/>
<text text-anchor="middle" x="785" y="-261.5" font-family="Helvetica,sans-Serif" font-size="10.00">FairTask</text>
<polyline fill="none" stroke="black" points="757.5,-254.5 812.5,-254.5 "/>
<text text-anchor="middle" x="785" y="-242.5" font-family="Helvetica,sans-Serif" font-size="10.00"> </text>
<polyline fill="none" stroke="black" points="757.5,-235.5 812.5,-235.5 "/>
<text text-anchor="middle" x="785" y="-223.5" font-family="Helvetica,sans-Serif" font-size="10.00"> </text>
</g>
<!-- Node2 -->
<g id="node2" class="node"><title>Node2</title>
<g id="a_node2"><a xlink:href="../../de/d8a/classo2_1_1EMCAL_1_1DigitizerTask.html" target="_top" xlink:title="{o2::EMCAL::DigitizerTask\n||+ DigitizerTask()\l+ ~DigitizerTask()\l+ Init()\l+ Exec()\l+ FinishTask()\l+ getDigitizer()\l+ setFairTimeUnitInNS()\l+ getFairTimeUnitInNS()\l}">
<polygon fill="none" stroke="black" points="-0.5,-23 -0.5,-157 130.5,-157 130.5,-23 -0.5,-23"/>
<text text-anchor="middle" x="65" y="-145" font-family="Helvetica,sans-Serif" font-size="10.00">o2::EMCAL::DigitizerTask</text>
<polyline fill="none" stroke="black" points="-0.5,-138 130.5,-138 "/>
<text text-anchor="middle" x="65" y="-126" font-family="Helvetica,sans-Serif" font-size="10.00"> </text>
<polyline fill="none" stroke="black" points="-0.5,-119 130.5,-119 "/>
<text text-anchor="start" x="7.5" y="-107" font-family="Helvetica,sans-Serif" font-size="10.00">+ DigitizerTask()</text>
<text text-anchor="start" x="7.5" y="-96" font-family="Helvetica,sans-Serif" font-size="10.00">+ ~DigitizerTask()</text>
<text text-anchor="start" x="7.5" y="-85" font-family="Helvetica,sans-Serif" font-size="10.00">+ Init()</text>
<text text-anchor="start" x="7.5" y="-74" font-family="Helvetica,sans-Serif" font-size="10.00">+ Exec()</text>
<text text-anchor="start" x="7.5" y="-63" font-family="Helvetica,sans-Serif" font-size="10.00">+ FinishTask()</text>
<text text-anchor="start" x="7.5" y="-52" font-family="Helvetica,sans-Serif" font-size="10.00">+ getDigitizer()</text>
<text text-anchor="start" x="7.5" y="-41" font-family="Helvetica,sans-Serif" font-size="10.00">+ setFairTimeUnitInNS()</text>
<text text-anchor="start" x="7.5" y="-30" font-family="Helvetica,sans-Serif" font-size="10.00">+ getFairTimeUnitInNS()</text>
</a>
</g>
</g>
<!-- Node1&#45;&gt;Node2 -->
<g id="edge1" class="edge"><title>Node1&#45;&gt;Node2</title>
<path fill="none" stroke="midnightblue" d="M746.87,-243.925C624.96,-243.119 246.435,-236.052 140,-180 129.094,-174.257 119.127,-166.197 110.271,-157.251"/>
<polygon fill="none" stroke="midnightblue" points="747.173,-247.427 757.192,-243.983 747.212,-240.427 747.173,-247.427"/>
</g>
<!-- Node3 -->
<g id="node3" class="node"><title>Node3</title>
<g id="a_node3"><a xlink:href="../../db/df6/classo2_1_1ITS_1_1ClustererTask.html" target="_top" xlink:title="{o2::ITS::ClustererTask\n||+ ClustererTask()\l+ ~ClustererTask()\l+ Init()\l+ Exec()\l}">
<polygon fill="none" stroke="black" points="149,-45 149,-135 265,-135 265,-45 149,-45"/>
<text text-anchor="middle" x="207" y="-123" font-family="Helvetica,sans-Serif" font-size="10.00">o2::ITS::ClustererTask</text>
<polyline fill="none" stroke="black" points="149,-116 265,-116 "/>
<text text-anchor="middle" x="207" y="-104" font-family="Helvetica,sans-Serif" font-size="10.00"> </text>
<polyline fill="none" stroke="black" points="149,-97 265,-97 "/>
<text text-anchor="start" x="157" y="-85" font-family="Helvetica,sans-Serif" font-size="10.00">+ ClustererTask()</text>
<text text-anchor="start" x="157" y="-74" font-family="Helvetica,sans-Serif" font-size="10.00">+ ~ClustererTask()</text>
<text text-anchor="start" x="157" y="-63" font-family="Helvetica,sans-Serif" font-size="10.00">+ Init()</text>
<text text-anchor="start" x="157" y="-52" font-family="Helvetica,sans-Serif" font-size="10.00">+ Exec()</text>
</a>
</g>
</g>
<!-- Node1&#45;&gt;Node3 -->
<g id="edge2" class="edge"><title>Node1&#45;&gt;Node3</title>
<path fill="none" stroke="midnightblue" d="M747.21,-243.037C643.132,-239.802 354.687,-226.74 274,-180 255.926,-169.53 241.177,-152.054 230.165,-135.347"/>
<polygon fill="none" stroke="midnightblue" points="747.166,-246.537 757.265,-243.337 747.374,-239.54 747.166,-246.537"/>
</g>
<!-- Node4 -->
<g id="node4" class="node"><title>Node4</title>
<g id="a_node4"><a xlink:href="../../d8/d68/classo2_1_1ITS_1_1CookedTrackerTask.html" target="_top" xlink:title="{o2::ITS::CookedTrackerTask\n||+ CookedTrackerTask()\l+ ~CookedTrackerTask()\l+ Init()\l+ Exec()\l+ setBz()\l+ setContinuousMode()\l+ getContinuousMode()\l}">
<polygon fill="none" stroke="black" points="283.5,-28.5 283.5,-151.5 426.5,-151.5 426.5,-28.5 283.5,-28.5"/>
<text text-anchor="middle" x="355" y="-139.5" font-family="Helvetica,sans-Serif" font-size="10.00">o2::ITS::CookedTrackerTask</text>
<polyline fill="none" stroke="black" points="283.5,-132.5 426.5,-132.5 "/>
<text text-anchor="middle" x="355" y="-120.5" font-family="Helvetica,sans-Serif" font-size="10.00"> </text>
<polyline fill="none" stroke="black" points="283.5,-113.5 426.5,-113.5 "/>
<text text-anchor="start" x="291.5" y="-101.5" font-family="Helvetica,sans-Serif" font-size="10.00">+ CookedTrackerTask()</text>
<text text-anchor="start" x="291.5" y="-90.5" font-family="Helvetica,sans-Serif" font-size="10.00">+ ~CookedTrackerTask()</text>
<text text-anchor="start" x="291.5" y="-79.5" font-family="Helvetica,sans-Serif" font-size="10.00">+ Init()</text>
<text text-anchor="start" x="291.5" y="-68.5" font-family="Helvetica,sans-Serif" font-size="10.00">+ Exec()</text>
<text text-anchor="start" x="291.5" y="-57.5" font-family="Helvetica,sans-Serif" font-size="10.00">+ setBz()</text>
<text text-anchor="start" x="291.5" y="-46.5" font-family="Helvetica,sans-Serif" font-size="10.00">+ setContinuousMode()</text>
<text text-anchor="start" x="291.5" y="-35.5" font-family="Helvetica,sans-Serif" font-size="10.00">+ getContinuousMode()</text>
</a>
</g>
</g>
<!-- Node1&#45;&gt;Node4 -->
<g id="edge3" class="edge"><title>Node1&#45;&gt;Node4</title>
<path fill="none" stroke="midnightblue" d="M747.106,-244.759C680.058,-244.499 537.984,-236.631 436,-180 422.849,-172.697 410.688,-162.462 400.001,-151.522"/>
<polygon fill="none" stroke="midnightblue" points="747.211,-248.259 757.205,-244.742 747.199,-241.259 747.211,-248.259"/>
</g>
<!-- Node5 -->
<g id="node5" class="node"><title>Node5</title>
<g id="a_node5"><a xlink:href="../../de/d22/classo2_1_1ITS_1_1DigitizerTask.html" target="_top" xlink:title="{o2::ITS::DigitizerTask\n||+ DigitizerTask()\l+ ~DigitizerTask()\l+ Init()\l+ Exec()\l+ FinishTask()\l+ getDigitizer()\l+ setContinuous()\l+ isContinuous()\l+ setUseAlpideSim()\l+ getUseAlpideSim()\l+ setFairTimeUnitInNS()\l+ getFairTimeUnitInNS()\l}">
<polygon fill="none" stroke="black" points="445,-1 445,-179 569,-179 569,-1 445,-1"/>
<text text-anchor="middle" x="507" y="-167" font-family="Helvetica,sans-Serif" font-size="10.00">o2::ITS::DigitizerTask</text>
<polyline fill="none" stroke="black" points="445,-160 569,-160 "/>
<text text-anchor="middle" x="507" y="-148" font-family="Helvetica,sans-Serif" font-size="10.00"> </text>
<polyline fill="none" stroke="black" points="445,-141 569,-141 "/>
<text text-anchor="start" x="453" y="-129" font-family="Helvetica,sans-Serif" font-size="10.00">+ DigitizerTask()</text>
<text text-anchor="start" x="453" y="-118" font-family="Helvetica,sans-Serif" font-size="10.00">+ ~DigitizerTask()</text>
<text text-anchor="start" x="453" y="-107" font-family="Helvetica,sans-Serif" font-size="10.00">+ Init()</text>
<text text-anchor="start" x="453" y="-96" font-family="Helvetica,sans-Serif" font-size="10.00">+ Exec()</text>
<text text-anchor="start" x="453" y="-85" font-family="Helvetica,sans-Serif" font-size="10.00">+ FinishTask()</text>
<text text-anchor="start" x="453" y="-74" font-family="Helvetica,sans-Serif" font-size="10.00">+ getDigitizer()</text>
<text text-anchor="start" x="453" y="-63" font-family="Helvetica,sans-Serif" font-size="10.00">+ setContinuous()</text>
<text text-anchor="start" x="453" y="-52" font-family="Helvetica,sans-Serif" font-size="10.00">+ isContinuous()</text>
<text text-anchor="start" x="453" y="-41" font-family="Helvetica,sans-Serif" font-size="10.00">+ setUseAlpideSim()</text>
<text text-anchor="start" x="453" y="-30" font-family="Helvetica,sans-Serif" font-size="10.00">+ getUseAlpideSim()</text>
<text text-anchor="start" x="453" y="-19" font-family="Helvetica,sans-Serif" font-size="10.00">+ setFairTimeUnitInNS()</text>
<text text-anchor="start" x="453" y="-8" font-family="Helvetica,sans-Serif" font-size="10.00">+ getFairTimeUnitInNS()</text>
</a>
</g>
</g>
<!-- Node1&#45;&gt;Node5 -->
<g id="edge4" class="edge"><title>Node1&#45;&gt;Node5</title>
<path fill="none" stroke="midnightblue" d="M747.328,-239.198C703.466,-232.142 630.358,-215.716 578,-180 575.061,-177.995 572.184,-175.832 569.375,-173.543"/>
<polygon fill="none" stroke="midnightblue" points="746.873,-242.669 757.287,-240.719 747.931,-235.749 746.873,-242.669"/>
</g>
<!-- Node6 -->
<g id="node6" class="node"><title>Node6</title>
<g id="a_node6"><a xlink:href="../../d6/df5/classo2_1_1ITS_1_1HitAnalysis.html" target="_top" xlink:title="{o2::ITS::HitAnalysis\n||+ HitAnalysis()\l+ ~HitAnalysis()\l+ Init()\l+ Exec()\l+ FinishTask()\l+ SetProcessHits()\l+ SetProcessChips()\l# ProcessChips()\l# ProcessHits()\l}">
<polygon fill="none" stroke="black" points="587,-17.5 587,-162.5 695,-162.5 695,-17.5 587,-17.5"/>
<text text-anchor="middle" x="641" y="-150.5" font-family="Helvetica,sans-Serif" font-size="10.00">o2::ITS::HitAnalysis</text>
<polyline fill="none" stroke="black" points="587,-143.5 695,-143.5 "/>
<text text-anchor="middle" x="641" y="-131.5" font-family="Helvetica,sans-Serif" font-size="10.00"> </text>
<polyline fill="none" stroke="black" points="587,-124.5 695,-124.5 "/>
<text text-anchor="start" x="595" y="-112.5" font-family="Helvetica,sans-Serif" font-size="10.00">+ HitAnalysis()</text>
<text text-anchor="start" x="595" y="-101.5" font-family="Helvetica,sans-Serif" font-size="10.00">+ ~HitAnalysis()</text>
<text text-anchor="start" x="595" y="-90.5" font-family="Helvetica,sans-Serif" font-size="10.00">+ Init()</text>
<text text-anchor="start" x="595" y="-79.5" font-family="Helvetica,sans-Serif" font-size="10.00">+ Exec()</text>
<text text-anchor="start" x="595" y="-68.5" font-family="Helvetica,sans-Serif" font-size="10.00">+ FinishTask()</text>
<text text-anchor="start" x="595" y="-57.5" font-family="Helvetica,sans-Serif" font-size="10.00">+ SetProcessHits()</text>
<text text-anchor="start" x="595" y="-46.5" font-family="Helvetica,sans-Serif" font-size="10.00">+ SetProcessChips()</text>
<text text-anchor="start" x="595" y="-35.5" font-family="Helvetica,sans-Serif" font-size="10.00"># ProcessChips()</text>
<text text-anchor="start" x="595" y="-24.5" font-family="Helvetica,sans-Serif" font-size="10.00"># ProcessHits()</text>
</a>
</g>
</g>
<!-- Node1&#45;&gt;Node6 -->
<g id="edge5" class="edge"><title>Node1&#45;&gt;Node6</title>
<path fill="none" stroke="midnightblue" d="M749.054,-219.101C734.28,-208.007 717.507,-194.239 704,-180 698.919,-174.644 693.924,-168.854 689.106,-162.887"/>
<polygon fill="none" stroke="midnightblue" points="747.354,-222.196 757.481,-225.308 751.505,-216.56 747.354,-222.196"/>
</g>
<!-- Node7 -->
<g id="node7" class="node"><title>Node7</title>
<g id="a_node7"><a xlink:href="../../db/d78/classo2_1_1ITS_1_1TrivialClustererTask.html" target="_top" xlink:title="{o2::ITS::TrivialClustererTask\n||+ TrivialClustererTask()\l+ ~TrivialClustererTask()\l+ Init()\l+ Exec()\l}">
<polygon fill="none" stroke="black" points="713.5,-45 713.5,-135 856.5,-135 856.5,-45 713.5,-45"/>
<text text-anchor="middle" x="785" y="-123" font-family="Helvetica,sans-Serif" font-size="10.00">o2::ITS::TrivialClustererTask</text>
<polyline fill="none" stroke="black" points="713.5,-116 856.5,-116 "/>
<text text-anchor="middle" x="785" y="-104" font-family="Helvetica,sans-Serif" font-size="10.00"> </text>
<polyline fill="none" stroke="black" points="713.5,-97 856.5,-97 "/>
<text text-anchor="start" x="721.5" y="-85" font-family="Helvetica,sans-Serif" font-size="10.00">+ TrivialClustererTask()</text>
<text text-anchor="start" x="721.5" y="-74" font-family="Helvetica,sans-Serif" font-size="10.00">+ ~TrivialClustererTask()</text>
<text text-anchor="start" x="721.5" y="-63" font-family="Helvetica,sans-Serif" font-size="10.00">+ Init()</text>
<text text-anchor="start" x="721.5" y="-52" font-family="Helvetica,sans-Serif" font-size="10.00">+ Exec()</text>
</a>
</g>
</g>
<!-- Node1&#45;&gt;Node7 -->
<g id="edge6" class="edge"><title>Node1&#45;&gt;Node7</title>
<path fill="none" stroke="midnightblue" d="M785,-206.202C785,-184.644 785,-157.521 785,-135.008"/>
<polygon fill="none" stroke="midnightblue" points="781.5,-206.293 785,-216.293 788.5,-206.293 781.5,-206.293"/>
</g>
<!-- Node8 -->
<g id="node8" class="node"><title>Node8</title>
<g id="a_node8"><a xlink:href="../../d7/d6d/classo2_1_1MFT_1_1ClustererTask.html" target="_top" xlink:title="{o2::MFT::ClustererTask\n||+ ClustererTask()\l+ ~ClustererTask()\l+ Init()\l+ Exec()\l}">
<polygon fill="none" stroke="black" points="874.5,-45 874.5,-135 995.5,-135 995.5,-45 874.5,-45"/>
<text text-anchor="middle" x="935" y="-123" font-family="Helvetica,sans-Serif" font-size="10.00">o2::MFT::ClustererTask</text>
<polyline fill="none" stroke="black" points="874.5,-116 995.5,-116 "/>
<text text-anchor="middle" x="935" y="-104" font-family="Helvetica,sans-Serif" font-size="10.00"> </text>
<polyline fill="none" stroke="black" points="874.5,-97 995.5,-97 "/>
<text text-anchor="start" x="882.5" y="-85" font-family="Helvetica,sans-Serif" font-size="10.00">+ ClustererTask()</text>
<text text-anchor="start" x="882.5" y="-74" font-family="Helvetica,sans-Serif" font-size="10.00">+ ~ClustererTask()</text>
<text text-anchor="start" x="882.5" y="-63" font-family="Helvetica,sans-Serif" font-size="10.00">+ Init()</text>
<text text-anchor="start" x="882.5" y="-52" font-family="Helvetica,sans-Serif" font-size="10.00">+ Exec()</text>
</a>
</g>
</g>
<!-- Node1&#45;&gt;Node8 -->
<g id="edge7" class="edge"><title>Node1&#45;&gt;Node8</title>
<path fill="none" stroke="midnightblue" d="M820.801,-218.186C835.171,-207.12 851.494,-193.618 865,-180 878.566,-166.321 892.003,-150.073 903.423,-135.227"/>
<polygon fill="none" stroke="midnightblue" points="818.456,-215.572 812.602,-224.403 822.685,-221.15 818.456,-215.572"/>
</g>
<!-- Node9 -->
<g id="node9" class="node"><title>Node9</title>
<g id="a_node9"><a xlink:href="../../d0/d22/classo2_1_1MFT_1_1DigitizerTask.html" target="_top" xlink:title="{o2::MFT::DigitizerTask\n||+ DigitizerTask()\l+ ~DigitizerTask()\l+ Init()\l+ Exec()\l+ FinishTask()\l+ getDigitizer()\l+ setContinuous()\l+ isContinuous()\l+ setUseAlpideSim()\l+ getUseAlpideSim()\l+ setFairTimeUnitInNS()\l+ getFairTimeUnitInNS()\l}">
<polygon fill="none" stroke="black" points="1014,-1 1014,-179 1138,-179 1138,-1 1014,-1"/>
<text text-anchor="middle" x="1076" y="-167" font-family="Helvetica,sans-Serif" font-size="10.00">o2::MFT::DigitizerTask</text>
<polyline fill="none" stroke="black" points="1014,-160 1138,-160 "/>
<text text-anchor="middle" x="1076" y="-148" font-family="Helvetica,sans-Serif" font-size="10.00"> </text>
<polyline fill="none" stroke="black" points="1014,-141 1138,-141 "/>
<text text-anchor="start" x="1022" y="-129" font-family="Helvetica,sans-Serif" font-size="10.00">+ DigitizerTask()</text>
<text text-anchor="start" x="1022" y="-118" font-family="Helvetica,sans-Serif" font-size="10.00">+ ~DigitizerTask()</text>
<text text-anchor="start" x="1022" y="-107" font-family="Helvetica,sans-Serif" font-size="10.00">+ Init()</text>
<text text-anchor="start" x="1022" y="-96" font-family="Helvetica,sans-Serif" font-size="10.00">+ Exec()</text>
<text text-anchor="start" x="1022" y="-85" font-family="Helvetica,sans-Serif" font-size="10.00">+ FinishTask()</text>
<text text-anchor="start" x="1022" y="-74" font-family="Helvetica,sans-Serif" font-size="10.00">+ getDigitizer()</text>
<text text-anchor="start" x="1022" y="-63" font-family="Helvetica,sans-Serif" font-size="10.00">+ setContinuous()</text>
<text text-anchor="start" x="1022" y="-52" font-family="Helvetica,sans-Serif" font-size="10.00">+ isContinuous()</text>
<text text-anchor="start" x="1022" y="-41" font-family="Helvetica,sans-Serif" font-size="10.00">+ setUseAlpideSim()</text>
<text text-anchor="start" x="1022" y="-30" font-family="Helvetica,sans-Serif" font-size="10.00">+ getUseAlpideSim()</text>
<text text-anchor="start" x="1022" y="-19" font-family="Helvetica,sans-Serif" font-size="10.00">+ setFairTimeUnitInNS()</text>
<text text-anchor="start" x="1022" y="-8" font-family="Helvetica,sans-Serif" font-size="10.00">+ getFairTimeUnitInNS()</text>
</a>
</g>
</g>
<!-- Node1&#45;&gt;Node9 -->
<g id="edge8" class="edge"><title>Node1&#45;&gt;Node9</title>
<path fill="none" stroke="midnightblue" d="M822.992,-239.901C869.12,-233.43 947.719,-217.477 1004,-180 1007.31,-177.797 1010.54,-175.395 1013.68,-172.838"/>
<polygon fill="none" stroke="midnightblue" points="822.283,-236.464 812.829,-241.246 823.202,-243.404 822.283,-236.464"/>
</g>
<!-- Node10 -->
<g id="node10" class="node"><title>Node10</title>
<g id="a_node10"><a xlink:href="../../d0/dad/classo2_1_1tof_1_1DigitizerTask.html" target="_top" xlink:title="{o2::tof::DigitizerTask\n||+ DigitizerTask()\l+ ~DigitizerTask()\l+ Init()\l+ Exec()\l+ FinishTask()\l+ getDigitizer()\l+ setContinuous()\l+ isContinuous()\l}">
<polygon fill="none" stroke="black" points="1156,-23 1156,-157 1264,-157 1264,-23 1156,-23"/>
<text text-anchor="middle" x="1210" y="-145" font-family="Helvetica,sans-Serif" font-size="10.00">o2::tof::DigitizerTask</text>
<polyline fill="none" stroke="black" points="1156,-138 1264,-138 "/>
<text text-anchor="middle" x="1210" y="-126" font-family="Helvetica,sans-Serif" font-size="10.00"> </text>
<polyline fill="none" stroke="black" points="1156,-119 1264,-119 "/>
<text text-anchor="start" x="1164" y="-107" font-family="Helvetica,sans-Serif" font-size="10.00">+ DigitizerTask()</text>
<text text-anchor="start" x="1164" y="-96" font-family="Helvetica,sans-Serif" font-size="10.00">+ ~DigitizerTask()</text>
<text text-anchor="start" x="1164" y="-85" font-family="Helvetica,sans-Serif" font-size="10.00">+ Init()</text>
<text text-anchor="start" x="1164" y="-74" font-family="Helvetica,sans-Serif" font-size="10.00">+ Exec()</text>
<text text-anchor="start" x="1164" y="-63" font-family="Helvetica,sans-Serif" font-size="10.00">+ FinishTask()</text>
<text text-anchor="start" x="1164" y="-52" font-family="Helvetica,sans-Serif" font-size="10.00">+ getDigitizer()</text>
<text text-anchor="start" x="1164" y="-41" font-family="Helvetica,sans-Serif" font-size="10.00">+ setContinuous()</text>
<text text-anchor="start" x="1164" y="-30" font-family="Helvetica,sans-Serif" font-size="10.00">+ isContinuous()</text>
</a>
</g>
</g>
<!-- Node1&#45;&gt;Node10 -->
<g id="edge9" class="edge"><title>Node1&#45;&gt;Node10</title>
<path fill="none" stroke="midnightblue" d="M822.964,-240.89C904.322,-233.652 1092.44,-213.687 1146,-180 1155.51,-174.022 1164.03,-166.072 1171.52,-157.377"/>
<polygon fill="none" stroke="midnightblue" points="822.331,-237.432 812.673,-241.788 822.94,-244.405 822.331,-237.432"/>
</g>
<!-- Node11 -->
<g id="node11" class="node"><title>Node11</title>
<g id="a_node11"><a xlink:href="../../db/df7/classo2_1_1TPC_1_1ClustererTask.html" target="_top" xlink:title="{o2::TPC::ClustererTask\n||+ ClustererTask()\l+ ~ClustererTask()\l+ Init()\l+ Exec()\l+ setClustererEnable()\l+ isClustererEnable()\l+ getClusterer()\l+ getBoxClusterer()\l+ getHwClusterer()\l+ setContinuousReadout()\l}">
<polygon fill="none" stroke="black" points="1282.5,-12 1282.5,-168 1413.5,-168 1413.5,-12 1282.5,-12"/>
<text text-anchor="middle" x="1348" y="-156" font-family="Helvetica,sans-Serif" font-size="10.00">o2::TPC::ClustererTask</text>
<polyline fill="none" stroke="black" points="1282.5,-149 1413.5,-149 "/>
<text text-anchor="middle" x="1348" y="-137" font-family="Helvetica,sans-Serif" font-size="10.00"> </text>
<polyline fill="none" stroke="black" points="1282.5,-130 1413.5,-130 "/>
<text text-anchor="start" x="1290.5" y="-118" font-family="Helvetica,sans-Serif" font-size="10.00">+ ClustererTask()</text>
<text text-anchor="start" x="1290.5" y="-107" font-family="Helvetica,sans-Serif" font-size="10.00">+ ~ClustererTask()</text>
<text text-anchor="start" x="1290.5" y="-96" font-family="Helvetica,sans-Serif" font-size="10.00">+ Init()</text>
<text text-anchor="start" x="1290.5" y="-85" font-family="Helvetica,sans-Serif" font-size="10.00">+ Exec()</text>
<text text-anchor="start" x="1290.5" y="-74" font-family="Helvetica,sans-Serif" font-size="10.00">+ setClustererEnable()</text>
<text text-anchor="start" x="1290.5" y="-63" font-family="Helvetica,sans-Serif" font-size="10.00">+ isClustererEnable()</text>
<text text-anchor="start" x="1290.5" y="-52" font-family="Helvetica,sans-Serif" font-size="10.00">+ getClusterer()</text>
<text text-anchor="start" x="1290.5" y="-41" font-family="Helvetica,sans-Serif" font-size="10.00">+ getBoxClusterer()</text>
<text text-anchor="start" x="1290.5" y="-30" font-family="Helvetica,sans-Serif" font-size="10.00">+ getHwClusterer()</text>
<text text-anchor="start" x="1290.5" y="-19" font-family="Helvetica,sans-Serif" font-size="10.00">+ setContinuousReadout()</text>
</a>
</g>
</g>
<!-- Node1&#45;&gt;Node11 -->
<g id="edge10" class="edge"><title>Node1&#45;&gt;Node11</title>
<path fill="none" stroke="midnightblue" d="M822.666,-242.554C923.156,-238.152 1195.25,-222.521 1273,-180 1279.03,-176.703 1284.78,-172.713 1290.22,-168.27"/>
<polygon fill="none" stroke="midnightblue" points="822.5,-239.058 812.658,-242.98 822.798,-246.051 822.5,-239.058"/>
</g>
<!-- Node12 -->
<g id="node12" class="node"><title>Node12</title>
<g id="a_node12"><a xlink:href="../../dd/d64/classo2_1_1TPC_1_1DigitizerTask.html" target="_top" xlink:title="{o2::TPC::DigitizerTask\n||+ DigitizerTask()\l+ ~DigitizerTask()\l+ Init()\l+ setDebugOutput()\l+ setContinuousReadout()\l+ setMaximalTimeBinWriteOut()\l+ Exec()\l+ FinishTask()\l+ initBunchTrainStructure()\l}">
<polygon fill="none" stroke="black" points="1431.5,-17.5 1431.5,-162.5 1588.5,-162.5 1588.5,-17.5 1431.5,-17.5"/>
<text text-anchor="middle" x="1510" y="-150.5" font-family="Helvetica,sans-Serif" font-size="10.00">o2::TPC::DigitizerTask</text>
<polyline fill="none" stroke="black" points="1431.5,-143.5 1588.5,-143.5 "/>
<text text-anchor="middle" x="1510" y="-131.5" font-family="Helvetica,sans-Serif" font-size="10.00"> </text>
<polyline fill="none" stroke="black" points="1431.5,-124.5 1588.5,-124.5 "/>
<text text-anchor="start" x="1439.5" y="-112.5" font-family="Helvetica,sans-Serif" font-size="10.00">+ DigitizerTask()</text>
<text text-anchor="start" x="1439.5" y="-101.5" font-family="Helvetica,sans-Serif" font-size="10.00">+ ~DigitizerTask()</text>
<text text-anchor="start" x="1439.5" y="-90.5" font-family="Helvetica,sans-Serif" font-size="10.00">+ Init()</text>
<text text-anchor="start" x="1439.5" y="-79.5" font-family="Helvetica,sans-Serif" font-size="10.00">+ setDebugOutput()</text>
<text text-anchor="start" x="1439.5" y="-68.5" font-family="Helvetica,sans-Serif" font-size="10.00">+ setContinuousReadout()</text>
<text text-anchor="start" x="1439.5" y="-57.5" font-family="Helvetica,sans-Serif" font-size="10.00">+ setMaximalTimeBinWriteOut()</text>
<text text-anchor="start" x="1439.5" y="-46.5" font-family="Helvetica,sans-Serif" font-size="10.00">+ Exec()</text>
<text text-anchor="start" x="1439.5" y="-35.5" font-family="Helvetica,sans-Serif" font-size="10.00">+ FinishTask()</text>
<text text-anchor="start" x="1439.5" y="-24.5" font-family="Helvetica,sans-Serif" font-size="10.00">+ initBunchTrainStructure()</text>
</a>
</g>
</g>
<!-- Node1&#45;&gt;Node12 -->
<g id="edge11" class="edge"><title>Node1&#45;&gt;Node12</title>
<path fill="none" stroke="midnightblue" d="M822.895,-243.524C943.208,-241.498 1314.91,-231.15 1422,-180 1431.51,-175.458 1440.57,-169.442 1449.02,-162.675"/>
<polygon fill="none" stroke="midnightblue" points="822.646,-240.027 812.703,-243.685 822.757,-247.026 822.646,-240.027"/>
</g>
</g>
</svg>
