<?xml version="1.0" encoding="UTF-8" standalone="no"?>
<!DOCTYPE svg PUBLIC "-//W3C//DTD SVG 1.1//EN"
 "http://www.w3.org/Graphics/SVG/1.1/DTD/svg11.dtd">
<!-- Generated by graphviz version 2.36.0 (20140111.2315)
 -->
<!-- Title: o2::header::DataHeader Pages: 1 -->
<svg width="1383pt" height="1040pt"
 viewBox="0.00 0.00 1382.57 1040.00" xmlns="http://www.w3.org/2000/svg" xmlns:xlink="http://www.w3.org/1999/xlink">
<g id="graph0" class="graph" transform="scale(1 1) rotate(0) translate(4 1036)">
<title>o2::header::DataHeader</title>
<!-- Node1 -->
<g id="node1" class="node"><title>Node1</title>
<polygon fill="#bfbfbf" stroke="black" points="853.073,-1 853.073,-157 974.073,-157 974.073,-1 853.073,-1"/>
<text text-anchor="middle" x="913.573" y="-145" font-family="Helvetica,sans-Serif" font-size="10.00">o2::header::DataHeader</text>
<polyline fill="none" stroke="black" points="853.073,-138 974.073,-138 "/>
<text text-anchor="middle" x="913.573" y="-126" font-family="Helvetica,sans-Serif" font-size="10.00"> </text>
<polyline fill="none" stroke="black" points="853.073,-119 974.073,-119 "/>
<text text-anchor="start" x="861.073" y="-107" font-family="Helvetica,sans-Serif" font-size="10.00">+ DataHeader()</text>
<text text-anchor="start" x="861.073" y="-96" font-family="Helvetica,sans-Serif" font-size="10.00">+ DataHeader()</text>
<text text-anchor="start" x="861.073" y="-85" font-family="Helvetica,sans-Serif" font-size="10.00">+ DataHeader()</text>
<text text-anchor="start" x="861.073" y="-74" font-family="Helvetica,sans-Serif" font-size="10.00">+ operator=()</text>
<text text-anchor="start" x="861.073" y="-63" font-family="Helvetica,sans-Serif" font-size="10.00">+ operator==()</text>
<text text-anchor="start" x="861.073" y="-52" font-family="Helvetica,sans-Serif" font-size="10.00">+ operator==()</text>
<text text-anchor="start" x="861.073" y="-41" font-family="Helvetica,sans-Serif" font-size="10.00">+ operator==()</text>
<text text-anchor="start" x="861.073" y="-30" font-family="Helvetica,sans-Serif" font-size="10.00">+ operator==()</text>
<text text-anchor="start" x="861.073" y="-19" font-family="Helvetica,sans-Serif" font-size="10.00">+ print()</text>
<text text-anchor="start" x="861.073" y="-8" font-family="Helvetica,sans-Serif" font-size="10.00">+ Get()</text>
</g>
<!-- Node2 -->
<g id="node2" class="node"><title>Node2</title>
<g id="a_node2"><a xlink:href="../../d8/dbd/structo2_1_1header_1_1BaseHeader.html" target="_top" xlink:title="the base header struct Every header type must begin (i.e. derive) with this. Don&#39;t use this struct di...">
<polygon fill="none" stroke="black" points="680.573,-216.5 680.573,-339.5 802.573,-339.5 802.573,-216.5 680.573,-216.5"/>
<text text-anchor="middle" x="741.573" y="-327.5" font-family="Helvetica,sans-Serif" font-size="10.00">o2::header::BaseHeader</text>
<polyline fill="none" stroke="black" points="680.573,-320.5 802.573,-320.5 "/>
<text text-anchor="middle" x="741.573" y="-308.5" font-family="Helvetica,sans-Serif" font-size="10.00"> </text>
<polyline fill="none" stroke="black" points="680.573,-301.5 802.573,-301.5 "/>
<text text-anchor="start" x="688.573" y="-289.5" font-family="Helvetica,sans-Serif" font-size="10.00">+ BaseHeader()</text>
<text text-anchor="start" x="688.573" y="-278.5" font-family="Helvetica,sans-Serif" font-size="10.00">+ BaseHeader()</text>
<text text-anchor="start" x="688.573" y="-267.5" font-family="Helvetica,sans-Serif" font-size="10.00">+ BaseHeader()</text>
<text text-anchor="start" x="688.573" y="-256.5" font-family="Helvetica,sans-Serif" font-size="10.00">+ size()</text>
<text text-anchor="start" x="688.573" y="-245.5" font-family="Helvetica,sans-Serif" font-size="10.00">+ data()</text>
<text text-anchor="start" x="688.573" y="-234.5" font-family="Helvetica,sans-Serif" font-size="10.00">+ next()</text>
<text text-anchor="start" x="688.573" y="-223.5" font-family="Helvetica,sans-Serif" font-size="10.00">+ get()</text>
</a>
</g>
</g>
<!-- Node2&#45;&gt;Node1 -->
<g id="edge1" class="edge"><title>Node2&#45;&gt;Node1</title>
<path fill="none" stroke="midnightblue" d="M801.163,-208.749C817.901,-189.577 836.118,-168.713 852.918,-149.471"/>
<polygon fill="none" stroke="midnightblue" points="798.522,-206.451 794.582,-216.286 803.796,-211.055 798.522,-206.451"/>
</g>
<!-- Node3 -->
<g id="node3" class="node"><title>Node3</title>
<g id="a_node3"><a xlink:href="../../d9/db3/structo2_1_1header_1_1Descriptor.html" target="_top" xlink:title="{o2::header::Descriptor\l\&lt; gSizeHeaderDescriptionString \&gt;\n||+ Descriptor()\l+ Descriptor()\l+ Descriptor()\l+ Descriptor()\l+ operator=()\l+ operator ItgType()\l+ runtimeInit()\l+ operator==()\l+ operator==()\l+ operator!=()\l+ operator!=()\l+ print()\l}">
<polygon fill="none" stroke="black" points="395.573,-464.5 395.573,-653.5 561.573,-653.5 561.573,-464.5 395.573,-464.5"/>
<text text-anchor="start" x="403.573" y="-641.5" font-family="Helvetica,sans-Serif" font-size="10.00">o2::header::Descriptor</text>
<text text-anchor="middle" x="478.573" y="-630.5" font-family="Helvetica,sans-Serif" font-size="10.00">&lt; gSizeHeaderDescriptionString &gt;</text>
<polyline fill="none" stroke="black" points="395.573,-623.5 561.573,-623.5 "/>
<text text-anchor="middle" x="478.573" y="-611.5" font-family="Helvetica,sans-Serif" font-size="10.00"> </text>
<polyline fill="none" stroke="black" points="395.573,-604.5 561.573,-604.5 "/>
<text text-anchor="start" x="403.573" y="-592.5" font-family="Helvetica,sans-Serif" font-size="10.00">+ Descriptor()</text>
<text text-anchor="start" x="403.573" y="-581.5" font-family="Helvetica,sans-Serif" font-size="10.00">+ Descriptor()</text>
<text text-anchor="start" x="403.573" y="-570.5" font-family="Helvetica,sans-Serif" font-size="10.00">+ Descriptor()</text>
<text text-anchor="start" x="403.573" y="-559.5" font-family="Helvetica,sans-Serif" font-size="10.00">+ Descriptor()</text>
<text text-anchor="start" x="403.573" y="-548.5" font-family="Helvetica,sans-Serif" font-size="10.00">+ operator=()</text>
<text text-anchor="start" x="403.573" y="-537.5" font-family="Helvetica,sans-Serif" font-size="10.00">+ operator ItgType()</text>
<text text-anchor="start" x="403.573" y="-526.5" font-family="Helvetica,sans-Serif" font-size="10.00">+ runtimeInit()</text>
<text text-anchor="start" x="403.573" y="-515.5" font-family="Helvetica,sans-Serif" font-size="10.00">+ operator==()</text>
<text text-anchor="start" x="403.573" y="-504.5" font-family="Helvetica,sans-Serif" font-size="10.00">+ operator==()</text>
<text text-anchor="start" x="403.573" y="-493.5" font-family="Helvetica,sans-Serif" font-size="10.00">+ operator!=()</text>
<text text-anchor="start" x="403.573" y="-482.5" font-family="Helvetica,sans-Serif" font-size="10.00">+ operator!=()</text>
<text text-anchor="start" x="403.573" y="-471.5" font-family="Helvetica,sans-Serif" font-size="10.00">+ print()</text>
</a>
</g>
</g>
<!-- Node3&#45;&gt;Node2 -->
<g id="edge2" class="edge"><title>Node3&#45;&gt;Node2</title>
<path fill="none" stroke="#404040" d="M482.326,-464.407C488.216,-427.467 500.76,-387.012 526.573,-358 562.683,-317.414 621.477,-297.648 668.463,-288.039"/>
<polygon fill="none" stroke="#404040" points="668.655,-288.002 673.799,-282.948 680.442,-285.753 675.298,-290.807 668.655,-288.002"/>
<text text-anchor="middle" x="555.073" y="-399.5" font-family="Helvetica,sans-Serif" font-size="10.00"> +description</text>
</g>
<!-- Node4 -->
<g id="node4" class="node"><title>Node4</title>
<polygon fill="none" stroke="#bfbfbf" points="135.573,-973.5 135.573,-1030.5 173.573,-1030.5 173.573,-973.5 135.573,-973.5"/>
<text text-anchor="middle" x="154.573" y="-1018.5" font-family="Helvetica,sans-Serif" font-size="10.00">Type</text>
<polyline fill="none" stroke="#bfbfbf" points="135.573,-1011.5 173.573,-1011.5 "/>
<text text-anchor="middle" x="154.573" y="-999.5" font-family="Helvetica,sans-Serif" font-size="10.00"> </text>
<polyline fill="none" stroke="#bfbfbf" points="135.573,-992.5 173.573,-992.5 "/>
<text text-anchor="middle" x="154.573" y="-980.5" font-family="Helvetica,sans-Serif" font-size="10.00"> </text>
</g>
<!-- Node4&#45;&gt;Node3 -->
<g id="edge3" class="edge"><title>Node4&#45;&gt;Node3</title>
<path fill="none" stroke="#404040" d="M150.67,-973.132C144.464,-919.671 136.865,-800.2 177.573,-712 216.392,-627.892 293.487,-690.681 384.246,-654.229"/>
<polygon fill="none" stroke="#404040" points="384.417,-654.153 388.272,-648.06 395.38,-649.275 391.524,-655.369 384.417,-654.153"/>
<text text-anchor="middle" x="187.573" y="-804.5" font-family="Helvetica,sans-Serif" font-size="10.00"> +itg</text>
</g>
<!-- Node8 -->
<g id="node8" class="node"><title>Node8</title>
<g id="a_node8"><a xlink:href="../../d9/db3/structo2_1_1header_1_1Descriptor.html" target="_top" xlink:title="{o2::header::Descriptor\l\&lt; N, PrinterPolicy \&gt;\n||+ Descriptor()\l+ Descriptor()\l+ Descriptor()\l+ operator=()\l+ operator ItgType()\l+ Descriptor()\l+ runtimeInit()\l+ operator==()\l+ operator!=()\l+ operator==()\l+ operator!=()\l+ print()\l}">
<polygon fill="none" stroke="black" points="280.073,-712.5 280.073,-901.5 393.073,-901.5 393.073,-712.5 280.073,-712.5"/>
<text text-anchor="start" x="288.073" y="-889.5" font-family="Helvetica,sans-Serif" font-size="10.00">o2::header::Descriptor</text>
<text text-anchor="middle" x="336.573" y="-878.5" font-family="Helvetica,sans-Serif" font-size="10.00">&lt; N, PrinterPolicy &gt;</text>
<polyline fill="none" stroke="black" points="280.073,-871.5 393.073,-871.5 "/>
<text text-anchor="middle" x="336.573" y="-859.5" font-family="Helvetica,sans-Serif" font-size="10.00"> </text>
<polyline fill="none" stroke="black" points="280.073,-852.5 393.073,-852.5 "/>
<text text-anchor="start" x="288.073" y="-840.5" font-family="Helvetica,sans-Serif" font-size="10.00">+ Descriptor()</text>
<text text-anchor="start" x="288.073" y="-829.5" font-family="Helvetica,sans-Serif" font-size="10.00">+ Descriptor()</text>
<text text-anchor="start" x="288.073" y="-818.5" font-family="Helvetica,sans-Serif" font-size="10.00">+ Descriptor()</text>
<text text-anchor="start" x="288.073" y="-807.5" font-family="Helvetica,sans-Serif" font-size="10.00">+ operator=()</text>
<text text-anchor="start" x="288.073" y="-796.5" font-family="Helvetica,sans-Serif" font-size="10.00">+ operator ItgType()</text>
<text text-anchor="start" x="288.073" y="-785.5" font-family="Helvetica,sans-Serif" font-size="10.00">+ Descriptor()</text>
<text text-anchor="start" x="288.073" y="-774.5" font-family="Helvetica,sans-Serif" font-size="10.00">+ runtimeInit()</text>
<text text-anchor="start" x="288.073" y="-763.5" font-family="Helvetica,sans-Serif" font-size="10.00">+ operator==()</text>
<text text-anchor="start" x="288.073" y="-752.5" font-family="Helvetica,sans-Serif" font-size="10.00">+ operator!=()</text>
<text text-anchor="start" x="288.073" y="-741.5" font-family="Helvetica,sans-Serif" font-size="10.00">+ operator==()</text>
<text text-anchor="start" x="288.073" y="-730.5" font-family="Helvetica,sans-Serif" font-size="10.00">+ operator!=()</text>
<text text-anchor="start" x="288.073" y="-719.5" font-family="Helvetica,sans-Serif" font-size="10.00">+ print()</text>
</a>
</g>
</g>
<!-- Node4&#45;&gt;Node8 -->
<g id="edge8" class="edge"><title>Node4&#45;&gt;Node8</title>
<path fill="none" stroke="#404040" d="M173.832,-983.483C178.024,-979.688 182.441,-975.703 186.573,-972 221.509,-940.693 233.723,-936.442 265.573,-902 267.775,-899.619 269.977,-897.172 272.17,-894.676"/>
<polygon fill="none" stroke="#404040" points="272.255,-894.577 273.117,-887.417 280.057,-885.459 279.195,-892.619 272.255,-894.577"/>
<text text-anchor="middle" x="257.573" y="-934.5" font-family="Helvetica,sans-Serif" font-size="10.00"> +itg</text>
</g>
<!-- Node10 -->
<g id="node10" class="node"><title>Node10</title>
<g id="a_node10"><a xlink:href="../../d9/db3/structo2_1_1header_1_1Descriptor.html" target="_top" xlink:title="{o2::header::Descriptor\l\&lt; gSizeSerializationMethodString \&gt;\n||+ Descriptor()\l+ Descriptor()\l+ Descriptor()\l+ Descriptor()\l+ operator=()\l+ operator ItgType()\l+ runtimeInit()\l+ operator==()\l+ operator==()\l+ operator!=()\l+ operator!=()\l+ print()\l}">
<polygon fill="none" stroke="black" points="207.573,-464.5 207.573,-653.5 377.573,-653.5 377.573,-464.5 207.573,-464.5"/>
<text text-anchor="start" x="215.573" y="-641.5" font-family="Helvetica,sans-Serif" font-size="10.00">o2::header::Descriptor</text>
<text text-anchor="middle" x="292.573" y="-630.5" font-family="Helvetica,sans-Serif" font-size="10.00">&lt; gSizeSerializationMethodString &gt;</text>
<polyline fill="none" stroke="black" points="207.573,-623.5 377.573,-623.5 "/>
<text text-anchor="middle" x="292.573" y="-611.5" font-family="Helvetica,sans-Serif" font-size="10.00"> </text>
<polyline fill="none" stroke="black" points="207.573,-604.5 377.573,-604.5 "/>
<text text-anchor="start" x="215.573" y="-592.5" font-family="Helvetica,sans-Serif" font-size="10.00">+ Descriptor()</text>
<text text-anchor="start" x="215.573" y="-581.5" font-family="Helvetica,sans-Serif" font-size="10.00">+ Descriptor()</text>
<text text-anchor="start" x="215.573" y="-570.5" font-family="Helvetica,sans-Serif" font-size="10.00">+ Descriptor()</text>
<text text-anchor="start" x="215.573" y="-559.5" font-family="Helvetica,sans-Serif" font-size="10.00">+ Descriptor()</text>
<text text-anchor="start" x="215.573" y="-548.5" font-family="Helvetica,sans-Serif" font-size="10.00">+ operator=()</text>
<text text-anchor="start" x="215.573" y="-537.5" font-family="Helvetica,sans-Serif" font-size="10.00">+ operator ItgType()</text>
<text text-anchor="start" x="215.573" y="-526.5" font-family="Helvetica,sans-Serif" font-size="10.00">+ runtimeInit()</text>
<text text-anchor="start" x="215.573" y="-515.5" font-family="Helvetica,sans-Serif" font-size="10.00">+ operator==()</text>
<text text-anchor="start" x="215.573" y="-504.5" font-family="Helvetica,sans-Serif" font-size="10.00">+ operator==()</text>
<text text-anchor="start" x="215.573" y="-493.5" font-family="Helvetica,sans-Serif" font-size="10.00">+ operator!=()</text>
<text text-anchor="start" x="215.573" y="-482.5" font-family="Helvetica,sans-Serif" font-size="10.00">+ operator!=()</text>
<text text-anchor="start" x="215.573" y="-471.5" font-family="Helvetica,sans-Serif" font-size="10.00">+ print()</text>
</a>
</g>
</g>
<!-- Node4&#45;&gt;Node10 -->
<g id="edge17" class="edge"><title>Node4&#45;&gt;Node10</title>
<path fill="none" stroke="#404040" d="M135.414,-992.92C105.836,-979.238 50.2112,-948.39 28.5729,-902 -7.12361,-825.471 -11.5557,-786.3 28.5729,-712 62.8085,-648.611 135.36,-609.644 195.756,-587.057"/>
<polygon fill="none" stroke="#404040" points="195.985,-586.975 200.266,-581.172 207.269,-582.892 202.988,-588.695 195.985,-586.975"/>
<text text-anchor="middle" x="38.5729" y="-804.5" font-family="Helvetica,sans-Serif" font-size="10.00"> +itg</text>
</g>
<!-- Node5 -->
<g id="node5" class="node"><title>Node5</title>
<polygon fill="none" stroke="#bfbfbf" points="457.073,-973.5 457.073,-1030.5 492.073,-1030.5 492.073,-973.5 457.073,-973.5"/>
<text text-anchor="middle" x="474.573" y="-1018.5" font-family="Helvetica,sans-Serif" font-size="10.00">char</text>
<polyline fill="none" stroke="#bfbfbf" points="457.073,-1011.5 492.073,-1011.5 "/>
<text text-anchor="middle" x="474.573" y="-999.5" font-family="Helvetica,sans-Serif" font-size="10.00"> </text>
<polyline fill="none" stroke="#bfbfbf" points="457.073,-992.5 492.073,-992.5 "/>
<text text-anchor="middle" x="474.573" y="-980.5" font-family="Helvetica,sans-Serif" font-size="10.00"> </text>
</g>
<!-- Node5&#45;&gt;Node2 -->
<g id="edge15" class="edge"><title>Node5&#45;&gt;Node2</title>
<path fill="none" stroke="#404040" d="M492.107,-988.882C529.844,-962.788 615.459,-903.507 616.573,-902 680.41,-815.653 634.597,-763.64 690.573,-672 696.47,-662.345 703.789,-664.252 708.573,-654 732.773,-602.137 739.306,-445.724 741.019,-352.086"/>
<polygon fill="none" stroke="#404040" points="741.022,-351.867 737.123,-345.801 741.222,-339.868 745.121,-345.934 741.022,-351.867"/>
<text text-anchor="middle" x="721.073" y="-680.5" font-family="Helvetica,sans-Serif" font-size="10.00"> +magicString</text>
</g>
<!-- Node5&#45;&gt;Node3 -->
<g id="edge4" class="edge"><title>Node5&#45;&gt;Node3</title>
<path fill="none" stroke="#404040" d="M480.797,-973.473C497.288,-899.736 540.392,-701.357 533.573,-672 533.04,-669.705 532.453,-667.403 531.817,-665.099"/>
<polygon fill="none" stroke="#404040" points="531.801,-665.046 526.21,-660.493 528.263,-653.58 533.854,-658.134 531.801,-665.046"/>
<text text-anchor="middle" x="543.073" y="-804.5" font-family="Helvetica,sans-Serif" font-size="10.00"> +str</text>
</g>
<!-- Node5&#45;&gt;Node8 -->
<g id="edge9" class="edge"><title>Node5&#45;&gt;Node8</title>
<path fill="none" stroke="#404040" d="M457.007,-994.655C439.085,-987.368 411.561,-973.809 394.573,-954 384.174,-941.874 375.497,-927.654 368.299,-912.933"/>
<polygon fill="none" stroke="#404040" points="368.101,-912.504 361.957,-908.728 363.079,-901.605 369.223,-905.38 368.101,-912.504"/>
<text text-anchor="middle" x="405.073" y="-934.5" font-family="Helvetica,sans-Serif" font-size="10.00"> +str</text>
</g>
<!-- Node5&#45;&gt;Node10 -->
<g id="edge18" class="edge"><title>Node5&#45;&gt;Node10</title>
<path fill="none" stroke="#404040" d="M471.071,-973.154C463.665,-920.232 443.532,-802.35 401.573,-712 394,-695.692 384.603,-679.328 374.526,-663.695"/>
<polygon fill="none" stroke="#404040" points="374.43,-663.549 367.786,-660.746 367.818,-653.535 374.462,-656.338 374.43,-663.549"/>
<text text-anchor="middle" x="470.073" y="-804.5" font-family="Helvetica,sans-Serif" font-size="10.00"> +str</text>
</g>
<!-- Node6 -->
<g id="node6" class="node"><title>Node6</title>
<polygon fill="none" stroke="#bfbfbf" points="196.073,-973.5 196.073,-1030.5 225.073,-1030.5 225.073,-973.5 196.073,-973.5"/>
<text text-anchor="middle" x="210.573" y="-1018.5" font-family="Helvetica,sans-Serif" font-size="10.00">int</text>
<polyline fill="none" stroke="#bfbfbf" points="196.073,-1011.5 225.073,-1011.5 "/>
<text text-anchor="middle" x="210.573" y="-999.5" font-family="Helvetica,sans-Serif" font-size="10.00"> </text>
<polyline fill="none" stroke="#bfbfbf" points="196.073,-992.5 225.073,-992.5 "/>
<text text-anchor="middle" x="210.573" y="-980.5" font-family="Helvetica,sans-Serif" font-size="10.00"> </text>
</g>
<!-- Node6&#45;&gt;Node3 -->
<g id="edge5" class="edge"><title>Node6&#45;&gt;Node3</title>
<path fill="none" stroke="#404040" d="M207.8,-973.421C201.221,-900.924 188.536,-708.091 235.573,-672 286.262,-633.108 321.865,-678.333 384.252,-654.149"/>
<polygon fill="none" stroke="#404040" points="384.386,-654.09 388.25,-648.001 395.356,-649.226 391.492,-655.314 384.386,-654.09"/>
<text text-anchor="middle" x="238.073" y="-815.5" font-family="Helvetica,sans-Serif" font-size="10.00"> +arraySize</text>
<text text-anchor="middle" x="238.073" y="-804.5" font-family="Helvetica,sans-Serif" font-size="10.00">+size</text>
<text text-anchor="middle" x="238.073" y="-793.5" font-family="Helvetica,sans-Serif" font-size="10.00">+bitcount</text>
</g>
<!-- Node6&#45;&gt;Node8 -->
<g id="edge10" class="edge"><title>Node6&#45;&gt;Node8</title>
<path fill="none" stroke="#404040" d="M225.215,-995.042C241.591,-987.682 267.872,-973.676 283.573,-954 293.357,-941.739 301.431,-927.511 308.067,-912.844"/>
<polygon fill="none" stroke="#404040" points="308.167,-912.609 306.836,-905.522 312.866,-901.567 314.197,-908.654 308.167,-912.609"/>
<text text-anchor="middle" x="330.073" y="-945.5" font-family="Helvetica,sans-Serif" font-size="10.00"> +arraySize</text>
<text text-anchor="middle" x="330.073" y="-934.5" font-family="Helvetica,sans-Serif" font-size="10.00">+size</text>
<text text-anchor="middle" x="330.073" y="-923.5" font-family="Helvetica,sans-Serif" font-size="10.00">+bitcount</text>
</g>
<!-- Node6&#45;&gt;Node10 -->
<g id="edge19" class="edge"><title>Node6&#45;&gt;Node10</title>
<path fill="none" stroke="#404040" d="M195.996,-984.776C191.823,-980.45 187.159,-975.898 182.573,-972 140.959,-936.628 106.908,-950.384 81.5729,-902 42.4009,-827.191 43.0838,-787.163 81.5729,-712 106.001,-664.296 153.146,-628.149 196.686,-603.099"/>
<polygon fill="none" stroke="#404040" points="196.893,-602.983 200.179,-596.564 207.368,-597.128 204.082,-603.547 196.893,-602.983"/>
<text text-anchor="middle" x="107.073" y="-815.5" font-family="Helvetica,sans-Serif" font-size="10.00"> +arraySize</text>
<text text-anchor="middle" x="107.073" y="-804.5" font-family="Helvetica,sans-Serif" font-size="10.00">+size</text>
<text text-anchor="middle" x="107.073" y="-793.5" font-family="Helvetica,sans-Serif" font-size="10.00">+bitcount</text>
</g>
<!-- Node7 -->
<g id="node7" class="node"><title>Node7</title>
<polygon fill="none" stroke="#bfbfbf" points="692.073,-973 692.073,-1031 721.073,-1031 721.073,-973 692.073,-973"/>
<polyline fill="none" stroke="#bfbfbf" points="692.073,-1011 721.073,-1011 "/>
<text text-anchor="middle" x="706.573" y="-999" font-family="Helvetica,sans-Serif" font-size="10.00"> </text>
<polyline fill="none" stroke="#bfbfbf" points="692.073,-992 721.073,-992 "/>
<text text-anchor="middle" x="706.573" y="-980" font-family="Helvetica,sans-Serif" font-size="10.00"> </text>
</g>
<!-- Node7&#45;&gt;Node2 -->
<g id="edge12" class="edge"><title>Node7&#45;&gt;Node2</title>
<path fill="none" stroke="#404040" d="M721.097,-973.313C730.342,-953.944 741.345,-927.14 745.573,-902 763.008,-798.332 751.66,-492.905 745.187,-351.884"/>
<polygon fill="none" stroke="#404040" points="745.172,-351.562 740.898,-345.754 744.615,-339.575 748.889,-345.382 745.172,-351.562"/>
<text text-anchor="middle" x="768.073" y="-680.5" font-family="Helvetica,sans-Serif" font-size="10.00"> +@5</text>
</g>
<!-- Node7&#45;&gt;Node2 -->
<g id="edge14" class="edge"><title>Node7&#45;&gt;Node2</title>
<path fill="none" stroke="#404040" d="M721.22,-988.84C730.874,-980.084 743.074,-967.479 750.573,-954 762.209,-933.085 760.302,-925.55 764.573,-902 807.723,-664.1 800.221,-596.673 761.573,-358 761.223,-355.842 760.843,-353.656 760.437,-351.455"/>
<polygon fill="none" stroke="#404040" points="760.417,-351.354 755.312,-346.261 758.05,-339.59 763.155,-344.683 760.417,-351.354"/>
<text text-anchor="middle" x="806.073" y="-680.5" font-family="Helvetica,sans-Serif" font-size="10.00"> +@7</text>
</g>
<!-- Node7&#45;&gt;Node3 -->
<g id="edge6" class="edge"><title>Node7&#45;&gt;Node3</title>
<path fill="none" stroke="#404040" d="M709.728,-972.752C717.055,-901.266 731.761,-715.76 692.573,-672 657.474,-632.807 622.688,-677.412 575.573,-654 574.392,-653.413 573.215,-652.806 572.045,-652.181"/>
<polygon fill="none" stroke="#404040" points="572.013,-652.163 564.814,-652.576 561.664,-646.089 568.863,-645.676 572.013,-652.163"/>
<text text-anchor="middle" x="732.073" y="-804.5" font-family="Helvetica,sans-Serif" font-size="10.00"> +@3</text>
</g>
<!-- Node7&#45;&gt;Node8 -->
<g id="edge11" class="edge"><title>Node7&#45;&gt;Node8</title>
<path fill="none" stroke="#404040" d="M691.788,-999.259C645.69,-993.217 502.02,-969.687 407.573,-902 405.859,-900.771 404.167,-899.489 402.5,-898.16"/>
<polygon fill="none" stroke="#404040" points="402.265,-897.955 395.113,-897.031 393.216,-890.074 400.368,-890.998 402.265,-897.955"/>
<text text-anchor="middle" x="519.073" y="-934.5" font-family="Helvetica,sans-Serif" font-size="10.00"> +@3</text>
</g>
<!-- Node7&#45;&gt;Node10 -->
<g id="edge20" class="edge"><title>Node7&#45;&gt;Node10</title>
<path fill="none" stroke="#404040" d="M695.808,-972.832C667.477,-900.228 589.273,-709.759 534.573,-672 483.13,-636.489 450.052,-677.778 388.983,-654.197"/>
<polygon fill="none" stroke="#404040" points="388.653,-654.052 381.55,-655.296 377.67,-649.217 384.773,-647.974 388.653,-654.052"/>
<text text-anchor="middle" x="679.073" y="-804.5" font-family="Helvetica,sans-Serif" font-size="10.00"> +@3</text>
</g>
<!-- Node8&#45;&gt;Node1 -->
<g id="edge28" class="edge"><title>Node8&#45;&gt;Node1</title>
<path fill="none" stroke="#404040" d="M279.965,-724.072C275.956,-719.82 271.816,-715.759 267.573,-712 255.359,-701.179 248.38,-704.112 235.573,-694 216.566,-678.993 207.403,-676.55 198.573,-654 150.587,-531.457 150.233,-476.934 206.573,-358 318.926,-120.82 683.772,-84.3933 840.709,-79.9322"/>
<polygon fill="none" stroke="#404040" points="840.996,-79.9254 846.898,-75.7822 852.993,-79.6368 847.091,-83.7799 840.996,-79.9254"/>
<text text-anchor="middle" x="255.073" y="-405" font-family="Helvetica,sans-Serif" font-size="10.00"> +sHeaderType</text>
<text text-anchor="middle" x="255.073" y="-394" font-family="Helvetica,sans-Serif" font-size="10.00">+sSerializationMethod</text>
</g>
<!-- Node8&#45;&gt;Node2 -->
<g id="edge22" class="edge"><title>Node8&#45;&gt;Node2</title>
<path fill="none" stroke="#404040" d="M393.217,-714.95C394.64,-713.919 396.092,-712.934 397.573,-712 449.51,-679.228 480.223,-722.593 534.573,-694 555.74,-682.864 559.684,-675.295 570.573,-654 609.903,-577.084 576.937,-543.141 611.573,-464 629.407,-423.25 656.923,-382.329 682.057,-349.371"/>
<polygon fill="none" stroke="#404040" points="682.077,-349.345 682.583,-342.152 689.418,-339.852 688.912,-347.046 682.077,-349.345"/>
<text text-anchor="middle" x="660.073" y="-562" font-family="Helvetica,sans-Serif" font-size="10.00"> +sHeaderType</text>
<text text-anchor="middle" x="660.073" y="-551" font-family="Helvetica,sans-Serif" font-size="10.00">+sSerializationMethod</text>
</g>
<!-- Node8&#45;&gt;Node3 -->
<g id="edge7" class="edge"><title>Node8&#45;&gt;Node3</title>
<path fill="none" stroke="orange" d="M395.88,-703.256C405.334,-686.879 415.072,-670.009 424.399,-653.851"/>
<polygon fill="orange" stroke="orange" points="392.63,-701.886 390.662,-712.296 398.693,-705.385 392.63,-701.886"/>
<text text-anchor="start" x="412.573" y="-686" font-family="Helvetica,sans-Serif" font-size="10.00"> &lt; gSizeHeaderDescription</text>
<text text-anchor="middle" x="471.573" y="-675" font-family="Helvetica,sans-Serif" font-size="10.00">String &gt;</text>
</g>
<!-- Node8&#45;&gt;Node10 -->
<g id="edge21" class="edge"><title>Node8&#45;&gt;Node10</title>
<path fill="none" stroke="orange" d="M273.141,-720.313C270.63,-717.471 268.103,-714.691 265.573,-712 257.153,-703.044 249.71,-705.168 244.573,-694 238.687,-681.203 237.802,-667.462 239.983,-653.831"/>
<polygon fill="orange" stroke="orange" points="270.56,-722.679 279.742,-727.964 275.859,-718.106 270.56,-722.679"/>
<text text-anchor="start" x="244.573" y="-686" font-family="Helvetica,sans-Serif" font-size="10.00"> &lt; gSizeSerializationMethod</text>
<text text-anchor="middle" x="306.073" y="-675" font-family="Helvetica,sans-Serif" font-size="10.00">String &gt;</text>
</g>
<!-- Node9 -->
<g id="node9" class="node"><title>Node9</title>
<polygon fill="none" stroke="#bfbfbf" points="858.073,-530.5 858.073,-587.5 909.073,-587.5 909.073,-530.5 858.073,-530.5"/>
<text text-anchor="middle" x="883.573" y="-575.5" font-family="Helvetica,sans-Serif" font-size="10.00">uint32_t</text>
<polyline fill="none" stroke="#bfbfbf" points="858.073,-568.5 909.073,-568.5 "/>
<text text-anchor="middle" x="883.573" y="-556.5" font-family="Helvetica,sans-Serif" font-size="10.00"> </text>
<polyline fill="none" stroke="#bfbfbf" points="858.073,-549.5 909.073,-549.5 "/>
<text text-anchor="middle" x="883.573" y="-537.5" font-family="Helvetica,sans-Serif" font-size="10.00"> </text>
</g>
<!-- Node9&#45;&gt;Node1 -->
<g id="edge23" class="edge"><title>Node9&#45;&gt;Node1</title>
<path fill="none" stroke="#404040" d="M888.317,-530.477C892.019,-507.862 896.958,-474.952 899.573,-446 908.079,-351.815 911.427,-243.539 912.739,-169.332"/>
<polygon fill="none" stroke="#404040" points="912.74,-169.262 908.84,-163.196 912.94,-157.264 916.839,-163.329 912.74,-169.262"/>
<text text-anchor="middle" x="936.073" y="-281" font-family="Helvetica,sans-Serif" font-size="10.00"> +reserved</text>
<text text-anchor="middle" x="936.073" y="-270" font-family="Helvetica,sans-Serif" font-size="10.00">+sVersion</text>
</g>
<!-- Node9&#45;&gt;Node2 -->
<g id="edge13" class="edge"><title>Node9&#45;&gt;Node2</title>
<path fill="none" stroke="#404040" d="M864.829,-530.049C850.743,-508.005 831.84,-476.067 819.573,-446 804.301,-408.571 813.495,-394.713 796.573,-358 795.436,-355.534 794.222,-353.062 792.945,-350.596"/>
<polygon fill="none" stroke="#404040" points="792.806,-350.346 786.399,-347.038 786.988,-339.851 793.395,-343.159 792.806,-350.346"/>
<text text-anchor="middle" x="859.573" y="-438" font-family="Helvetica,sans-Serif" font-size="10.00"> +headerVersion</text>
<text text-anchor="middle" x="859.573" y="-427" font-family="Helvetica,sans-Serif" font-size="10.00">+headerSize</text>
<text text-anchor="middle" x="859.573" y="-416" font-family="Helvetica,sans-Serif" font-size="10.00">+sMagicString</text>
<text text-anchor="middle" x="859.573" y="-405" font-family="Helvetica,sans-Serif" font-size="10.00">+flagsNextHeader</text>
<text text-anchor="middle" x="859.573" y="-394" font-family="Helvetica,sans-Serif" font-size="10.00">+magicStringInt</text>
<text text-anchor="middle" x="859.573" y="-383" font-family="Helvetica,sans-Serif" font-size="10.00">+flagsUnused</text>
<text text-anchor="middle" x="859.573" y="-372" font-family="Helvetica,sans-Serif" font-size="10.00">+flags</text>
<text text-anchor="middle" x="859.573" y="-361" font-family="Helvetica,sans-Serif" font-size="10.00">+sVersion</text>
</g>
<!-- Node10&#45;&gt;Node1 -->
<g id="edge27" class="edge"><title>Node10&#45;&gt;Node1</title>
<path fill="none" stroke="#404040" d="M301.967,-464.488C308.985,-428.816 321.227,-389.255 342.573,-358 460.07,-185.955 715.204,-116.43 840.776,-91.8139"/>
<polygon fill="none" stroke="#404040" points="841.093,-91.7535 846.236,-86.6988 852.88,-89.5021 847.737,-94.5568 841.093,-91.7535"/>
<text text-anchor="middle" x="560.073" y="-275.5" font-family="Helvetica,sans-Serif" font-size="10.00"> +payloadSerializationMethod</text>
</g>
<!-- Node10&#45;&gt;Node2 -->
<g id="edge16" class="edge"><title>Node10&#45;&gt;Node2</title>
<path fill="none" stroke="#404040" d="M334.115,-464.365C355.444,-426.168 384.954,-384.776 422.573,-358 495.692,-305.955 599.399,-288.042 668.495,-281.965"/>
<polygon fill="none" stroke="#404040" points="668.591,-281.958 674.25,-277.489 680.552,-280.994 674.893,-285.463 668.591,-281.958"/>
<text text-anchor="middle" x="453.073" y="-399.5" font-family="Helvetica,sans-Serif" font-size="10.00"> +serialization</text>
</g>
<!-- Node11 -->
<g id="node11" class="node"><title>Node11</title>
<polygon fill="none" stroke="#bfbfbf" points="979.073,-249.5 979.073,-306.5 1030.07,-306.5 1030.07,-249.5 979.073,-249.5"/>
<text text-anchor="middle" x="1004.57" y="-294.5" font-family="Helvetica,sans-Serif" font-size="10.00">uint64_t</text>
<polyline fill="none" stroke="#bfbfbf" points="979.073,-287.5 1030.07,-287.5 "/>
<text text-anchor="middle" x="1004.57" y="-275.5" font-family="Helvetica,sans-Serif" font-size="10.00"> </text>
<polyline fill="none" stroke="#bfbfbf" points="979.073,-268.5 1030.07,-268.5 "/>
<text text-anchor="middle" x="1004.57" y="-256.5" font-family="Helvetica,sans-Serif" font-size="10.00"> </text>
</g>
<!-- Node11&#45;&gt;Node1 -->
<g id="edge24" class="edge"><title>Node11&#45;&gt;Node1</title>
<path fill="none" stroke="#404040" d="M991.728,-249.193C981.953,-228.032 967.929,-197.672 954.451,-168.495"/>
<polygon fill="none" stroke="#404040" points="954.355,-168.286 948.208,-164.517 949.323,-157.392 955.47,-161.162 954.355,-168.286"/>
<text text-anchor="middle" x="1007.07" y="-190" font-family="Helvetica,sans-Serif" font-size="10.00"> +payloadSize</text>
<text text-anchor="middle" x="1007.07" y="-179" font-family="Helvetica,sans-Serif" font-size="10.00">+subSpecification</text>
</g>
<!-- Node12 -->
<g id="node12" class="node"><title>Node12</title>
<polygon fill="none" stroke="#bfbfbf" points="1048.57,-244 1048.57,-312 1190.57,-312 1190.57,-244 1048.57,-244"/>
<text text-anchor="start" x="1056.57" y="-300" font-family="Helvetica,sans-Serif" font-size="10.00">Descriptor&lt; gSizeDataOrigin</text>
<text text-anchor="middle" x="1119.57" y="-289" font-family="Helvetica,sans-Serif" font-size="10.00">String, printDataOrigin &gt;</text>
<polyline fill="none" stroke="#bfbfbf" points="1048.57,-282 1190.57,-282 "/>
<text text-anchor="middle" x="1119.57" y="-270" font-family="Helvetica,sans-Serif" font-size="10.00"> </text>
<polyline fill="none" stroke="#bfbfbf" points="1048.57,-263 1190.57,-263 "/>
<text text-anchor="middle" x="1119.57" y="-251" font-family="Helvetica,sans-Serif" font-size="10.00"> </text>
</g>
<!-- Node12&#45;&gt;Node1 -->
<g id="edge25" class="edge"><title>Node12&#45;&gt;Node1</title>
<path fill="none" stroke="#404040" d="M1101.12,-243.839C1088.54,-222.965 1070.57,-196.241 1050.57,-176 1031.01,-156.205 1006.9,-137.778 984.383,-122.469"/>
<polygon fill="none" stroke="#404040" points="984.157,-122.318 976.946,-122.317 974.173,-115.661 981.384,-115.661 984.157,-122.318"/>
<text text-anchor="middle" x="1095.57" y="-184.5" font-family="Helvetica,sans-Serif" font-size="10.00"> +dataOrigin</text>
</g>
<!-- Node13 -->
<g id="node13" class="node"><title>Node13</title>
<polygon fill="none" stroke="#bfbfbf" points="1208.57,-244 1208.57,-312 1374.57,-312 1374.57,-244 1208.57,-244"/>
<text text-anchor="start" x="1216.57" y="-300" font-family="Helvetica,sans-Serif" font-size="10.00">Descriptor&lt; gSizeDataDescription</text>
<text text-anchor="middle" x="1291.57" y="-289" font-family="Helvetica,sans-Serif" font-size="10.00">String, printDataDescription &gt;</text>
<polyline fill="none" stroke="#bfbfbf" points="1208.57,-282 1374.57,-282 "/>
<text text-anchor="middle" x="1291.57" y="-270" font-family="Helvetica,sans-Serif" font-size="10.00"> </text>
<polyline fill="none" stroke="#bfbfbf" points="1208.57,-263 1374.57,-263 "/>
<text text-anchor="middle" x="1291.57" y="-251" font-family="Helvetica,sans-Serif" font-size="10.00"> </text>
</g>
<!-- Node13&#45;&gt;Node1 -->
<g id="edge26" class="edge"><title>Node13&#45;&gt;Node1</title>
<path fill="none" stroke="#404040" d="M1243.36,-243.934C1229.39,-234.652 1214.01,-224.719 1199.57,-216 1129.61,-173.738 1044.45,-134.696 985.342,-109.387"/>
<polygon fill="none" stroke="#404040" points="985.291,-109.365 978.204,-110.697 974.249,-104.667 981.336,-103.335 985.291,-109.365"/>
<text text-anchor="middle" x="1201.57" y="-184.5" font-family="Helvetica,sans-Serif" font-size="10.00"> +dataDescription</text>
</g>
</g>
</svg>
