<?xml version="1.0" encoding="UTF-8" standalone="no"?>
<!DOCTYPE svg PUBLIC "-//W3C//DTD SVG 1.1//EN"
 "http://www.w3.org/Graphics/SVG/1.1/DTD/svg11.dtd">
<!-- Generated by graphviz version 2.36.0 (20140111.2315)
 -->
<!-- Title: /home/travis/build/AliceO2Group/AliceO2/Detectors/ITSMFT/ITS/base/include/ITSBase/GeometryTGeo.h Pages: 1 -->
<svg width="2915pt" height="396pt"
 viewBox="0.00 0.00 2915.00 396.00" xmlns="http://www.w3.org/2000/svg" xmlns:xlink="http://www.w3.org/1999/xlink">
<g id="graph0" class="graph" transform="scale(1 1) rotate(0) translate(4 392)">
<title>/home/travis/build/AliceO2Group/AliceO2/Detectors/ITSMFT/ITS/base/include/ITSBase/GeometryTGeo.h</title>
<!-- Node1 -->
<g id="node1" class="node"><title>Node1</title>
<polygon fill="#bfbfbf" stroke="black" points="1356.5,-324.5 1356.5,-387.5 1517.5,-387.5 1517.5,-324.5 1356.5,-324.5"/>
<text text-anchor="start" x="1364.5" y="-375.5" font-family="Helvetica,sans-Serif" font-size="10.00">/home/travis/build</text>
<text text-anchor="start" x="1364.5" y="-364.5" font-family="Helvetica,sans-Serif" font-size="10.00">/AliceO2Group/AliceO2</text>
<text text-anchor="start" x="1364.5" y="-353.5" font-family="Helvetica,sans-Serif" font-size="10.00">/Detectors/ITSMFT/ITS</text>
<text text-anchor="start" x="1364.5" y="-342.5" font-family="Helvetica,sans-Serif" font-size="10.00">/base/include/ITSBase/Geometry</text>
<text text-anchor="middle" x="1437" y="-331.5" font-family="Helvetica,sans-Serif" font-size="10.00">TGeo.h</text>
</g>
<!-- Node2 -->
<g id="node2" class="node"><title>Node2</title>
<g id="a_node2"><a xlink:href="../../db/df2/ITS_2base_2src_2GeometryTGeo_8cxx.html" target="_top" xlink:title="/home/travis/build\l/AliceO2Group/AliceO2\l/Detectors/ITSMFT/ITS\l/base/src/GeometryTGeo.cxx">
<polygon fill="none" stroke="black" points="0,-224 0,-276 146,-276 146,-224 0,-224"/>
<text text-anchor="start" x="8" y="-264" font-family="Helvetica,sans-Serif" font-size="10.00">/home/travis/build</text>
<text text-anchor="start" x="8" y="-253" font-family="Helvetica,sans-Serif" font-size="10.00">/AliceO2Group/AliceO2</text>
<text text-anchor="start" x="8" y="-242" font-family="Helvetica,sans-Serif" font-size="10.00">/Detectors/ITSMFT/ITS</text>
<text text-anchor="middle" x="73" y="-231" font-family="Helvetica,sans-Serif" font-size="10.00">/base/src/GeometryTGeo.cxx</text>
</a>
</g>
</g>
<!-- Node1&#45;&gt;Node2 -->
<g id="edge1" class="edge"><title>Node1&#45;&gt;Node2</title>
<path fill="none" stroke="midnightblue" d="M1346.04,-354.607C1092.44,-352.82 381.312,-342.913 155,-288 143.465,-285.201 131.552,-280.803 120.501,-276.002"/>
<polygon fill="midnightblue" stroke="midnightblue" points="1346.3,-358.109 1356.32,-354.677 1346.34,-351.109 1346.3,-358.109"/>
</g>
<!-- Node3 -->
<g id="node3" class="node"><title>Node3</title>
<g id="a_node3"><a xlink:href="../../de/d32/ITS_2macros_2test_2CheckClusters_8C.html" target="_top" xlink:title="/home/travis/build\l/AliceO2Group/AliceO2\l/Detectors/ITSMFT/ITS\l/macros/test/CheckClusters.C">
<polygon fill="none" stroke="black" points="164,-224 164,-276 314,-276 314,-224 164,-224"/>
<text text-anchor="start" x="172" y="-264" font-family="Helvetica,sans-Serif" font-size="10.00">/home/travis/build</text>
<text text-anchor="start" x="172" y="-253" font-family="Helvetica,sans-Serif" font-size="10.00">/AliceO2Group/AliceO2</text>
<text text-anchor="start" x="172" y="-242" font-family="Helvetica,sans-Serif" font-size="10.00">/Detectors/ITSMFT/ITS</text>
<text text-anchor="middle" x="239" y="-231" font-family="Helvetica,sans-Serif" font-size="10.00">/macros/test/CheckClusters.C</text>
</a>
</g>
</g>
<!-- Node1&#45;&gt;Node3 -->
<g id="edge2" class="edge"><title>Node1&#45;&gt;Node3</title>
<path fill="none" stroke="midnightblue" d="M1345.8,-353.604C1115.88,-349.431 517.157,-334.316 324,-288 312.262,-285.185 300.106,-280.844 288.785,-276.113"/>
<polygon fill="midnightblue" stroke="midnightblue" points="1346.07,-357.11 1356.14,-353.789 1346.2,-350.111 1346.07,-357.11"/>
</g>
<!-- Node4 -->
<g id="node4" class="node"><title>Node4</title>
<g id="a_node4"><a xlink:href="../../de/d5b/CheckClusterShape_8C.html" target="_top" xlink:title="/home/travis/build\l/AliceO2Group/AliceO2\l/Detectors/ITSMFT/ITS\l/macros/test/CheckClusterShape.C">
<polygon fill="none" stroke="black" points="332.5,-224 332.5,-276 505.5,-276 505.5,-224 332.5,-224"/>
<text text-anchor="start" x="340.5" y="-264" font-family="Helvetica,sans-Serif" font-size="10.00">/home/travis/build</text>
<text text-anchor="start" x="340.5" y="-253" font-family="Helvetica,sans-Serif" font-size="10.00">/AliceO2Group/AliceO2</text>
<text text-anchor="start" x="340.5" y="-242" font-family="Helvetica,sans-Serif" font-size="10.00">/Detectors/ITSMFT/ITS</text>
<text text-anchor="middle" x="419" y="-231" font-family="Helvetica,sans-Serif" font-size="10.00">/macros/test/CheckClusterShape.C</text>
</a>
</g>
</g>
<!-- Node1&#45;&gt;Node4 -->
<g id="edge3" class="edge"><title>Node1&#45;&gt;Node4</title>
<path fill="none" stroke="midnightblue" d="M1346.13,-351.806C1145.79,-344.209 671.537,-323.039 515,-288 502.014,-285.093 488.457,-280.745 475.759,-276.04"/>
<polygon fill="midnightblue" stroke="midnightblue" points="1346.2,-355.311 1356.32,-352.189 1346.46,-348.316 1346.2,-355.311"/>
</g>
<!-- Node5 -->
<g id="node5" class="node"><title>Node5</title>
<g id="a_node5"><a xlink:href="../../da/da8/ITS_2macros_2test_2CheckDigits_8C.html" target="_top" xlink:title="/home/travis/build\l/AliceO2Group/AliceO2\l/Detectors/ITSMFT/ITS\l/macros/test/CheckDigits.C">
<polygon fill="none" stroke="black" points="523.5,-224 523.5,-276 662.5,-276 662.5,-224 523.5,-224"/>
<text text-anchor="start" x="531.5" y="-264" font-family="Helvetica,sans-Serif" font-size="10.00">/home/travis/build</text>
<text text-anchor="start" x="531.5" y="-253" font-family="Helvetica,sans-Serif" font-size="10.00">/AliceO2Group/AliceO2</text>
<text text-anchor="start" x="531.5" y="-242" font-family="Helvetica,sans-Serif" font-size="10.00">/Detectors/ITSMFT/ITS</text>
<text text-anchor="middle" x="593" y="-231" font-family="Helvetica,sans-Serif" font-size="10.00">/macros/test/CheckDigits.C</text>
</a>
</g>
</g>
<!-- Node1&#45;&gt;Node5 -->
<g id="edge4" class="edge"><title>Node1&#45;&gt;Node5</title>
<path fill="none" stroke="midnightblue" d="M1346.12,-351.024C1171.85,-342.745 796.892,-321.583 672,-288 661.177,-285.09 650.01,-280.77 639.603,-276.1"/>
<polygon fill="midnightblue" stroke="midnightblue" points="1346.14,-354.529 1356.3,-351.504 1346.47,-347.537 1346.14,-354.529"/>
</g>
<!-- Node6 -->
<g id="node6" class="node"><title>Node6</title>
<g id="a_node6"><a xlink:href="../../d9/db4/CheckTopologies_8C.html" target="_top" xlink:title="/home/travis/build\l/AliceO2Group/AliceO2\l/Detectors/ITSMFT/ITS\l/macros/test/CheckTopologies.C">
<polygon fill="none" stroke="black" points="680.5,-224 680.5,-276 841.5,-276 841.5,-224 680.5,-224"/>
<text text-anchor="start" x="688.5" y="-264" font-family="Helvetica,sans-Serif" font-size="10.00">/home/travis/build</text>
<text text-anchor="start" x="688.5" y="-253" font-family="Helvetica,sans-Serif" font-size="10.00">/AliceO2Group/AliceO2</text>
<text text-anchor="start" x="688.5" y="-242" font-family="Helvetica,sans-Serif" font-size="10.00">/Detectors/ITSMFT/ITS</text>
<text text-anchor="middle" x="761" y="-231" font-family="Helvetica,sans-Serif" font-size="10.00">/macros/test/CheckTopologies.C</text>
</a>
</g>
</g>
<!-- Node1&#45;&gt;Node6 -->
<g id="edge5" class="edge"><title>Node1&#45;&gt;Node6</title>
<path fill="none" stroke="midnightblue" d="M1345.81,-352.345C1229.34,-347.196 1022.34,-332.106 851,-288 839.22,-284.968 826.948,-280.714 815.391,-276.167"/>
<polygon fill="midnightblue" stroke="midnightblue" points="1345.97,-355.855 1356.11,-352.785 1346.27,-348.862 1345.97,-355.855"/>
</g>
<!-- Node7 -->
<g id="node7" class="node"><title>Node7</title>
<g id="a_node7"><a xlink:href="../../d5/df6/DisplayTrack_8C.html" target="_top" xlink:title="Simple macro to display ITSU tracks. ">
<polygon fill="none" stroke="black" points="859.5,-224 859.5,-276 1002.5,-276 1002.5,-224 859.5,-224"/>
<text text-anchor="start" x="867.5" y="-264" font-family="Helvetica,sans-Serif" font-size="10.00">/home/travis/build</text>
<text text-anchor="start" x="867.5" y="-253" font-family="Helvetica,sans-Serif" font-size="10.00">/AliceO2Group/AliceO2</text>
<text text-anchor="start" x="867.5" y="-242" font-family="Helvetica,sans-Serif" font-size="10.00">/Detectors/ITSMFT/ITS</text>
<text text-anchor="middle" x="931" y="-231" font-family="Helvetica,sans-Serif" font-size="10.00">/macros/test/DisplayTrack.C</text>
</a>
</g>
</g>
<!-- Node1&#45;&gt;Node7 -->
<g id="edge6" class="edge"><title>Node1&#45;&gt;Node7</title>
<path fill="none" stroke="midnightblue" d="M1346.32,-347.902C1259.17,-339.408 1124.49,-321.865 1012,-288 1001.49,-284.836 990.578,-280.581 980.297,-276.083"/>
<polygon fill="midnightblue" stroke="midnightblue" points="1346.15,-351.402 1356.44,-348.869 1346.82,-344.434 1346.15,-351.402"/>
</g>
<!-- Node8 -->
<g id="node8" class="node"><title>Node8</title>
<g id="a_node8"><a xlink:href="../../d6/d67/ITSMFT_2ITS_2reconstruction_2include_2ITSReconstruction_2ClustererTask_8h.html" target="_top" xlink:title="/home/travis/build\l/AliceO2Group/AliceO2\l/Detectors/ITSMFT/ITS\l/reconstruction/include\l/ITSReconstruction/ClustererTask.h">
<polygon fill="none" stroke="black" points="1021,-218.5 1021,-281.5 1195,-281.5 1195,-218.5 1021,-218.5"/>
<text text-anchor="start" x="1029" y="-269.5" font-family="Helvetica,sans-Serif" font-size="10.00">/home/travis/build</text>
<text text-anchor="start" x="1029" y="-258.5" font-family="Helvetica,sans-Serif" font-size="10.00">/AliceO2Group/AliceO2</text>
<text text-anchor="start" x="1029" y="-247.5" font-family="Helvetica,sans-Serif" font-size="10.00">/Detectors/ITSMFT/ITS</text>
<text text-anchor="start" x="1029" y="-236.5" font-family="Helvetica,sans-Serif" font-size="10.00">/reconstruction/include</text>
<text text-anchor="middle" x="1108" y="-225.5" font-family="Helvetica,sans-Serif" font-size="10.00">/ITSReconstruction/ClustererTask.h</text>
</a>
</g>
</g>
<!-- Node1&#45;&gt;Node8 -->
<g id="edge7" class="edge"><title>Node1&#45;&gt;Node8</title>
<path fill="none" stroke="midnightblue" d="M1346.74,-329.947C1304.68,-317.896 1254.07,-302.862 1209,-288 1202.79,-285.953 1196.39,-283.775 1189.97,-281.539"/>
<polygon fill="midnightblue" stroke="midnightblue" points="1345.83,-333.327 1356.41,-332.707 1347.76,-326.596 1345.83,-333.327"/>
</g>
<!-- Node11 -->
<g id="node11" class="node"><title>Node11</title>
<g id="a_node11"><a xlink:href="../../d6/d0c/CookedTracker_8h.html" target="_top" xlink:title="Definition of the &quot;Cooked Matrix&quot; ITS tracker. ">
<polygon fill="none" stroke="black" points="1251.5,-218.5 1251.5,-281.5 1430.5,-281.5 1430.5,-218.5 1251.5,-218.5"/>
<text text-anchor="start" x="1259.5" y="-269.5" font-family="Helvetica,sans-Serif" font-size="10.00">/home/travis/build</text>
<text text-anchor="start" x="1259.5" y="-258.5" font-family="Helvetica,sans-Serif" font-size="10.00">/AliceO2Group/AliceO2</text>
<text text-anchor="start" x="1259.5" y="-247.5" font-family="Helvetica,sans-Serif" font-size="10.00">/Detectors/ITSMFT/ITS</text>
<text text-anchor="start" x="1259.5" y="-236.5" font-family="Helvetica,sans-Serif" font-size="10.00">/reconstruction/include</text>
<text text-anchor="middle" x="1341" y="-225.5" font-family="Helvetica,sans-Serif" font-size="10.00">/ITSReconstruction/CookedTracker.h</text>
</a>
</g>
</g>
<!-- Node1&#45;&gt;Node11 -->
<g id="edge10" class="edge"><title>Node1&#45;&gt;Node11</title>
<path fill="none" stroke="midnightblue" d="M1401.86,-316.928C1391.18,-305.362 1379.59,-292.804 1369.41,-281.781"/>
<polygon fill="midnightblue" stroke="midnightblue" points="1399.36,-319.385 1408.72,-324.359 1404.51,-314.637 1399.36,-319.385"/>
</g>
<!-- Node12 -->
<g id="node12" class="node"><title>Node12</title>
<g id="a_node12"><a xlink:href="../../d3/d9f/CookedTrackerTask_8h.html" target="_top" xlink:title="Definition of the ITS &quot;Cooked Matrix&quot; tracker task. ">
<polygon fill="none" stroke="black" points="1161.5,-101 1161.5,-175 1332.5,-175 1332.5,-101 1161.5,-101"/>
<text text-anchor="start" x="1169.5" y="-163" font-family="Helvetica,sans-Serif" font-size="10.00">/home/travis/build</text>
<text text-anchor="start" x="1169.5" y="-152" font-family="Helvetica,sans-Serif" font-size="10.00">/AliceO2Group/AliceO2</text>
<text text-anchor="start" x="1169.5" y="-141" font-family="Helvetica,sans-Serif" font-size="10.00">/Detectors/ITSMFT/ITS</text>
<text text-anchor="start" x="1169.5" y="-130" font-family="Helvetica,sans-Serif" font-size="10.00">/reconstruction/include</text>
<text text-anchor="start" x="1169.5" y="-119" font-family="Helvetica,sans-Serif" font-size="10.00">/ITSReconstruction/CookedTracker</text>
<text text-anchor="middle" x="1247" y="-108" font-family="Helvetica,sans-Serif" font-size="10.00">Task.h</text>
</a>
</g>
</g>
<!-- Node1&#45;&gt;Node12 -->
<g id="edge15" class="edge"><title>Node1&#45;&gt;Node12</title>
<path fill="none" stroke="midnightblue" d="M1346.2,-346.626C1307.83,-338.071 1266.63,-321.165 1243,-288 1219.72,-255.335 1226.1,-207.603 1234.75,-175.024"/>
<polygon fill="midnightblue" stroke="midnightblue" points="1345.9,-350.138 1356.4,-348.725 1347.31,-343.281 1345.9,-350.138"/>
</g>
<!-- Node16 -->
<g id="node16" class="node"><title>Node16</title>
<g id="a_node16"><a xlink:href="../../d6/d49/TrivialClustererTask_8h.html" target="_top" xlink:title="Definition of the ITS cluster finder task. ">
<polygon fill="none" stroke="black" points="1449,-213 1449,-287 1619,-287 1619,-213 1449,-213"/>
<text text-anchor="start" x="1457" y="-275" font-family="Helvetica,sans-Serif" font-size="10.00">/home/travis/build</text>
<text text-anchor="start" x="1457" y="-264" font-family="Helvetica,sans-Serif" font-size="10.00">/AliceO2Group/AliceO2</text>
<text text-anchor="start" x="1457" y="-253" font-family="Helvetica,sans-Serif" font-size="10.00">/Detectors/ITSMFT/ITS</text>
<text text-anchor="start" x="1457" y="-242" font-family="Helvetica,sans-Serif" font-size="10.00">/reconstruction/include</text>
<text text-anchor="start" x="1457" y="-231" font-family="Helvetica,sans-Serif" font-size="10.00">/ITSReconstruction/TrivialClusterer</text>
<text text-anchor="middle" x="1534" y="-220" font-family="Helvetica,sans-Serif" font-size="10.00">Task.h</text>
</a>
</g>
</g>
<!-- Node1&#45;&gt;Node16 -->
<g id="edge16" class="edge"><title>Node1&#45;&gt;Node16</title>
<path fill="none" stroke="midnightblue" d="M1472.63,-316.801C1481.62,-307.16 1491.25,-296.836 1500.15,-287.292"/>
<polygon fill="midnightblue" stroke="midnightblue" points="1469.84,-314.659 1465.58,-324.359 1474.96,-319.433 1469.84,-314.659"/>
</g>
<!-- Node18 -->
<g id="node18" class="node"><title>Node18</title>
<g id="a_node18"><a xlink:href="../../d0/d81/CATrackingStation_8cxx.html" target="_top" xlink:title="/home/travis/build\l/AliceO2Group/AliceO2\l/Detectors/ITSMFT/ITS\l/reconstruction/src/CATracking\lStation.cxx">
<polygon fill="none" stroke="black" points="1637,-218.5 1637,-281.5 1789,-281.5 1789,-218.5 1637,-218.5"/>
<text text-anchor="start" x="1645" y="-269.5" font-family="Helvetica,sans-Serif" font-size="10.00">/home/travis/build</text>
<text text-anchor="start" x="1645" y="-258.5" font-family="Helvetica,sans-Serif" font-size="10.00">/AliceO2Group/AliceO2</text>
<text text-anchor="start" x="1645" y="-247.5" font-family="Helvetica,sans-Serif" font-size="10.00">/Detectors/ITSMFT/ITS</text>
<text text-anchor="start" x="1645" y="-236.5" font-family="Helvetica,sans-Serif" font-size="10.00">/reconstruction/src/CATracking</text>
<text text-anchor="middle" x="1713" y="-225.5" font-family="Helvetica,sans-Serif" font-size="10.00">Station.cxx</text>
</a>
</g>
</g>
<!-- Node1&#45;&gt;Node18 -->
<g id="edge18" class="edge"><title>Node1&#45;&gt;Node18</title>
<path fill="none" stroke="midnightblue" d="M1527.63,-324.728C1559.54,-313.669 1595.54,-300.739 1628,-288 1633.24,-285.942 1638.64,-283.755 1644.06,-281.514"/>
<polygon fill="midnightblue" stroke="midnightblue" points="1526.18,-321.527 1517.87,-328.098 1528.46,-328.144 1526.18,-321.527"/>
</g>
<!-- Node19 -->
<g id="node19" class="node"><title>Node19</title>
<g id="a_node19"><a xlink:href="../../d9/d0d/ITSMFT_2ITS_2simulation_2src_2Detector_8cxx.html" target="_top" xlink:title="/home/travis/build\l/AliceO2Group/AliceO2\l/Detectors/ITSMFT/ITS\l/simulation/src/Detector.cxx">
<polygon fill="none" stroke="black" points="1807,-224 1807,-276 1947,-276 1947,-224 1807,-224"/>
<text text-anchor="start" x="1815" y="-264" font-family="Helvetica,sans-Serif" font-size="10.00">/home/travis/build</text>
<text text-anchor="start" x="1815" y="-253" font-family="Helvetica,sans-Serif" font-size="10.00">/AliceO2Group/AliceO2</text>
<text text-anchor="start" x="1815" y="-242" font-family="Helvetica,sans-Serif" font-size="10.00">/Detectors/ITSMFT/ITS</text>
<text text-anchor="middle" x="1877" y="-231" font-family="Helvetica,sans-Serif" font-size="10.00">/simulation/src/Detector.cxx</text>
</a>
</g>
</g>
<!-- Node1&#45;&gt;Node19 -->
<g id="edge19" class="edge"><title>Node1&#45;&gt;Node19</title>
<path fill="none" stroke="midnightblue" d="M1527.88,-344.65C1601.85,-334.685 1708.3,-316.808 1798,-288 1808.09,-284.758 1818.57,-280.523 1828.48,-276.08"/>
<polygon fill="midnightblue" stroke="midnightblue" points="1527.12,-341.22 1517.67,-346.004 1528.04,-348.159 1527.12,-341.22"/>
</g>
<!-- Node20 -->
<g id="node20" class="node"><title>Node20</title>
<g id="a_node20"><a xlink:href="../../da/d29/ITSMFT_2ITS_2simulation_2src_2DigitizerTask_8cxx.html" target="_top" xlink:title="/home/travis/build\l/AliceO2Group/AliceO2\l/Detectors/ITSMFT/ITS\l/simulation/src/DigitizerTask.cxx">
<polygon fill="none" stroke="black" points="1965,-224 1965,-276 2125,-276 2125,-224 1965,-224"/>
<text text-anchor="start" x="1973" y="-264" font-family="Helvetica,sans-Serif" font-size="10.00">/home/travis/build</text>
<text text-anchor="start" x="1973" y="-253" font-family="Helvetica,sans-Serif" font-size="10.00">/AliceO2Group/AliceO2</text>
<text text-anchor="start" x="1973" y="-242" font-family="Helvetica,sans-Serif" font-size="10.00">/Detectors/ITSMFT/ITS</text>
<text text-anchor="middle" x="2045" y="-231" font-family="Helvetica,sans-Serif" font-size="10.00">/simulation/src/DigitizerTask.cxx</text>
</a>
</g>
</g>
<!-- Node1&#45;&gt;Node20 -->
<g id="edge20" class="edge"><title>Node1&#45;&gt;Node20</title>
<path fill="none" stroke="midnightblue" d="M1528.08,-350.565C1632.84,-343.79 1809.26,-327.222 1956,-288 1967.64,-284.889 1979.77,-280.601 1991.2,-276.044"/>
<polygon fill="midnightblue" stroke="midnightblue" points="1527.62,-347.087 1517.86,-351.21 1528.06,-354.073 1527.62,-347.087"/>
</g>
<!-- Node21 -->
<g id="node21" class="node"><title>Node21</title>
<g id="a_node21"><a xlink:href="../../d5/dda/V1Layer_8cxx.html" target="_top" xlink:title="Implementation of the V1Layer class. ">
<polygon fill="none" stroke="black" points="2143,-224 2143,-276 2281,-276 2281,-224 2143,-224"/>
<text text-anchor="start" x="2151" y="-264" font-family="Helvetica,sans-Serif" font-size="10.00">/home/travis/build</text>
<text text-anchor="start" x="2151" y="-253" font-family="Helvetica,sans-Serif" font-size="10.00">/AliceO2Group/AliceO2</text>
<text text-anchor="start" x="2151" y="-242" font-family="Helvetica,sans-Serif" font-size="10.00">/Detectors/ITSMFT/ITS</text>
<text text-anchor="middle" x="2212" y="-231" font-family="Helvetica,sans-Serif" font-size="10.00">/simulation/src/V1Layer.cxx</text>
</a>
</g>
</g>
<!-- Node1&#45;&gt;Node21 -->
<g id="edge21" class="edge"><title>Node1&#45;&gt;Node21</title>
<path fill="none" stroke="midnightblue" d="M1528.14,-350.166C1690.27,-340.913 2022.28,-318.846 2134,-288 2144.69,-285.048 2155.72,-280.711 2166,-276.037"/>
<polygon fill="midnightblue" stroke="midnightblue" points="1527.49,-346.696 1517.71,-350.756 1527.89,-353.685 1527.49,-346.696"/>
</g>
<!-- Node22 -->
<g id="node22" class="node"><title>Node22</title>
<g id="a_node22"><a xlink:href="../../d9/d7c/V3Layer_8cxx.html" target="_top" xlink:title="Implementation of the V3Layer class. ">
<polygon fill="none" stroke="black" points="2299,-224 2299,-276 2437,-276 2437,-224 2299,-224"/>
<text text-anchor="start" x="2307" y="-264" font-family="Helvetica,sans-Serif" font-size="10.00">/home/travis/build</text>
<text text-anchor="start" x="2307" y="-253" font-family="Helvetica,sans-Serif" font-size="10.00">/AliceO2Group/AliceO2</text>
<text text-anchor="start" x="2307" y="-242" font-family="Helvetica,sans-Serif" font-size="10.00">/Detectors/ITSMFT/ITS</text>
<text text-anchor="middle" x="2368" y="-231" font-family="Helvetica,sans-Serif" font-size="10.00">/simulation/src/V3Layer.cxx</text>
</a>
</g>
</g>
<!-- Node1&#45;&gt;Node22 -->
<g id="edge22" class="edge"><title>Node1&#45;&gt;Node22</title>
<path fill="none" stroke="midnightblue" d="M1527.74,-352.037C1717.03,-345.178 2148.18,-325.826 2290,-288 2300.72,-285.142 2311.75,-280.844 2322.03,-276.178"/>
<polygon fill="midnightblue" stroke="midnightblue" points="1527.41,-348.547 1517.54,-352.403 1527.66,-355.542 1527.41,-348.547"/>
</g>
<!-- Node23 -->
<g id="node23" class="node"><title>Node23</title>
<g id="a_node23"><a xlink:href="../../d7/d4c/HitAnalysis_8cxx.html" target="_top" xlink:title="/home/travis/build\l/AliceO2Group/AliceO2\l/Detectors/ITSMFT/test\l/HitAnalysis/src/HitAnalysis.cxx">
<polygon fill="none" stroke="black" points="2455,-224 2455,-276 2613,-276 2613,-224 2455,-224"/>
<text text-anchor="start" x="2463" y="-264" font-family="Helvetica,sans-Serif" font-size="10.00">/home/travis/build</text>
<text text-anchor="start" x="2463" y="-253" font-family="Helvetica,sans-Serif" font-size="10.00">/AliceO2Group/AliceO2</text>
<text text-anchor="start" x="2463" y="-242" font-family="Helvetica,sans-Serif" font-size="10.00">/Detectors/ITSMFT/test</text>
<text text-anchor="middle" x="2534" y="-231" font-family="Helvetica,sans-Serif" font-size="10.00">/HitAnalysis/src/HitAnalysis.cxx</text>
</a>
</g>
</g>
<!-- Node1&#45;&gt;Node23 -->
<g id="edge23" class="edge"><title>Node1&#45;&gt;Node23</title>
<path fill="none" stroke="midnightblue" d="M1527.94,-352.808C1742.06,-347.027 2272.97,-328.909 2446,-288 2458.1,-285.14 2470.66,-280.78 2482.37,-276.045"/>
<polygon fill="midnightblue" stroke="midnightblue" points="1527.58,-349.316 1517.67,-353.082 1527.76,-356.314 1527.58,-349.316"/>
</g>
<!-- Node24 -->
<g id="node24" class="node"><title>Node24</title>
<g id="a_node24"><a xlink:href="../../d9/d71/run__sim_8C.html" target="_top" xlink:title="/home/travis/build\l/AliceO2Group/AliceO2\l/macro/run_sim.C">
<polygon fill="none" stroke="black" points="2631,-229.5 2631,-270.5 2749,-270.5 2749,-229.5 2631,-229.5"/>
<text text-anchor="start" x="2639" y="-258.5" font-family="Helvetica,sans-Serif" font-size="10.00">/home/travis/build</text>
<text text-anchor="start" x="2639" y="-247.5" font-family="Helvetica,sans-Serif" font-size="10.00">/AliceO2Group/AliceO2</text>
<text text-anchor="middle" x="2690" y="-236.5" font-family="Helvetica,sans-Serif" font-size="10.00">/macro/run_sim.C</text>
</a>
</g>
</g>
<!-- Node1&#45;&gt;Node24 -->
<g id="edge24" class="edge"><title>Node1&#45;&gt;Node24</title>
<path fill="none" stroke="midnightblue" d="M1527.89,-354.922C1768.19,-353.91 2415.85,-345.742 2621,-288 2634.61,-284.17 2648.55,-277.345 2660.3,-270.591"/>
<polygon fill="midnightblue" stroke="midnightblue" points="1527.78,-351.422 1517.79,-354.961 1527.8,-358.422 1527.78,-351.422"/>
</g>
<!-- Node25 -->
<g id="node25" class="node"><title>Node25</title>
<g id="a_node25"><a xlink:href="../../d5/dd2/run__sim__its__ALP3_8C.html" target="_top" xlink:title="/home/travis/build\l/AliceO2Group/AliceO2\l/macro/run_sim_its_ALP3.C">
<polygon fill="none" stroke="black" points="2767,-229.5 2767,-270.5 2907,-270.5 2907,-229.5 2767,-229.5"/>
<text text-anchor="start" x="2775" y="-258.5" font-family="Helvetica,sans-Serif" font-size="10.00">/home/travis/build</text>
<text text-anchor="start" x="2775" y="-247.5" font-family="Helvetica,sans-Serif" font-size="10.00">/AliceO2Group/AliceO2</text>
<text text-anchor="middle" x="2837" y="-236.5" font-family="Helvetica,sans-Serif" font-size="10.00">/macro/run_sim_its_ALP3.C</text>
</a>
</g>
</g>
<!-- Node1&#45;&gt;Node25 -->
<g id="edge25" class="edge"><title>Node1&#45;&gt;Node25</title>
<path fill="none" stroke="midnightblue" d="M1527.62,-354.935C1786.26,-354.035 2524.24,-346.281 2758,-288 2773.28,-284.19 2789.19,-277.369 2802.68,-270.612"/>
<polygon fill="midnightblue" stroke="midnightblue" points="1527.51,-351.436 1517.52,-354.968 1527.53,-358.436 1527.51,-351.436"/>
</g>
<!-- Node9 -->
<g id="node9" class="node"><title>Node9</title>
<g id="a_node9"><a xlink:href="../../d8/d95/ITSMFT_2ITS_2reconstruction_2src_2ClustererTask_8cxx.html" target="_top" xlink:title="/home/travis/build\l/AliceO2Group/AliceO2\l/Detectors/ITSMFT/ITS\l/reconstruction/src/ClustererTask.cxx">
<polygon fill="none" stroke="black" points="825.5,-112 825.5,-164 1006.5,-164 1006.5,-112 825.5,-112"/>
<text text-anchor="start" x="833.5" y="-152" font-family="Helvetica,sans-Serif" font-size="10.00">/home/travis/build</text>
<text text-anchor="start" x="833.5" y="-141" font-family="Helvetica,sans-Serif" font-size="10.00">/AliceO2Group/AliceO2</text>
<text text-anchor="start" x="833.5" y="-130" font-family="Helvetica,sans-Serif" font-size="10.00">/Detectors/ITSMFT/ITS</text>
<text text-anchor="middle" x="916" y="-119" font-family="Helvetica,sans-Serif" font-size="10.00">/reconstruction/src/ClustererTask.cxx</text>
</a>
</g>
</g>
<!-- Node8&#45;&gt;Node9 -->
<g id="edge8" class="edge"><title>Node8&#45;&gt;Node9</title>
<path fill="none" stroke="midnightblue" d="M1045.59,-213.245C1017.58,-197.196 985.202,-178.647 959.817,-164.104"/>
<polygon fill="midnightblue" stroke="midnightblue" points="1044.1,-216.425 1054.52,-218.359 1047.58,-210.351 1044.1,-216.425"/>
</g>
<!-- Node10 -->
<g id="node10" class="node"><title>Node10</title>
<g id="a_node10"><a xlink:href="../../d6/da1/run__clus__its_8C.html" target="_top" xlink:title="/home/travis/build\l/AliceO2Group/AliceO2\l/macro/run_clus_its.C">
<polygon fill="none" stroke="black" points="1025,-117.5 1025,-158.5 1143,-158.5 1143,-117.5 1025,-117.5"/>
<text text-anchor="start" x="1033" y="-146.5" font-family="Helvetica,sans-Serif" font-size="10.00">/home/travis/build</text>
<text text-anchor="start" x="1033" y="-135.5" font-family="Helvetica,sans-Serif" font-size="10.00">/AliceO2Group/AliceO2</text>
<text text-anchor="middle" x="1084" y="-124.5" font-family="Helvetica,sans-Serif" font-size="10.00">/macro/run_clus_its.C</text>
</a>
</g>
</g>
<!-- Node8&#45;&gt;Node10 -->
<g id="edge9" class="edge"><title>Node8&#45;&gt;Node10</title>
<path fill="none" stroke="midnightblue" d="M1099.09,-208.154C1095.4,-191.267 1091.3,-172.47 1088.31,-158.741"/>
<polygon fill="midnightblue" stroke="midnightblue" points="1095.76,-209.335 1101.31,-218.359 1102.6,-207.843 1095.76,-209.335"/>
</g>
<!-- Node11&#45;&gt;Node12 -->
<g id="edge11" class="edge"><title>Node11&#45;&gt;Node12</title>
<path fill="none" stroke="midnightblue" d="M1308.21,-210.624C1298.42,-199.167 1287.72,-186.647 1278.04,-175.325"/>
<polygon fill="midnightblue" stroke="midnightblue" points="1305.66,-213.03 1314.82,-218.359 1310.98,-208.483 1305.66,-213.03"/>
</g>
<!-- Node15 -->
<g id="node15" class="node"><title>Node15</title>
<g id="a_node15"><a xlink:href="../../d7/dca/CookedTracker_8cxx.html" target="_top" xlink:title="Implementation of the &quot;Cooked Matrix&quot; ITS tracker. ">
<polygon fill="none" stroke="black" points="1351,-112 1351,-164 1537,-164 1537,-112 1351,-112"/>
<text text-anchor="start" x="1359" y="-152" font-family="Helvetica,sans-Serif" font-size="10.00">/home/travis/build</text>
<text text-anchor="start" x="1359" y="-141" font-family="Helvetica,sans-Serif" font-size="10.00">/AliceO2Group/AliceO2</text>
<text text-anchor="start" x="1359" y="-130" font-family="Helvetica,sans-Serif" font-size="10.00">/Detectors/ITSMFT/ITS</text>
<text text-anchor="middle" x="1444" y="-119" font-family="Helvetica,sans-Serif" font-size="10.00">/reconstruction/src/CookedTracker.cxx</text>
</a>
</g>
</g>
<!-- Node11&#45;&gt;Node15 -->
<g id="edge14" class="edge"><title>Node11&#45;&gt;Node15</title>
<path fill="none" stroke="midnightblue" d="M1376.62,-210.964C1391.07,-195.527 1407.37,-178.114 1420.33,-164.284"/>
<polygon fill="midnightblue" stroke="midnightblue" points="1373.97,-208.667 1369.69,-218.359 1379.08,-213.452 1373.97,-208.667"/>
</g>
<!-- Node13 -->
<g id="node13" class="node"><title>Node13</title>
<g id="a_node13"><a xlink:href="../../d5/da2/CookedTrackerTask_8cxx.html" target="_top" xlink:title="Implementation of the ITS &quot;Cooked Matrix&quot; tracker task. ">
<polygon fill="none" stroke="black" points="1082.5,-0.5 1082.5,-63.5 1249.5,-63.5 1249.5,-0.5 1082.5,-0.5"/>
<text text-anchor="start" x="1090.5" y="-51.5" font-family="Helvetica,sans-Serif" font-size="10.00">/home/travis/build</text>
<text text-anchor="start" x="1090.5" y="-40.5" font-family="Helvetica,sans-Serif" font-size="10.00">/AliceO2Group/AliceO2</text>
<text text-anchor="start" x="1090.5" y="-29.5" font-family="Helvetica,sans-Serif" font-size="10.00">/Detectors/ITSMFT/ITS</text>
<text text-anchor="start" x="1090.5" y="-18.5" font-family="Helvetica,sans-Serif" font-size="10.00">/reconstruction/src/CookedTracker</text>
<text text-anchor="middle" x="1166" y="-7.5" font-family="Helvetica,sans-Serif" font-size="10.00">Task.cxx</text>
</a>
</g>
</g>
<!-- Node12&#45;&gt;Node13 -->
<g id="edge12" class="edge"><title>Node12&#45;&gt;Node13</title>
<path fill="none" stroke="midnightblue" d="M1212.6,-92.8356C1205,-83.0712 1197.1,-72.9296 1190.01,-63.8307"/>
<polygon fill="midnightblue" stroke="midnightblue" points="1209.99,-95.1789 1218.9,-100.918 1215.51,-90.8776 1209.99,-95.1789"/>
</g>
<!-- Node14 -->
<g id="node14" class="node"><title>Node14</title>
<g id="a_node14"><a xlink:href="../../dd/d4e/run__trac__its_8C.html" target="_top" xlink:title="/home/travis/build\l/AliceO2Group/AliceO2\l/macro/run_trac_its.C">
<polygon fill="none" stroke="black" points="1268,-11.5 1268,-52.5 1386,-52.5 1386,-11.5 1268,-11.5"/>
<text text-anchor="start" x="1276" y="-40.5" font-family="Helvetica,sans-Serif" font-size="10.00">/home/travis/build</text>
<text text-anchor="start" x="1276" y="-29.5" font-family="Helvetica,sans-Serif" font-size="10.00">/AliceO2Group/AliceO2</text>
<text text-anchor="middle" x="1327" y="-18.5" font-family="Helvetica,sans-Serif" font-size="10.00">/macro/run_trac_its.C</text>
</a>
</g>
</g>
<!-- Node12&#45;&gt;Node14 -->
<g id="edge13" class="edge"><title>Node12&#45;&gt;Node14</title>
<path fill="none" stroke="midnightblue" d="M1281,-92.7957C1291.77,-78.7961 1303.13,-64.0252 1311.87,-52.6667"/>
<polygon fill="midnightblue" stroke="midnightblue" points="1278.08,-90.8575 1274.76,-100.918 1283.63,-95.1255 1278.08,-90.8575"/>
</g>
<!-- Node17 -->
<g id="node17" class="node"><title>Node17</title>
<g id="a_node17"><a xlink:href="../../dd/d81/TrivialClustererTask_8cxx.html" target="_top" xlink:title="Implementation of the ITS cluster finder task. ">
<polygon fill="none" stroke="black" points="1554.5,-106.5 1554.5,-169.5 1721.5,-169.5 1721.5,-106.5 1554.5,-106.5"/>
<text text-anchor="start" x="1562.5" y="-157.5" font-family="Helvetica,sans-Serif" font-size="10.00">/home/travis/build</text>
<text text-anchor="start" x="1562.5" y="-146.5" font-family="Helvetica,sans-Serif" font-size="10.00">/AliceO2Group/AliceO2</text>
<text text-anchor="start" x="1562.5" y="-135.5" font-family="Helvetica,sans-Serif" font-size="10.00">/Detectors/ITSMFT/ITS</text>
<text text-anchor="start" x="1562.5" y="-124.5" font-family="Helvetica,sans-Serif" font-size="10.00">/reconstruction/src/TrivialClusterer</text>
<text text-anchor="middle" x="1638" y="-113.5" font-family="Helvetica,sans-Serif" font-size="10.00">Task.cxx</text>
</a>
</g>
</g>
<!-- Node16&#45;&gt;Node17 -->
<g id="edge17" class="edge"><title>Node16&#45;&gt;Node17</title>
<path fill="none" stroke="midnightblue" d="M1575.03,-205.6C1586.43,-193.548 1598.56,-180.718 1609.1,-169.568"/>
<polygon fill="midnightblue" stroke="midnightblue" points="1572.38,-203.311 1568.05,-212.982 1577.47,-208.12 1572.38,-203.311"/>
</g>
</g>
</svg>
