<?xml version="1.0" encoding="UTF-8" standalone="no"?>
<!DOCTYPE svg PUBLIC "-//W3C//DTD SVG 1.1//EN"
 "http://www.w3.org/Graphics/SVG/1.1/DTD/svg11.dtd">
<!-- Generated by graphviz version 2.36.0 (20140111.2315)
 -->
<!-- Title: /home/travis/build/AliceO2Group/AliceO2/DataFormats/Detectors/TPC/include/DataFormatsTPC/Helpers.h Pages: 1 -->
<svg width="783pt" height="162pt"
 viewBox="0.00 0.00 783.00 162.00" xmlns="http://www.w3.org/2000/svg" xmlns:xlink="http://www.w3.org/1999/xlink">
<g id="graph0" class="graph" transform="scale(1 1) rotate(0) translate(4 158)">
<title>/home/travis/build/AliceO2Group/AliceO2/DataFormats/Detectors/TPC/include/DataFormatsTPC/Helpers.h</title>
<!-- Node1 -->
<g id="node1" class="node"><title>Node1</title>
<polygon fill="#bfbfbf" stroke="black" points="275,-90.5 275,-153.5 429,-153.5 429,-90.5 275,-90.5"/>
<text text-anchor="start" x="283" y="-141.5" font-family="Helvetica,sans-Serif" font-size="10.00">/home/travis/build</text>
<text text-anchor="start" x="283" y="-130.5" font-family="Helvetica,sans-Serif" font-size="10.00">/AliceO2Group/AliceO2</text>
<text text-anchor="start" x="283" y="-119.5" font-family="Helvetica,sans-Serif" font-size="10.00">/DataFormats/Detectors</text>
<text text-anchor="start" x="283" y="-108.5" font-family="Helvetica,sans-Serif" font-size="10.00">/TPC/include/DataFormatsTPC</text>
<text text-anchor="middle" x="352" y="-97.5" font-family="Helvetica,sans-Serif" font-size="10.00">/Helpers.h</text>
</g>
<!-- Node2 -->
<g id="node2" class="node"><title>Node2</title>
<g id="a_node2"><a xlink:href="../../dc/def/Helpers_8cxx.html" target="_top" xlink:title="/home/travis/build\l/AliceO2Group/AliceO2\l/DataFormats/Detectors\l/TPC/src/Helpers.cxx">
<polygon fill="none" stroke="black" points="0,-1 0,-53 122,-53 122,-1 0,-1"/>
<text text-anchor="start" x="8" y="-41" font-family="Helvetica,sans-Serif" font-size="10.00">/home/travis/build</text>
<text text-anchor="start" x="8" y="-30" font-family="Helvetica,sans-Serif" font-size="10.00">/AliceO2Group/AliceO2</text>
<text text-anchor="start" x="8" y="-19" font-family="Helvetica,sans-Serif" font-size="10.00">/DataFormats/Detectors</text>
<text text-anchor="middle" x="61" y="-8" font-family="Helvetica,sans-Serif" font-size="10.00">/TPC/src/Helpers.cxx</text>
</a>
</g>
</g>
<!-- Node1&#45;&gt;Node2 -->
<g id="edge1" class="edge"><title>Node1&#45;&gt;Node2</title>
<path fill="none" stroke="midnightblue" d="M265.255,-96.0396C224.344,-83.9265 174.967,-68.8146 131,-54 128.052,-53.0065 125.041,-51.9708 122.005,-50.9095"/>
<polygon fill="midnightblue" stroke="midnightblue" points="264.343,-99.4194 274.924,-98.8934 266.324,-92.7057 264.343,-99.4194"/>
</g>
<!-- Node3 -->
<g id="node3" class="node"><title>Node3</title>
<g id="a_node3"><a xlink:href="../../d7/d3d/convertClusterToClusterHardware_8C.html" target="_top" xlink:title="/home/travis/build\l/AliceO2Group/AliceO2\l/Detectors/TPC/reconstruction\l/macro/convertClusterToClusterHardware.C">
<polygon fill="none" stroke="black" points="140.5,-1 140.5,-53 349.5,-53 349.5,-1 140.5,-1"/>
<text text-anchor="start" x="148.5" y="-41" font-family="Helvetica,sans-Serif" font-size="10.00">/home/travis/build</text>
<text text-anchor="start" x="148.5" y="-30" font-family="Helvetica,sans-Serif" font-size="10.00">/AliceO2Group/AliceO2</text>
<text text-anchor="start" x="148.5" y="-19" font-family="Helvetica,sans-Serif" font-size="10.00">/Detectors/TPC/reconstruction</text>
<text text-anchor="middle" x="245" y="-8" font-family="Helvetica,sans-Serif" font-size="10.00">/macro/convertClusterToClusterHardware.C</text>
</a>
</g>
</g>
<!-- Node1&#45;&gt;Node3 -->
<g id="edge2" class="edge"><title>Node1&#45;&gt;Node3</title>
<path fill="none" stroke="midnightblue" d="M309.032,-83.6542C297.218,-73.3858 284.69,-62.4973 273.879,-53.1001"/>
<polygon fill="midnightblue" stroke="midnightblue" points="306.824,-86.3722 316.668,-90.2906 311.416,-81.0888 306.824,-86.3722"/>
</g>
<!-- Node4 -->
<g id="node4" class="node"><title>Node4</title>
<g id="a_node4"><a xlink:href="../../d1/df0/runCATrackingClusterNative_8C.html" target="_top" xlink:title="/home/travis/build\l/AliceO2Group/AliceO2\l/Detectors/TPC/reconstruction\l/macro/runCATrackingClusterNative.C">
<polygon fill="none" stroke="black" points="367.5,-1 367.5,-53 552.5,-53 552.5,-1 367.5,-1"/>
<text text-anchor="start" x="375.5" y="-41" font-family="Helvetica,sans-Serif" font-size="10.00">/home/travis/build</text>
<text text-anchor="start" x="375.5" y="-30" font-family="Helvetica,sans-Serif" font-size="10.00">/AliceO2Group/AliceO2</text>
<text text-anchor="start" x="375.5" y="-19" font-family="Helvetica,sans-Serif" font-size="10.00">/Detectors/TPC/reconstruction</text>
<text text-anchor="middle" x="460" y="-8" font-family="Helvetica,sans-Serif" font-size="10.00">/macro/runCATrackingClusterNative.C</text>
</a>
</g>
</g>
<!-- Node1&#45;&gt;Node4 -->
<g id="edge3" class="edge"><title>Node1&#45;&gt;Node4</title>
<path fill="none" stroke="midnightblue" d="M395.369,-83.6542C407.294,-73.3858 419.939,-62.4973 430.851,-53.1001"/>
<polygon fill="midnightblue" stroke="midnightblue" points="392.956,-81.1131 387.663,-90.2906 397.524,-86.4175 392.956,-81.1131"/>
</g>
<!-- Node5 -->
<g id="node5" class="node"><title>Node5</title>
<g id="a_node5"><a xlink:href="../../dc/daf/runHardwareClusterDecoderRoot_8C.html" target="_top" xlink:title="/home/travis/build\l/AliceO2Group/AliceO2\l/Detectors/TPC/reconstruction\l/macro/runHardwareClusterDecoderRoot.C">
<polygon fill="none" stroke="black" points="570.5,-1 570.5,-53 775.5,-53 775.5,-1 570.5,-1"/>
<text text-anchor="start" x="578.5" y="-41" font-family="Helvetica,sans-Serif" font-size="10.00">/home/travis/build</text>
<text text-anchor="start" x="578.5" y="-30" font-family="Helvetica,sans-Serif" font-size="10.00">/AliceO2Group/AliceO2</text>
<text text-anchor="start" x="578.5" y="-19" font-family="Helvetica,sans-Serif" font-size="10.00">/Detectors/TPC/reconstruction</text>
<text text-anchor="middle" x="673" y="-8" font-family="Helvetica,sans-Serif" font-size="10.00">/macro/runHardwareClusterDecoderRoot.C</text>
</a>
</g>
</g>
<!-- Node1&#45;&gt;Node5 -->
<g id="edge4" class="edge"><title>Node1&#45;&gt;Node5</title>
<path fill="none" stroke="midnightblue" d="M438.908,-95.8209C484.716,-82.5497 540.73,-66.3212 586.479,-53.0668"/>
<polygon fill="midnightblue" stroke="midnightblue" points="437.927,-92.4612 429.296,-98.6058 439.875,-99.1848 437.927,-92.4612"/>
</g>
</g>
</svg>
