<?xml version="1.0" encoding="UTF-8" standalone="no"?>
<!DOCTYPE svg PUBLIC "-//W3C//DTD SVG 1.1//EN"
 "http://www.w3.org/Graphics/SVG/1.1/DTD/svg11.dtd">
<!-- Generated by graphviz version 2.36.0 (20140111.2315)
 -->
<!-- Title: /home/travis/build/AliceO2Group/AliceO2/Detectors/TPC/base/test/testTPCBase.cxx Pages: 1 -->
<svg width="1359pt" height="366pt"
 viewBox="0.00 0.00 1359.00 366.00" xmlns="http://www.w3.org/2000/svg" xmlns:xlink="http://www.w3.org/1999/xlink">
<g id="graph0" class="graph" transform="scale(1 1) rotate(0) translate(4 362)">
<title>/home/travis/build/AliceO2Group/AliceO2/Detectors/TPC/base/test/testTPCBase.cxx</title>
<!-- Node1 -->
<g id="node1" class="node"><title>Node1</title>
<polygon fill="#bfbfbf" stroke="black" points="308.5,-305 308.5,-357 437.5,-357 437.5,-305 308.5,-305"/>
<text text-anchor="start" x="316.5" y="-345" font-family="Helvetica,sans-Serif" font-size="10.00">/home/travis/build</text>
<text text-anchor="start" x="316.5" y="-334" font-family="Helvetica,sans-Serif" font-size="10.00">/AliceO2Group/AliceO2</text>
<text text-anchor="start" x="316.5" y="-323" font-family="Helvetica,sans-Serif" font-size="10.00">/Detectors/TPC/base/test</text>
<text text-anchor="middle" x="373" y="-312" font-family="Helvetica,sans-Serif" font-size="10.00">/testTPCBase.cxx</text>
</g>
<!-- Node2 -->
<g id="node2" class="node"><title>Node2</title>
<polygon fill="none" stroke="#bfbfbf" points="206.5,-248.5 206.5,-267.5 325.5,-267.5 325.5,-248.5 206.5,-248.5"/>
<text text-anchor="middle" x="266" y="-255.5" font-family="Helvetica,sans-Serif" font-size="10.00">boost/test/unit_test.hpp</text>
</g>
<!-- Node1&#45;&gt;Node2 -->
<g id="edge1" class="edge"><title>Node1&#45;&gt;Node2</title>
<path fill="none" stroke="midnightblue" d="M335.276,-304.968C319.339,-294.393 301.351,-282.457 287.699,-273.398"/>
<polygon fill="midnightblue" stroke="midnightblue" points="289.287,-270.252 279.019,-267.639 285.416,-276.084 289.287,-270.252"/>
</g>
<!-- Node3 -->
<g id="node3" class="node"><title>Node3</title>
<g id="a_node3"><a xlink:href="../../d1/d73/Defs_8h.html" target="_top" xlink:title="Common definitions for 2D coordinates. ">
<polygon fill="none" stroke="black" points="382,-192.5 382,-211.5 474,-211.5 474,-192.5 382,-192.5"/>
<text text-anchor="middle" x="428" y="-199.5" font-family="Helvetica,sans-Serif" font-size="10.00">TPCBase/Defs.h</text>
</a>
</g>
</g>
<!-- Node1&#45;&gt;Node3 -->
<g id="edge2" class="edge"><title>Node1&#45;&gt;Node3</title>
<path fill="none" stroke="midnightblue" d="M383.866,-304.909C394.574,-280.184 410.671,-243.015 420.178,-221.061"/>
<polygon fill="midnightblue" stroke="midnightblue" points="423.501,-222.195 424.264,-211.628 417.078,-219.413 423.501,-222.195"/>
</g>
<!-- Node4 -->
<g id="node4" class="node"><title>Node4</title>
<polygon fill="none" stroke="#bfbfbf" points="344,-136.5 344,-155.5 388,-155.5 388,-136.5 344,-136.5"/>
<text text-anchor="middle" x="366" y="-143.5" font-family="Helvetica,sans-Serif" font-size="10.00">cmath</text>
</g>
<!-- Node1&#45;&gt;Node4 -->
<g id="edge20" class="edge"><title>Node1&#45;&gt;Node4</title>
<path fill="none" stroke="midnightblue" d="M372.041,-304.938C370.621,-267.811 367.99,-199.02 366.721,-165.851"/>
<polygon fill="midnightblue" stroke="midnightblue" points="370.213,-165.574 366.333,-155.715 363.218,-165.841 370.213,-165.574"/>
</g>
<!-- Node17 -->
<g id="node17" class="node"><title>Node17</title>
<g id="a_node17"><a xlink:href="../../d3/dd6/Sector_8h.html" target="_top" xlink:title="TPCBase/Sector.h">
<polygon fill="none" stroke="black" points="420.5,-248.5 420.5,-267.5 519.5,-267.5 519.5,-248.5 420.5,-248.5"/>
<text text-anchor="middle" x="470" y="-255.5" font-family="Helvetica,sans-Serif" font-size="10.00">TPCBase/Sector.h</text>
</a>
</g>
</g>
<!-- Node1&#45;&gt;Node17 -->
<g id="edge17" class="edge"><title>Node1&#45;&gt;Node17</title>
<path fill="none" stroke="midnightblue" d="M407.199,-304.968C421.419,-294.559 437.442,-282.831 449.743,-273.827"/>
<polygon fill="midnightblue" stroke="midnightblue" points="451.962,-276.54 457.964,-267.81 447.828,-270.892 451.962,-276.54"/>
</g>
<!-- Node3&#45;&gt;Node4 -->
<g id="edge3" class="edge"><title>Node3&#45;&gt;Node4</title>
<path fill="none" stroke="midnightblue" d="M418.039,-192.324C408.873,-184.341 395.063,-172.313 383.972,-162.653"/>
<polygon fill="midnightblue" stroke="midnightblue" points="385.982,-159.762 376.143,-155.834 381.385,-165.041 385.982,-159.762"/>
</g>
<!-- Node5 -->
<g id="node5" class="node"><title>Node5</title>
<g id="a_node5"><a xlink:href="../../d2/dd0/Cartesian2D_8h.html" target="_top" xlink:title="MathUtils/Cartesian2D.h">
<polygon fill="none" stroke="black" points="103.5,-74.5 103.5,-93.5 228.5,-93.5 228.5,-74.5 103.5,-74.5"/>
<text text-anchor="middle" x="166" y="-81.5" font-family="Helvetica,sans-Serif" font-size="10.00">MathUtils/Cartesian2D.h</text>
</a>
</g>
</g>
<!-- Node3&#45;&gt;Node5 -->
<g id="edge4" class="edge"><title>Node3&#45;&gt;Node5</title>
<path fill="none" stroke="midnightblue" d="M426.258,-192.319C422.955,-178.216 414.399,-150.45 396,-136 394.2,-134.586 282.396,-110.2 215.353,-95.6686"/>
<polygon fill="midnightblue" stroke="midnightblue" points="215.917,-92.2097 205.403,-93.513 214.435,-99.051 215.917,-92.2097"/>
</g>
<!-- Node8 -->
<g id="node8" class="node"><title>Node8</title>
<g id="a_node8"><a xlink:href="../../dd/d76/Cartesian3D_8h.html" target="_top" xlink:title="MathUtils/Cartesian3D.h">
<polygon fill="none" stroke="black" points="706.5,-136.5 706.5,-155.5 831.5,-155.5 831.5,-136.5 706.5,-136.5"/>
<text text-anchor="middle" x="769" y="-143.5" font-family="Helvetica,sans-Serif" font-size="10.00">MathUtils/Cartesian3D.h</text>
</a>
</g>
</g>
<!-- Node3&#45;&gt;Node8 -->
<g id="edge7" class="edge"><title>Node3&#45;&gt;Node8</title>
<path fill="none" stroke="midnightblue" d="M474.21,-193.417C477.184,-192.936 480.134,-192.46 483,-192 558.844,-179.828 646.058,-166.152 704.037,-157.105"/>
<polygon fill="midnightblue" stroke="midnightblue" points="704.815,-160.526 714.156,-155.527 703.736,-153.61 704.815,-160.526"/>
</g>
<!-- Node6 -->
<g id="node6" class="node"><title>Node6</title>
<polygon fill="none" stroke="#bfbfbf" points="-0.5,-1 -0.5,-31 150.5,-31 150.5,-1 -0.5,-1"/>
<text text-anchor="start" x="7.5" y="-19" font-family="Helvetica,sans-Serif" font-size="10.00">Math/GenVector/Displacement</text>
<text text-anchor="middle" x="75" y="-8" font-family="Helvetica,sans-Serif" font-size="10.00">Vector2D.h</text>
</g>
<!-- Node5&#45;&gt;Node6 -->
<g id="edge5" class="edge"><title>Node5&#45;&gt;Node6</title>
<path fill="none" stroke="midnightblue" d="M154.103,-74.3717C141.221,-65.0286 120.22,-49.7966 103.093,-37.375"/>
<polygon fill="midnightblue" stroke="midnightblue" points="104.703,-34.2194 94.5532,-31.1815 100.593,-39.8859 104.703,-34.2194"/>
</g>
<!-- Node7 -->
<g id="node7" class="node"><title>Node7</title>
<polygon fill="none" stroke="#bfbfbf" points="169,-6.5 169,-25.5 345,-25.5 345,-6.5 169,-6.5"/>
<text text-anchor="middle" x="257" y="-13.5" font-family="Helvetica,sans-Serif" font-size="10.00">Math/GenVector/PositionVector2D.h</text>
</g>
<!-- Node5&#45;&gt;Node7 -->
<g id="edge6" class="edge"><title>Node5&#45;&gt;Node7</title>
<path fill="none" stroke="midnightblue" d="M177.897,-74.3717C192.884,-63.5015 218.862,-44.6602 236.942,-31.5474"/>
<polygon fill="midnightblue" stroke="midnightblue" points="239.06,-34.3349 245.1,-25.6305 234.95,-28.6684 239.06,-34.3349"/>
</g>
<!-- Node8&#45;&gt;Node5 -->
<g id="edge16" class="edge"><title>Node8&#45;&gt;Node5</title>
<path fill="none" stroke="midnightblue" d="M706.465,-142.223C606.742,-137.232 405.729,-124.862 237,-100 228.848,-98.7988 220.227,-97.2322 211.908,-95.5654"/>
<polygon fill="midnightblue" stroke="midnightblue" points="212.467,-92.1067 201.964,-93.5004 211.043,-98.9605 212.467,-92.1067"/>
</g>
<!-- Node9 -->
<g id="node9" class="node"><title>Node9</title>
<polygon fill="none" stroke="#bfbfbf" points="246.5,-69 246.5,-99 397.5,-99 397.5,-69 246.5,-69"/>
<text text-anchor="start" x="254.5" y="-87" font-family="Helvetica,sans-Serif" font-size="10.00">Math/GenVector/Displacement</text>
<text text-anchor="middle" x="322" y="-76" font-family="Helvetica,sans-Serif" font-size="10.00">Vector3D.h</text>
</g>
<!-- Node8&#45;&gt;Node9 -->
<g id="edge8" class="edge"><title>Node8&#45;&gt;Node9</title>
<path fill="none" stroke="midnightblue" d="M706.41,-138.201C636.255,-130.359 518.873,-116.579 407.571,-100.037"/>
<polygon fill="midnightblue" stroke="midnightblue" points="407.919,-96.5499 397.511,-98.5314 406.883,-103.473 407.919,-96.5499"/>
</g>
<!-- Node10 -->
<g id="node10" class="node"><title>Node10</title>
<polygon fill="none" stroke="#bfbfbf" points="416,-74.5 416,-93.5 592,-93.5 592,-74.5 416,-74.5"/>
<text text-anchor="middle" x="504" y="-81.5" font-family="Helvetica,sans-Serif" font-size="10.00">Math/GenVector/PositionVector3D.h</text>
</g>
<!-- Node8&#45;&gt;Node10 -->
<g id="edge9" class="edge"><title>Node8&#45;&gt;Node10</title>
<path fill="none" stroke="midnightblue" d="M731.313,-136.467C684.024,-125.76 602.899,-107.392 551.435,-95.74"/>
<polygon fill="midnightblue" stroke="midnightblue" points="552.083,-92.2981 541.557,-93.5034 550.537,-99.1253 552.083,-92.2981"/>
</g>
<!-- Node11 -->
<g id="node11" class="node"><title>Node11</title>
<polygon fill="none" stroke="#bfbfbf" points="609.5,-74.5 609.5,-93.5 758.5,-93.5 758.5,-74.5 609.5,-74.5"/>
<text text-anchor="middle" x="684" y="-81.5" font-family="Helvetica,sans-Serif" font-size="10.00">Math/GenVector/Rotation3D.h</text>
</g>
<!-- Node8&#45;&gt;Node11 -->
<g id="edge10" class="edge"><title>Node8&#45;&gt;Node11</title>
<path fill="none" stroke="midnightblue" d="M756.822,-136.403C743.188,-126.78 720.868,-111.024 704.526,-99.4891"/>
<polygon fill="midnightblue" stroke="midnightblue" points="706.344,-96.4881 696.156,-93.5806 702.307,-102.207 706.344,-96.4881"/>
</g>
<!-- Node12 -->
<g id="node12" class="node"><title>Node12</title>
<polygon fill="none" stroke="#bfbfbf" points="777,-74.5 777,-93.5 933,-93.5 933,-74.5 777,-74.5"/>
<text text-anchor="middle" x="855" y="-81.5" font-family="Helvetica,sans-Serif" font-size="10.00">Math/GenVector/Transform3D.h</text>
</g>
<!-- Node8&#45;&gt;Node12 -->
<g id="edge11" class="edge"><title>Node8&#45;&gt;Node12</title>
<path fill="none" stroke="midnightblue" d="M781.322,-136.403C795.116,-126.78 817.699,-111.024 834.232,-99.4891"/>
<polygon fill="midnightblue" stroke="midnightblue" points="836.503,-102.173 842.701,-93.5806 832.497,-96.432 836.503,-102.173"/>
</g>
<!-- Node13 -->
<g id="node13" class="node"><title>Node13</title>
<polygon fill="none" stroke="#bfbfbf" points="951,-74.5 951,-93.5 1111,-93.5 1111,-74.5 951,-74.5"/>
<text text-anchor="middle" x="1031" y="-81.5" font-family="Helvetica,sans-Serif" font-size="10.00">Math/GenVector/Translation3D.h</text>
</g>
<!-- Node8&#45;&gt;Node13 -->
<g id="edge12" class="edge"><title>Node8&#45;&gt;Node13</title>
<path fill="none" stroke="midnightblue" d="M806.26,-136.467C853.014,-125.76 933.221,-107.392 984.102,-95.74"/>
<polygon fill="midnightblue" stroke="midnightblue" points="984.902,-99.1474 993.869,-93.5034 983.34,-92.3241 984.902,-99.1474"/>
</g>
<!-- Node14 -->
<g id="node14" class="node"><title>Node14</title>
<polygon fill="none" stroke="#bfbfbf" points="1129,-74.5 1129,-93.5 1185,-93.5 1185,-74.5 1129,-74.5"/>
<text text-anchor="middle" x="1157" y="-81.5" font-family="Helvetica,sans-Serif" font-size="10.00">Rtypes.h</text>
</g>
<!-- Node8&#45;&gt;Node14 -->
<g id="edge13" class="edge"><title>Node8&#45;&gt;Node14</title>
<path fill="none" stroke="midnightblue" d="M831.744,-141.834C902.694,-137.135 1021.2,-125.896 1120,-100 1122.99,-99.2169 1126.06,-98.2519 1129.09,-97.192"/>
<polygon fill="midnightblue" stroke="midnightblue" points="1130.41,-100.434 1138.5,-93.5901 1127.91,-93.897 1130.41,-100.434"/>
</g>
<!-- Node15 -->
<g id="node15" class="node"><title>Node15</title>
<polygon fill="none" stroke="#bfbfbf" points="1203,-74.5 1203,-93.5 1279,-93.5 1279,-74.5 1203,-74.5"/>
<text text-anchor="middle" x="1241" y="-81.5" font-family="Helvetica,sans-Serif" font-size="10.00">TGeoMatrix.h</text>
</g>
<!-- Node8&#45;&gt;Node15 -->
<g id="edge14" class="edge"><title>Node8&#45;&gt;Node15</title>
<path fill="none" stroke="midnightblue" d="M831.742,-142.21C915.026,-137.628 1066.33,-126.246 1193,-100 1197.55,-99.0578 1202.28,-97.8597 1206.92,-96.5526"/>
<polygon fill="midnightblue" stroke="midnightblue" points="1208.26,-99.8046 1216.83,-93.5742 1206.24,-93.1009 1208.26,-99.8046"/>
</g>
<!-- Node16 -->
<g id="node16" class="node"><title>Node16</title>
<polygon fill="none" stroke="#bfbfbf" points="1297,-74.5 1297,-93.5 1351,-93.5 1351,-74.5 1297,-74.5"/>
<text text-anchor="middle" x="1324" y="-81.5" font-family="Helvetica,sans-Serif" font-size="10.00">iostream</text>
</g>
<!-- Node8&#45;&gt;Node16 -->
<g id="edge15" class="edge"><title>Node8&#45;&gt;Node16</title>
<path fill="none" stroke="midnightblue" d="M831.519,-145.734C930.046,-145.524 1126.82,-139.553 1288,-100 1290.99,-99.2653 1294.06,-98.3174 1297.08,-97.2555"/>
<polygon fill="midnightblue" stroke="midnightblue" points="1298.39,-100.503 1306.42,-93.5957 1295.83,-93.9852 1298.39,-100.503"/>
</g>
<!-- Node17&#45;&gt;Node3 -->
<g id="edge19" class="edge"><title>Node17&#45;&gt;Node3</title>
<path fill="none" stroke="midnightblue" d="M463.065,-248.083C457.071,-240.377 448.248,-229.033 440.952,-219.653"/>
<polygon fill="midnightblue" stroke="midnightblue" points="443.709,-217.496 434.806,-211.751 438.183,-221.793 443.709,-217.496"/>
</g>
<!-- Node18 -->
<g id="node18" class="node"><title>Node18</title>
<g id="a_node18"><a xlink:href="../../d6/d51/TPC_2base_2include_2TPCBase_2Constants_8h.html" target="_top" xlink:title="TPCBase/Constants.h">
<polygon fill="none" stroke="black" points="492,-192.5 492,-211.5 608,-211.5 608,-192.5 492,-192.5"/>
<text text-anchor="middle" x="550" y="-199.5" font-family="Helvetica,sans-Serif" font-size="10.00">TPCBase/Constants.h</text>
</a>
</g>
</g>
<!-- Node17&#45;&gt;Node18 -->
<g id="edge18" class="edge"><title>Node17&#45;&gt;Node18</title>
<path fill="none" stroke="midnightblue" d="M482.853,-248.324C495.216,-239.979 514.13,-227.212 528.737,-217.352"/>
<polygon fill="midnightblue" stroke="midnightblue" points="530.848,-220.15 537.179,-211.655 526.932,-214.348 530.848,-220.15"/>
</g>
</g>
</svg>
