<?xml version="1.0" encoding="UTF-8" standalone="no"?>
<!DOCTYPE svg PUBLIC "-//W3C//DTD SVG 1.1//EN"
 "http://www.w3.org/Graphics/SVG/1.1/DTD/svg11.dtd">
<!-- Generated by graphviz version 2.36.0 (20140111.2315)
 -->
<!-- Title: /home/travis/build/AliceO2Group/AliceO2/Detectors/TPC/reconstruction/src/ClusterContainer.cxx Pages: 1 -->
<svg width="497pt" height="254pt"
 viewBox="0.00 0.00 497.00 254.00" xmlns="http://www.w3.org/2000/svg" xmlns:xlink="http://www.w3.org/1999/xlink">
<g id="graph0" class="graph" transform="scale(1 1) rotate(0) translate(4 250)">
<title>/home/travis/build/AliceO2Group/AliceO2/Detectors/TPC/reconstruction/src/ClusterContainer.cxx</title>
<!-- Node1 -->
<g id="node1" class="node"><title>Node1</title>
<polygon fill="#bfbfbf" stroke="black" points="144,-193 144,-245 294,-245 294,-193 144,-193"/>
<text text-anchor="start" x="152" y="-233" font-family="Helvetica,sans-Serif" font-size="10.00">/home/travis/build</text>
<text text-anchor="start" x="152" y="-222" font-family="Helvetica,sans-Serif" font-size="10.00">/AliceO2Group/AliceO2</text>
<text text-anchor="start" x="152" y="-211" font-family="Helvetica,sans-Serif" font-size="10.00">/Detectors/TPC/reconstruction</text>
<text text-anchor="middle" x="219" y="-200" font-family="Helvetica,sans-Serif" font-size="10.00">/src/ClusterContainer.cxx</text>
</g>
<!-- Node2 -->
<g id="node2" class="node"><title>Node2</title>
<g id="a_node2"><a xlink:href="../../db/d6b/ClusterContainer_8h.html" target="_top" xlink:title="Container class for TPC clusters. ">
<polygon fill="none" stroke="black" points="3.5,-125 3.5,-155 140.5,-155 140.5,-125 3.5,-125"/>
<text text-anchor="start" x="11.5" y="-143" font-family="Helvetica,sans-Serif" font-size="10.00">TPCReconstruction/Cluster</text>
<text text-anchor="middle" x="72" y="-132" font-family="Helvetica,sans-Serif" font-size="10.00">Container.h</text>
</a>
</g>
</g>
<!-- Node1&#45;&gt;Node2 -->
<g id="edge1" class="edge"><title>Node1&#45;&gt;Node2</title>
<path fill="none" stroke="midnightblue" d="M170.867,-192.787C150.287,-182.007 126.682,-169.643 107.7,-159.7"/>
<polygon fill="midnightblue" stroke="midnightblue" points="109.268,-156.57 98.7858,-155.031 106.02,-162.771 109.268,-156.57"/>
</g>
<!-- Node4 -->
<g id="node4" class="node"><title>Node4</title>
<polygon fill="none" stroke="#bfbfbf" points="100.5,-62.5 100.5,-81.5 149.5,-81.5 149.5,-62.5 100.5,-62.5"/>
<text text-anchor="middle" x="125" y="-69.5" font-family="Helvetica,sans-Serif" font-size="10.00">cassert</text>
</g>
<!-- Node1&#45;&gt;Node4 -->
<g id="edge11" class="edge"><title>Node1&#45;&gt;Node4</title>
<path fill="none" stroke="midnightblue" d="M202.626,-192.743C183.596,-163.388 152.702,-115.731 136.211,-90.2937"/>
<polygon fill="midnightblue" stroke="midnightblue" points="139.028,-88.204 130.651,-81.7169 133.154,-92.0119 139.028,-88.204"/>
</g>
<!-- Node6 -->
<g id="node6" class="node"><title>Node6</title>
<g id="a_node6"><a xlink:href="../../d6/d6f/TPC_2reconstruction_2include_2TPCReconstruction_2Cluster_8h.html" target="_top" xlink:title="TPCReconstruction/Cluster.h">
<polygon fill="none" stroke="black" points="197,-130.5 197,-149.5 343,-149.5 343,-130.5 197,-130.5"/>
<text text-anchor="middle" x="270" y="-137.5" font-family="Helvetica,sans-Serif" font-size="10.00">TPCReconstruction/Cluster.h</text>
</a>
</g>
</g>
<!-- Node1&#45;&gt;Node6 -->
<g id="edge5" class="edge"><title>Node1&#45;&gt;Node6</title>
<path fill="none" stroke="midnightblue" d="M235.699,-192.787C243.261,-181.37 252.001,-168.176 258.765,-157.962"/>
<polygon fill="midnightblue" stroke="midnightblue" points="261.728,-159.828 264.332,-149.558 255.892,-155.962 261.728,-159.828"/>
</g>
<!-- Node9 -->
<g id="node9" class="node"><title>Node9</title>
<polygon fill="none" stroke="#bfbfbf" points="361.5,-130.5 361.5,-149.5 432.5,-149.5 432.5,-130.5 361.5,-130.5"/>
<text text-anchor="middle" x="397" y="-137.5" font-family="Helvetica,sans-Serif" font-size="10.00">FairLogger.h</text>
</g>
<!-- Node1&#45;&gt;Node9 -->
<g id="edge10" class="edge"><title>Node1&#45;&gt;Node9</title>
<path fill="none" stroke="midnightblue" d="M277.284,-192.787C307.582,-179.681 343.294,-164.232 367.78,-153.64"/>
<polygon fill="midnightblue" stroke="midnightblue" points="369.429,-156.74 377.217,-149.558 366.65,-150.316 369.429,-156.74"/>
</g>
<!-- Node3 -->
<g id="node3" class="node"><title>Node3</title>
<polygon fill="none" stroke="#bfbfbf" points="0,-62.5 0,-81.5 44,-81.5 44,-62.5 0,-62.5"/>
<text text-anchor="middle" x="22" y="-69.5" font-family="Helvetica,sans-Serif" font-size="10.00">vector</text>
</g>
<!-- Node2&#45;&gt;Node3 -->
<g id="edge2" class="edge"><title>Node2&#45;&gt;Node3</title>
<path fill="none" stroke="midnightblue" d="M61.1507,-124.679C53.4318,-114.49 43.0294,-100.759 34.8873,-90.0112"/>
<polygon fill="midnightblue" stroke="midnightblue" points="37.5165,-87.6857 28.6881,-81.8283 31.9369,-91.9128 37.5165,-87.6857"/>
</g>
<!-- Node2&#45;&gt;Node4 -->
<g id="edge3" class="edge"><title>Node2&#45;&gt;Node4</title>
<path fill="none" stroke="midnightblue" d="M83.5002,-124.679C91.7641,-114.388 102.93,-100.484 111.598,-89.6897"/>
<polygon fill="midnightblue" stroke="midnightblue" points="114.378,-91.817 117.911,-81.8283 108.92,-87.434 114.378,-91.817"/>
</g>
<!-- Node5 -->
<g id="node5" class="node"><title>Node5</title>
<polygon fill="none" stroke="#bfbfbf" points="150,-0.5 150,-19.5 206,-19.5 206,-0.5 150,-0.5"/>
<text text-anchor="middle" x="178" y="-7.5" font-family="Helvetica,sans-Serif" font-size="10.00">Rtypes.h</text>
</g>
<!-- Node2&#45;&gt;Node5 -->
<g id="edge4" class="edge"><title>Node2&#45;&gt;Node5</title>
<path fill="none" stroke="midnightblue" d="M71.7568,-124.858C72.1657,-107.013 75.3356,-76.2148 91,-56 103.392,-40.0086 123.055,-29.1618 140.555,-22.1316"/>
<polygon fill="midnightblue" stroke="midnightblue" points="141.849,-25.3846 149.995,-18.6102 139.403,-18.8261 141.849,-25.3846"/>
</g>
<!-- Node6&#45;&gt;Node5 -->
<g id="edge6" class="edge"><title>Node6&#45;&gt;Node5</title>
<path fill="none" stroke="midnightblue" d="M250.557,-130.347C233.845,-121.911 210.384,-107.503 197,-88 185.099,-70.6587 180.636,-46.5978 178.971,-30.0101"/>
<polygon fill="midnightblue" stroke="midnightblue" points="182.451,-29.6034 178.209,-19.8947 175.47,-30.1294 182.451,-29.6034"/>
</g>
<!-- Node7 -->
<g id="node7" class="node"><title>Node7</title>
<g id="a_node7"><a xlink:href="../../df/d5d/common_2include_2CommonDataFormat_2TimeStamp_8h.html" target="_top" xlink:title="CommonDataFormat/TimeStamp.h">
<polygon fill="none" stroke="black" points="206,-62.5 206,-81.5 376,-81.5 376,-62.5 206,-62.5"/>
<text text-anchor="middle" x="291" y="-69.5" font-family="Helvetica,sans-Serif" font-size="10.00">CommonDataFormat/TimeStamp.h</text>
</a>
</g>
</g>
<!-- Node6&#45;&gt;Node7 -->
<g id="edge7" class="edge"><title>Node6&#45;&gt;Node7</title>
<path fill="none" stroke="midnightblue" d="M272.745,-130.372C275.872,-120.544 281.072,-104.202 285.124,-91.4673"/>
<polygon fill="midnightblue" stroke="midnightblue" points="288.49,-92.4316 288.187,-81.8411 281.82,-90.3091 288.49,-92.4316"/>
</g>
<!-- Node8 -->
<g id="node8" class="node"><title>Node8</title>
<polygon fill="none" stroke="#bfbfbf" points="394.5,-57 394.5,-87 489.5,-87 489.5,-57 394.5,-57"/>
<text text-anchor="start" x="402.5" y="-75" font-family="Helvetica,sans-Serif" font-size="10.00">boost/serialization</text>
<text text-anchor="middle" x="442" y="-64" font-family="Helvetica,sans-Serif" font-size="10.00">/base_object.hpp</text>
</g>
<!-- Node6&#45;&gt;Node8 -->
<g id="edge9" class="edge"><title>Node6&#45;&gt;Node8</title>
<path fill="none" stroke="midnightblue" d="M292.486,-130.372C318.593,-120.354 362.343,-103.566 395.791,-90.7312"/>
<polygon fill="midnightblue" stroke="midnightblue" points="397.286,-93.9065 405.369,-87.0562 394.778,-87.3711 397.286,-93.9065"/>
</g>
<!-- Node7&#45;&gt;Node5 -->
<g id="edge8" class="edge"><title>Node7&#45;&gt;Node5</title>
<path fill="none" stroke="midnightblue" d="M274.81,-62.4035C256.098,-52.4678 225.077,-35.9966 203.201,-24.3812"/>
<polygon fill="midnightblue" stroke="midnightblue" points="204.634,-21.179 194.16,-19.5806 201.351,-27.3616 204.634,-21.179"/>
</g>
</g>
</svg>
