<?xml version="1.0" encoding="UTF-8" standalone="no"?>
<!DOCTYPE svg PUBLIC "-//W3C//DTD SVG 1.1//EN"
 "http://www.w3.org/Graphics/SVG/1.1/DTD/svg11.dtd">
<!-- Generated by graphviz version 2.36.0 (20140111.2315)
 -->
<!-- Title: /home/travis/build/AliceO2Group/AliceO2/Detectors/TPC/base/test/testTPCCalDet.cxx Pages: 1 -->
<svg width="1689pt" height="702pt"
 viewBox="0.00 0.00 1689.00 702.00" xmlns="http://www.w3.org/2000/svg" xmlns:xlink="http://www.w3.org/1999/xlink">
<g id="graph0" class="graph" transform="scale(1 1) rotate(0) translate(4 698)">
<title>/home/travis/build/AliceO2Group/AliceO2/Detectors/TPC/base/test/testTPCCalDet.cxx</title>
<!-- Node1 -->
<g id="node1" class="node"><title>Node1</title>
<polygon fill="#bfbfbf" stroke="black" points="538.5,-641 538.5,-693 667.5,-693 667.5,-641 538.5,-641"/>
<text text-anchor="start" x="546.5" y="-681" font-family="Helvetica,sans-Serif" font-size="10.00">/home/travis/build</text>
<text text-anchor="start" x="546.5" y="-670" font-family="Helvetica,sans-Serif" font-size="10.00">/AliceO2Group/AliceO2</text>
<text text-anchor="start" x="546.5" y="-659" font-family="Helvetica,sans-Serif" font-size="10.00">/Detectors/TPC/base/test</text>
<text text-anchor="middle" x="603" y="-648" font-family="Helvetica,sans-Serif" font-size="10.00">/testTPCCalDet.cxx</text>
</g>
<!-- Node2 -->
<g id="node2" class="node"><title>Node2</title>
<polygon fill="none" stroke="#bfbfbf" points="289,-528.5 289,-547.5 415,-547.5 415,-528.5 289,-528.5"/>
<text text-anchor="middle" x="352" y="-535.5" font-family="Helvetica,sans-Serif" font-size="10.00">boost/range/combine.hpp</text>
</g>
<!-- Node1&#45;&gt;Node2 -->
<g id="edge1" class="edge"><title>Node1&#45;&gt;Node2</title>
<path fill="none" stroke="midnightblue" d="M553.41,-640.909C500.769,-614.273 419.584,-573.196 378.202,-552.258"/>
<polygon fill="midnightblue" stroke="midnightblue" points="379.555,-549.02 369.052,-547.628 376.395,-555.266 379.555,-549.02"/>
</g>
<!-- Node3 -->
<g id="node3" class="node"><title>Node3</title>
<polygon fill="none" stroke="#bfbfbf" points="671.5,-584.5 671.5,-603.5 790.5,-603.5 790.5,-584.5 671.5,-584.5"/>
<text text-anchor="middle" x="731" y="-591.5" font-family="Helvetica,sans-Serif" font-size="10.00">boost/test/unit_test.hpp</text>
</g>
<!-- Node1&#45;&gt;Node3 -->
<g id="edge2" class="edge"><title>Node1&#45;&gt;Node3</title>
<path fill="none" stroke="midnightblue" d="M648.128,-640.968C667.743,-630.088 689.955,-617.767 706.442,-608.622"/>
<polygon fill="midnightblue" stroke="midnightblue" points="708.379,-611.55 715.426,-603.639 704.983,-605.429 708.379,-611.55"/>
</g>
<!-- Node4 -->
<g id="node4" class="node"><title>Node4</title>
<polygon fill="none" stroke="#bfbfbf" points="92,-360.5 92,-379.5 136,-379.5 136,-360.5 92,-360.5"/>
<text text-anchor="middle" x="114" y="-367.5" font-family="Helvetica,sans-Serif" font-size="10.00">vector</text>
</g>
<!-- Node1&#45;&gt;Node4 -->
<g id="edge3" class="edge"><title>Node1&#45;&gt;Node4</title>
<path fill="none" stroke="midnightblue" d="M538.463,-664.993C390.216,-660.936 38,-640.606 38,-539 38,-539 38,-539 38,-481 38,-441.276 71.9641,-405.504 94.4821,-386.154"/>
<polygon fill="midnightblue" stroke="midnightblue" points="96.9755,-388.634 102.457,-379.567 92.518,-383.236 96.9755,-388.634"/>
</g>
<!-- Node5 -->
<g id="node5" class="node"><title>Node5</title>
<polygon fill="none" stroke="#bfbfbf" points="809,-584.5 809,-603.5 849,-603.5 849,-584.5 809,-584.5"/>
<text text-anchor="middle" x="829" y="-591.5" font-family="Helvetica,sans-Serif" font-size="10.00">limits</text>
</g>
<!-- Node1&#45;&gt;Node5 -->
<g id="edge4" class="edge"><title>Node1&#45;&gt;Node5</title>
<path fill="none" stroke="midnightblue" d="M667.763,-645.654C711.026,-632.063 765.903,-614.822 799.19,-604.365"/>
<polygon fill="midnightblue" stroke="midnightblue" points="800.299,-607.685 808.79,-601.349 798.201,-601.007 800.299,-607.685"/>
</g>
<!-- Node6 -->
<g id="node6" class="node"><title>Node6</title>
<polygon fill="none" stroke="#bfbfbf" points="867.5,-584.5 867.5,-603.5 920.5,-603.5 920.5,-584.5 867.5,-584.5"/>
<text text-anchor="middle" x="894" y="-591.5" font-family="Helvetica,sans-Serif" font-size="10.00">TMath.h</text>
</g>
<!-- Node1&#45;&gt;Node6 -->
<g id="edge5" class="edge"><title>Node1&#45;&gt;Node6</title>
<path fill="none" stroke="midnightblue" d="M667.745,-650.38C716.988,-638.472 786.702,-621.554 857.303,-604.16"/>
<polygon fill="midnightblue" stroke="midnightblue" points="858.397,-607.495 867.268,-601.703 856.721,-600.699 858.397,-607.495"/>
</g>
<!-- Node7 -->
<g id="node7" class="node"><title>Node7</title>
<g id="a_node7"><a xlink:href="../../d7/d2c/Mapper_8h.html" target="_top" xlink:title="TPCBase/Mapper.h">
<polygon fill="none" stroke="black" points="389.5,-472.5 389.5,-491.5 492.5,-491.5 492.5,-472.5 389.5,-472.5"/>
<text text-anchor="middle" x="441" y="-479.5" font-family="Helvetica,sans-Serif" font-size="10.00">TPCBase/Mapper.h</text>
</a>
</g>
</g>
<!-- Node1&#45;&gt;Node7 -->
<g id="edge6" class="edge"><title>Node1&#45;&gt;Node7</title>
<path fill="none" stroke="midnightblue" d="M538.5,-663.219C462.241,-656.062 338.335,-631.417 280,-548 252.215,-508.268 322.899,-492.804 379.286,-486.797"/>
<polygon fill="midnightblue" stroke="midnightblue" points="379.655,-490.278 389.263,-485.814 378.968,-483.312 379.655,-490.278"/>
</g>
<!-- Node36 -->
<g id="node36" class="node"><title>Node36</title>
<g id="a_node36"><a xlink:href="../../db/d9b/CalArray_8h.html" target="_top" xlink:title="TPCBase/CalArray.h">
<polygon fill="none" stroke="black" points="509.5,-528.5 509.5,-547.5 618.5,-547.5 618.5,-528.5 509.5,-528.5"/>
<text text-anchor="middle" x="564" y="-535.5" font-family="Helvetica,sans-Serif" font-size="10.00">TPCBase/CalArray.h</text>
</a>
</g>
</g>
<!-- Node1&#45;&gt;Node36 -->
<g id="edge55" class="edge"><title>Node1&#45;&gt;Node36</title>
<path fill="none" stroke="midnightblue" d="M569.89,-640.76C559.211,-630.633 548.675,-618.024 543,-604 536.557,-588.077 544.127,-569.364 551.916,-556.116"/>
<polygon fill="midnightblue" stroke="midnightblue" points="554.959,-557.856 557.429,-547.553 549.073,-554.066 554.959,-557.856"/>
</g>
<!-- Node42 -->
<g id="node42" class="node"><title>Node42</title>
<g id="a_node42"><a xlink:href="../../d8/d81/CalDet_8h.html" target="_top" xlink:title="TPCBase/CalDet.h">
<polygon fill="none" stroke="black" points="552.5,-584.5 552.5,-603.5 653.5,-603.5 653.5,-584.5 552.5,-584.5"/>
<text text-anchor="middle" x="603" y="-591.5" font-family="Helvetica,sans-Serif" font-size="10.00">TPCBase/CalDet.h</text>
</a>
</g>
</g>
<!-- Node1&#45;&gt;Node42 -->
<g id="edge64" class="edge"><title>Node1&#45;&gt;Node42</title>
<path fill="none" stroke="midnightblue" d="M603,-640.768C603,-631.89 603,-622.074 603,-613.816"/>
<polygon fill="midnightblue" stroke="midnightblue" points="606.5,-613.757 603,-603.757 599.5,-613.757 606.5,-613.757"/>
</g>
<!-- Node43 -->
<g id="node43" class="node"><title>Node43</title>
<polygon fill="none" stroke="#bfbfbf" points="938.5,-584.5 938.5,-603.5 985.5,-603.5 985.5,-584.5 938.5,-584.5"/>
<text text-anchor="middle" x="962" y="-591.5" font-family="Helvetica,sans-Serif" font-size="10.00">TFile.h</text>
</g>
<!-- Node1&#45;&gt;Node43 -->
<g id="edge75" class="edge"><title>Node1&#45;&gt;Node43</title>
<path fill="none" stroke="midnightblue" d="M667.641,-655.245C731.45,-644.28 831.96,-626.078 928.349,-604.001"/>
<polygon fill="midnightblue" stroke="midnightblue" points="929.306,-607.372 938.263,-601.712 927.732,-600.551 929.306,-607.372"/>
</g>
<!-- Node7&#45;&gt;Node4 -->
<g id="edge8" class="edge"><title>Node7&#45;&gt;Node4</title>
<path fill="none" stroke="midnightblue" d="M389.37,-476.551C321.777,-470.022 207.59,-456.371 171,-436 150.801,-424.754 134.273,-403.51 124.312,-388.37"/>
<polygon fill="midnightblue" stroke="midnightblue" points="127.263,-386.487 118.984,-379.876 121.333,-390.207 127.263,-386.487"/>
</g>
<!-- Node8 -->
<g id="node8" class="node"><title>Node8</title>
<polygon fill="none" stroke="#bfbfbf" points="321.5,-416.5 321.5,-435.5 356.5,-435.5 356.5,-416.5 321.5,-416.5"/>
<text text-anchor="middle" x="339" y="-423.5" font-family="Helvetica,sans-Serif" font-size="10.00">map</text>
</g>
<!-- Node7&#45;&gt;Node8 -->
<g id="edge7" class="edge"><title>Node7&#45;&gt;Node8</title>
<path fill="none" stroke="midnightblue" d="M424.612,-472.324C408.329,-463.703 383.133,-450.364 364.284,-440.386"/>
<polygon fill="midnightblue" stroke="midnightblue" points="365.823,-437.24 355.347,-435.655 362.548,-443.427 365.823,-437.24"/>
</g>
<!-- Node9 -->
<g id="node9" class="node"><title>Node9</title>
<polygon fill="none" stroke="#bfbfbf" points="375,-416.5 375,-435.5 413,-435.5 413,-416.5 375,-416.5"/>
<text text-anchor="middle" x="394" y="-423.5" font-family="Helvetica,sans-Serif" font-size="10.00">array</text>
</g>
<!-- Node7&#45;&gt;Node9 -->
<g id="edge9" class="edge"><title>Node7&#45;&gt;Node9</title>
<path fill="none" stroke="midnightblue" d="M433.239,-472.083C426.463,-464.298 416.457,-452.801 408.245,-443.367"/>
<polygon fill="midnightblue" stroke="midnightblue" points="410.822,-440.996 401.617,-435.751 405.542,-445.592 410.822,-440.996"/>
</g>
<!-- Node10 -->
<g id="node10" class="node"><title>Node10</title>
<polygon fill="none" stroke="#bfbfbf" points="1059.5,-416.5 1059.5,-435.5 1100.5,-435.5 1100.5,-416.5 1059.5,-416.5"/>
<text text-anchor="middle" x="1080" y="-423.5" font-family="Helvetica,sans-Serif" font-size="10.00">string</text>
</g>
<!-- Node7&#45;&gt;Node10 -->
<g id="edge10" class="edge"><title>Node7&#45;&gt;Node10</title>
<path fill="none" stroke="midnightblue" d="M492.548,-473.098C495.743,-472.7 498.913,-472.33 502,-472 742.497,-446.328 806.186,-474.281 1045,-436 1046.47,-435.764 1047.97,-435.495 1049.48,-435.2"/>
<polygon fill="midnightblue" stroke="midnightblue" points="1050.41,-438.577 1059.41,-432.972 1048.88,-431.747 1050.41,-438.577"/>
</g>
<!-- Node11 -->
<g id="node11" class="node"><title>Node11</title>
<polygon fill="none" stroke="#bfbfbf" points="531,-136.5 531,-155.5 575,-155.5 575,-136.5 531,-136.5"/>
<text text-anchor="middle" x="553" y="-143.5" font-family="Helvetica,sans-Serif" font-size="10.00">cmath</text>
</g>
<!-- Node7&#45;&gt;Node11 -->
<g id="edge11" class="edge"><title>Node7&#45;&gt;Node11</title>
<path fill="none" stroke="midnightblue" d="M389.115,-478.953C272.54,-472.943 0,-450.401 0,-371 0,-371 0,-371 0,-257 0,-150.091 402.6,-145.538 520.766,-146.504"/>
<polygon fill="midnightblue" stroke="midnightblue" points="520.945,-150.006 530.98,-146.608 521.017,-143.007 520.945,-150.006"/>
</g>
<!-- Node12 -->
<g id="node12" class="node"><title>Node12</title>
<g id="a_node12"><a xlink:href="../../d1/d73/Defs_8h.html" target="_top" xlink:title="Common definitions for 2D coordinates. ">
<polygon fill="none" stroke="black" points="768,-192.5 768,-211.5 860,-211.5 860,-192.5 768,-192.5"/>
<text text-anchor="middle" x="814" y="-199.5" font-family="Helvetica,sans-Serif" font-size="10.00">TPCBase/Defs.h</text>
</a>
</g>
</g>
<!-- Node7&#45;&gt;Node12 -->
<g id="edge12" class="edge"><title>Node7&#45;&gt;Node12</title>
<path fill="none" stroke="midnightblue" d="M492.552,-473.135C495.746,-472.728 498.915,-472.346 502,-472 605.879,-460.364 872.481,-470.933 971,-436 1012.25,-421.373 1031.68,-418.76 1052,-380 1080.65,-325.356 1056.92,-286.867 1009,-248 987.921,-230.903 919.94,-217.914 870.157,-210.386"/>
<polygon fill="midnightblue" stroke="midnightblue" points="870.553,-206.907 860.149,-208.909 869.53,-213.832 870.553,-206.907"/>
</g>
<!-- Node25 -->
<g id="node25" class="node"><title>Node25</title>
<g id="a_node25"><a xlink:href="../../de/d41/PadPos_8h.html" target="_top" xlink:title="TPCBase/PadPos.h">
<polygon fill="none" stroke="black" points="526.5,-304.5 526.5,-323.5 631.5,-323.5 631.5,-304.5 526.5,-304.5"/>
<text text-anchor="middle" x="579" y="-311.5" font-family="Helvetica,sans-Serif" font-size="10.00">TPCBase/PadPos.h</text>
</a>
</g>
</g>
<!-- Node7&#45;&gt;Node25 -->
<g id="edge27" class="edge"><title>Node7&#45;&gt;Node25</title>
<path fill="none" stroke="midnightblue" d="M484.761,-472.429C533.053,-462.531 605.054,-446.292 613,-436 630.385,-413.482 592.513,-406.434 582,-380 576.188,-365.386 575.81,-347.444 576.675,-334.115"/>
<polygon fill="midnightblue" stroke="midnightblue" points="580.194,-334.074 577.649,-323.789 573.225,-333.416 580.194,-334.074"/>
</g>
<!-- Node26 -->
<g id="node26" class="node"><title>Node26</title>
<g id="a_node26"><a xlink:href="../../dd/d0b/PadSecPos_8h.html" target="_top" xlink:title="TPCBase/PadSecPos.h">
<polygon fill="none" stroke="black" points="903,-360.5 903,-379.5 1025,-379.5 1025,-360.5 903,-360.5"/>
<text text-anchor="middle" x="964" y="-367.5" font-family="Helvetica,sans-Serif" font-size="10.00">TPCBase/PadSecPos.h</text>
</a>
</g>
</g>
<!-- Node7&#45;&gt;Node26 -->
<g id="edge28" class="edge"><title>Node7&#45;&gt;Node26</title>
<path fill="none" stroke="midnightblue" d="M492.567,-473.259C495.757,-472.821 498.921,-472.398 502,-472 645.69,-453.423 686.575,-475.403 826,-436 868.444,-424.005 914.07,-400.106 940.774,-384.869"/>
<polygon fill="midnightblue" stroke="midnightblue" points="942.819,-387.729 949.715,-379.685 939.308,-381.673 942.819,-387.729"/>
</g>
<!-- Node27 -->
<g id="node27" class="node"><title>Node27</title>
<g id="a_node27"><a xlink:href="../../d3/dd6/Sector_8h.html" target="_top" xlink:title="TPCBase/Sector.h">
<polygon fill="none" stroke="black" points="901.5,-248.5 901.5,-267.5 1000.5,-267.5 1000.5,-248.5 901.5,-248.5"/>
<text text-anchor="middle" x="951" y="-255.5" font-family="Helvetica,sans-Serif" font-size="10.00">TPCBase/Sector.h</text>
</a>
</g>
</g>
<!-- Node7&#45;&gt;Node27 -->
<g id="edge54" class="edge"><title>Node7&#45;&gt;Node27</title>
<path fill="none" stroke="midnightblue" d="M492.561,-473.215C495.753,-472.788 498.919,-472.379 502,-472 621.077,-457.336 963.848,-477.33 1034,-380 1061.37,-342.032 1006.7,-296.239 973.654,-273.408"/>
<polygon fill="midnightblue" stroke="midnightblue" points="975.248,-270.263 964.993,-267.604 971.351,-276.078 975.248,-270.263"/>
</g>
<!-- Node29 -->
<g id="node29" class="node"><title>Node29</title>
<g id="a_node29"><a xlink:href="../../da/d61/PadROCPos_8h.html" target="_top" xlink:title="TPCBase/PadROCPos.h">
<polygon fill="none" stroke="black" points="607,-360.5 607,-379.5 735,-379.5 735,-360.5 607,-360.5"/>
<text text-anchor="middle" x="671" y="-367.5" font-family="Helvetica,sans-Serif" font-size="10.00">TPCBase/PadROCPos.h</text>
</a>
</g>
</g>
<!-- Node7&#45;&gt;Node29 -->
<g id="edge33" class="edge"><title>Node7&#45;&gt;Node29</title>
<path fill="none" stroke="midnightblue" d="M492.162,-472.459C549.293,-462.512 635.332,-446.153 647,-436 660.451,-424.296 666.371,-404.356 668.972,-389.64"/>
<polygon fill="midnightblue" stroke="midnightblue" points="672.453,-390.018 670.384,-379.628 665.522,-389.041 672.453,-390.018"/>
</g>
<!-- Node31 -->
<g id="node31" class="node"><title>Node31</title>
<g id="a_node31"><a xlink:href="../../d3/d54/DigitPos_8h.html" target="_top" xlink:title="TPCBase/DigitPos.h">
<polygon fill="none" stroke="black" points="709,-416.5 709,-435.5 817,-435.5 817,-416.5 709,-416.5"/>
<text text-anchor="middle" x="763" y="-423.5" font-family="Helvetica,sans-Serif" font-size="10.00">TPCBase/DigitPos.h</text>
</a>
</g>
</g>
<!-- Node7&#45;&gt;Node31 -->
<g id="edge39" class="edge"><title>Node7&#45;&gt;Node31</title>
<path fill="none" stroke="midnightblue" d="M492.022,-472.444C549.018,-462.885 641.239,-447.419 702,-437.23"/>
<polygon fill="midnightblue" stroke="midnightblue" points="702.933,-440.622 712.217,-435.516 701.776,-433.719 702.933,-440.622"/>
</g>
<!-- Node33 -->
<g id="node33" class="node"><title>Node33</title>
<g id="a_node33"><a xlink:href="../../d1/d1f/FECInfo_8h.html" target="_top" xlink:title="TPCBase/FECInfo.h">
<polygon fill="none" stroke="black" points="303.5,-248.5 303.5,-267.5 410.5,-267.5 410.5,-248.5 303.5,-248.5"/>
<text text-anchor="middle" x="357" y="-255.5" font-family="Helvetica,sans-Serif" font-size="10.00">TPCBase/FECInfo.h</text>
</a>
</g>
</g>
<!-- Node7&#45;&gt;Node33 -->
<g id="edge47" class="edge"><title>Node7&#45;&gt;Node33</title>
<path fill="none" stroke="midnightblue" d="M438.828,-472.493C435.565,-459.987 429.027,-435.962 422,-416 403.942,-364.698 378.183,-305.863 365.18,-276.951"/>
<polygon fill="midnightblue" stroke="midnightblue" points="368.315,-275.391 361.004,-267.723 361.938,-278.276 368.315,-275.391"/>
</g>
<!-- Node34 -->
<g id="node34" class="node"><title>Node34</title>
<g id="a_node34"><a xlink:href="../../da/d9d/PadRegionInfo_8h.html" target="_top" xlink:title="TPCBase/PadRegionInfo.h">
<polygon fill="none" stroke="black" points="469.5,-416.5 469.5,-435.5 604.5,-435.5 604.5,-416.5 469.5,-416.5"/>
<text text-anchor="middle" x="537" y="-423.5" font-family="Helvetica,sans-Serif" font-size="10.00">TPCBase/PadRegionInfo.h</text>
</a>
</g>
</g>
<!-- Node7&#45;&gt;Node34 -->
<g id="edge49" class="edge"><title>Node7&#45;&gt;Node34</title>
<path fill="none" stroke="midnightblue" d="M456.424,-472.324C471.54,-463.822 494.815,-450.729 512.471,-440.797"/>
<polygon fill="midnightblue" stroke="midnightblue" points="514.614,-443.608 521.614,-435.655 511.183,-437.507 514.614,-443.608"/>
</g>
<!-- Node35 -->
<g id="node35" class="node"><title>Node35</title>
<g id="a_node35"><a xlink:href="../../d6/d42/PartitionInfo_8h.html" target="_top" xlink:title="TPCBase/PartitionInfo.h">
<polygon fill="none" stroke="black" points="180.5,-416.5 180.5,-435.5 303.5,-435.5 303.5,-416.5 180.5,-416.5"/>
<text text-anchor="middle" x="242" y="-423.5" font-family="Helvetica,sans-Serif" font-size="10.00">TPCBase/PartitionInfo.h</text>
</a>
</g>
</g>
<!-- Node7&#45;&gt;Node35 -->
<g id="edge53" class="edge"><title>Node7&#45;&gt;Node35</title>
<path fill="none" stroke="midnightblue" d="M409.468,-472.444C375.408,-463.201 320.994,-448.436 283.485,-438.257"/>
<polygon fill="midnightblue" stroke="midnightblue" points="283.952,-434.758 273.385,-435.516 282.119,-441.513 283.952,-434.758"/>
</g>
<!-- Node12&#45;&gt;Node11 -->
<g id="edge13" class="edge"><title>Node12&#45;&gt;Node11</title>
<path fill="none" stroke="midnightblue" d="M772.644,-192.444C720.66,-181.688 632.528,-163.454 585.25,-153.672"/>
<polygon fill="midnightblue" stroke="midnightblue" points="585.759,-150.204 575.257,-151.605 584.341,-157.058 585.759,-150.204"/>
</g>
<!-- Node13 -->
<g id="node13" class="node"><title>Node13</title>
<g id="a_node13"><a xlink:href="../../d2/dd0/Cartesian2D_8h.html" target="_top" xlink:title="MathUtils/Cartesian2D.h">
<polygon fill="none" stroke="black" points="1439.5,-74.5 1439.5,-93.5 1564.5,-93.5 1564.5,-74.5 1439.5,-74.5"/>
<text text-anchor="middle" x="1502" y="-81.5" font-family="Helvetica,sans-Serif" font-size="10.00">MathUtils/Cartesian2D.h</text>
</a>
</g>
</g>
<!-- Node12&#45;&gt;Node13 -->
<g id="edge14" class="edge"><title>Node12&#45;&gt;Node13</title>
<path fill="none" stroke="midnightblue" d="M860.096,-194.134C962.718,-178.696 1217.71,-139.498 1430,-100 1437.33,-98.6359 1445.07,-97.1134 1452.64,-95.5759"/>
<polygon fill="midnightblue" stroke="midnightblue" points="1453.36,-99.0008 1462.45,-93.558 1451.95,-92.1443 1453.36,-99.0008"/>
</g>
<!-- Node16 -->
<g id="node16" class="node"><title>Node16</title>
<g id="a_node16"><a xlink:href="../../dd/d76/Cartesian3D_8h.html" target="_top" xlink:title="MathUtils/Cartesian3D.h">
<polygon fill="none" stroke="black" points="751.5,-136.5 751.5,-155.5 876.5,-155.5 876.5,-136.5 751.5,-136.5"/>
<text text-anchor="middle" x="814" y="-143.5" font-family="Helvetica,sans-Serif" font-size="10.00">MathUtils/Cartesian3D.h</text>
</a>
</g>
</g>
<!-- Node12&#45;&gt;Node16 -->
<g id="edge17" class="edge"><title>Node12&#45;&gt;Node16</title>
<path fill="none" stroke="midnightblue" d="M814,-192.083C814,-185.006 814,-174.861 814,-165.986"/>
<polygon fill="midnightblue" stroke="midnightblue" points="817.5,-165.751 814,-155.751 810.5,-165.751 817.5,-165.751"/>
</g>
<!-- Node14 -->
<g id="node14" class="node"><title>Node14</title>
<polygon fill="none" stroke="#bfbfbf" points="1335.5,-1 1335.5,-31 1486.5,-31 1486.5,-1 1335.5,-1"/>
<text text-anchor="start" x="1343.5" y="-19" font-family="Helvetica,sans-Serif" font-size="10.00">Math/GenVector/Displacement</text>
<text text-anchor="middle" x="1411" y="-8" font-family="Helvetica,sans-Serif" font-size="10.00">Vector2D.h</text>
</g>
<!-- Node13&#45;&gt;Node14 -->
<g id="edge15" class="edge"><title>Node13&#45;&gt;Node14</title>
<path fill="none" stroke="midnightblue" d="M1490.1,-74.3717C1477.22,-65.0286 1456.22,-49.7966 1439.09,-37.375"/>
<polygon fill="midnightblue" stroke="midnightblue" points="1440.7,-34.2194 1430.55,-31.1815 1436.59,-39.8859 1440.7,-34.2194"/>
</g>
<!-- Node15 -->
<g id="node15" class="node"><title>Node15</title>
<polygon fill="none" stroke="#bfbfbf" points="1505,-6.5 1505,-25.5 1681,-25.5 1681,-6.5 1505,-6.5"/>
<text text-anchor="middle" x="1593" y="-13.5" font-family="Helvetica,sans-Serif" font-size="10.00">Math/GenVector/PositionVector2D.h</text>
</g>
<!-- Node13&#45;&gt;Node15 -->
<g id="edge16" class="edge"><title>Node13&#45;&gt;Node15</title>
<path fill="none" stroke="midnightblue" d="M1513.9,-74.3717C1528.88,-63.5015 1554.86,-44.6602 1572.94,-31.5474"/>
<polygon fill="midnightblue" stroke="midnightblue" points="1575.06,-34.3349 1581.1,-25.6305 1570.95,-28.6684 1575.06,-34.3349"/>
</g>
<!-- Node16&#45;&gt;Node13 -->
<g id="edge26" class="edge"><title>Node16&#45;&gt;Node13</title>
<path fill="none" stroke="midnightblue" d="M876.81,-143.158C988.552,-139.272 1229.03,-128.149 1430,-100 1438.36,-98.8289 1447.21,-97.2619 1455.73,-95.5818"/>
<polygon fill="midnightblue" stroke="midnightblue" points="1456.44,-99.0088 1465.54,-93.5745 1455.04,-92.151 1456.44,-99.0088"/>
</g>
<!-- Node17 -->
<g id="node17" class="node"><title>Node17</title>
<polygon fill="none" stroke="#bfbfbf" points="556.5,-69 556.5,-99 707.5,-99 707.5,-69 556.5,-69"/>
<text text-anchor="start" x="564.5" y="-87" font-family="Helvetica,sans-Serif" font-size="10.00">Math/GenVector/Displacement</text>
<text text-anchor="middle" x="632" y="-76" font-family="Helvetica,sans-Serif" font-size="10.00">Vector3D.h</text>
</g>
<!-- Node16&#45;&gt;Node17 -->
<g id="edge18" class="edge"><title>Node16&#45;&gt;Node17</title>
<path fill="none" stroke="midnightblue" d="M787.924,-136.403C760.997,-127.526 718.244,-113.432 684.311,-102.245"/>
<polygon fill="midnightblue" stroke="midnightblue" points="685.137,-98.8323 674.543,-99.0253 682.945,-105.48 685.137,-98.8323"/>
</g>
<!-- Node18 -->
<g id="node18" class="node"><title>Node18</title>
<polygon fill="none" stroke="#bfbfbf" points="726,-74.5 726,-93.5 902,-93.5 902,-74.5 726,-74.5"/>
<text text-anchor="middle" x="814" y="-81.5" font-family="Helvetica,sans-Serif" font-size="10.00">Math/GenVector/PositionVector3D.h</text>
</g>
<!-- Node16&#45;&gt;Node18 -->
<g id="edge19" class="edge"><title>Node16&#45;&gt;Node18</title>
<path fill="none" stroke="midnightblue" d="M814,-136.403C814,-127.938 814,-114.728 814,-103.82"/>
<polygon fill="midnightblue" stroke="midnightblue" points="817.5,-103.581 814,-93.5806 810.5,-103.581 817.5,-103.581"/>
</g>
<!-- Node19 -->
<g id="node19" class="node"><title>Node19</title>
<polygon fill="none" stroke="#bfbfbf" points="919.5,-74.5 919.5,-93.5 1068.5,-93.5 1068.5,-74.5 919.5,-74.5"/>
<text text-anchor="middle" x="994" y="-81.5" font-family="Helvetica,sans-Serif" font-size="10.00">Math/GenVector/Rotation3D.h</text>
</g>
<!-- Node16&#45;&gt;Node19 -->
<g id="edge20" class="edge"><title>Node16&#45;&gt;Node19</title>
<path fill="none" stroke="midnightblue" d="M839.79,-136.403C870.933,-126.022 923.481,-108.506 958.453,-96.849"/>
<polygon fill="midnightblue" stroke="midnightblue" points="959.878,-100.063 968.258,-93.5806 957.665,-93.4225 959.878,-100.063"/>
</g>
<!-- Node20 -->
<g id="node20" class="node"><title>Node20</title>
<polygon fill="none" stroke="#bfbfbf" points="1087,-74.5 1087,-93.5 1243,-93.5 1243,-74.5 1087,-74.5"/>
<text text-anchor="middle" x="1165" y="-81.5" font-family="Helvetica,sans-Serif" font-size="10.00">Math/GenVector/Transform3D.h</text>
</g>
<!-- Node16&#45;&gt;Node20 -->
<g id="edge21" class="edge"><title>Node16&#45;&gt;Node20</title>
<path fill="none" stroke="midnightblue" d="M863.917,-136.467C927.466,-125.604 1037.15,-106.855 1105.13,-95.2346"/>
<polygon fill="midnightblue" stroke="midnightblue" points="1105.99,-98.6384 1115.26,-93.5034 1104.81,-91.7385 1105.99,-98.6384"/>
</g>
<!-- Node21 -->
<g id="node21" class="node"><title>Node21</title>
<polygon fill="none" stroke="#bfbfbf" points="1261,-74.5 1261,-93.5 1421,-93.5 1421,-74.5 1261,-74.5"/>
<text text-anchor="middle" x="1341" y="-81.5" font-family="Helvetica,sans-Serif" font-size="10.00">Math/GenVector/Translation3D.h</text>
</g>
<!-- Node16&#45;&gt;Node21 -->
<g id="edge22" class="edge"><title>Node16&#45;&gt;Node21</title>
<path fill="none" stroke="midnightblue" d="M876.528,-139.855C961.652,-132.56 1118.68,-118.064 1252,-100 1262.35,-98.597 1273.35,-96.907 1283.96,-95.1748"/>
<polygon fill="midnightblue" stroke="midnightblue" points="1284.68,-98.6027 1293.97,-93.5092 1283.53,-91.6975 1284.68,-98.6027"/>
</g>
<!-- Node22 -->
<g id="node22" class="node"><title>Node22</title>
<polygon fill="none" stroke="#bfbfbf" points="388,-74.5 388,-93.5 444,-93.5 444,-74.5 388,-74.5"/>
<text text-anchor="middle" x="416" y="-81.5" font-family="Helvetica,sans-Serif" font-size="10.00">Rtypes.h</text>
</g>
<!-- Node16&#45;&gt;Node22 -->
<g id="edge23" class="edge"><title>Node16&#45;&gt;Node22</title>
<path fill="none" stroke="midnightblue" d="M751.432,-142.157C678.7,-137.719 555.534,-126.683 453,-100 450.011,-99.2221 446.941,-98.2605 443.909,-97.2027"/>
<polygon fill="midnightblue" stroke="midnightblue" points="445.091,-93.9075 434.501,-93.6033 442.59,-100.445 445.091,-93.9075"/>
</g>
<!-- Node23 -->
<g id="node23" class="node"><title>Node23</title>
<polygon fill="none" stroke="#bfbfbf" points="462,-74.5 462,-93.5 538,-93.5 538,-74.5 462,-74.5"/>
<text text-anchor="middle" x="500" y="-81.5" font-family="Helvetica,sans-Serif" font-size="10.00">TGeoMatrix.h</text>
</g>
<!-- Node16&#45;&gt;Node23 -->
<g id="edge24" class="edge"><title>Node16&#45;&gt;Node23</title>
<path fill="none" stroke="midnightblue" d="M751.449,-137.018C697.013,-129.465 616.21,-116.787 547,-100 542.88,-99.0006 538.596,-97.8269 534.365,-96.5837"/>
<polygon fill="midnightblue" stroke="midnightblue" points="535.28,-93.2034 524.693,-93.6058 533.221,-99.8935 535.28,-93.2034"/>
</g>
<!-- Node24 -->
<g id="node24" class="node"><title>Node24</title>
<polygon fill="none" stroke="#bfbfbf" points="316,-74.5 316,-93.5 370,-93.5 370,-74.5 316,-74.5"/>
<text text-anchor="middle" x="343" y="-81.5" font-family="Helvetica,sans-Serif" font-size="10.00">iostream</text>
</g>
<!-- Node16&#45;&gt;Node24 -->
<g id="edge25" class="edge"><title>Node16&#45;&gt;Node24</title>
<path fill="none" stroke="midnightblue" d="M751.414,-144.218C665.994,-141.871 508.691,-132.969 379,-100 376.012,-99.2405 372.948,-98.2766 369.93,-97.2052"/>
<polygon fill="midnightblue" stroke="midnightblue" points="371.18,-93.9358 360.593,-93.5342 368.619,-100.45 371.18,-93.9358"/>
</g>
<!-- Node26&#45;&gt;Node25 -->
<g id="edge32" class="edge"><title>Node26&#45;&gt;Node25</title>
<path fill="none" stroke="midnightblue" d="M902.996,-360.444C831.657,-350.438 714.167,-333.958 641.987,-323.834"/>
<polygon fill="midnightblue" stroke="midnightblue" points="642.066,-320.311 631.677,-322.388 641.094,-327.244 642.066,-320.311"/>
</g>
<!-- Node26&#45;&gt;Node27 -->
<g id="edge29" class="edge"><title>Node26&#45;&gt;Node27</title>
<path fill="none" stroke="midnightblue" d="M965.063,-360.106C966.356,-347.528 968.018,-323.861 965,-304 963.632,-295.001 960.81,-285.325 958.055,-277.26"/>
<polygon fill="midnightblue" stroke="midnightblue" points="961.312,-275.976 954.6,-267.778 954.735,-278.372 961.312,-275.976"/>
</g>
<!-- Node27&#45;&gt;Node12 -->
<g id="edge31" class="edge"><title>Node27&#45;&gt;Node12</title>
<path fill="none" stroke="midnightblue" d="M929.292,-248.444C906.645,-239.517 870.928,-225.439 845.248,-215.317"/>
<polygon fill="midnightblue" stroke="midnightblue" points="846.193,-211.927 835.606,-211.516 843.626,-218.44 846.193,-211.927"/>
</g>
<!-- Node28 -->
<g id="node28" class="node"><title>Node28</title>
<g id="a_node28"><a xlink:href="../../d6/d51/TPC_2base_2include_2TPCBase_2Constants_8h.html" target="_top" xlink:title="TPCBase/Constants.h">
<polygon fill="none" stroke="black" points="893,-192.5 893,-211.5 1009,-211.5 1009,-192.5 893,-192.5"/>
<text text-anchor="middle" x="951" y="-199.5" font-family="Helvetica,sans-Serif" font-size="10.00">TPCBase/Constants.h</text>
</a>
</g>
</g>
<!-- Node27&#45;&gt;Node28 -->
<g id="edge30" class="edge"><title>Node27&#45;&gt;Node28</title>
<path fill="none" stroke="midnightblue" d="M951,-248.083C951,-241.006 951,-230.861 951,-221.986"/>
<polygon fill="midnightblue" stroke="midnightblue" points="954.5,-221.751 951,-211.751 947.5,-221.751 954.5,-221.751"/>
</g>
<!-- Node29&#45;&gt;Node12 -->
<g id="edge34" class="edge"><title>Node29&#45;&gt;Node12</title>
<path fill="none" stroke="midnightblue" d="M675.109,-360.277C685.345,-339.182 713.72,-284.462 749,-248 760.827,-235.777 776.435,-224.843 789.392,-216.814"/>
<polygon fill="midnightblue" stroke="midnightblue" points="791.482,-219.642 798.266,-211.504 787.888,-213.635 791.482,-219.642"/>
</g>
<!-- Node29&#45;&gt;Node25 -->
<g id="edge38" class="edge"><title>Node29&#45;&gt;Node25</title>
<path fill="none" stroke="midnightblue" d="M656.219,-360.324C641.733,-351.822 619.427,-338.729 602.507,-328.797"/>
<polygon fill="midnightblue" stroke="midnightblue" points="604.141,-325.698 593.745,-323.655 600.597,-331.735 604.141,-325.698"/>
</g>
<!-- Node30 -->
<g id="node30" class="node"><title>Node30</title>
<g id="a_node30"><a xlink:href="../../dc/d14/ROC_8h.html" target="_top" xlink:title="TPCBase/ROC.h">
<polygon fill="none" stroke="black" points="829.5,-304.5 829.5,-323.5 922.5,-323.5 922.5,-304.5 829.5,-304.5"/>
<text text-anchor="middle" x="876" y="-311.5" font-family="Helvetica,sans-Serif" font-size="10.00">TPCBase/ROC.h</text>
</a>
</g>
</g>
<!-- Node29&#45;&gt;Node30 -->
<g id="edge35" class="edge"><title>Node29&#45;&gt;Node30</title>
<path fill="none" stroke="midnightblue" d="M703.483,-360.444C738.72,-351.162 795.104,-336.309 833.759,-326.127"/>
<polygon fill="midnightblue" stroke="midnightblue" points="834.891,-329.448 843.669,-323.516 833.107,-322.679 834.891,-329.448"/>
</g>
<!-- Node30&#45;&gt;Node12 -->
<g id="edge36" class="edge"><title>Node30&#45;&gt;Node12</title>
<path fill="none" stroke="midnightblue" d="M871.135,-304.368C860.948,-286.296 837.209,-244.176 823.755,-220.307"/>
<polygon fill="midnightblue" stroke="midnightblue" points="826.802,-218.584 818.842,-211.591 820.704,-222.022 826.802,-218.584"/>
</g>
<!-- Node30&#45;&gt;Node27 -->
<g id="edge37" class="edge"><title>Node30&#45;&gt;Node27</title>
<path fill="none" stroke="midnightblue" d="M888.05,-304.324C899.463,-296.107 916.831,-283.602 930.435,-273.807"/>
<polygon fill="midnightblue" stroke="midnightblue" points="932.66,-276.517 938.731,-267.834 928.57,-270.837 932.66,-276.517"/>
</g>
<!-- Node31&#45;&gt;Node12 -->
<g id="edge40" class="edge"><title>Node31&#45;&gt;Node12</title>
<path fill="none" stroke="midnightblue" d="M764.999,-416.297C772.519,-383.563 799.211,-267.375 809.712,-221.666"/>
<polygon fill="midnightblue" stroke="midnightblue" points="813.131,-222.414 811.959,-211.884 806.309,-220.846 813.131,-222.414"/>
</g>
<!-- Node31&#45;&gt;Node25 -->
<g id="edge45" class="edge"><title>Node31&#45;&gt;Node25</title>
<path fill="none" stroke="midnightblue" d="M708.783,-423.431C672.898,-419.543 627.235,-408.71 598,-380 585.821,-368.04 581.345,-348.739 579.752,-334.27"/>
<polygon fill="midnightblue" stroke="midnightblue" points="583.217,-333.656 579.001,-323.936 576.235,-334.163 583.217,-333.656"/>
</g>
<!-- Node31&#45;&gt;Node26 -->
<g id="edge46" class="edge"><title>Node31&#45;&gt;Node26</title>
<path fill="none" stroke="midnightblue" d="M794.849,-416.444C829.398,-407.162 884.682,-392.309 922.583,-382.127"/>
<polygon fill="midnightblue" stroke="midnightblue" points="923.551,-385.491 932.3,-379.516 921.734,-378.731 923.551,-385.491"/>
</g>
<!-- Node32 -->
<g id="node32" class="node"><title>Node32</title>
<g id="a_node32"><a xlink:href="../../df/d26/CRU_8h.html" target="_top" xlink:title="TPCBase/CRU.h">
<polygon fill="none" stroke="black" points="791.5,-360.5 791.5,-379.5 884.5,-379.5 884.5,-360.5 791.5,-360.5"/>
<text text-anchor="middle" x="838" y="-367.5" font-family="Helvetica,sans-Serif" font-size="10.00">TPCBase/CRU.h</text>
</a>
</g>
</g>
<!-- Node31&#45;&gt;Node32 -->
<g id="edge41" class="edge"><title>Node31&#45;&gt;Node32</title>
<path fill="none" stroke="midnightblue" d="M775.05,-416.324C786.463,-408.107 803.831,-395.602 817.435,-385.807"/>
<polygon fill="midnightblue" stroke="midnightblue" points="819.66,-388.517 825.731,-379.834 815.57,-382.837 819.66,-388.517"/>
</g>
<!-- Node32&#45;&gt;Node12 -->
<g id="edge42" class="edge"><title>Node32&#45;&gt;Node12</title>
<path fill="none" stroke="midnightblue" d="M833.517,-360.311C829.186,-351.443 822.873,-337.153 820,-324 812.248,-288.506 812.226,-245.822 813.031,-221.81"/>
<polygon fill="midnightblue" stroke="midnightblue" points="816.536,-221.776 813.463,-211.636 809.542,-221.479 816.536,-221.776"/>
</g>
<!-- Node32&#45;&gt;Node27 -->
<g id="edge43" class="edge"><title>Node32&#45;&gt;Node27</title>
<path fill="none" stroke="midnightblue" d="M871.016,-360.354C890.967,-353.541 915.462,-342.102 931,-324 942.165,-310.992 947.099,-291.832 949.278,-277.682"/>
<polygon fill="midnightblue" stroke="midnightblue" points="952.769,-277.97 950.502,-267.621 945.82,-277.125 952.769,-277.97"/>
</g>
<!-- Node32&#45;&gt;Node30 -->
<g id="edge44" class="edge"><title>Node32&#45;&gt;Node30</title>
<path fill="none" stroke="midnightblue" d="M844.275,-360.083C849.642,-352.455 857.518,-341.264 864.079,-331.941"/>
<polygon fill="midnightblue" stroke="midnightblue" points="866.949,-333.943 869.842,-323.751 861.225,-329.915 866.949,-333.943"/>
</g>
<!-- Node33&#45;&gt;Node24 -->
<g id="edge48" class="edge"><title>Node33&#45;&gt;Node24</title>
<path fill="none" stroke="midnightblue" d="M356.286,-248.234C354.114,-221.548 347.548,-140.877 344.538,-103.893"/>
<polygon fill="midnightblue" stroke="midnightblue" points="347.995,-103.227 343.695,-93.5442 341.018,-103.795 347.995,-103.227"/>
</g>
<!-- Node34&#45;&gt;Node4 -->
<g id="edge50" class="edge"><title>Node34&#45;&gt;Node4</title>
<path fill="none" stroke="midnightblue" d="M469.974,-416.444C377.764,-404.672 215.371,-383.941 146.423,-375.139"/>
<polygon fill="midnightblue" stroke="midnightblue" points="146.548,-371.627 136.185,-373.832 145.661,-378.57 146.548,-371.627"/>
</g>
<!-- Node34&#45;&gt;Node12 -->
<g id="edge51" class="edge"><title>Node34&#45;&gt;Node12</title>
<path fill="none" stroke="midnightblue" d="M531.729,-416.422C519.426,-395.182 491.709,-339.313 517,-304 571.745,-227.559 687.72,-208.285 757.446,-203.838"/>
<polygon fill="midnightblue" stroke="midnightblue" points="758.013,-207.312 767.804,-203.264 757.626,-200.322 758.013,-207.312"/>
</g>
<!-- Node34&#45;&gt;Node25 -->
<g id="edge52" class="edge"><title>Node34&#45;&gt;Node25</title>
<path fill="none" stroke="midnightblue" d="M532.62,-416.157C526.871,-403.233 518.457,-378.692 527,-360 532.777,-347.36 544.052,-336.911 554.631,-329.274"/>
<polygon fill="midnightblue" stroke="midnightblue" points="556.849,-332.001 563.217,-323.533 552.958,-326.182 556.849,-332.001"/>
</g>
<!-- Node36&#45;&gt;Node4 -->
<g id="edge58" class="edge"><title>Node36&#45;&gt;Node4</title>
<path fill="none" stroke="midnightblue" d="M509.203,-529.837C408.62,-515.737 199.727,-481.731 144,-436 129.76,-424.314 121.952,-404.371 117.903,-389.649"/>
<polygon fill="midnightblue" stroke="midnightblue" points="121.235,-388.537 115.494,-379.633 114.429,-390.174 121.235,-388.537"/>
</g>
<!-- Node36&#45;&gt;Node7 -->
<g id="edge63" class="edge"><title>Node36&#45;&gt;Node7</title>
<path fill="none" stroke="midnightblue" d="M544.51,-528.444C524.358,-519.596 492.677,-505.687 469.669,-495.586"/>
<polygon fill="midnightblue" stroke="midnightblue" points="470.962,-492.332 460.399,-491.516 468.148,-498.741 470.962,-492.332"/>
</g>
<!-- Node36&#45;&gt;Node10 -->
<g id="edge59" class="edge"><title>Node36&#45;&gt;Node10</title>
<path fill="none" stroke="midnightblue" d="M566.216,-528.447C570.455,-514.006 581.198,-485.083 602,-472 685.608,-419.416 947.595,-452.358 1045,-436 1046.47,-435.753 1047.97,-435.475 1049.48,-435.173"/>
<polygon fill="midnightblue" stroke="midnightblue" points="1050.42,-438.547 1059.4,-432.92 1048.87,-431.721 1050.42,-438.547"/>
</g>
<!-- Node37 -->
<g id="node37" class="node"><title>Node37</title>
<polygon fill="none" stroke="#bfbfbf" points="511,-472.5 511,-491.5 555,-491.5 555,-472.5 511,-472.5"/>
<text text-anchor="middle" x="533" y="-479.5" font-family="Helvetica,sans-Serif" font-size="10.00">Vc/Vc</text>
</g>
<!-- Node36&#45;&gt;Node37 -->
<g id="edge56" class="edge"><title>Node36&#45;&gt;Node37</title>
<path fill="none" stroke="midnightblue" d="M558.881,-528.083C554.592,-520.613 548.342,-509.724 543.058,-500.52"/>
<polygon fill="midnightblue" stroke="midnightblue" points="546.038,-498.681 538.024,-491.751 539.967,-502.166 546.038,-498.681"/>
</g>
<!-- Node38 -->
<g id="node38" class="node"><title>Node38</title>
<polygon fill="none" stroke="#bfbfbf" points="701,-472.5 701,-491.5 753,-491.5 753,-472.5 701,-472.5"/>
<text text-anchor="middle" x="727" y="-479.5" font-family="Helvetica,sans-Serif" font-size="10.00">memory</text>
</g>
<!-- Node36&#45;&gt;Node38 -->
<g id="edge57" class="edge"><title>Node36&#45;&gt;Node38</title>
<path fill="none" stroke="midnightblue" d="M589.828,-528.444C617.249,-519.359 660.777,-504.939 691.432,-494.783"/>
<polygon fill="midnightblue" stroke="midnightblue" points="692.901,-497.984 701.293,-491.516 690.7,-491.339 692.901,-497.984"/>
</g>
<!-- Node39 -->
<g id="node39" class="node"><title>Node39</title>
<polygon fill="none" stroke="#bfbfbf" points="104,-472.5 104,-491.5 166,-491.5 166,-472.5 104,-472.5"/>
<text text-anchor="middle" x="135" y="-479.5" font-family="Helvetica,sans-Serif" font-size="10.00">type_traits</text>
</g>
<!-- Node36&#45;&gt;Node39 -->
<g id="edge60" class="edge"><title>Node36&#45;&gt;Node39</title>
<path fill="none" stroke="midnightblue" d="M509.44,-532.006C434.818,-524.857 296.849,-510.501 180,-492 178.898,-491.826 177.783,-491.643 176.658,-491.455"/>
<polygon fill="midnightblue" stroke="midnightblue" points="176.874,-487.938 166.413,-489.619 175.639,-494.828 176.874,-487.938"/>
</g>
<!-- Node40 -->
<g id="node40" class="node"><title>Node40</title>
<polygon fill="none" stroke="#bfbfbf" points="771,-472.5 771,-491.5 861,-491.5 861,-472.5 771,-472.5"/>
<text text-anchor="middle" x="816" y="-479.5" font-family="Helvetica,sans-Serif" font-size="10.00">boost/format.hpp</text>
</g>
<!-- Node36&#45;&gt;Node40 -->
<g id="edge61" class="edge"><title>Node36&#45;&gt;Node40</title>
<path fill="none" stroke="midnightblue" d="M603.93,-528.444C647.891,-519.023 718.627,-503.866 766.183,-493.675"/>
<polygon fill="midnightblue" stroke="midnightblue" points="767.212,-497.034 776.257,-491.516 765.745,-490.189 767.212,-497.034"/>
</g>
<!-- Node41 -->
<g id="node41" class="node"><title>Node41</title>
<polygon fill="none" stroke="#bfbfbf" points="611.5,-472.5 611.5,-491.5 682.5,-491.5 682.5,-472.5 611.5,-472.5"/>
<text text-anchor="middle" x="647" y="-479.5" font-family="Helvetica,sans-Serif" font-size="10.00">FairLogger.h</text>
</g>
<!-- Node36&#45;&gt;Node41 -->
<g id="edge62" class="edge"><title>Node36&#45;&gt;Node41</title>
<path fill="none" stroke="midnightblue" d="M577.335,-528.324C590.162,-519.979 609.785,-507.212 624.94,-497.352"/>
<polygon fill="midnightblue" stroke="midnightblue" points="627.224,-500.042 633.698,-491.655 623.407,-494.174 627.224,-500.042"/>
</g>
<!-- Node42&#45;&gt;Node2 -->
<g id="edge69" class="edge"><title>Node42&#45;&gt;Node2</title>
<path fill="none" stroke="midnightblue" d="M563.228,-584.444C519.442,-575.023 448.986,-559.866 401.62,-549.675"/>
<polygon fill="midnightblue" stroke="midnightblue" points="402.098,-546.198 391.586,-547.516 400.626,-553.041 402.098,-546.198"/>
</g>
<!-- Node42&#45;&gt;Node4 -->
<g id="edge66" class="edge"><title>Node42&#45;&gt;Node4</title>
<path fill="none" stroke="midnightblue" d="M577.888,-584.468C552.01,-575.606 510.548,-561.214 475,-548 452.178,-539.517 447.642,-533.82 424,-528 352.584,-510.421 144.096,-546.761 95,-492 69.197,-463.22 89.6175,-414.303 103.628,-388.358"/>
<polygon fill="midnightblue" stroke="midnightblue" points="106.689,-390.055 108.574,-379.629 100.599,-386.604 106.689,-390.055"/>
</g>
<!-- Node42&#45;&gt;Node7 -->
<g id="edge72" class="edge"><title>Node42&#45;&gt;Node7</title>
<path fill="none" stroke="midnightblue" d="M575.109,-584.42C553.388,-576.919 523.141,-564.619 500,-548 481.316,-534.581 464.154,-514.39 453.215,-500.077"/>
<polygon fill="midnightblue" stroke="midnightblue" points="455.736,-497.602 446.971,-491.651 450.112,-501.769 455.736,-497.602"/>
</g>
<!-- Node42&#45;&gt;Node10 -->
<g id="edge67" class="edge"><title>Node42&#45;&gt;Node10</title>
<path fill="none" stroke="midnightblue" d="M627.641,-584.425C707.926,-556.485 961.844,-468.119 1049.72,-437.538"/>
<polygon fill="midnightblue" stroke="midnightblue" points="1051.06,-440.777 1059.36,-434.184 1048.76,-434.166 1051.06,-440.777"/>
</g>
<!-- Node42&#45;&gt;Node12 -->
<g id="edge71" class="edge"><title>Node42&#45;&gt;Node12</title>
<path fill="none" stroke="midnightblue" d="M653.519,-585.214C656.387,-584.797 659.23,-584.389 662,-584 775.331,-568.073 1167,-597.445 1167,-483 1167,-483 1167,-483 1167,-313 1167,-247.207 1096.28,-269.206 1034,-248 979.904,-229.581 915.629,-217.502 870.568,-210.54"/>
<polygon fill="midnightblue" stroke="midnightblue" points="870.812,-207.038 860.401,-209.006 869.767,-213.959 870.812,-207.038"/>
</g>
<!-- Node42&#45;&gt;Node30 -->
<g id="edge73" class="edge"><title>Node42&#45;&gt;Node30</title>
<path fill="none" stroke="midnightblue" d="M653.913,-585.03C785.919,-564.024 1129,-507.111 1129,-483 1129,-483 1129,-483 1129,-425 1129,-340.03 1007.5,-320.001 932.897,-315.712"/>
<polygon fill="midnightblue" stroke="midnightblue" points="932.86,-312.206 922.699,-315.206 932.513,-319.197 932.86,-312.206"/>
</g>
<!-- Node42&#45;&gt;Node36 -->
<g id="edge74" class="edge"><title>Node42&#45;&gt;Node36</title>
<path fill="none" stroke="midnightblue" d="M596.56,-584.083C591.051,-576.455 582.969,-565.264 576.235,-555.941"/>
<polygon fill="midnightblue" stroke="midnightblue" points="579.013,-553.809 570.32,-547.751 573.338,-557.907 579.013,-553.809"/>
</g>
<!-- Node42&#45;&gt;Node38 -->
<g id="edge65" class="edge"><title>Node42&#45;&gt;Node38</title>
<path fill="none" stroke="midnightblue" d="M612.73,-584.368C633.646,-565.814 683.135,-521.913 709.598,-498.438"/>
<polygon fill="midnightblue" stroke="midnightblue" points="712.157,-500.846 717.315,-491.591 707.512,-495.609 712.157,-500.846"/>
</g>
<!-- Node42&#45;&gt;Node40 -->
<g id="edge68" class="edge"><title>Node42&#45;&gt;Node40</title>
<path fill="none" stroke="midnightblue" d="M619.714,-584.368C656.809,-565.211 746.222,-519.036 790.407,-496.217"/>
<polygon fill="midnightblue" stroke="midnightblue" points="792.085,-499.29 799.364,-491.591 788.873,-493.07 792.085,-499.29"/>
</g>
<!-- Node42&#45;&gt;Node41 -->
<g id="edge70" class="edge"><title>Node42&#45;&gt;Node41</title>
<path fill="none" stroke="midnightblue" d="M608.298,-584.28C613.544,-575.388 621.559,-561.08 627,-548 633.377,-532.67 638.783,-514.569 642.361,-501.366"/>
<polygon fill="midnightblue" stroke="midnightblue" points="645.771,-502.157 644.917,-491.597 638.999,-500.385 645.771,-502.157"/>
</g>
</g>
</svg>
