<?xml version="1.0" encoding="UTF-8" standalone="no"?>
<!DOCTYPE svg PUBLIC "-//W3C//DTD SVG 1.1//EN"
 "http://www.w3.org/Graphics/SVG/1.1/DTD/svg11.dtd">
<!-- Generated by graphviz version 2.36.0 (20140111.2315)
 -->
<!-- Title: /home/travis/build/AliceO2Group/AliceO2/Detectors/TPC/reconstruction/include/TPCReconstruction/TPCCATracking.h Pages: 1 -->
<svg width="607pt" height="252pt"
 viewBox="0.00 0.00 607.00 252.00" xmlns="http://www.w3.org/2000/svg" xmlns:xlink="http://www.w3.org/1999/xlink">
<g id="graph0" class="graph" transform="scale(1 1) rotate(0) translate(4 248)">
<title>/home/travis/build/AliceO2Group/AliceO2/Detectors/TPC/reconstruction/include/TPCReconstruction/TPCCATracking.h</title>
<!-- Node1 -->
<g id="node1" class="node"><title>Node1</title>
<polygon fill="#bfbfbf" stroke="black" points="211,-180.5 211,-243.5 361,-243.5 361,-180.5 211,-180.5"/>
<text text-anchor="start" x="219" y="-231.5" font-family="Helvetica,sans-Serif" font-size="10.00">/home/travis/build</text>
<text text-anchor="start" x="219" y="-220.5" font-family="Helvetica,sans-Serif" font-size="10.00">/AliceO2Group/AliceO2</text>
<text text-anchor="start" x="219" y="-209.5" font-family="Helvetica,sans-Serif" font-size="10.00">/Detectors/TPC/reconstruction</text>
<text text-anchor="start" x="219" y="-198.5" font-family="Helvetica,sans-Serif" font-size="10.00">/include/TPCReconstruction</text>
<text text-anchor="middle" x="286" y="-187.5" font-family="Helvetica,sans-Serif" font-size="10.00">/TPCCATracking.h</text>
</g>
<!-- Node2 -->
<g id="node2" class="node"><title>Node2</title>
<polygon fill="none" stroke="#bfbfbf" points="93,-124.5 93,-143.5 145,-143.5 145,-124.5 93,-124.5"/>
<text text-anchor="middle" x="119" y="-131.5" font-family="Helvetica,sans-Serif" font-size="10.00">memory</text>
</g>
<!-- Node1&#45;&gt;Node2 -->
<g id="edge1" class="edge"><title>Node1&#45;&gt;Node2</title>
<path fill="none" stroke="midnightblue" d="M218.556,-180.307C193.62,-168.959 166.699,-156.707 147.146,-147.809"/>
<polygon fill="midnightblue" stroke="midnightblue" points="148.464,-144.563 137.912,-143.607 145.564,-150.935 148.464,-144.563"/>
</g>
<!-- Node3 -->
<g id="node3" class="node"><title>Node3</title>
<polygon fill="none" stroke="#bfbfbf" points="346,-62.5 346,-81.5 390,-81.5 390,-62.5 346,-62.5"/>
<text text-anchor="middle" x="368" y="-69.5" font-family="Helvetica,sans-Serif" font-size="10.00">vector</text>
</g>
<!-- Node1&#45;&gt;Node3 -->
<g id="edge2" class="edge"><title>Node1&#45;&gt;Node3</title>
<path fill="none" stroke="midnightblue" d="M304.198,-180.373C320.639,-152.705 344.251,-112.967 357.66,-90.4015"/>
<polygon fill="midnightblue" stroke="midnightblue" points="360.787,-91.9912 362.886,-81.6064 354.769,-88.4154 360.787,-91.9912"/>
</g>
<!-- Node4 -->
<g id="node4" class="node"><title>Node4</title>
<g id="a_node4"><a xlink:href="../../d6/d6f/TPC_2reconstruction_2include_2TPCReconstruction_2Cluster_8h.html" target="_top" xlink:title="TPCReconstruction/Cluster.h">
<polygon fill="none" stroke="black" points="163,-124.5 163,-143.5 309,-143.5 309,-124.5 163,-124.5"/>
<text text-anchor="middle" x="236" y="-131.5" font-family="Helvetica,sans-Serif" font-size="10.00">TPCReconstruction/Cluster.h</text>
</a>
</g>
</g>
<!-- Node1&#45;&gt;Node4 -->
<g id="edge3" class="edge"><title>Node1&#45;&gt;Node4</title>
<path fill="none" stroke="midnightblue" d="M265.663,-180.088C259.377,-170.533 252.683,-160.359 247.248,-152.097"/>
<polygon fill="midnightblue" stroke="midnightblue" points="250.156,-150.149 241.736,-143.718 244.308,-153.996 250.156,-150.149"/>
</g>
<!-- Node8 -->
<g id="node8" class="node"><title>Node8</title>
<g id="a_node8"><a xlink:href="../../de/dcd/ClusterNative_8h.html" target="_top" xlink:title="Class of a TPC cluster in TPC&#45;native coordinates (row, time) ">
<polygon fill="none" stroke="black" points="365.5,-124.5 365.5,-143.5 530.5,-143.5 530.5,-124.5 365.5,-124.5"/>
<text text-anchor="middle" x="448" y="-131.5" font-family="Helvetica,sans-Serif" font-size="10.00">DataFormatsTPC/ClusterNative.h</text>
</a>
</g>
</g>
<!-- Node1&#45;&gt;Node8 -->
<g id="edge8" class="edge"><title>Node1&#45;&gt;Node8</title>
<path fill="none" stroke="midnightblue" d="M351.425,-180.307C375.504,-169.011 401.491,-156.819 420.436,-147.931"/>
<polygon fill="midnightblue" stroke="midnightblue" points="422.087,-151.023 429.654,-143.607 419.114,-144.685 422.087,-151.023"/>
</g>
<!-- Node5 -->
<g id="node5" class="node"><title>Node5</title>
<polygon fill="none" stroke="#bfbfbf" points="170,-0.5 170,-19.5 226,-19.5 226,-0.5 170,-0.5"/>
<text text-anchor="middle" x="198" y="-7.5" font-family="Helvetica,sans-Serif" font-size="10.00">Rtypes.h</text>
</g>
<!-- Node4&#45;&gt;Node5 -->
<g id="edge4" class="edge"><title>Node4&#45;&gt;Node5</title>
<path fill="none" stroke="midnightblue" d="M253.502,-124.465C266.787,-116.917 284.076,-104.533 292,-88 298.147,-75.1748 299.581,-68.0335 292,-56 279.651,-36.3977 256.139,-25.1466 235.719,-18.7967"/>
<polygon fill="midnightblue" stroke="midnightblue" points="236.581,-15.4032 226.007,-16.058 234.681,-22.1405 236.581,-15.4032"/>
</g>
<!-- Node6 -->
<g id="node6" class="node"><title>Node6</title>
<g id="a_node6"><a xlink:href="../../df/d5d/common_2include_2CommonDataFormat_2TimeStamp_8h.html" target="_top" xlink:title="CommonDataFormat/TimeStamp.h">
<polygon fill="none" stroke="black" points="0,-62.5 0,-81.5 170,-81.5 170,-62.5 0,-62.5"/>
<text text-anchor="middle" x="85" y="-69.5" font-family="Helvetica,sans-Serif" font-size="10.00">CommonDataFormat/TimeStamp.h</text>
</a>
</g>
</g>
<!-- Node4&#45;&gt;Node6 -->
<g id="edge5" class="edge"><title>Node4&#45;&gt;Node6</title>
<path fill="none" stroke="midnightblue" d="M214.365,-124.403C188.576,-114.156 145.289,-96.9561 115.96,-85.3021"/>
<polygon fill="midnightblue" stroke="midnightblue" points="117.18,-82.0207 106.594,-81.5806 114.595,-88.526 117.18,-82.0207"/>
</g>
<!-- Node7 -->
<g id="node7" class="node"><title>Node7</title>
<polygon fill="none" stroke="#bfbfbf" points="188.5,-57 188.5,-87 283.5,-87 283.5,-57 188.5,-57"/>
<text text-anchor="start" x="196.5" y="-75" font-family="Helvetica,sans-Serif" font-size="10.00">boost/serialization</text>
<text text-anchor="middle" x="236" y="-64" font-family="Helvetica,sans-Serif" font-size="10.00">/base_object.hpp</text>
</g>
<!-- Node4&#45;&gt;Node7 -->
<g id="edge7" class="edge"><title>Node4&#45;&gt;Node7</title>
<path fill="none" stroke="midnightblue" d="M236,-124.403C236,-117.341 236,-106.975 236,-97.399"/>
<polygon fill="midnightblue" stroke="midnightblue" points="239.5,-97.1408 236,-87.1408 232.5,-97.1408 239.5,-97.1408"/>
</g>
<!-- Node6&#45;&gt;Node5 -->
<g id="edge6" class="edge"><title>Node6&#45;&gt;Node5</title>
<path fill="none" stroke="midnightblue" d="M101.19,-62.4035C119.902,-52.4678 150.923,-35.9966 172.799,-24.3812"/>
<polygon fill="midnightblue" stroke="midnightblue" points="174.649,-27.3616 181.84,-19.5806 171.366,-21.179 174.649,-27.3616"/>
</g>
<!-- Node8&#45;&gt;Node3 -->
<g id="edge10" class="edge"><title>Node8&#45;&gt;Node3</title>
<path fill="none" stroke="midnightblue" d="M436.538,-124.403C423.825,-114.869 403.087,-99.3154 387.747,-87.8106"/>
<polygon fill="midnightblue" stroke="midnightblue" points="389.541,-84.7806 379.441,-81.5806 385.341,-90.3806 389.541,-84.7806"/>
</g>
<!-- Node9 -->
<g id="node9" class="node"><title>Node9</title>
<polygon fill="none" stroke="#bfbfbf" points="419,-62.5 419,-81.5 465,-81.5 465,-62.5 419,-62.5"/>
<text text-anchor="middle" x="442" y="-69.5" font-family="Helvetica,sans-Serif" font-size="10.00">cstdint</text>
</g>
<!-- Node8&#45;&gt;Node9 -->
<g id="edge9" class="edge"><title>Node8&#45;&gt;Node9</title>
<path fill="none" stroke="midnightblue" d="M447.14,-124.403C446.294,-115.938 444.973,-102.728 443.882,-91.8199"/>
<polygon fill="midnightblue" stroke="midnightblue" points="447.336,-91.1827 442.858,-81.5806 440.371,-91.8793 447.336,-91.1827"/>
</g>
<!-- Node10 -->
<g id="node10" class="node"><title>Node10</title>
<g id="a_node10"><a xlink:href="../../d6/d51/TPC_2base_2include_2TPCBase_2Constants_8h.html" target="_top" xlink:title="TPCBase/Constants.h">
<polygon fill="none" stroke="black" points="483,-62.5 483,-81.5 599,-81.5 599,-62.5 483,-62.5"/>
<text text-anchor="middle" x="541" y="-69.5" font-family="Helvetica,sans-Serif" font-size="10.00">TPCBase/Constants.h</text>
</a>
</g>
</g>
<!-- Node8&#45;&gt;Node10 -->
<g id="edge11" class="edge"><title>Node8&#45;&gt;Node10</title>
<path fill="none" stroke="midnightblue" d="M461.325,-124.403C476.38,-114.691 501.116,-98.7319 519.037,-87.1697"/>
<polygon fill="midnightblue" stroke="midnightblue" points="521.195,-89.9429 527.7,-81.5806 517.4,-84.0609 521.195,-89.9429"/>
</g>
</g>
</svg>
