<?xml version="1.0" encoding="UTF-8" standalone="no"?>
<!DOCTYPE svg PUBLIC "-//W3C//DTD SVG 1.1//EN"
 "http://www.w3.org/Graphics/SVG/1.1/DTD/svg11.dtd">
<!-- Generated by graphviz version 2.36.0 (20140111.2315)
 -->
<!-- Title: /home/travis/build/AliceO2Group/AliceO2/DataFormats/Detectors/TPC/include/DataFormatsTPC/ClusterNative.h Pages: 1 -->
<!--zoomable 362 -->
<svg id="main" version="1.1" xmlns="http://www.w3.org/2000/svg" xmlns:xlink="http://www.w3.org/1999/xlink" xml:space="preserve" onload="init(evt)">
<style type="text/css"><![CDATA[
.edge:hover path { stroke: red; }
.edge:hover polygon { stroke: red; fill: red; }
]]></style>
<script type="text/javascript"><![CDATA[
var edges = document.getElementsByTagName('g');
if (edges && edges.length) {
  for (var i=0;i<edges.length;i++) {
    if (edges[i].id.substr(0,4)=='edge') {
      edges[i].setAttribute('class','edge');
    }
  }
}
]]></script>
        <defs>
                <circle id="rim" cx="0" cy="0" r="7"/>
                <circle id="rim2" cx="0" cy="0" r="3.5"/>
                <g id="zoomPlus">
                        <use xlink:href="#rim" fill="#404040">
                                <set attributeName="fill" to="#808080" begin="zoomplus.mouseover" end="zoomplus.mouseout"/>
                        </use>
                        <path d="M-4,0h8M0,-4v8" fill="none" stroke="white" stroke-width="1.5" pointer-events="none"/>
                </g>
                <g id="zoomMin">
                        <use xlink:href="#rim" fill="#404040">
                                <set attributeName="fill" to="#808080" begin="zoomminus.mouseover" end="zoomminus.mouseout"/>
                        </use>
                        <path d="M-4,0h8" fill="none" stroke="white" stroke-width="1.5" pointer-events="none"/>
                </g>
                <g id="dirArrow">
                        <path fill="none" stroke="white" stroke-width="1.5" d="M0,-3.0v7 M-2.5,-0.5L0,-3.0L2.5,-0.5"/>
                </g>
               <g id="resetDef">
                       <use xlink:href="#rim2" fill="#404040">
                               <set attributeName="fill" to="#808080" begin="reset.mouseover" end="reset.mouseout"/>
                       </use>
               </g>
        </defs>

<script type="text/javascript">
var viewWidth = 2597;
var viewHeight = 362;
var sectionId = 'dynsection-1';
</script>
<script xlink:href="../../svgpan.js"/>
<svg id="graph" class="graph">
<g id="viewport">
<title>/home/travis/build/AliceO2Group/AliceO2/DataFormats/Detectors/TPC/include/DataFormatsTPC/ClusterNative.h</title>
<!-- Node1 -->
<g id="node1" class="node"><title>Node1</title>
<polygon fill="#bfbfbf" stroke="black" points="1912,-290.5 1912,-353.5 2066,-353.5 2066,-290.5 1912,-290.5"/>
<text text-anchor="start" x="1920" y="-341.5" font-family="Helvetica,sans-Serif" font-size="10.00">/home/travis/build</text>
<text text-anchor="start" x="1920" y="-330.5" font-family="Helvetica,sans-Serif" font-size="10.00">/AliceO2Group/AliceO2</text>
<text text-anchor="start" x="1920" y="-319.5" font-family="Helvetica,sans-Serif" font-size="10.00">/DataFormats/Detectors</text>
<text text-anchor="start" x="1920" y="-308.5" font-family="Helvetica,sans-Serif" font-size="10.00">/TPC/include/DataFormatsTPC</text>
<text text-anchor="middle" x="1989" y="-297.5" font-family="Helvetica,sans-Serif" font-size="10.00">/ClusterNative.h</text>
</g>
<!-- Node2 -->
<g id="node2" class="node"><title>Node2</title>
<g id="a_node2"><a xlink:href="../../db/df1/Helpers_8h.html" target="_top" xlink:title="Helper class for memory management of TPC Data Formats, external from the actual data type classes to...">
<polygon fill="none" stroke="black" points="301,-190.5 301,-253.5 455,-253.5 455,-190.5 301,-190.5"/>
<text text-anchor="start" x="309" y="-241.5" font-family="Helvetica,sans-Serif" font-size="10.00">/home/travis/build</text>
<text text-anchor="start" x="309" y="-230.5" font-family="Helvetica,sans-Serif" font-size="10.00">/AliceO2Group/AliceO2</text>
<text text-anchor="start" x="309" y="-219.5" font-family="Helvetica,sans-Serif" font-size="10.00">/DataFormats/Detectors</text>
<text text-anchor="start" x="309" y="-208.5" font-family="Helvetica,sans-Serif" font-size="10.00">/TPC/include/DataFormatsTPC</text>
<text text-anchor="middle" x="378" y="-197.5" font-family="Helvetica,sans-Serif" font-size="10.00">/Helpers.h</text>
</a>
</g>
</g>
<!-- Node1&#45;&gt;Node2 -->
<g id="edge1" class="edge"><title>Node1&#45;&gt;Node2</title>
<path fill="none" stroke="midnightblue" d="M1901.69,-320.389C1678.74,-318.071 1070.51,-306.976 567,-254 530.129,-250.121 489.522,-243.74 455.429,-237.772"/>
<polygon fill="midnightblue" stroke="midnightblue" points="1901.66,-323.889 1911.69,-320.49 1901.73,-316.889 1901.66,-323.889"/>
</g>
<!-- Node5 -->
<g id="node5" class="node"><title>Node5</title>
<g id="a_node5"><a xlink:href="../../d1/df0/runCATrackingClusterNative_8C.html" target="_top" xlink:title="/home/travis/build\l/AliceO2Group/AliceO2\l/Detectors/TPC/reconstruction\l/macro/runCATrackingClusterNative.C">
<polygon fill="none" stroke="black" points="405.5,-96 405.5,-148 590.5,-148 590.5,-96 405.5,-96"/>
<text text-anchor="start" x="413.5" y="-136" font-family="Helvetica,sans-Serif" font-size="10.00">/home/travis/build</text>
<text text-anchor="start" x="413.5" y="-125" font-family="Helvetica,sans-Serif" font-size="10.00">/AliceO2Group/AliceO2</text>
<text text-anchor="start" x="413.5" y="-114" font-family="Helvetica,sans-Serif" font-size="10.00">/Detectors/TPC/reconstruction</text>
<text text-anchor="middle" x="498" y="-103" font-family="Helvetica,sans-Serif" font-size="10.00">/macro/runCATrackingClusterNative.C</text>
</a>
</g>
</g>
<!-- Node1&#45;&gt;Node5 -->
<g id="edge30" class="edge"><title>Node1&#45;&gt;Node5</title>
<path fill="none" stroke="midnightblue" d="M1901.5,-319.336C1627.49,-313.734 797.365,-293.646 683,-254 618.486,-231.635 556.444,-179.414 523.156,-148.078"/>
<polygon fill="midnightblue" stroke="midnightblue" points="1901.72,-322.841 1911.79,-319.545 1901.87,-315.843 1901.72,-322.841"/>
</g>
<!-- Node6 -->
<g id="node6" class="node"><title>Node6</title>
<g id="a_node6"><a xlink:href="../../dc/daf/runHardwareClusterDecoderRoot_8C.html" target="_top" xlink:title="/home/travis/build\l/AliceO2Group/AliceO2\l/Detectors/TPC/reconstruction\l/macro/runHardwareClusterDecoderRoot.C">
<polygon fill="none" stroke="black" points="1867.5,-1 1867.5,-53 2072.5,-53 2072.5,-1 1867.5,-1"/>
<text text-anchor="start" x="1875.5" y="-41" font-family="Helvetica,sans-Serif" font-size="10.00">/home/travis/build</text>
<text text-anchor="start" x="1875.5" y="-30" font-family="Helvetica,sans-Serif" font-size="10.00">/AliceO2Group/AliceO2</text>
<text text-anchor="start" x="1875.5" y="-19" font-family="Helvetica,sans-Serif" font-size="10.00">/Detectors/TPC/reconstruction</text>
<text text-anchor="middle" x="1970" y="-8" font-family="Helvetica,sans-Serif" font-size="10.00">/macro/runHardwareClusterDecoderRoot.C</text>
</a>
</g>
</g>
<!-- Node1&#45;&gt;Node6 -->
<g id="edge32" class="edge"><title>Node1&#45;&gt;Node6</title>
<path fill="none" stroke="midnightblue" d="M1986.37,-280.37C1982.38,-218.943 1974.94,-104.218 1971.65,-53.3757"/>
<polygon fill="midnightblue" stroke="midnightblue" points="1982.88,-280.721 1987.02,-290.473 1989.87,-280.267 1982.88,-280.721"/>
</g>
<!-- Node7 -->
<g id="node7" class="node"><title>Node7</title>
<g id="a_node7"><a xlink:href="../../da/d8a/ClusterNative_8cxx.html" target="_top" xlink:title="Unit test for the TPC ClusterNative data struct. ">
<polygon fill="none" stroke="black" points="2448.5,-196 2448.5,-248 2589.5,-248 2589.5,-196 2448.5,-196"/>
<text text-anchor="start" x="2456.5" y="-236" font-family="Helvetica,sans-Serif" font-size="10.00">/home/travis/build</text>
<text text-anchor="start" x="2456.5" y="-225" font-family="Helvetica,sans-Serif" font-size="10.00">/AliceO2Group/AliceO2</text>
<text text-anchor="start" x="2456.5" y="-214" font-family="Helvetica,sans-Serif" font-size="10.00">/DataFormats/Detectors</text>
<text text-anchor="middle" x="2519" y="-203" font-family="Helvetica,sans-Serif" font-size="10.00">/TPC/test/ClusterNative.cxx</text>
</a>
</g>
</g>
<!-- Node1&#45;&gt;Node7 -->
<g id="edge6" class="edge"><title>Node1&#45;&gt;Node7</title>
<path fill="none" stroke="midnightblue" d="M2076.53,-313.053C2167.02,-303.624 2311.9,-285.123 2434,-254 2440.7,-252.293 2447.6,-250.257 2454.45,-248.055"/>
<polygon fill="midnightblue" stroke="midnightblue" points="2075.9,-309.599 2066.31,-314.103 2076.62,-316.562 2075.9,-309.599"/>
</g>
<!-- Node8 -->
<g id="node8" class="node"><title>Node8</title>
<g id="a_node8"><a xlink:href="../../db/d19/DigitalCurrentClusterIntegrator_8h.html" target="_top" xlink:title="/home/travis/build\l/AliceO2Group/AliceO2\l/Detectors/TPC/reconstruction\l/include/TPCReconstruction\l/DigitalCurrentClusterIntegrator.h">
<polygon fill="none" stroke="black" points="2049.5,-190.5 2049.5,-253.5 2210.5,-253.5 2210.5,-190.5 2049.5,-190.5"/>
<text text-anchor="start" x="2057.5" y="-241.5" font-family="Helvetica,sans-Serif" font-size="10.00">/home/travis/build</text>
<text text-anchor="start" x="2057.5" y="-230.5" font-family="Helvetica,sans-Serif" font-size="10.00">/AliceO2Group/AliceO2</text>
<text text-anchor="start" x="2057.5" y="-219.5" font-family="Helvetica,sans-Serif" font-size="10.00">/Detectors/TPC/reconstruction</text>
<text text-anchor="start" x="2057.5" y="-208.5" font-family="Helvetica,sans-Serif" font-size="10.00">/include/TPCReconstruction</text>
<text text-anchor="middle" x="2130" y="-197.5" font-family="Helvetica,sans-Serif" font-size="10.00">/DigitalCurrentClusterIntegrator.h</text>
</a>
</g>
</g>
<!-- Node1&#45;&gt;Node8 -->
<g id="edge7" class="edge"><title>Node1&#45;&gt;Node8</title>
<path fill="none" stroke="midnightblue" d="M2041.66,-284.398C2056.24,-274.268 2071.9,-263.382 2085.93,-253.63"/>
<polygon fill="midnightblue" stroke="midnightblue" points="2039.44,-281.68 2033.23,-290.261 2043.44,-287.428 2039.44,-281.68"/>
</g>
<!-- Node9 -->
<g id="node9" class="node"><title>Node9</title>
<g id="a_node9"><a xlink:href="../../d2/d41/HardwareClusterDecoder_8h.html" target="_top" xlink:title="/home/travis/build\l/AliceO2Group/AliceO2\l/Detectors/TPC/reconstruction\l/include/TPCReconstruction\l/HardwareClusterDecoder.h">
<polygon fill="none" stroke="black" points="2242,-90.5 2242,-153.5 2392,-153.5 2392,-90.5 2242,-90.5"/>
<text text-anchor="start" x="2250" y="-141.5" font-family="Helvetica,sans-Serif" font-size="10.00">/home/travis/build</text>
<text text-anchor="start" x="2250" y="-130.5" font-family="Helvetica,sans-Serif" font-size="10.00">/AliceO2Group/AliceO2</text>
<text text-anchor="start" x="2250" y="-119.5" font-family="Helvetica,sans-Serif" font-size="10.00">/Detectors/TPC/reconstruction</text>
<text text-anchor="start" x="2250" y="-108.5" font-family="Helvetica,sans-Serif" font-size="10.00">/include/TPCReconstruction</text>
<text text-anchor="middle" x="2317" y="-97.5" font-family="Helvetica,sans-Serif" font-size="10.00">/HardwareClusterDecoder.h</text>
</a>
</g>
</g>
<!-- Node1&#45;&gt;Node9 -->
<g id="edge13" class="edge"><title>Node1&#45;&gt;Node9</title>
<path fill="none" stroke="midnightblue" d="M2075.94,-309.286C2121.61,-299.924 2176.72,-283.297 2219,-254 2256.35,-228.116 2285.3,-183.415 2301.75,-153.529"/>
<polygon fill="midnightblue" stroke="midnightblue" points="2075.18,-305.867 2066.05,-311.231 2076.53,-312.736 2075.18,-305.867"/>
</g>
<!-- Node10 -->
<g id="node10" class="node"><title>Node10</title>
<g id="a_node10"><a xlink:href="../../d1/dfd/runHardwareClusterDecoderRaw_8C.html" target="_top" xlink:title="/home/travis/build\l/AliceO2Group/AliceO2\l/Detectors/TPC/reconstruction\l/macro/runHardwareClusterDecoderRaw.C">
<polygon fill="none" stroke="black" points="2102,-1 2102,-53 2306,-53 2306,-1 2102,-1"/>
<text text-anchor="start" x="2110" y="-41" font-family="Helvetica,sans-Serif" font-size="10.00">/home/travis/build</text>
<text text-anchor="start" x="2110" y="-30" font-family="Helvetica,sans-Serif" font-size="10.00">/AliceO2Group/AliceO2</text>
<text text-anchor="start" x="2110" y="-19" font-family="Helvetica,sans-Serif" font-size="10.00">/Detectors/TPC/reconstruction</text>
<text text-anchor="middle" x="2204" y="-8" font-family="Helvetica,sans-Serif" font-size="10.00">/macro/runHardwareClusterDecoderRaw.C</text>
</a>
</g>
</g>
<!-- Node1&#45;&gt;Node10 -->
<g id="edge31" class="edge"><title>Node1&#45;&gt;Node10</title>
<path fill="none" stroke="midnightblue" d="M1993.43,-280.2C2000.55,-217.802 2014.96,-104.344 2027,-90 2038.2,-76.6595 2070.96,-63.6396 2105.3,-53.0028"/>
<polygon fill="midnightblue" stroke="midnightblue" points="1989.92,-280.159 1992.27,-290.488 1996.87,-280.943 1989.92,-280.159"/>
</g>
<!-- Node11 -->
<g id="node11" class="node"><title>Node11</title>
<g id="a_node11"><a xlink:href="../../d4/d7c/HardwareClusterDecoder_8cxx.html" target="_top" xlink:title="/home/travis/build\l/AliceO2Group/AliceO2\l/Detectors/TPC/reconstruction\l/src/HardwareClusterDecoder.cxx">
<polygon fill="none" stroke="black" points="2330.5,-1 2330.5,-53 2495.5,-53 2495.5,-1 2330.5,-1"/>
<text text-anchor="start" x="2338.5" y="-41" font-family="Helvetica,sans-Serif" font-size="10.00">/home/travis/build</text>
<text text-anchor="start" x="2338.5" y="-30" font-family="Helvetica,sans-Serif" font-size="10.00">/AliceO2Group/AliceO2</text>
<text text-anchor="start" x="2338.5" y="-19" font-family="Helvetica,sans-Serif" font-size="10.00">/Detectors/TPC/reconstruction</text>
<text text-anchor="middle" x="2413" y="-8" font-family="Helvetica,sans-Serif" font-size="10.00">/src/HardwareClusterDecoder.cxx</text>
</a>
</g>
</g>
<!-- Node1&#45;&gt;Node11 -->
<g id="edge33" class="edge"><title>Node1&#45;&gt;Node11</title>
<path fill="none" stroke="midnightblue" d="M2076.17,-308.459C2131.24,-298.418 2202.91,-281.377 2262,-254 2330.73,-222.159 2362.15,-219.608 2400,-154 2418.02,-122.76 2418.29,-79.8361 2416.15,-53.0189"/>
<polygon fill="midnightblue" stroke="midnightblue" points="2075.32,-305.056 2066.08,-310.254 2076.54,-311.948 2075.32,-305.056"/>
</g>
<!-- Node13 -->
<g id="node13" class="node"><title>Node13</title>
<g id="a_node13"><a xlink:href="../../df/d30/TPCCATracking_8h.html" target="_top" xlink:title="Decoder to convert TPC ClusterHardware to ClusterNative. ">
<polygon fill="none" stroke="black" points="692,-190.5 692,-253.5 842,-253.5 842,-190.5 692,-190.5"/>
<text text-anchor="start" x="700" y="-241.5" font-family="Helvetica,sans-Serif" font-size="10.00">/home/travis/build</text>
<text text-anchor="start" x="700" y="-230.5" font-family="Helvetica,sans-Serif" font-size="10.00">/AliceO2Group/AliceO2</text>
<text text-anchor="start" x="700" y="-219.5" font-family="Helvetica,sans-Serif" font-size="10.00">/Detectors/TPC/reconstruction</text>
<text text-anchor="start" x="700" y="-208.5" font-family="Helvetica,sans-Serif" font-size="10.00">/include/TPCReconstruction</text>
<text text-anchor="middle" x="767" y="-197.5" font-family="Helvetica,sans-Serif" font-size="10.00">/TPCCATracking.h</text>
</a>
</g>
</g>
<!-- Node1&#45;&gt;Node13 -->
<g id="edge14" class="edge"><title>Node1&#45;&gt;Node13</title>
<path fill="none" stroke="midnightblue" d="M1901.33,-313.969C1671.88,-295.568 1056.66,-246.23 842.078,-229.021"/>
<polygon fill="midnightblue" stroke="midnightblue" points="1901.38,-317.485 1911.63,-314.795 1901.94,-310.507 1901.38,-317.485"/>
</g>
<!-- Node17 -->
<g id="node17" class="node"><title>Node17</title>
<g id="a_node17"><a xlink:href="../../d5/dc9/TrackTPC_8h.html" target="_top" xlink:title="/home/travis/build\l/AliceO2Group/AliceO2\l/Detectors/TPC/reconstruction\l/include/TPCReconstruction\l/TrackTPC.h">
<polygon fill="none" stroke="black" points="1196,-190.5 1196,-253.5 1346,-253.5 1346,-190.5 1196,-190.5"/>
<text text-anchor="start" x="1204" y="-241.5" font-family="Helvetica,sans-Serif" font-size="10.00">/home/travis/build</text>
<text text-anchor="start" x="1204" y="-230.5" font-family="Helvetica,sans-Serif" font-size="10.00">/AliceO2Group/AliceO2</text>
<text text-anchor="start" x="1204" y="-219.5" font-family="Helvetica,sans-Serif" font-size="10.00">/Detectors/TPC/reconstruction</text>
<text text-anchor="start" x="1204" y="-208.5" font-family="Helvetica,sans-Serif" font-size="10.00">/include/TPCReconstruction</text>
<text text-anchor="middle" x="1271" y="-197.5" font-family="Helvetica,sans-Serif" font-size="10.00">/TrackTPC.h</text>
</a>
</g>
</g>
<!-- Node1&#45;&gt;Node17 -->
<g id="edge19" class="edge"><title>Node1&#45;&gt;Node17</title>
<path fill="none" stroke="midnightblue" d="M1901.82,-309.101C1759.6,-289.689 1480.12,-251.542 1346.12,-233.253"/>
<polygon fill="midnightblue" stroke="midnightblue" points="1901.44,-312.581 1911.82,-310.466 1902.39,-305.645 1901.44,-312.581"/>
</g>
<!-- Node3 -->
<g id="node3" class="node"><title>Node3</title>
<g id="a_node3"><a xlink:href="../../dc/def/Helpers_8cxx.html" target="_top" xlink:title="/home/travis/build\l/AliceO2Group/AliceO2\l/DataFormats/Detectors\l/TPC/src/Helpers.cxx">
<polygon fill="none" stroke="black" points="0,-96 0,-148 122,-148 122,-96 0,-96"/>
<text text-anchor="start" x="8" y="-136" font-family="Helvetica,sans-Serif" font-size="10.00">/home/travis/build</text>
<text text-anchor="start" x="8" y="-125" font-family="Helvetica,sans-Serif" font-size="10.00">/AliceO2Group/AliceO2</text>
<text text-anchor="start" x="8" y="-114" font-family="Helvetica,sans-Serif" font-size="10.00">/DataFormats/Detectors</text>
<text text-anchor="middle" x="61" y="-103" font-family="Helvetica,sans-Serif" font-size="10.00">/TPC/src/Helpers.cxx</text>
</a>
</g>
</g>
<!-- Node2&#45;&gt;Node3 -->
<g id="edge2" class="edge"><title>Node2&#45;&gt;Node3</title>
<path fill="none" stroke="midnightblue" d="M290.859,-200.804C243.109,-188.882 183.191,-172.514 131,-154 125.864,-152.178 120.578,-150.145 115.321,-148.014"/>
<polygon fill="midnightblue" stroke="midnightblue" points="290.308,-204.274 300.857,-203.28 291.991,-197.479 290.308,-204.274"/>
</g>
<!-- Node4 -->
<g id="node4" class="node"><title>Node4</title>
<g id="a_node4"><a xlink:href="../../d7/d3d/convertClusterToClusterHardware_8C.html" target="_top" xlink:title="/home/travis/build\l/AliceO2Group/AliceO2\l/Detectors/TPC/reconstruction\l/macro/convertClusterToClusterHardware.C">
<polygon fill="none" stroke="black" points="140.5,-96 140.5,-148 349.5,-148 349.5,-96 140.5,-96"/>
<text text-anchor="start" x="148.5" y="-136" font-family="Helvetica,sans-Serif" font-size="10.00">/home/travis/build</text>
<text text-anchor="start" x="148.5" y="-125" font-family="Helvetica,sans-Serif" font-size="10.00">/AliceO2Group/AliceO2</text>
<text text-anchor="start" x="148.5" y="-114" font-family="Helvetica,sans-Serif" font-size="10.00">/Detectors/TPC/reconstruction</text>
<text text-anchor="middle" x="245" y="-103" font-family="Helvetica,sans-Serif" font-size="10.00">/macro/convertClusterToClusterHardware.C</text>
</a>
</g>
</g>
<!-- Node2&#45;&gt;Node4 -->
<g id="edge3" class="edge"><title>Node2&#45;&gt;Node4</title>
<path fill="none" stroke="midnightblue" d="M327.9,-184.084C311.581,-172.06 293.857,-159 279.001,-148.054"/>
<polygon fill="midnightblue" stroke="midnightblue" points="326.156,-187.147 336.283,-190.261 330.309,-181.511 326.156,-187.147"/>
</g>
<!-- Node2&#45;&gt;Node5 -->
<g id="edge4" class="edge"><title>Node2&#45;&gt;Node5</title>
<path fill="none" stroke="midnightblue" d="M423.609,-183.753C438.22,-171.82 454.042,-158.899 467.322,-148.054"/>
<polygon fill="midnightblue" stroke="midnightblue" points="421.171,-181.225 415.64,-190.261 425.599,-186.647 421.171,-181.225"/>
</g>
<!-- Node2&#45;&gt;Node6 -->
<g id="edge5" class="edge"><title>Node2&#45;&gt;Node6</title>
<path fill="none" stroke="midnightblue" d="M371.242,-180.208C368.898,-150.655 371.59,-112.146 396,-90 409.668,-77.6001 1520.18,-42.0058 1867.43,-31.1689"/>
<polygon fill="midnightblue" stroke="midnightblue" points="367.768,-180.648 372.253,-190.246 374.733,-179.946 367.768,-180.648"/>
</g>
<!-- Node8&#45;&gt;Node9 -->
<g id="edge8" class="edge"><title>Node8&#45;&gt;Node9</title>
<path fill="none" stroke="midnightblue" d="M2197.47,-185.639C2217.52,-175.131 2239.31,-163.715 2258.72,-153.541"/>
<polygon fill="midnightblue" stroke="midnightblue" points="2195.63,-182.653 2188.4,-190.395 2198.88,-188.853 2195.63,-182.653"/>
</g>
<!-- Node12 -->
<g id="node12" class="node"><title>Node12</title>
<g id="a_node12"><a xlink:href="../../d1/d81/DigitalCurrentClusterIntegrator_8cxx.html" target="_top" xlink:title="/home/travis/build\l/AliceO2Group/AliceO2\l/Detectors/TPC/reconstruction\l/src/DigitalCurrentClusterIntegrator.cxx">
<polygon fill="none" stroke="black" points="2036,-96 2036,-148 2224,-148 2224,-96 2036,-96"/>
<text text-anchor="start" x="2044" y="-136" font-family="Helvetica,sans-Serif" font-size="10.00">/home/travis/build</text>
<text text-anchor="start" x="2044" y="-125" font-family="Helvetica,sans-Serif" font-size="10.00">/AliceO2Group/AliceO2</text>
<text text-anchor="start" x="2044" y="-114" font-family="Helvetica,sans-Serif" font-size="10.00">/Detectors/TPC/reconstruction</text>
<text text-anchor="middle" x="2130" y="-103" font-family="Helvetica,sans-Serif" font-size="10.00">/src/DigitalCurrentClusterIntegrator.cxx</text>
</a>
</g>
</g>
<!-- Node8&#45;&gt;Node12 -->
<g id="edge12" class="edge"><title>Node8&#45;&gt;Node12</title>
<path fill="none" stroke="midnightblue" d="M2130,-180.079C2130,-169.21 2130,-157.794 2130,-148.054"/>
<polygon fill="midnightblue" stroke="midnightblue" points="2126.5,-180.261 2130,-190.261 2133.5,-180.261 2126.5,-180.261"/>
</g>
<!-- Node9&#45;&gt;Node6 -->
<g id="edge10" class="edge"><title>Node9&#45;&gt;Node6</title>
<path fill="none" stroke="midnightblue" d="M2231.75,-89.7813C2191.92,-78.3735 2128.22,-63.4635 2072.77,-50.8772"/>
<polygon fill="midnightblue" stroke="midnightblue" points="2231.01,-93.2109 2241.59,-92.6769 2232.99,-86.4957 2231.01,-93.2109"/>
</g>
<!-- Node9&#45;&gt;Node10 -->
<g id="edge9" class="edge"><title>Node9&#45;&gt;Node10</title>
<path fill="none" stroke="midnightblue" d="M2271.62,-83.6542C2259.15,-73.3858 2245.92,-62.4973 2234.5,-53.1001"/>
<polygon fill="midnightblue" stroke="midnightblue" points="2269.74,-86.6383 2279.69,-90.2906 2274.19,-81.2334 2269.74,-86.6383"/>
</g>
<!-- Node9&#45;&gt;Node11 -->
<g id="edge11" class="edge"><title>Node9&#45;&gt;Node11</title>
<path fill="none" stroke="midnightblue" d="M2356.16,-83.0668C2366.58,-72.9716 2377.57,-62.3183 2387.09,-53.1001"/>
<polygon fill="midnightblue" stroke="midnightblue" points="2353.45,-80.8187 2348.7,-90.2906 2358.32,-85.8464 2353.45,-80.8187"/>
</g>
<!-- Node13&#45;&gt;Node5 -->
<g id="edge17" class="edge"><title>Node13&#45;&gt;Node5</title>
<path fill="none" stroke="midnightblue" d="M681.913,-190.002C644.806,-176.483 601.873,-160.842 566.824,-148.073"/>
<polygon fill="midnightblue" stroke="midnightblue" points="681.117,-193.437 691.711,-193.571 683.513,-186.86 681.117,-193.437"/>
</g>
<!-- Node14 -->
<g id="node14" class="node"><title>Node14</title>
<g id="a_node14"><a xlink:href="../../d1/d27/runCATracking_8C.html" target="_top" xlink:title="/home/travis/build\l/AliceO2Group/AliceO2\l/Detectors/TPC/reconstruction\l/macro/runCATracking.C">
<polygon fill="none" stroke="black" points="776,-96 776,-148 926,-148 926,-96 776,-96"/>
<text text-anchor="start" x="784" y="-136" font-family="Helvetica,sans-Serif" font-size="10.00">/home/travis/build</text>
<text text-anchor="start" x="784" y="-125" font-family="Helvetica,sans-Serif" font-size="10.00">/AliceO2Group/AliceO2</text>
<text text-anchor="start" x="784" y="-114" font-family="Helvetica,sans-Serif" font-size="10.00">/Detectors/TPC/reconstruction</text>
<text text-anchor="middle" x="851" y="-103" font-family="Helvetica,sans-Serif" font-size="10.00">/macro/runCATracking.C</text>
</a>
</g>
</g>
<!-- Node13&#45;&gt;Node14 -->
<g id="edge15" class="edge"><title>Node13&#45;&gt;Node14</title>
<path fill="none" stroke="midnightblue" d="M800.066,-182.423C809.972,-170.866 820.574,-158.497 829.526,-148.054"/>
<polygon fill="midnightblue" stroke="midnightblue" points="797.198,-180.391 793.348,-190.261 802.513,-184.946 797.198,-180.391"/>
</g>
<!-- Node16 -->
<g id="node16" class="node"><title>Node16</title>
<g id="a_node16"><a xlink:href="../../d8/ded/TPCCATracking_8cxx.html" target="_top" xlink:title="/home/travis/build\l/AliceO2Group/AliceO2\l/Detectors/TPC/reconstruction\l/src/TPCCATracking.cxx">
<polygon fill="none" stroke="black" points="608,-96 608,-148 758,-148 758,-96 608,-96"/>
<text text-anchor="start" x="616" y="-136" font-family="Helvetica,sans-Serif" font-size="10.00">/home/travis/build</text>
<text text-anchor="start" x="616" y="-125" font-family="Helvetica,sans-Serif" font-size="10.00">/AliceO2Group/AliceO2</text>
<text text-anchor="start" x="616" y="-114" font-family="Helvetica,sans-Serif" font-size="10.00">/Detectors/TPC/reconstruction</text>
<text text-anchor="middle" x="683" y="-103" font-family="Helvetica,sans-Serif" font-size="10.00">/src/TPCCATracking.cxx</text>
</a>
</g>
</g>
<!-- Node13&#45;&gt;Node16 -->
<g id="edge18" class="edge"><title>Node13&#45;&gt;Node16</title>
<path fill="none" stroke="midnightblue" d="M733.934,-182.423C724.028,-170.866 713.426,-158.497 704.474,-148.054"/>
<polygon fill="midnightblue" stroke="midnightblue" points="731.487,-184.946 740.652,-190.261 736.802,-180.391 731.487,-184.946"/>
</g>
<!-- Node15 -->
<g id="node15" class="node"><title>Node15</title>
<g id="a_node15"><a xlink:href="../../d3/d56/runTPC_8cxx.html" target="_top" xlink:title="/home/travis/build\l/AliceO2Group/AliceO2\l/run/runTPC.cxx">
<polygon fill="none" stroke="black" points="792,-6.5 792,-47.5 910,-47.5 910,-6.5 792,-6.5"/>
<text text-anchor="start" x="800" y="-35.5" font-family="Helvetica,sans-Serif" font-size="10.00">/home/travis/build</text>
<text text-anchor="start" x="800" y="-24.5" font-family="Helvetica,sans-Serif" font-size="10.00">/AliceO2Group/AliceO2</text>
<text text-anchor="middle" x="851" y="-13.5" font-family="Helvetica,sans-Serif" font-size="10.00">/run/runTPC.cxx</text>
</a>
</g>
</g>
<!-- Node14&#45;&gt;Node15 -->
<g id="edge16" class="edge"><title>Node14&#45;&gt;Node15</title>
<path fill="none" stroke="midnightblue" d="M851,-85.2578C851,-72.5353 851,-58.6761 851,-47.7798"/>
<polygon fill="midnightblue" stroke="midnightblue" points="847.5,-85.5873 851,-95.5873 854.5,-85.5874 847.5,-85.5873"/>
</g>
<!-- Node17&#45;&gt;Node5 -->
<g id="edge25" class="edge"><title>Node17&#45;&gt;Node5</title>
<path fill="none" stroke="midnightblue" d="M1185.42,-214.597C1030.41,-202.645 709.042,-176.145 599,-154 590.818,-152.354 582.355,-150.313 573.967,-148.071"/>
<polygon fill="midnightblue" stroke="midnightblue" points="1185.6,-218.121 1195.84,-215.397 1186.13,-211.141 1185.6,-218.121"/>
</g>
<!-- Node17&#45;&gt;Node14 -->
<g id="edge24" class="edge"><title>Node17&#45;&gt;Node14</title>
<path fill="none" stroke="midnightblue" d="M1185.92,-207.831C1117.47,-196.329 1019.16,-177.762 935,-154 928.717,-152.226 922.234,-150.2 915.787,-148.052"/>
<polygon fill="midnightblue" stroke="midnightblue" points="1185.36,-211.285 1195.8,-209.476 1186.51,-204.38 1185.36,-211.285"/>
</g>
<!-- Node17&#45;&gt;Node16 -->
<g id="edge27" class="edge"><title>Node17&#45;&gt;Node16</title>
<path fill="none" stroke="midnightblue" d="M1185.58,-215.433C1084.46,-207.52 911.547,-189.81 767,-154 760.21,-152.318 753.212,-150.269 746.288,-148.035"/>
<polygon fill="midnightblue" stroke="midnightblue" points="1185.5,-218.937 1195.74,-216.214 1186.04,-211.958 1185.5,-218.937"/>
</g>
<!-- Node18 -->
<g id="node18" class="node"><title>Node18</title>
<g id="a_node18"><a xlink:href="../../d9/d90/convertTracks_8C.html" target="_top" xlink:title="/home/travis/build\l/AliceO2Group/AliceO2\l/Detectors/TPC/reconstruction\l/macro/convertTracks.C">
<polygon fill="none" stroke="black" points="1624,-96 1624,-148 1774,-148 1774,-96 1624,-96"/>
<text text-anchor="start" x="1632" y="-136" font-family="Helvetica,sans-Serif" font-size="10.00">/home/travis/build</text>
<text text-anchor="start" x="1632" y="-125" font-family="Helvetica,sans-Serif" font-size="10.00">/AliceO2Group/AliceO2</text>
<text text-anchor="start" x="1632" y="-114" font-family="Helvetica,sans-Serif" font-size="10.00">/Detectors/TPC/reconstruction</text>
<text text-anchor="middle" x="1699" y="-103" font-family="Helvetica,sans-Serif" font-size="10.00">/macro/convertTracks.C</text>
</a>
</g>
</g>
<!-- Node17&#45;&gt;Node18 -->
<g id="edge20" class="edge"><title>Node17&#45;&gt;Node18</title>
<path fill="none" stroke="midnightblue" d="M1356.14,-208.186C1426.08,-196.751 1527.36,-178.1 1614,-154 1620.36,-152.232 1626.91,-150.21 1633.44,-148.064"/>
<polygon fill="midnightblue" stroke="midnightblue" points="1355.37,-204.766 1346.06,-209.82 1356.49,-211.675 1355.37,-204.766"/>
</g>
<!-- Node19 -->
<g id="node19" class="node"><title>Node19</title>
<g id="a_node19"><a xlink:href="../../d6/dee/dEdxRes_8C.html" target="_top" xlink:title="/home/travis/build\l/AliceO2Group/AliceO2\l/Detectors/TPC/reconstruction\l/macro/dEdxRes.C">
<polygon fill="none" stroke="black" points="1792,-96 1792,-148 1942,-148 1942,-96 1792,-96"/>
<text text-anchor="start" x="1800" y="-136" font-family="Helvetica,sans-Serif" font-size="10.00">/home/travis/build</text>
<text text-anchor="start" x="1800" y="-125" font-family="Helvetica,sans-Serif" font-size="10.00">/AliceO2Group/AliceO2</text>
<text text-anchor="start" x="1800" y="-114" font-family="Helvetica,sans-Serif" font-size="10.00">/Detectors/TPC/reconstruction</text>
<text text-anchor="middle" x="1867" y="-103" font-family="Helvetica,sans-Serif" font-size="10.00">/macro/dEdxRes.C</text>
</a>
</g>
</g>
<!-- Node17&#45;&gt;Node19 -->
<g id="edge21" class="edge"><title>Node17&#45;&gt;Node19</title>
<path fill="none" stroke="midnightblue" d="M1356.39,-215.551C1458.72,-207.709 1634.81,-190.027 1782,-154 1788.87,-152.32 1795.94,-150.272 1802.95,-148.038"/>
<polygon fill="midnightblue" stroke="midnightblue" points="1356.13,-212.061 1346.42,-216.302 1356.66,-219.042 1356.13,-212.061"/>
</g>
<!-- Node20 -->
<g id="node20" class="node"><title>Node20</title>
<g id="a_node20"><a xlink:href="../../d5/db8/RawClusterFinder_8C.html" target="_top" xlink:title="/home/travis/build\l/AliceO2Group/AliceO2\l/Detectors/TPC/reconstruction\l/macro/RawClusterFinder.C">
<polygon fill="none" stroke="black" points="944,-96 944,-148 1094,-148 1094,-96 944,-96"/>
<text text-anchor="start" x="952" y="-136" font-family="Helvetica,sans-Serif" font-size="10.00">/home/travis/build</text>
<text text-anchor="start" x="952" y="-125" font-family="Helvetica,sans-Serif" font-size="10.00">/AliceO2Group/AliceO2</text>
<text text-anchor="start" x="952" y="-114" font-family="Helvetica,sans-Serif" font-size="10.00">/Detectors/TPC/reconstruction</text>
<text text-anchor="middle" x="1019" y="-103" font-family="Helvetica,sans-Serif" font-size="10.00">/macro/RawClusterFinder.C</text>
</a>
</g>
</g>
<!-- Node17&#45;&gt;Node20 -->
<g id="edge22" class="edge"><title>Node17&#45;&gt;Node20</title>
<path fill="none" stroke="midnightblue" d="M1186.4,-188.1C1152.86,-175.058 1114.92,-160.303 1083.65,-148.142"/>
<polygon fill="midnightblue" stroke="midnightblue" points="1185.14,-191.367 1195.73,-191.73 1187.68,-184.843 1185.14,-191.367"/>
</g>
<!-- Node22 -->
<g id="node22" class="node"><title>Node22</title>
<g id="a_node22"><a xlink:href="../../db/d60/testTracks_8C.html" target="_top" xlink:title="/home/travis/build\l/AliceO2Group/AliceO2\l/Detectors/TPC/reconstruction\l/macro/testTracks.C">
<polygon fill="none" stroke="black" points="1112,-96 1112,-148 1262,-148 1262,-96 1112,-96"/>
<text text-anchor="start" x="1120" y="-136" font-family="Helvetica,sans-Serif" font-size="10.00">/home/travis/build</text>
<text text-anchor="start" x="1120" y="-125" font-family="Helvetica,sans-Serif" font-size="10.00">/AliceO2Group/AliceO2</text>
<text text-anchor="start" x="1120" y="-114" font-family="Helvetica,sans-Serif" font-size="10.00">/Detectors/TPC/reconstruction</text>
<text text-anchor="middle" x="1187" y="-103" font-family="Helvetica,sans-Serif" font-size="10.00">/macro/testTracks.C</text>
</a>
</g>
</g>
<!-- Node17&#45;&gt;Node22 -->
<g id="edge26" class="edge"><title>Node17&#45;&gt;Node22</title>
<path fill="none" stroke="midnightblue" d="M1237.93,-182.423C1228.03,-170.866 1217.43,-158.497 1208.47,-148.054"/>
<polygon fill="midnightblue" stroke="midnightblue" points="1235.49,-184.946 1244.65,-190.261 1240.8,-180.391 1235.49,-184.946"/>
</g>
<!-- Node23 -->
<g id="node23" class="node"><title>Node23</title>
<g id="a_node23"><a xlink:href="../../d6/da8/TrackTPC_8cxx.html" target="_top" xlink:title="Implementation of the TPC track. ">
<polygon fill="none" stroke="black" points="1280,-96 1280,-148 1430,-148 1430,-96 1280,-96"/>
<text text-anchor="start" x="1288" y="-136" font-family="Helvetica,sans-Serif" font-size="10.00">/home/travis/build</text>
<text text-anchor="start" x="1288" y="-125" font-family="Helvetica,sans-Serif" font-size="10.00">/AliceO2Group/AliceO2</text>
<text text-anchor="start" x="1288" y="-114" font-family="Helvetica,sans-Serif" font-size="10.00">/Detectors/TPC/reconstruction</text>
<text text-anchor="middle" x="1355" y="-103" font-family="Helvetica,sans-Serif" font-size="10.00">/src/TrackTPC.cxx</text>
</a>
</g>
</g>
<!-- Node17&#45;&gt;Node23 -->
<g id="edge28" class="edge"><title>Node17&#45;&gt;Node23</title>
<path fill="none" stroke="midnightblue" d="M1304.07,-182.423C1313.97,-170.866 1324.57,-158.497 1333.53,-148.054"/>
<polygon fill="midnightblue" stroke="midnightblue" points="1301.2,-180.391 1297.35,-190.261 1306.51,-184.946 1301.2,-180.391"/>
</g>
<!-- Node24 -->
<g id="node24" class="node"><title>Node24</title>
<g id="a_node24"><a xlink:href="../../d9/d59/testHitsDigitsClusters_8C.html" target="_top" xlink:title="/home/travis/build\l/AliceO2Group/AliceO2\l/Detectors/TPC/simulation\l/macro/testHitsDigitsClusters.C">
<polygon fill="none" stroke="black" points="1448.5,-96 1448.5,-148 1605.5,-148 1605.5,-96 1448.5,-96"/>
<text text-anchor="start" x="1456.5" y="-136" font-family="Helvetica,sans-Serif" font-size="10.00">/home/travis/build</text>
<text text-anchor="start" x="1456.5" y="-125" font-family="Helvetica,sans-Serif" font-size="10.00">/AliceO2Group/AliceO2</text>
<text text-anchor="start" x="1456.5" y="-114" font-family="Helvetica,sans-Serif" font-size="10.00">/Detectors/TPC/simulation</text>
<text text-anchor="middle" x="1527" y="-103" font-family="Helvetica,sans-Serif" font-size="10.00">/macro/testHitsDigitsClusters.C</text>
</a>
</g>
</g>
<!-- Node17&#45;&gt;Node24 -->
<g id="edge29" class="edge"><title>Node17&#45;&gt;Node24</title>
<path fill="none" stroke="midnightblue" d="M1355.66,-188.592C1390.1,-175.408 1429.29,-160.406 1461.48,-148.08"/>
<polygon fill="midnightblue" stroke="midnightblue" points="1354.17,-185.415 1346.08,-192.259 1356.67,-191.952 1354.17,-185.415"/>
</g>
<!-- Node21 -->
<g id="node21" class="node"><title>Node21</title>
<g id="a_node21"><a xlink:href="../../df/da0/runRawClusterFinder_8C.html" target="_top" xlink:title="/home/travis/build\l/AliceO2Group/AliceO2\l/Detectors/TPC/reconstruction\l/macro/runRawClusterFinder.C">
<polygon fill="none" stroke="black" points="943,-1 943,-53 1095,-53 1095,-1 943,-1"/>
<text text-anchor="start" x="951" y="-41" font-family="Helvetica,sans-Serif" font-size="10.00">/home/travis/build</text>
<text text-anchor="start" x="951" y="-30" font-family="Helvetica,sans-Serif" font-size="10.00">/AliceO2Group/AliceO2</text>
<text text-anchor="start" x="951" y="-19" font-family="Helvetica,sans-Serif" font-size="10.00">/Detectors/TPC/reconstruction</text>
<text text-anchor="middle" x="1019" y="-8" font-family="Helvetica,sans-Serif" font-size="10.00">/macro/runRawClusterFinder.C</text>
</a>
</g>
</g>
<!-- Node20&#45;&gt;Node21 -->
<g id="edge23" class="edge"><title>Node20&#45;&gt;Node21</title>
<path fill="none" stroke="midnightblue" d="M1019,-85.5493C1019,-74.7221 1019,-63.0464 1019,-53.0599"/>
<polygon fill="midnightblue" stroke="midnightblue" points="1015.5,-85.5873 1019,-95.5873 1022.5,-85.5874 1015.5,-85.5873"/>
</g>
</g>
</svg>
        <g id="navigator" transform="translate(0 0)" fill="#404254">
                <rect fill="#f2f5e9" fill-opacity="0.5" stroke="#606060" stroke-width=".5" x="0" y="0" width="60" height="60"/>
                <use id="zoomplus" xlink:href="#zoomPlus" x="17" y="9" onmousedown="handleZoom(evt,'in')"/>
                <use id="zoomminus" xlink:href="#zoomMin" x="42" y="9" onmousedown="handleZoom(evt,'out')"/>
                <use id="reset" xlink:href="#resetDef" x="30" y="36" onmousedown="handleReset()"/>
                <g id="arrowUp" xlink:href="#dirArrow" transform="translate(30 24)" onmousedown="handlePan(0,-1)">
                  <use xlink:href="#rim" fill="#404040">
                        <set attributeName="fill" to="#808080" begin="arrowUp.mouseover" end="arrowUp.mouseout"/>
                  </use>
                  <path fill="none" stroke="white" stroke-width="1.5" d="M0,-3.0v7 M-2.5,-0.5L0,-3.0L2.5,-0.5"/>
                </g>
                <g id="arrowRight" xlink:href="#dirArrow" transform="rotate(90) translate(36 -43)" onmousedown="handlePan(1,0)">
                  <use xlink:href="#rim" fill="#404040">
                        <set attributeName="fill" to="#808080" begin="arrowRight.mouseover" end="arrowRight.mouseout"/>
                  </use>
                  <path fill="none" stroke="white" stroke-width="1.5" d="M0,-3.0v7 M-2.5,-0.5L0,-3.0L2.5,-0.5"/>
                </g>
                <g id="arrowDown" xlink:href="#dirArrow" transform="rotate(180) translate(-30 -48)" onmousedown="handlePan(0,1)">
                  <use xlink:href="#rim" fill="#404040">
                        <set attributeName="fill" to="#808080" begin="arrowDown.mouseover" end="arrowDown.mouseout"/>
                  </use>
                  <path fill="none" stroke="white" stroke-width="1.5" d="M0,-3.0v7 M-2.5,-0.5L0,-3.0L2.5,-0.5"/>
                </g>
                <g id="arrowLeft" xlink:href="#dirArrow" transform="rotate(270) translate(-36 17)" onmousedown="handlePan(-1,0)">
                  <use xlink:href="#rim" fill="#404040">
                        <set attributeName="fill" to="#808080" begin="arrowLeft.mouseover" end="arrowLeft.mouseout"/>
                  </use>
                  <path fill="none" stroke="white" stroke-width="1.5" d="M0,-3.0v7 M-2.5,-0.5L0,-3.0L2.5,-0.5"/>
                </g>
        </g>
        <svg viewBox="0 0 15 15" width="100%" height="30px" preserveAspectRatio="xMaxYMin meet">
         <g id="arrow_out" transform="scale(0.3 0.3)">
          <a xlink:href="ClusterNative_8h__dep__incl_org.svg" target="_base">
           <rect id="button" ry="5" rx="5" y="6" x="6" height="38" width="38"
                fill="#f2f5e9" fill-opacity="0.5" stroke="#606060" stroke-width="1.0"/>
           <path id="arrow"
             d="M 11.500037,31.436501 C 11.940474,20.09759 22.043105,11.32322 32.158766,21.979434 L 37.068811,17.246167 C 37.068811,17.246167 37.088388,32 37.088388,32 L 22.160133,31.978069 C 22.160133,31.978069 26.997745,27.140456 26.997745,27.140456 C 18.528582,18.264221 13.291696,25.230495 11.500037,31.436501 z"
             style="fill:#404040;"/>
          </a>
         </g>
        </svg>
</svg>
