<?xml version="1.0" encoding="UTF-8" standalone="no"?>
<!DOCTYPE svg PUBLIC "-//W3C//DTD SVG 1.1//EN"
 "http://www.w3.org/Graphics/SVG/1.1/DTD/svg11.dtd">
<!-- Generated by graphviz version 2.36.0 (20140111.2315)
 -->
<!-- Title: /home/travis/build/AliceO2Group/AliceO2/Detectors/TPC/reconstruction/macro/readClusterMCtruth.C Pages: 1 -->
<svg width="691pt" height="254pt"
 viewBox="0.00 0.00 691.10 254.00" xmlns="http://www.w3.org/2000/svg" xmlns:xlink="http://www.w3.org/1999/xlink">
<g id="graph0" class="graph" transform="scale(1 1) rotate(0) translate(4 250)">
<title>/home/travis/build/AliceO2Group/AliceO2/Detectors/TPC/reconstruction/macro/readClusterMCtruth.C</title>
<!-- Node1 -->
<g id="node1" class="node"><title>Node1</title>
<polygon fill="#bfbfbf" stroke="black" points="267.317,-193 267.317,-245 417.317,-245 417.317,-193 267.317,-193"/>
<text text-anchor="start" x="275.317" y="-233" font-family="Helvetica,sans-Serif" font-size="10.00">/home/travis/build</text>
<text text-anchor="start" x="275.317" y="-222" font-family="Helvetica,sans-Serif" font-size="10.00">/AliceO2Group/AliceO2</text>
<text text-anchor="start" x="275.317" y="-211" font-family="Helvetica,sans-Serif" font-size="10.00">/Detectors/TPC/reconstruction</text>
<text text-anchor="middle" x="342.317" y="-200" font-family="Helvetica,sans-Serif" font-size="10.00">/macro/readClusterMCtruth.C</text>
</g>
<!-- Node2 -->
<g id="node2" class="node"><title>Node2</title>
<polygon fill="none" stroke="#bfbfbf" points="56.8174,-130.5 56.8174,-149.5 103.817,-149.5 103.817,-130.5 56.8174,-130.5"/>
<text text-anchor="middle" x="80.3174" y="-137.5" font-family="Helvetica,sans-Serif" font-size="10.00">TFile.h</text>
</g>
<!-- Node1&#45;&gt;Node2 -->
<g id="edge1" class="edge"><title>Node1&#45;&gt;Node2</title>
<path fill="none" stroke="midnightblue" d="M267.114,-200.906C221.964,-189.839 163.698,-174.135 113.317,-156 111.408,-155.313 109.456,-154.56 107.502,-153.771"/>
<polygon fill="midnightblue" stroke="midnightblue" points="108.479,-150.38 97.9102,-149.634 105.707,-156.808 108.479,-150.38"/>
</g>
<!-- Node3 -->
<g id="node3" class="node"><title>Node3</title>
<polygon fill="none" stroke="#bfbfbf" points="122.317,-130.5 122.317,-149.5 172.317,-149.5 172.317,-130.5 122.317,-130.5"/>
<text text-anchor="middle" x="147.317" y="-137.5" font-family="Helvetica,sans-Serif" font-size="10.00">TTree.h</text>
</g>
<!-- Node1&#45;&gt;Node3 -->
<g id="edge2" class="edge"><title>Node1&#45;&gt;Node3</title>
<path fill="none" stroke="midnightblue" d="M275.059,-192.922C246.089,-181.909 211.91,-168.63 181.317,-156 179.484,-155.243 177.6,-154.451 175.704,-153.644"/>
<polygon fill="midnightblue" stroke="midnightblue" points="176.877,-150.338 166.31,-149.571 174.092,-156.76 176.877,-150.338"/>
</g>
<!-- Node4 -->
<g id="node4" class="node"><title>Node4</title>
<g id="a_node4"><a xlink:href="../../d6/d6f/TPC_2reconstruction_2include_2TPCReconstruction_2Cluster_8h.html" target="_top" xlink:title="TPCReconstruction/Cluster.h">
<polygon fill="none" stroke="black" points="190.317,-130.5 190.317,-149.5 336.317,-149.5 336.317,-130.5 190.317,-130.5"/>
<text text-anchor="middle" x="263.317" y="-137.5" font-family="Helvetica,sans-Serif" font-size="10.00">TPCReconstruction/Cluster.h</text>
</a>
</g>
</g>
<!-- Node1&#45;&gt;Node4 -->
<g id="edge3" class="edge"><title>Node1&#45;&gt;Node4</title>
<path fill="none" stroke="midnightblue" d="M316.45,-192.787C304.258,-180.904 290.091,-167.096 279.453,-156.727"/>
<polygon fill="midnightblue" stroke="midnightblue" points="281.701,-154.031 272.097,-149.558 276.816,-159.044 281.701,-154.031"/>
</g>
<!-- Node8 -->
<g id="node8" class="node"><title>Node8</title>
<g id="a_node8"><a xlink:href="../../db/d14/MCTruthContainer_8h.html" target="_top" xlink:title="Definition of a container to keep Monte Carlo truth external to simulation objects. ">
<polygon fill="none" stroke="black" points="365.317,-125 365.317,-155 479.317,-155 479.317,-125 365.317,-125"/>
<text text-anchor="start" x="373.317" y="-143" font-family="Helvetica,sans-Serif" font-size="10.00">SimulationDataFormat</text>
<text text-anchor="middle" x="422.317" y="-132" font-family="Helvetica,sans-Serif" font-size="10.00">/MCTruthContainer.h</text>
</a>
</g>
</g>
<!-- Node1&#45;&gt;Node8 -->
<g id="edge8" class="edge"><title>Node1&#45;&gt;Node8</title>
<path fill="none" stroke="midnightblue" d="M368.512,-192.787C378.724,-182.959 390.304,-171.813 400.098,-162.386"/>
<polygon fill="midnightblue" stroke="midnightblue" points="402.732,-164.708 407.51,-155.252 397.878,-159.665 402.732,-164.708"/>
</g>
<!-- Node14 -->
<g id="node14" class="node"><title>Node14</title>
<g id="a_node14"><a xlink:href="../../d7/dcd/MCCompLabel_8h.html" target="_top" xlink:title="SimulationDataFormat\l/MCCompLabel.h">
<polygon fill="none" stroke="black" points="497.317,-125 497.317,-155 611.317,-155 611.317,-125 497.317,-125"/>
<text text-anchor="start" x="505.317" y="-143" font-family="Helvetica,sans-Serif" font-size="10.00">SimulationDataFormat</text>
<text text-anchor="middle" x="554.317" y="-132" font-family="Helvetica,sans-Serif" font-size="10.00">/MCCompLabel.h</text>
</a>
</g>
</g>
<!-- Node1&#45;&gt;Node14 -->
<g id="edge14" class="edge"><title>Node1&#45;&gt;Node14</title>
<path fill="none" stroke="midnightblue" d="M411.441,-192.894C442.354,-181.666 478.047,-168.702 506.025,-158.54"/>
<polygon fill="midnightblue" stroke="midnightblue" points="507.374,-161.774 515.579,-155.07 504.985,-155.194 507.374,-161.774"/>
</g>
<!-- Node15 -->
<g id="node15" class="node"><title>Node15</title>
<polygon fill="none" stroke="#bfbfbf" points="629.317,-130.5 629.317,-149.5 673.317,-149.5 673.317,-130.5 629.317,-130.5"/>
<text text-anchor="middle" x="651.317" y="-137.5" font-family="Helvetica,sans-Serif" font-size="10.00">vector</text>
</g>
<!-- Node1&#45;&gt;Node15 -->
<g id="edge16" class="edge"><title>Node1&#45;&gt;Node15</title>
<path fill="none" stroke="midnightblue" d="M417.367,-206.121C474.067,-195.988 553.303,-179.333 620.317,-156 622.223,-155.336 624.165,-154.587 626.101,-153.786"/>
<polygon fill="midnightblue" stroke="midnightblue" points="627.867,-156.828 635.528,-149.51 624.975,-150.454 627.867,-156.828"/>
</g>
<!-- Node5 -->
<g id="node5" class="node"><title>Node5</title>
<polygon fill="none" stroke="#bfbfbf" points="72.3174,-0.5 72.3174,-19.5 128.317,-19.5 128.317,-0.5 72.3174,-0.5"/>
<text text-anchor="middle" x="100.317" y="-7.5" font-family="Helvetica,sans-Serif" font-size="10.00">Rtypes.h</text>
</g>
<!-- Node4&#45;&gt;Node5 -->
<g id="edge4" class="edge"><title>Node4&#45;&gt;Node5</title>
<path fill="none" stroke="midnightblue" d="M216.341,-130.454C143.101,-117.023 9.66393,-92.0759 6.31737,-88 -2.7076,-77.0081 -1.26326,-68.0335 6.31737,-56 18.666,-36.3977 42.1787,-25.1466 62.5979,-18.7967"/>
<polygon fill="midnightblue" stroke="midnightblue" points="63.636,-22.1405 72.3109,-16.058 61.7363,-15.4032 63.636,-22.1405"/>
</g>
<!-- Node6 -->
<g id="node6" class="node"><title>Node6</title>
<g id="a_node6"><a xlink:href="../../df/d5d/common_2include_2CommonDataFormat_2TimeStamp_8h.html" target="_top" xlink:title="CommonDataFormat/TimeStamp.h">
<polygon fill="none" stroke="black" points="15.3174,-62.5 15.3174,-81.5 185.317,-81.5 185.317,-62.5 15.3174,-62.5"/>
<text text-anchor="middle" x="100.317" y="-69.5" font-family="Helvetica,sans-Serif" font-size="10.00">CommonDataFormat/TimeStamp.h</text>
</a>
</g>
</g>
<!-- Node4&#45;&gt;Node6 -->
<g id="edge5" class="edge"><title>Node4&#45;&gt;Node6</title>
<path fill="none" stroke="midnightblue" d="M242.008,-130.372C213.62,-118.877 163.217,-98.4687 130.809,-85.3465"/>
<polygon fill="midnightblue" stroke="midnightblue" points="131.956,-82.0349 121.374,-81.5259 129.329,-88.5232 131.956,-82.0349"/>
</g>
<!-- Node7 -->
<g id="node7" class="node"><title>Node7</title>
<polygon fill="none" stroke="#bfbfbf" points="203.817,-57 203.817,-87 298.817,-87 298.817,-57 203.817,-57"/>
<text text-anchor="start" x="211.817" y="-75" font-family="Helvetica,sans-Serif" font-size="10.00">boost/serialization</text>
<text text-anchor="middle" x="251.317" y="-64" font-family="Helvetica,sans-Serif" font-size="10.00">/base_object.hpp</text>
</g>
<!-- Node4&#45;&gt;Node7 -->
<g id="edge7" class="edge"><title>Node4&#45;&gt;Node7</title>
<path fill="none" stroke="midnightblue" d="M261.749,-130.372C260.221,-121.971 257.828,-108.811 255.72,-97.2126"/>
<polygon fill="midnightblue" stroke="midnightblue" points="259.128,-96.394 253.896,-87.1815 252.241,-97.6463 259.128,-96.394"/>
</g>
<!-- Node6&#45;&gt;Node5 -->
<g id="edge6" class="edge"><title>Node6&#45;&gt;Node5</title>
<path fill="none" stroke="midnightblue" d="M100.317,-62.4035C100.317,-53.9381 100.317,-40.7283 100.317,-29.8199"/>
<polygon fill="midnightblue" stroke="midnightblue" points="103.817,-29.5806 100.317,-19.5806 96.8175,-29.5806 103.817,-29.5806"/>
</g>
<!-- Node9 -->
<g id="node9" class="node"><title>Node9</title>
<polygon fill="none" stroke="#bfbfbf" points="317.317,-62.5 317.317,-81.5 379.317,-81.5 379.317,-62.5 317.317,-62.5"/>
<text text-anchor="middle" x="348.317" y="-69.5" font-family="Helvetica,sans-Serif" font-size="10.00">TNamed.h</text>
</g>
<!-- Node8&#45;&gt;Node9 -->
<g id="edge9" class="edge"><title>Node8&#45;&gt;Node9</title>
<path fill="none" stroke="midnightblue" d="M406.26,-124.679C394.38,-114.082 378.203,-99.6546 365.961,-88.7362"/>
<polygon fill="midnightblue" stroke="midnightblue" points="368.008,-85.8724 358.216,-81.8283 363.349,-91.0965 368.008,-85.8724"/>
</g>
<!-- Node10 -->
<g id="node10" class="node"><title>Node10</title>
<polygon fill="none" stroke="#bfbfbf" points="397.817,-62.5 397.817,-81.5 446.817,-81.5 446.817,-62.5 397.817,-62.5"/>
<text text-anchor="middle" x="422.317" y="-69.5" font-family="Helvetica,sans-Serif" font-size="10.00">cassert</text>
</g>
<!-- Node8&#45;&gt;Node10 -->
<g id="edge10" class="edge"><title>Node8&#45;&gt;Node10</title>
<path fill="none" stroke="midnightblue" d="M422.317,-124.679C422.317,-115.101 422.317,-102.394 422.317,-91.9766"/>
<polygon fill="midnightblue" stroke="midnightblue" points="425.817,-91.8283 422.317,-81.8283 418.817,-91.8283 425.817,-91.8283"/>
</g>
<!-- Node11 -->
<g id="node11" class="node"><title>Node11</title>
<polygon fill="none" stroke="#bfbfbf" points="464.817,-62.5 464.817,-81.5 523.817,-81.5 523.817,-62.5 464.817,-62.5"/>
<text text-anchor="middle" x="494.317" y="-69.5" font-family="Helvetica,sans-Serif" font-size="10.00">stdexcept</text>
</g>
<!-- Node8&#45;&gt;Node11 -->
<g id="edge11" class="edge"><title>Node8&#45;&gt;Node11</title>
<path fill="none" stroke="midnightblue" d="M437.94,-124.679C449.5,-114.082 465.24,-99.6546 477.151,-88.7362"/>
<polygon fill="midnightblue" stroke="midnightblue" points="479.68,-91.1656 484.686,-81.8283 474.95,-86.0055 479.68,-91.1656"/>
</g>
<!-- Node12 -->
<g id="node12" class="node"><title>Node12</title>
<polygon fill="none" stroke="#bfbfbf" points="541.817,-62.5 541.817,-81.5 586.817,-81.5 586.817,-62.5 541.817,-62.5"/>
<text text-anchor="middle" x="564.317" y="-69.5" font-family="Helvetica,sans-Serif" font-size="10.00">gsl/gsl</text>
</g>
<!-- Node8&#45;&gt;Node12 -->
<g id="edge12" class="edge"><title>Node8&#45;&gt;Node12</title>
<path fill="none" stroke="midnightblue" d="M452.682,-124.964C474.779,-114.739 505.417,-100.541 532.317,-88 533.708,-87.3519 535.132,-86.6873 536.569,-86.0156"/>
<polygon fill="midnightblue" stroke="midnightblue" points="538.474,-88.9888 546.048,-81.5801 535.507,-82.6486 538.474,-88.9888"/>
</g>
<!-- Node13 -->
<g id="node13" class="node"><title>Node13</title>
<polygon fill="none" stroke="#bfbfbf" points="605.317,-62.5 605.317,-81.5 667.317,-81.5 667.317,-62.5 605.317,-62.5"/>
<text text-anchor="middle" x="636.317" y="-69.5" font-family="Helvetica,sans-Serif" font-size="10.00">type_traits</text>
</g>
<!-- Node8&#45;&gt;Node13 -->
<g id="edge13" class="edge"><title>Node8&#45;&gt;Node13</title>
<path fill="none" stroke="midnightblue" d="M473.301,-124.898C507.898,-115.102 554.579,-101.442 595.317,-88 598.246,-87.0337 601.279,-85.9957 604.31,-84.9331"/>
<polygon fill="midnightblue" stroke="midnightblue" points="605.619,-88.1822 613.851,-81.5132 603.257,-81.5927 605.619,-88.1822"/>
</g>
<!-- Node14&#45;&gt;Node5 -->
<g id="edge15" class="edge"><title>Node14&#45;&gt;Node5</title>
<path fill="none" stroke="midnightblue" d="M605.532,-124.952C649.816,-110.397 702.731,-85.6434 675.317,-56 638.943,-16.6677 261.534,-11.6486 138.711,-11.0603"/>
<polygon fill="midnightblue" stroke="midnightblue" points="138.65,-7.56013 128.636,-11.0194 138.621,-14.5601 138.65,-7.56013"/>
</g>
</g>
</svg>
