<?xml version="1.0" encoding="UTF-8" standalone="no"?>
<!DOCTYPE svg PUBLIC "-//W3C//DTD SVG 1.1//EN"
 "http://www.w3.org/Graphics/SVG/1.1/DTD/svg11.dtd">
<!-- Generated by graphviz version 2.36.0 (20140111.2315)
 -->
<!-- Title: /home/travis/build/AliceO2Group/AliceO2/Detectors/TPC/reconstruction/macro/convertClusterToClusterHardware.C Pages: 1 -->
<!--zoomable 514 -->
<svg id="main" version="1.1" xmlns="http://www.w3.org/2000/svg" xmlns:xlink="http://www.w3.org/1999/xlink" xml:space="preserve" onload="init(evt)">
<style type="text/css"><![CDATA[
.edge:hover path { stroke: red; }
.edge:hover polygon { stroke: red; fill: red; }
]]></style>
<script type="text/javascript"><![CDATA[
var edges = document.getElementsByTagName('g');
if (edges && edges.length) {
  for (var i=0;i<edges.length;i++) {
    if (edges[i].id.substr(0,4)=='edge') {
      edges[i].setAttribute('class','edge');
    }
  }
}
]]></script>
        <defs>
                <circle id="rim" cx="0" cy="0" r="7"/>
                <circle id="rim2" cx="0" cy="0" r="3.5"/>
                <g id="zoomPlus">
                        <use xlink:href="#rim" fill="#404040">
                                <set attributeName="fill" to="#808080" begin="zoomplus.mouseover" end="zoomplus.mouseout"/>
                        </use>
                        <path d="M-4,0h8M0,-4v8" fill="none" stroke="white" stroke-width="1.5" pointer-events="none"/>
                </g>
                <g id="zoomMin">
                        <use xlink:href="#rim" fill="#404040">
                                <set attributeName="fill" to="#808080" begin="zoomminus.mouseover" end="zoomminus.mouseout"/>
                        </use>
                        <path d="M-4,0h8" fill="none" stroke="white" stroke-width="1.5" pointer-events="none"/>
                </g>
                <g id="dirArrow">
                        <path fill="none" stroke="white" stroke-width="1.5" d="M0,-3.0v7 M-2.5,-0.5L0,-3.0L2.5,-0.5"/>
                </g>
               <g id="resetDef">
                       <use xlink:href="#rim2" fill="#404040">
                               <set attributeName="fill" to="#808080" begin="reset.mouseover" end="reset.mouseout"/>
                       </use>
               </g>
        </defs>

<script type="text/javascript">
var viewWidth = 1899;
var viewHeight = 514;
var sectionId = 'dynsection-0';
</script>
<script xlink:href="../../svgpan.js"/>
<svg id="graph" class="graph">
<g id="viewport">
<title>/home/travis/build/AliceO2Group/AliceO2/Detectors/TPC/reconstruction/macro/convertClusterToClusterHardware.C</title>
<!-- Node1 -->
<g id="node1" class="node"><title>Node1</title>
<polygon fill="#bfbfbf" stroke="black" points="1039.5,-453 1039.5,-505 1248.5,-505 1248.5,-453 1039.5,-453"/>
<text text-anchor="start" x="1047.5" y="-493" font-family="Helvetica,sans-Serif" font-size="10.00">/home/travis/build</text>
<text text-anchor="start" x="1047.5" y="-482" font-family="Helvetica,sans-Serif" font-size="10.00">/AliceO2Group/AliceO2</text>
<text text-anchor="start" x="1047.5" y="-471" font-family="Helvetica,sans-Serif" font-size="10.00">/Detectors/TPC/reconstruction</text>
<text text-anchor="middle" x="1144" y="-460" font-family="Helvetica,sans-Serif" font-size="10.00">/macro/convertClusterToClusterHardware.C</text>
</g>
<!-- Node2 -->
<g id="node2" class="node"><title>Node2</title>
<polygon fill="none" stroke="#bfbfbf" points="360,-266.5 360,-285.5 404,-285.5 404,-266.5 360,-266.5"/>
<text text-anchor="middle" x="382" y="-273.5" font-family="Helvetica,sans-Serif" font-size="10.00">vector</text>
</g>
<!-- Node1&#45;&gt;Node2 -->
<g id="edge1" class="edge"><title>Node1&#45;&gt;Node2</title>
<path fill="none" stroke="midnightblue" d="M1039.36,-476.75C913.098,-473.181 695.2,-460.404 514,-416 435.363,-396.73 390.322,-415.089 345,-348 332.808,-329.953 349.402,-307.4 364.111,-292.617"/>
<polygon fill="midnightblue" stroke="midnightblue" points="366.607,-295.074 371.469,-285.66 361.798,-289.988 366.607,-295.074"/>
</g>
<!-- Node3 -->
<g id="node3" class="node"><title>Node3</title>
<polygon fill="none" stroke="#bfbfbf" points="1146,-390.5 1146,-409.5 1196,-409.5 1196,-390.5 1146,-390.5"/>
<text text-anchor="middle" x="1171" y="-397.5" font-family="Helvetica,sans-Serif" font-size="10.00">fstream</text>
</g>
<!-- Node1&#45;&gt;Node3 -->
<g id="edge2" class="edge"><title>Node1&#45;&gt;Node3</title>
<path fill="none" stroke="midnightblue" d="M1152.84,-452.787C1156.68,-441.836 1161.09,-429.25 1164.61,-419.228"/>
<polygon fill="midnightblue" stroke="midnightblue" points="1167.99,-420.153 1168,-409.558 1161.39,-417.836 1167.99,-420.153"/>
</g>
<!-- Node4 -->
<g id="node4" class="node"><title>Node4</title>
<polygon fill="none" stroke="#bfbfbf" points="1224,-74.5 1224,-93.5 1278,-93.5 1278,-74.5 1224,-74.5"/>
<text text-anchor="middle" x="1251" y="-81.5" font-family="Helvetica,sans-Serif" font-size="10.00">iostream</text>
</g>
<!-- Node1&#45;&gt;Node4 -->
<g id="edge3" class="edge"><title>Node1&#45;&gt;Node4</title>
<path fill="none" stroke="midnightblue" d="M1110.04,-452.799C1080.36,-427.626 1042,-385.994 1042,-339 1042,-339 1042,-339 1042,-213 1042,-154.05 1099.54,-166.485 1150,-136 1173.8,-121.618 1202.17,-107.546 1222.77,-97.8385"/>
<polygon fill="midnightblue" stroke="midnightblue" points="1224.34,-100.968 1231.93,-93.5712 1221.38,-94.6237 1224.34,-100.968"/>
</g>
<!-- Node5 -->
<g id="node5" class="node"><title>Node5</title>
<polygon fill="none" stroke="#bfbfbf" points="1214.5,-390.5 1214.5,-409.5 1279.5,-409.5 1279.5,-390.5 1214.5,-390.5"/>
<text text-anchor="middle" x="1247" y="-397.5" font-family="Helvetica,sans-Serif" font-size="10.00">TSystem.h</text>
</g>
<!-- Node1&#45;&gt;Node5 -->
<g id="edge4" class="edge"><title>Node1&#45;&gt;Node5</title>
<path fill="none" stroke="midnightblue" d="M1177.73,-452.787C1194.09,-440.554 1213.18,-426.282 1227.17,-415.821"/>
<polygon fill="midnightblue" stroke="midnightblue" points="1229.64,-418.349 1235.55,-409.558 1225.45,-412.742 1229.64,-418.349"/>
</g>
<!-- Node6 -->
<g id="node6" class="node"><title>Node6</title>
<polygon fill="none" stroke="#bfbfbf" points="1297.5,-390.5 1297.5,-409.5 1356.5,-409.5 1356.5,-390.5 1297.5,-390.5"/>
<text text-anchor="middle" x="1327" y="-397.5" font-family="Helvetica,sans-Serif" font-size="10.00">TROOT.h</text>
</g>
<!-- Node1&#45;&gt;Node6 -->
<g id="edge5" class="edge"><title>Node1&#45;&gt;Node6</title>
<path fill="none" stroke="midnightblue" d="M1203.67,-452.894C1234.97,-439.721 1271.96,-424.158 1297.21,-413.535"/>
<polygon fill="midnightblue" stroke="midnightblue" points="1298.74,-416.687 1306.6,-409.583 1296.03,-410.235 1298.74,-416.687"/>
</g>
<!-- Node7 -->
<g id="node7" class="node"><title>Node7</title>
<polygon fill="none" stroke="#bfbfbf" points="1374.5,-390.5 1374.5,-409.5 1421.5,-409.5 1421.5,-390.5 1374.5,-390.5"/>
<text text-anchor="middle" x="1398" y="-397.5" font-family="Helvetica,sans-Serif" font-size="10.00">TFile.h</text>
</g>
<!-- Node1&#45;&gt;Node7 -->
<g id="edge6" class="edge"><title>Node1&#45;&gt;Node7</title>
<path fill="none" stroke="midnightblue" d="M1245.7,-452.968C1283.56,-442.739 1326.63,-430.009 1365,-416 1366.91,-415.304 1368.86,-414.545 1370.81,-413.751"/>
<polygon fill="midnightblue" stroke="midnightblue" points="1372.61,-416.786 1380.4,-409.603 1369.83,-410.361 1372.61,-416.786"/>
</g>
<!-- Node8 -->
<g id="node8" class="node"><title>Node8</title>
<polygon fill="none" stroke="#bfbfbf" points="1440,-390.5 1440,-409.5 1496,-409.5 1496,-390.5 1440,-390.5"/>
<text text-anchor="middle" x="1468" y="-397.5" font-family="Helvetica,sans-Serif" font-size="10.00">TString.h</text>
</g>
<!-- Node1&#45;&gt;Node8 -->
<g id="edge7" class="edge"><title>Node1&#45;&gt;Node8</title>
<path fill="none" stroke="midnightblue" d="M1248.63,-459.555C1303.23,-448.868 1370.81,-433.968 1430,-416 1432.8,-415.15 1435.68,-414.185 1438.55,-413.163"/>
<polygon fill="midnightblue" stroke="midnightblue" points="1439.98,-416.365 1448.1,-409.559 1437.51,-409.816 1439.98,-416.365"/>
</g>
<!-- Node9 -->
<g id="node9" class="node"><title>Node9</title>
<polygon fill="none" stroke="#bfbfbf" points="1514,-390.5 1514,-409.5 1570,-409.5 1570,-390.5 1514,-390.5"/>
<text text-anchor="middle" x="1542" y="-397.5" font-family="Helvetica,sans-Serif" font-size="10.00">TChain.h</text>
</g>
<!-- Node1&#45;&gt;Node9 -->
<g id="edge8" class="edge"><title>Node1&#45;&gt;Node9</title>
<path fill="none" stroke="midnightblue" d="M1248.84,-465.733C1321.34,-455.849 1419.57,-439.661 1504,-416 1506.98,-415.166 1510.04,-414.18 1513.08,-413.12"/>
<polygon fill="midnightblue" stroke="midnightblue" points="1514.41,-416.36 1522.54,-409.569 1511.95,-409.806 1514.41,-416.36"/>
</g>
<!-- Node10 -->
<g id="node10" class="node"><title>Node10</title>
<polygon fill="none" stroke="#bfbfbf" points="1588,-390.5 1588,-409.5 1638,-409.5 1638,-390.5 1588,-390.5"/>
<text text-anchor="middle" x="1613" y="-397.5" font-family="Helvetica,sans-Serif" font-size="10.00">TTree.h</text>
</g>
<!-- Node1&#45;&gt;Node10 -->
<g id="edge9" class="edge"><title>Node1&#45;&gt;Node10</title>
<path fill="none" stroke="midnightblue" d="M1248.62,-470.808C1337.53,-462.867 1467.89,-446.877 1578,-416 1580.65,-415.256 1583.37,-414.356 1586.06,-413.372"/>
<polygon fill="midnightblue" stroke="midnightblue" points="1587.56,-416.543 1595.52,-409.559 1584.94,-410.051 1587.56,-416.543"/>
</g>
<!-- Node11 -->
<g id="node11" class="node"><title>Node11</title>
<g id="a_node11"><a xlink:href="../../db/d14/MCTruthContainer_8h.html" target="_top" xlink:title="Definition of a container to keep Monte Carlo truth external to simulation objects. ">
<polygon fill="none" stroke="black" points="1656,-385 1656,-415 1770,-415 1770,-385 1656,-385"/>
<text text-anchor="start" x="1664" y="-403" font-family="Helvetica,sans-Serif" font-size="10.00">SimulationDataFormat</text>
<text text-anchor="middle" x="1713" y="-392" font-family="Helvetica,sans-Serif" font-size="10.00">/MCTruthContainer.h</text>
</a>
</g>
</g>
<!-- Node1&#45;&gt;Node11 -->
<g id="edge10" class="edge"><title>Node1&#45;&gt;Node11</title>
<path fill="none" stroke="midnightblue" d="M1248.98,-468.174C1348.66,-458.129 1502.84,-440.74 1645.58,-416.146"/>
<polygon fill="midnightblue" stroke="midnightblue" points="1646.58,-419.524 1655.83,-414.363 1645.38,-412.628 1646.58,-419.524"/>
</g>
<!-- Node17 -->
<g id="node17" class="node"><title>Node17</title>
<g id="a_node17"><a xlink:href="../../d7/dcd/MCCompLabel_8h.html" target="_top" xlink:title="SimulationDataFormat\l/MCCompLabel.h">
<polygon fill="none" stroke="black" points="1070,-261 1070,-291 1184,-291 1184,-261 1070,-261"/>
<text text-anchor="start" x="1078" y="-279" font-family="Helvetica,sans-Serif" font-size="10.00">SimulationDataFormat</text>
<text text-anchor="middle" x="1127" y="-268" font-family="Helvetica,sans-Serif" font-size="10.00">/MCCompLabel.h</text>
</a>
</g>
</g>
<!-- Node1&#45;&gt;Node17 -->
<g id="edge16" class="edge"><title>Node1&#45;&gt;Node17</title>
<path fill="none" stroke="midnightblue" d="M1123.06,-452.801C1115.5,-442.136 1107.87,-429.148 1104,-416 1092.3,-376.296 1106.12,-328.347 1116.83,-300.402"/>
<polygon fill="midnightblue" stroke="midnightblue" points="1120.1,-301.648 1120.58,-291.064 1113.61,-299.037 1120.1,-301.648"/>
</g>
<!-- Node19 -->
<g id="node19" class="node"><title>Node19</title>
<g id="a_node19"><a xlink:href="../../d3/dc4/ClusterHardware_8h.html" target="_top" xlink:title="Class of a TPC cluster as produced by the hardware cluster finder (needs a postprocessing step to con...">
<polygon fill="none" stroke="black" points="608.5,-328.5 608.5,-347.5 787.5,-347.5 787.5,-328.5 608.5,-328.5"/>
<text text-anchor="middle" x="698" y="-335.5" font-family="Helvetica,sans-Serif" font-size="10.00">DataFormatsTPC/ClusterHardware.h</text>
</a>
</g>
</g>
<!-- Node1&#45;&gt;Node19 -->
<g id="edge18" class="edge"><title>Node1&#45;&gt;Node19</title>
<path fill="none" stroke="midnightblue" d="M1039.43,-471.463C969.809,-464.161 877.596,-448.706 802,-416 767.18,-400.935 733.043,-372.239 713.839,-354.451"/>
<polygon fill="midnightblue" stroke="midnightblue" points="716.234,-351.898 706.565,-347.567 711.423,-356.982 716.234,-351.898"/>
</g>
<!-- Node21 -->
<g id="node21" class="node"><title>Node21</title>
<g id="a_node21"><a xlink:href="../../db/df1/Helpers_8h.html" target="_top" xlink:title="Helper class for memory management of TPC Data Formats, external from the actual data type classes to...">
<polygon fill="none" stroke="black" points="523.5,-390.5 523.5,-409.5 662.5,-409.5 662.5,-390.5 523.5,-390.5"/>
<text text-anchor="middle" x="593" y="-397.5" font-family="Helvetica,sans-Serif" font-size="10.00">DataFormatsTPC/Helpers.h</text>
</a>
</g>
</g>
<!-- Node1&#45;&gt;Node21 -->
<g id="edge20" class="edge"><title>Node1&#45;&gt;Node21</title>
<path fill="none" stroke="midnightblue" d="M1039.39,-463.381C929.471,-448.02 759.572,-424.278 664.209,-410.951"/>
<polygon fill="midnightblue" stroke="midnightblue" points="664.476,-407.455 654.088,-409.537 663.507,-414.387 664.476,-407.455"/>
</g>
<!-- Node24 -->
<g id="node24" class="node"><title>Node24</title>
<g id="a_node24"><a xlink:href="../../d6/d51/TPC_2base_2include_2TPCBase_2Constants_8h.html" target="_top" xlink:title="TPCBase/Constants.h">
<polygon fill="none" stroke="black" points="730,-204.5 730,-223.5 846,-223.5 846,-204.5 730,-204.5"/>
<text text-anchor="middle" x="788" y="-211.5" font-family="Helvetica,sans-Serif" font-size="10.00">TPCBase/Constants.h</text>
</a>
</g>
</g>
<!-- Node1&#45;&gt;Node24 -->
<g id="edge32" class="edge"><title>Node1&#45;&gt;Node24</title>
<path fill="none" stroke="midnightblue" d="M1039.36,-472.009C990.324,-464.577 933.673,-448.831 892,-416 830.783,-367.771 801.995,-273.612 792.133,-233.651"/>
<polygon fill="midnightblue" stroke="midnightblue" points="795.537,-232.834 789.843,-223.9 788.722,-234.435 795.537,-232.834"/>
</g>
<!-- Node25 -->
<g id="node25" class="node"><title>Node25</title>
<g id="a_node25"><a xlink:href="../../d6/d6f/TPC_2reconstruction_2include_2TPCReconstruction_2Cluster_8h.html" target="_top" xlink:title="TPCReconstruction/Cluster.h">
<polygon fill="none" stroke="black" points="1161,-204.5 1161,-223.5 1307,-223.5 1307,-204.5 1161,-204.5"/>
<text text-anchor="middle" x="1234" y="-211.5" font-family="Helvetica,sans-Serif" font-size="10.00">TPCReconstruction/Cluster.h</text>
</a>
</g>
</g>
<!-- Node1&#45;&gt;Node25 -->
<g id="edge27" class="edge"><title>Node1&#45;&gt;Node25</title>
<path fill="none" stroke="midnightblue" d="M1137.5,-452.796C1133.65,-433.596 1130.64,-406.69 1137,-384 1149.92,-337.91 1169.3,-333.588 1193,-292 1204.44,-271.924 1216.81,-248.426 1224.93,-232.718"/>
<polygon fill="midnightblue" stroke="midnightblue" points="1228.15,-234.127 1229.61,-223.633 1221.92,-230.924 1228.15,-234.127"/>
</g>
<!-- Node28 -->
<g id="node28" class="node"><title>Node28</title>
<g id="a_node28"><a xlink:href="../../df/d26/CRU_8h.html" target="_top" xlink:title="TPCBase/CRU.h">
<polygon fill="none" stroke="black" points="901.5,-390.5 901.5,-409.5 994.5,-409.5 994.5,-390.5 901.5,-390.5"/>
<text text-anchor="middle" x="948" y="-397.5" font-family="Helvetica,sans-Serif" font-size="10.00">TPCBase/CRU.h</text>
</a>
</g>
</g>
<!-- Node1&#45;&gt;Node28 -->
<g id="edge33" class="edge"><title>Node1&#45;&gt;Node28</title>
<path fill="none" stroke="midnightblue" d="M1080.09,-452.894C1046.27,-439.604 1006.25,-423.883 979.192,-413.254"/>
<polygon fill="midnightblue" stroke="midnightblue" points="980.434,-409.982 969.847,-409.583 977.874,-416.497 980.434,-409.982"/>
</g>
<!-- Node12 -->
<g id="node12" class="node"><title>Node12</title>
<polygon fill="none" stroke="#bfbfbf" points="1762,-328.5 1762,-347.5 1824,-347.5 1824,-328.5 1762,-328.5"/>
<text text-anchor="middle" x="1793" y="-335.5" font-family="Helvetica,sans-Serif" font-size="10.00">TNamed.h</text>
</g>
<!-- Node11&#45;&gt;Node12 -->
<g id="edge11" class="edge"><title>Node11&#45;&gt;Node12</title>
<path fill="none" stroke="midnightblue" d="M1731.96,-384.781C1744.42,-375.433 1760.7,-363.227 1773.31,-353.77"/>
<polygon fill="midnightblue" stroke="midnightblue" points="1775.46,-356.531 1781.36,-347.731 1771.26,-350.931 1775.46,-356.531"/>
</g>
<!-- Node13 -->
<g id="node13" class="node"><title>Node13</title>
<polygon fill="none" stroke="#bfbfbf" points="1842.5,-328.5 1842.5,-347.5 1891.5,-347.5 1891.5,-328.5 1842.5,-328.5"/>
<text text-anchor="middle" x="1867" y="-335.5" font-family="Helvetica,sans-Serif" font-size="10.00">cassert</text>
</g>
<!-- Node11&#45;&gt;Node13 -->
<g id="edge12" class="edge"><title>Node11&#45;&gt;Node13</title>
<path fill="none" stroke="midnightblue" d="M1749.11,-384.933C1775.32,-374.72 1810.44,-361.036 1835.52,-351.266"/>
<polygon fill="midnightblue" stroke="midnightblue" points="1836.88,-354.492 1844.93,-347.6 1834.34,-347.969 1836.88,-354.492"/>
</g>
<!-- Node14 -->
<g id="node14" class="node"><title>Node14</title>
<polygon fill="none" stroke="#bfbfbf" points="1541.5,-328.5 1541.5,-347.5 1600.5,-347.5 1600.5,-328.5 1541.5,-328.5"/>
<text text-anchor="middle" x="1571" y="-335.5" font-family="Helvetica,sans-Serif" font-size="10.00">stdexcept</text>
</g>
<!-- Node11&#45;&gt;Node14 -->
<g id="edge13" class="edge"><title>Node11&#45;&gt;Node14</title>
<path fill="none" stroke="midnightblue" d="M1679.71,-384.933C1655.75,-374.81 1623.72,-361.278 1600.65,-351.527"/>
<polygon fill="midnightblue" stroke="midnightblue" points="1601.93,-348.268 1591.35,-347.6 1599.2,-354.716 1601.93,-348.268"/>
</g>
<!-- Node15 -->
<g id="node15" class="node"><title>Node15</title>
<polygon fill="none" stroke="#bfbfbf" points="1618.5,-328.5 1618.5,-347.5 1663.5,-347.5 1663.5,-328.5 1618.5,-328.5"/>
<text text-anchor="middle" x="1641" y="-335.5" font-family="Helvetica,sans-Serif" font-size="10.00">gsl/gsl</text>
</g>
<!-- Node11&#45;&gt;Node15 -->
<g id="edge14" class="edge"><title>Node11&#45;&gt;Node15</title>
<path fill="none" stroke="midnightblue" d="M1695.94,-384.781C1684.94,-375.613 1670.63,-363.696 1659.38,-354.319"/>
<polygon fill="midnightblue" stroke="midnightblue" points="1661.4,-351.444 1651.48,-347.731 1656.92,-356.821 1661.4,-351.444"/>
</g>
<!-- Node16 -->
<g id="node16" class="node"><title>Node16</title>
<polygon fill="none" stroke="#bfbfbf" points="1682,-328.5 1682,-347.5 1744,-347.5 1744,-328.5 1682,-328.5"/>
<text text-anchor="middle" x="1713" y="-335.5" font-family="Helvetica,sans-Serif" font-size="10.00">type_traits</text>
</g>
<!-- Node11&#45;&gt;Node16 -->
<g id="edge15" class="edge"><title>Node11&#45;&gt;Node16</title>
<path fill="none" stroke="midnightblue" d="M1713,-384.781C1713,-376.781 1713,-366.689 1713,-358.017"/>
<polygon fill="midnightblue" stroke="midnightblue" points="1716.5,-357.73 1713,-347.731 1709.5,-357.731 1716.5,-357.73"/>
</g>
<!-- Node18 -->
<g id="node18" class="node"><title>Node18</title>
<polygon fill="none" stroke="#bfbfbf" points="1296,-74.5 1296,-93.5 1352,-93.5 1352,-74.5 1296,-74.5"/>
<text text-anchor="middle" x="1324" y="-81.5" font-family="Helvetica,sans-Serif" font-size="10.00">Rtypes.h</text>
</g>
<!-- Node17&#45;&gt;Node18 -->
<g id="edge17" class="edge"><title>Node17&#45;&gt;Node18</title>
<path fill="none" stroke="midnightblue" d="M1127.85,-260.586C1130.29,-232.605 1139.6,-170.644 1175,-136 1212.37,-99.4279 1237.85,-117.834 1287,-100 1289.39,-99.1311 1291.86,-98.2026 1294.34,-97.2495"/>
<polygon fill="midnightblue" stroke="midnightblue" points="1295.74,-100.459 1303.75,-93.5254 1293.16,-93.9505 1295.74,-100.459"/>
</g>
<!-- Node20 -->
<g id="node20" class="node"><title>Node20</title>
<polygon fill="none" stroke="#bfbfbf" points="595,-266.5 595,-285.5 641,-285.5 641,-266.5 595,-266.5"/>
<text text-anchor="middle" x="618" y="-273.5" font-family="Helvetica,sans-Serif" font-size="10.00">cstdint</text>
</g>
<!-- Node19&#45;&gt;Node20 -->
<g id="edge19" class="edge"><title>Node19&#45;&gt;Node20</title>
<path fill="none" stroke="midnightblue" d="M686.538,-328.403C673.825,-318.869 653.087,-303.315 637.747,-291.811"/>
<polygon fill="midnightblue" stroke="midnightblue" points="639.541,-288.781 629.441,-285.581 635.341,-294.381 639.541,-288.781"/>
</g>
<!-- Node21&#45;&gt;Node19 -->
<g id="edge22" class="edge"><title>Node21&#45;&gt;Node19</title>
<path fill="none" stroke="midnightblue" d="M608.044,-390.403C625.275,-380.557 653.74,-364.291 674.034,-352.695"/>
<polygon fill="midnightblue" stroke="midnightblue" points="676.038,-355.581 682.984,-347.581 672.565,-349.503 676.038,-355.581"/>
</g>
<!-- Node22 -->
<g id="node22" class="node"><title>Node22</title>
<polygon fill="none" stroke="#bfbfbf" points="538,-328.5 538,-347.5 590,-347.5 590,-328.5 538,-328.5"/>
<text text-anchor="middle" x="564" y="-335.5" font-family="Helvetica,sans-Serif" font-size="10.00">memory</text>
</g>
<!-- Node21&#45;&gt;Node22 -->
<g id="edge21" class="edge"><title>Node21&#45;&gt;Node22</title>
<path fill="none" stroke="midnightblue" d="M588.845,-390.403C584.624,-381.671 577.963,-367.889 572.6,-356.794"/>
<polygon fill="midnightblue" stroke="midnightblue" points="575.65,-355.061 568.147,-347.581 569.348,-358.107 575.65,-355.061"/>
</g>
<!-- Node23 -->
<g id="node23" class="node"><title>Node23</title>
<g id="a_node23"><a xlink:href="../../de/dcd/ClusterNative_8h.html" target="_top" xlink:title="Class of a TPC cluster in TPC&#45;native coordinates (row, time) ">
<polygon fill="none" stroke="black" points="354.5,-328.5 354.5,-347.5 519.5,-347.5 519.5,-328.5 354.5,-328.5"/>
<text text-anchor="middle" x="437" y="-335.5" font-family="Helvetica,sans-Serif" font-size="10.00">DataFormatsTPC/ClusterNative.h</text>
</a>
</g>
</g>
<!-- Node21&#45;&gt;Node23 -->
<g id="edge23" class="edge"><title>Node21&#45;&gt;Node23</title>
<path fill="none" stroke="midnightblue" d="M570.649,-390.403C544.005,-380.156 499.286,-362.956 468.986,-351.302"/>
<polygon fill="midnightblue" stroke="midnightblue" points="469.899,-347.904 459.31,-347.581 467.387,-354.437 469.899,-347.904"/>
</g>
<!-- Node23&#45;&gt;Node2 -->
<g id="edge25" class="edge"><title>Node23&#45;&gt;Node2</title>
<path fill="none" stroke="midnightblue" d="M429.12,-328.403C420.706,-319.225 407.181,-304.47 396.774,-293.117"/>
<polygon fill="midnightblue" stroke="midnightblue" points="399.203,-290.587 389.866,-285.581 394.043,-295.317 399.203,-290.587"/>
</g>
<!-- Node23&#45;&gt;Node20 -->
<g id="edge24" class="edge"><title>Node23&#45;&gt;Node20</title>
<path fill="none" stroke="midnightblue" d="M462.933,-328.403C495.139,-317.727 550.109,-299.505 585.209,-287.87"/>
<polygon fill="midnightblue" stroke="midnightblue" points="586.591,-291.099 594.982,-284.63 584.388,-284.455 586.591,-291.099"/>
</g>
<!-- Node23&#45;&gt;Node24 -->
<g id="edge26" class="edge"><title>Node23&#45;&gt;Node24</title>
<path fill="none" stroke="midnightblue" d="M450.828,-328.298C476.51,-312.496 533.72,-278.97 586,-260 630.057,-244.013 681.663,-232.635 721.686,-225.319"/>
<polygon fill="midnightblue" stroke="midnightblue" points="722.373,-228.752 731.6,-223.546 721.14,-221.861 722.373,-228.752"/>
</g>
<!-- Node25&#45;&gt;Node18 -->
<g id="edge28" class="edge"><title>Node25&#45;&gt;Node18</title>
<path fill="none" stroke="midnightblue" d="M1219.05,-204.474C1207.07,-196.702 1191.13,-184.002 1184,-168 1178.21,-155.008 1175.77,-147.598 1184,-136 1212.07,-96.4557 1241.63,-117.115 1287,-100 1289.24,-99.1537 1291.56,-98.2623 1293.88,-97.3533"/>
<polygon fill="midnightblue" stroke="midnightblue" points="1295.33,-100.542 1303.33,-93.5888 1292.74,-94.0388 1295.33,-100.542"/>
</g>
<!-- Node26 -->
<g id="node26" class="node"><title>Node26</title>
<g id="a_node26"><a xlink:href="../../df/d5d/common_2include_2CommonDataFormat_2TimeStamp_8h.html" target="_top" xlink:title="CommonDataFormat/TimeStamp.h">
<polygon fill="none" stroke="black" points="1307,-142.5 1307,-161.5 1477,-161.5 1477,-142.5 1307,-142.5"/>
<text text-anchor="middle" x="1392" y="-149.5" font-family="Helvetica,sans-Serif" font-size="10.00">CommonDataFormat/TimeStamp.h</text>
</a>
</g>
</g>
<!-- Node25&#45;&gt;Node26 -->
<g id="edge29" class="edge"><title>Node25&#45;&gt;Node26</title>
<path fill="none" stroke="midnightblue" d="M1256.64,-204.403C1283.74,-194.111 1329.31,-176.806 1360,-165.15"/>
<polygon fill="midnightblue" stroke="midnightblue" points="1361.3,-168.403 1369.4,-161.581 1358.81,-161.859 1361.3,-168.403"/>
</g>
<!-- Node27 -->
<g id="node27" class="node"><title>Node27</title>
<polygon fill="none" stroke="#bfbfbf" points="1193.5,-137 1193.5,-167 1288.5,-167 1288.5,-137 1193.5,-137"/>
<text text-anchor="start" x="1201.5" y="-155" font-family="Helvetica,sans-Serif" font-size="10.00">boost/serialization</text>
<text text-anchor="middle" x="1241" y="-144" font-family="Helvetica,sans-Serif" font-size="10.00">/base_object.hpp</text>
</g>
<!-- Node25&#45;&gt;Node27 -->
<g id="edge31" class="edge"><title>Node25&#45;&gt;Node27</title>
<path fill="none" stroke="midnightblue" d="M1235,-204.403C1235.84,-197.265 1237.06,-186.752 1238.19,-177.09"/>
<polygon fill="midnightblue" stroke="midnightblue" points="1241.67,-177.479 1239.35,-167.141 1234.71,-176.668 1241.67,-177.479"/>
</g>
<!-- Node26&#45;&gt;Node18 -->
<g id="edge30" class="edge"><title>Node26&#45;&gt;Node18</title>
<path fill="none" stroke="midnightblue" d="M1383.11,-142.372C1372.28,-131.856 1353.76,-113.882 1340.33,-100.85"/>
<polygon fill="midnightblue" stroke="midnightblue" points="1342.72,-98.2944 1333.11,-93.8411 1337.85,-103.317 1342.72,-98.2944"/>
</g>
<!-- Node29 -->
<g id="node29" class="node"><title>Node29</title>
<g id="a_node29"><a xlink:href="../../d1/d73/Defs_8h.html" target="_top" xlink:title="Common definitions for 2D coordinates. ">
<polygon fill="none" stroke="black" points="864,-204.5 864,-223.5 956,-223.5 956,-204.5 864,-204.5"/>
<text text-anchor="middle" x="910" y="-211.5" font-family="Helvetica,sans-Serif" font-size="10.00">TPCBase/Defs.h</text>
</a>
</g>
</g>
<!-- Node28&#45;&gt;Node29 -->
<g id="edge34" class="edge"><title>Node28&#45;&gt;Node29</title>
<path fill="none" stroke="midnightblue" d="M956.848,-390.19C965.683,-380.713 978.689,-364.735 984,-348 986.689,-339.528 985.385,-336.78 984,-328 979.051,-296.623 979.545,-286.48 962,-260 954.169,-248.181 942.414,-237.645 932.061,-229.743"/>
<polygon fill="midnightblue" stroke="midnightblue" points="933.96,-226.797 923.81,-223.756 929.848,-232.462 933.96,-226.797"/>
</g>
<!-- Node41 -->
<g id="node41" class="node"><title>Node41</title>
<g id="a_node41"><a xlink:href="../../d3/dd6/Sector_8h.html" target="_top" xlink:title="TPCBase/Sector.h">
<polygon fill="none" stroke="black" points="838.5,-266.5 838.5,-285.5 937.5,-285.5 937.5,-266.5 838.5,-266.5"/>
<text text-anchor="middle" x="888" y="-273.5" font-family="Helvetica,sans-Serif" font-size="10.00">TPCBase/Sector.h</text>
</a>
</g>
</g>
<!-- Node28&#45;&gt;Node41 -->
<g id="edge49" class="edge"><title>Node28&#45;&gt;Node41</title>
<path fill="none" stroke="midnightblue" d="M925.038,-390.425C907.266,-382.424 883.902,-368.597 873,-348 864.189,-331.353 870.785,-309.936 877.797,-294.997"/>
<polygon fill="midnightblue" stroke="midnightblue" points="881.054,-296.318 882.534,-285.828 874.835,-293.105 881.054,-296.318"/>
</g>
<!-- Node42 -->
<g id="node42" class="node"><title>Node42</title>
<g id="a_node42"><a xlink:href="../../dc/d14/ROC_8h.html" target="_top" xlink:title="TPCBase/ROC.h">
<polygon fill="none" stroke="black" points="882.5,-328.5 882.5,-347.5 975.5,-347.5 975.5,-328.5 882.5,-328.5"/>
<text text-anchor="middle" x="929" y="-335.5" font-family="Helvetica,sans-Serif" font-size="10.00">TPCBase/ROC.h</text>
</a>
</g>
</g>
<!-- Node28&#45;&gt;Node42 -->
<g id="edge52" class="edge"><title>Node28&#45;&gt;Node42</title>
<path fill="none" stroke="midnightblue" d="M945.278,-390.403C942.541,-381.76 938.237,-368.17 934.742,-357.134"/>
<polygon fill="midnightblue" stroke="midnightblue" points="938.073,-356.057 931.717,-347.581 931.399,-358.171 938.073,-356.057"/>
</g>
<!-- Node30 -->
<g id="node30" class="node"><title>Node30</title>
<polygon fill="none" stroke="#bfbfbf" points="747,-142.5 747,-161.5 791,-161.5 791,-142.5 747,-142.5"/>
<text text-anchor="middle" x="769" y="-149.5" font-family="Helvetica,sans-Serif" font-size="10.00">cmath</text>
</g>
<!-- Node29&#45;&gt;Node30 -->
<g id="edge35" class="edge"><title>Node29&#45;&gt;Node30</title>
<path fill="none" stroke="midnightblue" d="M889.798,-204.403C865.926,-194.245 825.998,-177.255 798.627,-165.607"/>
<polygon fill="midnightblue" stroke="midnightblue" points="799.736,-162.276 789.164,-161.581 796.995,-168.717 799.736,-162.276"/>
</g>
<!-- Node31 -->
<g id="node31" class="node"><title>Node31</title>
<g id="a_node31"><a xlink:href="../../d2/dd0/Cartesian2D_8h.html" target="_top" xlink:title="MathUtils/Cartesian2D.h">
<polygon fill="none" stroke="black" points="103.5,-74.5 103.5,-93.5 228.5,-93.5 228.5,-74.5 103.5,-74.5"/>
<text text-anchor="middle" x="166" y="-81.5" font-family="Helvetica,sans-Serif" font-size="10.00">MathUtils/Cartesian2D.h</text>
</a>
</g>
</g>
<!-- Node29&#45;&gt;Node31 -->
<g id="edge36" class="edge"><title>Node29&#45;&gt;Node31</title>
<path fill="none" stroke="midnightblue" d="M895.022,-204.403C880.2,-195.72 857.036,-181.673 838,-168 819.789,-154.92 819.858,-144.225 799,-136 682.786,-90.1739 361.791,-116.781 238,-100 229.542,-98.8535 220.593,-97.283 211.985,-95.5882"/>
<polygon fill="midnightblue" stroke="midnightblue" points="212.585,-92.1387 202.086,-93.5594 211.18,-98.9961 212.585,-92.1387"/>
</g>
<!-- Node34 -->
<g id="node34" class="node"><title>Node34</title>
<g id="a_node34"><a xlink:href="../../dd/d76/Cartesian3D_8h.html" target="_top" xlink:title="MathUtils/Cartesian3D.h">
<polygon fill="none" stroke="black" points="847.5,-142.5 847.5,-161.5 972.5,-161.5 972.5,-142.5 847.5,-142.5"/>
<text text-anchor="middle" x="910" y="-149.5" font-family="Helvetica,sans-Serif" font-size="10.00">MathUtils/Cartesian3D.h</text>
</a>
</g>
</g>
<!-- Node29&#45;&gt;Node34 -->
<g id="edge39" class="edge"><title>Node29&#45;&gt;Node34</title>
<path fill="none" stroke="midnightblue" d="M910,-204.403C910,-195.938 910,-182.728 910,-171.82"/>
<polygon fill="midnightblue" stroke="midnightblue" points="913.5,-171.581 910,-161.581 906.5,-171.581 913.5,-171.581"/>
</g>
<!-- Node32 -->
<g id="node32" class="node"><title>Node32</title>
<polygon fill="none" stroke="#bfbfbf" points="-0.5,-1 -0.5,-31 150.5,-31 150.5,-1 -0.5,-1"/>
<text text-anchor="start" x="7.5" y="-19" font-family="Helvetica,sans-Serif" font-size="10.00">Math/GenVector/Displacement</text>
<text text-anchor="middle" x="75" y="-8" font-family="Helvetica,sans-Serif" font-size="10.00">Vector2D.h</text>
</g>
<!-- Node31&#45;&gt;Node32 -->
<g id="edge37" class="edge"><title>Node31&#45;&gt;Node32</title>
<path fill="none" stroke="midnightblue" d="M154.103,-74.3717C141.221,-65.0286 120.22,-49.7966 103.093,-37.375"/>
<polygon fill="midnightblue" stroke="midnightblue" points="104.703,-34.2194 94.5532,-31.1815 100.593,-39.8859 104.703,-34.2194"/>
</g>
<!-- Node33 -->
<g id="node33" class="node"><title>Node33</title>
<polygon fill="none" stroke="#bfbfbf" points="169,-6.5 169,-25.5 345,-25.5 345,-6.5 169,-6.5"/>
<text text-anchor="middle" x="257" y="-13.5" font-family="Helvetica,sans-Serif" font-size="10.00">Math/GenVector/PositionVector2D.h</text>
</g>
<!-- Node31&#45;&gt;Node33 -->
<g id="edge38" class="edge"><title>Node31&#45;&gt;Node33</title>
<path fill="none" stroke="midnightblue" d="M177.897,-74.3717C192.884,-63.5015 218.862,-44.6602 236.942,-31.5474"/>
<polygon fill="midnightblue" stroke="midnightblue" points="239.06,-34.3349 245.1,-25.6305 234.95,-28.6684 239.06,-34.3349"/>
</g>
<!-- Node34&#45;&gt;Node4 -->
<g id="edge47" class="edge"><title>Node34&#45;&gt;Node4</title>
<path fill="none" stroke="midnightblue" d="M970.993,-142.491C1046.42,-131.674 1170.31,-112.863 1215,-100 1217.65,-99.2363 1220.38,-98.3352 1223.08,-97.36"/>
<polygon fill="midnightblue" stroke="midnightblue" points="1224.58,-100.53 1232.61,-93.6157 1222.02,-94.0147 1224.58,-100.53"/>
</g>
<!-- Node34&#45;&gt;Node18 -->
<g id="edge45" class="edge"><title>Node34&#45;&gt;Node18</title>
<path fill="none" stroke="midnightblue" d="M972.648,-147.342C1048.23,-141.832 1178.65,-128.802 1287,-100 1289.99,-99.2065 1293.05,-98.2347 1296.08,-97.1708"/>
<polygon fill="midnightblue" stroke="midnightblue" points="1297.4,-100.412 1305.49,-93.5637 1294.9,-93.8762 1297.4,-100.412"/>
</g>
<!-- Node34&#45;&gt;Node31 -->
<g id="edge48" class="edge"><title>Node34&#45;&gt;Node31</title>
<path fill="none" stroke="midnightblue" d="M871.384,-142.443C859.163,-140.013 845.565,-137.597 833,-136 570.186,-102.599 500.591,-135.109 238,-100 229.449,-98.8568 220.397,-97.2722 211.704,-95.5589"/>
<polygon fill="midnightblue" stroke="midnightblue" points="212.214,-92.0908 201.715,-93.5072 210.806,-98.9476 212.214,-92.0908"/>
</g>
<!-- Node35 -->
<g id="node35" class="node"><title>Node35</title>
<polygon fill="none" stroke="#bfbfbf" points="519.5,-69 519.5,-99 670.5,-99 670.5,-69 519.5,-69"/>
<text text-anchor="start" x="527.5" y="-87" font-family="Helvetica,sans-Serif" font-size="10.00">Math/GenVector/Displacement</text>
<text text-anchor="middle" x="595" y="-76" font-family="Helvetica,sans-Serif" font-size="10.00">Vector3D.h</text>
</g>
<!-- Node34&#45;&gt;Node35 -->
<g id="edge40" class="edge"><title>Node34&#45;&gt;Node35</title>
<path fill="none" stroke="midnightblue" d="M869.142,-142.439C819.391,-132.015 734.314,-114.19 672.103,-101.155"/>
<polygon fill="midnightblue" stroke="midnightblue" points="672.442,-97.6499 661.936,-99.0247 671.006,-104.501 672.442,-97.6499"/>
</g>
<!-- Node36 -->
<g id="node36" class="node"><title>Node36</title>
<polygon fill="none" stroke="#bfbfbf" points="689,-74.5 689,-93.5 865,-93.5 865,-74.5 689,-74.5"/>
<text text-anchor="middle" x="777" y="-81.5" font-family="Helvetica,sans-Serif" font-size="10.00">Math/GenVector/PositionVector3D.h</text>
</g>
<!-- Node34&#45;&gt;Node36 -->
<g id="edge41" class="edge"><title>Node34&#45;&gt;Node36</title>
<path fill="none" stroke="midnightblue" d="M892.613,-142.372C869.911,-131.106 829.957,-111.279 803.48,-98.1403"/>
<polygon fill="midnightblue" stroke="midnightblue" points="804.905,-94.9405 794.392,-93.6305 801.794,-101.211 804.905,-94.9405"/>
</g>
<!-- Node37 -->
<g id="node37" class="node"><title>Node37</title>
<polygon fill="none" stroke="#bfbfbf" points="882.5,-74.5 882.5,-93.5 1031.5,-93.5 1031.5,-74.5 882.5,-74.5"/>
<text text-anchor="middle" x="957" y="-81.5" font-family="Helvetica,sans-Serif" font-size="10.00">Math/GenVector/Rotation3D.h</text>
</g>
<!-- Node34&#45;&gt;Node37 -->
<g id="edge42" class="edge"><title>Node34&#45;&gt;Node37</title>
<path fill="none" stroke="midnightblue" d="M916.144,-142.372C923.353,-132.25 935.483,-115.215 944.658,-102.331"/>
<polygon fill="midnightblue" stroke="midnightblue" points="947.754,-104.017 950.704,-93.8411 942.052,-99.9565 947.754,-104.017"/>
</g>
<!-- Node38 -->
<g id="node38" class="node"><title>Node38</title>
<polygon fill="none" stroke="#bfbfbf" points="1050,-74.5 1050,-93.5 1206,-93.5 1206,-74.5 1050,-74.5"/>
<text text-anchor="middle" x="1128" y="-81.5" font-family="Helvetica,sans-Serif" font-size="10.00">Math/GenVector/Transform3D.h</text>
</g>
<!-- Node34&#45;&gt;Node38 -->
<g id="edge43" class="edge"><title>Node34&#45;&gt;Node38</title>
<path fill="none" stroke="midnightblue" d="M938.5,-142.372C977.367,-130.604 1047.09,-109.496 1090.26,-96.4257"/>
<polygon fill="midnightblue" stroke="midnightblue" points="1091.28,-99.7734 1099.84,-93.5259 1089.25,-93.0737 1091.28,-99.7734"/>
</g>
<!-- Node39 -->
<g id="node39" class="node"><title>Node39</title>
<polygon fill="none" stroke="#bfbfbf" points="247,-74.5 247,-93.5 407,-93.5 407,-74.5 247,-74.5"/>
<text text-anchor="middle" x="327" y="-81.5" font-family="Helvetica,sans-Serif" font-size="10.00">Math/GenVector/Translation3D.h</text>
</g>
<!-- Node34&#45;&gt;Node39 -->
<g id="edge44" class="edge"><title>Node34&#45;&gt;Node39</title>
<path fill="none" stroke="midnightblue" d="M870.568,-142.483C858.551,-140.113 845.274,-137.72 833,-136 648.778,-110.179 600.535,-123.477 416,-100 405.516,-98.6662 394.379,-96.9941 383.66,-95.2544"/>
<polygon fill="midnightblue" stroke="midnightblue" points="383.985,-91.7605 373.547,-93.5747 382.838,-98.6659 383.985,-91.7605"/>
</g>
<!-- Node40 -->
<g id="node40" class="node"><title>Node40</title>
<polygon fill="none" stroke="#bfbfbf" points="425,-74.5 425,-93.5 501,-93.5 501,-74.5 425,-74.5"/>
<text text-anchor="middle" x="463" y="-81.5" font-family="Helvetica,sans-Serif" font-size="10.00">TGeoMatrix.h</text>
</g>
<!-- Node34&#45;&gt;Node40 -->
<g id="edge46" class="edge"><title>Node34&#45;&gt;Node40</title>
<path fill="none" stroke="midnightblue" d="M869.347,-142.439C857.648,-140.15 844.847,-137.811 833,-136 690.214,-114.172 651.272,-130.106 510,-100 505.544,-99.0505 500.911,-97.8481 496.367,-96.5388"/>
<polygon fill="midnightblue" stroke="midnightblue" points="497.251,-93.1488 486.664,-93.5585 495.196,-99.8403 497.251,-93.1488"/>
</g>
<!-- Node41&#45;&gt;Node24 -->
<g id="edge50" class="edge"><title>Node41&#45;&gt;Node24</title>
<path fill="none" stroke="midnightblue" d="M873.672,-266.403C857.336,-256.601 830.398,-240.439 811.088,-228.853"/>
<polygon fill="midnightblue" stroke="midnightblue" points="812.677,-225.724 802.301,-223.581 809.075,-231.727 812.677,-225.724"/>
</g>
<!-- Node41&#45;&gt;Node29 -->
<g id="edge51" class="edge"><title>Node41&#45;&gt;Node29</title>
<path fill="none" stroke="midnightblue" d="M891.152,-266.403C894.321,-257.76 899.304,-244.17 903.351,-233.134"/>
<polygon fill="midnightblue" stroke="midnightblue" points="906.697,-234.174 906.854,-223.581 900.125,-231.764 906.697,-234.174"/>
</g>
<!-- Node42&#45;&gt;Node29 -->
<g id="edge53" class="edge"><title>Node42&#45;&gt;Node29</title>
<path fill="none" stroke="midnightblue" d="M934.009,-328.267C941.635,-313.788 954.429,-284.028 946,-260 942.215,-249.209 934.633,-239.084 927.4,-231.181"/>
<polygon fill="midnightblue" stroke="midnightblue" points="929.667,-228.494 920.162,-223.815 924.674,-233.4 929.667,-228.494"/>
</g>
<!-- Node42&#45;&gt;Node41 -->
<g id="edge54" class="edge"><title>Node42&#45;&gt;Node41</title>
<path fill="none" stroke="midnightblue" d="M923.126,-328.403C917.037,-319.493 907.355,-305.325 899.697,-294.118"/>
<polygon fill="midnightblue" stroke="midnightblue" points="902.395,-291.862 893.863,-285.581 896.616,-295.812 902.395,-291.862"/>
</g>
</g>
</svg>
        <g id="navigator" transform="translate(0 0)" fill="#404254">
                <rect fill="#f2f5e9" fill-opacity="0.5" stroke="#606060" stroke-width=".5" x="0" y="0" width="60" height="60"/>
                <use id="zoomplus" xlink:href="#zoomPlus" x="17" y="9" onmousedown="handleZoom(evt,'in')"/>
                <use id="zoomminus" xlink:href="#zoomMin" x="42" y="9" onmousedown="handleZoom(evt,'out')"/>
                <use id="reset" xlink:href="#resetDef" x="30" y="36" onmousedown="handleReset()"/>
                <g id="arrowUp" xlink:href="#dirArrow" transform="translate(30 24)" onmousedown="handlePan(0,-1)">
                  <use xlink:href="#rim" fill="#404040">
                        <set attributeName="fill" to="#808080" begin="arrowUp.mouseover" end="arrowUp.mouseout"/>
                  </use>
                  <path fill="none" stroke="white" stroke-width="1.5" d="M0,-3.0v7 M-2.5,-0.5L0,-3.0L2.5,-0.5"/>
                </g>
                <g id="arrowRight" xlink:href="#dirArrow" transform="rotate(90) translate(36 -43)" onmousedown="handlePan(1,0)">
                  <use xlink:href="#rim" fill="#404040">
                        <set attributeName="fill" to="#808080" begin="arrowRight.mouseover" end="arrowRight.mouseout"/>
                  </use>
                  <path fill="none" stroke="white" stroke-width="1.5" d="M0,-3.0v7 M-2.5,-0.5L0,-3.0L2.5,-0.5"/>
                </g>
                <g id="arrowDown" xlink:href="#dirArrow" transform="rotate(180) translate(-30 -48)" onmousedown="handlePan(0,1)">
                  <use xlink:href="#rim" fill="#404040">
                        <set attributeName="fill" to="#808080" begin="arrowDown.mouseover" end="arrowDown.mouseout"/>
                  </use>
                  <path fill="none" stroke="white" stroke-width="1.5" d="M0,-3.0v7 M-2.5,-0.5L0,-3.0L2.5,-0.5"/>
                </g>
                <g id="arrowLeft" xlink:href="#dirArrow" transform="rotate(270) translate(-36 17)" onmousedown="handlePan(-1,0)">
                  <use xlink:href="#rim" fill="#404040">
                        <set attributeName="fill" to="#808080" begin="arrowLeft.mouseover" end="arrowLeft.mouseout"/>
                  </use>
                  <path fill="none" stroke="white" stroke-width="1.5" d="M0,-3.0v7 M-2.5,-0.5L0,-3.0L2.5,-0.5"/>
                </g>
        </g>
        <svg viewBox="0 0 15 15" width="100%" height="30px" preserveAspectRatio="xMaxYMin meet">
         <g id="arrow_out" transform="scale(0.3 0.3)">
          <a xlink:href="convertClusterToClusterHardware_8C__incl_org.svg" target="_base">
           <rect id="button" ry="5" rx="5" y="6" x="6" height="38" width="38"
                fill="#f2f5e9" fill-opacity="0.5" stroke="#606060" stroke-width="1.0"/>
           <path id="arrow"
             d="M 11.500037,31.436501 C 11.940474,20.09759 22.043105,11.32322 32.158766,21.979434 L 37.068811,17.246167 C 37.068811,17.246167 37.088388,32 37.088388,32 L 22.160133,31.978069 C 22.160133,31.978069 26.997745,27.140456 26.997745,27.140456 C 18.528582,18.264221 13.291696,25.230495 11.500037,31.436501 z"
             style="fill:#404040;"/>
          </a>
         </g>
        </svg>
</svg>
