<?xml version="1.0" encoding="UTF-8" standalone="no"?>
<!DOCTYPE svg PUBLIC "-//W3C//DTD SVG 1.1//EN"
 "http://www.w3.org/Graphics/SVG/1.1/DTD/svg11.dtd">
<!-- Generated by graphviz version 2.36.0 (20140111.2315)
 -->
<!-- Title: /home/travis/build/AliceO2Group/AliceO2/Detectors/TPC/simulation/test/testTPCElectronTransport.cxx Pages: 1 -->
<svg width="1657pt" height="646pt"
 viewBox="0.00 0.00 1657.00 646.00" xmlns="http://www.w3.org/2000/svg" xmlns:xlink="http://www.w3.org/1999/xlink">
<g id="graph0" class="graph" transform="scale(1 1) rotate(0) translate(4 642)">
<title>/home/travis/build/AliceO2Group/AliceO2/Detectors/TPC/simulation/test/testTPCElectronTransport.cxx</title>
<!-- Node1 -->
<g id="node1" class="node"><title>Node1</title>
<polygon fill="#bfbfbf" stroke="black" points="597,-585 597,-637 769,-637 769,-585 597,-585"/>
<text text-anchor="start" x="605" y="-625" font-family="Helvetica,sans-Serif" font-size="10.00">/home/travis/build</text>
<text text-anchor="start" x="605" y="-614" font-family="Helvetica,sans-Serif" font-size="10.00">/AliceO2Group/AliceO2</text>
<text text-anchor="start" x="605" y="-603" font-family="Helvetica,sans-Serif" font-size="10.00">/Detectors/TPC/simulation</text>
<text text-anchor="middle" x="683" y="-592" font-family="Helvetica,sans-Serif" font-size="10.00">/test/testTPCElectronTransport.cxx</text>
</g>
<!-- Node2 -->
<g id="node2" class="node"><title>Node2</title>
<polygon fill="none" stroke="#bfbfbf" points="440.5,-528.5 440.5,-547.5 559.5,-547.5 559.5,-528.5 440.5,-528.5"/>
<text text-anchor="middle" x="500" y="-535.5" font-family="Helvetica,sans-Serif" font-size="10.00">boost/test/unit_test.hpp</text>
</g>
<!-- Node1&#45;&gt;Node2 -->
<g id="edge1" class="edge"><title>Node1&#45;&gt;Node2</title>
<path fill="none" stroke="midnightblue" d="M618.481,-584.968C589.128,-573.58 555.706,-560.613 531.86,-551.361"/>
<polygon fill="midnightblue" stroke="midnightblue" points="532.855,-547.993 522.266,-547.639 530.323,-554.519 532.855,-547.993"/>
</g>
<!-- Node3 -->
<g id="node3" class="node"><title>Node3</title>
<g id="a_node3"><a xlink:href="../../d2/da8/ElectronTransport_8h.html" target="_top" xlink:title="Definition of the electron transport. ">
<polygon fill="none" stroke="black" points="654.5,-528.5 654.5,-547.5 825.5,-547.5 825.5,-528.5 654.5,-528.5"/>
<text text-anchor="middle" x="740" y="-535.5" font-family="Helvetica,sans-Serif" font-size="10.00">TPCSimulation/ElectronTransport.h</text>
</a>
</g>
</g>
<!-- Node1&#45;&gt;Node3 -->
<g id="edge2" class="edge"><title>Node1&#45;&gt;Node3</title>
<path fill="none" stroke="midnightblue" d="M703.257,-584.768C711.032,-575.083 719.704,-564.281 726.669,-555.605"/>
<polygon fill="midnightblue" stroke="midnightblue" points="729.439,-557.746 732.97,-547.757 723.98,-553.364 729.439,-557.746"/>
</g>
<!-- Node4 -->
<g id="node4" class="node"><title>Node4</title>
<g id="a_node4"><a xlink:href="../../db/d5b/ParameterGas_8h.html" target="_top" xlink:title="Definition of the parameter class for the detector gas. ">
<polygon fill="none" stroke="black" points="536,-472.5 536,-491.5 670,-491.5 670,-472.5 536,-472.5"/>
<text text-anchor="middle" x="603" y="-479.5" font-family="Helvetica,sans-Serif" font-size="10.00">TPCBase/ParameterGas.h</text>
</a>
</g>
</g>
<!-- Node1&#45;&gt;Node4 -->
<g id="edge60" class="edge"><title>Node1&#45;&gt;Node4</title>
<path fill="none" stroke="midnightblue" d="M667.195,-584.909C651.407,-559.847 627.566,-521.999 613.817,-500.172"/>
<polygon fill="midnightblue" stroke="midnightblue" points="616.726,-498.224 608.435,-491.628 610.803,-501.955 616.726,-498.224"/>
</g>
<!-- Node10 -->
<g id="node10" class="node"><title>Node10</title>
<polygon fill="none" stroke="#bfbfbf" points="1607,-416.5 1607,-435.5 1649,-435.5 1649,-416.5 1607,-416.5"/>
<text text-anchor="middle" x="1628" y="-423.5" font-family="Helvetica,sans-Serif" font-size="10.00">TF1.h</text>
</g>
<!-- Node1&#45;&gt;Node10 -->
<g id="edge64" class="edge"><title>Node1&#45;&gt;Node10</title>
<path fill="none" stroke="midnightblue" d="M769.083,-602.959C913.428,-589.811 1212.59,-556.799 1458,-492 1509.5,-478.403 1566.88,-454.531 1600.07,-439.81"/>
<polygon fill="midnightblue" stroke="midnightblue" points="1601.87,-442.84 1609.57,-435.557 1599.01,-436.452 1601.87,-442.84"/>
</g>
<!-- Node40 -->
<g id="node40" class="node"><title>Node40</title>
<g id="a_node40"><a xlink:href="../../db/dad/ParameterDetector_8h.html" target="_top" xlink:title="Definition of the parameter class for the detector. ">
<polygon fill="none" stroke="black" points="325.5,-472.5 325.5,-491.5 478.5,-491.5 478.5,-472.5 325.5,-472.5"/>
<text text-anchor="middle" x="402" y="-479.5" font-family="Helvetica,sans-Serif" font-size="10.00">TPCBase/ParameterDetector.h</text>
</a>
</g>
</g>
<!-- Node1&#45;&gt;Node40 -->
<g id="edge61" class="edge"><title>Node1&#45;&gt;Node40</title>
<path fill="none" stroke="midnightblue" d="M654.087,-584.943C631.863,-566.83 599.694,-543.001 568,-528 534.124,-511.966 493.562,-500.837 461.014,-493.658"/>
<polygon fill="midnightblue" stroke="midnightblue" points="461.697,-490.225 451.186,-491.556 460.233,-497.07 461.697,-490.225"/>
</g>
<!-- Node41 -->
<g id="node41" class="node"><title>Node41</title>
<polygon fill="none" stroke="#bfbfbf" points="1505.5,-528.5 1505.5,-547.5 1556.5,-547.5 1556.5,-528.5 1505.5,-528.5"/>
<text text-anchor="middle" x="1531" y="-535.5" font-family="Helvetica,sans-Serif" font-size="10.00">TH1D.h</text>
</g>
<!-- Node1&#45;&gt;Node41 -->
<g id="edge63" class="edge"><title>Node1&#45;&gt;Node41</title>
<path fill="none" stroke="midnightblue" d="M769.264,-607.477C917.531,-602.229 1229.95,-587.173 1491,-548 1492.45,-547.782 1493.93,-547.541 1495.42,-547.282"/>
<polygon fill="midnightblue" stroke="midnightblue" points="1496.14,-550.708 1505.28,-545.362 1494.8,-543.837 1496.14,-550.708"/>
</g>
<!-- Node3&#45;&gt;Node4 -->
<g id="edge3" class="edge"><title>Node3&#45;&gt;Node4</title>
<path fill="none" stroke="midnightblue" d="M718.292,-528.444C695.645,-519.517 659.928,-505.439 634.248,-495.317"/>
<polygon fill="midnightblue" stroke="midnightblue" points="635.193,-491.927 624.606,-491.516 632.626,-498.44 635.193,-491.927"/>
</g>
<!-- Node6 -->
<g id="node6" class="node"><title>Node6</title>
<g id="a_node6"><a xlink:href="../../db/dac/RandomRing_8h.html" target="_top" xlink:title="TPCBase/RandomRing.h">
<polygon fill="none" stroke="black" points="1321,-472.5 1321,-491.5 1449,-491.5 1449,-472.5 1321,-472.5"/>
<text text-anchor="middle" x="1385" y="-479.5" font-family="Helvetica,sans-Serif" font-size="10.00">TPCBase/RandomRing.h</text>
</a>
</g>
</g>
<!-- Node3&#45;&gt;Node6 -->
<g id="edge5" class="edge"><title>Node3&#45;&gt;Node6</title>
<path fill="none" stroke="midnightblue" d="M825.651,-529.829C953.014,-519.166 1190.22,-499.307 1310.68,-489.222"/>
<polygon fill="midnightblue" stroke="midnightblue" points="1311.23,-492.688 1320.91,-488.366 1310.65,-485.713 1311.23,-492.688"/>
</g>
<!-- Node12 -->
<g id="node12" class="node"><title>Node12</title>
<g id="a_node12"><a xlink:href="../../d7/d2c/Mapper_8h.html" target="_top" xlink:title="TPCBase/Mapper.h">
<polygon fill="none" stroke="black" points="688.5,-472.5 688.5,-491.5 791.5,-491.5 791.5,-472.5 688.5,-472.5"/>
<text text-anchor="middle" x="740" y="-479.5" font-family="Helvetica,sans-Serif" font-size="10.00">TPCBase/Mapper.h</text>
</a>
</g>
</g>
<!-- Node3&#45;&gt;Node12 -->
<g id="edge11" class="edge"><title>Node3&#45;&gt;Node12</title>
<path fill="none" stroke="midnightblue" d="M740,-528.083C740,-521.006 740,-510.861 740,-501.986"/>
<polygon fill="midnightblue" stroke="midnightblue" points="743.5,-501.751 740,-491.751 736.5,-501.751 743.5,-501.751"/>
</g>
<!-- Node5 -->
<g id="node5" class="node"><title>Node5</title>
<polygon fill="none" stroke="#bfbfbf" points="355,-416.5 355,-435.5 393,-435.5 393,-416.5 355,-416.5"/>
<text text-anchor="middle" x="374" y="-423.5" font-family="Helvetica,sans-Serif" font-size="10.00">array</text>
</g>
<!-- Node4&#45;&gt;Node5 -->
<g id="edge4" class="edge"><title>Node4&#45;&gt;Node5</title>
<path fill="none" stroke="midnightblue" d="M563.841,-472.5C524.197,-463.779 461.18,-449.602 407,-436 405.736,-435.683 404.447,-435.354 403.146,-435.018"/>
<polygon fill="midnightblue" stroke="midnightblue" points="403.724,-431.55 393.16,-432.367 401.928,-438.315 403.724,-431.55"/>
</g>
<!-- Node7 -->
<g id="node7" class="node"><title>Node7</title>
<polygon fill="none" stroke="#bfbfbf" points="1437,-416.5 1437,-435.5 1527,-435.5 1527,-416.5 1437,-416.5"/>
<text text-anchor="middle" x="1482" y="-423.5" font-family="Helvetica,sans-Serif" font-size="10.00">boost/format.hpp</text>
</g>
<!-- Node6&#45;&gt;Node7 -->
<g id="edge6" class="edge"><title>Node6&#45;&gt;Node7</title>
<path fill="none" stroke="midnightblue" d="M1400.58,-472.324C1416,-463.743 1439.81,-450.486 1457.71,-440.522"/>
<polygon fill="midnightblue" stroke="midnightblue" points="1459.42,-443.577 1466.45,-435.655 1456.01,-437.461 1459.42,-443.577"/>
</g>
<!-- Node8 -->
<g id="node8" class="node"><title>Node8</title>
<polygon fill="none" stroke="#bfbfbf" points="1545,-416.5 1545,-435.5 1589,-435.5 1589,-416.5 1545,-416.5"/>
<text text-anchor="middle" x="1567" y="-423.5" font-family="Helvetica,sans-Serif" font-size="10.00">Vc/Vc</text>
</g>
<!-- Node6&#45;&gt;Node8 -->
<g id="edge7" class="edge"><title>Node6&#45;&gt;Node8</title>
<path fill="none" stroke="midnightblue" d="M1413.84,-472.444C1446.81,-462.66 1500.64,-446.688 1534.92,-436.519"/>
<polygon fill="midnightblue" stroke="midnightblue" points="1536.29,-439.763 1544.88,-433.563 1534.3,-433.052 1536.29,-439.763"/>
</g>
<!-- Node9 -->
<g id="node9" class="node"><title>Node9</title>
<polygon fill="none" stroke="#bfbfbf" points="1263,-360.5 1263,-379.5 1307,-379.5 1307,-360.5 1263,-360.5"/>
<text text-anchor="middle" x="1285" y="-367.5" font-family="Helvetica,sans-Serif" font-size="10.00">vector</text>
</g>
<!-- Node6&#45;&gt;Node9 -->
<g id="edge8" class="edge"><title>Node6&#45;&gt;Node9</title>
<path fill="none" stroke="midnightblue" d="M1376.65,-472.477C1367.9,-463.502 1353.82,-448.912 1342,-436 1327.04,-419.654 1310.37,-400.54 1298.95,-387.289"/>
<polygon fill="midnightblue" stroke="midnightblue" points="1301.44,-384.818 1292.26,-379.516 1296.13,-389.381 1301.44,-384.818"/>
</g>
<!-- Node6&#45;&gt;Node10 -->
<g id="edge9" class="edge"><title>Node6&#45;&gt;Node10</title>
<path fill="none" stroke="midnightblue" d="M1429.89,-472.466C1472.95,-464.045 1539.7,-450.377 1597,-436 1597.1,-435.975 1597.2,-435.95 1597.3,-435.926"/>
<polygon fill="midnightblue" stroke="midnightblue" points="1597.96,-439.372 1606.71,-433.404 1596.15,-432.61 1597.96,-439.372"/>
</g>
<!-- Node11 -->
<g id="node11" class="node"><title>Node11</title>
<polygon fill="none" stroke="#bfbfbf" points="1351,-416.5 1351,-435.5 1419,-435.5 1419,-416.5 1351,-416.5"/>
<text text-anchor="middle" x="1385" y="-423.5" font-family="Helvetica,sans-Serif" font-size="10.00">TRandom.h</text>
</g>
<!-- Node6&#45;&gt;Node11 -->
<g id="edge10" class="edge"><title>Node6&#45;&gt;Node11</title>
<path fill="none" stroke="midnightblue" d="M1385,-472.083C1385,-465.006 1385,-454.861 1385,-445.986"/>
<polygon fill="midnightblue" stroke="midnightblue" points="1388.5,-445.751 1385,-435.751 1381.5,-445.751 1388.5,-445.751"/>
</g>
<!-- Node12&#45;&gt;Node5 -->
<g id="edge14" class="edge"><title>Node12&#45;&gt;Node5</title>
<path fill="none" stroke="midnightblue" d="M688.423,-473.335C685.235,-472.878 682.074,-472.43 679,-472 558.234,-455.1 526.538,-460.097 407,-436 405.723,-435.743 404.422,-435.463 403.112,-435.167"/>
<polygon fill="midnightblue" stroke="midnightblue" points="403.64,-431.692 393.091,-432.675 401.95,-438.485 403.64,-431.692"/>
</g>
<!-- Node12&#45;&gt;Node9 -->
<g id="edge13" class="edge"><title>Node12&#45;&gt;Node9</title>
<path fill="none" stroke="midnightblue" d="M791.69,-479.81C916.869,-476.477 1228.69,-465.296 1265,-436 1278.62,-425.011 1283.17,-404.958 1284.59,-390.02"/>
<polygon fill="midnightblue" stroke="midnightblue" points="1288.1,-390.01 1285.17,-379.829 1281.11,-389.617 1288.1,-390.01"/>
</g>
<!-- Node13 -->
<g id="node13" class="node"><title>Node13</title>
<polygon fill="none" stroke="#bfbfbf" points="449.5,-416.5 449.5,-435.5 484.5,-435.5 484.5,-416.5 449.5,-416.5"/>
<text text-anchor="middle" x="467" y="-423.5" font-family="Helvetica,sans-Serif" font-size="10.00">map</text>
</g>
<!-- Node12&#45;&gt;Node13 -->
<g id="edge12" class="edge"><title>Node12&#45;&gt;Node13</title>
<path fill="none" stroke="midnightblue" d="M688.313,-472.541C631.325,-463.058 542.285,-447.742 494.365,-435.994"/>
<polygon fill="midnightblue" stroke="midnightblue" points="495.066,-432.56 484.51,-433.469 493.329,-439.341 495.066,-432.56"/>
</g>
<!-- Node14 -->
<g id="node14" class="node"><title>Node14</title>
<polygon fill="none" stroke="#bfbfbf" points="502.5,-416.5 502.5,-435.5 543.5,-435.5 543.5,-416.5 502.5,-416.5"/>
<text text-anchor="middle" x="523" y="-423.5" font-family="Helvetica,sans-Serif" font-size="10.00">string</text>
</g>
<!-- Node12&#45;&gt;Node14 -->
<g id="edge15" class="edge"><title>Node12&#45;&gt;Node14</title>
<path fill="none" stroke="midnightblue" d="M705.085,-472.469C668.429,-463.489 609.128,-448.894 558,-436 556.555,-435.636 555.077,-435.261 553.585,-434.882"/>
<polygon fill="midnightblue" stroke="midnightblue" points="554.275,-431.446 543.72,-432.362 552.542,-438.228 554.275,-431.446"/>
</g>
<!-- Node15 -->
<g id="node15" class="node"><title>Node15</title>
<polygon fill="none" stroke="#bfbfbf" points="516,-136.5 516,-155.5 560,-155.5 560,-136.5 516,-136.5"/>
<text text-anchor="middle" x="538" y="-143.5" font-family="Helvetica,sans-Serif" font-size="10.00">cmath</text>
</g>
<!-- Node12&#45;&gt;Node15 -->
<g id="edge16" class="edge"><title>Node12&#45;&gt;Node15</title>
<path fill="none" stroke="midnightblue" d="M688.209,-473.32C602.531,-460.603 440.584,-436.509 440,-436 417.326,-416.207 421,-401.098 421,-371 421,-371 421,-371 421,-257 421,-209.599 472.604,-176.642 507.269,-159.85"/>
<polygon fill="midnightblue" stroke="midnightblue" points="508.945,-162.931 516.54,-155.544 505.997,-156.582 508.945,-162.931"/>
</g>
<!-- Node16 -->
<g id="node16" class="node"><title>Node16</title>
<g id="a_node16"><a xlink:href="../../d1/d73/Defs_8h.html" target="_top" xlink:title="Common definitions for 2D coordinates. ">
<polygon fill="none" stroke="black" points="748,-192.5 748,-211.5 840,-211.5 840,-192.5 748,-192.5"/>
<text text-anchor="middle" x="794" y="-199.5" font-family="Helvetica,sans-Serif" font-size="10.00">TPCBase/Defs.h</text>
</a>
</g>
</g>
<!-- Node12&#45;&gt;Node16 -->
<g id="edge17" class="edge"><title>Node12&#45;&gt;Node16</title>
<path fill="none" stroke="midnightblue" d="M765.654,-472.441C835.478,-449.087 1024.01,-385.633 1028,-380 1085.63,-298.725 918.599,-238.321 836.565,-214.339"/>
<polygon fill="midnightblue" stroke="midnightblue" points="837.344,-210.921 826.766,-211.53 835.414,-217.65 837.344,-210.921"/>
</g>
<!-- Node29 -->
<g id="node29" class="node"><title>Node29</title>
<g id="a_node29"><a xlink:href="../../de/d41/PadPos_8h.html" target="_top" xlink:title="TPCBase/PadPos.h">
<polygon fill="none" stroke="black" points="582.5,-304.5 582.5,-323.5 687.5,-323.5 687.5,-304.5 582.5,-304.5"/>
<text text-anchor="middle" x="635" y="-311.5" font-family="Helvetica,sans-Serif" font-size="10.00">TPCBase/PadPos.h</text>
</a>
</g>
</g>
<!-- Node12&#45;&gt;Node29 -->
<g id="edge32" class="edge"><title>Node12&#45;&gt;Node29</title>
<path fill="none" stroke="midnightblue" d="M722.47,-472.392C708.371,-464.649 688.997,-452.036 677,-436 653.55,-404.656 642.491,-359.203 637.87,-333.866"/>
<polygon fill="midnightblue" stroke="midnightblue" points="641.281,-333.049 636.178,-323.764 634.378,-334.205 641.281,-333.049"/>
</g>
<!-- Node30 -->
<g id="node30" class="node"><title>Node30</title>
<g id="a_node30"><a xlink:href="../../dd/d0b/PadSecPos_8h.html" target="_top" xlink:title="TPCBase/PadSecPos.h">
<polygon fill="none" stroke="black" points="487,-360.5 487,-379.5 609,-379.5 609,-360.5 487,-360.5"/>
<text text-anchor="middle" x="548" y="-367.5" font-family="Helvetica,sans-Serif" font-size="10.00">TPCBase/PadSecPos.h</text>
</a>
</g>
</g>
<!-- Node12&#45;&gt;Node30 -->
<g id="edge33" class="edge"><title>Node12&#45;&gt;Node30</title>
<path fill="none" stroke="midnightblue" d="M715.189,-472.445C693.17,-464.397 660.479,-451.314 634,-436 608.753,-421.399 582.375,-400.488 565.599,-386.36"/>
<polygon fill="midnightblue" stroke="midnightblue" points="567.635,-383.495 557.758,-379.659 563.087,-388.817 567.635,-383.495"/>
</g>
<!-- Node31 -->
<g id="node31" class="node"><title>Node31</title>
<g id="a_node31"><a xlink:href="../../d3/dd6/Sector_8h.html" target="_top" xlink:title="TPCBase/Sector.h">
<polygon fill="none" stroke="black" points="623.5,-248.5 623.5,-267.5 722.5,-267.5 722.5,-248.5 623.5,-248.5"/>
<text text-anchor="middle" x="673" y="-255.5" font-family="Helvetica,sans-Serif" font-size="10.00">TPCBase/Sector.h</text>
</a>
</g>
</g>
<!-- Node12&#45;&gt;Node31 -->
<g id="edge59" class="edge"><title>Node12&#45;&gt;Node31</title>
<path fill="none" stroke="midnightblue" d="M710.372,-472.479C681.994,-464.068 638.126,-450.407 601,-436 594,-433.284 482.063,-386.314 478,-380 440.036,-321.001 546.561,-285.917 616.764,-269.763"/>
<polygon fill="midnightblue" stroke="midnightblue" points="617.838,-273.11 626.836,-267.517 616.314,-266.278 617.838,-273.11"/>
</g>
<!-- Node33 -->
<g id="node33" class="node"><title>Node33</title>
<g id="a_node33"><a xlink:href="../../da/d61/PadROCPos_8h.html" target="_top" xlink:title="TPCBase/PadROCPos.h">
<polygon fill="none" stroke="black" points="891,-360.5 891,-379.5 1019,-379.5 1019,-360.5 891,-360.5"/>
<text text-anchor="middle" x="955" y="-367.5" font-family="Helvetica,sans-Serif" font-size="10.00">TPCBase/PadROCPos.h</text>
</a>
</g>
</g>
<!-- Node12&#45;&gt;Node33 -->
<g id="edge38" class="edge"><title>Node12&#45;&gt;Node33</title>
<path fill="none" stroke="midnightblue" d="M756.871,-472.368C794.314,-453.211 884.567,-407.036 929.166,-384.217"/>
<polygon fill="midnightblue" stroke="midnightblue" points="930.899,-387.262 938.208,-379.591 927.711,-381.03 930.899,-387.262"/>
</g>
<!-- Node35 -->
<g id="node35" class="node"><title>Node35</title>
<g id="a_node35"><a xlink:href="../../d3/d54/DigitPos_8h.html" target="_top" xlink:title="TPCBase/DigitPos.h">
<polygon fill="none" stroke="black" points="686,-416.5 686,-435.5 794,-435.5 794,-416.5 686,-416.5"/>
<text text-anchor="middle" x="740" y="-423.5" font-family="Helvetica,sans-Serif" font-size="10.00">TPCBase/DigitPos.h</text>
</a>
</g>
</g>
<!-- Node12&#45;&gt;Node35 -->
<g id="edge44" class="edge"><title>Node12&#45;&gt;Node35</title>
<path fill="none" stroke="midnightblue" d="M740,-472.083C740,-465.006 740,-454.861 740,-445.986"/>
<polygon fill="midnightblue" stroke="midnightblue" points="743.5,-445.751 740,-435.751 736.5,-445.751 743.5,-445.751"/>
</g>
<!-- Node37 -->
<g id="node37" class="node"><title>Node37</title>
<g id="a_node37"><a xlink:href="../../d1/d1f/FECInfo_8h.html" target="_top" xlink:title="TPCBase/FECInfo.h">
<polygon fill="none" stroke="black" points="1193.5,-248.5 1193.5,-267.5 1300.5,-267.5 1300.5,-248.5 1193.5,-248.5"/>
<text text-anchor="middle" x="1247" y="-255.5" font-family="Helvetica,sans-Serif" font-size="10.00">TPCBase/FECInfo.h</text>
</a>
</g>
</g>
<!-- Node12&#45;&gt;Node37 -->
<g id="edge52" class="edge"><title>Node12&#45;&gt;Node37</title>
<path fill="none" stroke="midnightblue" d="M791.764,-478.58C875.194,-473.964 1035.1,-461.958 1085,-436 1157.97,-398.045 1214.74,-313.353 1236.9,-276.591"/>
<polygon fill="midnightblue" stroke="midnightblue" points="1240.15,-277.964 1242.22,-267.572 1234.12,-274.41 1240.15,-277.964"/>
</g>
<!-- Node38 -->
<g id="node38" class="node"><title>Node38</title>
<g id="a_node38"><a xlink:href="../../da/d9d/PadRegionInfo_8h.html" target="_top" xlink:title="TPCBase/PadRegionInfo.h">
<polygon fill="none" stroke="black" points="941.5,-416.5 941.5,-435.5 1076.5,-435.5 1076.5,-416.5 941.5,-416.5"/>
<text text-anchor="middle" x="1009" y="-423.5" font-family="Helvetica,sans-Serif" font-size="10.00">TPCBase/PadRegionInfo.h</text>
</a>
</g>
</g>
<!-- Node12&#45;&gt;Node38 -->
<g id="edge54" class="edge"><title>Node12&#45;&gt;Node38</title>
<path fill="none" stroke="midnightblue" d="M782.624,-472.444C829.747,-462.984 905.692,-447.738 956.459,-437.547"/>
<polygon fill="midnightblue" stroke="midnightblue" points="957.46,-440.916 966.576,-435.516 956.082,-434.053 957.46,-440.916"/>
</g>
<!-- Node39 -->
<g id="node39" class="node"><title>Node39</title>
<g id="a_node39"><a xlink:href="../../d6/d42/PartitionInfo_8h.html" target="_top" xlink:title="TPCBase/PartitionInfo.h">
<polygon fill="none" stroke="black" points="1133.5,-416.5 1133.5,-435.5 1256.5,-435.5 1256.5,-416.5 1133.5,-416.5"/>
<text text-anchor="middle" x="1195" y="-423.5" font-family="Helvetica,sans-Serif" font-size="10.00">TPCBase/PartitionInfo.h</text>
</a>
</g>
</g>
<!-- Node12&#45;&gt;Node39 -->
<g id="edge58" class="edge"><title>Node12&#45;&gt;Node39</title>
<path fill="none" stroke="midnightblue" d="M791.751,-474.858C873.022,-465.213 1030.8,-446.487 1123.06,-435.537"/>
<polygon fill="midnightblue" stroke="midnightblue" points="1123.64,-438.994 1133.16,-434.34 1122.81,-432.043 1123.64,-438.994"/>
</g>
<!-- Node16&#45;&gt;Node15 -->
<g id="edge18" class="edge"><title>Node16&#45;&gt;Node15</title>
<path fill="none" stroke="midnightblue" d="M753.436,-192.444C702.58,-181.716 616.449,-163.548 569.99,-153.748"/>
<polygon fill="midnightblue" stroke="midnightblue" points="570.67,-150.314 560.163,-151.675 569.225,-157.164 570.67,-150.314"/>
</g>
<!-- Node17 -->
<g id="node17" class="node"><title>Node17</title>
<g id="a_node17"><a xlink:href="../../d2/dd0/Cartesian2D_8h.html" target="_top" xlink:title="MathUtils/Cartesian2D.h">
<polygon fill="none" stroke="black" points="103.5,-74.5 103.5,-93.5 228.5,-93.5 228.5,-74.5 103.5,-74.5"/>
<text text-anchor="middle" x="166" y="-81.5" font-family="Helvetica,sans-Serif" font-size="10.00">MathUtils/Cartesian2D.h</text>
</a>
</g>
</g>
<!-- Node16&#45;&gt;Node17 -->
<g id="edge19" class="edge"><title>Node16&#45;&gt;Node17</title>
<path fill="none" stroke="midnightblue" d="M769.592,-192.478C728.512,-178.476 642.711,-150.693 568,-136 422.803,-107.444 383.129,-123.323 237,-100 229.215,-98.7574 220.993,-97.226 213.013,-95.6212"/>
<polygon fill="midnightblue" stroke="midnightblue" points="213.589,-92.1662 203.087,-93.5655 212.169,-99.0207 213.589,-92.1662"/>
</g>
<!-- Node20 -->
<g id="node20" class="node"><title>Node20</title>
<g id="a_node20"><a xlink:href="../../dd/d76/Cartesian3D_8h.html" target="_top" xlink:title="MathUtils/Cartesian3D.h">
<polygon fill="none" stroke="black" points="731.5,-136.5 731.5,-155.5 856.5,-155.5 856.5,-136.5 731.5,-136.5"/>
<text text-anchor="middle" x="794" y="-143.5" font-family="Helvetica,sans-Serif" font-size="10.00">MathUtils/Cartesian3D.h</text>
</a>
</g>
</g>
<!-- Node16&#45;&gt;Node20 -->
<g id="edge22" class="edge"><title>Node16&#45;&gt;Node20</title>
<path fill="none" stroke="midnightblue" d="M794,-192.083C794,-185.006 794,-174.861 794,-165.986"/>
<polygon fill="midnightblue" stroke="midnightblue" points="797.5,-165.751 794,-155.751 790.5,-165.751 797.5,-165.751"/>
</g>
<!-- Node18 -->
<g id="node18" class="node"><title>Node18</title>
<polygon fill="none" stroke="#bfbfbf" points="-0.5,-1 -0.5,-31 150.5,-31 150.5,-1 -0.5,-1"/>
<text text-anchor="start" x="7.5" y="-19" font-family="Helvetica,sans-Serif" font-size="10.00">Math/GenVector/Displacement</text>
<text text-anchor="middle" x="75" y="-8" font-family="Helvetica,sans-Serif" font-size="10.00">Vector2D.h</text>
</g>
<!-- Node17&#45;&gt;Node18 -->
<g id="edge20" class="edge"><title>Node17&#45;&gt;Node18</title>
<path fill="none" stroke="midnightblue" d="M154.103,-74.3717C141.221,-65.0286 120.22,-49.7966 103.093,-37.375"/>
<polygon fill="midnightblue" stroke="midnightblue" points="104.703,-34.2194 94.5532,-31.1815 100.593,-39.8859 104.703,-34.2194"/>
</g>
<!-- Node19 -->
<g id="node19" class="node"><title>Node19</title>
<polygon fill="none" stroke="#bfbfbf" points="169,-6.5 169,-25.5 345,-25.5 345,-6.5 169,-6.5"/>
<text text-anchor="middle" x="257" y="-13.5" font-family="Helvetica,sans-Serif" font-size="10.00">Math/GenVector/PositionVector2D.h</text>
</g>
<!-- Node17&#45;&gt;Node19 -->
<g id="edge21" class="edge"><title>Node17&#45;&gt;Node19</title>
<path fill="none" stroke="midnightblue" d="M177.897,-74.3717C192.884,-63.5015 218.862,-44.6602 236.942,-31.5474"/>
<polygon fill="midnightblue" stroke="midnightblue" points="239.06,-34.3349 245.1,-25.6305 234.95,-28.6684 239.06,-34.3349"/>
</g>
<!-- Node20&#45;&gt;Node17 -->
<g id="edge31" class="edge"><title>Node20&#45;&gt;Node17</title>
<path fill="none" stroke="midnightblue" d="M731.325,-140.39C596.014,-130.373 284.853,-106.959 237,-100 228.846,-98.8142 220.223,-97.2551 211.905,-95.591"/>
<polygon fill="midnightblue" stroke="midnightblue" points="212.462,-92.1323 201.96,-93.527 211.04,-98.9862 212.462,-92.1323"/>
</g>
<!-- Node21 -->
<g id="node21" class="node"><title>Node21</title>
<polygon fill="none" stroke="#bfbfbf" points="934.5,-69 934.5,-99 1085.5,-99 1085.5,-69 934.5,-69"/>
<text text-anchor="start" x="942.5" y="-87" font-family="Helvetica,sans-Serif" font-size="10.00">Math/GenVector/Displacement</text>
<text text-anchor="middle" x="1010" y="-76" font-family="Helvetica,sans-Serif" font-size="10.00">Vector3D.h</text>
</g>
<!-- Node20&#45;&gt;Node21 -->
<g id="edge23" class="edge"><title>Node20&#45;&gt;Node21</title>
<path fill="none" stroke="midnightblue" d="M824.948,-136.403C857.385,-127.393 909.173,-113.007 949.724,-101.743"/>
<polygon fill="midnightblue" stroke="midnightblue" points="950.81,-105.074 959.509,-99.0253 948.937,-98.3295 950.81,-105.074"/>
</g>
<!-- Node22 -->
<g id="node22" class="node"><title>Node22</title>
<polygon fill="none" stroke="#bfbfbf" points="1104,-74.5 1104,-93.5 1280,-93.5 1280,-74.5 1104,-74.5"/>
<text text-anchor="middle" x="1192" y="-81.5" font-family="Helvetica,sans-Serif" font-size="10.00">Math/GenVector/PositionVector3D.h</text>
</g>
<!-- Node20&#45;&gt;Node22 -->
<g id="edge24" class="edge"><title>Node20&#45;&gt;Node22</title>
<path fill="none" stroke="midnightblue" d="M851.24,-136.466C911.614,-127.453 1009.51,-112.802 1094,-100 1104.55,-98.4008 1115.75,-96.6961 1126.65,-95.031"/>
<polygon fill="midnightblue" stroke="midnightblue" points="1127.19,-98.4882 1136.55,-93.517 1126.13,-91.5686 1127.19,-98.4882"/>
</g>
<!-- Node23 -->
<g id="node23" class="node"><title>Node23</title>
<polygon fill="none" stroke="#bfbfbf" points="246.5,-74.5 246.5,-93.5 395.5,-93.5 395.5,-74.5 246.5,-74.5"/>
<text text-anchor="middle" x="321" y="-81.5" font-family="Helvetica,sans-Serif" font-size="10.00">Math/GenVector/Rotation3D.h</text>
</g>
<!-- Node20&#45;&gt;Node23 -->
<g id="edge25" class="edge"><title>Node20&#45;&gt;Node23</title>
<path fill="none" stroke="midnightblue" d="M731.187,-138.935C654.156,-131.221 519.682,-116.856 405,-100 395.536,-98.609 385.503,-96.9654 375.788,-95.2851"/>
<polygon fill="midnightblue" stroke="midnightblue" points="376.274,-91.8168 365.818,-93.5299 375.06,-98.7108 376.274,-91.8168"/>
</g>
<!-- Node24 -->
<g id="node24" class="node"><title>Node24</title>
<polygon fill="none" stroke="#bfbfbf" points="414,-74.5 414,-93.5 570,-93.5 570,-74.5 414,-74.5"/>
<text text-anchor="middle" x="492" y="-81.5" font-family="Helvetica,sans-Serif" font-size="10.00">Math/GenVector/Transform3D.h</text>
</g>
<!-- Node20&#45;&gt;Node24 -->
<g id="edge26" class="edge"><title>Node20&#45;&gt;Node24</title>
<path fill="none" stroke="midnightblue" d="M751.051,-136.467C696.823,-125.693 603.55,-107.162 544.962,-95.5223"/>
<polygon fill="midnightblue" stroke="midnightblue" points="545.291,-92.0192 534.8,-93.5034 543.927,-98.885 545.291,-92.0192"/>
</g>
<!-- Node25 -->
<g id="node25" class="node"><title>Node25</title>
<polygon fill="none" stroke="#bfbfbf" points="588,-74.5 588,-93.5 748,-93.5 748,-74.5 588,-74.5"/>
<text text-anchor="middle" x="668" y="-81.5" font-family="Helvetica,sans-Serif" font-size="10.00">Math/GenVector/Translation3D.h</text>
</g>
<!-- Node20&#45;&gt;Node25 -->
<g id="edge27" class="edge"><title>Node20&#45;&gt;Node25</title>
<path fill="none" stroke="midnightblue" d="M775.947,-136.403C754.802,-126.334 719.56,-109.552 695.122,-97.9151"/>
<polygon fill="midnightblue" stroke="midnightblue" points="696.553,-94.72 686.019,-93.5806 693.543,-101.04 696.553,-94.72"/>
</g>
<!-- Node26 -->
<g id="node26" class="node"><title>Node26</title>
<polygon fill="none" stroke="#bfbfbf" points="766,-74.5 766,-93.5 822,-93.5 822,-74.5 766,-74.5"/>
<text text-anchor="middle" x="794" y="-81.5" font-family="Helvetica,sans-Serif" font-size="10.00">Rtypes.h</text>
</g>
<!-- Node20&#45;&gt;Node26 -->
<g id="edge28" class="edge"><title>Node20&#45;&gt;Node26</title>
<path fill="none" stroke="midnightblue" d="M794,-136.403C794,-127.938 794,-114.728 794,-103.82"/>
<polygon fill="midnightblue" stroke="midnightblue" points="797.5,-103.581 794,-93.5806 790.5,-103.581 797.5,-103.581"/>
</g>
<!-- Node27 -->
<g id="node27" class="node"><title>Node27</title>
<polygon fill="none" stroke="#bfbfbf" points="840,-74.5 840,-93.5 916,-93.5 916,-74.5 840,-74.5"/>
<text text-anchor="middle" x="878" y="-81.5" font-family="Helvetica,sans-Serif" font-size="10.00">TGeoMatrix.h</text>
</g>
<!-- Node20&#45;&gt;Node27 -->
<g id="edge29" class="edge"><title>Node20&#45;&gt;Node27</title>
<path fill="none" stroke="midnightblue" d="M806.035,-136.403C819.508,-126.78 841.566,-111.024 857.715,-99.4891"/>
<polygon fill="midnightblue" stroke="midnightblue" points="859.884,-102.241 865.987,-93.5806 855.815,-96.5449 859.884,-102.241"/>
</g>
<!-- Node28 -->
<g id="node28" class="node"><title>Node28</title>
<polygon fill="none" stroke="#bfbfbf" points="1298,-74.5 1298,-93.5 1352,-93.5 1352,-74.5 1298,-74.5"/>
<text text-anchor="middle" x="1325" y="-81.5" font-family="Helvetica,sans-Serif" font-size="10.00">iostream</text>
</g>
<!-- Node20&#45;&gt;Node28 -->
<g id="edge30" class="edge"><title>Node20&#45;&gt;Node28</title>
<path fill="none" stroke="midnightblue" d="M856.567,-145.148C951.276,-144.068 1136.1,-136.851 1288,-100 1291.07,-99.256 1294.21,-98.3021 1297.31,-97.2366"/>
<polygon fill="midnightblue" stroke="midnightblue" points="1298.82,-100.41 1306.91,-93.5726 1296.32,-93.8703 1298.82,-100.41"/>
</g>
<!-- Node30&#45;&gt;Node29 -->
<g id="edge37" class="edge"><title>Node30&#45;&gt;Node29</title>
<path fill="none" stroke="midnightblue" d="M561.978,-360.324C575.55,-351.9 596.38,-338.971 612.325,-329.074"/>
<polygon fill="midnightblue" stroke="midnightblue" points="614.406,-331.902 621.057,-323.655 610.714,-325.954 614.406,-331.902"/>
</g>
<!-- Node30&#45;&gt;Node31 -->
<g id="edge34" class="edge"><title>Node30&#45;&gt;Node31</title>
<path fill="none" stroke="midnightblue" d="M549.193,-360.303C551.486,-346.671 557.713,-320.163 573,-304 587.705,-288.453 608.776,-277.883 627.788,-270.917"/>
<polygon fill="midnightblue" stroke="midnightblue" points="629.169,-274.143 637.497,-267.595 626.903,-267.52 629.169,-274.143"/>
</g>
<!-- Node31&#45;&gt;Node16 -->
<g id="edge36" class="edge"><title>Node31&#45;&gt;Node16</title>
<path fill="none" stroke="midnightblue" d="M692.173,-248.444C711.909,-239.636 742.885,-225.812 765.493,-215.722"/>
<polygon fill="midnightblue" stroke="midnightblue" points="767.211,-218.788 774.917,-211.516 764.359,-212.396 767.211,-218.788"/>
</g>
<!-- Node32 -->
<g id="node32" class="node"><title>Node32</title>
<g id="a_node32"><a xlink:href="../../d6/d51/TPC_2base_2include_2TPCBase_2Constants_8h.html" target="_top" xlink:title="TPCBase/Constants.h">
<polygon fill="none" stroke="black" points="614,-192.5 614,-211.5 730,-211.5 730,-192.5 614,-192.5"/>
<text text-anchor="middle" x="672" y="-199.5" font-family="Helvetica,sans-Serif" font-size="10.00">TPCBase/Constants.h</text>
</a>
</g>
</g>
<!-- Node31&#45;&gt;Node32 -->
<g id="edge35" class="edge"><title>Node31&#45;&gt;Node32</title>
<path fill="none" stroke="midnightblue" d="M672.835,-248.083C672.704,-241.006 672.516,-230.861 672.352,-221.986"/>
<polygon fill="midnightblue" stroke="midnightblue" points="675.847,-221.685 672.162,-211.751 668.848,-221.814 675.847,-221.685"/>
</g>
<!-- Node33&#45;&gt;Node16 -->
<g id="edge39" class="edge"><title>Node33&#45;&gt;Node16</title>
<path fill="none" stroke="midnightblue" d="M952.142,-360.301C947.516,-347.127 937.43,-321.771 923,-304 892.555,-266.505 845.743,-234.314 817.671,-216.888"/>
<polygon fill="midnightblue" stroke="midnightblue" points="819.281,-213.77 808.92,-211.558 815.639,-219.749 819.281,-213.77"/>
</g>
<!-- Node33&#45;&gt;Node29 -->
<g id="edge43" class="edge"><title>Node33&#45;&gt;Node29</title>
<path fill="none" stroke="midnightblue" d="M904.295,-360.444C847.653,-350.885 756.004,-335.419 695.621,-325.23"/>
<polygon fill="midnightblue" stroke="midnightblue" points="695.911,-321.729 685.468,-323.516 694.746,-328.632 695.911,-321.729"/>
</g>
<!-- Node34 -->
<g id="node34" class="node"><title>Node34</title>
<g id="a_node34"><a xlink:href="../../dc/d14/ROC_8h.html" target="_top" xlink:title="TPCBase/ROC.h">
<polygon fill="none" stroke="black" points="821.5,-304.5 821.5,-323.5 914.5,-323.5 914.5,-304.5 821.5,-304.5"/>
<text text-anchor="middle" x="868" y="-311.5" font-family="Helvetica,sans-Serif" font-size="10.00">TPCBase/ROC.h</text>
</a>
</g>
</g>
<!-- Node33&#45;&gt;Node34 -->
<g id="edge40" class="edge"><title>Node33&#45;&gt;Node34</title>
<path fill="none" stroke="midnightblue" d="M941.022,-360.324C927.45,-351.9 906.62,-338.971 890.675,-329.074"/>
<polygon fill="midnightblue" stroke="midnightblue" points="892.286,-325.954 881.943,-323.655 888.594,-331.902 892.286,-325.954"/>
</g>
<!-- Node34&#45;&gt;Node16 -->
<g id="edge41" class="edge"><title>Node34&#45;&gt;Node16</title>
<path fill="none" stroke="midnightblue" d="M862.193,-304.368C849.981,-286.215 821.448,-243.802 805.43,-219.99"/>
<polygon fill="midnightblue" stroke="midnightblue" points="808.266,-217.935 799.78,-211.591 802.457,-221.842 808.266,-217.935"/>
</g>
<!-- Node34&#45;&gt;Node31 -->
<g id="edge42" class="edge"><title>Node34&#45;&gt;Node31</title>
<path fill="none" stroke="midnightblue" d="M837.102,-304.444C803.726,-295.201 750.406,-280.436 713.651,-270.257"/>
<polygon fill="midnightblue" stroke="midnightblue" points="714.325,-266.812 703.754,-267.516 712.457,-273.558 714.325,-266.812"/>
</g>
<!-- Node35&#45;&gt;Node16 -->
<g id="edge45" class="edge"><title>Node35&#45;&gt;Node16</title>
<path fill="none" stroke="midnightblue" d="M742.117,-416.297C750.079,-383.563 778.341,-267.375 789.46,-221.666"/>
<polygon fill="midnightblue" stroke="midnightblue" points="792.876,-222.428 791.839,-211.884 786.075,-220.773 792.876,-222.428"/>
</g>
<!-- Node35&#45;&gt;Node29 -->
<g id="edge50" class="edge"><title>Node35&#45;&gt;Node29</title>
<path fill="none" stroke="midnightblue" d="M731.761,-416.368C714.203,-397.974 672.868,-354.671 650.322,-331.052"/>
<polygon fill="midnightblue" stroke="midnightblue" points="652.637,-328.408 643.201,-323.591 647.574,-333.242 652.637,-328.408"/>
</g>
<!-- Node35&#45;&gt;Node30 -->
<g id="edge51" class="edge"><title>Node35&#45;&gt;Node30</title>
<path fill="none" stroke="midnightblue" d="M709.577,-416.444C676.715,-407.201 624.215,-392.436 588.026,-382.257"/>
<polygon fill="midnightblue" stroke="midnightblue" points="588.855,-378.855 578.281,-379.516 586.96,-385.593 588.855,-378.855"/>
</g>
<!-- Node36 -->
<g id="node36" class="node"><title>Node36</title>
<g id="a_node36"><a xlink:href="../../df/d26/CRU_8h.html" target="_top" xlink:title="TPCBase/CRU.h">
<polygon fill="none" stroke="black" points="779.5,-360.5 779.5,-379.5 872.5,-379.5 872.5,-360.5 779.5,-360.5"/>
<text text-anchor="middle" x="826" y="-367.5" font-family="Helvetica,sans-Serif" font-size="10.00">TPCBase/CRU.h</text>
</a>
</g>
</g>
<!-- Node35&#45;&gt;Node36 -->
<g id="edge46" class="edge"><title>Node35&#45;&gt;Node36</title>
<path fill="none" stroke="midnightblue" d="M753.817,-416.324C767.233,-407.9 787.824,-394.971 803.586,-385.074"/>
<polygon fill="midnightblue" stroke="midnightblue" points="805.609,-387.936 812.217,-379.655 801.887,-382.008 805.609,-387.936"/>
</g>
<!-- Node36&#45;&gt;Node16 -->
<g id="edge47" class="edge"><title>Node36&#45;&gt;Node16</title>
<path fill="none" stroke="midnightblue" d="M823.184,-360.456C820.303,-351.465 815.856,-336.861 813,-324 805.038,-288.142 799.171,-245.585 796.196,-221.695"/>
<polygon fill="midnightblue" stroke="midnightblue" points="799.647,-221.085 794.971,-211.578 792.698,-221.926 799.647,-221.085"/>
</g>
<!-- Node36&#45;&gt;Node31 -->
<g id="edge48" class="edge"><title>Node36&#45;&gt;Node31</title>
<path fill="none" stroke="midnightblue" d="M813.994,-360.368C787.851,-341.573 725.532,-296.768 693.215,-273.533"/>
<polygon fill="midnightblue" stroke="midnightblue" points="695.112,-270.587 684.95,-267.591 691.026,-276.271 695.112,-270.587"/>
</g>
<!-- Node36&#45;&gt;Node34 -->
<g id="edge49" class="edge"><title>Node36&#45;&gt;Node34</title>
<path fill="none" stroke="midnightblue" d="M832.935,-360.083C838.929,-352.377 847.752,-341.033 855.048,-331.653"/>
<polygon fill="midnightblue" stroke="midnightblue" points="857.817,-333.793 861.194,-323.751 852.291,-329.496 857.817,-333.793"/>
</g>
<!-- Node37&#45;&gt;Node28 -->
<g id="edge53" class="edge"><title>Node37&#45;&gt;Node28</title>
<path fill="none" stroke="midnightblue" d="M1250.98,-248.234C1263.18,-221.317 1300.3,-139.476 1316.86,-102.942"/>
<polygon fill="midnightblue" stroke="midnightblue" points="1320.18,-104.097 1321.13,-93.5442 1313.81,-101.206 1320.18,-104.097"/>
</g>
<!-- Node38&#45;&gt;Node9 -->
<g id="edge55" class="edge"><title>Node38&#45;&gt;Node9</title>
<path fill="none" stroke="midnightblue" d="M1052.73,-416.444C1108.5,-405.532 1203.62,-386.923 1253.05,-377.251"/>
<polygon fill="midnightblue" stroke="midnightblue" points="1253.73,-380.684 1262.87,-375.329 1252.39,-373.815 1253.73,-380.684"/>
</g>
<!-- Node38&#45;&gt;Node16 -->
<g id="edge56" class="edge"><title>Node38&#45;&gt;Node16</title>
<path fill="none" stroke="midnightblue" d="M1024.78,-416.467C1037.2,-408.769 1053.61,-396.179 1061,-380 1085.39,-326.643 1098.88,-292.798 1061,-248 1034.57,-216.738 920.496,-207.185 850.283,-204.272"/>
<polygon fill="midnightblue" stroke="midnightblue" points="850.384,-200.773 840.258,-203.888 850.117,-207.768 850.384,-200.773"/>
</g>
<!-- Node38&#45;&gt;Node29 -->
<g id="edge57" class="edge"><title>Node38&#45;&gt;Node29</title>
<path fill="none" stroke="midnightblue" d="M941.407,-416.973C893.12,-410.099 827.051,-398.348 771,-380 729.8,-366.513 684.973,-343.263 658.465,-328.533"/>
<polygon fill="midnightblue" stroke="midnightblue" points="660,-325.38 649.568,-323.525 656.566,-331.48 660,-325.38"/>
</g>
<!-- Node40&#45;&gt;Node5 -->
<g id="edge62" class="edge"><title>Node40&#45;&gt;Node5</title>
<path fill="none" stroke="midnightblue" d="M397.376,-472.083C393.544,-464.691 387.976,-453.953 383.235,-444.811"/>
<polygon fill="midnightblue" stroke="midnightblue" points="386.248,-443.018 378.538,-435.751 380.034,-446.24 386.248,-443.018"/>
</g>
</g>
</svg>
