<?xml version="1.0" encoding="UTF-8" standalone="no"?>
<!DOCTYPE svg PUBLIC "-//W3C//DTD SVG 1.1//EN"
 "http://www.w3.org/Graphics/SVG/1.1/DTD/svg11.dtd">
<!-- Generated by graphviz version 2.36.0 (20140111.2315)
 -->
<!-- Title: /home/travis/build/AliceO2Group/AliceO2/Detectors/TPC/simulation/include/TPCSimulation/SAMPAProcessing.h Pages: 1 -->
<!--zoomable 478 -->
<svg id="main" version="1.1" xmlns="http://www.w3.org/2000/svg" xmlns:xlink="http://www.w3.org/1999/xlink" xml:space="preserve" onload="init(evt)">
<style type="text/css"><![CDATA[
.edge:hover path { stroke: red; }
.edge:hover polygon { stroke: red; fill: red; }
]]></style>
<script type="text/javascript"><![CDATA[
var edges = document.getElementsByTagName('g');
if (edges && edges.length) {
  for (var i=0;i<edges.length;i++) {
    if (edges[i].id.substr(0,4)=='edge') {
      edges[i].setAttribute('class','edge');
    }
  }
}
]]></script>
        <defs>
                <circle id="rim" cx="0" cy="0" r="7"/>
                <circle id="rim2" cx="0" cy="0" r="3.5"/>
                <g id="zoomPlus">
                        <use xlink:href="#rim" fill="#404040">
                                <set attributeName="fill" to="#808080" begin="zoomplus.mouseover" end="zoomplus.mouseout"/>
                        </use>
                        <path d="M-4,0h8M0,-4v8" fill="none" stroke="white" stroke-width="1.5" pointer-events="none"/>
                </g>
                <g id="zoomMin">
                        <use xlink:href="#rim" fill="#404040">
                                <set attributeName="fill" to="#808080" begin="zoomminus.mouseover" end="zoomminus.mouseout"/>
                        </use>
                        <path d="M-4,0h8" fill="none" stroke="white" stroke-width="1.5" pointer-events="none"/>
                </g>
                <g id="dirArrow">
                        <path fill="none" stroke="white" stroke-width="1.5" d="M0,-3.0v7 M-2.5,-0.5L0,-3.0L2.5,-0.5"/>
                </g>
               <g id="resetDef">
                       <use xlink:href="#rim2" fill="#404040">
                               <set attributeName="fill" to="#808080" begin="reset.mouseover" end="reset.mouseout"/>
                       </use>
               </g>
        </defs>

<script type="text/javascript">
var viewWidth = 1358;
var viewHeight = 478;
var sectionId = 'dynsection-0';
</script>
<script xlink:href="../../svgpan.js"/>
<svg id="graph" class="graph">
<g id="viewport">
<title>/home/travis/build/AliceO2Group/AliceO2/Detectors/TPC/simulation/include/TPCSimulation/SAMPAProcessing.h</title>
<!-- Node1 -->
<g id="node1" class="node"><title>Node1</title>
<polygon fill="#bfbfbf" stroke="black" points="479.5,-417 479.5,-469 694.5,-469 694.5,-417 479.5,-417"/>
<text text-anchor="start" x="487.5" y="-457" font-family="Helvetica,sans-Serif" font-size="10.00">/home/travis/build</text>
<text text-anchor="start" x="487.5" y="-446" font-family="Helvetica,sans-Serif" font-size="10.00">/AliceO2Group/AliceO2</text>
<text text-anchor="start" x="487.5" y="-435" font-family="Helvetica,sans-Serif" font-size="10.00">/Detectors/TPC/simulation</text>
<text text-anchor="middle" x="587" y="-424" font-family="Helvetica,sans-Serif" font-size="10.00">/include/TPCSimulation/SAMPAProcessing.h</text>
</g>
<!-- Node2 -->
<g id="node2" class="node"><title>Node2</title>
<polygon fill="none" stroke="#bfbfbf" points="747,-248.5 747,-267.5 791,-267.5 791,-248.5 747,-248.5"/>
<text text-anchor="middle" x="769" y="-255.5" font-family="Helvetica,sans-Serif" font-size="10.00">Vc/Vc</text>
</g>
<!-- Node1&#45;&gt;Node2 -->
<g id="edge1" class="edge"><title>Node1&#45;&gt;Node2</title>
<path fill="none" stroke="midnightblue" d="M619.201,-416.725C632.519,-405.842 647.881,-392.714 661,-380 697.376,-344.745 735.963,-299.283 755.688,-275.372"/>
<polygon fill="midnightblue" stroke="midnightblue" points="758.43,-277.549 762.063,-267.596 753.016,-273.111 758.43,-277.549"/>
</g>
<!-- Node3 -->
<g id="node3" class="node"><title>Node3</title>
<g id="a_node3"><a xlink:href="../../dd/d0b/PadSecPos_8h.html" target="_top" xlink:title="TPCBase/PadSecPos.h">
<polygon fill="none" stroke="black" points="383,-304.5 383,-323.5 505,-323.5 505,-304.5 383,-304.5"/>
<text text-anchor="middle" x="444" y="-311.5" font-family="Helvetica,sans-Serif" font-size="10.00">TPCBase/PadSecPos.h</text>
</a>
</g>
</g>
<!-- Node1&#45;&gt;Node3 -->
<g id="edge2" class="edge"><title>Node1&#45;&gt;Node3</title>
<path fill="none" stroke="midnightblue" d="M555.56,-416.853C541.975,-405.772 526.013,-392.461 512,-380 493.636,-363.671 473.368,-344.082 459.778,-330.706"/>
<polygon fill="midnightblue" stroke="midnightblue" points="462.184,-328.163 452.613,-323.62 457.262,-333.14 462.184,-328.163"/>
</g>
<!-- Node21 -->
<g id="node21" class="node"><title>Node21</title>
<g id="a_node21"><a xlink:href="../../d3/d47/ParameterElectronics_8h.html" target="_top" xlink:title="Definition of the parameter class for the detector electronics. ">
<polygon fill="none" stroke="black" points="274,-360.5 274,-379.5 438,-379.5 438,-360.5 274,-360.5"/>
<text text-anchor="middle" x="356" y="-367.5" font-family="Helvetica,sans-Serif" font-size="10.00">TPCBase/ParameterElectronics.h</text>
</a>
</g>
</g>
<!-- Node1&#45;&gt;Node21 -->
<g id="edge21" class="edge"><title>Node1&#45;&gt;Node21</title>
<path fill="none" stroke="midnightblue" d="M505.558,-416.968C467.396,-405.239 423.787,-391.835 393.547,-382.54"/>
<polygon fill="midnightblue" stroke="midnightblue" points="394.418,-379.147 383.831,-379.554 392.361,-385.838 394.418,-379.147"/>
</g>
<!-- Node23 -->
<g id="node23" class="node"><title>Node23</title>
<g id="a_node23"><a xlink:href="../../dd/d94/Baseline_8h.html" target="_top" xlink:title="TPCSimulation/Baseline.h">
<polygon fill="none" stroke="black" points="521.5,-360.5 521.5,-379.5 652.5,-379.5 652.5,-360.5 521.5,-360.5"/>
<text text-anchor="middle" x="587" y="-367.5" font-family="Helvetica,sans-Serif" font-size="10.00">TPCSimulation/Baseline.h</text>
</a>
</g>
</g>
<!-- Node1&#45;&gt;Node23 -->
<g id="edge23" class="edge"><title>Node1&#45;&gt;Node23</title>
<path fill="none" stroke="midnightblue" d="M587,-416.768C587,-407.89 587,-398.074 587,-389.816"/>
<polygon fill="midnightblue" stroke="midnightblue" points="590.5,-389.757 587,-379.757 583.5,-389.757 590.5,-389.757"/>
</g>
<!-- Node29 -->
<g id="node29" class="node"><title>Node29</title>
<polygon fill="none" stroke="#bfbfbf" points="745,-360.5 745,-379.5 803,-379.5 803,-360.5 745,-360.5"/>
<text text-anchor="middle" x="774" y="-367.5" font-family="Helvetica,sans-Serif" font-size="10.00">TSpline.h</text>
</g>
<!-- Node1&#45;&gt;Node29 -->
<g id="edge32" class="edge"><title>Node1&#45;&gt;Node29</title>
<path fill="none" stroke="midnightblue" d="M652.929,-416.968C683.058,-405.529 717.381,-392.497 741.769,-383.237"/>
<polygon fill="midnightblue" stroke="midnightblue" points="743.14,-386.461 751.247,-379.639 740.656,-379.916 743.14,-386.461"/>
</g>
<!-- Node4 -->
<g id="node4" class="node"><title>Node4</title>
<g id="a_node4"><a xlink:href="../../d3/dd6/Sector_8h.html" target="_top" xlink:title="TPCBase/Sector.h">
<polygon fill="none" stroke="black" points="313.5,-248.5 313.5,-267.5 412.5,-267.5 412.5,-248.5 313.5,-248.5"/>
<text text-anchor="middle" x="363" y="-255.5" font-family="Helvetica,sans-Serif" font-size="10.00">TPCBase/Sector.h</text>
</a>
</g>
</g>
<!-- Node3&#45;&gt;Node4 -->
<g id="edge3" class="edge"><title>Node3&#45;&gt;Node4</title>
<path fill="none" stroke="midnightblue" d="M430.986,-304.324C418.468,-295.979 399.318,-283.212 384.529,-273.352"/>
<polygon fill="midnightblue" stroke="midnightblue" points="386.244,-270.289 375.982,-267.655 382.361,-276.114 386.244,-270.289"/>
</g>
<!-- Node20 -->
<g id="node20" class="node"><title>Node20</title>
<g id="a_node20"><a xlink:href="../../de/d41/PadPos_8h.html" target="_top" xlink:title="TPCBase/PadPos.h">
<polygon fill="none" stroke="black" points="190.5,-248.5 190.5,-267.5 295.5,-267.5 295.5,-248.5 190.5,-248.5"/>
<text text-anchor="middle" x="243" y="-255.5" font-family="Helvetica,sans-Serif" font-size="10.00">TPCBase/PadPos.h</text>
</a>
</g>
</g>
<!-- Node3&#45;&gt;Node20 -->
<g id="edge20" class="edge"><title>Node3&#45;&gt;Node20</title>
<path fill="none" stroke="midnightblue" d="M412.151,-304.444C377.602,-295.162 322.318,-280.309 284.417,-270.127"/>
<polygon fill="midnightblue" stroke="midnightblue" points="285.266,-266.731 274.7,-267.516 283.449,-273.491 285.266,-266.731"/>
</g>
<!-- Node5 -->
<g id="node5" class="node"><title>Node5</title>
<g id="a_node5"><a xlink:href="../../d6/d51/TPC_2base_2include_2TPCBase_2Constants_8h.html" target="_top" xlink:title="TPCBase/Constants.h">
<polygon fill="none" stroke="black" points="244,-192.5 244,-211.5 360,-211.5 360,-192.5 244,-192.5"/>
<text text-anchor="middle" x="302" y="-199.5" font-family="Helvetica,sans-Serif" font-size="10.00">TPCBase/Constants.h</text>
</a>
</g>
</g>
<!-- Node4&#45;&gt;Node5 -->
<g id="edge4" class="edge"><title>Node4&#45;&gt;Node5</title>
<path fill="none" stroke="midnightblue" d="M353.199,-248.324C344.182,-240.341 330.594,-228.313 319.682,-218.653"/>
<polygon fill="midnightblue" stroke="midnightblue" points="321.787,-215.842 311.979,-211.834 317.147,-221.083 321.787,-215.842"/>
</g>
<!-- Node6 -->
<g id="node6" class="node"><title>Node6</title>
<g id="a_node6"><a xlink:href="../../d1/d73/Defs_8h.html" target="_top" xlink:title="Common definitions for 2D coordinates. ">
<polygon fill="none" stroke="black" points="378,-192.5 378,-211.5 470,-211.5 470,-192.5 378,-192.5"/>
<text text-anchor="middle" x="424" y="-199.5" font-family="Helvetica,sans-Serif" font-size="10.00">TPCBase/Defs.h</text>
</a>
</g>
</g>
<!-- Node4&#45;&gt;Node6 -->
<g id="edge5" class="edge"><title>Node4&#45;&gt;Node6</title>
<path fill="none" stroke="midnightblue" d="M372.801,-248.324C381.818,-240.341 395.406,-228.313 406.318,-218.653"/>
<polygon fill="midnightblue" stroke="midnightblue" points="408.853,-221.083 414.021,-211.834 404.213,-215.842 408.853,-221.083"/>
</g>
<!-- Node7 -->
<g id="node7" class="node"><title>Node7</title>
<polygon fill="none" stroke="#bfbfbf" points="352,-136.5 352,-155.5 396,-155.5 396,-136.5 352,-136.5"/>
<text text-anchor="middle" x="374" y="-143.5" font-family="Helvetica,sans-Serif" font-size="10.00">cmath</text>
</g>
<!-- Node6&#45;&gt;Node7 -->
<g id="edge6" class="edge"><title>Node6&#45;&gt;Node7</title>
<path fill="none" stroke="midnightblue" d="M415.744,-192.083C408.535,-184.298 397.89,-172.801 389.154,-163.367"/>
<polygon fill="midnightblue" stroke="midnightblue" points="391.465,-160.711 382.103,-155.751 386.329,-165.467 391.465,-160.711"/>
</g>
<!-- Node8 -->
<g id="node8" class="node"><title>Node8</title>
<g id="a_node8"><a xlink:href="../../d2/dd0/Cartesian2D_8h.html" target="_top" xlink:title="MathUtils/Cartesian2D.h">
<polygon fill="none" stroke="black" points="103.5,-74.5 103.5,-93.5 228.5,-93.5 228.5,-74.5 103.5,-74.5"/>
<text text-anchor="middle" x="166" y="-81.5" font-family="Helvetica,sans-Serif" font-size="10.00">MathUtils/Cartesian2D.h</text>
</a>
</g>
</g>
<!-- Node6&#45;&gt;Node8 -->
<g id="edge7" class="edge"><title>Node6&#45;&gt;Node8</title>
<path fill="none" stroke="midnightblue" d="M423.964,-192.406C423.413,-178.426 420.192,-150.835 404,-136 403.124,-135.198 285.943,-110.337 216.355,-95.6275"/>
<polygon fill="midnightblue" stroke="midnightblue" points="216.961,-92.1781 206.453,-93.535 215.513,-99.0269 216.961,-92.1781"/>
</g>
<!-- Node11 -->
<g id="node11" class="node"><title>Node11</title>
<g id="a_node11"><a xlink:href="../../dd/d76/Cartesian3D_8h.html" target="_top" xlink:title="MathUtils/Cartesian3D.h">
<polygon fill="none" stroke="black" points="710.5,-136.5 710.5,-155.5 835.5,-155.5 835.5,-136.5 710.5,-136.5"/>
<text text-anchor="middle" x="773" y="-143.5" font-family="Helvetica,sans-Serif" font-size="10.00">MathUtils/Cartesian3D.h</text>
</a>
</g>
</g>
<!-- Node6&#45;&gt;Node11 -->
<g id="edge10" class="edge"><title>Node6&#45;&gt;Node11</title>
<path fill="none" stroke="midnightblue" d="M470.345,-193.829C531.316,-184.395 638.808,-167.763 707.917,-157.07"/>
<polygon fill="midnightblue" stroke="midnightblue" points="708.478,-160.525 717.825,-155.537 707.407,-153.607 708.478,-160.525"/>
</g>
<!-- Node9 -->
<g id="node9" class="node"><title>Node9</title>
<polygon fill="none" stroke="#bfbfbf" points="-0.5,-1 -0.5,-31 150.5,-31 150.5,-1 -0.5,-1"/>
<text text-anchor="start" x="7.5" y="-19" font-family="Helvetica,sans-Serif" font-size="10.00">Math/GenVector/Displacement</text>
<text text-anchor="middle" x="75" y="-8" font-family="Helvetica,sans-Serif" font-size="10.00">Vector2D.h</text>
</g>
<!-- Node8&#45;&gt;Node9 -->
<g id="edge8" class="edge"><title>Node8&#45;&gt;Node9</title>
<path fill="none" stroke="midnightblue" d="M154.103,-74.3717C141.221,-65.0286 120.22,-49.7966 103.093,-37.375"/>
<polygon fill="midnightblue" stroke="midnightblue" points="104.703,-34.2194 94.5532,-31.1815 100.593,-39.8859 104.703,-34.2194"/>
</g>
<!-- Node10 -->
<g id="node10" class="node"><title>Node10</title>
<polygon fill="none" stroke="#bfbfbf" points="169,-6.5 169,-25.5 345,-25.5 345,-6.5 169,-6.5"/>
<text text-anchor="middle" x="257" y="-13.5" font-family="Helvetica,sans-Serif" font-size="10.00">Math/GenVector/PositionVector2D.h</text>
</g>
<!-- Node8&#45;&gt;Node10 -->
<g id="edge9" class="edge"><title>Node8&#45;&gt;Node10</title>
<path fill="none" stroke="midnightblue" d="M177.897,-74.3717C192.884,-63.5015 218.862,-44.6602 236.942,-31.5474"/>
<polygon fill="midnightblue" stroke="midnightblue" points="239.06,-34.3349 245.1,-25.6305 234.95,-28.6684 239.06,-34.3349"/>
</g>
<!-- Node11&#45;&gt;Node8 -->
<g id="edge19" class="edge"><title>Node11&#45;&gt;Node8</title>
<path fill="none" stroke="midnightblue" d="M710.404,-142.275C610.072,-137.34 407.228,-125.028 237,-100 228.847,-98.8013 220.226,-97.236 211.908,-95.5697"/>
<polygon fill="midnightblue" stroke="midnightblue" points="212.466,-92.111 201.963,-93.5048 211.043,-98.9648 212.466,-92.111"/>
</g>
<!-- Node12 -->
<g id="node12" class="node"><title>Node12</title>
<polygon fill="none" stroke="#bfbfbf" points="1199.5,-69 1199.5,-99 1350.5,-99 1350.5,-69 1199.5,-69"/>
<text text-anchor="start" x="1207.5" y="-87" font-family="Helvetica,sans-Serif" font-size="10.00">Math/GenVector/Displacement</text>
<text text-anchor="middle" x="1275" y="-76" font-family="Helvetica,sans-Serif" font-size="10.00">Vector3D.h</text>
</g>
<!-- Node11&#45;&gt;Node12 -->
<g id="edge11" class="edge"><title>Node11&#45;&gt;Node12</title>
<path fill="none" stroke="midnightblue" d="M835.686,-139.559C915.344,-132.349 1057.3,-118.516 1189.21,-100.048"/>
<polygon fill="midnightblue" stroke="midnightblue" points="1190.09,-103.459 1199.5,-98.5951 1189.11,-96.5278 1190.09,-103.459"/>
</g>
<!-- Node13 -->
<g id="node13" class="node"><title>Node13</title>
<polygon fill="none" stroke="#bfbfbf" points="246,-74.5 246,-93.5 422,-93.5 422,-74.5 246,-74.5"/>
<text text-anchor="middle" x="334" y="-81.5" font-family="Helvetica,sans-Serif" font-size="10.00">Math/GenVector/PositionVector3D.h</text>
</g>
<!-- Node11&#45;&gt;Node13 -->
<g id="edge12" class="edge"><title>Node11&#45;&gt;Node13</title>
<path fill="none" stroke="midnightblue" d="M710.347,-137.249C641.533,-128.626 527.792,-114.053 430,-100 419.325,-98.4661 407.995,-96.7628 397.003,-95.0705"/>
<polygon fill="midnightblue" stroke="midnightblue" points="397.45,-91.598 387.032,-93.5245 396.377,-98.5153 397.45,-91.598"/>
</g>
<!-- Node14 -->
<g id="node14" class="node"><title>Node14</title>
<polygon fill="none" stroke="#bfbfbf" points="439.5,-74.5 439.5,-93.5 588.5,-93.5 588.5,-74.5 439.5,-74.5"/>
<text text-anchor="middle" x="514" y="-81.5" font-family="Helvetica,sans-Serif" font-size="10.00">Math/GenVector/Rotation3D.h</text>
</g>
<!-- Node11&#45;&gt;Node14 -->
<g id="edge13" class="edge"><title>Node11&#45;&gt;Node14</title>
<path fill="none" stroke="midnightblue" d="M736.167,-136.467C690.045,-125.783 610.99,-107.469 560.676,-95.8129"/>
<polygon fill="midnightblue" stroke="midnightblue" points="561.238,-92.3506 550.706,-93.5034 559.658,-99.17 561.238,-92.3506"/>
</g>
<!-- Node15 -->
<g id="node15" class="node"><title>Node15</title>
<polygon fill="none" stroke="#bfbfbf" points="607,-74.5 607,-93.5 763,-93.5 763,-74.5 607,-74.5"/>
<text text-anchor="middle" x="685" y="-81.5" font-family="Helvetica,sans-Serif" font-size="10.00">Math/GenVector/Transform3D.h</text>
</g>
<!-- Node11&#45;&gt;Node15 -->
<g id="edge14" class="edge"><title>Node11&#45;&gt;Node15</title>
<path fill="none" stroke="midnightblue" d="M760.392,-136.403C746.277,-126.78 723.169,-111.024 706.251,-99.4891"/>
<polygon fill="midnightblue" stroke="midnightblue" points="707.819,-96.3222 697.585,-93.5806 703.875,-102.106 707.819,-96.3222"/>
</g>
<!-- Node16 -->
<g id="node16" class="node"><title>Node16</title>
<polygon fill="none" stroke="#bfbfbf" points="781,-74.5 781,-93.5 941,-93.5 941,-74.5 781,-74.5"/>
<text text-anchor="middle" x="861" y="-81.5" font-family="Helvetica,sans-Serif" font-size="10.00">Math/GenVector/Translation3D.h</text>
</g>
<!-- Node11&#45;&gt;Node16 -->
<g id="edge15" class="edge"><title>Node11&#45;&gt;Node16</title>
<path fill="none" stroke="midnightblue" d="M785.608,-136.403C799.723,-126.78 822.831,-111.024 839.749,-99.4891"/>
<polygon fill="midnightblue" stroke="midnightblue" points="842.125,-102.106 848.415,-93.5806 838.181,-96.3222 842.125,-102.106"/>
</g>
<!-- Node17 -->
<g id="node17" class="node"><title>Node17</title>
<polygon fill="none" stroke="#bfbfbf" points="959,-74.5 959,-93.5 1015,-93.5 1015,-74.5 959,-74.5"/>
<text text-anchor="middle" x="987" y="-81.5" font-family="Helvetica,sans-Serif" font-size="10.00">Rtypes.h</text>
</g>
<!-- Node11&#45;&gt;Node17 -->
<g id="edge16" class="edge"><title>Node11&#45;&gt;Node17</title>
<path fill="none" stroke="midnightblue" d="M813.163,-136.432C849.332,-128.33 903.756,-115.174 950,-100 952.566,-99.1579 955.209,-98.2246 957.845,-97.2473"/>
<polygon fill="midnightblue" stroke="midnightblue" points="959.165,-100.489 967.214,-93.6003 956.626,-93.9661 959.165,-100.489"/>
</g>
<!-- Node18 -->
<g id="node18" class="node"><title>Node18</title>
<polygon fill="none" stroke="#bfbfbf" points="1033,-74.5 1033,-93.5 1109,-93.5 1109,-74.5 1033,-74.5"/>
<text text-anchor="middle" x="1071" y="-81.5" font-family="Helvetica,sans-Serif" font-size="10.00">TGeoMatrix.h</text>
</g>
<!-- Node11&#45;&gt;Node18 -->
<g id="edge17" class="edge"><title>Node11&#45;&gt;Node18</title>
<path fill="none" stroke="midnightblue" d="M832.284,-136.465C883.217,-128.624 958.432,-115.834 1023,-100 1027.2,-98.9707 1031.57,-97.7786 1035.88,-96.5252"/>
<polygon fill="midnightblue" stroke="midnightblue" points="1037.2,-99.7836 1045.76,-93.5369 1035.17,-93.0837 1037.2,-99.7836"/>
</g>
<!-- Node19 -->
<g id="node19" class="node"><title>Node19</title>
<polygon fill="none" stroke="#bfbfbf" points="1127,-74.5 1127,-93.5 1181,-93.5 1181,-74.5 1127,-74.5"/>
<text text-anchor="middle" x="1154" y="-81.5" font-family="Helvetica,sans-Serif" font-size="10.00">iostream</text>
</g>
<!-- Node11&#45;&gt;Node19 -->
<g id="edge18" class="edge"><title>Node11&#45;&gt;Node19</title>
<path fill="none" stroke="midnightblue" d="M835.665,-141.821C905.547,-137.131 1021.45,-125.917 1118,-100 1120.82,-99.243 1123.71,-98.3154 1126.57,-97.2961"/>
<polygon fill="midnightblue" stroke="midnightblue" points="1127.98,-100.502 1136.01,-93.5923 1125.43,-93.9855 1127.98,-100.502"/>
</g>
<!-- Node22 -->
<g id="node22" class="node"><title>Node22</title>
<polygon fill="none" stroke="#bfbfbf" points="327,-304.5 327,-323.5 365,-323.5 365,-304.5 327,-304.5"/>
<text text-anchor="middle" x="346" y="-311.5" font-family="Helvetica,sans-Serif" font-size="10.00">array</text>
</g>
<!-- Node21&#45;&gt;Node22 -->
<g id="edge22" class="edge"><title>Node21&#45;&gt;Node22</title>
<path fill="none" stroke="midnightblue" d="M354.349,-360.083C353.024,-352.927 351.118,-342.635 349.461,-333.691"/>
<polygon fill="midnightblue" stroke="midnightblue" points="352.883,-332.947 347.621,-323.751 346,-334.221 352.883,-332.947"/>
</g>
<!-- Node23&#45;&gt;Node2 -->
<g id="edge24" class="edge"><title>Node23&#45;&gt;Node2</title>
<path fill="none" stroke="midnightblue" d="M601.281,-360.368C632.645,-341.412 707.781,-296.001 745.932,-272.942"/>
<polygon fill="midnightblue" stroke="midnightblue" points="748.037,-275.759 754.785,-267.591 744.416,-269.769 748.037,-275.759"/>
</g>
<!-- Node23&#45;&gt;Node3 -->
<g id="edge25" class="edge"><title>Node23&#45;&gt;Node3</title>
<path fill="none" stroke="midnightblue" d="M564.341,-360.444C540.598,-351.478 503.091,-337.314 476.262,-327.183"/>
<polygon fill="midnightblue" stroke="midnightblue" points="477.144,-323.775 466.553,-323.516 474.671,-330.324 477.144,-323.775"/>
</g>
<!-- Node24 -->
<g id="node24" class="node"><title>Node24</title>
<g id="a_node24"><a xlink:href="../../db/dac/RandomRing_8h.html" target="_top" xlink:title="TPCBase/RandomRing.h">
<polygon fill="none" stroke="black" points="523,-304.5 523,-323.5 651,-323.5 651,-304.5 523,-304.5"/>
<text text-anchor="middle" x="587" y="-311.5" font-family="Helvetica,sans-Serif" font-size="10.00">TPCBase/RandomRing.h</text>
</a>
</g>
</g>
<!-- Node23&#45;&gt;Node24 -->
<g id="edge26" class="edge"><title>Node23&#45;&gt;Node24</title>
<path fill="none" stroke="midnightblue" d="M587,-360.083C587,-353.006 587,-342.861 587,-333.986"/>
<polygon fill="midnightblue" stroke="midnightblue" points="590.5,-333.751 587,-323.751 583.5,-333.751 590.5,-333.751"/>
</g>
<!-- Node24&#45;&gt;Node2 -->
<g id="edge28" class="edge"><title>Node24&#45;&gt;Node2</title>
<path fill="none" stroke="midnightblue" d="M615.838,-304.444C648.812,-294.66 702.643,-278.688 736.916,-268.519"/>
<polygon fill="midnightblue" stroke="midnightblue" points="738.289,-271.763 746.88,-265.563 736.298,-265.052 738.289,-271.763"/>
</g>
<!-- Node25 -->
<g id="node25" class="node"><title>Node25</title>
<polygon fill="none" stroke="#bfbfbf" points="639,-248.5 639,-267.5 729,-267.5 729,-248.5 639,-248.5"/>
<text text-anchor="middle" x="684" y="-255.5" font-family="Helvetica,sans-Serif" font-size="10.00">boost/format.hpp</text>
</g>
<!-- Node24&#45;&gt;Node25 -->
<g id="edge27" class="edge"><title>Node24&#45;&gt;Node25</title>
<path fill="none" stroke="midnightblue" d="M602.585,-304.324C617.999,-295.743 641.812,-282.486 659.71,-272.522"/>
<polygon fill="midnightblue" stroke="midnightblue" points="661.419,-275.577 668.454,-267.655 658.014,-269.461 661.419,-275.577"/>
</g>
<!-- Node26 -->
<g id="node26" class="node"><title>Node26</title>
<polygon fill="none" stroke="#bfbfbf" points="431,-248.5 431,-267.5 475,-267.5 475,-248.5 431,-248.5"/>
<text text-anchor="middle" x="453" y="-255.5" font-family="Helvetica,sans-Serif" font-size="10.00">vector</text>
</g>
<!-- Node24&#45;&gt;Node26 -->
<g id="edge29" class="edge"><title>Node24&#45;&gt;Node26</title>
<path fill="none" stroke="midnightblue" d="M565.767,-304.444C543.616,-295.517 508.681,-281.439 483.564,-271.317"/>
<polygon fill="midnightblue" stroke="midnightblue" points="484.717,-268.008 474.133,-267.516 482.1,-274.501 484.717,-268.008"/>
</g>
<!-- Node27 -->
<g id="node27" class="node"><title>Node27</title>
<polygon fill="none" stroke="#bfbfbf" points="493,-248.5 493,-267.5 535,-267.5 535,-248.5 493,-248.5"/>
<text text-anchor="middle" x="514" y="-255.5" font-family="Helvetica,sans-Serif" font-size="10.00">TF1.h</text>
</g>
<!-- Node24&#45;&gt;Node27 -->
<g id="edge30" class="edge"><title>Node24&#45;&gt;Node27</title>
<path fill="none" stroke="midnightblue" d="M575.271,-304.324C564.163,-296.107 547.258,-283.602 534.017,-273.807"/>
<polygon fill="midnightblue" stroke="midnightblue" points="536.063,-270.967 525.942,-267.834 531.9,-276.595 536.063,-270.967"/>
</g>
<!-- Node28 -->
<g id="node28" class="node"><title>Node28</title>
<polygon fill="none" stroke="#bfbfbf" points="553,-248.5 553,-267.5 621,-267.5 621,-248.5 553,-248.5"/>
<text text-anchor="middle" x="587" y="-255.5" font-family="Helvetica,sans-Serif" font-size="10.00">TRandom.h</text>
</g>
<!-- Node24&#45;&gt;Node28 -->
<g id="edge31" class="edge"><title>Node24&#45;&gt;Node28</title>
<path fill="none" stroke="midnightblue" d="M587,-304.083C587,-297.006 587,-286.861 587,-277.986"/>
<polygon fill="midnightblue" stroke="midnightblue" points="590.5,-277.751 587,-267.751 583.5,-277.751 590.5,-277.751"/>
</g>
</g>
</svg>
        <g id="navigator" transform="translate(0 0)" fill="#404254">
                <rect fill="#f2f5e9" fill-opacity="0.5" stroke="#606060" stroke-width=".5" x="0" y="0" width="60" height="60"/>
                <use id="zoomplus" xlink:href="#zoomPlus" x="17" y="9" onmousedown="handleZoom(evt,'in')"/>
                <use id="zoomminus" xlink:href="#zoomMin" x="42" y="9" onmousedown="handleZoom(evt,'out')"/>
                <use id="reset" xlink:href="#resetDef" x="30" y="36" onmousedown="handleReset()"/>
                <g id="arrowUp" xlink:href="#dirArrow" transform="translate(30 24)" onmousedown="handlePan(0,-1)">
                  <use xlink:href="#rim" fill="#404040">
                        <set attributeName="fill" to="#808080" begin="arrowUp.mouseover" end="arrowUp.mouseout"/>
                  </use>
                  <path fill="none" stroke="white" stroke-width="1.5" d="M0,-3.0v7 M-2.5,-0.5L0,-3.0L2.5,-0.5"/>
                </g>
                <g id="arrowRight" xlink:href="#dirArrow" transform="rotate(90) translate(36 -43)" onmousedown="handlePan(1,0)">
                  <use xlink:href="#rim" fill="#404040">
                        <set attributeName="fill" to="#808080" begin="arrowRight.mouseover" end="arrowRight.mouseout"/>
                  </use>
                  <path fill="none" stroke="white" stroke-width="1.5" d="M0,-3.0v7 M-2.5,-0.5L0,-3.0L2.5,-0.5"/>
                </g>
                <g id="arrowDown" xlink:href="#dirArrow" transform="rotate(180) translate(-30 -48)" onmousedown="handlePan(0,1)">
                  <use xlink:href="#rim" fill="#404040">
                        <set attributeName="fill" to="#808080" begin="arrowDown.mouseover" end="arrowDown.mouseout"/>
                  </use>
                  <path fill="none" stroke="white" stroke-width="1.5" d="M0,-3.0v7 M-2.5,-0.5L0,-3.0L2.5,-0.5"/>
                </g>
                <g id="arrowLeft" xlink:href="#dirArrow" transform="rotate(270) translate(-36 17)" onmousedown="handlePan(-1,0)">
                  <use xlink:href="#rim" fill="#404040">
                        <set attributeName="fill" to="#808080" begin="arrowLeft.mouseover" end="arrowLeft.mouseout"/>
                  </use>
                  <path fill="none" stroke="white" stroke-width="1.5" d="M0,-3.0v7 M-2.5,-0.5L0,-3.0L2.5,-0.5"/>
                </g>
        </g>
        <svg viewBox="0 0 15 15" width="100%" height="30px" preserveAspectRatio="xMaxYMin meet">
         <g id="arrow_out" transform="scale(0.3 0.3)">
          <a xlink:href="SAMPAProcessing_8h__incl_org.svg" target="_base">
           <rect id="button" ry="5" rx="5" y="6" x="6" height="38" width="38"
                fill="#f2f5e9" fill-opacity="0.5" stroke="#606060" stroke-width="1.0"/>
           <path id="arrow"
             d="M 11.500037,31.436501 C 11.940474,20.09759 22.043105,11.32322 32.158766,21.979434 L 37.068811,17.246167 C 37.068811,17.246167 37.088388,32 37.088388,32 L 22.160133,31.978069 C 22.160133,31.978069 26.997745,27.140456 26.997745,27.140456 C 18.528582,18.264221 13.291696,25.230495 11.500037,31.436501 z"
             style="fill:#404040;"/>
          </a>
         </g>
        </svg>
</svg>
