<?xml version="1.0" encoding="UTF-8" standalone="no"?>
<!DOCTYPE svg PUBLIC "-//W3C//DTD SVG 1.1//EN"
 "http://www.w3.org/Graphics/SVG/1.1/DTD/svg11.dtd">
<!-- Generated by graphviz version 2.36.0 (20140111.2315)
 -->
<!-- Title: /home/travis/build/AliceO2Group/AliceO2/Detectors/ITSMFT/common/reconstruction/include/ITSMFTReconstruction/LookUp.h Pages: 1 -->
<!--zoomable 548 -->
<svg id="main" version="1.1" xmlns="http://www.w3.org/2000/svg" xmlns:xlink="http://www.w3.org/1999/xlink" xml:space="preserve" onload="init(evt)">
<style type="text/css"><![CDATA[
.edge:hover path { stroke: red; }
.edge:hover polygon { stroke: red; fill: red; }
]]></style>
<script type="text/javascript"><![CDATA[
var edges = document.getElementsByTagName('g');
if (edges && edges.length) {
  for (var i=0;i<edges.length;i++) {
    if (edges[i].id.substr(0,4)=='edge') {
      edges[i].setAttribute('class','edge');
    }
  }
}
]]></script>
        <defs>
                <circle id="rim" cx="0" cy="0" r="7"/>
                <circle id="rim2" cx="0" cy="0" r="3.5"/>
                <g id="zoomPlus">
                        <use xlink:href="#rim" fill="#404040">
                                <set attributeName="fill" to="#808080" begin="zoomplus.mouseover" end="zoomplus.mouseout"/>
                        </use>
                        <path d="M-4,0h8M0,-4v8" fill="none" stroke="white" stroke-width="1.5" pointer-events="none"/>
                </g>
                <g id="zoomMin">
                        <use xlink:href="#rim" fill="#404040">
                                <set attributeName="fill" to="#808080" begin="zoomminus.mouseover" end="zoomminus.mouseout"/>
                        </use>
                        <path d="M-4,0h8" fill="none" stroke="white" stroke-width="1.5" pointer-events="none"/>
                </g>
                <g id="dirArrow">
                        <path fill="none" stroke="white" stroke-width="1.5" d="M0,-3.0v7 M-2.5,-0.5L0,-3.0L2.5,-0.5"/>
                </g>
               <g id="resetDef">
                       <use xlink:href="#rim2" fill="#404040">
                               <set attributeName="fill" to="#808080" begin="reset.mouseover" end="reset.mouseout"/>
                       </use>
               </g>
        </defs>

<script type="text/javascript">
var viewWidth = 1879;
var viewHeight = 548;
var sectionId = 'dynsection-0';
</script>
<script xlink:href="../../svgpan.js"/>
<svg id="graph" class="graph">
<g id="viewport">
<title>/home/travis/build/AliceO2Group/AliceO2/Detectors/ITSMFT/common/reconstruction/include/ITSMFTReconstruction/LookUp.h</title>
<!-- Node1 -->
<g id="node1" class="node"><title>Node1</title>
<polygon fill="#bfbfbf" stroke="black" points="1295.5,-476.5 1295.5,-539.5 1462.5,-539.5 1462.5,-476.5 1295.5,-476.5"/>
<text text-anchor="start" x="1303.5" y="-527.5" font-family="Helvetica,sans-Serif" font-size="10.00">/home/travis/build</text>
<text text-anchor="start" x="1303.5" y="-516.5" font-family="Helvetica,sans-Serif" font-size="10.00">/AliceO2Group/AliceO2</text>
<text text-anchor="start" x="1303.5" y="-505.5" font-family="Helvetica,sans-Serif" font-size="10.00">/Detectors/ITSMFT/common</text>
<text text-anchor="start" x="1303.5" y="-494.5" font-family="Helvetica,sans-Serif" font-size="10.00">/reconstruction/include</text>
<text text-anchor="middle" x="1379" y="-483.5" font-family="Helvetica,sans-Serif" font-size="10.00">/ITSMFTReconstruction/LookUp.h</text>
</g>
<!-- Node2 -->
<g id="node2" class="node"><title>Node2</title>
<polygon fill="none" stroke="#bfbfbf" points="117,-6.5 117,-25.5 155,-25.5 155,-6.5 117,-6.5"/>
<text text-anchor="middle" x="136" y="-13.5" font-family="Helvetica,sans-Serif" font-size="10.00">array</text>
</g>
<!-- Node1&#45;&gt;Node2 -->
<g id="edge1" class="edge"><title>Node1&#45;&gt;Node2</title>
<path fill="none" stroke="midnightblue" d="M1295.33,-506.731C996.556,-504.681 0,-488.022 0,-357 0,-357 0,-357 0,-151 0,-110.612 9.25713,-97.3521 37,-68 56.2611,-47.6217 85.4728,-33.9645 107.179,-25.9535"/>
<polygon fill="midnightblue" stroke="midnightblue" points="108.574,-29.1735 116.857,-22.568 106.262,-22.5661 108.574,-29.1735"/>
</g>
<!-- Node3 -->
<g id="node3" class="node"><title>Node3</title>
<g id="a_node3"><a xlink:href="../../d8/ddb/ClusterTopology_8h.html" target="_top" xlink:title="Definition of the ClusterTopology class. ">
<polygon fill="none" stroke="black" points="1319.5,-409 1319.5,-439 1438.5,-439 1438.5,-409 1319.5,-409"/>
<text text-anchor="start" x="1327.5" y="-427" font-family="Helvetica,sans-Serif" font-size="10.00">ITSMFTReconstruction</text>
<text text-anchor="middle" x="1379" y="-416" font-family="Helvetica,sans-Serif" font-size="10.00">/ClusterTopology.h</text>
</a>
</g>
</g>
<!-- Node1&#45;&gt;Node3 -->
<g id="edge2" class="edge"><title>Node1&#45;&gt;Node3</title>
<path fill="none" stroke="midnightblue" d="M1379,-476.466C1379,-467.502 1379,-457.822 1379,-449.302"/>
<polygon fill="midnightblue" stroke="midnightblue" points="1382.5,-449.272 1379,-439.272 1375.5,-449.272 1382.5,-449.272"/>
</g>
<!-- Node33 -->
<g id="node33" class="node"><title>Node33</title>
<g id="a_node33"><a xlink:href="../../d1/d08/TopologyDictionary_8h.html" target="_top" xlink:title="Definition of the ClusterTopology class. ">
<polygon fill="none" stroke="black" points="1593.5,-205 1593.5,-235 1712.5,-235 1712.5,-205 1593.5,-205"/>
<text text-anchor="start" x="1601.5" y="-223" font-family="Helvetica,sans-Serif" font-size="10.00">ITSMFTReconstruction</text>
<text text-anchor="middle" x="1653" y="-212" font-family="Helvetica,sans-Serif" font-size="10.00">/TopologyDictionary.h</text>
</a>
</g>
</g>
<!-- Node1&#45;&gt;Node33 -->
<g id="edge43" class="edge"><title>Node1&#45;&gt;Node33</title>
<path fill="none" stroke="midnightblue" d="M1435.24,-476.251C1476.02,-451.919 1530.53,-414.955 1569,-372 1604.21,-332.679 1630.7,-276.075 1643.83,-244.522"/>
<polygon fill="midnightblue" stroke="midnightblue" points="1647.09,-245.794 1647.61,-235.212 1640.6,-243.158 1647.09,-245.794"/>
</g>
<!-- Node3&#45;&gt;Node2 -->
<g id="edge4" class="edge"><title>Node3&#45;&gt;Node2</title>
<path fill="none" stroke="midnightblue" d="M1319.21,-423.392C1058.98,-424.325 38,-419.659 38,-289 38,-289 38,-289 38,-151 38,-113.157 35.2809,-98.99 57,-68 69.5695,-50.0651 90.6604,-36.9218 107.89,-28.4734"/>
<polygon fill="midnightblue" stroke="midnightblue" points="109.381,-31.6397 116.985,-24.2622 106.44,-25.2875 109.381,-31.6397"/>
</g>
<!-- Node4 -->
<g id="node4" class="node"><title>Node4</title>
<polygon fill="none" stroke="#bfbfbf" points="1642,-74.5 1642,-93.5 1698,-93.5 1698,-74.5 1642,-74.5"/>
<text text-anchor="middle" x="1670" y="-81.5" font-family="Helvetica,sans-Serif" font-size="10.00">Rtypes.h</text>
</g>
<!-- Node3&#45;&gt;Node4 -->
<g id="edge3" class="edge"><title>Node3&#45;&gt;Node4</title>
<path fill="none" stroke="midnightblue" d="M1379,-408.917C1379,-384.502 1379,-332.736 1379,-289 1379,-289 1379,-289 1379,-219 1379,-181.157 1370.28,-161.764 1398,-136 1475.39,-64.0624 1531.13,-128.039 1633,-100 1635.82,-99.224 1638.71,-98.2964 1641.58,-97.2883"/>
<polygon fill="midnightblue" stroke="midnightblue" points="1643,-100.494 1651.09,-93.6535 1640.5,-93.9554 1643,-100.494"/>
</g>
<!-- Node5 -->
<g id="node5" class="node"><title>Node5</title>
<polygon fill="none" stroke="#bfbfbf" points="1716,-74.5 1716,-93.5 1770,-93.5 1770,-74.5 1716,-74.5"/>
<text text-anchor="middle" x="1743" y="-81.5" font-family="Helvetica,sans-Serif" font-size="10.00">iostream</text>
</g>
<!-- Node3&#45;&gt;Node5 -->
<g id="edge5" class="edge"><title>Node3&#45;&gt;Node5</title>
<path fill="none" stroke="midnightblue" d="M1428.03,-408.928C1480.1,-390.617 1555,-353.134 1555,-289 1555,-289 1555,-289 1555,-219 1555,-181.157 1547.8,-163.305 1574,-136 1616.1,-92.1244 1648.39,-119.458 1706,-100 1708.56,-99.1357 1711.2,-98.187 1713.83,-97.1995"/>
<polygon fill="midnightblue" stroke="midnightblue" points="1715.16,-100.439 1723.19,-93.5356 1712.6,-93.9201 1715.16,-100.439"/>
</g>
<!-- Node6 -->
<g id="node6" class="node"><title>Node6</title>
<polygon fill="none" stroke="#bfbfbf" points="1583.5,-142.5 1583.5,-161.5 1624.5,-161.5 1624.5,-142.5 1583.5,-142.5"/>
<text text-anchor="middle" x="1604" y="-149.5" font-family="Helvetica,sans-Serif" font-size="10.00">string</text>
</g>
<!-- Node3&#45;&gt;Node6 -->
<g id="edge6" class="edge"><title>Node3&#45;&gt;Node6</title>
<path fill="none" stroke="midnightblue" d="M1390.78,-408.864C1428.99,-363.007 1549.4,-218.521 1590.27,-169.476"/>
<polygon fill="midnightblue" stroke="midnightblue" points="1593.02,-171.638 1596.74,-161.716 1587.65,-167.157 1593.02,-171.638"/>
</g>
<!-- Node7 -->
<g id="node7" class="node"><title>Node7</title>
<g id="a_node7"><a xlink:href="../../dc/de1/ITSMFT_2common_2reconstruction_2include_2ITSMFTReconstruction_2Cluster_8h.html" target="_top" xlink:title="ITSMFTReconstruction\l/Cluster.h">
<polygon fill="none" stroke="black" points="1134.5,-341 1134.5,-371 1253.5,-371 1253.5,-341 1134.5,-341"/>
<text text-anchor="start" x="1142.5" y="-359" font-family="Helvetica,sans-Serif" font-size="10.00">ITSMFTReconstruction</text>
<text text-anchor="middle" x="1194" y="-348" font-family="Helvetica,sans-Serif" font-size="10.00">/Cluster.h</text>
</a>
</g>
</g>
<!-- Node3&#45;&gt;Node7 -->
<g id="edge7" class="edge"><title>Node3&#45;&gt;Node7</title>
<path fill="none" stroke="midnightblue" d="M1339.31,-408.841C1311.05,-398.759 1272.9,-385.147 1242.78,-374.402"/>
<polygon fill="midnightblue" stroke="midnightblue" points="1243.9,-371.086 1233.3,-371.022 1241.55,-377.679 1243.9,-371.086"/>
</g>
<!-- Node8 -->
<g id="node8" class="node"><title>Node8</title>
<g id="a_node8"><a xlink:href="../../d4/de2/BaseCluster_8h.html" target="_top" xlink:title="ReconstructionDataFormats\l/BaseCluster.h">
<polygon fill="none" stroke="black" points="973,-273 973,-303 1113,-303 1113,-273 973,-273"/>
<text text-anchor="start" x="981" y="-291" font-family="Helvetica,sans-Serif" font-size="10.00">ReconstructionDataFormats</text>
<text text-anchor="middle" x="1043" y="-280" font-family="Helvetica,sans-Serif" font-size="10.00">/BaseCluster.h</text>
</a>
</g>
</g>
<!-- Node7&#45;&gt;Node8 -->
<g id="edge8" class="edge"><title>Node7&#45;&gt;Node8</title>
<path fill="none" stroke="midnightblue" d="M1161.61,-340.841C1139.04,-330.977 1108.74,-317.735 1084.42,-307.104"/>
<polygon fill="midnightblue" stroke="midnightblue" points="1085.64,-303.82 1075.08,-303.022 1082.84,-310.234 1085.64,-303.82"/>
</g>
<!-- Node8&#45;&gt;Node5 -->
<g id="edge13" class="edge"><title>Node8&#45;&gt;Node5</title>
<path fill="none" stroke="midnightblue" d="M1098.35,-272.931C1178.54,-252.149 1331.41,-211.039 1459,-168 1496.07,-155.496 1503.55,-147.316 1541,-136 1612.85,-114.289 1634.29,-122.18 1706,-100 1708.64,-99.1832 1711.36,-98.257 1714.06,-97.2752"/>
<polygon fill="midnightblue" stroke="midnightblue" points="1715.57,-100.442 1723.64,-93.5724 1713.05,-93.9131 1715.57,-100.442"/>
</g>
<!-- Node9 -->
<g id="node9" class="node"><title>Node9</title>
<polygon fill="none" stroke="#bfbfbf" points="66.5,-210.5 66.5,-229.5 125.5,-229.5 125.5,-210.5 66.5,-210.5"/>
<text text-anchor="middle" x="96" y="-217.5" font-family="Helvetica,sans-Serif" font-size="10.00">TObject.h</text>
</g>
<!-- Node8&#45;&gt;Node9 -->
<g id="edge9" class="edge"><title>Node8&#45;&gt;Node9</title>
<path fill="none" stroke="midnightblue" d="M972.83,-285.87C788.638,-282.457 294.574,-270.286 135,-236 131.489,-235.246 127.878,-234.222 124.336,-233.062"/>
<polygon fill="midnightblue" stroke="midnightblue" points="125.275,-229.679 114.681,-229.54 122.876,-236.255 125.275,-229.679"/>
</g>
<!-- Node10 -->
<g id="node10" class="node"><title>Node10</title>
<polygon fill="none" stroke="#bfbfbf" points="66.5,-74.5 66.5,-93.5 107.5,-93.5 107.5,-74.5 66.5,-74.5"/>
<text text-anchor="middle" x="87" y="-81.5" font-family="Helvetica,sans-Serif" font-size="10.00">bitset</text>
</g>
<!-- Node8&#45;&gt;Node10 -->
<g id="edge10" class="edge"><title>Node8&#45;&gt;Node10</title>
<path fill="none" stroke="midnightblue" d="M972.74,-286.855C826.938,-284.433 482.86,-267.631 216,-168 172.448,-151.74 128.31,-119.063 104.636,-99.9178"/>
<polygon fill="midnightblue" stroke="midnightblue" points="106.824,-97.1854 96.8784,-93.5322 102.375,-102.59 106.824,-97.1854"/>
</g>
<!-- Node11 -->
<g id="node11" class="node"><title>Node11</title>
<polygon fill="none" stroke="#bfbfbf" points="144,-210.5 144,-229.5 194,-229.5 194,-210.5 144,-210.5"/>
<text text-anchor="middle" x="169" y="-217.5" font-family="Helvetica,sans-Serif" font-size="10.00">iomanip</text>
</g>
<!-- Node8&#45;&gt;Node11 -->
<g id="edge11" class="edge"><title>Node8&#45;&gt;Node11</title>
<path fill="none" stroke="midnightblue" d="M972.837,-285.469C799.221,-281.239 353.113,-267.55 208,-236 204.491,-235.237 200.881,-234.208 197.34,-233.045"/>
<polygon fill="midnightblue" stroke="midnightblue" points="198.279,-229.662 187.685,-229.52 195.878,-236.238 198.279,-229.662"/>
</g>
<!-- Node12 -->
<g id="node12" class="node"><title>Node12</title>
<polygon fill="none" stroke="#bfbfbf" points="1090.5,-210.5 1090.5,-229.5 1119.5,-229.5 1119.5,-210.5 1090.5,-210.5"/>
<text text-anchor="middle" x="1105" y="-217.5" font-family="Helvetica,sans-Serif" font-size="10.00">ios</text>
</g>
<!-- Node8&#45;&gt;Node12 -->
<g id="edge12" class="edge"><title>Node8&#45;&gt;Node12</title>
<path fill="none" stroke="midnightblue" d="M1056.45,-272.679C1066.22,-262.286 1079.44,-248.208 1089.62,-237.37"/>
<polygon fill="midnightblue" stroke="midnightblue" points="1092.41,-239.513 1096.71,-229.828 1087.31,-234.72 1092.41,-239.513"/>
</g>
<!-- Node13 -->
<g id="node13" class="node"><title>Node13</title>
<g id="a_node13"><a xlink:href="../../d4/d20/DetMatrixCache_8h.html" target="_top" xlink:title="DetectorsCommonDataFormats\l/DetMatrixCache.h">
<polygon fill="none" stroke="black" points="916,-205 916,-235 1072,-235 1072,-205 916,-205"/>
<text text-anchor="start" x="924" y="-223" font-family="Helvetica,sans-Serif" font-size="10.00">DetectorsCommonDataFormats</text>
<text text-anchor="middle" x="994" y="-212" font-family="Helvetica,sans-Serif" font-size="10.00">/DetMatrixCache.h</text>
</a>
</g>
</g>
<!-- Node8&#45;&gt;Node13 -->
<g id="edge14" class="edge"><title>Node8&#45;&gt;Node13</title>
<path fill="none" stroke="midnightblue" d="M1032.37,-272.679C1026.01,-264.117 1017.8,-253.053 1010.6,-243.36"/>
<polygon fill="midnightblue" stroke="midnightblue" points="1013.38,-241.236 1004.61,-235.293 1007.76,-245.409 1013.38,-241.236"/>
</g>
<!-- Node23 -->
<g id="node23" class="node"><title>Node23</title>
<g id="a_node23"><a xlink:href="../../dd/d76/Cartesian3D_8h.html" target="_top" xlink:title="MathUtils/Cartesian3D.h">
<polygon fill="none" stroke="black" points="1085.5,-142.5 1085.5,-161.5 1210.5,-161.5 1210.5,-142.5 1085.5,-142.5"/>
<text text-anchor="middle" x="1148" y="-149.5" font-family="Helvetica,sans-Serif" font-size="10.00">MathUtils/Cartesian3D.h</text>
</a>
</g>
</g>
<!-- Node8&#45;&gt;Node23 -->
<g id="edge42" class="edge"><title>Node8&#45;&gt;Node23</title>
<path fill="none" stroke="midnightblue" d="M1079.56,-272.997C1096.66,-264.687 1115.88,-252.506 1128,-236 1141.88,-217.094 1146.25,-189.846 1147.55,-171.793"/>
<polygon fill="midnightblue" stroke="midnightblue" points="1151.05,-171.823 1148.03,-161.668 1144.06,-171.49 1151.05,-171.823"/>
</g>
<!-- Node13&#45;&gt;Node2 -->
<g id="edge16" class="edge"><title>Node13&#45;&gt;Node2</title>
<path fill="none" stroke="midnightblue" d="M915.881,-215.195C799.385,-206.937 575.578,-180.981 405,-100 384.745,-90.3842 386.163,-77.8063 366,-68 298.749,-35.2925 210.235,-23.29 165.138,-19.1012"/>
<polygon fill="midnightblue" stroke="midnightblue" points="165.427,-15.6132 155.162,-18.2377 164.823,-22.5871 165.427,-15.6132"/>
</g>
<!-- Node13&#45;&gt;Node4 -->
<g id="edge41" class="edge"><title>Node13&#45;&gt;Node4</title>
<path fill="none" stroke="midnightblue" d="M1056.2,-204.937C1157.83,-181.981 1349.77,-138.721 1365,-136 1483.31,-114.861 1516.84,-130.82 1633,-100 1635.99,-99.2079 1639.05,-98.237 1642.08,-97.1737"/>
<polygon fill="midnightblue" stroke="midnightblue" points="1643.41,-100.415 1651.49,-93.5672 1640.9,-93.879 1643.41,-100.415"/>
</g>
<!-- Node14 -->
<g id="node14" class="node"><title>Node14</title>
<polygon fill="none" stroke="#bfbfbf" points="958.5,-142.5 958.5,-161.5 1029.5,-161.5 1029.5,-142.5 958.5,-142.5"/>
<text text-anchor="middle" x="994" y="-149.5" font-family="Helvetica,sans-Serif" font-size="10.00">FairLogger.h</text>
</g>
<!-- Node13&#45;&gt;Node14 -->
<g id="edge15" class="edge"><title>Node13&#45;&gt;Node14</title>
<path fill="none" stroke="midnightblue" d="M994,-204.679C994,-195.101 994,-182.394 994,-171.977"/>
<polygon fill="midnightblue" stroke="midnightblue" points="997.5,-171.828 994,-161.828 990.5,-171.828 997.5,-171.828"/>
</g>
<!-- Node15 -->
<g id="node15" class="node"><title>Node15</title>
<polygon fill="none" stroke="#bfbfbf" points="1407,-142.5 1407,-161.5 1451,-161.5 1451,-142.5 1407,-142.5"/>
<text text-anchor="middle" x="1429" y="-149.5" font-family="Helvetica,sans-Serif" font-size="10.00">vector</text>
</g>
<!-- Node13&#45;&gt;Node15 -->
<g id="edge17" class="edge"><title>Node13&#45;&gt;Node15</title>
<path fill="none" stroke="midnightblue" d="M1072.24,-205.415C1075.2,-204.932 1078.12,-204.459 1081,-204 1197.04,-185.496 1335.28,-165.992 1396.76,-157.448"/>
<polygon fill="midnightblue" stroke="midnightblue" points="1397.56,-160.871 1406.98,-156.03 1396.6,-153.937 1397.56,-160.871"/>
</g>
<!-- Node16 -->
<g id="node16" class="node"><title>Node16</title>
<g id="a_node16"><a xlink:href="../../d6/d31/DetID_8h.html" target="_top" xlink:title="DetectorsCommonDataFormats\l/DetID.h">
<polygon fill="none" stroke="black" points="225,-137 225,-167 381,-167 381,-137 225,-137"/>
<text text-anchor="start" x="233" y="-155" font-family="Helvetica,sans-Serif" font-size="10.00">DetectorsCommonDataFormats</text>
<text text-anchor="middle" x="303" y="-144" font-family="Helvetica,sans-Serif" font-size="10.00">/DetID.h</text>
</a>
</g>
</g>
<!-- Node13&#45;&gt;Node16 -->
<g id="edge18" class="edge"><title>Node13&#45;&gt;Node16</title>
<path fill="none" stroke="midnightblue" d="M915.785,-214.262C801.222,-206.886 581.18,-191.069 395,-168 393.735,-167.843 392.461,-167.682 391.18,-167.517"/>
<polygon fill="midnightblue" stroke="midnightblue" points="391.616,-164.044 381.238,-166.175 390.68,-170.981 391.616,-164.044"/>
</g>
<!-- Node13&#45;&gt;Node23 -->
<g id="edge29" class="edge"><title>Node13&#45;&gt;Node23</title>
<path fill="none" stroke="midnightblue" d="M1027.04,-204.841C1054.15,-193.221 1092.21,-176.912 1118.35,-165.706"/>
<polygon fill="midnightblue" stroke="midnightblue" points="1119.93,-168.838 1127.74,-161.682 1117.17,-162.404 1119.93,-168.838"/>
</g>
<!-- Node16&#45;&gt;Node2 -->
<g id="edge20" class="edge"><title>Node16&#45;&gt;Node2</title>
<path fill="none" stroke="midnightblue" d="M224.957,-139.676C199.455,-132.298 173.073,-120.115 155,-100 139.209,-82.4255 135.73,-54.4433 135.344,-35.8993"/>
<polygon fill="midnightblue" stroke="midnightblue" points="138.845,-35.7765 135.421,-25.7502 131.845,-35.7232 138.845,-35.7765"/>
</g>
<!-- Node16&#45;&gt;Node4 -->
<g id="edge19" class="edge"><title>Node16&#45;&gt;Node4</title>
<path fill="none" stroke="midnightblue" d="M381.453,-148.741C657.644,-140.69 1571.69,-113.18 1633,-100 1636.25,-99.3008 1639.59,-98.3364 1642.86,-97.2309"/>
<polygon fill="midnightblue" stroke="midnightblue" points="1644.24,-100.451 1652.33,-93.6151 1641.74,-93.9109 1644.24,-100.451"/>
</g>
<!-- Node16&#45;&gt;Node10 -->
<g id="edge21" class="edge"><title>Node16&#45;&gt;Node10</title>
<path fill="none" stroke="midnightblue" d="M245.746,-136.91C209.838,-127.572 162.785,-114.416 122,-100 119.739,-99.2006 117.415,-98.3266 115.093,-97.415"/>
<polygon fill="midnightblue" stroke="midnightblue" points="116.292,-94.1238 105.713,-93.5523 113.627,-100.596 116.292,-94.1238"/>
</g>
<!-- Node17 -->
<g id="node17" class="node"><title>Node17</title>
<polygon fill="none" stroke="#bfbfbf" points="164.5,-74.5 164.5,-93.5 213.5,-93.5 213.5,-74.5 164.5,-74.5"/>
<text text-anchor="middle" x="189" y="-81.5" font-family="Helvetica,sans-Serif" font-size="10.00">cassert</text>
</g>
<!-- Node16&#45;&gt;Node17 -->
<g id="edge22" class="edge"><title>Node16&#45;&gt;Node17</title>
<path fill="none" stroke="midnightblue" d="M278.544,-136.841C259.091,-125.579 232.032,-109.913 212.762,-98.7572"/>
<polygon fill="midnightblue" stroke="midnightblue" points="214.404,-95.6633 203.996,-93.6819 210.897,-101.721 214.404,-95.6633"/>
</g>
<!-- Node18 -->
<g id="node18" class="node"><title>Node18</title>
<polygon fill="none" stroke="#bfbfbf" points="232,-74.5 232,-93.5 278,-93.5 278,-74.5 232,-74.5"/>
<text text-anchor="middle" x="255" y="-81.5" font-family="Helvetica,sans-Serif" font-size="10.00">cstdint</text>
</g>
<!-- Node16&#45;&gt;Node18 -->
<g id="edge23" class="edge"><title>Node16&#45;&gt;Node18</title>
<path fill="none" stroke="midnightblue" d="M292.585,-136.679C285.175,-126.49 275.188,-112.759 267.372,-102.011"/>
<polygon fill="midnightblue" stroke="midnightblue" points="270.133,-99.8571 261.421,-93.8283 264.472,-103.974 270.133,-99.8571"/>
</g>
<!-- Node19 -->
<g id="node19" class="node"><title>Node19</title>
<polygon fill="none" stroke="#bfbfbf" points="296,-74.5 296,-93.5 358,-93.5 358,-74.5 296,-74.5"/>
<text text-anchor="middle" x="327" y="-81.5" font-family="Helvetica,sans-Serif" font-size="10.00">type_traits</text>
</g>
<!-- Node16&#45;&gt;Node19 -->
<g id="edge24" class="edge"><title>Node16&#45;&gt;Node19</title>
<path fill="none" stroke="midnightblue" d="M308.208,-136.679C311.765,-126.898 316.509,-113.852 320.34,-103.315"/>
<polygon fill="midnightblue" stroke="midnightblue" points="323.661,-104.422 323.79,-93.8283 317.083,-102.03 323.661,-104.422"/>
</g>
<!-- Node20 -->
<g id="node20" class="node"><title>Node20</title>
<g id="a_node20"><a xlink:href="../../d9/ded/Utils_8h.html" target="_top" xlink:title="General auxilliary methods. ">
<polygon fill="none" stroke="black" points="414,-74.5 414,-93.5 504,-93.5 504,-74.5 414,-74.5"/>
<text text-anchor="middle" x="459" y="-81.5" font-family="Helvetica,sans-Serif" font-size="10.00">MathUtils/Utils.h</text>
</a>
</g>
</g>
<!-- Node16&#45;&gt;Node20 -->
<g id="edge25" class="edge"><title>Node16&#45;&gt;Node20</title>
<path fill="none" stroke="midnightblue" d="M336.466,-136.841C363.933,-125.221 402.481,-108.912 428.967,-97.7063"/>
<polygon fill="midnightblue" stroke="midnightblue" points="430.633,-100.802 438.479,-93.6819 427.906,-94.355 430.633,-100.802"/>
</g>
<!-- Node20&#45;&gt;Node2 -->
<g id="edge26" class="edge"><title>Node20&#45;&gt;Node2</title>
<path fill="none" stroke="midnightblue" d="M426.929,-74.4859C418.217,-72.2715 408.767,-69.9596 400,-68 315.115,-49.0273 213.94,-30.6553 165.157,-22.0605"/>
<polygon fill="midnightblue" stroke="midnightblue" points="165.746,-18.6105 155.292,-20.3301 164.537,-25.5053 165.746,-18.6105"/>
</g>
<!-- Node21 -->
<g id="node21" class="node"><title>Node21</title>
<polygon fill="none" stroke="#bfbfbf" points="502,-6.5 502,-25.5 546,-25.5 546,-6.5 502,-6.5"/>
<text text-anchor="middle" x="524" y="-13.5" font-family="Helvetica,sans-Serif" font-size="10.00">cmath</text>
</g>
<!-- Node20&#45;&gt;Node21 -->
<g id="edge27" class="edge"><title>Node20&#45;&gt;Node21</title>
<path fill="none" stroke="midnightblue" d="M467.498,-74.3717C477.757,-63.9547 495.225,-46.2173 508.029,-33.2162"/>
<polygon fill="midnightblue" stroke="midnightblue" points="510.77,-35.4219 515.293,-25.8411 505.782,-30.5101 510.77,-35.4219"/>
</g>
<!-- Node22 -->
<g id="node22" class="node"><title>Node22</title>
<g id="a_node22"><a xlink:href="../../d6/d84/MathConstants_8h.html" target="_top" xlink:title="useful math constants ">
<polygon fill="none" stroke="black" points="304.5,-6.5 304.5,-25.5 483.5,-25.5 483.5,-6.5 304.5,-6.5"/>
<text text-anchor="middle" x="394" y="-13.5" font-family="Helvetica,sans-Serif" font-size="10.00">CommonConstants/MathConstants.h</text>
</a>
</g>
</g>
<!-- Node20&#45;&gt;Node22 -->
<g id="edge28" class="edge"><title>Node20&#45;&gt;Node22</title>
<path fill="none" stroke="midnightblue" d="M450.502,-74.3717C440.243,-63.9547 422.775,-46.2173 409.971,-33.2162"/>
<polygon fill="midnightblue" stroke="midnightblue" points="412.218,-30.5101 402.707,-25.8411 407.23,-35.4219 412.218,-30.5101"/>
</g>
<!-- Node23&#45;&gt;Node4 -->
<g id="edge35" class="edge"><title>Node23&#45;&gt;Node4</title>
<path fill="none" stroke="midnightblue" d="M1210.62,-144.528C1340.57,-131.084 1627.92,-101.27 1633,-100 1636.06,-99.2346 1639.2,-98.267 1642.3,-97.1933"/>
<polygon fill="midnightblue" stroke="midnightblue" points="1643.81,-100.365 1651.9,-93.5197 1641.31,-93.8275 1643.81,-100.365"/>
</g>
<!-- Node23&#45;&gt;Node5 -->
<g id="edge37" class="edge"><title>Node23&#45;&gt;Node5</title>
<path fill="none" stroke="midnightblue" d="M1210.8,-147.587C1336.19,-140.392 1613.48,-122.461 1706,-100 1709.07,-99.2555 1712.21,-98.3013 1715.31,-97.2356"/>
<polygon fill="midnightblue" stroke="midnightblue" points="1716.82,-100.409 1724.91,-93.5715 1714.32,-93.8694 1716.82,-100.409"/>
</g>
<!-- Node24 -->
<g id="node24" class="node"><title>Node24</title>
<polygon fill="none" stroke="#bfbfbf" points="522.5,-69 522.5,-99 673.5,-99 673.5,-69 522.5,-69"/>
<text text-anchor="start" x="530.5" y="-87" font-family="Helvetica,sans-Serif" font-size="10.00">Math/GenVector/Displacement</text>
<text text-anchor="middle" x="598" y="-76" font-family="Helvetica,sans-Serif" font-size="10.00">Vector3D.h</text>
</g>
<!-- Node23&#45;&gt;Node24 -->
<g id="edge30" class="edge"><title>Node23&#45;&gt;Node24</title>
<path fill="none" stroke="midnightblue" d="M1088.39,-142.49C1072.07,-140.264 1054.36,-137.945 1038,-136 883.751,-117.667 841.79,-121.62 684.02,-100.077"/>
<polygon fill="midnightblue" stroke="midnightblue" points="684.34,-96.5878 673.956,-98.6895 683.385,-103.522 684.34,-96.5878"/>
</g>
<!-- Node25 -->
<g id="node25" class="node"><title>Node25</title>
<polygon fill="none" stroke="#bfbfbf" points="692,-74.5 692,-93.5 868,-93.5 868,-74.5 692,-74.5"/>
<text text-anchor="middle" x="780" y="-81.5" font-family="Helvetica,sans-Serif" font-size="10.00">Math/GenVector/PositionVector3D.h</text>
</g>
<!-- Node23&#45;&gt;Node25 -->
<g id="edge31" class="edge"><title>Node23&#45;&gt;Node25</title>
<path fill="none" stroke="midnightblue" d="M1100.27,-142.439C1032.84,-130.347 909.884,-108.294 837.513,-95.3148"/>
<polygon fill="midnightblue" stroke="midnightblue" points="838.109,-91.8659 827.648,-93.5455 836.873,-98.7559 838.109,-91.8659"/>
</g>
<!-- Node26 -->
<g id="node26" class="node"><title>Node26</title>
<polygon fill="none" stroke="#bfbfbf" points="885.5,-74.5 885.5,-93.5 1034.5,-93.5 1034.5,-74.5 885.5,-74.5"/>
<text text-anchor="middle" x="960" y="-81.5" font-family="Helvetica,sans-Serif" font-size="10.00">Math/GenVector/Rotation3D.h</text>
</g>
<!-- Node23&#45;&gt;Node26 -->
<g id="edge32" class="edge"><title>Node23&#45;&gt;Node26</title>
<path fill="none" stroke="midnightblue" d="M1123.42,-142.372C1090.26,-130.728 1031.04,-109.939 993.729,-96.8411"/>
<polygon fill="midnightblue" stroke="midnightblue" points="994.881,-93.536 984.286,-93.5259 992.562,-100.141 994.881,-93.536"/>
</g>
<!-- Node27 -->
<g id="node27" class="node"><title>Node27</title>
<polygon fill="none" stroke="#bfbfbf" points="1053,-74.5 1053,-93.5 1209,-93.5 1209,-74.5 1053,-74.5"/>
<text text-anchor="middle" x="1131" y="-81.5" font-family="Helvetica,sans-Serif" font-size="10.00">Math/GenVector/Transform3D.h</text>
</g>
<!-- Node23&#45;&gt;Node27 -->
<g id="edge33" class="edge"><title>Node23&#45;&gt;Node27</title>
<path fill="none" stroke="midnightblue" d="M1145.78,-142.372C1143.27,-132.643 1139.12,-116.528 1135.86,-103.85"/>
<polygon fill="midnightblue" stroke="midnightblue" points="1139.16,-102.652 1133.28,-93.8411 1132.38,-104.398 1139.16,-102.652"/>
</g>
<!-- Node28 -->
<g id="node28" class="node"><title>Node28</title>
<polygon fill="none" stroke="#bfbfbf" points="1227,-74.5 1227,-93.5 1387,-93.5 1387,-74.5 1227,-74.5"/>
<text text-anchor="middle" x="1307" y="-81.5" font-family="Helvetica,sans-Serif" font-size="10.00">Math/GenVector/Translation3D.h</text>
</g>
<!-- Node23&#45;&gt;Node28 -->
<g id="edge34" class="edge"><title>Node23&#45;&gt;Node28</title>
<path fill="none" stroke="midnightblue" d="M1168.79,-142.372C1196.36,-130.927 1245.22,-110.644 1276.85,-97.5165"/>
<polygon fill="midnightblue" stroke="midnightblue" points="1278.57,-100.592 1286.46,-93.5259 1275.88,-94.1271 1278.57,-100.592"/>
</g>
<!-- Node29 -->
<g id="node29" class="node"><title>Node29</title>
<polygon fill="none" stroke="#bfbfbf" points="1405,-74.5 1405,-93.5 1481,-93.5 1481,-74.5 1405,-74.5"/>
<text text-anchor="middle" x="1443" y="-81.5" font-family="Helvetica,sans-Serif" font-size="10.00">TGeoMatrix.h</text>
</g>
<!-- Node23&#45;&gt;Node29 -->
<g id="edge36" class="edge"><title>Node23&#45;&gt;Node29</title>
<path fill="none" stroke="midnightblue" d="M1197.29,-142.458C1247.6,-133.369 1327.75,-117.856 1396,-100 1399.9,-98.9805 1403.95,-97.8293 1407.97,-96.6292"/>
<polygon fill="midnightblue" stroke="midnightblue" points="1409.26,-99.8932 1417.78,-93.5926 1407.19,-93.2062 1409.26,-99.8932"/>
</g>
<!-- Node30 -->
<g id="node30" class="node"><title>Node30</title>
<g id="a_node30"><a xlink:href="../../d2/dd0/Cartesian2D_8h.html" target="_top" xlink:title="MathUtils/Cartesian2D.h">
<polygon fill="none" stroke="black" points="1499.5,-74.5 1499.5,-93.5 1624.5,-93.5 1624.5,-74.5 1499.5,-74.5"/>
<text text-anchor="middle" x="1562" y="-81.5" font-family="Helvetica,sans-Serif" font-size="10.00">MathUtils/Cartesian2D.h</text>
</a>
</g>
</g>
<!-- Node23&#45;&gt;Node30 -->
<g id="edge38" class="edge"><title>Node23&#45;&gt;Node30</title>
<path fill="none" stroke="midnightblue" d="M1210.58,-142.765C1279.29,-133.468 1392.79,-117.36 1490,-100 1497.52,-98.6578 1505.45,-97.1242 1513.19,-95.5619"/>
<polygon fill="midnightblue" stroke="midnightblue" points="1514.13,-98.9439 1523.22,-93.5052 1512.72,-92.0868 1514.13,-98.9439"/>
</g>
<!-- Node31 -->
<g id="node31" class="node"><title>Node31</title>
<polygon fill="none" stroke="#bfbfbf" points="1395.5,-1 1395.5,-31 1546.5,-31 1546.5,-1 1395.5,-1"/>
<text text-anchor="start" x="1403.5" y="-19" font-family="Helvetica,sans-Serif" font-size="10.00">Math/GenVector/Displacement</text>
<text text-anchor="middle" x="1471" y="-8" font-family="Helvetica,sans-Serif" font-size="10.00">Vector2D.h</text>
</g>
<!-- Node30&#45;&gt;Node31 -->
<g id="edge39" class="edge"><title>Node30&#45;&gt;Node31</title>
<path fill="none" stroke="midnightblue" d="M1550.1,-74.3717C1537.22,-65.0286 1516.22,-49.7966 1499.09,-37.375"/>
<polygon fill="midnightblue" stroke="midnightblue" points="1500.7,-34.2194 1490.55,-31.1815 1496.59,-39.8859 1500.7,-34.2194"/>
</g>
<!-- Node32 -->
<g id="node32" class="node"><title>Node32</title>
<polygon fill="none" stroke="#bfbfbf" points="1565,-6.5 1565,-25.5 1741,-25.5 1741,-6.5 1565,-6.5"/>
<text text-anchor="middle" x="1653" y="-13.5" font-family="Helvetica,sans-Serif" font-size="10.00">Math/GenVector/PositionVector2D.h</text>
</g>
<!-- Node30&#45;&gt;Node32 -->
<g id="edge40" class="edge"><title>Node30&#45;&gt;Node32</title>
<path fill="none" stroke="midnightblue" d="M1573.9,-74.3717C1588.88,-63.5015 1614.86,-44.6602 1632.94,-31.5474"/>
<polygon fill="midnightblue" stroke="midnightblue" points="1635.06,-34.3349 1641.1,-25.6305 1630.95,-28.6684 1635.06,-34.3349"/>
</g>
<!-- Node33&#45;&gt;Node4 -->
<g id="edge44" class="edge"><title>Node33&#45;&gt;Node4</title>
<path fill="none" stroke="midnightblue" d="M1654.82,-204.66C1657.91,-180.32 1664.17,-130.933 1667.61,-103.837"/>
<polygon fill="midnightblue" stroke="midnightblue" points="1671.11,-104.089 1668.89,-93.7275 1664.16,-103.207 1671.11,-104.089"/>
</g>
<!-- Node33&#45;&gt;Node5 -->
<g id="edge46" class="edge"><title>Node33&#45;&gt;Node5</title>
<path fill="none" stroke="midnightblue" d="M1662.63,-204.66C1679.34,-179.777 1713.64,-128.716 1731.54,-102.057"/>
<polygon fill="midnightblue" stroke="midnightblue" points="1734.47,-103.98 1737.14,-93.7275 1728.66,-100.077 1734.47,-103.98"/>
</g>
<!-- Node33&#45;&gt;Node6 -->
<g id="edge47" class="edge"><title>Node33&#45;&gt;Node6</title>
<path fill="none" stroke="midnightblue" d="M1642.37,-204.679C1634.8,-194.49 1624.61,-180.759 1616.63,-170.011"/>
<polygon fill="midnightblue" stroke="midnightblue" points="1619.33,-167.771 1610.55,-161.828 1613.71,-171.944 1619.33,-167.771"/>
</g>
<!-- Node33&#45;&gt;Node15 -->
<g id="edge49" class="edge"><title>Node33&#45;&gt;Node15</title>
<path fill="none" stroke="midnightblue" d="M1605.22,-204.922C1561.77,-192.118 1498.83,-173.575 1461.11,-162.461"/>
<polygon fill="midnightblue" stroke="midnightblue" points="1461.76,-159.003 1451.18,-159.534 1459.78,-165.717 1461.76,-159.003"/>
</g>
<!-- Node34 -->
<g id="node34" class="node"><title>Node34</title>
<polygon fill="none" stroke="#bfbfbf" points="1719,-142.5 1719,-161.5 1769,-161.5 1769,-142.5 1719,-142.5"/>
<text text-anchor="middle" x="1744" y="-149.5" font-family="Helvetica,sans-Serif" font-size="10.00">fstream</text>
</g>
<!-- Node33&#45;&gt;Node34 -->
<g id="edge45" class="edge"><title>Node33&#45;&gt;Node34</title>
<path fill="none" stroke="midnightblue" d="M1672.75,-204.679C1687.86,-193.713 1708.64,-178.645 1723.86,-167.609"/>
<polygon fill="midnightblue" stroke="midnightblue" points="1726.05,-170.342 1732.09,-161.638 1721.94,-164.676 1726.05,-170.342"/>
</g>
<!-- Node35 -->
<g id="node35" class="node"><title>Node35</title>
<polygon fill="none" stroke="#bfbfbf" points="1787.5,-142.5 1787.5,-161.5 1870.5,-161.5 1870.5,-142.5 1787.5,-142.5"/>
<text text-anchor="middle" x="1829" y="-149.5" font-family="Helvetica,sans-Serif" font-size="10.00">unordered_map</text>
</g>
<!-- Node33&#45;&gt;Node35 -->
<g id="edge48" class="edge"><title>Node33&#45;&gt;Node35</title>
<path fill="none" stroke="midnightblue" d="M1690.76,-204.841C1722.25,-193.033 1766.64,-176.384 1796.55,-165.168"/>
<polygon fill="midnightblue" stroke="midnightblue" points="1797.97,-168.375 1806.1,-161.587 1795.51,-161.821 1797.97,-168.375"/>
</g>
</g>
</svg>
        <g id="navigator" transform="translate(0 0)" fill="#404254">
                <rect fill="#f2f5e9" fill-opacity="0.5" stroke="#606060" stroke-width=".5" x="0" y="0" width="60" height="60"/>
                <use id="zoomplus" xlink:href="#zoomPlus" x="17" y="9" onmousedown="handleZoom(evt,'in')"/>
                <use id="zoomminus" xlink:href="#zoomMin" x="42" y="9" onmousedown="handleZoom(evt,'out')"/>
                <use id="reset" xlink:href="#resetDef" x="30" y="36" onmousedown="handleReset()"/>
                <g id="arrowUp" xlink:href="#dirArrow" transform="translate(30 24)" onmousedown="handlePan(0,-1)">
                  <use xlink:href="#rim" fill="#404040">
                        <set attributeName="fill" to="#808080" begin="arrowUp.mouseover" end="arrowUp.mouseout"/>
                  </use>
                  <path fill="none" stroke="white" stroke-width="1.5" d="M0,-3.0v7 M-2.5,-0.5L0,-3.0L2.5,-0.5"/>
                </g>
                <g id="arrowRight" xlink:href="#dirArrow" transform="rotate(90) translate(36 -43)" onmousedown="handlePan(1,0)">
                  <use xlink:href="#rim" fill="#404040">
                        <set attributeName="fill" to="#808080" begin="arrowRight.mouseover" end="arrowRight.mouseout"/>
                  </use>
                  <path fill="none" stroke="white" stroke-width="1.5" d="M0,-3.0v7 M-2.5,-0.5L0,-3.0L2.5,-0.5"/>
                </g>
                <g id="arrowDown" xlink:href="#dirArrow" transform="rotate(180) translate(-30 -48)" onmousedown="handlePan(0,1)">
                  <use xlink:href="#rim" fill="#404040">
                        <set attributeName="fill" to="#808080" begin="arrowDown.mouseover" end="arrowDown.mouseout"/>
                  </use>
                  <path fill="none" stroke="white" stroke-width="1.5" d="M0,-3.0v7 M-2.5,-0.5L0,-3.0L2.5,-0.5"/>
                </g>
                <g id="arrowLeft" xlink:href="#dirArrow" transform="rotate(270) translate(-36 17)" onmousedown="handlePan(-1,0)">
                  <use xlink:href="#rim" fill="#404040">
                        <set attributeName="fill" to="#808080" begin="arrowLeft.mouseover" end="arrowLeft.mouseout"/>
                  </use>
                  <path fill="none" stroke="white" stroke-width="1.5" d="M0,-3.0v7 M-2.5,-0.5L0,-3.0L2.5,-0.5"/>
                </g>
        </g>
        <svg viewBox="0 0 15 15" width="100%" height="30px" preserveAspectRatio="xMaxYMin meet">
         <g id="arrow_out" transform="scale(0.3 0.3)">
          <a xlink:href="LookUp_8h__incl_org.svg" target="_base">
           <rect id="button" ry="5" rx="5" y="6" x="6" height="38" width="38"
                fill="#f2f5e9" fill-opacity="0.5" stroke="#606060" stroke-width="1.0"/>
           <path id="arrow"
             d="M 11.500037,31.436501 C 11.940474,20.09759 22.043105,11.32322 32.158766,21.979434 L 37.068811,17.246167 C 37.068811,17.246167 37.088388,32 37.088388,32 L 22.160133,31.978069 C 22.160133,31.978069 26.997745,27.140456 26.997745,27.140456 C 18.528582,18.264221 13.291696,25.230495 11.500037,31.436501 z"
             style="fill:#404040;"/>
          </a>
         </g>
        </svg>
</svg>
