<?xml version="1.0" encoding="UTF-8" standalone="no"?>
<!DOCTYPE svg PUBLIC "-//W3C//DTD SVG 1.1//EN"
 "http://www.w3.org/Graphics/SVG/1.1/DTD/svg11.dtd">
<!-- Generated by graphviz version 2.36.0 (20140111.2315)
 -->
<!-- Title: /home/travis/build/AliceO2Group/AliceO2/Detectors/ITSMFT/common/reconstruction/src/BuildTopologyDictionary.cxx Pages: 1 -->
<!--zoomable 616 -->
<svg id="main" version="1.1" xmlns="http://www.w3.org/2000/svg" xmlns:xlink="http://www.w3.org/1999/xlink" xml:space="preserve" onload="init(evt)">
<style type="text/css"><![CDATA[
.edge:hover path { stroke: red; }
.edge:hover polygon { stroke: red; fill: red; }
]]></style>
<script type="text/javascript"><![CDATA[
var edges = document.getElementsByTagName('g');
if (edges && edges.length) {
  for (var i=0;i<edges.length;i++) {
    if (edges[i].id.substr(0,4)=='edge') {
      edges[i].setAttribute('class','edge');
    }
  }
}
]]></script>
        <defs>
                <circle id="rim" cx="0" cy="0" r="7"/>
                <circle id="rim2" cx="0" cy="0" r="3.5"/>
                <g id="zoomPlus">
                        <use xlink:href="#rim" fill="#404040">
                                <set attributeName="fill" to="#808080" begin="zoomplus.mouseover" end="zoomplus.mouseout"/>
                        </use>
                        <path d="M-4,0h8M0,-4v8" fill="none" stroke="white" stroke-width="1.5" pointer-events="none"/>
                </g>
                <g id="zoomMin">
                        <use xlink:href="#rim" fill="#404040">
                                <set attributeName="fill" to="#808080" begin="zoomminus.mouseover" end="zoomminus.mouseout"/>
                        </use>
                        <path d="M-4,0h8" fill="none" stroke="white" stroke-width="1.5" pointer-events="none"/>
                </g>
                <g id="dirArrow">
                        <path fill="none" stroke="white" stroke-width="1.5" d="M0,-3.0v7 M-2.5,-0.5L0,-3.0L2.5,-0.5"/>
                </g>
               <g id="resetDef">
                       <use xlink:href="#rim2" fill="#404040">
                               <set attributeName="fill" to="#808080" begin="reset.mouseover" end="reset.mouseout"/>
                       </use>
               </g>
        </defs>

<script type="text/javascript">
var viewWidth = 1968;
var viewHeight = 616;
var sectionId = 'dynsection-0';
</script>
<script xlink:href="../../svgpan.js"/>
<svg id="graph" class="graph">
<g id="viewport">
<title>/home/travis/build/AliceO2Group/AliceO2/Detectors/ITSMFT/common/reconstruction/src/BuildTopologyDictionary.cxx</title>
<!-- Node1 -->
<g id="node1" class="node"><title>Node1</title>
<polygon fill="#bfbfbf" stroke="black" points="1027,-544.5 1027,-607.5 1189,-607.5 1189,-544.5 1027,-544.5"/>
<text text-anchor="start" x="1035" y="-595.5" font-family="Helvetica,sans-Serif" font-size="10.00">/home/travis/build</text>
<text text-anchor="start" x="1035" y="-584.5" font-family="Helvetica,sans-Serif" font-size="10.00">/AliceO2Group/AliceO2</text>
<text text-anchor="start" x="1035" y="-573.5" font-family="Helvetica,sans-Serif" font-size="10.00">/Detectors/ITSMFT/common</text>
<text text-anchor="start" x="1035" y="-562.5" font-family="Helvetica,sans-Serif" font-size="10.00">/reconstruction/src/BuildTopology</text>
<text text-anchor="middle" x="1108" y="-551.5" font-family="Helvetica,sans-Serif" font-size="10.00">Dictionary.cxx</text>
</g>
<!-- Node2 -->
<g id="node2" class="node"><title>Node2</title>
<g id="a_node2"><a xlink:href="../../d9/d1d/BuildTopologyDictionary_8h.html" target="_top" xlink:title="Definition of the BuildTopologyDictionary class. ">
<polygon fill="none" stroke="black" points="200,-477 200,-507 334,-507 334,-477 200,-477"/>
<text text-anchor="start" x="208" y="-495" font-family="Helvetica,sans-Serif" font-size="10.00">ITSMFTReconstruction</text>
<text text-anchor="middle" x="267" y="-484" font-family="Helvetica,sans-Serif" font-size="10.00">/BuildTopologyDictionary.h</text>
</a>
</g>
</g>
<!-- Node1&#45;&gt;Node2 -->
<g id="edge1" class="edge"><title>Node1&#45;&gt;Node2</title>
<path fill="none" stroke="midnightblue" d="M1026.98,-567.1C865.042,-551.311 503.344,-516.044 344.418,-500.549"/>
<polygon fill="midnightblue" stroke="midnightblue" points="344.54,-497.044 334.248,-499.557 343.861,-504.011 344.54,-497.044"/>
</g>
<!-- Node24 -->
<g id="node24" class="node"><title>Node24</title>
<polygon fill="none" stroke="#bfbfbf" points="1916,-6.5 1916,-25.5 1960,-25.5 1960,-6.5 1916,-6.5"/>
<text text-anchor="middle" x="1938" y="-13.5" font-family="Helvetica,sans-Serif" font-size="10.00">cmath</text>
</g>
<!-- Node1&#45;&gt;Node24 -->
<g id="edge55" class="edge"><title>Node1&#45;&gt;Node24</title>
<path fill="none" stroke="midnightblue" d="M1189.12,-569.033C1400.14,-552.428 1950,-501.793 1950,-425 1950,-425 1950,-425 1950,-151 1950,-109.697 1944.27,-61.5181 1940.73,-35.6693"/>
<polygon fill="midnightblue" stroke="midnightblue" points="1944.2,-35.1664 1939.33,-25.7555 1937.27,-36.1473 1944.2,-35.1664"/>
</g>
<!-- Node3 -->
<g id="node3" class="node"><title>Node3</title>
<polygon fill="none" stroke="#bfbfbf" points="68,-414.5 68,-433.5 124,-433.5 124,-414.5 68,-414.5"/>
<text text-anchor="middle" x="96" y="-421.5" font-family="Helvetica,sans-Serif" font-size="10.00">algorithm</text>
</g>
<!-- Node2&#45;&gt;Node3 -->
<g id="edge2" class="edge"><title>Node2&#45;&gt;Node3</title>
<path fill="none" stroke="midnightblue" d="M230.316,-476.841C199.942,-465.118 157.208,-448.624 128.156,-437.411"/>
<polygon fill="midnightblue" stroke="midnightblue" points="129.083,-434.017 118.494,-433.682 126.563,-440.548 129.083,-434.017"/>
</g>
<!-- Node4 -->
<g id="node4" class="node"><title>Node4</title>
<polygon fill="none" stroke="#bfbfbf" points="349,-6.5 349,-25.5 387,-25.5 387,-6.5 349,-6.5"/>
<text text-anchor="middle" x="368" y="-13.5" font-family="Helvetica,sans-Serif" font-size="10.00">array</text>
</g>
<!-- Node2&#45;&gt;Node4 -->
<g id="edge3" class="edge"><title>Node2&#45;&gt;Node4</title>
<path fill="none" stroke="midnightblue" d="M242.33,-476.995C208.539,-455.768 152,-412.028 152,-357 152,-357 152,-357 152,-151 152,-108.387 166.615,-94.4825 200,-68 240.902,-35.5548 302.277,-23.6954 338.42,-19.3994"/>
<polygon fill="midnightblue" stroke="midnightblue" points="339.203,-22.8358 348.776,-18.2946 338.461,-15.8753 339.203,-22.8358"/>
</g>
<!-- Node5 -->
<g id="node5" class="node"><title>Node5</title>
<g id="a_node5"><a xlink:href="../../d3/dba/SegmentationAlpide_8h.html" target="_top" xlink:title="Definition of the SegmentationAlpide class. ">
<polygon fill="none" stroke="black" points="180.5,-346.5 180.5,-365.5 353.5,-365.5 353.5,-346.5 180.5,-346.5"/>
<text text-anchor="middle" x="267" y="-353.5" font-family="Helvetica,sans-Serif" font-size="10.00">ITSMFTBase/SegmentationAlpide.h</text>
</a>
</g>
</g>
<!-- Node2&#45;&gt;Node5 -->
<g id="edge4" class="edge"><title>Node2&#45;&gt;Node5</title>
<path fill="none" stroke="midnightblue" d="M267,-476.66C267,-452.32 267,-402.933 267,-375.837"/>
<polygon fill="midnightblue" stroke="midnightblue" points="270.5,-375.727 267,-365.728 263.5,-375.728 270.5,-375.727"/>
</g>
<!-- Node7 -->
<g id="node7" class="node"><title>Node7</title>
<g id="a_node7"><a xlink:href="../../d8/ddb/ClusterTopology_8h.html" target="_top" xlink:title="Definition of the ClusterTopology class. ">
<polygon fill="none" stroke="black" points="729.5,-409 729.5,-439 848.5,-439 848.5,-409 729.5,-409"/>
<text text-anchor="start" x="737.5" y="-427" font-family="Helvetica,sans-Serif" font-size="10.00">ITSMFTReconstruction</text>
<text text-anchor="middle" x="789" y="-416" font-family="Helvetica,sans-Serif" font-size="10.00">/ClusterTopology.h</text>
</a>
</g>
</g>
<!-- Node2&#45;&gt;Node7 -->
<g id="edge6" class="edge"><title>Node2&#45;&gt;Node7</title>
<path fill="none" stroke="midnightblue" d="M334.174,-482.507C433.472,-469.952 618.522,-446.555 719.27,-433.816"/>
<polygon fill="midnightblue" stroke="midnightblue" points="719.863,-437.269 729.345,-432.543 718.984,-430.325 719.863,-437.269"/>
</g>
<!-- Node36 -->
<g id="node36" class="node"><title>Node36</title>
<g id="a_node36"><a xlink:href="../../d1/d08/TopologyDictionary_8h.html" target="_top" xlink:title="Definition of the ClusterTopology class. ">
<polygon fill="none" stroke="black" points="1181.5,-205 1181.5,-235 1300.5,-235 1300.5,-205 1181.5,-205"/>
<text text-anchor="start" x="1189.5" y="-223" font-family="Helvetica,sans-Serif" font-size="10.00">ITSMFTReconstruction</text>
<text text-anchor="middle" x="1241" y="-212" font-family="Helvetica,sans-Serif" font-size="10.00">/TopologyDictionary.h</text>
</a>
</g>
</g>
<!-- Node2&#45;&gt;Node36 -->
<g id="edge47" class="edge"><title>Node2&#45;&gt;Node36</title>
<path fill="none" stroke="midnightblue" d="M334.157,-490.168C517.895,-486.646 1023.83,-468.229 1154,-372 1197.47,-339.867 1222.64,-279.037 1233.88,-245.218"/>
<polygon fill="midnightblue" stroke="midnightblue" points="1237.35,-245.847 1237.04,-235.257 1230.68,-243.727 1237.35,-245.847"/>
</g>
<!-- Node39 -->
<g id="node39" class="node"><title>Node39</title>
<polygon fill="none" stroke="#bfbfbf" points="0,-414.5 0,-433.5 50,-433.5 50,-414.5 0,-414.5"/>
<text text-anchor="middle" x="25" y="-421.5" font-family="Helvetica,sans-Serif" font-size="10.00">TH1F.h</text>
</g>
<!-- Node2&#45;&gt;Node39 -->
<g id="edge54" class="edge"><title>Node2&#45;&gt;Node39</title>
<path fill="none" stroke="midnightblue" d="M199.636,-477.618C158.496,-468.676 105.111,-455.69 59,-440 56.7325,-439.228 54.4076,-438.365 52.0896,-437.453"/>
<polygon fill="midnightblue" stroke="midnightblue" points="53.3403,-434.182 42.7651,-433.538 50.6305,-440.637 53.3403,-434.182"/>
</g>
<!-- Node6 -->
<g id="node6" class="node"><title>Node6</title>
<polygon fill="none" stroke="#bfbfbf" points="674,-74.5 674,-93.5 730,-93.5 730,-74.5 674,-74.5"/>
<text text-anchor="middle" x="702" y="-81.5" font-family="Helvetica,sans-Serif" font-size="10.00">Rtypes.h</text>
</g>
<!-- Node5&#45;&gt;Node6 -->
<g id="edge5" class="edge"><title>Node5&#45;&gt;Node6</title>
<path fill="none" stroke="midnightblue" d="M273.692,-346.196C293.486,-320.711 354.537,-246.022 421,-204 460.22,-179.203 476.064,-185.595 519,-168 575.21,-144.965 639.62,-114.866 675.068,-97.9696"/>
<polygon fill="midnightblue" stroke="midnightblue" points="676.756,-101.042 684.268,-93.571 673.736,-94.7271 676.756,-101.042"/>
</g>
<!-- Node7&#45;&gt;Node4 -->
<g id="edge8" class="edge"><title>Node7&#45;&gt;Node4</title>
<path fill="none" stroke="midnightblue" d="M729.466,-413.233C601.162,-388.418 302.618,-309.384 209,-100 203.195,-87.0164 200.619,-79.4902 209,-68 238.698,-27.2854 301.382,-18.3489 338.557,-16.8064"/>
<polygon fill="midnightblue" stroke="midnightblue" points="338.859,-20.2999 348.765,-16.5423 338.677,-13.3022 338.859,-20.2999"/>
</g>
<!-- Node7&#45;&gt;Node6 -->
<g id="edge7" class="edge"><title>Node7&#45;&gt;Node6</title>
<path fill="none" stroke="midnightblue" d="M799.455,-408.97C815.91,-385.453 846,-336.023 846,-289 846,-289 846,-289 846,-219 846,-185.981 763.836,-126.387 723.636,-99.2058"/>
<polygon fill="midnightblue" stroke="midnightblue" points="725.547,-96.2729 715.289,-93.6204 721.654,-102.091 725.547,-96.2729"/>
</g>
<!-- Node8 -->
<g id="node8" class="node"><title>Node8</title>
<polygon fill="none" stroke="#bfbfbf" points="1868,-74.5 1868,-93.5 1922,-93.5 1922,-74.5 1868,-74.5"/>
<text text-anchor="middle" x="1895" y="-81.5" font-family="Helvetica,sans-Serif" font-size="10.00">iostream</text>
</g>
<!-- Node7&#45;&gt;Node8 -->
<g id="edge9" class="edge"><title>Node7&#45;&gt;Node8</title>
<path fill="none" stroke="midnightblue" d="M848.793,-411.187C942.907,-390.86 1115,-345.909 1115,-289 1115,-289 1115,-289 1115,-219 1115,-181.157 1105,-160.313 1134,-136 1195.72,-84.2528 1779.35,-117.374 1858,-100 1861.25,-99.2823 1864.58,-98.3064 1867.85,-97.1944"/>
<polygon fill="midnightblue" stroke="midnightblue" points="1869.23,-100.413 1877.32,-93.5718 1866.73,-93.8747 1869.23,-100.413"/>
</g>
<!-- Node9 -->
<g id="node9" class="node"><title>Node9</title>
<polygon fill="none" stroke="#bfbfbf" points="1205.5,-142.5 1205.5,-161.5 1246.5,-161.5 1246.5,-142.5 1205.5,-142.5"/>
<text text-anchor="middle" x="1226" y="-149.5" font-family="Helvetica,sans-Serif" font-size="10.00">string</text>
</g>
<!-- Node7&#45;&gt;Node9 -->
<g id="edge10" class="edge"><title>Node7&#45;&gt;Node9</title>
<path fill="none" stroke="midnightblue" d="M848.742,-421.739C935.064,-418.672 1088.76,-408.144 1129,-372 1186.43,-320.426 1133.95,-270.581 1173,-204 1181.24,-189.956 1194.42,-177.25 1205.57,-168.034"/>
<polygon fill="midnightblue" stroke="midnightblue" points="1207.91,-170.645 1213.59,-161.701 1203.57,-165.151 1207.91,-170.645"/>
</g>
<!-- Node10 -->
<g id="node10" class="node"><title>Node10</title>
<g id="a_node10"><a xlink:href="../../dc/de1/ITSMFT_2common_2reconstruction_2include_2ITSMFTReconstruction_2Cluster_8h.html" target="_top" xlink:title="ITSMFTReconstruction\l/Cluster.h">
<polygon fill="none" stroke="black" points="672.5,-341 672.5,-371 791.5,-371 791.5,-341 672.5,-341"/>
<text text-anchor="start" x="680.5" y="-359" font-family="Helvetica,sans-Serif" font-size="10.00">ITSMFTReconstruction</text>
<text text-anchor="middle" x="732" y="-348" font-family="Helvetica,sans-Serif" font-size="10.00">/Cluster.h</text>
</a>
</g>
</g>
<!-- Node7&#45;&gt;Node10 -->
<g id="edge11" class="edge"><title>Node7&#45;&gt;Node10</title>
<path fill="none" stroke="midnightblue" d="M776.632,-408.679C769.162,-400.03 759.489,-388.829 751.058,-379.067"/>
<polygon fill="midnightblue" stroke="midnightblue" points="753.529,-376.574 744.344,-371.293 748.231,-381.149 753.529,-376.574"/>
</g>
<!-- Node11 -->
<g id="node11" class="node"><title>Node11</title>
<g id="a_node11"><a xlink:href="../../d4/de2/BaseCluster_8h.html" target="_top" xlink:title="ReconstructionDataFormats\l/BaseCluster.h">
<polygon fill="none" stroke="black" points="610,-273 610,-303 750,-303 750,-273 610,-273"/>
<text text-anchor="start" x="618" y="-291" font-family="Helvetica,sans-Serif" font-size="10.00">ReconstructionDataFormats</text>
<text text-anchor="middle" x="680" y="-280" font-family="Helvetica,sans-Serif" font-size="10.00">/BaseCluster.h</text>
</a>
</g>
</g>
<!-- Node10&#45;&gt;Node11 -->
<g id="edge12" class="edge"><title>Node10&#45;&gt;Node11</title>
<path fill="none" stroke="midnightblue" d="M720.717,-340.679C713.971,-332.117 705.254,-321.053 697.617,-311.36"/>
<polygon fill="midnightblue" stroke="midnightblue" points="700.199,-308.982 691.261,-303.293 694.701,-313.314 700.199,-308.982"/>
</g>
<!-- Node11&#45;&gt;Node8 -->
<g id="edge17" class="edge"><title>Node11&#45;&gt;Node8</title>
<path fill="none" stroke="midnightblue" d="M746.938,-272.95C824.385,-255.116 954.401,-220.243 1057,-168 1078.55,-157.028 1078.19,-144.022 1101,-136 1259.87,-80.1292 1693.51,-136.151 1858,-100 1861.25,-99.2858 1864.58,-98.3121 1867.85,-97.2013"/>
<polygon fill="midnightblue" stroke="midnightblue" points="1869.23,-100.42 1877.32,-93.5801 1866.73,-93.8816 1869.23,-100.42"/>
</g>
<!-- Node12 -->
<g id="node12" class="node"><title>Node12</title>
<polygon fill="none" stroke="#bfbfbf" points="430.5,-210.5 430.5,-229.5 489.5,-229.5 489.5,-210.5 430.5,-210.5"/>
<text text-anchor="middle" x="460" y="-217.5" font-family="Helvetica,sans-Serif" font-size="10.00">TObject.h</text>
</g>
<!-- Node11&#45;&gt;Node12 -->
<g id="edge13" class="edge"><title>Node11&#45;&gt;Node12</title>
<path fill="none" stroke="midnightblue" d="M624.947,-272.907C588.871,-263.325 540.824,-249.902 499,-236 496.38,-235.129 493.677,-234.185 490.973,-233.21"/>
<polygon fill="midnightblue" stroke="midnightblue" points="491.92,-229.828 481.328,-229.612 489.473,-236.386 491.92,-229.828"/>
</g>
<!-- Node13 -->
<g id="node13" class="node"><title>Node13</title>
<polygon fill="none" stroke="#bfbfbf" points="218.5,-74.5 218.5,-93.5 259.5,-93.5 259.5,-74.5 218.5,-74.5"/>
<text text-anchor="middle" x="239" y="-81.5" font-family="Helvetica,sans-Serif" font-size="10.00">bitset</text>
</g>
<!-- Node11&#45;&gt;Node13 -->
<g id="edge14" class="edge"><title>Node11&#45;&gt;Node13</title>
<path fill="none" stroke="midnightblue" d="M609.722,-282.604C555.883,-277.046 480.919,-264.465 421,-236 349.137,-201.861 281.785,-132.885 253.292,-101.373"/>
<polygon fill="midnightblue" stroke="midnightblue" points="255.578,-98.6784 246.314,-93.5388 250.351,-103.334 255.578,-98.6784"/>
</g>
<!-- Node14 -->
<g id="node14" class="node"><title>Node14</title>
<polygon fill="none" stroke="#bfbfbf" points="508,-210.5 508,-229.5 558,-229.5 558,-210.5 508,-210.5"/>
<text text-anchor="middle" x="533" y="-217.5" font-family="Helvetica,sans-Serif" font-size="10.00">iomanip</text>
</g>
<!-- Node11&#45;&gt;Node14 -->
<g id="edge15" class="edge"><title>Node11&#45;&gt;Node14</title>
<path fill="none" stroke="midnightblue" d="M648.465,-272.841C622.696,-261.272 586.578,-245.055 561.631,-233.855"/>
<polygon fill="midnightblue" stroke="midnightblue" points="562.893,-230.585 552.337,-229.682 560.026,-236.971 562.893,-230.585"/>
</g>
<!-- Node15 -->
<g id="node15" class="node"><title>Node15</title>
<polygon fill="none" stroke="#bfbfbf" points="750.5,-210.5 750.5,-229.5 779.5,-229.5 779.5,-210.5 750.5,-210.5"/>
<text text-anchor="middle" x="765" y="-217.5" font-family="Helvetica,sans-Serif" font-size="10.00">ios</text>
</g>
<!-- Node11&#45;&gt;Node15 -->
<g id="edge16" class="edge"><title>Node11&#45;&gt;Node15</title>
<path fill="none" stroke="midnightblue" d="M698.444,-272.679C712.353,-261.879 731.389,-247.098 745.54,-236.11"/>
<polygon fill="midnightblue" stroke="midnightblue" points="747.878,-238.726 753.63,-229.828 743.585,-233.197 747.878,-238.726"/>
</g>
<!-- Node16 -->
<g id="node16" class="node"><title>Node16</title>
<g id="a_node16"><a xlink:href="../../d4/d20/DetMatrixCache_8h.html" target="_top" xlink:title="DetectorsCommonDataFormats\l/DetMatrixCache.h">
<polygon fill="none" stroke="black" points="576,-205 576,-235 732,-235 732,-205 576,-205"/>
<text text-anchor="start" x="584" y="-223" font-family="Helvetica,sans-Serif" font-size="10.00">DetectorsCommonDataFormats</text>
<text text-anchor="middle" x="654" y="-212" font-family="Helvetica,sans-Serif" font-size="10.00">/DetMatrixCache.h</text>
</a>
</g>
</g>
<!-- Node11&#45;&gt;Node16 -->
<g id="edge18" class="edge"><title>Node11&#45;&gt;Node16</title>
<path fill="none" stroke="midnightblue" d="M674.358,-272.679C671.156,-264.549 667.065,-254.164 663.391,-244.839"/>
<polygon fill="midnightblue" stroke="midnightblue" points="666.552,-243.314 659.631,-235.293 660.039,-245.88 666.552,-243.314"/>
</g>
<!-- Node26 -->
<g id="node26" class="node"><title>Node26</title>
<g id="a_node26"><a xlink:href="../../dd/d76/Cartesian3D_8h.html" target="_top" xlink:title="MathUtils/Cartesian3D.h">
<polygon fill="none" stroke="black" points="923.5,-142.5 923.5,-161.5 1048.5,-161.5 1048.5,-142.5 923.5,-142.5"/>
<text text-anchor="middle" x="986" y="-149.5" font-family="Helvetica,sans-Serif" font-size="10.00">MathUtils/Cartesian3D.h</text>
</a>
</g>
</g>
<!-- Node11&#45;&gt;Node26 -->
<g id="edge46" class="edge"><title>Node11&#45;&gt;Node26</title>
<path fill="none" stroke="midnightblue" d="M712.169,-272.913C772.076,-246.679 899.84,-190.73 957.143,-165.637"/>
<polygon fill="midnightblue" stroke="midnightblue" points="958.597,-168.821 966.354,-161.603 955.789,-162.409 958.597,-168.821"/>
</g>
<!-- Node16&#45;&gt;Node4 -->
<g id="edge20" class="edge"><title>Node16&#45;&gt;Node4</title>
<path fill="none" stroke="midnightblue" d="M635.837,-204.951C623.701,-195.177 607.697,-181.522 595,-168 556.788,-127.305 564.325,-100.586 519,-68 481.86,-41.2986 429.72,-27.8154 397.44,-21.6134"/>
<polygon fill="midnightblue" stroke="midnightblue" points="397.768,-18.116 387.304,-19.7807 396.522,-25.0043 397.768,-18.116"/>
</g>
<!-- Node16&#45;&gt;Node6 -->
<g id="edge45" class="edge"><title>Node16&#45;&gt;Node6</title>
<path fill="none" stroke="midnightblue" d="M663.956,-204.898C670.524,-194.992 678.839,-181.203 684,-168 692.287,-146.8 697.125,-120.986 699.66,-103.832"/>
<polygon fill="midnightblue" stroke="midnightblue" points="703.185,-103.883 701.061,-93.5029 696.249,-102.942 703.185,-103.883"/>
</g>
<!-- Node17 -->
<g id="node17" class="node"><title>Node17</title>
<polygon fill="none" stroke="#bfbfbf" points="604.5,-142.5 604.5,-161.5 675.5,-161.5 675.5,-142.5 604.5,-142.5"/>
<text text-anchor="middle" x="640" y="-149.5" font-family="Helvetica,sans-Serif" font-size="10.00">FairLogger.h</text>
</g>
<!-- Node16&#45;&gt;Node17 -->
<g id="edge19" class="edge"><title>Node16&#45;&gt;Node17</title>
<path fill="none" stroke="midnightblue" d="M650.962,-204.679C648.909,-194.999 646.178,-182.123 643.955,-171.645"/>
<polygon fill="midnightblue" stroke="midnightblue" points="647.372,-170.884 641.873,-161.828 640.524,-172.337 647.372,-170.884"/>
</g>
<!-- Node18 -->
<g id="node18" class="node"><title>Node18</title>
<polygon fill="none" stroke="#bfbfbf" points="1143,-142.5 1143,-161.5 1187,-161.5 1187,-142.5 1143,-142.5"/>
<text text-anchor="middle" x="1165" y="-149.5" font-family="Helvetica,sans-Serif" font-size="10.00">vector</text>
</g>
<!-- Node16&#45;&gt;Node18 -->
<g id="edge21" class="edge"><title>Node16&#45;&gt;Node18</title>
<path fill="none" stroke="midnightblue" d="M732.221,-205.296C735.183,-204.846 738.117,-204.412 741,-204 880.928,-183.983 916.763,-185.724 1057,-168 1082.38,-164.792 1111.07,-160.79 1132.5,-157.727"/>
<polygon fill="midnightblue" stroke="midnightblue" points="1133.28,-161.15 1142.68,-156.263 1132.29,-154.221 1133.28,-161.15"/>
</g>
<!-- Node19 -->
<g id="node19" class="node"><title>Node19</title>
<g id="a_node19"><a xlink:href="../../d6/d31/DetID_8h.html" target="_top" xlink:title="DetectorsCommonDataFormats\l/DetID.h">
<polygon fill="none" stroke="black" points="354,-137 354,-167 510,-167 510,-137 354,-137"/>
<text text-anchor="start" x="362" y="-155" font-family="Helvetica,sans-Serif" font-size="10.00">DetectorsCommonDataFormats</text>
<text text-anchor="middle" x="432" y="-144" font-family="Helvetica,sans-Serif" font-size="10.00">/DetID.h</text>
</a>
</g>
</g>
<!-- Node16&#45;&gt;Node19 -->
<g id="edge22" class="edge"><title>Node16&#45;&gt;Node19</title>
<path fill="none" stroke="midnightblue" d="M606.648,-204.922C572.31,-194.714 525.699,-180.857 489.267,-170.025"/>
<polygon fill="midnightblue" stroke="midnightblue" points="489.862,-166.551 479.279,-167.056 487.867,-173.261 489.862,-166.551"/>
</g>
<!-- Node16&#45;&gt;Node26 -->
<g id="edge33" class="edge"><title>Node16&#45;&gt;Node26</title>
<path fill="none" stroke="midnightblue" d="M724.815,-204.922C787.205,-192.52 876.688,-174.731 933.049,-163.526"/>
<polygon fill="midnightblue" stroke="midnightblue" points="934.048,-166.896 943.173,-161.514 932.683,-160.031 934.048,-166.896"/>
</g>
<!-- Node19&#45;&gt;Node4 -->
<g id="edge24" class="edge"><title>Node19&#45;&gt;Node4</title>
<path fill="none" stroke="midnightblue" d="M416.002,-136.884C406.213,-127.392 394.222,-114.078 387,-100 376.483,-79.5004 371.73,-53.1967 369.62,-35.7548"/>
<polygon fill="midnightblue" stroke="midnightblue" points="373.092,-35.3091 368.581,-25.7227 366.13,-36.03 373.092,-35.3091"/>
</g>
<!-- Node19&#45;&gt;Node6 -->
<g id="edge23" class="edge"><title>Node19&#45;&gt;Node6</title>
<path fill="none" stroke="midnightblue" d="M510.26,-137.312C555.891,-128.48 614.27,-115.711 665,-100 667.64,-99.1824 670.356,-98.2555 673.059,-97.2733"/>
<polygon fill="midnightblue" stroke="midnightblue" points="674.573,-100.44 682.638,-93.5699 672.049,-93.9112 674.573,-100.44"/>
</g>
<!-- Node19&#45;&gt;Node13 -->
<g id="edge25" class="edge"><title>Node19&#45;&gt;Node13</title>
<path fill="none" stroke="midnightblue" d="M379.499,-136.896C347.18,-127.645 305.16,-114.587 269,-100 267.404,-99.356 265.776,-98.6607 264.145,-97.9345"/>
<polygon fill="midnightblue" stroke="midnightblue" points="265.509,-94.7074 254.974,-93.5804 262.506,-101.031 265.509,-94.7074"/>
</g>
<!-- Node20 -->
<g id="node20" class="node"><title>Node20</title>
<polygon fill="none" stroke="#bfbfbf" points="396.5,-74.5 396.5,-93.5 445.5,-93.5 445.5,-74.5 396.5,-74.5"/>
<text text-anchor="middle" x="421" y="-81.5" font-family="Helvetica,sans-Serif" font-size="10.00">cassert</text>
</g>
<!-- Node19&#45;&gt;Node20 -->
<g id="edge26" class="edge"><title>Node19&#45;&gt;Node20</title>
<path fill="none" stroke="midnightblue" d="M429.613,-136.679C428.017,-127.101 425.899,-114.394 424.163,-103.977"/>
<polygon fill="midnightblue" stroke="midnightblue" points="427.568,-103.117 422.471,-93.8283 420.663,-104.268 427.568,-103.117"/>
</g>
<!-- Node21 -->
<g id="node21" class="node"><title>Node21</title>
<polygon fill="none" stroke="#bfbfbf" points="464,-74.5 464,-93.5 510,-93.5 510,-74.5 464,-74.5"/>
<text text-anchor="middle" x="487" y="-81.5" font-family="Helvetica,sans-Serif" font-size="10.00">cstdint</text>
</g>
<!-- Node19&#45;&gt;Node21 -->
<g id="edge27" class="edge"><title>Node19&#45;&gt;Node21</title>
<path fill="none" stroke="midnightblue" d="M443.934,-136.679C452.51,-126.388 464.097,-112.484 473.092,-101.69"/>
<polygon fill="midnightblue" stroke="midnightblue" points="475.93,-103.751 479.643,-93.8283 470.552,-99.2699 475.93,-103.751"/>
</g>
<!-- Node22 -->
<g id="node22" class="node"><title>Node22</title>
<polygon fill="none" stroke="#bfbfbf" points="278,-74.5 278,-93.5 340,-93.5 340,-74.5 278,-74.5"/>
<text text-anchor="middle" x="309" y="-81.5" font-family="Helvetica,sans-Serif" font-size="10.00">type_traits</text>
</g>
<!-- Node19&#45;&gt;Node22 -->
<g id="edge28" class="edge"><title>Node19&#45;&gt;Node22</title>
<path fill="none" stroke="midnightblue" d="M405.613,-136.841C384.433,-125.476 354.898,-109.628 334.073,-98.454"/>
<polygon fill="midnightblue" stroke="midnightblue" points="335.646,-95.326 325.18,-93.6819 332.337,-101.494 335.646,-95.326"/>
</g>
<!-- Node23 -->
<g id="node23" class="node"><title>Node23</title>
<g id="a_node23"><a xlink:href="../../d9/ded/Utils_8h.html" target="_top" xlink:title="General auxilliary methods. ">
<polygon fill="none" stroke="black" points="566,-74.5 566,-93.5 656,-93.5 656,-74.5 566,-74.5"/>
<text text-anchor="middle" x="611" y="-81.5" font-family="Helvetica,sans-Serif" font-size="10.00">MathUtils/Utils.h</text>
</a>
</g>
</g>
<!-- Node19&#45;&gt;Node23 -->
<g id="edge29" class="edge"><title>Node19&#45;&gt;Node23</title>
<path fill="none" stroke="midnightblue" d="M470.4,-136.841C502.426,-125.033 547.58,-108.384 578,-97.1676"/>
<polygon fill="midnightblue" stroke="midnightblue" points="579.54,-100.33 587.711,-93.5868 577.118,-93.7625 579.54,-100.33"/>
</g>
<!-- Node23&#45;&gt;Node4 -->
<g id="edge30" class="edge"><title>Node23&#45;&gt;Node4</title>
<path fill="none" stroke="midnightblue" d="M579.232,-74.3717C531.73,-61.4699 442.884,-37.3387 397.03,-24.8848"/>
<polygon fill="midnightblue" stroke="midnightblue" points="397.705,-21.4414 387.138,-22.1978 395.87,-28.1966 397.705,-21.4414"/>
</g>
<!-- Node23&#45;&gt;Node24 -->
<g id="edge31" class="edge"><title>Node23&#45;&gt;Node24</title>
<path fill="none" stroke="midnightblue" d="M636.817,-74.4636C645.655,-71.9084 655.668,-69.4127 665,-68 1200.47,13.0637 1347.34,-111.806 1883,-32 1890.54,-30.877 1898.52,-29.0725 1905.99,-27.098"/>
<polygon fill="midnightblue" stroke="midnightblue" points="1907.1,-30.4226 1915.78,-24.3484 1905.2,-23.6834 1907.1,-30.4226"/>
</g>
<!-- Node25 -->
<g id="node25" class="node"><title>Node25</title>
<g id="a_node25"><a xlink:href="../../d6/d84/MathConstants_8h.html" target="_top" xlink:title="useful math constants ">
<polygon fill="none" stroke="black" points="521.5,-6.5 521.5,-25.5 700.5,-25.5 700.5,-6.5 521.5,-6.5"/>
<text text-anchor="middle" x="611" y="-13.5" font-family="Helvetica,sans-Serif" font-size="10.00">CommonConstants/MathConstants.h</text>
</a>
</g>
</g>
<!-- Node23&#45;&gt;Node25 -->
<g id="edge32" class="edge"><title>Node23&#45;&gt;Node25</title>
<path fill="none" stroke="midnightblue" d="M611,-74.3717C611,-64.6426 611,-48.528 611,-35.8504"/>
<polygon fill="midnightblue" stroke="midnightblue" points="614.5,-35.8411 611,-25.8411 607.5,-35.8412 614.5,-35.8411"/>
</g>
<!-- Node26&#45;&gt;Node6 -->
<g id="edge39" class="edge"><title>Node26&#45;&gt;Node6</title>
<path fill="none" stroke="midnightblue" d="M942.231,-142.474C876.337,-129.566 757.272,-105.936 738,-100 735.42,-99.2052 732.77,-98.2941 730.135,-97.3222"/>
<polygon fill="midnightblue" stroke="midnightblue" points="731.392,-94.0558 720.806,-93.635 728.819,-100.566 731.392,-94.0558"/>
</g>
<!-- Node26&#45;&gt;Node8 -->
<g id="edge41" class="edge"><title>Node26&#45;&gt;Node8</title>
<path fill="none" stroke="midnightblue" d="M1023.81,-142.484C1036.24,-139.995 1050.15,-137.534 1063,-136 1414.2,-94.0714 1512.46,-175.531 1858,-100 1861.25,-99.2895 1864.58,-98.3181 1867.85,-97.2086"/>
<polygon fill="midnightblue" stroke="midnightblue" points="1869.23,-100.428 1877.32,-93.5887 1866.73,-93.8888 1869.23,-100.428"/>
</g>
<!-- Node27 -->
<g id="node27" class="node"><title>Node27</title>
<polygon fill="none" stroke="#bfbfbf" points="914.5,-69 914.5,-99 1065.5,-99 1065.5,-69 914.5,-69"/>
<text text-anchor="start" x="922.5" y="-87" font-family="Helvetica,sans-Serif" font-size="10.00">Math/GenVector/Displacement</text>
<text text-anchor="middle" x="990" y="-76" font-family="Helvetica,sans-Serif" font-size="10.00">Vector3D.h</text>
</g>
<!-- Node26&#45;&gt;Node27 -->
<g id="edge34" class="edge"><title>Node26&#45;&gt;Node27</title>
<path fill="none" stroke="midnightblue" d="M986.523,-142.372C987.032,-133.971 987.83,-120.811 988.533,-109.213"/>
<polygon fill="midnightblue" stroke="midnightblue" points="992.029,-109.375 989.141,-99.1815 985.042,-108.951 992.029,-109.375"/>
</g>
<!-- Node28 -->
<g id="node28" class="node"><title>Node28</title>
<polygon fill="none" stroke="#bfbfbf" points="1356,-74.5 1356,-93.5 1532,-93.5 1532,-74.5 1356,-74.5"/>
<text text-anchor="middle" x="1444" y="-81.5" font-family="Helvetica,sans-Serif" font-size="10.00">Math/GenVector/PositionVector3D.h</text>
</g>
<!-- Node26&#45;&gt;Node28 -->
<g id="edge35" class="edge"><title>Node26&#45;&gt;Node28</title>
<path fill="none" stroke="midnightblue" d="M1027.07,-142.476C1038.66,-140.213 1051.3,-137.879 1063,-136 1188.62,-115.825 1221.01,-117.724 1347,-100 1357.85,-98.4734 1369.37,-96.7671 1380.54,-95.0678"/>
<polygon fill="midnightblue" stroke="midnightblue" points="1381.32,-98.4899 1390.67,-93.5146 1380.26,-91.5708 1381.32,-98.4899"/>
</g>
<!-- Node29 -->
<g id="node29" class="node"><title>Node29</title>
<polygon fill="none" stroke="#bfbfbf" points="747.5,-74.5 747.5,-93.5 896.5,-93.5 896.5,-74.5 747.5,-74.5"/>
<text text-anchor="middle" x="822" y="-81.5" font-family="Helvetica,sans-Serif" font-size="10.00">Math/GenVector/Rotation3D.h</text>
</g>
<!-- Node26&#45;&gt;Node29 -->
<g id="edge36" class="edge"><title>Node26&#45;&gt;Node29</title>
<path fill="none" stroke="midnightblue" d="M964.56,-142.372C935.997,-130.877 885.286,-110.469 852.679,-97.3465"/>
<polygon fill="midnightblue" stroke="midnightblue" points="853.769,-94.0124 843.186,-93.5259 851.156,-100.506 853.769,-94.0124"/>
</g>
<!-- Node30 -->
<g id="node30" class="node"><title>Node30</title>
<polygon fill="none" stroke="#bfbfbf" points="1550,-74.5 1550,-93.5 1706,-93.5 1706,-74.5 1550,-74.5"/>
<text text-anchor="middle" x="1628" y="-81.5" font-family="Helvetica,sans-Serif" font-size="10.00">Math/GenVector/Transform3D.h</text>
</g>
<!-- Node26&#45;&gt;Node30 -->
<g id="edge37" class="edge"><title>Node26&#45;&gt;Node30</title>
<path fill="none" stroke="midnightblue" d="M1025.03,-142.478C1037.15,-140.08 1050.58,-137.672 1063,-136 1273.7,-107.625 1328.98,-125.89 1540,-100 1550.61,-98.6985 1561.89,-97.0097 1572.7,-95.2367"/>
<polygon fill="midnightblue" stroke="midnightblue" points="1573.62,-98.6323 1582.9,-93.521 1572.46,-91.7294 1573.62,-98.6323"/>
</g>
<!-- Node31 -->
<g id="node31" class="node"><title>Node31</title>
<polygon fill="none" stroke="#bfbfbf" points="1084,-74.5 1084,-93.5 1244,-93.5 1244,-74.5 1084,-74.5"/>
<text text-anchor="middle" x="1164" y="-81.5" font-family="Helvetica,sans-Serif" font-size="10.00">Math/GenVector/Translation3D.h</text>
</g>
<!-- Node26&#45;&gt;Node31 -->
<g id="edge38" class="edge"><title>Node26&#45;&gt;Node31</title>
<path fill="none" stroke="midnightblue" d="M1009.27,-142.372C1040.54,-130.778 1096.26,-110.116 1131.61,-97.0087"/>
<polygon fill="midnightblue" stroke="midnightblue" points="1132.85,-100.284 1141.01,-93.5259 1130.41,-93.7208 1132.85,-100.284"/>
</g>
<!-- Node32 -->
<g id="node32" class="node"><title>Node32</title>
<polygon fill="none" stroke="#bfbfbf" points="1262,-74.5 1262,-93.5 1338,-93.5 1338,-74.5 1262,-74.5"/>
<text text-anchor="middle" x="1300" y="-81.5" font-family="Helvetica,sans-Serif" font-size="10.00">TGeoMatrix.h</text>
</g>
<!-- Node26&#45;&gt;Node32 -->
<g id="edge40" class="edge"><title>Node26&#45;&gt;Node32</title>
<path fill="none" stroke="midnightblue" d="M1029.56,-142.473C1040.48,-140.348 1052.17,-138.082 1063,-136 1147.4,-119.783 1169.68,-121.105 1253,-100 1257.11,-98.9589 1261.39,-97.7596 1265.61,-96.5022"/>
<polygon fill="midnightblue" stroke="midnightblue" points="1266.76,-99.8101 1275.28,-93.5099 1264.7,-93.1231 1266.76,-99.8101"/>
</g>
<!-- Node33 -->
<g id="node33" class="node"><title>Node33</title>
<g id="a_node33"><a xlink:href="../../d2/dd0/Cartesian2D_8h.html" target="_top" xlink:title="MathUtils/Cartesian2D.h">
<polygon fill="none" stroke="black" points="1724.5,-74.5 1724.5,-93.5 1849.5,-93.5 1849.5,-74.5 1724.5,-74.5"/>
<text text-anchor="middle" x="1787" y="-81.5" font-family="Helvetica,sans-Serif" font-size="10.00">MathUtils/Cartesian2D.h</text>
</a>
</g>
</g>
<!-- Node26&#45;&gt;Node33 -->
<g id="edge42" class="edge"><title>Node26&#45;&gt;Node33</title>
<path fill="none" stroke="midnightblue" d="M1024.22,-142.481C1036.54,-140.023 1050.3,-137.581 1063,-136 1351,-100.169 1427.24,-137.702 1715,-100 1723.55,-98.8793 1732.61,-97.3054 1741.3,-95.5955"/>
<polygon fill="midnightblue" stroke="midnightblue" points="1742.2,-98.9844 1751.29,-93.5448 1740.79,-92.1274 1742.2,-98.9844"/>
</g>
<!-- Node34 -->
<g id="node34" class="node"><title>Node34</title>
<polygon fill="none" stroke="#bfbfbf" points="1723.5,-1 1723.5,-31 1874.5,-31 1874.5,-1 1723.5,-1"/>
<text text-anchor="start" x="1731.5" y="-19" font-family="Helvetica,sans-Serif" font-size="10.00">Math/GenVector/Displacement</text>
<text text-anchor="middle" x="1799" y="-8" font-family="Helvetica,sans-Serif" font-size="10.00">Vector2D.h</text>
</g>
<!-- Node33&#45;&gt;Node34 -->
<g id="edge43" class="edge"><title>Node33&#45;&gt;Node34</title>
<path fill="none" stroke="midnightblue" d="M1788.57,-74.3717C1790.1,-65.9715 1792.49,-52.811 1794.6,-41.2126"/>
<polygon fill="midnightblue" stroke="midnightblue" points="1798.08,-41.6463 1796.42,-31.1815 1791.19,-40.394 1798.08,-41.6463"/>
</g>
<!-- Node35 -->
<g id="node35" class="node"><title>Node35</title>
<polygon fill="none" stroke="#bfbfbf" points="1529,-6.5 1529,-25.5 1705,-25.5 1705,-6.5 1529,-6.5"/>
<text text-anchor="middle" x="1617" y="-13.5" font-family="Helvetica,sans-Serif" font-size="10.00">Math/GenVector/PositionVector2D.h</text>
</g>
<!-- Node33&#45;&gt;Node35 -->
<g id="edge44" class="edge"><title>Node33&#45;&gt;Node35</title>
<path fill="none" stroke="midnightblue" d="M1764.78,-74.3717C1735.04,-62.8274 1682.15,-42.2926 1648.37,-29.1772"/>
<polygon fill="midnightblue" stroke="midnightblue" points="1649.55,-25.8824 1638.96,-25.5259 1647.02,-32.4078 1649.55,-25.8824"/>
</g>
<!-- Node36&#45;&gt;Node6 -->
<g id="edge48" class="edge"><title>Node36&#45;&gt;Node6</title>
<path fill="none" stroke="midnightblue" d="M1181.45,-216.477C1114.61,-212.114 1003.76,-200.242 914,-168 887.745,-158.569 885.575,-147.144 860,-136 808.173,-113.416 791.281,-118.899 738,-100 735.739,-99.1979 733.413,-98.3304 731.086,-97.431"/>
<polygon fill="midnightblue" stroke="midnightblue" points="732.24,-94.123 721.657,-93.64 729.629,-100.618 732.24,-94.123"/>
</g>
<!-- Node36&#45;&gt;Node8 -->
<g id="edge50" class="edge"><title>Node36&#45;&gt;Node8</title>
<path fill="none" stroke="midnightblue" d="M1279.59,-204.923C1302.55,-195.814 1331.83,-182.895 1356,-168 1375.09,-156.237 1374.2,-144.366 1395,-136 1586.49,-58.9901 1657.1,-147.331 1858,-100 1861.07,-99.2763 1864.22,-98.3355 1867.32,-97.2778"/>
<polygon fill="midnightblue" stroke="midnightblue" points="1868.82,-100.453 1876.92,-93.623 1866.33,-93.911 1868.82,-100.453"/>
</g>
<!-- Node36&#45;&gt;Node9 -->
<g id="edge51" class="edge"><title>Node36&#45;&gt;Node9</title>
<path fill="none" stroke="midnightblue" d="M1237.75,-204.679C1235.55,-194.999 1232.62,-182.123 1230.24,-171.645"/>
<polygon fill="midnightblue" stroke="midnightblue" points="1233.64,-170.804 1228.01,-161.828 1226.81,-172.355 1233.64,-170.804"/>
</g>
<!-- Node36&#45;&gt;Node18 -->
<g id="edge53" class="edge"><title>Node36&#45;&gt;Node18</title>
<path fill="none" stroke="midnightblue" d="M1224.51,-204.679C1212.19,-193.981 1195.37,-179.377 1182.76,-168.422"/>
<polygon fill="midnightblue" stroke="midnightblue" points="1185.01,-165.743 1175.17,-161.828 1180.42,-171.028 1185.01,-165.743"/>
</g>
<!-- Node37 -->
<g id="node37" class="node"><title>Node37</title>
<polygon fill="none" stroke="#bfbfbf" points="1404,-142.5 1404,-161.5 1454,-161.5 1454,-142.5 1404,-142.5"/>
<text text-anchor="middle" x="1429" y="-149.5" font-family="Helvetica,sans-Serif" font-size="10.00">fstream</text>
</g>
<!-- Node36&#45;&gt;Node37 -->
<g id="edge49" class="edge"><title>Node36&#45;&gt;Node37</title>
<path fill="none" stroke="midnightblue" d="M1283.54,-204.911C1313.42,-194.898 1354.28,-180.977 1390,-168 1392.53,-167.08 1395.15,-166.11 1397.78,-165.126"/>
<polygon fill="midnightblue" stroke="midnightblue" points="1399.08,-168.375 1407.19,-161.554 1396.6,-161.831 1399.08,-168.375"/>
</g>
<!-- Node38 -->
<g id="node38" class="node"><title>Node38</title>
<polygon fill="none" stroke="#bfbfbf" points="1264.5,-142.5 1264.5,-161.5 1347.5,-161.5 1347.5,-142.5 1264.5,-142.5"/>
<text text-anchor="middle" x="1306" y="-149.5" font-family="Helvetica,sans-Serif" font-size="10.00">unordered_map</text>
</g>
<!-- Node36&#45;&gt;Node38 -->
<g id="edge52" class="edge"><title>Node36&#45;&gt;Node38</title>
<path fill="none" stroke="midnightblue" d="M1255.1,-204.679C1265.44,-194.184 1279.48,-179.932 1290.19,-169.052"/>
<polygon fill="midnightblue" stroke="midnightblue" points="1292.78,-171.409 1297.31,-161.828 1287.79,-166.497 1292.78,-171.409"/>
</g>
</g>
</svg>
        <g id="navigator" transform="translate(0 0)" fill="#404254">
                <rect fill="#f2f5e9" fill-opacity="0.5" stroke="#606060" stroke-width=".5" x="0" y="0" width="60" height="60"/>
                <use id="zoomplus" xlink:href="#zoomPlus" x="17" y="9" onmousedown="handleZoom(evt,'in')"/>
                <use id="zoomminus" xlink:href="#zoomMin" x="42" y="9" onmousedown="handleZoom(evt,'out')"/>
                <use id="reset" xlink:href="#resetDef" x="30" y="36" onmousedown="handleReset()"/>
                <g id="arrowUp" xlink:href="#dirArrow" transform="translate(30 24)" onmousedown="handlePan(0,-1)">
                  <use xlink:href="#rim" fill="#404040">
                        <set attributeName="fill" to="#808080" begin="arrowUp.mouseover" end="arrowUp.mouseout"/>
                  </use>
                  <path fill="none" stroke="white" stroke-width="1.5" d="M0,-3.0v7 M-2.5,-0.5L0,-3.0L2.5,-0.5"/>
                </g>
                <g id="arrowRight" xlink:href="#dirArrow" transform="rotate(90) translate(36 -43)" onmousedown="handlePan(1,0)">
                  <use xlink:href="#rim" fill="#404040">
                        <set attributeName="fill" to="#808080" begin="arrowRight.mouseover" end="arrowRight.mouseout"/>
                  </use>
                  <path fill="none" stroke="white" stroke-width="1.5" d="M0,-3.0v7 M-2.5,-0.5L0,-3.0L2.5,-0.5"/>
                </g>
                <g id="arrowDown" xlink:href="#dirArrow" transform="rotate(180) translate(-30 -48)" onmousedown="handlePan(0,1)">
                  <use xlink:href="#rim" fill="#404040">
                        <set attributeName="fill" to="#808080" begin="arrowDown.mouseover" end="arrowDown.mouseout"/>
                  </use>
                  <path fill="none" stroke="white" stroke-width="1.5" d="M0,-3.0v7 M-2.5,-0.5L0,-3.0L2.5,-0.5"/>
                </g>
                <g id="arrowLeft" xlink:href="#dirArrow" transform="rotate(270) translate(-36 17)" onmousedown="handlePan(-1,0)">
                  <use xlink:href="#rim" fill="#404040">
                        <set attributeName="fill" to="#808080" begin="arrowLeft.mouseover" end="arrowLeft.mouseout"/>
                  </use>
                  <path fill="none" stroke="white" stroke-width="1.5" d="M0,-3.0v7 M-2.5,-0.5L0,-3.0L2.5,-0.5"/>
                </g>
        </g>
        <svg viewBox="0 0 15 15" width="100%" height="30px" preserveAspectRatio="xMaxYMin meet">
         <g id="arrow_out" transform="scale(0.3 0.3)">
          <a xlink:href="BuildTopologyDictionary_8cxx__incl_org.svg" target="_base">
           <rect id="button" ry="5" rx="5" y="6" x="6" height="38" width="38"
                fill="#f2f5e9" fill-opacity="0.5" stroke="#606060" stroke-width="1.0"/>
           <path id="arrow"
             d="M 11.500037,31.436501 C 11.940474,20.09759 22.043105,11.32322 32.158766,21.979434 L 37.068811,17.246167 C 37.068811,17.246167 37.088388,32 37.088388,32 L 22.160133,31.978069 C 22.160133,31.978069 26.997745,27.140456 26.997745,27.140456 C 18.528582,18.264221 13.291696,25.230495 11.500037,31.436501 z"
             style="fill:#404040;"/>
          </a>
         </g>
        </svg>
</svg>
