<?xml version="1.0" encoding="UTF-8" standalone="no"?>
<!DOCTYPE svg PUBLIC "-//W3C//DTD SVG 1.1//EN"
 "http://www.w3.org/Graphics/SVG/1.1/DTD/svg11.dtd">
<!-- Generated by graphviz version 2.36.0 (20140111.2315)
 -->
<!-- Title: /home/travis/build/AliceO2Group/AliceO2/Detectors/TPC/simulation/src/Baseline.cxx Pages: 1 -->
<!--zoomable 478 -->
<svg id="main" version="1.1" xmlns="http://www.w3.org/2000/svg" xmlns:xlink="http://www.w3.org/1999/xlink" xml:space="preserve" onload="init(evt)">
<style type="text/css"><![CDATA[
.edge:hover path { stroke: red; }
.edge:hover polygon { stroke: red; fill: red; }
]]></style>
<script type="text/javascript"><![CDATA[
var edges = document.getElementsByTagName('g');
if (edges && edges.length) {
  for (var i=0;i<edges.length;i++) {
    if (edges[i].id.substr(0,4)=='edge') {
      edges[i].setAttribute('class','edge');
    }
  }
}
]]></script>
        <defs>
                <circle id="rim" cx="0" cy="0" r="7"/>
                <circle id="rim2" cx="0" cy="0" r="3.5"/>
                <g id="zoomPlus">
                        <use xlink:href="#rim" fill="#404040">
                                <set attributeName="fill" to="#808080" begin="zoomplus.mouseover" end="zoomplus.mouseout"/>
                        </use>
                        <path d="M-4,0h8M0,-4v8" fill="none" stroke="white" stroke-width="1.5" pointer-events="none"/>
                </g>
                <g id="zoomMin">
                        <use xlink:href="#rim" fill="#404040">
                                <set attributeName="fill" to="#808080" begin="zoomminus.mouseover" end="zoomminus.mouseout"/>
                        </use>
                        <path d="M-4,0h8" fill="none" stroke="white" stroke-width="1.5" pointer-events="none"/>
                </g>
                <g id="dirArrow">
                        <path fill="none" stroke="white" stroke-width="1.5" d="M0,-3.0v7 M-2.5,-0.5L0,-3.0L2.5,-0.5"/>
                </g>
               <g id="resetDef">
                       <use xlink:href="#rim2" fill="#404040">
                               <set attributeName="fill" to="#808080" begin="reset.mouseover" end="reset.mouseout"/>
                       </use>
               </g>
        </defs>

<script type="text/javascript">
var viewWidth = 1502;
var viewHeight = 478;
var sectionId = 'dynsection-0';
</script>
<script xlink:href="../../svgpan.js"/>
<svg id="graph" class="graph">
<g id="viewport">
<title>/home/travis/build/AliceO2Group/AliceO2/Detectors/TPC/simulation/src/Baseline.cxx</title>
<!-- Node1 -->
<g id="node1" class="node"><title>Node1</title>
<polygon fill="#bfbfbf" stroke="black" points="221.5,-417 221.5,-469 354.5,-469 354.5,-417 221.5,-417"/>
<text text-anchor="start" x="229.5" y="-457" font-family="Helvetica,sans-Serif" font-size="10.00">/home/travis/build</text>
<text text-anchor="start" x="229.5" y="-446" font-family="Helvetica,sans-Serif" font-size="10.00">/AliceO2Group/AliceO2</text>
<text text-anchor="start" x="229.5" y="-435" font-family="Helvetica,sans-Serif" font-size="10.00">/Detectors/TPC/simulation</text>
<text text-anchor="middle" x="288" y="-424" font-family="Helvetica,sans-Serif" font-size="10.00">/src/Baseline.cxx</text>
</g>
<!-- Node2 -->
<g id="node2" class="node"><title>Node2</title>
<g id="a_node2"><a xlink:href="../../dd/d94/Baseline_8h.html" target="_top" xlink:title="TPCSimulation/Baseline.h">
<polygon fill="none" stroke="black" points="163.5,-360.5 163.5,-379.5 294.5,-379.5 294.5,-360.5 163.5,-360.5"/>
<text text-anchor="middle" x="229" y="-367.5" font-family="Helvetica,sans-Serif" font-size="10.00">TPCSimulation/Baseline.h</text>
</a>
</g>
</g>
<!-- Node1&#45;&gt;Node2 -->
<g id="edge1" class="edge"><title>Node1&#45;&gt;Node2</title>
<path fill="none" stroke="midnightblue" d="M267.033,-416.768C258.984,-407.083 250.008,-396.281 242.799,-387.605"/>
<polygon fill="midnightblue" stroke="midnightblue" points="245.36,-385.211 236.277,-379.757 239.976,-389.685 245.36,-385.211"/>
</g>
<!-- Node4 -->
<g id="node4" class="node"><title>Node4</title>
<g id="a_node4"><a xlink:href="../../dd/d0b/PadSecPos_8h.html" target="_top" xlink:title="TPCBase/PadSecPos.h">
<polygon fill="none" stroke="black" points="334,-304.5 334,-323.5 456,-323.5 456,-304.5 334,-304.5"/>
<text text-anchor="middle" x="395" y="-311.5" font-family="Helvetica,sans-Serif" font-size="10.00">TPCBase/PadSecPos.h</text>
</a>
</g>
</g>
<!-- Node1&#45;&gt;Node4 -->
<g id="edge28" class="edge"><title>Node1&#45;&gt;Node4</title>
<path fill="none" stroke="midnightblue" d="M309.14,-416.909C330.539,-391.51 363.003,-352.978 381.267,-331.3"/>
<polygon fill="midnightblue" stroke="midnightblue" points="383.964,-333.531 387.731,-323.628 378.611,-329.02 383.964,-333.531"/>
</g>
<!-- Node3 -->
<g id="node3" class="node"><title>Node3</title>
<polygon fill="none" stroke="#bfbfbf" points="0,-248.5 0,-267.5 44,-267.5 44,-248.5 0,-248.5"/>
<text text-anchor="middle" x="22" y="-255.5" font-family="Helvetica,sans-Serif" font-size="10.00">Vc/Vc</text>
</g>
<!-- Node2&#45;&gt;Node3 -->
<g id="edge2" class="edge"><title>Node2&#45;&gt;Node3</title>
<path fill="none" stroke="midnightblue" d="M198.854,-360.481C173.71,-352.752 137.379,-340.112 108,-324 82.2881,-309.899 55.8335,-288.709 39.1775,-274.391"/>
<polygon fill="midnightblue" stroke="midnightblue" points="41.2481,-271.552 31.4165,-267.603 36.6399,-276.821 41.2481,-271.552"/>
</g>
<!-- Node2&#45;&gt;Node4 -->
<g id="edge3" class="edge"><title>Node2&#45;&gt;Node4</title>
<path fill="none" stroke="midnightblue" d="M255.303,-360.444C283.351,-351.32 327.944,-336.813 359.184,-326.651"/>
<polygon fill="midnightblue" stroke="midnightblue" points="360.393,-329.938 368.82,-323.516 358.228,-323.282 360.393,-329.938"/>
</g>
<!-- Node22 -->
<g id="node22" class="node"><title>Node22</title>
<g id="a_node22"><a xlink:href="../../db/dac/RandomRing_8h.html" target="_top" xlink:title="TPCBase/RandomRing.h">
<polygon fill="none" stroke="black" points="117,-304.5 117,-323.5 245,-323.5 245,-304.5 117,-304.5"/>
<text text-anchor="middle" x="181" y="-311.5" font-family="Helvetica,sans-Serif" font-size="10.00">TPCBase/RandomRing.h</text>
</a>
</g>
</g>
<!-- Node2&#45;&gt;Node22 -->
<g id="edge22" class="edge"><title>Node2&#45;&gt;Node22</title>
<path fill="none" stroke="midnightblue" d="M221.074,-360.083C214.154,-352.298 203.935,-340.801 195.548,-331.367"/>
<polygon fill="midnightblue" stroke="midnightblue" points="198.038,-328.9 188.779,-323.751 192.806,-333.55 198.038,-328.9"/>
</g>
<!-- Node5 -->
<g id="node5" class="node"><title>Node5</title>
<g id="a_node5"><a xlink:href="../../d3/dd6/Sector_8h.html" target="_top" xlink:title="TPCBase/Sector.h">
<polygon fill="none" stroke="black" points="501.5,-248.5 501.5,-267.5 600.5,-267.5 600.5,-248.5 501.5,-248.5"/>
<text text-anchor="middle" x="551" y="-255.5" font-family="Helvetica,sans-Serif" font-size="10.00">TPCBase/Sector.h</text>
</a>
</g>
</g>
<!-- Node4&#45;&gt;Node5 -->
<g id="edge4" class="edge"><title>Node4&#45;&gt;Node5</title>
<path fill="none" stroke="midnightblue" d="M419.719,-304.444C445.848,-295.399 487.259,-281.064 516.576,-270.916"/>
<polygon fill="midnightblue" stroke="midnightblue" points="518.092,-274.095 526.397,-267.516 515.802,-267.48 518.092,-274.095"/>
</g>
<!-- Node21 -->
<g id="node21" class="node"><title>Node21</title>
<g id="a_node21"><a xlink:href="../../de/d41/PadPos_8h.html" target="_top" xlink:title="TPCBase/PadPos.h">
<polygon fill="none" stroke="black" points="378.5,-248.5 378.5,-267.5 483.5,-267.5 483.5,-248.5 378.5,-248.5"/>
<text text-anchor="middle" x="431" y="-255.5" font-family="Helvetica,sans-Serif" font-size="10.00">TPCBase/PadPos.h</text>
</a>
</g>
</g>
<!-- Node4&#45;&gt;Node21 -->
<g id="edge21" class="edge"><title>Node4&#45;&gt;Node21</title>
<path fill="none" stroke="midnightblue" d="M400.945,-304.083C405.977,-296.534 413.337,-285.495 419.513,-276.23"/>
<polygon fill="midnightblue" stroke="midnightblue" points="422.531,-278.013 425.166,-267.751 416.707,-274.13 422.531,-278.013"/>
</g>
<!-- Node6 -->
<g id="node6" class="node"><title>Node6</title>
<g id="a_node6"><a xlink:href="../../d6/d51/TPC_2base_2include_2TPCBase_2Constants_8h.html" target="_top" xlink:title="TPCBase/Constants.h">
<polygon fill="none" stroke="black" points="432,-192.5 432,-211.5 548,-211.5 548,-192.5 432,-192.5"/>
<text text-anchor="middle" x="490" y="-199.5" font-family="Helvetica,sans-Serif" font-size="10.00">TPCBase/Constants.h</text>
</a>
</g>
</g>
<!-- Node5&#45;&gt;Node6 -->
<g id="edge5" class="edge"><title>Node5&#45;&gt;Node6</title>
<path fill="none" stroke="midnightblue" d="M541.199,-248.324C532.182,-240.341 518.594,-228.313 507.682,-218.653"/>
<polygon fill="midnightblue" stroke="midnightblue" points="509.787,-215.842 499.979,-211.834 505.147,-221.083 509.787,-215.842"/>
</g>
<!-- Node7 -->
<g id="node7" class="node"><title>Node7</title>
<g id="a_node7"><a xlink:href="../../d1/d73/Defs_8h.html" target="_top" xlink:title="Common definitions for 2D coordinates. ">
<polygon fill="none" stroke="black" points="566,-192.5 566,-211.5 658,-211.5 658,-192.5 566,-192.5"/>
<text text-anchor="middle" x="612" y="-199.5" font-family="Helvetica,sans-Serif" font-size="10.00">TPCBase/Defs.h</text>
</a>
</g>
</g>
<!-- Node5&#45;&gt;Node7 -->
<g id="edge6" class="edge"><title>Node5&#45;&gt;Node7</title>
<path fill="none" stroke="midnightblue" d="M560.801,-248.324C569.818,-240.341 583.406,-228.313 594.318,-218.653"/>
<polygon fill="midnightblue" stroke="midnightblue" points="596.853,-221.083 602.021,-211.834 592.213,-215.842 596.853,-221.083"/>
</g>
<!-- Node8 -->
<g id="node8" class="node"><title>Node8</title>
<polygon fill="none" stroke="#bfbfbf" points="540,-136.5 540,-155.5 584,-155.5 584,-136.5 540,-136.5"/>
<text text-anchor="middle" x="562" y="-143.5" font-family="Helvetica,sans-Serif" font-size="10.00">cmath</text>
</g>
<!-- Node7&#45;&gt;Node8 -->
<g id="edge7" class="edge"><title>Node7&#45;&gt;Node8</title>
<path fill="none" stroke="midnightblue" d="M603.744,-192.083C596.535,-184.298 585.89,-172.801 577.154,-163.367"/>
<polygon fill="midnightblue" stroke="midnightblue" points="579.465,-160.711 570.103,-155.751 574.329,-165.467 579.465,-160.711"/>
</g>
<!-- Node9 -->
<g id="node9" class="node"><title>Node9</title>
<g id="a_node9"><a xlink:href="../../d2/dd0/Cartesian2D_8h.html" target="_top" xlink:title="MathUtils/Cartesian2D.h">
<polygon fill="none" stroke="black" points="247.5,-74.5 247.5,-93.5 372.5,-93.5 372.5,-74.5 247.5,-74.5"/>
<text text-anchor="middle" x="310" y="-81.5" font-family="Helvetica,sans-Serif" font-size="10.00">MathUtils/Cartesian2D.h</text>
</a>
</g>
</g>
<!-- Node7&#45;&gt;Node9 -->
<g id="edge8" class="edge"><title>Node7&#45;&gt;Node9</title>
<path fill="none" stroke="midnightblue" d="M612.033,-192.328C611.582,-178.238 608.501,-150.491 592,-136 520.519,-73.2248 474.446,-117.836 381,-100 373.853,-98.636 366.318,-97.124 358.933,-95.6003"/>
<polygon fill="midnightblue" stroke="midnightblue" points="359.51,-92.1454 349.006,-93.528 358.08,-98.9977 359.51,-92.1454"/>
</g>
<!-- Node12 -->
<g id="node12" class="node"><title>Node12</title>
<g id="a_node12"><a xlink:href="../../dd/d76/Cartesian3D_8h.html" target="_top" xlink:title="MathUtils/Cartesian3D.h">
<polygon fill="none" stroke="black" points="854.5,-136.5 854.5,-155.5 979.5,-155.5 979.5,-136.5 854.5,-136.5"/>
<text text-anchor="middle" x="917" y="-143.5" font-family="Helvetica,sans-Serif" font-size="10.00">MathUtils/Cartesian3D.h</text>
</a>
</g>
</g>
<!-- Node7&#45;&gt;Node12 -->
<g id="edge11" class="edge"><title>Node7&#45;&gt;Node12</title>
<path fill="none" stroke="midnightblue" d="M658.323,-192.799C712.009,-183.293 800.548,-167.618 858.825,-157.3"/>
<polygon fill="midnightblue" stroke="midnightblue" points="859.744,-160.692 868.981,-155.502 858.524,-153.799 859.744,-160.692"/>
</g>
<!-- Node10 -->
<g id="node10" class="node"><title>Node10</title>
<polygon fill="none" stroke="#bfbfbf" points="143.5,-1 143.5,-31 294.5,-31 294.5,-1 143.5,-1"/>
<text text-anchor="start" x="151.5" y="-19" font-family="Helvetica,sans-Serif" font-size="10.00">Math/GenVector/Displacement</text>
<text text-anchor="middle" x="219" y="-8" font-family="Helvetica,sans-Serif" font-size="10.00">Vector2D.h</text>
</g>
<!-- Node9&#45;&gt;Node10 -->
<g id="edge9" class="edge"><title>Node9&#45;&gt;Node10</title>
<path fill="none" stroke="midnightblue" d="M298.103,-74.3717C285.221,-65.0286 264.22,-49.7966 247.093,-37.375"/>
<polygon fill="midnightblue" stroke="midnightblue" points="248.703,-34.2194 238.553,-31.1815 244.593,-39.8859 248.703,-34.2194"/>
</g>
<!-- Node11 -->
<g id="node11" class="node"><title>Node11</title>
<polygon fill="none" stroke="#bfbfbf" points="313,-6.5 313,-25.5 489,-25.5 489,-6.5 313,-6.5"/>
<text text-anchor="middle" x="401" y="-13.5" font-family="Helvetica,sans-Serif" font-size="10.00">Math/GenVector/PositionVector2D.h</text>
</g>
<!-- Node9&#45;&gt;Node11 -->
<g id="edge10" class="edge"><title>Node9&#45;&gt;Node11</title>
<path fill="none" stroke="midnightblue" d="M321.897,-74.3717C336.884,-63.5015 362.862,-44.6602 380.942,-31.5474"/>
<polygon fill="midnightblue" stroke="midnightblue" points="383.06,-34.3349 389.1,-25.6305 378.95,-28.6684 383.06,-34.3349"/>
</g>
<!-- Node12&#45;&gt;Node9 -->
<g id="edge20" class="edge"><title>Node12&#45;&gt;Node9</title>
<path fill="none" stroke="midnightblue" d="M854.404,-142.275C754.072,-137.34 551.228,-125.028 381,-100 372.847,-98.8013 364.226,-97.236 355.908,-95.5697"/>
<polygon fill="midnightblue" stroke="midnightblue" points="356.466,-92.111 345.963,-93.5048 355.043,-98.9648 356.466,-92.111"/>
</g>
<!-- Node13 -->
<g id="node13" class="node"><title>Node13</title>
<polygon fill="none" stroke="#bfbfbf" points="1343.5,-69 1343.5,-99 1494.5,-99 1494.5,-69 1343.5,-69"/>
<text text-anchor="start" x="1351.5" y="-87" font-family="Helvetica,sans-Serif" font-size="10.00">Math/GenVector/Displacement</text>
<text text-anchor="middle" x="1419" y="-76" font-family="Helvetica,sans-Serif" font-size="10.00">Vector3D.h</text>
</g>
<!-- Node12&#45;&gt;Node13 -->
<g id="edge12" class="edge"><title>Node12&#45;&gt;Node13</title>
<path fill="none" stroke="midnightblue" d="M979.686,-139.559C1059.34,-132.349 1201.3,-118.516 1333.21,-100.048"/>
<polygon fill="midnightblue" stroke="midnightblue" points="1334.09,-103.459 1343.5,-98.5951 1333.11,-96.5278 1334.09,-103.459"/>
</g>
<!-- Node14 -->
<g id="node14" class="node"><title>Node14</title>
<polygon fill="none" stroke="#bfbfbf" points="390,-74.5 390,-93.5 566,-93.5 566,-74.5 390,-74.5"/>
<text text-anchor="middle" x="478" y="-81.5" font-family="Helvetica,sans-Serif" font-size="10.00">Math/GenVector/PositionVector3D.h</text>
</g>
<!-- Node12&#45;&gt;Node14 -->
<g id="edge13" class="edge"><title>Node12&#45;&gt;Node14</title>
<path fill="none" stroke="midnightblue" d="M854.222,-137.172C785.581,-128.512 672.372,-113.933 575,-100 564.216,-98.4569 552.769,-96.7491 541.662,-95.055"/>
<polygon fill="midnightblue" stroke="midnightblue" points="542.002,-91.5663 531.587,-93.5082 540.94,-98.4852 542.002,-91.5663"/>
</g>
<!-- Node15 -->
<g id="node15" class="node"><title>Node15</title>
<polygon fill="none" stroke="#bfbfbf" points="583.5,-74.5 583.5,-93.5 732.5,-93.5 732.5,-74.5 583.5,-74.5"/>
<text text-anchor="middle" x="658" y="-81.5" font-family="Helvetica,sans-Serif" font-size="10.00">Math/GenVector/Rotation3D.h</text>
</g>
<!-- Node12&#45;&gt;Node15 -->
<g id="edge14" class="edge"><title>Node12&#45;&gt;Node15</title>
<path fill="none" stroke="midnightblue" d="M880.167,-136.467C834.045,-125.783 754.99,-107.469 704.676,-95.8129"/>
<polygon fill="midnightblue" stroke="midnightblue" points="705.238,-92.3506 694.706,-93.5034 703.658,-99.17 705.238,-92.3506"/>
</g>
<!-- Node16 -->
<g id="node16" class="node"><title>Node16</title>
<polygon fill="none" stroke="#bfbfbf" points="751,-74.5 751,-93.5 907,-93.5 907,-74.5 751,-74.5"/>
<text text-anchor="middle" x="829" y="-81.5" font-family="Helvetica,sans-Serif" font-size="10.00">Math/GenVector/Transform3D.h</text>
</g>
<!-- Node12&#45;&gt;Node16 -->
<g id="edge15" class="edge"><title>Node12&#45;&gt;Node16</title>
<path fill="none" stroke="midnightblue" d="M904.392,-136.403C890.277,-126.78 867.169,-111.024 850.251,-99.4891"/>
<polygon fill="midnightblue" stroke="midnightblue" points="851.819,-96.3222 841.585,-93.5806 847.875,-102.106 851.819,-96.3222"/>
</g>
<!-- Node17 -->
<g id="node17" class="node"><title>Node17</title>
<polygon fill="none" stroke="#bfbfbf" points="925,-74.5 925,-93.5 1085,-93.5 1085,-74.5 925,-74.5"/>
<text text-anchor="middle" x="1005" y="-81.5" font-family="Helvetica,sans-Serif" font-size="10.00">Math/GenVector/Translation3D.h</text>
</g>
<!-- Node12&#45;&gt;Node17 -->
<g id="edge16" class="edge"><title>Node12&#45;&gt;Node17</title>
<path fill="none" stroke="midnightblue" d="M929.608,-136.403C943.723,-126.78 966.831,-111.024 983.749,-99.4891"/>
<polygon fill="midnightblue" stroke="midnightblue" points="986.125,-102.106 992.415,-93.5806 982.181,-96.3222 986.125,-102.106"/>
</g>
<!-- Node18 -->
<g id="node18" class="node"><title>Node18</title>
<polygon fill="none" stroke="#bfbfbf" points="1103,-74.5 1103,-93.5 1159,-93.5 1159,-74.5 1103,-74.5"/>
<text text-anchor="middle" x="1131" y="-81.5" font-family="Helvetica,sans-Serif" font-size="10.00">Rtypes.h</text>
</g>
<!-- Node12&#45;&gt;Node18 -->
<g id="edge17" class="edge"><title>Node12&#45;&gt;Node18</title>
<path fill="none" stroke="midnightblue" d="M957.163,-136.432C993.332,-128.33 1047.76,-115.174 1094,-100 1096.57,-99.1579 1099.21,-98.2246 1101.84,-97.2473"/>
<polygon fill="midnightblue" stroke="midnightblue" points="1103.16,-100.489 1111.21,-93.6003 1100.63,-93.9661 1103.16,-100.489"/>
</g>
<!-- Node19 -->
<g id="node19" class="node"><title>Node19</title>
<polygon fill="none" stroke="#bfbfbf" points="1177,-74.5 1177,-93.5 1253,-93.5 1253,-74.5 1177,-74.5"/>
<text text-anchor="middle" x="1215" y="-81.5" font-family="Helvetica,sans-Serif" font-size="10.00">TGeoMatrix.h</text>
</g>
<!-- Node12&#45;&gt;Node19 -->
<g id="edge18" class="edge"><title>Node12&#45;&gt;Node19</title>
<path fill="none" stroke="midnightblue" d="M976.284,-136.465C1027.22,-128.624 1102.43,-115.834 1167,-100 1171.2,-98.9707 1175.57,-97.7786 1179.88,-96.5252"/>
<polygon fill="midnightblue" stroke="midnightblue" points="1181.2,-99.7836 1189.76,-93.5369 1179.17,-93.0837 1181.2,-99.7836"/>
</g>
<!-- Node20 -->
<g id="node20" class="node"><title>Node20</title>
<polygon fill="none" stroke="#bfbfbf" points="1271,-74.5 1271,-93.5 1325,-93.5 1325,-74.5 1271,-74.5"/>
<text text-anchor="middle" x="1298" y="-81.5" font-family="Helvetica,sans-Serif" font-size="10.00">iostream</text>
</g>
<!-- Node12&#45;&gt;Node20 -->
<g id="edge19" class="edge"><title>Node12&#45;&gt;Node20</title>
<path fill="none" stroke="midnightblue" d="M979.665,-141.821C1049.55,-137.131 1165.45,-125.917 1262,-100 1264.82,-99.243 1267.71,-98.3154 1270.57,-97.2961"/>
<polygon fill="midnightblue" stroke="midnightblue" points="1271.98,-100.502 1280.01,-93.5923 1269.43,-93.9855 1271.98,-100.502"/>
</g>
<!-- Node22&#45;&gt;Node3 -->
<g id="edge24" class="edge"><title>Node22&#45;&gt;Node3</title>
<path fill="none" stroke="midnightblue" d="M155.806,-304.444C128.113,-295.038 83.5807,-279.914 53.5768,-269.724"/>
<polygon fill="midnightblue" stroke="midnightblue" points="54.5983,-266.375 44.0039,-266.473 52.3471,-273.003 54.5983,-266.375"/>
</g>
<!-- Node23 -->
<g id="node23" class="node"><title>Node23</title>
<polygon fill="none" stroke="#bfbfbf" points="270,-248.5 270,-267.5 360,-267.5 360,-248.5 270,-248.5"/>
<text text-anchor="middle" x="315" y="-255.5" font-family="Helvetica,sans-Serif" font-size="10.00">boost/format.hpp</text>
</g>
<!-- Node22&#45;&gt;Node23 -->
<g id="edge23" class="edge"><title>Node22&#45;&gt;Node23</title>
<path fill="none" stroke="midnightblue" d="M202.233,-304.444C224.384,-295.517 259.319,-281.439 284.436,-271.317"/>
<polygon fill="midnightblue" stroke="midnightblue" points="285.9,-274.501 293.867,-267.516 283.283,-268.008 285.9,-274.501"/>
</g>
<!-- Node24 -->
<g id="node24" class="node"><title>Node24</title>
<polygon fill="none" stroke="#bfbfbf" points="62,-248.5 62,-267.5 106,-267.5 106,-248.5 62,-248.5"/>
<text text-anchor="middle" x="84" y="-255.5" font-family="Helvetica,sans-Serif" font-size="10.00">vector</text>
</g>
<!-- Node22&#45;&gt;Node24 -->
<g id="edge25" class="edge"><title>Node22&#45;&gt;Node24</title>
<path fill="none" stroke="midnightblue" d="M165.415,-304.324C150.001,-295.743 126.188,-282.486 108.29,-272.522"/>
<polygon fill="midnightblue" stroke="midnightblue" points="109.986,-269.461 99.5461,-267.655 106.581,-275.577 109.986,-269.461"/>
</g>
<!-- Node25 -->
<g id="node25" class="node"><title>Node25</title>
<polygon fill="none" stroke="#bfbfbf" points="124,-248.5 124,-267.5 166,-267.5 166,-248.5 124,-248.5"/>
<text text-anchor="middle" x="145" y="-255.5" font-family="Helvetica,sans-Serif" font-size="10.00">TF1.h</text>
</g>
<!-- Node22&#45;&gt;Node25 -->
<g id="edge26" class="edge"><title>Node22&#45;&gt;Node25</title>
<path fill="none" stroke="midnightblue" d="M175.055,-304.083C170.023,-296.534 162.663,-285.495 156.487,-276.23"/>
<polygon fill="midnightblue" stroke="midnightblue" points="159.293,-274.13 150.834,-267.751 153.469,-278.013 159.293,-274.13"/>
</g>
<!-- Node26 -->
<g id="node26" class="node"><title>Node26</title>
<polygon fill="none" stroke="#bfbfbf" points="184,-248.5 184,-267.5 252,-267.5 252,-248.5 184,-248.5"/>
<text text-anchor="middle" x="218" y="-255.5" font-family="Helvetica,sans-Serif" font-size="10.00">TRandom.h</text>
</g>
<!-- Node22&#45;&gt;Node26 -->
<g id="edge27" class="edge"><title>Node22&#45;&gt;Node26</title>
<path fill="none" stroke="midnightblue" d="M187.11,-304.083C192.282,-296.534 199.846,-285.495 206.194,-276.23"/>
<polygon fill="midnightblue" stroke="midnightblue" points="209.239,-277.979 212.004,-267.751 203.464,-274.022 209.239,-277.979"/>
</g>
</g>
</svg>
        <g id="navigator" transform="translate(0 0)" fill="#404254">
                <rect fill="#f2f5e9" fill-opacity="0.5" stroke="#606060" stroke-width=".5" x="0" y="0" width="60" height="60"/>
                <use id="zoomplus" xlink:href="#zoomPlus" x="17" y="9" onmousedown="handleZoom(evt,'in')"/>
                <use id="zoomminus" xlink:href="#zoomMin" x="42" y="9" onmousedown="handleZoom(evt,'out')"/>
                <use id="reset" xlink:href="#resetDef" x="30" y="36" onmousedown="handleReset()"/>
                <g id="arrowUp" xlink:href="#dirArrow" transform="translate(30 24)" onmousedown="handlePan(0,-1)">
                  <use xlink:href="#rim" fill="#404040">
                        <set attributeName="fill" to="#808080" begin="arrowUp.mouseover" end="arrowUp.mouseout"/>
                  </use>
                  <path fill="none" stroke="white" stroke-width="1.5" d="M0,-3.0v7 M-2.5,-0.5L0,-3.0L2.5,-0.5"/>
                </g>
                <g id="arrowRight" xlink:href="#dirArrow" transform="rotate(90) translate(36 -43)" onmousedown="handlePan(1,0)">
                  <use xlink:href="#rim" fill="#404040">
                        <set attributeName="fill" to="#808080" begin="arrowRight.mouseover" end="arrowRight.mouseout"/>
                  </use>
                  <path fill="none" stroke="white" stroke-width="1.5" d="M0,-3.0v7 M-2.5,-0.5L0,-3.0L2.5,-0.5"/>
                </g>
                <g id="arrowDown" xlink:href="#dirArrow" transform="rotate(180) translate(-30 -48)" onmousedown="handlePan(0,1)">
                  <use xlink:href="#rim" fill="#404040">
                        <set attributeName="fill" to="#808080" begin="arrowDown.mouseover" end="arrowDown.mouseout"/>
                  </use>
                  <path fill="none" stroke="white" stroke-width="1.5" d="M0,-3.0v7 M-2.5,-0.5L0,-3.0L2.5,-0.5"/>
                </g>
                <g id="arrowLeft" xlink:href="#dirArrow" transform="rotate(270) translate(-36 17)" onmousedown="handlePan(-1,0)">
                  <use xlink:href="#rim" fill="#404040">
                        <set attributeName="fill" to="#808080" begin="arrowLeft.mouseover" end="arrowLeft.mouseout"/>
                  </use>
                  <path fill="none" stroke="white" stroke-width="1.5" d="M0,-3.0v7 M-2.5,-0.5L0,-3.0L2.5,-0.5"/>
                </g>
        </g>
        <svg viewBox="0 0 15 15" width="100%" height="30px" preserveAspectRatio="xMaxYMin meet">
         <g id="arrow_out" transform="scale(0.3 0.3)">
          <a xlink:href="Baseline_8cxx__incl_org.svg" target="_base">
           <rect id="button" ry="5" rx="5" y="6" x="6" height="38" width="38"
                fill="#f2f5e9" fill-opacity="0.5" stroke="#606060" stroke-width="1.0"/>
           <path id="arrow"
             d="M 11.500037,31.436501 C 11.940474,20.09759 22.043105,11.32322 32.158766,21.979434 L 37.068811,17.246167 C 37.068811,17.246167 37.088388,32 37.088388,32 L 22.160133,31.978069 C 22.160133,31.978069 26.997745,27.140456 26.997745,27.140456 C 18.528582,18.264221 13.291696,25.230495 11.500037,31.436501 z"
             style="fill:#404040;"/>
          </a>
         </g>
        </svg>
</svg>
