<?xml version="1.0" encoding="UTF-8" standalone="no"?>
<!DOCTYPE svg PUBLIC "-//W3C//DTD SVG 1.1//EN"
 "http://www.w3.org/Graphics/SVG/1.1/DTD/svg11.dtd">
<!-- Generated by graphviz version 2.36.0 (20140111.2315)
 -->
<!-- Title: /home/travis/build/AliceO2Group/AliceO2/Framework/Core/include/Framework/DataRefUtils.h Pages: 1 -->
<!--zoomable 174 -->
<svg id="main" version="1.1" xmlns="http://www.w3.org/2000/svg" xmlns:xlink="http://www.w3.org/1999/xlink" xml:space="preserve" onload="init(evt)">
<style type="text/css"><![CDATA[
.edge:hover path { stroke: red; }
.edge:hover polygon { stroke: red; fill: red; }
]]></style>
<script type="text/javascript"><![CDATA[
var edges = document.getElementsByTagName('g');
if (edges && edges.length) {
  for (var i=0;i<edges.length;i++) {
    if (edges[i].id.substr(0,4)=='edge') {
      edges[i].setAttribute('class','edge');
    }
  }
}
]]></script>
        <defs>
                <circle id="rim" cx="0" cy="0" r="7"/>
                <circle id="rim2" cx="0" cy="0" r="3.5"/>
                <g id="zoomPlus">
                        <use xlink:href="#rim" fill="#404040">
                                <set attributeName="fill" to="#808080" begin="zoomplus.mouseover" end="zoomplus.mouseout"/>
                        </use>
                        <path d="M-4,0h8M0,-4v8" fill="none" stroke="white" stroke-width="1.5" pointer-events="none"/>
                </g>
                <g id="zoomMin">
                        <use xlink:href="#rim" fill="#404040">
                                <set attributeName="fill" to="#808080" begin="zoomminus.mouseover" end="zoomminus.mouseout"/>
                        </use>
                        <path d="M-4,0h8" fill="none" stroke="white" stroke-width="1.5" pointer-events="none"/>
                </g>
                <g id="dirArrow">
                        <path fill="none" stroke="white" stroke-width="1.5" d="M0,-3.0v7 M-2.5,-0.5L0,-3.0L2.5,-0.5"/>
                </g>
               <g id="resetDef">
                       <use xlink:href="#rim2" fill="#404040">
                               <set attributeName="fill" to="#808080" begin="reset.mouseover" end="reset.mouseout"/>
                       </use>
               </g>
        </defs>

<script type="text/javascript">
var viewWidth = 1228;
var viewHeight = 174;
var sectionId = 'dynsection-0';
</script>
<script xlink:href="../../svgpan.js"/>
<svg id="graph" class="graph">
<g id="viewport">
<title>/home/travis/build/AliceO2Group/AliceO2/Framework/Core/include/Framework/DataRefUtils.h</title>
<!-- Node1 -->
<g id="node1" class="node"><title>Node1</title>
<polygon fill="#bfbfbf" stroke="black" points="856.5,-113 856.5,-165 993.5,-165 993.5,-113 856.5,-113"/>
<text text-anchor="start" x="864.5" y="-153" font-family="Helvetica,sans-Serif" font-size="10.00">/home/travis/build</text>
<text text-anchor="start" x="864.5" y="-142" font-family="Helvetica,sans-Serif" font-size="10.00">/AliceO2Group/AliceO2</text>
<text text-anchor="start" x="864.5" y="-131" font-family="Helvetica,sans-Serif" font-size="10.00">/Framework/Core/include</text>
<text text-anchor="middle" x="925" y="-120" font-family="Helvetica,sans-Serif" font-size="10.00">/Framework/DataRefUtils.h</text>
</g>
<!-- Node2 -->
<g id="node2" class="node"><title>Node2</title>
<g id="a_node2"><a xlink:href="../../d5/dfb/DataRef_8h.html" target="_top" xlink:title="Framework/DataRef.h">
<polygon fill="none" stroke="black" points="34.5,-56.5 34.5,-75.5 147.5,-75.5 147.5,-56.5 34.5,-56.5"/>
<text text-anchor="middle" x="91" y="-63.5" font-family="Helvetica,sans-Serif" font-size="10.00">Framework/DataRef.h</text>
</a>
</g>
</g>
<!-- Node1&#45;&gt;Node2 -->
<g id="edge1" class="edge"><title>Node1&#45;&gt;Node2</title>
<path fill="none" stroke="midnightblue" d="M856.463,-133.793C723.649,-125.354 421.76,-104.767 157.858,-76.1524"/>
<polygon fill="midnightblue" stroke="midnightblue" points="158.017,-72.6491 147.697,-75.0446 157.258,-79.6079 158.017,-72.6491"/>
</g>
<!-- Node3 -->
<g id="node3" class="node"><title>Node3</title>
<g id="a_node3"><a xlink:href="../../dc/dcd/DataHeader_8h.html" target="_top" xlink:title="Headers/DataHeader.h">
<polygon fill="none" stroke="black" points="165.5,-56.5 165.5,-75.5 282.5,-75.5 282.5,-56.5 165.5,-56.5"/>
<text text-anchor="middle" x="224" y="-63.5" font-family="Helvetica,sans-Serif" font-size="10.00">Headers/DataHeader.h</text>
</a>
</g>
</g>
<!-- Node1&#45;&gt;Node3 -->
<g id="edge2" class="edge"><title>Node1&#45;&gt;Node3</title>
<path fill="none" stroke="midnightblue" d="M856.188,-131.03C722.043,-117.444 426.986,-87.5592 292.828,-73.9711"/>
<polygon fill="midnightblue" stroke="midnightblue" points="292.977,-70.4685 282.676,-72.9429 292.272,-77.4328 292.977,-70.4685"/>
</g>
<!-- Node9 -->
<g id="node9" class="node"><title>Node9</title>
<g id="a_node9"><a xlink:href="../../d8/d3c/TMessageSerializer_8h.html" target="_top" xlink:title="Framework/TMessageSerializer.h">
<polygon fill="none" stroke="black" points="592.5,-56.5 592.5,-75.5 755.5,-75.5 755.5,-56.5 592.5,-56.5"/>
<text text-anchor="middle" x="674" y="-63.5" font-family="Helvetica,sans-Serif" font-size="10.00">Framework/TMessageSerializer.h</text>
</a>
</g>
</g>
<!-- Node1&#45;&gt;Node9 -->
<g id="edge8" class="edge"><title>Node1&#45;&gt;Node9</title>
<path fill="none" stroke="midnightblue" d="M856.413,-118.599C810.711,-105.671 752.234,-89.1298 713.978,-78.3084"/>
<polygon fill="midnightblue" stroke="midnightblue" points="714.805,-74.9051 704.23,-75.551 712.899,-81.6408 714.805,-74.9051"/>
</g>
<!-- Node18 -->
<g id="node18" class="node"><title>Node18</title>
<g id="a_node18"><a xlink:href="../../d0/d95/TypeTraits_8h.html" target="_top" xlink:title="Framework/TypeTraits.h">
<polygon fill="none" stroke="black" points="773.5,-56.5 773.5,-75.5 896.5,-75.5 896.5,-56.5 773.5,-56.5"/>
<text text-anchor="middle" x="835" y="-63.5" font-family="Helvetica,sans-Serif" font-size="10.00">Framework/TypeTraits.h</text>
</a>
</g>
</g>
<!-- Node1&#45;&gt;Node18 -->
<g id="edge18" class="edge"><title>Node1&#45;&gt;Node18</title>
<path fill="none" stroke="midnightblue" d="M893.269,-112.968C880.203,-102.66 865.497,-91.0589 854.128,-82.09"/>
<polygon fill="midnightblue" stroke="midnightblue" points="856.186,-79.2553 846.167,-75.8095 851.85,-84.7511 856.186,-79.2553"/>
</g>
<!-- Node19 -->
<g id="node19" class="node"><title>Node19</title>
<polygon fill="none" stroke="#bfbfbf" points="1046,-0.5 1046,-19.5 1108,-19.5 1108,-0.5 1046,-0.5"/>
<text text-anchor="middle" x="1077" y="-7.5" font-family="Helvetica,sans-Serif" font-size="10.00">type_traits</text>
</g>
<!-- Node1&#45;&gt;Node19 -->
<g id="edge23" class="edge"><title>Node1&#45;&gt;Node19</title>
<path fill="none" stroke="midnightblue" d="M924.659,-112.848C925.746,-94.9257 930.068,-71.3781 944,-56 956.55,-42.1478 1001.79,-28.7428 1036.06,-20.2204"/>
<polygon fill="midnightblue" stroke="midnightblue" points="1036.95,-23.6055 1045.84,-17.8436 1035.3,-16.8033 1036.95,-23.6055"/>
</g>
<!-- Node20 -->
<g id="node20" class="node"><title>Node20</title>
<polygon fill="none" stroke="#bfbfbf" points="953,-56.5 953,-75.5 1009,-75.5 1009,-56.5 953,-56.5"/>
<text text-anchor="middle" x="981" y="-63.5" font-family="Helvetica,sans-Serif" font-size="10.00">TClass.h</text>
</g>
<!-- Node1&#45;&gt;Node20 -->
<g id="edge20" class="edge"><title>Node1&#45;&gt;Node20</title>
<path fill="none" stroke="midnightblue" d="M944.901,-112.768C952.461,-103.183 960.882,-92.5062 967.689,-83.8768"/>
<polygon fill="midnightblue" stroke="midnightblue" points="970.648,-85.7763 974.093,-75.7572 965.152,-81.4413 970.648,-85.7763"/>
</g>
<!-- Node21 -->
<g id="node21" class="node"><title>Node21</title>
<polygon fill="none" stroke="#bfbfbf" points="1027.5,-56.5 1027.5,-75.5 1086.5,-75.5 1086.5,-56.5 1027.5,-56.5"/>
<text text-anchor="middle" x="1057" y="-63.5" font-family="Helvetica,sans-Serif" font-size="10.00">stdexcept</text>
</g>
<!-- Node1&#45;&gt;Node21 -->
<g id="edge21" class="edge"><title>Node1&#45;&gt;Node21</title>
<path fill="none" stroke="midnightblue" d="M971.538,-112.968C991.766,-102.088 1014.67,-89.7673 1031.67,-80.6218"/>
<polygon fill="midnightblue" stroke="midnightblue" points="1033.79,-83.4584 1040.94,-75.6389 1030.47,-77.2936 1033.79,-83.4584"/>
</g>
<!-- Node22 -->
<g id="node22" class="node"><title>Node22</title>
<polygon fill="none" stroke="#bfbfbf" points="1105,-56.5 1105,-75.5 1157,-75.5 1157,-56.5 1105,-56.5"/>
<text text-anchor="middle" x="1131" y="-63.5" font-family="Helvetica,sans-Serif" font-size="10.00">sstream</text>
</g>
<!-- Node1&#45;&gt;Node22 -->
<g id="edge22" class="edge"><title>Node1&#45;&gt;Node22</title>
<path fill="none" stroke="midnightblue" d="M993.595,-114.358C1028.1,-102.466 1068.42,-88.5682 1096.42,-78.9169"/>
<polygon fill="midnightblue" stroke="midnightblue" points="1097.84,-82.1323 1106.15,-75.5648 1095.56,-75.5144 1097.84,-82.1323"/>
</g>
<!-- Node23 -->
<g id="node23" class="node"><title>Node23</title>
<polygon fill="none" stroke="#bfbfbf" points="1175.5,-56.5 1175.5,-75.5 1220.5,-75.5 1220.5,-56.5 1175.5,-56.5"/>
<text text-anchor="middle" x="1198" y="-63.5" font-family="Helvetica,sans-Serif" font-size="10.00">gsl/gsl</text>
</g>
<!-- Node1&#45;&gt;Node23 -->
<g id="edge24" class="edge"><title>Node1&#45;&gt;Node23</title>
<path fill="none" stroke="midnightblue" d="M993.668,-120.769C1039.59,-109.145 1101.6,-93.254 1165.45,-76.1049"/>
<polygon fill="midnightblue" stroke="midnightblue" points="1166.55,-79.4339 1175.29,-73.4543 1164.73,-72.6746 1166.55,-79.4339"/>
</g>
<!-- Node4 -->
<g id="node4" class="node"><title>Node4</title>
<polygon fill="none" stroke="#bfbfbf" points="0,-0.5 0,-19.5 46,-19.5 46,-0.5 0,-0.5"/>
<text text-anchor="middle" x="23" y="-7.5" font-family="Helvetica,sans-Serif" font-size="10.00">cstdint</text>
</g>
<!-- Node3&#45;&gt;Node4 -->
<g id="edge3" class="edge"><title>Node3&#45;&gt;Node4</title>
<path fill="none" stroke="midnightblue" d="M191.25,-56.424C159.173,-47.9926 108.655,-34.6295 55.9284,-20.2277"/>
<polygon fill="midnightblue" stroke="midnightblue" points="56.6306,-16.7912 46.0614,-17.5274 54.7828,-23.5429 56.6306,-16.7912"/>
</g>
<!-- Node5 -->
<g id="node5" class="node"><title>Node5</title>
<polygon fill="none" stroke="#bfbfbf" points="270,-0.5 270,-19.5 322,-19.5 322,-0.5 270,-0.5"/>
<text text-anchor="middle" x="296" y="-7.5" font-family="Helvetica,sans-Serif" font-size="10.00">memory</text>
</g>
<!-- Node3&#45;&gt;Node5 -->
<g id="edge4" class="edge"><title>Node3&#45;&gt;Node5</title>
<path fill="none" stroke="midnightblue" d="M235.568,-56.324C246.42,-48.1849 262.881,-35.8395 275.883,-26.0874"/>
<polygon fill="midnightblue" stroke="midnightblue" points="278.321,-28.6339 284.221,-19.8339 274.121,-23.0339 278.321,-28.6339"/>
</g>
<!-- Node6 -->
<g id="node6" class="node"><title>Node6</title>
<polygon fill="none" stroke="#bfbfbf" points="64.5,-0.5 64.5,-19.5 113.5,-19.5 113.5,-0.5 64.5,-0.5"/>
<text text-anchor="middle" x="89" y="-7.5" font-family="Helvetica,sans-Serif" font-size="10.00">cassert</text>
</g>
<!-- Node3&#45;&gt;Node6 -->
<g id="edge5" class="edge"><title>Node3&#45;&gt;Node6</title>
<path fill="none" stroke="midnightblue" d="M202.609,-56.4435C180.293,-47.5171 145.097,-33.4387 119.792,-23.3168"/>
<polygon fill="midnightblue" stroke="midnightblue" points="120.876,-19.9807 110.291,-19.5164 118.276,-26.4801 120.876,-19.9807"/>
</g>
<!-- Node7 -->
<g id="node7" class="node"><title>Node7</title>
<polygon fill="none" stroke="#bfbfbf" points="132,-0.5 132,-19.5 178,-19.5 178,-0.5 132,-0.5"/>
<text text-anchor="middle" x="155" y="-7.5" font-family="Helvetica,sans-Serif" font-size="10.00">cstring</text>
</g>
<!-- Node3&#45;&gt;Node7 -->
<g id="edge6" class="edge"><title>Node3&#45;&gt;Node7</title>
<path fill="none" stroke="midnightblue" d="M212.914,-56.324C202.514,-48.1849 186.739,-35.8395 174.278,-26.0874"/>
<polygon fill="midnightblue" stroke="midnightblue" points="176.32,-23.2407 166.288,-19.8339 172.006,-28.7533 176.32,-23.2407"/>
</g>
<!-- Node8 -->
<g id="node8" class="node"><title>Node8</title>
<polygon fill="none" stroke="#bfbfbf" points="196,-0.5 196,-19.5 252,-19.5 252,-0.5 196,-0.5"/>
<text text-anchor="middle" x="224" y="-7.5" font-family="Helvetica,sans-Serif" font-size="10.00">algorithm</text>
</g>
<!-- Node3&#45;&gt;Node8 -->
<g id="edge7" class="edge"><title>Node3&#45;&gt;Node8</title>
<path fill="none" stroke="midnightblue" d="M224,-56.083C224,-49.0059 224,-38.8611 224,-29.9865"/>
<polygon fill="midnightblue" stroke="midnightblue" points="227.5,-29.751 224,-19.7511 220.5,-29.7511 227.5,-29.751"/>
</g>
<!-- Node9&#45;&gt;Node5 -->
<g id="edge16" class="edge"><title>Node9&#45;&gt;Node5</title>
<path fill="none" stroke="midnightblue" d="M592.469,-57.1175C525.075,-49.9545 426.742,-38.0166 332.306,-20.0558"/>
<polygon fill="midnightblue" stroke="midnightblue" points="332.777,-16.5823 322.296,-18.1262 331.452,-23.4558 332.777,-16.5823"/>
</g>
<!-- Node10 -->
<g id="node10" class="node"><title>Node10</title>
<polygon fill="none" stroke="#bfbfbf" points="340.5,-0.5 340.5,-19.5 467.5,-19.5 467.5,-0.5 340.5,-0.5"/>
<text text-anchor="middle" x="404" y="-7.5" font-family="Helvetica,sans-Serif" font-size="10.00">fairmq/FairMQMessage.h</text>
</g>
<!-- Node9&#45;&gt;Node10 -->
<g id="edge9" class="edge"><title>Node9&#45;&gt;Node10</title>
<path fill="none" stroke="midnightblue" d="M631.218,-56.4435C583.821,-46.9641 507.374,-31.6747 456.417,-21.4835"/>
<polygon fill="midnightblue" stroke="midnightblue" points="457.074,-18.0456 446.582,-19.5164 455.702,-24.9097 457.074,-18.0456"/>
</g>
<!-- Node11 -->
<g id="node11" class="node"><title>Node11</title>
<polygon fill="none" stroke="#bfbfbf" points="485.5,-0.5 485.5,-19.5 532.5,-19.5 532.5,-0.5 485.5,-0.5"/>
<text text-anchor="middle" x="509" y="-7.5" font-family="Helvetica,sans-Serif" font-size="10.00">TList.h</text>
</g>
<!-- Node9&#45;&gt;Node11 -->
<g id="edge10" class="edge"><title>Node9&#45;&gt;Node11</title>
<path fill="none" stroke="midnightblue" d="M647.855,-56.4435C619.239,-47.0781 573.293,-32.0415 542.163,-21.8532"/>
<polygon fill="midnightblue" stroke="midnightblue" points="543.209,-18.5131 532.616,-18.729 541.032,-25.1659 543.209,-18.5131"/>
</g>
<!-- Node12 -->
<g id="node12" class="node"><title>Node12</title>
<polygon fill="none" stroke="#bfbfbf" points="550.5,-0.5 550.5,-19.5 621.5,-19.5 621.5,-0.5 550.5,-0.5"/>
<text text-anchor="middle" x="586" y="-7.5" font-family="Helvetica,sans-Serif" font-size="10.00">TMessage.h</text>
</g>
<!-- Node9&#45;&gt;Node12 -->
<g id="edge11" class="edge"><title>Node9&#45;&gt;Node12</title>
<path fill="none" stroke="midnightblue" d="M659.861,-56.324C646.134,-47.9002 625.064,-34.9709 608.936,-25.0741"/>
<polygon fill="midnightblue" stroke="midnightblue" points="610.457,-21.9016 600.104,-19.6545 606.796,-27.8678 610.457,-21.9016"/>
</g>
<!-- Node13 -->
<g id="node13" class="node"><title>Node13</title>
<polygon fill="none" stroke="#bfbfbf" points="639.5,-0.5 639.5,-19.5 708.5,-19.5 708.5,-0.5 639.5,-0.5"/>
<text text-anchor="middle" x="674" y="-7.5" font-family="Helvetica,sans-Serif" font-size="10.00">TObjArray.h</text>
</g>
<!-- Node9&#45;&gt;Node13 -->
<g id="edge12" class="edge"><title>Node9&#45;&gt;Node13</title>
<path fill="none" stroke="midnightblue" d="M674,-56.083C674,-49.0059 674,-38.8611 674,-29.9865"/>
<polygon fill="midnightblue" stroke="midnightblue" points="677.5,-29.751 674,-19.7511 670.5,-29.7511 677.5,-29.751"/>
</g>
<!-- Node14 -->
<g id="node14" class="node"><title>Node14</title>
<polygon fill="none" stroke="#bfbfbf" points="726.5,-0.5 726.5,-19.5 813.5,-19.5 813.5,-0.5 726.5,-0.5"/>
<text text-anchor="middle" x="770" y="-7.5" font-family="Helvetica,sans-Serif" font-size="10.00">TStreamerInfo.h</text>
</g>
<!-- Node9&#45;&gt;Node14 -->
<g id="edge13" class="edge"><title>Node9&#45;&gt;Node14</title>
<path fill="none" stroke="midnightblue" d="M689.424,-56.324C704.54,-47.8215 727.815,-34.7288 745.471,-24.7975"/>
<polygon fill="midnightblue" stroke="midnightblue" points="747.614,-27.6077 754.614,-19.6545 744.183,-21.5066 747.614,-27.6077"/>
</g>
<!-- Node15 -->
<g id="node15" class="node"><title>Node15</title>
<polygon fill="none" stroke="#bfbfbf" points="831.5,-0.5 831.5,-19.5 894.5,-19.5 894.5,-0.5 831.5,-0.5"/>
<text text-anchor="middle" x="863" y="-7.5" font-family="Helvetica,sans-Serif" font-size="10.00">gsl/gsl_util</text>
</g>
<!-- Node9&#45;&gt;Node15 -->
<g id="edge14" class="edge"><title>Node9&#45;&gt;Node15</title>
<path fill="none" stroke="midnightblue" d="M703.948,-56.4435C736.158,-47.2406 787.534,-32.5617 823.142,-22.3879"/>
<polygon fill="midnightblue" stroke="midnightblue" points="824.539,-25.629 833.192,-19.5164 822.616,-18.8984 824.539,-25.629"/>
</g>
<!-- Node16 -->
<g id="node16" class="node"><title>Node16</title>
<polygon fill="none" stroke="#bfbfbf" points="912.5,-0.5 912.5,-19.5 965.5,-19.5 965.5,-0.5 912.5,-0.5"/>
<text text-anchor="middle" x="939" y="-7.5" font-family="Helvetica,sans-Serif" font-size="10.00">gsl/span</text>
</g>
<!-- Node9&#45;&gt;Node16 -->
<g id="edge15" class="edge"><title>Node9&#45;&gt;Node16</title>
<path fill="none" stroke="midnightblue" d="M721.074,-56.475C765.298,-48.3036 833.55,-35.2768 902.175,-20.0917"/>
<polygon fill="midnightblue" stroke="midnightblue" points="903.3,-23.4268 912.3,-17.8359 901.778,-16.5944 903.3,-23.4268"/>
</g>
<!-- Node17 -->
<g id="node17" class="node"><title>Node17</title>
<polygon fill="none" stroke="#bfbfbf" points="984,-0.5 984,-19.5 1028,-19.5 1028,-0.5 984,-0.5"/>
<text text-anchor="middle" x="1006" y="-7.5" font-family="Helvetica,sans-Serif" font-size="10.00">mutex</text>
</g>
<!-- Node9&#45;&gt;Node17 -->
<g id="edge17" class="edge"><title>Node9&#45;&gt;Node17</title>
<path fill="none" stroke="midnightblue" d="M748.439,-56.4684C807.108,-49.1385 891.101,-37.3089 973.884,-19.7648"/>
<polygon fill="midnightblue" stroke="midnightblue" points="974.668,-23.1764 983.71,-17.654 973.197,-16.3325 974.668,-23.1764"/>
</g>
<!-- Node18&#45;&gt;Node19 -->
<g id="edge19" class="edge"><title>Node18&#45;&gt;Node19</title>
<path fill="none" stroke="midnightblue" d="M873.346,-56.4435C917.704,-46.5455 990.45,-30.3128 1035.93,-20.1639"/>
<polygon fill="midnightblue" stroke="midnightblue" points="1036.76,-23.5649 1045.76,-17.971 1035.24,-16.7329 1036.76,-23.5649"/>
</g>
</g>
</svg>
        <g id="navigator" transform="translate(0 0)" fill="#404254">
                <rect fill="#f2f5e9" fill-opacity="0.5" stroke="#606060" stroke-width=".5" x="0" y="0" width="60" height="60"/>
                <use id="zoomplus" xlink:href="#zoomPlus" x="17" y="9" onmousedown="handleZoom(evt,'in')"/>
                <use id="zoomminus" xlink:href="#zoomMin" x="42" y="9" onmousedown="handleZoom(evt,'out')"/>
                <use id="reset" xlink:href="#resetDef" x="30" y="36" onmousedown="handleReset()"/>
                <g id="arrowUp" xlink:href="#dirArrow" transform="translate(30 24)" onmousedown="handlePan(0,-1)">
                  <use xlink:href="#rim" fill="#404040">
                        <set attributeName="fill" to="#808080" begin="arrowUp.mouseover" end="arrowUp.mouseout"/>
                  </use>
                  <path fill="none" stroke="white" stroke-width="1.5" d="M0,-3.0v7 M-2.5,-0.5L0,-3.0L2.5,-0.5"/>
                </g>
                <g id="arrowRight" xlink:href="#dirArrow" transform="rotate(90) translate(36 -43)" onmousedown="handlePan(1,0)">
                  <use xlink:href="#rim" fill="#404040">
                        <set attributeName="fill" to="#808080" begin="arrowRight.mouseover" end="arrowRight.mouseout"/>
                  </use>
                  <path fill="none" stroke="white" stroke-width="1.5" d="M0,-3.0v7 M-2.5,-0.5L0,-3.0L2.5,-0.5"/>
                </g>
                <g id="arrowDown" xlink:href="#dirArrow" transform="rotate(180) translate(-30 -48)" onmousedown="handlePan(0,1)">
                  <use xlink:href="#rim" fill="#404040">
                        <set attributeName="fill" to="#808080" begin="arrowDown.mouseover" end="arrowDown.mouseout"/>
                  </use>
                  <path fill="none" stroke="white" stroke-width="1.5" d="M0,-3.0v7 M-2.5,-0.5L0,-3.0L2.5,-0.5"/>
                </g>
                <g id="arrowLeft" xlink:href="#dirArrow" transform="rotate(270) translate(-36 17)" onmousedown="handlePan(-1,0)">
                  <use xlink:href="#rim" fill="#404040">
                        <set attributeName="fill" to="#808080" begin="arrowLeft.mouseover" end="arrowLeft.mouseout"/>
                  </use>
                  <path fill="none" stroke="white" stroke-width="1.5" d="M0,-3.0v7 M-2.5,-0.5L0,-3.0L2.5,-0.5"/>
                </g>
        </g>
        <svg viewBox="0 0 15 15" width="100%" height="30px" preserveAspectRatio="xMaxYMin meet">
         <g id="arrow_out" transform="scale(0.3 0.3)">
          <a xlink:href="DataRefUtils_8h__incl_org.svg" target="_base">
           <rect id="button" ry="5" rx="5" y="6" x="6" height="38" width="38"
                fill="#f2f5e9" fill-opacity="0.5" stroke="#606060" stroke-width="1.0"/>
           <path id="arrow"
             d="M 11.500037,31.436501 C 11.940474,20.09759 22.043105,11.32322 32.158766,21.979434 L 37.068811,17.246167 C 37.068811,17.246167 37.088388,32 37.088388,32 L 22.160133,31.978069 C 22.160133,31.978069 26.997745,27.140456 26.997745,27.140456 C 18.528582,18.264221 13.291696,25.230495 11.500037,31.436501 z"
             style="fill:#404040;"/>
          </a>
         </g>
        </svg>
</svg>
