<?xml version="1.0" encoding="UTF-8" standalone="no"?>
<!DOCTYPE svg PUBLIC "-//W3C//DTD SVG 1.1//EN"
 "http://www.w3.org/Graphics/SVG/1.1/DTD/svg11.dtd">
<!-- Generated by graphviz version 2.36.0 (20140111.2315)
 -->
<!-- Title: /home/travis/build/AliceO2Group/AliceO2/Framework/Core/src/DriverControl.h Pages: 1 -->
<svg width="360pt" height="162pt"
 viewBox="0.00 0.00 360.00 162.00" xmlns="http://www.w3.org/2000/svg" xmlns:xlink="http://www.w3.org/1999/xlink">
<g id="graph0" class="graph" transform="scale(1 1) rotate(0) translate(4 158)">
<title>/home/travis/build/AliceO2Group/AliceO2/Framework/Core/src/DriverControl.h</title>
<!-- Node1 -->
<g id="node1" class="node"><title>Node1</title>
<polygon fill="#bfbfbf" stroke="black" points="0,-112.5 0,-153.5 178,-153.5 178,-112.5 0,-112.5"/>
<text text-anchor="start" x="8" y="-141.5" font-family="Helvetica,sans-Serif" font-size="10.00">/home/travis/build</text>
<text text-anchor="start" x="8" y="-130.5" font-family="Helvetica,sans-Serif" font-size="10.00">/AliceO2Group/AliceO2</text>
<text text-anchor="middle" x="89" y="-119.5" font-family="Helvetica,sans-Serif" font-size="10.00">/Framework/Core/src/DriverControl.h</text>
</g>
<!-- Node2 -->
<g id="node2" class="node"><title>Node2</title>
<polygon fill="none" stroke="#bfbfbf" points="34,-0.5 34,-19.5 78,-19.5 78,-0.5 34,-0.5"/>
<text text-anchor="middle" x="56" y="-7.5" font-family="Helvetica,sans-Serif" font-size="10.00">vector</text>
</g>
<!-- Node1&#45;&gt;Node2 -->
<g id="edge1" class="edge"><title>Node1&#45;&gt;Node2</title>
<path fill="none" stroke="midnightblue" d="M83.6245,-112.29C77.375,-89.3749 67.1399,-51.8464 61.0382,-29.4732"/>
<polygon fill="midnightblue" stroke="midnightblue" points="64.3465,-28.3015 58.3386,-19.5748 57.5932,-30.1434 64.3465,-28.3015"/>
</g>
<!-- Node3 -->
<g id="node3" class="node"><title>Node3</title>
<g id="a_node3"><a xlink:href="../../de/da9/DriverInfo_8h.html" target="_top" xlink:title="DriverInfo.h">
<polygon fill="none" stroke="black" points="117,-56.5 117,-75.5 185,-75.5 185,-56.5 117,-56.5"/>
<text text-anchor="middle" x="151" y="-63.5" font-family="Helvetica,sans-Serif" font-size="10.00">DriverInfo.h</text>
</a>
</g>
</g>
<!-- Node1&#45;&gt;Node3 -->
<g id="edge2" class="edge"><title>Node1&#45;&gt;Node3</title>
<path fill="none" stroke="midnightblue" d="M107.602,-112.498C116.559,-103.107 127.17,-91.9829 135.658,-83.0848"/>
<polygon fill="midnightblue" stroke="midnightblue" points="138.377,-85.3043 142.747,-75.6525 133.312,-80.4729 138.377,-85.3043"/>
</g>
<!-- Node3&#45;&gt;Node2 -->
<g id="edge5" class="edge"><title>Node3&#45;&gt;Node2</title>
<path fill="none" stroke="midnightblue" d="M135.737,-56.324C120.779,-47.8215 97.7452,-34.7288 80.2733,-24.7975"/>
<polygon fill="midnightblue" stroke="midnightblue" points="81.6488,-21.5534 71.2255,-19.6545 78.1896,-27.639 81.6488,-21.5534"/>
</g>
<!-- Node4 -->
<g id="node4" class="node"><title>Node4</title>
<polygon fill="none" stroke="#bfbfbf" points="96.5,-0.5 96.5,-19.5 145.5,-19.5 145.5,-0.5 96.5,-0.5"/>
<text text-anchor="middle" x="121" y="-7.5" font-family="Helvetica,sans-Serif" font-size="10.00">cstddef</text>
</g>
<!-- Node3&#45;&gt;Node4 -->
<g id="edge3" class="edge"><title>Node3&#45;&gt;Node4</title>
<path fill="none" stroke="midnightblue" d="M146.046,-56.083C141.896,-48.6127 135.847,-37.7244 130.733,-28.5199"/>
<polygon fill="midnightblue" stroke="midnightblue" points="133.778,-26.7929 125.862,-19.7511 127.659,-30.1924 133.778,-26.7929"/>
</g>
<!-- Node5 -->
<g id="node5" class="node"><title>Node5</title>
<polygon fill="none" stroke="#bfbfbf" points="163.5,-0.5 163.5,-19.5 198.5,-19.5 198.5,-0.5 163.5,-0.5"/>
<text text-anchor="middle" x="181" y="-7.5" font-family="Helvetica,sans-Serif" font-size="10.00">map</text>
</g>
<!-- Node3&#45;&gt;Node5 -->
<g id="edge4" class="edge"><title>Node3&#45;&gt;Node5</title>
<path fill="none" stroke="midnightblue" d="M155.954,-56.083C160.104,-48.6127 166.153,-37.7244 171.267,-28.5199"/>
<polygon fill="midnightblue" stroke="midnightblue" points="174.341,-30.1924 176.138,-19.7511 168.222,-26.7929 174.341,-30.1924"/>
</g>
<!-- Node6 -->
<g id="node6" class="node"><title>Node6</title>
<polygon fill="none" stroke="#bfbfbf" points="216.5,-0.5 216.5,-19.5 263.5,-19.5 263.5,-0.5 216.5,-0.5"/>
<text text-anchor="middle" x="240" y="-7.5" font-family="Helvetica,sans-Serif" font-size="10.00">csignal</text>
</g>
<!-- Node3&#45;&gt;Node6 -->
<g id="edge6" class="edge"><title>Node3&#45;&gt;Node6</title>
<path fill="none" stroke="midnightblue" d="M165.299,-56.324C179.183,-47.9002 200.492,-34.9709 216.804,-25.0741"/>
<polygon fill="midnightblue" stroke="midnightblue" points="219.002,-27.8341 225.736,-19.6545 215.371,-21.8495 219.002,-27.8341"/>
</g>
<!-- Node7 -->
<g id="node7" class="node"><title>Node7</title>
<polygon fill="none" stroke="#bfbfbf" points="282,-0.5 282,-19.5 352,-19.5 352,-0.5 282,-0.5"/>
<text text-anchor="middle" x="317" y="-7.5" font-family="Helvetica,sans-Serif" font-size="10.00">sys/select.h</text>
</g>
<!-- Node3&#45;&gt;Node7 -->
<g id="edge7" class="edge"><title>Node3&#45;&gt;Node7</title>
<path fill="none" stroke="midnightblue" d="M177.303,-56.4435C205.351,-47.3196 249.944,-32.8133 281.184,-22.6509"/>
<polygon fill="midnightblue" stroke="midnightblue" points="282.393,-25.9383 290.82,-19.5164 280.228,-19.2816 282.393,-25.9383"/>
</g>
</g>
</svg>
