<?xml version="1.0" encoding="UTF-8" standalone="no"?>
<!DOCTYPE svg PUBLIC "-//W3C//DTD SVG 1.1//EN"
 "http://www.w3.org/Graphics/SVG/1.1/DTD/svg11.dtd">
<!-- Generated by graphviz version 2.36.0 (20140111.2315)
 -->
<!-- Title: o2::header::TimeStamp Pages: 1 -->
<svg width="416pt" height="512pt"
 viewBox="0.00 0.00 416.00 512.00" xmlns="http://www.w3.org/2000/svg" xmlns:xlink="http://www.w3.org/1999/xlink">
<g id="graph0" class="graph" transform="scale(1 1) rotate(0) translate(4 508)">
<title>o2::header::TimeStamp</title>
<!-- Node1 -->
<g id="node1" class="node"><title>Node1</title>
<polygon fill="#bfbfbf" stroke="black" points="85.5,-1 85.5,-113 204.5,-113 204.5,-1 85.5,-1"/>
<text text-anchor="middle" x="145" y="-101" font-family="Helvetica,sans-Serif" font-size="10.00">o2::header::TimeStamp</text>
<polyline fill="none" stroke="black" points="85.5,-94 204.5,-94 "/>
<text text-anchor="middle" x="145" y="-82" font-family="Helvetica,sans-Serif" font-size="10.00"> </text>
<polyline fill="none" stroke="black" points="85.5,-75 204.5,-75 "/>
<text text-anchor="start" x="93.5" y="-63" font-family="Helvetica,sans-Serif" font-size="10.00">+ TimeStamp()</text>
<text text-anchor="start" x="93.5" y="-52" font-family="Helvetica,sans-Serif" font-size="10.00">+ TimeStamp()</text>
<text text-anchor="start" x="93.5" y="-41" font-family="Helvetica,sans-Serif" font-size="10.00">+ TimeStamp()</text>
<text text-anchor="start" x="93.5" y="-30" font-family="Helvetica,sans-Serif" font-size="10.00">+ ~TimeStamp()</text>
<text text-anchor="start" x="93.5" y="-19" font-family="Helvetica,sans-Serif" font-size="10.00">+ operator uint64_t()</text>
<text text-anchor="start" x="93.5" y="-8" font-family="Helvetica,sans-Serif" font-size="10.00">+ get()</text>
</g>
<!-- Node2 -->
<g id="node2" class="node"><title>Node2</title>
<polygon fill="none" stroke="#bfbfbf" points="-0.5,-250.5 -0.5,-307.5 50.5,-307.5 50.5,-250.5 -0.5,-250.5"/>
<text text-anchor="middle" x="25" y="-295.5" font-family="Helvetica,sans-Serif" font-size="10.00">uint32_t</text>
<polyline fill="none" stroke="#bfbfbf" points="-0.5,-288.5 50.5,-288.5 "/>
<text text-anchor="middle" x="25" y="-276.5" font-family="Helvetica,sans-Serif" font-size="10.00"> </text>
<polyline fill="none" stroke="#bfbfbf" points="-0.5,-269.5 50.5,-269.5 "/>
<text text-anchor="middle" x="25" y="-257.5" font-family="Helvetica,sans-Serif" font-size="10.00"> </text>
</g>
<!-- Node2&#45;&gt;Node1 -->
<g id="edge1" class="edge"><title>Node2&#45;&gt;Node1</title>
<path fill="none" stroke="#404040" d="M21.8797,-250.37C19.7426,-219.364 20.4527,-168.619 42,-132 50.2308,-118.012 62.2611,-105.944 75.2204,-95.8503"/>
<polygon fill="none" stroke="#404040" points="75.5723,-95.5934 78.0595,-88.8248 85.264,-88.5173 82.7769,-95.2859 75.5723,-95.5934"/>
<text text-anchor="middle" x="63.5" y="-152" font-family="Helvetica,sans-Serif" font-size="10.00"> +mTicks</text>
<text text-anchor="middle" x="63.5" y="-141" font-family="Helvetica,sans-Serif" font-size="10.00">+mPeriod</text>
</g>
<!-- Node3 -->
<g id="node3" class="node"><title>Node3</title>
<polygon fill="none" stroke="#bfbfbf" points="68.5,-250.5 68.5,-307.5 119.5,-307.5 119.5,-250.5 68.5,-250.5"/>
<text text-anchor="middle" x="94" y="-295.5" font-family="Helvetica,sans-Serif" font-size="10.00">uint64_t</text>
<polyline fill="none" stroke="#bfbfbf" points="68.5,-288.5 119.5,-288.5 "/>
<text text-anchor="middle" x="94" y="-276.5" font-family="Helvetica,sans-Serif" font-size="10.00"> </text>
<polyline fill="none" stroke="#bfbfbf" points="68.5,-269.5 119.5,-269.5 "/>
<text text-anchor="middle" x="94" y="-257.5" font-family="Helvetica,sans-Serif" font-size="10.00"> </text>
</g>
<!-- Node3&#45;&gt;Node1 -->
<g id="edge2" class="edge"><title>Node3&#45;&gt;Node1</title>
<path fill="none" stroke="#404040" d="M89.5266,-250.369C85.7447,-220.458 82.694,-171.707 95,-132 95.8018,-129.413 96.727,-126.834 97.755,-124.275"/>
<polygon fill="none" stroke="#404040" points="97.8315,-124.109 96.7119,-116.985 102.857,-113.212 103.977,-120.336 97.8315,-124.109"/>
<text text-anchor="middle" x="134.5" y="-146.5" font-family="Helvetica,sans-Serif" font-size="10.00"> +mTimeStamp64</text>
</g>
<!-- Node4 -->
<g id="node4" class="node"><title>Node4</title>
<polygon fill="none" stroke="#bfbfbf" points="170.5,-250.5 170.5,-307.5 221.5,-307.5 221.5,-250.5 170.5,-250.5"/>
<text text-anchor="middle" x="196" y="-295.5" font-family="Helvetica,sans-Serif" font-size="10.00">uint16_t</text>
<polyline fill="none" stroke="#bfbfbf" points="170.5,-288.5 221.5,-288.5 "/>
<text text-anchor="middle" x="196" y="-276.5" font-family="Helvetica,sans-Serif" font-size="10.00"> </text>
<polyline fill="none" stroke="#bfbfbf" points="170.5,-269.5 221.5,-269.5 "/>
<text text-anchor="middle" x="196" y="-257.5" font-family="Helvetica,sans-Serif" font-size="10.00"> </text>
</g>
<!-- Node4&#45;&gt;Node1 -->
<g id="edge3" class="edge"><title>Node4&#45;&gt;Node1</title>
<path fill="none" stroke="#404040" d="M193.703,-250.448C190.805,-220.811 184.836,-172.485 174,-132 173.359,-129.605 172.665,-127.181 171.929,-124.745"/>
<polygon fill="none" stroke="#404040" points="171.922,-124.726 166.264,-120.255 168.214,-113.313 173.873,-117.783 171.922,-124.726"/>
<text text-anchor="middle" x="214" y="-157.5" font-family="Helvetica,sans-Serif" font-size="10.00"> +mUnit</text>
<text text-anchor="middle" x="214" y="-146.5" font-family="Helvetica,sans-Serif" font-size="10.00">+mSubTicks</text>
<text text-anchor="middle" x="214" y="-135.5" font-family="Helvetica,sans-Serif" font-size="10.00">+mBCNumber</text>
</g>
<!-- Node5 -->
<g id="node5" class="node"><title>Node5</title>
<g id="a_node5"><a xlink:href="../../d9/db3/structo2_1_1header_1_1Descriptor.html" target="_top" xlink:title="{o2::header::Descriptor\l\&lt; N, PrinterPolicy \&gt;\n||+ Descriptor()\l+ Descriptor()\l+ Descriptor()\l+ operator=()\l+ operator ItgType()\l+ Descriptor()\l+ runtimeInit()\l+ operator==()\l+ operator!=()\l+ operator==()\l+ operator!=()\l+ print()\l}">
<polygon fill="none" stroke="black" points="239.5,-184.5 239.5,-373.5 352.5,-373.5 352.5,-184.5 239.5,-184.5"/>
<text text-anchor="start" x="247.5" y="-361.5" font-family="Helvetica,sans-Serif" font-size="10.00">o2::header::Descriptor</text>
<text text-anchor="middle" x="296" y="-350.5" font-family="Helvetica,sans-Serif" font-size="10.00">&lt; N, PrinterPolicy &gt;</text>
<polyline fill="none" stroke="black" points="239.5,-343.5 352.5,-343.5 "/>
<text text-anchor="middle" x="296" y="-331.5" font-family="Helvetica,sans-Serif" font-size="10.00"> </text>
<polyline fill="none" stroke="black" points="239.5,-324.5 352.5,-324.5 "/>
<text text-anchor="start" x="247.5" y="-312.5" font-family="Helvetica,sans-Serif" font-size="10.00">+ Descriptor()</text>
<text text-anchor="start" x="247.5" y="-301.5" font-family="Helvetica,sans-Serif" font-size="10.00">+ Descriptor()</text>
<text text-anchor="start" x="247.5" y="-290.5" font-family="Helvetica,sans-Serif" font-size="10.00">+ Descriptor()</text>
<text text-anchor="start" x="247.5" y="-279.5" font-family="Helvetica,sans-Serif" font-size="10.00">+ operator=()</text>
<text text-anchor="start" x="247.5" y="-268.5" font-family="Helvetica,sans-Serif" font-size="10.00">+ operator ItgType()</text>
<text text-anchor="start" x="247.5" y="-257.5" font-family="Helvetica,sans-Serif" font-size="10.00">+ Descriptor()</text>
<text text-anchor="start" x="247.5" y="-246.5" font-family="Helvetica,sans-Serif" font-size="10.00">+ runtimeInit()</text>
<text text-anchor="start" x="247.5" y="-235.5" font-family="Helvetica,sans-Serif" font-size="10.00">+ operator==()</text>
<text text-anchor="start" x="247.5" y="-224.5" font-family="Helvetica,sans-Serif" font-size="10.00">+ operator!=()</text>
<text text-anchor="start" x="247.5" y="-213.5" font-family="Helvetica,sans-Serif" font-size="10.00">+ operator==()</text>
<text text-anchor="start" x="247.5" y="-202.5" font-family="Helvetica,sans-Serif" font-size="10.00">+ operator!=()</text>
<text text-anchor="start" x="247.5" y="-191.5" font-family="Helvetica,sans-Serif" font-size="10.00">+ print()</text>
</a>
</g>
</g>
<!-- Node5&#45;&gt;Node1 -->
<g id="edge4" class="edge"><title>Node5&#45;&gt;Node1</title>
<path fill="none" stroke="#404040" d="M276.5,-184.476C269.986,-166.012 261.368,-147.557 250,-132 240.459,-118.943 227.898,-107.345 214.793,-97.4277"/>
<polygon fill="none" stroke="#404040" points="214.45,-97.181 207.244,-96.9256 204.707,-90.1752 211.914,-90.4305 214.45,-97.181"/>
<text text-anchor="middle" x="306" y="-152" font-family="Helvetica,sans-Serif" font-size="10.00"> +sClockLHC</text>
<text text-anchor="middle" x="306" y="-141" font-family="Helvetica,sans-Serif" font-size="10.00">+sMicroSeconds</text>
</g>
<!-- Node6 -->
<g id="node6" class="node"><title>Node6</title>
<polygon fill="none" stroke="#bfbfbf" points="198,-445.5 198,-502.5 236,-502.5 236,-445.5 198,-445.5"/>
<text text-anchor="middle" x="217" y="-490.5" font-family="Helvetica,sans-Serif" font-size="10.00">Type</text>
<polyline fill="none" stroke="#bfbfbf" points="198,-483.5 236,-483.5 "/>
<text text-anchor="middle" x="217" y="-471.5" font-family="Helvetica,sans-Serif" font-size="10.00"> </text>
<polyline fill="none" stroke="#bfbfbf" points="198,-464.5 236,-464.5 "/>
<text text-anchor="middle" x="217" y="-452.5" font-family="Helvetica,sans-Serif" font-size="10.00"> </text>
</g>
<!-- Node6&#45;&gt;Node5 -->
<g id="edge5" class="edge"><title>Node6&#45;&gt;Node5</title>
<path fill="none" stroke="#404040" d="M228.283,-445.251C234.649,-429.607 242.756,-409.709 250,-392 250.948,-389.682 251.908,-387.337 252.876,-384.973"/>
<polygon fill="none" stroke="#404040" points="252.905,-384.901 251.478,-377.833 257.454,-373.797 258.881,-380.865 252.905,-384.901"/>
<text text-anchor="middle" x="260" y="-406.5" font-family="Helvetica,sans-Serif" font-size="10.00"> +itg</text>
</g>
<!-- Node7 -->
<g id="node7" class="node"><title>Node7</title>
<polygon fill="none" stroke="#bfbfbf" points="254.5,-445.5 254.5,-502.5 289.5,-502.5 289.5,-445.5 254.5,-445.5"/>
<text text-anchor="middle" x="272" y="-490.5" font-family="Helvetica,sans-Serif" font-size="10.00">char</text>
<polyline fill="none" stroke="#bfbfbf" points="254.5,-483.5 289.5,-483.5 "/>
<text text-anchor="middle" x="272" y="-471.5" font-family="Helvetica,sans-Serif" font-size="10.00"> </text>
<polyline fill="none" stroke="#bfbfbf" points="254.5,-464.5 289.5,-464.5 "/>
<text text-anchor="middle" x="272" y="-452.5" font-family="Helvetica,sans-Serif" font-size="10.00"> </text>
</g>
<!-- Node7&#45;&gt;Node5 -->
<g id="edge6" class="edge"><title>Node7&#45;&gt;Node5</title>
<path fill="none" stroke="#404040" d="M272.499,-445.188C272.999,-429.525 273.999,-409.627 276,-392 276.234,-389.942 276.482,-387.865 276.742,-385.774"/>
<polygon fill="none" stroke="#404040" points="276.77,-385.569 273.603,-379.091 278.366,-373.676 281.532,-380.154 276.77,-385.569"/>
<text text-anchor="middle" x="286.5" y="-406.5" font-family="Helvetica,sans-Serif" font-size="10.00"> +str</text>
</g>
<!-- Node8 -->
<g id="node8" class="node"><title>Node8</title>
<polygon fill="none" stroke="#bfbfbf" points="307.5,-445.5 307.5,-502.5 336.5,-502.5 336.5,-445.5 307.5,-445.5"/>
<text text-anchor="middle" x="322" y="-490.5" font-family="Helvetica,sans-Serif" font-size="10.00">int</text>
<polyline fill="none" stroke="#bfbfbf" points="307.5,-483.5 336.5,-483.5 "/>
<text text-anchor="middle" x="322" y="-471.5" font-family="Helvetica,sans-Serif" font-size="10.00"> </text>
<polyline fill="none" stroke="#bfbfbf" points="307.5,-464.5 336.5,-464.5 "/>
<text text-anchor="middle" x="322" y="-452.5" font-family="Helvetica,sans-Serif" font-size="10.00"> </text>
</g>
<!-- Node8&#45;&gt;Node5 -->
<g id="edge7" class="edge"><title>Node8&#45;&gt;Node5</title>
<path fill="none" stroke="#404040" d="M318.275,-445.348C316.109,-429.268 313.225,-407.866 310.254,-385.809"/>
<polygon fill="none" stroke="#404040" points="310.249,-385.773 305.484,-380.361 308.647,-373.881 313.412,-379.293 310.249,-385.773"/>
<text text-anchor="middle" x="341.5" y="-417.5" font-family="Helvetica,sans-Serif" font-size="10.00"> +arraySize</text>
<text text-anchor="middle" x="341.5" y="-406.5" font-family="Helvetica,sans-Serif" font-size="10.00">+size</text>
<text text-anchor="middle" x="341.5" y="-395.5" font-family="Helvetica,sans-Serif" font-size="10.00">+bitcount</text>
</g>
<!-- Node9 -->
<g id="node9" class="node"><title>Node9</title>
<polygon fill="none" stroke="#bfbfbf" points="378.5,-445 378.5,-503 407.5,-503 407.5,-445 378.5,-445"/>
<polyline fill="none" stroke="#bfbfbf" points="378.5,-483 407.5,-483 "/>
<text text-anchor="middle" x="393" y="-471" font-family="Helvetica,sans-Serif" font-size="10.00"> </text>
<polyline fill="none" stroke="#bfbfbf" points="378.5,-464 407.5,-464 "/>
<text text-anchor="middle" x="393" y="-452" font-family="Helvetica,sans-Serif" font-size="10.00"> </text>
</g>
<!-- Node9&#45;&gt;Node5 -->
<g id="edge8" class="edge"><title>Node9&#45;&gt;Node5</title>
<path fill="none" stroke="#404040" d="M387.718,-444.853C384.149,-428.906 378.675,-408.84 371,-392 367.397,-384.095 363.262,-376.127 358.824,-368.28"/>
<polygon fill="none" stroke="#404040" points="358.676,-368.027 352.191,-364.873 352.608,-357.674 359.093,-360.828 358.676,-368.027"/>
<text text-anchor="middle" x="395.5" y="-406.5" font-family="Helvetica,sans-Serif" font-size="10.00"> +@3</text>
</g>
</g>
</svg>
