<?xml version="1.0" encoding="UTF-8" standalone="no"?>
<!DOCTYPE svg PUBLIC "-//W3C//DTD SVG 1.1//EN"
 "http://www.w3.org/Graphics/SVG/1.1/DTD/svg11.dtd">
<!-- Generated by graphviz version 2.36.0 (20140111.2315)
 -->
<!-- Title: /home/travis/build/AliceO2Group/AliceO2/Framework/Core/src/DriverControl.cxx Pages: 1 -->
<svg width="365pt" height="218pt"
 viewBox="0.00 0.00 365.00 218.00" xmlns="http://www.w3.org/2000/svg" xmlns:xlink="http://www.w3.org/1999/xlink">
<g id="graph0" class="graph" transform="scale(1 1) rotate(0) translate(4 214)">
<title>/home/travis/build/AliceO2Group/AliceO2/Framework/Core/src/DriverControl.cxx</title>
<!-- Node1 -->
<g id="node1" class="node"><title>Node1</title>
<polygon fill="#bfbfbf" stroke="black" points="0,-168.5 0,-209.5 188,-209.5 188,-168.5 0,-168.5"/>
<text text-anchor="start" x="8" y="-197.5" font-family="Helvetica,sans-Serif" font-size="10.00">/home/travis/build</text>
<text text-anchor="start" x="8" y="-186.5" font-family="Helvetica,sans-Serif" font-size="10.00">/AliceO2Group/AliceO2</text>
<text text-anchor="middle" x="94" y="-175.5" font-family="Helvetica,sans-Serif" font-size="10.00">/Framework/Core/src/DriverControl.cxx</text>
</g>
<!-- Node2 -->
<g id="node2" class="node"><title>Node2</title>
<g id="a_node2"><a xlink:href="../../de/d66/DriverControl_8h.html" target="_top" xlink:title="DriverControl.h">
<polygon fill="none" stroke="black" points="52.5,-112.5 52.5,-131.5 135.5,-131.5 135.5,-112.5 52.5,-112.5"/>
<text text-anchor="middle" x="94" y="-119.5" font-family="Helvetica,sans-Serif" font-size="10.00">DriverControl.h</text>
</a>
</g>
</g>
<!-- Node1&#45;&gt;Node2 -->
<g id="edge1" class="edge"><title>Node1&#45;&gt;Node2</title>
<path fill="none" stroke="midnightblue" d="M94,-168.498C94,-160.065 94,-150.235 94,-141.874"/>
<polygon fill="midnightblue" stroke="midnightblue" points="97.5001,-141.652 94,-131.652 90.5001,-141.653 97.5001,-141.652"/>
</g>
<!-- Node3 -->
<g id="node3" class="node"><title>Node3</title>
<polygon fill="none" stroke="#bfbfbf" points="39,-0.5 39,-19.5 83,-19.5 83,-0.5 39,-0.5"/>
<text text-anchor="middle" x="61" y="-7.5" font-family="Helvetica,sans-Serif" font-size="10.00">vector</text>
</g>
<!-- Node2&#45;&gt;Node3 -->
<g id="edge2" class="edge"><title>Node2&#45;&gt;Node3</title>
<path fill="none" stroke="midnightblue" d="M91.4105,-112.368C86.061,-94.5366 73.6886,-53.2953 66.4815,-29.2717"/>
<polygon fill="midnightblue" stroke="midnightblue" points="69.8034,-28.1639 63.5774,-19.5914 63.0986,-30.1754 69.8034,-28.1639"/>
</g>
<!-- Node4 -->
<g id="node4" class="node"><title>Node4</title>
<g id="a_node4"><a xlink:href="../../de/da9/DriverInfo_8h.html" target="_top" xlink:title="DriverInfo.h">
<polygon fill="none" stroke="black" points="122,-56.5 122,-75.5 190,-75.5 190,-56.5 122,-56.5"/>
<text text-anchor="middle" x="156" y="-63.5" font-family="Helvetica,sans-Serif" font-size="10.00">DriverInfo.h</text>
</a>
</g>
</g>
<!-- Node2&#45;&gt;Node4 -->
<g id="edge3" class="edge"><title>Node2&#45;&gt;Node4</title>
<path fill="none" stroke="midnightblue" d="M103.961,-112.324C113.127,-104.341 126.937,-92.3128 138.028,-82.6529"/>
<polygon fill="midnightblue" stroke="midnightblue" points="140.615,-85.041 145.857,-75.8339 136.018,-79.7624 140.615,-85.041"/>
</g>
<!-- Node4&#45;&gt;Node3 -->
<g id="edge6" class="edge"><title>Node4&#45;&gt;Node3</title>
<path fill="none" stroke="midnightblue" d="M140.737,-56.324C125.779,-47.8215 102.745,-34.7288 85.2733,-24.7975"/>
<polygon fill="midnightblue" stroke="midnightblue" points="86.6488,-21.5534 76.2255,-19.6545 83.1896,-27.639 86.6488,-21.5534"/>
</g>
<!-- Node5 -->
<g id="node5" class="node"><title>Node5</title>
<polygon fill="none" stroke="#bfbfbf" points="101.5,-0.5 101.5,-19.5 150.5,-19.5 150.5,-0.5 101.5,-0.5"/>
<text text-anchor="middle" x="126" y="-7.5" font-family="Helvetica,sans-Serif" font-size="10.00">cstddef</text>
</g>
<!-- Node4&#45;&gt;Node5 -->
<g id="edge4" class="edge"><title>Node4&#45;&gt;Node5</title>
<path fill="none" stroke="midnightblue" d="M151.046,-56.083C146.896,-48.6127 140.847,-37.7244 135.733,-28.5199"/>
<polygon fill="midnightblue" stroke="midnightblue" points="138.778,-26.7929 130.862,-19.7511 132.659,-30.1924 138.778,-26.7929"/>
</g>
<!-- Node6 -->
<g id="node6" class="node"><title>Node6</title>
<polygon fill="none" stroke="#bfbfbf" points="168.5,-0.5 168.5,-19.5 203.5,-19.5 203.5,-0.5 168.5,-0.5"/>
<text text-anchor="middle" x="186" y="-7.5" font-family="Helvetica,sans-Serif" font-size="10.00">map</text>
</g>
<!-- Node4&#45;&gt;Node6 -->
<g id="edge5" class="edge"><title>Node4&#45;&gt;Node6</title>
<path fill="none" stroke="midnightblue" d="M160.954,-56.083C165.104,-48.6127 171.153,-37.7244 176.267,-28.5199"/>
<polygon fill="midnightblue" stroke="midnightblue" points="179.341,-30.1924 181.138,-19.7511 173.222,-26.7929 179.341,-30.1924"/>
</g>
<!-- Node7 -->
<g id="node7" class="node"><title>Node7</title>
<polygon fill="none" stroke="#bfbfbf" points="221.5,-0.5 221.5,-19.5 268.5,-19.5 268.5,-0.5 221.5,-0.5"/>
<text text-anchor="middle" x="245" y="-7.5" font-family="Helvetica,sans-Serif" font-size="10.00">csignal</text>
</g>
<!-- Node4&#45;&gt;Node7 -->
<g id="edge7" class="edge"><title>Node4&#45;&gt;Node7</title>
<path fill="none" stroke="midnightblue" d="M170.299,-56.324C184.183,-47.9002 205.492,-34.9709 221.804,-25.0741"/>
<polygon fill="midnightblue" stroke="midnightblue" points="224.002,-27.8341 230.736,-19.6545 220.371,-21.8495 224.002,-27.8341"/>
</g>
<!-- Node8 -->
<g id="node8" class="node"><title>Node8</title>
<polygon fill="none" stroke="#bfbfbf" points="287,-0.5 287,-19.5 357,-19.5 357,-0.5 287,-0.5"/>
<text text-anchor="middle" x="322" y="-7.5" font-family="Helvetica,sans-Serif" font-size="10.00">sys/select.h</text>
</g>
<!-- Node4&#45;&gt;Node8 -->
<g id="edge8" class="edge"><title>Node4&#45;&gt;Node8</title>
<path fill="none" stroke="midnightblue" d="M182.303,-56.4435C210.351,-47.3196 254.944,-32.8133 286.184,-22.6509"/>
<polygon fill="midnightblue" stroke="midnightblue" points="287.393,-25.9383 295.82,-19.5164 285.228,-19.2816 287.393,-25.9383"/>
</g>
</g>
</svg>
