<?xml version="1.0" encoding="UTF-8" standalone="no"?>
<!DOCTYPE svg PUBLIC "-//W3C//DTD SVG 1.1//EN"
 "http://www.w3.org/Graphics/SVG/1.1/DTD/svg11.dtd">
<!-- Generated by graphviz version 2.36.0 (20140111.2315)
 -->
<!-- Title: o2::dataformats::TimeStampWithError&lt; T, E &gt; Pages: 1 -->
<svg width="172pt" height="486pt"
 viewBox="0.00 0.00 172.00 486.00" xmlns="http://www.w3.org/2000/svg" xmlns:xlink="http://www.w3.org/1999/xlink">
<g id="graph0" class="graph" transform="scale(1 1) rotate(0) translate(4 482)">
<title>o2::dataformats::TimeStampWithError&lt; T, E &gt;</title>
<!-- Node1 -->
<g id="node1" class="node"><title>Node1</title>
<polygon fill="#bfbfbf" stroke="black" points="11.5,-248.5 11.5,-349.5 152.5,-349.5 152.5,-248.5 11.5,-248.5"/>
<text text-anchor="start" x="19.5" y="-337.5" font-family="Helvetica,sans-Serif" font-size="10.00">o2::dataformats::TimeStamp</text>
<text text-anchor="middle" x="82" y="-326.5" font-family="Helvetica,sans-Serif" font-size="10.00">WithError&lt; T, E &gt;</text>
<polyline fill="none" stroke="black" points="11.5,-319.5 152.5,-319.5 "/>
<text text-anchor="middle" x="82" y="-307.5" font-family="Helvetica,sans-Serif" font-size="10.00"> </text>
<polyline fill="none" stroke="black" points="11.5,-300.5 152.5,-300.5 "/>
<text text-anchor="start" x="19.5" y="-288.5" font-family="Helvetica,sans-Serif" font-size="10.00">+ TimeStampWithError()</text>
<text text-anchor="start" x="19.5" y="-277.5" font-family="Helvetica,sans-Serif" font-size="10.00">+ TimeStampWithError()</text>
<text text-anchor="start" x="19.5" y="-266.5" font-family="Helvetica,sans-Serif" font-size="10.00">+ getTimeStampError()</text>
<text text-anchor="start" x="19.5" y="-255.5" font-family="Helvetica,sans-Serif" font-size="10.00">+ setTimeStampError()</text>
</g>
<!-- Node3 -->
<g id="node3" class="node"><title>Node3</title>
<g id="a_node3"><a xlink:href="../../de/dd5/classo2_1_1TPC_1_1Cluster.html" target="_top" xlink:title="Cluster class for the TPC. ">
<polygon fill="none" stroke="black" points="21,-0.5 21,-211.5 143,-211.5 143,-0.5 21,-0.5"/>
<text text-anchor="start" x="29" y="-199.5" font-family="Helvetica,sans-Serif" font-size="10.00">o2::TPC::Cluster&lt; float,</text>
<text text-anchor="middle" x="82" y="-188.5" font-family="Helvetica,sans-Serif" font-size="10.00"> float &gt;</text>
<polyline fill="none" stroke="black" points="21,-181.5 143,-181.5 "/>
<text text-anchor="middle" x="82" y="-169.5" font-family="Helvetica,sans-Serif" font-size="10.00"> </text>
<polyline fill="none" stroke="black" points="21,-162.5 143,-162.5 "/>
<text text-anchor="start" x="29" y="-150.5" font-family="Helvetica,sans-Serif" font-size="10.00">+ Cluster()</text>
<text text-anchor="start" x="29" y="-139.5" font-family="Helvetica,sans-Serif" font-size="10.00">+ Cluster()</text>
<text text-anchor="start" x="29" y="-128.5" font-family="Helvetica,sans-Serif" font-size="10.00">+ ~Cluster()</text>
<text text-anchor="start" x="29" y="-117.5" font-family="Helvetica,sans-Serif" font-size="10.00">+ Cluster()</text>
<text text-anchor="start" x="29" y="-106.5" font-family="Helvetica,sans-Serif" font-size="10.00">+ setParameters()</text>
<text text-anchor="start" x="29" y="-95.5" font-family="Helvetica,sans-Serif" font-size="10.00">+ getCRU()</text>
<text text-anchor="start" x="29" y="-84.5" font-family="Helvetica,sans-Serif" font-size="10.00">+ getRow()</text>
<text text-anchor="start" x="29" y="-73.5" font-family="Helvetica,sans-Serif" font-size="10.00">+ getQ()</text>
<text text-anchor="start" x="29" y="-62.5" font-family="Helvetica,sans-Serif" font-size="10.00">+ getQmax()</text>
<text text-anchor="start" x="29" y="-51.5" font-family="Helvetica,sans-Serif" font-size="10.00">+ getPadMean()</text>
<text text-anchor="start" x="29" y="-40.5" font-family="Helvetica,sans-Serif" font-size="10.00">+ getTimeMean()</text>
<text text-anchor="start" x="29" y="-29.5" font-family="Helvetica,sans-Serif" font-size="10.00">+ getPadSigma()</text>
<text text-anchor="start" x="29" y="-18.5" font-family="Helvetica,sans-Serif" font-size="10.00">+ getTimeSigma()</text>
<text text-anchor="start" x="29" y="-7.5" font-family="Helvetica,sans-Serif" font-size="10.00"># print()</text>
</a>
</g>
</g>
<!-- Node1&#45;&gt;Node3 -->
<g id="edge2" class="edge"><title>Node1&#45;&gt;Node3</title>
<path fill="none" stroke="midnightblue" d="M82,-238.18C82,-229.672 82,-220.724 82,-211.665"/>
<polygon fill="none" stroke="midnightblue" points="78.5001,-238.316 82,-248.316 85.5001,-238.316 78.5001,-238.316"/>
</g>
<!-- Node2 -->
<g id="node2" class="node"><title>Node2</title>
<g id="a_node2"><a xlink:href="../../d0/d94/classo2_1_1dataformats_1_1TimeStamp.html" target="_top" xlink:title="{o2::dataformats::TimeStamp\&lt; T \&gt;\n||+ TimeStamp()\l+ TimeStamp()\l+ getTimeStamp()\l+ setTimeStamp()\l}">
<polygon fill="none" stroke="black" points="-0.5,-387 -0.5,-477 164.5,-477 164.5,-387 -0.5,-387"/>
<text text-anchor="middle" x="82" y="-465" font-family="Helvetica,sans-Serif" font-size="10.00">o2::dataformats::TimeStamp&lt; T &gt;</text>
<polyline fill="none" stroke="black" points="-0.5,-458 164.5,-458 "/>
<text text-anchor="middle" x="82" y="-446" font-family="Helvetica,sans-Serif" font-size="10.00"> </text>
<polyline fill="none" stroke="black" points="-0.5,-439 164.5,-439 "/>
<text text-anchor="start" x="7.5" y="-427" font-family="Helvetica,sans-Serif" font-size="10.00">+ TimeStamp()</text>
<text text-anchor="start" x="7.5" y="-416" font-family="Helvetica,sans-Serif" font-size="10.00">+ TimeStamp()</text>
<text text-anchor="start" x="7.5" y="-405" font-family="Helvetica,sans-Serif" font-size="10.00">+ getTimeStamp()</text>
<text text-anchor="start" x="7.5" y="-394" font-family="Helvetica,sans-Serif" font-size="10.00">+ setTimeStamp()</text>
</a>
</g>
</g>
<!-- Node2&#45;&gt;Node1 -->
<g id="edge1" class="edge"><title>Node2&#45;&gt;Node1</title>
<path fill="none" stroke="midnightblue" d="M82,-376.422C82,-367.569 82,-358.442 82,-349.712"/>
<polygon fill="none" stroke="midnightblue" points="78.5001,-376.649 82,-386.649 85.5001,-376.649 78.5001,-376.649"/>
</g>
</g>
</svg>
