<?xml version="1.0" encoding="UTF-8" standalone="no"?>
<!DOCTYPE svg PUBLIC "-//W3C//DTD SVG 1.1//EN"
 "http://www.w3.org/Graphics/SVG/1.1/DTD/svg11.dtd">
<!-- Generated by graphviz version 2.36.0 (20140111.2315)
 -->
<!-- Title: /home/travis/build/AliceO2Group/AliceO2/Detectors/ITSMFT/common/reconstruction/include/ITSMFTReconstruction/ClusterTopology.h Pages: 1 -->
<svg width="704pt" height="284pt"
 viewBox="0.00 0.00 704.00 284.00" xmlns="http://www.w3.org/2000/svg" xmlns:xlink="http://www.w3.org/1999/xlink">
<g id="graph0" class="graph" transform="scale(1 1) rotate(0) translate(4 280)">
<title>/home/travis/build/AliceO2Group/AliceO2/Detectors/ITSMFT/common/reconstruction/include/ITSMFTReconstruction/ClusterTopology.h</title>
<!-- Node1 -->
<g id="node1" class="node"><title>Node1</title>
<polygon fill="#bfbfbf" stroke="black" points="246,-212.5 246,-275.5 450,-275.5 450,-212.5 246,-212.5"/>
<text text-anchor="start" x="254" y="-263.5" font-family="Helvetica,sans-Serif" font-size="10.00">/home/travis/build</text>
<text text-anchor="start" x="254" y="-252.5" font-family="Helvetica,sans-Serif" font-size="10.00">/AliceO2Group/AliceO2</text>
<text text-anchor="start" x="254" y="-241.5" font-family="Helvetica,sans-Serif" font-size="10.00">/Detectors/ITSMFT/common</text>
<text text-anchor="start" x="254" y="-230.5" font-family="Helvetica,sans-Serif" font-size="10.00">/reconstruction/include</text>
<text text-anchor="middle" x="348" y="-219.5" font-family="Helvetica,sans-Serif" font-size="10.00">/ITSMFTReconstruction/ClusterTopology.h</text>
</g>
<!-- Node2 -->
<g id="node2" class="node"><title>Node2</title>
<g id="a_node2"><a xlink:href="../../d9/d1d/BuildTopologyDictionary_8h.html" target="_top" xlink:title="Definition of the BuildTopologyDictionary class. ">
<polygon fill="none" stroke="black" points="79,-101 79,-175 265,-175 265,-101 79,-101"/>
<text text-anchor="start" x="87" y="-163" font-family="Helvetica,sans-Serif" font-size="10.00">/home/travis/build</text>
<text text-anchor="start" x="87" y="-152" font-family="Helvetica,sans-Serif" font-size="10.00">/AliceO2Group/AliceO2</text>
<text text-anchor="start" x="87" y="-141" font-family="Helvetica,sans-Serif" font-size="10.00">/Detectors/ITSMFT/common</text>
<text text-anchor="start" x="87" y="-130" font-family="Helvetica,sans-Serif" font-size="10.00">/reconstruction/include</text>
<text text-anchor="start" x="87" y="-119" font-family="Helvetica,sans-Serif" font-size="10.00">/ITSMFTReconstruction/BuildTopology</text>
<text text-anchor="middle" x="172" y="-108" font-family="Helvetica,sans-Serif" font-size="10.00">Dictionary.h</text>
</a>
</g>
</g>
<!-- Node1&#45;&gt;Node2 -->
<g id="edge1" class="edge"><title>Node1&#45;&gt;Node2</title>
<path fill="none" stroke="midnightblue" d="M287.163,-207.051C269.676,-196.718 250.603,-185.447 233.101,-175.105"/>
<polygon fill="midnightblue" stroke="midnightblue" points="285.756,-210.285 296.146,-212.359 289.317,-204.258 285.756,-210.285"/>
</g>
<!-- Node4 -->
<g id="node4" class="node"><title>Node4</title>
<g id="a_node4"><a xlink:href="../../d9/db4/CheckTopologies_8C.html" target="_top" xlink:title="/home/travis/build\l/AliceO2Group/AliceO2\l/Detectors/ITSMFT/ITS\l/macros/test/CheckTopologies.C">
<polygon fill="none" stroke="black" points="180.5,-6 180.5,-58 341.5,-58 341.5,-6 180.5,-6"/>
<text text-anchor="start" x="188.5" y="-46" font-family="Helvetica,sans-Serif" font-size="10.00">/home/travis/build</text>
<text text-anchor="start" x="188.5" y="-35" font-family="Helvetica,sans-Serif" font-size="10.00">/AliceO2Group/AliceO2</text>
<text text-anchor="start" x="188.5" y="-24" font-family="Helvetica,sans-Serif" font-size="10.00">/Detectors/ITSMFT/ITS</text>
<text text-anchor="middle" x="261" y="-13" font-family="Helvetica,sans-Serif" font-size="10.00">/macros/test/CheckTopologies.C</text>
</a>
</g>
</g>
<!-- Node1&#45;&gt;Node4 -->
<g id="edge7" class="edge"><title>Node1&#45;&gt;Node4</title>
<path fill="none" stroke="midnightblue" d="M325.478,-203.443C320.767,-194.54 316.016,-185.047 312,-176 294.139,-135.769 277.878,-87.1726 268.73,-58.2458"/>
<polygon fill="midnightblue" stroke="midnightblue" points="322.515,-205.322 330.341,-212.463 328.677,-202 322.515,-205.322"/>
</g>
<!-- Node5 -->
<g id="node5" class="node"><title>Node5</title>
<g id="a_node5"><a xlink:href="../../df/ddf/LookUp_8h.html" target="_top" xlink:title="Definition of the LookUp class. ">
<polygon fill="none" stroke="black" points="320.5,-106.5 320.5,-169.5 487.5,-169.5 487.5,-106.5 320.5,-106.5"/>
<text text-anchor="start" x="328.5" y="-157.5" font-family="Helvetica,sans-Serif" font-size="10.00">/home/travis/build</text>
<text text-anchor="start" x="328.5" y="-146.5" font-family="Helvetica,sans-Serif" font-size="10.00">/AliceO2Group/AliceO2</text>
<text text-anchor="start" x="328.5" y="-135.5" font-family="Helvetica,sans-Serif" font-size="10.00">/Detectors/ITSMFT/common</text>
<text text-anchor="start" x="328.5" y="-124.5" font-family="Helvetica,sans-Serif" font-size="10.00">/reconstruction/include</text>
<text text-anchor="middle" x="404" y="-113.5" font-family="Helvetica,sans-Serif" font-size="10.00">/ITSMFTReconstruction/LookUp.h</text>
</a>
</g>
</g>
<!-- Node1&#45;&gt;Node5 -->
<g id="edge4" class="edge"><title>Node1&#45;&gt;Node5</title>
<path fill="none" stroke="midnightblue" d="M369.393,-203.269C375.37,-192.17 381.773,-180.279 387.425,-169.781"/>
<polygon fill="midnightblue" stroke="midnightblue" points="366.158,-201.895 364.499,-212.359 372.322,-205.214 366.158,-201.895"/>
</g>
<!-- Node7 -->
<g id="node7" class="node"><title>Node7</title>
<g id="a_node7"><a xlink:href="../../d8/d49/ClusterTopology_8cxx.html" target="_top" xlink:title="Implementation of the ClusterTopology class. ">
<polygon fill="none" stroke="black" points="505.5,-112 505.5,-164 696.5,-164 696.5,-112 505.5,-112"/>
<text text-anchor="start" x="513.5" y="-152" font-family="Helvetica,sans-Serif" font-size="10.00">/home/travis/build</text>
<text text-anchor="start" x="513.5" y="-141" font-family="Helvetica,sans-Serif" font-size="10.00">/AliceO2Group/AliceO2</text>
<text text-anchor="start" x="513.5" y="-130" font-family="Helvetica,sans-Serif" font-size="10.00">/Detectors/ITSMFT/common</text>
<text text-anchor="middle" x="601" y="-119" font-family="Helvetica,sans-Serif" font-size="10.00">/reconstruction/src/ClusterTopology.cxx</text>
</a>
</g>
</g>
<!-- Node1&#45;&gt;Node7 -->
<g id="edge6" class="edge"><title>Node1&#45;&gt;Node7</title>
<path fill="none" stroke="midnightblue" d="M431.561,-208.651C466.974,-194.093 507.482,-177.442 540.008,-164.072"/>
<polygon fill="midnightblue" stroke="midnightblue" points="430.117,-205.46 422.199,-212.499 432.779,-211.934 430.117,-205.46"/>
</g>
<!-- Node3 -->
<g id="node3" class="node"><title>Node3</title>
<g id="a_node3"><a xlink:href="../../d9/d9d/BuildTopologyDictionary_8cxx.html" target="_top" xlink:title="Implementation of the BuildTopologyDictionary class. ">
<polygon fill="none" stroke="black" points="0,-0.5 0,-63.5 162,-63.5 162,-0.5 0,-0.5"/>
<text text-anchor="start" x="8" y="-51.5" font-family="Helvetica,sans-Serif" font-size="10.00">/home/travis/build</text>
<text text-anchor="start" x="8" y="-40.5" font-family="Helvetica,sans-Serif" font-size="10.00">/AliceO2Group/AliceO2</text>
<text text-anchor="start" x="8" y="-29.5" font-family="Helvetica,sans-Serif" font-size="10.00">/Detectors/ITSMFT/common</text>
<text text-anchor="start" x="8" y="-18.5" font-family="Helvetica,sans-Serif" font-size="10.00">/reconstruction/src/BuildTopology</text>
<text text-anchor="middle" x="81" y="-7.5" font-family="Helvetica,sans-Serif" font-size="10.00">Dictionary.cxx</text>
</a>
</g>
</g>
<!-- Node2&#45;&gt;Node3 -->
<g id="edge2" class="edge"><title>Node2&#45;&gt;Node3</title>
<path fill="none" stroke="midnightblue" d="M133.612,-93.1284C124.99,-83.2741 116.018,-73.0206 107.977,-63.8307"/>
<polygon fill="midnightblue" stroke="midnightblue" points="131.209,-95.6967 140.428,-100.918 136.477,-91.0872 131.209,-95.6967"/>
</g>
<!-- Node2&#45;&gt;Node4 -->
<g id="edge3" class="edge"><title>Node2&#45;&gt;Node4</title>
<path fill="none" stroke="midnightblue" d="M209.493,-93.188C219.705,-81.2546 230.422,-68.7311 239.42,-58.217"/>
<polygon fill="midnightblue" stroke="midnightblue" points="206.721,-91.0443 202.878,-100.918 212.039,-95.5957 206.721,-91.0443"/>
</g>
<!-- Node6 -->
<g id="node6" class="node"><title>Node6</title>
<g id="a_node6"><a xlink:href="../../da/dd5/LookUp_8cxx.html" target="_top" xlink:title="Implementation of the LookUp class. ">
<polygon fill="none" stroke="black" points="359.5,-6 359.5,-58 512.5,-58 512.5,-6 359.5,-6"/>
<text text-anchor="start" x="367.5" y="-46" font-family="Helvetica,sans-Serif" font-size="10.00">/home/travis/build</text>
<text text-anchor="start" x="367.5" y="-35" font-family="Helvetica,sans-Serif" font-size="10.00">/AliceO2Group/AliceO2</text>
<text text-anchor="start" x="367.5" y="-24" font-family="Helvetica,sans-Serif" font-size="10.00">/Detectors/ITSMFT/common</text>
<text text-anchor="middle" x="436" y="-13" font-family="Helvetica,sans-Serif" font-size="10.00">/reconstruction/src/LookUp.cxx</text>
</a>
</g>
</g>
<!-- Node5&#45;&gt;Node6 -->
<g id="edge5" class="edge"><title>Node5&#45;&gt;Node6</title>
<path fill="none" stroke="midnightblue" d="M416.401,-96.6979C420.391,-83.728 424.697,-69.7342 428.254,-58.1755"/>
<polygon fill="midnightblue" stroke="midnightblue" points="413.024,-95.772 413.428,-106.359 419.714,-97.8306 413.024,-95.772"/>
</g>
</g>
</svg>
