<?xml version="1.0" encoding="UTF-8" standalone="no"?>
<!DOCTYPE svg PUBLIC "-//W3C//DTD SVG 1.1//EN"
 "http://www.w3.org/Graphics/SVG/1.1/DTD/svg11.dtd">
<!-- Generated by graphviz version 2.36.0 (20140111.2315)
 -->
<!-- Title: /home/travis/build/AliceO2Group/AliceO2/Detectors/TPC/simulation/include/TPCSimulation/ElectronTransport.h Pages: 1 -->
<!--zoomable 590 -->
<svg id="main" version="1.1" xmlns="http://www.w3.org/2000/svg" xmlns:xlink="http://www.w3.org/1999/xlink" xml:space="preserve" onload="init(evt)">
<style type="text/css"><![CDATA[
.edge:hover path { stroke: red; }
.edge:hover polygon { stroke: red; fill: red; }
]]></style>
<script type="text/javascript"><![CDATA[
var edges = document.getElementsByTagName('g');
if (edges && edges.length) {
  for (var i=0;i<edges.length;i++) {
    if (edges[i].id.substr(0,4)=='edge') {
      edges[i].setAttribute('class','edge');
    }
  }
}
]]></script>
        <defs>
                <circle id="rim" cx="0" cy="0" r="7"/>
                <circle id="rim2" cx="0" cy="0" r="3.5"/>
                <g id="zoomPlus">
                        <use xlink:href="#rim" fill="#404040">
                                <set attributeName="fill" to="#808080" begin="zoomplus.mouseover" end="zoomplus.mouseout"/>
                        </use>
                        <path d="M-4,0h8M0,-4v8" fill="none" stroke="white" stroke-width="1.5" pointer-events="none"/>
                </g>
                <g id="zoomMin">
                        <use xlink:href="#rim" fill="#404040">
                                <set attributeName="fill" to="#808080" begin="zoomminus.mouseover" end="zoomminus.mouseout"/>
                        </use>
                        <path d="M-4,0h8" fill="none" stroke="white" stroke-width="1.5" pointer-events="none"/>
                </g>
                <g id="dirArrow">
                        <path fill="none" stroke="white" stroke-width="1.5" d="M0,-3.0v7 M-2.5,-0.5L0,-3.0L2.5,-0.5"/>
                </g>
               <g id="resetDef">
                       <use xlink:href="#rim2" fill="#404040">
                               <set attributeName="fill" to="#808080" begin="reset.mouseover" end="reset.mouseout"/>
                       </use>
               </g>
        </defs>

<script type="text/javascript">
var viewWidth = 1531;
var viewHeight = 590;
var sectionId = 'dynsection-0';
</script>
<script xlink:href="../../svgpan.js"/>
<svg id="graph" class="graph">
<g id="viewport">
<title>/home/travis/build/AliceO2Group/AliceO2/Detectors/TPC/simulation/include/TPCSimulation/ElectronTransport.h</title>
<!-- Node1 -->
<g id="node1" class="node"><title>Node1</title>
<polygon fill="#bfbfbf" stroke="black" points="248.951,-529 248.951,-581 456.951,-581 456.951,-529 248.951,-529"/>
<text text-anchor="start" x="256.951" y="-569" font-family="Helvetica,sans-Serif" font-size="10.00">/home/travis/build</text>
<text text-anchor="start" x="256.951" y="-558" font-family="Helvetica,sans-Serif" font-size="10.00">/AliceO2Group/AliceO2</text>
<text text-anchor="start" x="256.951" y="-547" font-family="Helvetica,sans-Serif" font-size="10.00">/Detectors/TPC/simulation</text>
<text text-anchor="middle" x="352.951" y="-536" font-family="Helvetica,sans-Serif" font-size="10.00">/include/TPCSimulation/ElectronTransport.h</text>
</g>
<!-- Node2 -->
<g id="node2" class="node"><title>Node2</title>
<g id="a_node2"><a xlink:href="../../db/d5b/ParameterGas_8h.html" target="_top" xlink:title="Definition of the parameter class for the detector gas. ">
<polygon fill="none" stroke="black" points="285.951,-472.5 285.951,-491.5 419.951,-491.5 419.951,-472.5 285.951,-472.5"/>
<text text-anchor="middle" x="352.951" y="-479.5" font-family="Helvetica,sans-Serif" font-size="10.00">TPCBase/ParameterGas.h</text>
</a>
</g>
</g>
<!-- Node1&#45;&gt;Node2 -->
<g id="edge1" class="edge"><title>Node1&#45;&gt;Node2</title>
<path fill="none" stroke="midnightblue" d="M352.951,-528.768C352.951,-519.89 352.951,-510.074 352.951,-501.816"/>
<polygon fill="midnightblue" stroke="midnightblue" points="356.451,-501.757 352.951,-491.757 349.451,-501.757 356.451,-501.757"/>
</g>
<!-- Node4 -->
<g id="node4" class="node"><title>Node4</title>
<g id="a_node4"><a xlink:href="../../db/dac/RandomRing_8h.html" target="_top" xlink:title="TPCBase/RandomRing.h">
<polygon fill="none" stroke="black" points="111.951,-472.5 111.951,-491.5 239.951,-491.5 239.951,-472.5 111.951,-472.5"/>
<text text-anchor="middle" x="175.951" y="-479.5" font-family="Helvetica,sans-Serif" font-size="10.00">TPCBase/RandomRing.h</text>
</a>
</g>
</g>
<!-- Node1&#45;&gt;Node4 -->
<g id="edge3" class="edge"><title>Node1&#45;&gt;Node4</title>
<path fill="none" stroke="midnightblue" d="M290.548,-528.968C262.283,-517.63 230.119,-504.728 207.076,-495.485"/>
<polygon fill="midnightblue" stroke="midnightblue" points="208.072,-492.113 197.488,-491.639 205.466,-498.61 208.072,-492.113"/>
</g>
<!-- Node10 -->
<g id="node10" class="node"><title>Node10</title>
<g id="a_node10"><a xlink:href="../../d7/d2c/Mapper_8h.html" target="_top" xlink:title="TPCBase/Mapper.h">
<polygon fill="none" stroke="black" points="905.451,-472.5 905.451,-491.5 1008.45,-491.5 1008.45,-472.5 905.451,-472.5"/>
<text text-anchor="middle" x="956.951" y="-479.5" font-family="Helvetica,sans-Serif" font-size="10.00">TPCBase/Mapper.h</text>
</a>
</g>
</g>
<!-- Node1&#45;&gt;Node10 -->
<g id="edge9" class="edge"><title>Node1&#45;&gt;Node10</title>
<path fill="none" stroke="midnightblue" d="M457.126,-541.754C583.354,-526.916 791.911,-502.4 895.136,-490.266"/>
<polygon fill="midnightblue" stroke="midnightblue" points="895.568,-493.74 905.091,-489.096 894.751,-486.788 895.568,-493.74"/>
</g>
<!-- Node3 -->
<g id="node3" class="node"><title>Node3</title>
<polygon fill="none" stroke="#bfbfbf" points="333.951,-416.5 333.951,-435.5 371.951,-435.5 371.951,-416.5 333.951,-416.5"/>
<text text-anchor="middle" x="352.951" y="-423.5" font-family="Helvetica,sans-Serif" font-size="10.00">array</text>
</g>
<!-- Node2&#45;&gt;Node3 -->
<g id="edge2" class="edge"><title>Node2&#45;&gt;Node3</title>
<path fill="none" stroke="midnightblue" d="M352.951,-472.083C352.951,-465.006 352.951,-454.861 352.951,-445.986"/>
<polygon fill="midnightblue" stroke="midnightblue" points="356.451,-445.751 352.951,-435.751 349.451,-445.751 356.451,-445.751"/>
</g>
<!-- Node5 -->
<g id="node5" class="node"><title>Node5</title>
<polygon fill="none" stroke="#bfbfbf" points="17.9511,-416.5 17.9511,-435.5 107.951,-435.5 107.951,-416.5 17.9511,-416.5"/>
<text text-anchor="middle" x="62.9511" y="-423.5" font-family="Helvetica,sans-Serif" font-size="10.00">boost/format.hpp</text>
</g>
<!-- Node4&#45;&gt;Node5 -->
<g id="edge4" class="edge"><title>Node4&#45;&gt;Node5</title>
<path fill="none" stroke="midnightblue" d="M158.046,-472.444C139.697,-463.675 110.946,-449.935 89.8575,-439.858"/>
<polygon fill="midnightblue" stroke="midnightblue" points="91.3044,-436.67 80.7725,-435.516 88.2861,-442.986 91.3044,-436.67"/>
</g>
<!-- Node6 -->
<g id="node6" class="node"><title>Node6</title>
<polygon fill="none" stroke="#bfbfbf" points="125.951,-416.5 125.951,-435.5 169.951,-435.5 169.951,-416.5 125.951,-416.5"/>
<text text-anchor="middle" x="147.951" y="-423.5" font-family="Helvetica,sans-Serif" font-size="10.00">Vc/Vc</text>
</g>
<!-- Node4&#45;&gt;Node6 -->
<g id="edge5" class="edge"><title>Node4&#45;&gt;Node6</title>
<path fill="none" stroke="midnightblue" d="M171.328,-472.083C167.495,-464.691 161.927,-453.953 157.187,-444.811"/>
<polygon fill="midnightblue" stroke="midnightblue" points="160.199,-443.018 152.489,-435.751 153.985,-446.24 160.199,-443.018"/>
</g>
<!-- Node7 -->
<g id="node7" class="node"><title>Node7</title>
<polygon fill="none" stroke="#bfbfbf" points="519.951,-360.5 519.951,-379.5 563.951,-379.5 563.951,-360.5 519.951,-360.5"/>
<text text-anchor="middle" x="541.951" y="-367.5" font-family="Helvetica,sans-Serif" font-size="10.00">vector</text>
</g>
<!-- Node4&#45;&gt;Node7 -->
<g id="edge6" class="edge"><title>Node4&#45;&gt;Node7</title>
<path fill="none" stroke="midnightblue" d="M111.701,-476.217C51.2491,-469.38 -25.261,-453.222 8.95113,-416 42.8945,-379.07 399.189,-372.423 509.55,-371.248"/>
<polygon fill="midnightblue" stroke="midnightblue" points="509.771,-374.746 519.736,-371.147 509.702,-367.746 509.771,-374.746"/>
</g>
<!-- Node8 -->
<g id="node8" class="node"><title>Node8</title>
<polygon fill="none" stroke="#bfbfbf" points="187.951,-416.5 187.951,-435.5 229.951,-435.5 229.951,-416.5 187.951,-416.5"/>
<text text-anchor="middle" x="208.951" y="-423.5" font-family="Helvetica,sans-Serif" font-size="10.00">TF1.h</text>
</g>
<!-- Node4&#45;&gt;Node8 -->
<g id="edge7" class="edge"><title>Node4&#45;&gt;Node8</title>
<path fill="none" stroke="midnightblue" d="M181.4,-472.083C185.966,-464.613 192.62,-453.724 198.245,-444.52"/>
<polygon fill="midnightblue" stroke="midnightblue" points="201.375,-446.109 203.603,-435.751 195.402,-442.459 201.375,-446.109"/>
</g>
<!-- Node9 -->
<g id="node9" class="node"><title>Node9</title>
<polygon fill="none" stroke="#bfbfbf" points="247.951,-416.5 247.951,-435.5 315.951,-435.5 315.951,-416.5 247.951,-416.5"/>
<text text-anchor="middle" x="281.951" y="-423.5" font-family="Helvetica,sans-Serif" font-size="10.00">TRandom.h</text>
</g>
<!-- Node4&#45;&gt;Node9 -->
<g id="edge8" class="edge"><title>Node4&#45;&gt;Node9</title>
<path fill="none" stroke="midnightblue" d="M192.982,-472.324C209.981,-463.664 236.327,-450.242 255.944,-440.249"/>
<polygon fill="midnightblue" stroke="midnightblue" points="257.641,-443.312 264.963,-435.655 254.463,-437.075 257.641,-443.312"/>
</g>
<!-- Node10&#45;&gt;Node3 -->
<g id="edge12" class="edge"><title>Node10&#45;&gt;Node3</title>
<path fill="none" stroke="midnightblue" d="M905.163,-480.974C805.302,-480.057 579.295,-473.772 382.041,-435.749"/>
<polygon fill="midnightblue" stroke="midnightblue" points="382.563,-432.285 372.076,-433.796 381.216,-439.154 382.563,-432.285"/>
</g>
<!-- Node10&#45;&gt;Node7 -->
<g id="edge11" class="edge"><title>Node10&#45;&gt;Node7</title>
<path fill="none" stroke="midnightblue" d="M905.389,-478.297C804.124,-472.538 586.821,-457.78 560.951,-436 547.621,-424.777 543.357,-404.76 542.13,-389.895"/>
<polygon fill="midnightblue" stroke="midnightblue" points="545.621,-389.599 541.684,-379.763 538.627,-389.907 545.621,-389.599"/>
</g>
<!-- Node11 -->
<g id="node11" class="node"><title>Node11</title>
<polygon fill="none" stroke="#bfbfbf" points="1326.45,-416.5 1326.45,-435.5 1361.45,-435.5 1361.45,-416.5 1326.45,-416.5"/>
<text text-anchor="middle" x="1343.95" y="-423.5" font-family="Helvetica,sans-Serif" font-size="10.00">map</text>
</g>
<!-- Node10&#45;&gt;Node11 -->
<g id="edge10" class="edge"><title>Node10&#45;&gt;Node11</title>
<path fill="none" stroke="midnightblue" d="M1008.49,-476.879C1077.91,-470.78 1205.1,-457.674 1311.95,-436 1313.4,-435.706 1314.88,-435.381 1316.37,-435.033"/>
<polygon fill="midnightblue" stroke="midnightblue" points="1317.32,-438.404 1326.13,-432.518 1315.57,-431.626 1317.32,-438.404"/>
</g>
<!-- Node12 -->
<g id="node12" class="node"><title>Node12</title>
<polygon fill="none" stroke="#bfbfbf" points="1379.45,-416.5 1379.45,-435.5 1420.45,-435.5 1420.45,-416.5 1379.45,-416.5"/>
<text text-anchor="middle" x="1399.95" y="-423.5" font-family="Helvetica,sans-Serif" font-size="10.00">string</text>
</g>
<!-- Node10&#45;&gt;Node12 -->
<g id="edge13" class="edge"><title>Node10&#45;&gt;Node12</title>
<path fill="none" stroke="midnightblue" d="M1008.6,-478.412C1085.33,-473.902 1233.99,-462.612 1369.29,-435.745"/>
<polygon fill="midnightblue" stroke="midnightblue" points="1370.31,-439.11 1379.42,-433.699 1368.93,-432.248 1370.31,-439.11"/>
</g>
<!-- Node13 -->
<g id="node13" class="node"><title>Node13</title>
<polygon fill="none" stroke="#bfbfbf" points="1099.95,-136.5 1099.95,-155.5 1143.95,-155.5 1143.95,-136.5 1099.95,-136.5"/>
<text text-anchor="middle" x="1121.95" y="-143.5" font-family="Helvetica,sans-Serif" font-size="10.00">cmath</text>
</g>
<!-- Node10&#45;&gt;Node13 -->
<g id="edge14" class="edge"><title>Node10&#45;&gt;Node13</title>
<path fill="none" stroke="midnightblue" d="M1008.69,-473.15C1095.23,-458.547 1259.95,-423.815 1259.95,-371 1259.95,-371 1259.95,-371 1259.95,-257 1259.95,-202.938 1194.39,-171.143 1153.64,-156.603"/>
<polygon fill="midnightblue" stroke="midnightblue" points="1154.72,-153.271 1144.12,-153.355 1152.46,-159.896 1154.72,-153.271"/>
</g>
<!-- Node14 -->
<g id="node14" class="node"><title>Node14</title>
<g id="a_node14"><a xlink:href="../../d1/d73/Defs_8h.html" target="_top" xlink:title="Common definitions for 2D coordinates. ">
<polygon fill="none" stroke="black" points="836.951,-192.5 836.951,-211.5 928.951,-211.5 928.951,-192.5 836.951,-192.5"/>
<text text-anchor="middle" x="882.951" y="-199.5" font-family="Helvetica,sans-Serif" font-size="10.00">TPCBase/Defs.h</text>
</a>
</g>
</g>
<!-- Node10&#45;&gt;Node14 -->
<g id="edge15" class="edge"><title>Node10&#45;&gt;Node14</title>
<path fill="none" stroke="midnightblue" d="M1008.46,-478.184C1075.44,-471.425 1183.95,-448.514 1183.95,-371 1183.95,-371 1183.95,-371 1183.95,-313 1183.95,-261.422 1026.06,-226.855 938.99,-211.714"/>
<polygon fill="midnightblue" stroke="midnightblue" points="939.441,-208.24 928.994,-210.007 938.262,-215.14 939.441,-208.24"/>
</g>
<!-- Node27 -->
<g id="node27" class="node"><title>Node27</title>
<g id="a_node27"><a xlink:href="../../de/d41/PadPos_8h.html" target="_top" xlink:title="TPCBase/PadPos.h">
<polygon fill="none" stroke="black" points="700.451,-304.5 700.451,-323.5 805.451,-323.5 805.451,-304.5 700.451,-304.5"/>
<text text-anchor="middle" x="752.951" y="-311.5" font-family="Helvetica,sans-Serif" font-size="10.00">TPCBase/PadPos.h</text>
</a>
</g>
</g>
<!-- Node10&#45;&gt;Node27 -->
<g id="edge30" class="edge"><title>Node10&#45;&gt;Node27</title>
<path fill="none" stroke="midnightblue" d="M908.969,-472.438C859.88,-460.844 786.112,-434.912 751.951,-380 743.39,-366.238 744.748,-347.461 747.592,-333.627"/>
<polygon fill="midnightblue" stroke="midnightblue" points="751.023,-334.33 750.029,-323.782 744.228,-332.648 751.023,-334.33"/>
</g>
<!-- Node28 -->
<g id="node28" class="node"><title>Node28</title>
<g id="a_node28"><a xlink:href="../../dd/d0b/PadSecPos_8h.html" target="_top" xlink:title="TPCBase/PadSecPos.h">
<polygon fill="none" stroke="black" points="1033.95,-360.5 1033.95,-379.5 1155.95,-379.5 1155.95,-360.5 1033.95,-360.5"/>
<text text-anchor="middle" x="1094.95" y="-367.5" font-family="Helvetica,sans-Serif" font-size="10.00">TPCBase/PadSecPos.h</text>
</a>
</g>
</g>
<!-- Node10&#45;&gt;Node28 -->
<g id="edge31" class="edge"><title>Node10&#45;&gt;Node28</title>
<path fill="none" stroke="midnightblue" d="M969.757,-472.376C982.671,-463.558 1003.06,-449.307 1019.95,-436 1040.51,-419.808 1063.07,-399.951 1078.02,-386.476"/>
<polygon fill="midnightblue" stroke="midnightblue" points="1080.43,-389.02 1085.49,-379.711 1075.73,-383.834 1080.43,-389.02"/>
</g>
<!-- Node29 -->
<g id="node29" class="node"><title>Node29</title>
<g id="a_node29"><a xlink:href="../../d3/dd6/Sector_8h.html" target="_top" xlink:title="TPCBase/Sector.h">
<polygon fill="none" stroke="black" points="983.451,-248.5 983.451,-267.5 1082.45,-267.5 1082.45,-248.5 983.451,-248.5"/>
<text text-anchor="middle" x="1032.95" y="-255.5" font-family="Helvetica,sans-Serif" font-size="10.00">TPCBase/Sector.h</text>
</a>
</g>
</g>
<!-- Node10&#45;&gt;Node29 -->
<g id="edge57" class="edge"><title>Node10&#45;&gt;Node29</title>
<path fill="none" stroke="midnightblue" d="M1006.53,-472.443C1056.31,-460.925 1130.44,-435.12 1164.95,-380 1195.05,-331.93 1115.21,-290.924 1066.85,-271.325"/>
<polygon fill="midnightblue" stroke="midnightblue" points="1067.93,-267.991 1057.34,-267.584 1065.37,-274.504 1067.93,-267.991"/>
</g>
<!-- Node31 -->
<g id="node31" class="node"><title>Node31</title>
<g id="a_node31"><a xlink:href="../../da/d61/PadROCPos_8h.html" target="_top" xlink:title="TPCBase/PadROCPos.h">
<polygon fill="none" stroke="black" points="775.951,-360.5 775.951,-379.5 903.951,-379.5 903.951,-360.5 775.951,-360.5"/>
<text text-anchor="middle" x="839.951" y="-367.5" font-family="Helvetica,sans-Serif" font-size="10.00">TPCBase/PadROCPos.h</text>
</a>
</g>
</g>
<!-- Node10&#45;&gt;Node31 -->
<g id="edge36" class="edge"><title>Node10&#45;&gt;Node31</title>
<path fill="none" stroke="midnightblue" d="M942.908,-472.462C929.601,-464.038 909.407,-450.368 893.951,-436 877.909,-421.087 862.212,-401.461 851.914,-387.691"/>
<polygon fill="midnightblue" stroke="midnightblue" points="854.713,-385.59 845.977,-379.597 849.069,-389.73 854.713,-385.59"/>
</g>
<!-- Node33 -->
<g id="node33" class="node"><title>Node33</title>
<g id="a_node33"><a xlink:href="../../d3/d54/DigitPos_8h.html" target="_top" xlink:title="TPCBase/DigitPos.h">
<polygon fill="none" stroke="black" points="902.951,-416.5 902.951,-435.5 1010.95,-435.5 1010.95,-416.5 902.951,-416.5"/>
<text text-anchor="middle" x="956.951" y="-423.5" font-family="Helvetica,sans-Serif" font-size="10.00">TPCBase/DigitPos.h</text>
</a>
</g>
</g>
<!-- Node10&#45;&gt;Node33 -->
<g id="edge42" class="edge"><title>Node10&#45;&gt;Node33</title>
<path fill="none" stroke="midnightblue" d="M956.951,-472.083C956.951,-465.006 956.951,-454.861 956.951,-445.986"/>
<polygon fill="midnightblue" stroke="midnightblue" points="960.451,-445.751 956.951,-435.751 953.451,-445.751 960.451,-445.751"/>
</g>
<!-- Node35 -->
<g id="node35" class="node"><title>Node35</title>
<g id="a_node35"><a xlink:href="../../d1/d1f/FECInfo_8h.html" target="_top" xlink:title="TPCBase/FECInfo.h">
<polygon fill="none" stroke="black" points="1365.45,-248.5 1365.45,-267.5 1472.45,-267.5 1472.45,-248.5 1365.45,-248.5"/>
<text text-anchor="middle" x="1418.95" y="-255.5" font-family="Helvetica,sans-Serif" font-size="10.00">TPCBase/FECInfo.h</text>
</a>
</g>
</g>
<!-- Node10&#45;&gt;Node35 -->
<g id="edge50" class="edge"><title>Node10&#45;&gt;Node35</title>
<path fill="none" stroke="midnightblue" d="M1008.77,-478.196C1086.69,-473.225 1229.63,-460.951 1273.95,-436 1342.3,-397.525 1391.47,-313.115 1410.39,-276.51"/>
<polygon fill="midnightblue" stroke="midnightblue" points="1413.54,-278.036 1414.91,-267.531 1407.29,-274.885 1413.54,-278.036"/>
</g>
<!-- Node36 -->
<g id="node36" class="node"><title>Node36</title>
<g id="a_node36"><a xlink:href="../../da/d9d/PadRegionInfo_8h.html" target="_top" xlink:title="TPCBase/PadRegionInfo.h">
<polygon fill="none" stroke="black" points="570.451,-416.5 570.451,-435.5 705.451,-435.5 705.451,-416.5 570.451,-416.5"/>
<text text-anchor="middle" x="637.951" y="-423.5" font-family="Helvetica,sans-Serif" font-size="10.00">TPCBase/PadRegionInfo.h</text>
</a>
</g>
</g>
<!-- Node10&#45;&gt;Node36 -->
<g id="edge52" class="edge"><title>Node10&#45;&gt;Node36</title>
<path fill="none" stroke="midnightblue" d="M906.405,-472.444C849.939,-462.885 758.577,-447.419 698.382,-437.23"/>
<polygon fill="midnightblue" stroke="midnightblue" points="698.705,-433.735 688.261,-435.516 697.537,-440.636 698.705,-433.735"/>
</g>
<!-- Node37 -->
<g id="node37" class="node"><title>Node37</title>
<g id="a_node37"><a xlink:href="../../d6/d42/PartitionInfo_8h.html" target="_top" xlink:title="TPCBase/PartitionInfo.h">
<polygon fill="none" stroke="black" points="390.451,-416.5 390.451,-435.5 513.451,-435.5 513.451,-416.5 390.451,-416.5"/>
<text text-anchor="middle" x="451.951" y="-423.5" font-family="Helvetica,sans-Serif" font-size="10.00">TPCBase/PartitionInfo.h</text>
</a>
</g>
</g>
<!-- Node10&#45;&gt;Node37 -->
<g id="edge56" class="edge"><title>Node10&#45;&gt;Node37</title>
<path fill="none" stroke="midnightblue" d="M905.419,-475.819C824.846,-467.668 664.149,-451.207 527.951,-436 526.651,-435.855 525.339,-435.708 524.017,-435.559"/>
<polygon fill="midnightblue" stroke="midnightblue" points="524.077,-432.043 513.745,-434.388 523.284,-438.998 524.077,-432.043"/>
</g>
<!-- Node14&#45;&gt;Node13 -->
<g id="edge16" class="edge"><title>Node14&#45;&gt;Node13</title>
<path fill="none" stroke="midnightblue" d="M920.821,-192.444C967.492,-181.899 1045.98,-164.165 1089.84,-154.256"/>
<polygon fill="midnightblue" stroke="midnightblue" points="1090.7,-157.649 1099.68,-152.032 1089.16,-150.822 1090.7,-157.649"/>
</g>
<!-- Node15 -->
<g id="node15" class="node"><title>Node15</title>
<g id="a_node15"><a xlink:href="../../d2/dd0/Cartesian2D_8h.html" target="_top" xlink:title="MathUtils/Cartesian2D.h">
<polygon fill="none" stroke="black" points="275.451,-74.5 275.451,-93.5 400.451,-93.5 400.451,-74.5 275.451,-74.5"/>
<text text-anchor="middle" x="337.951" y="-81.5" font-family="Helvetica,sans-Serif" font-size="10.00">MathUtils/Cartesian2D.h</text>
</a>
</g>
</g>
<!-- Node14&#45;&gt;Node15 -->
<g id="edge17" class="edge"><title>Node14&#45;&gt;Node15</title>
<path fill="none" stroke="midnightblue" d="M842.876,-192.47C745.238,-171.689 495.224,-118.475 388.005,-95.6537"/>
<polygon fill="midnightblue" stroke="midnightblue" points="388.595,-92.2008 378.085,-93.5423 387.137,-99.0475 388.595,-92.2008"/>
</g>
<!-- Node18 -->
<g id="node18" class="node"><title>Node18</title>
<g id="a_node18"><a xlink:href="../../dd/d76/Cartesian3D_8h.html" target="_top" xlink:title="MathUtils/Cartesian3D.h">
<polygon fill="none" stroke="black" points="820.451,-136.5 820.451,-155.5 945.451,-155.5 945.451,-136.5 820.451,-136.5"/>
<text text-anchor="middle" x="882.951" y="-143.5" font-family="Helvetica,sans-Serif" font-size="10.00">MathUtils/Cartesian3D.h</text>
</a>
</g>
</g>
<!-- Node14&#45;&gt;Node18 -->
<g id="edge20" class="edge"><title>Node14&#45;&gt;Node18</title>
<path fill="none" stroke="midnightblue" d="M882.951,-192.083C882.951,-185.006 882.951,-174.861 882.951,-165.986"/>
<polygon fill="midnightblue" stroke="midnightblue" points="886.451,-165.751 882.951,-155.751 879.451,-165.751 886.451,-165.751"/>
</g>
<!-- Node16 -->
<g id="node16" class="node"><title>Node16</title>
<polygon fill="none" stroke="#bfbfbf" points="171.451,-1 171.451,-31 322.451,-31 322.451,-1 171.451,-1"/>
<text text-anchor="start" x="179.451" y="-19" font-family="Helvetica,sans-Serif" font-size="10.00">Math/GenVector/Displacement</text>
<text text-anchor="middle" x="246.951" y="-8" font-family="Helvetica,sans-Serif" font-size="10.00">Vector2D.h</text>
</g>
<!-- Node15&#45;&gt;Node16 -->
<g id="edge18" class="edge"><title>Node15&#45;&gt;Node16</title>
<path fill="none" stroke="midnightblue" d="M326.054,-74.3717C313.172,-65.0286 292.171,-49.7966 275.044,-37.375"/>
<polygon fill="midnightblue" stroke="midnightblue" points="276.654,-34.2194 266.504,-31.1815 272.545,-39.8859 276.654,-34.2194"/>
</g>
<!-- Node17 -->
<g id="node17" class="node"><title>Node17</title>
<polygon fill="none" stroke="#bfbfbf" points="340.951,-6.5 340.951,-25.5 516.951,-25.5 516.951,-6.5 340.951,-6.5"/>
<text text-anchor="middle" x="428.951" y="-13.5" font-family="Helvetica,sans-Serif" font-size="10.00">Math/GenVector/PositionVector2D.h</text>
</g>
<!-- Node15&#45;&gt;Node17 -->
<g id="edge19" class="edge"><title>Node15&#45;&gt;Node17</title>
<path fill="none" stroke="midnightblue" d="M349.848,-74.3717C364.835,-63.5015 390.814,-44.6602 408.893,-31.5474"/>
<polygon fill="midnightblue" stroke="midnightblue" points="411.011,-34.3349 417.052,-25.6305 406.902,-28.6684 411.011,-34.3349"/>
</g>
<!-- Node18&#45;&gt;Node15 -->
<g id="edge29" class="edge"><title>Node18&#45;&gt;Node15</title>
<path fill="none" stroke="midnightblue" d="M820.322,-141.254C729.512,-135.322 556.149,-122.114 409.951,-100 401.873,-98.7781 393.336,-97.23 385.072,-95.595"/>
<polygon fill="midnightblue" stroke="midnightblue" points="385.677,-92.1463 375.179,-93.5738 384.276,-99.0047 385.677,-92.1463"/>
</g>
<!-- Node19 -->
<g id="node19" class="node"><title>Node19</title>
<polygon fill="none" stroke="#bfbfbf" points="939.451,-69 939.451,-99 1090.45,-99 1090.45,-69 939.451,-69"/>
<text text-anchor="start" x="947.451" y="-87" font-family="Helvetica,sans-Serif" font-size="10.00">Math/GenVector/Displacement</text>
<text text-anchor="middle" x="1014.95" y="-76" font-family="Helvetica,sans-Serif" font-size="10.00">Vector3D.h</text>
</g>
<!-- Node18&#45;&gt;Node19 -->
<g id="edge21" class="edge"><title>Node18&#45;&gt;Node19</title>
<path fill="none" stroke="midnightblue" d="M901.864,-136.403C920.806,-127.793 950.548,-114.274 974.776,-103.261"/>
<polygon fill="midnightblue" stroke="midnightblue" points="976.44,-106.35 984.095,-99.0253 973.543,-99.9771 976.44,-106.35"/>
</g>
<!-- Node20 -->
<g id="node20" class="node"><title>Node20</title>
<polygon fill="none" stroke="#bfbfbf" points="1108.95,-74.5 1108.95,-93.5 1284.95,-93.5 1284.95,-74.5 1108.95,-74.5"/>
<text text-anchor="middle" x="1196.95" y="-81.5" font-family="Helvetica,sans-Serif" font-size="10.00">Math/GenVector/PositionVector3D.h</text>
</g>
<!-- Node18&#45;&gt;Node20 -->
<g id="edge22" class="edge"><title>Node18&#45;&gt;Node20</title>
<path fill="none" stroke="midnightblue" d="M927.606,-136.467C984.106,-125.671 1081.37,-107.086 1142.26,-95.4501"/>
<polygon fill="midnightblue" stroke="midnightblue" points="1143.28,-98.8181 1152.45,-93.5034 1141.97,-91.9425 1143.28,-98.8181"/>
</g>
<!-- Node21 -->
<g id="node21" class="node"><title>Node21</title>
<polygon fill="none" stroke="#bfbfbf" points="1302.45,-74.5 1302.45,-93.5 1451.45,-93.5 1451.45,-74.5 1302.45,-74.5"/>
<text text-anchor="middle" x="1376.95" y="-81.5" font-family="Helvetica,sans-Serif" font-size="10.00">Math/GenVector/Rotation3D.h</text>
</g>
<!-- Node18&#45;&gt;Node21 -->
<g id="edge23" class="edge"><title>Node18&#45;&gt;Node21</title>
<path fill="none" stroke="midnightblue" d="M945.632,-139.444C1026.2,-132 1170.33,-117.656 1292.95,-100 1302.53,-98.621 1312.69,-96.9693 1322.5,-95.2738"/>
<polygon fill="midnightblue" stroke="midnightblue" points="1323.33,-98.6817 1332.58,-93.5006 1322.12,-91.7877 1323.33,-98.6817"/>
</g>
<!-- Node22 -->
<g id="node22" class="node"><title>Node22</title>
<polygon fill="none" stroke="#bfbfbf" points="418.951,-74.5 418.951,-93.5 574.951,-93.5 574.951,-74.5 418.951,-74.5"/>
<text text-anchor="middle" x="496.951" y="-81.5" font-family="Helvetica,sans-Serif" font-size="10.00">Math/GenVector/Transform3D.h</text>
</g>
<!-- Node18&#45;&gt;Node22 -->
<g id="edge24" class="edge"><title>Node18&#45;&gt;Node22</title>
<path fill="none" stroke="midnightblue" d="M823.892,-136.491C763.537,-127.707 667.128,-113.428 583.951,-100 574.63,-98.4952 564.757,-96.8461 555.138,-95.2092"/>
<polygon fill="midnightblue" stroke="midnightblue" points="555.687,-91.7523 545.239,-93.5144 554.505,-98.6519 555.687,-91.7523"/>
</g>
<!-- Node23 -->
<g id="node23" class="node"><title>Node23</title>
<polygon fill="none" stroke="#bfbfbf" points="592.951,-74.5 592.951,-93.5 752.951,-93.5 752.951,-74.5 592.951,-74.5"/>
<text text-anchor="middle" x="672.951" y="-81.5" font-family="Helvetica,sans-Serif" font-size="10.00">Math/GenVector/Translation3D.h</text>
</g>
<!-- Node18&#45;&gt;Node23 -->
<g id="edge25" class="edge"><title>Node18&#45;&gt;Node23</title>
<path fill="none" stroke="midnightblue" d="M852.863,-136.403C816.061,-125.889 753.64,-108.054 712.857,-96.4016"/>
<polygon fill="midnightblue" stroke="midnightblue" points="713.56,-92.9625 702.983,-93.5806 711.637,-99.6932 713.56,-92.9625"/>
</g>
<!-- Node24 -->
<g id="node24" class="node"><title>Node24</title>
<polygon fill="none" stroke="#bfbfbf" points="770.951,-74.5 770.951,-93.5 826.951,-93.5 826.951,-74.5 770.951,-74.5"/>
<text text-anchor="middle" x="798.951" y="-81.5" font-family="Helvetica,sans-Serif" font-size="10.00">Rtypes.h</text>
</g>
<!-- Node18&#45;&gt;Node24 -->
<g id="edge26" class="edge"><title>Node18&#45;&gt;Node24</title>
<path fill="none" stroke="midnightblue" d="M870.916,-136.403C857.443,-126.78 835.385,-111.024 819.236,-99.4891"/>
<polygon fill="midnightblue" stroke="midnightblue" points="821.136,-96.5449 810.964,-93.5806 817.067,-102.241 821.136,-96.5449"/>
</g>
<!-- Node25 -->
<g id="node25" class="node"><title>Node25</title>
<polygon fill="none" stroke="#bfbfbf" points="844.951,-74.5 844.951,-93.5 920.951,-93.5 920.951,-74.5 844.951,-74.5"/>
<text text-anchor="middle" x="882.951" y="-81.5" font-family="Helvetica,sans-Serif" font-size="10.00">TGeoMatrix.h</text>
</g>
<!-- Node18&#45;&gt;Node25 -->
<g id="edge27" class="edge"><title>Node18&#45;&gt;Node25</title>
<path fill="none" stroke="midnightblue" d="M882.951,-136.403C882.951,-127.938 882.951,-114.728 882.951,-103.82"/>
<polygon fill="midnightblue" stroke="midnightblue" points="886.451,-103.581 882.951,-93.5806 879.451,-103.581 886.451,-103.581"/>
</g>
<!-- Node26 -->
<g id="node26" class="node"><title>Node26</title>
<polygon fill="none" stroke="#bfbfbf" points="1468.95,-74.5 1468.95,-93.5 1522.95,-93.5 1522.95,-74.5 1468.95,-74.5"/>
<text text-anchor="middle" x="1495.95" y="-81.5" font-family="Helvetica,sans-Serif" font-size="10.00">iostream</text>
</g>
<!-- Node18&#45;&gt;Node26 -->
<g id="edge28" class="edge"><title>Node18&#45;&gt;Node26</title>
<path fill="none" stroke="midnightblue" d="M945.925,-142.603C1074.65,-137.292 1363.85,-123.141 1459.95,-100 1462.95,-99.2782 1466.02,-98.3387 1469.04,-97.2818"/>
<polygon fill="midnightblue" stroke="midnightblue" points="1470.34,-100.53 1478.38,-93.6279 1467.79,-94.0111 1470.34,-100.53"/>
</g>
<!-- Node28&#45;&gt;Node27 -->
<g id="edge35" class="edge"><title>Node28&#45;&gt;Node27</title>
<path fill="none" stroke="midnightblue" d="M1040.76,-360.444C979.527,-350.775 880.014,-335.063 815.524,-324.88"/>
<polygon fill="midnightblue" stroke="midnightblue" points="815.909,-321.397 805.485,-323.295 814.817,-328.312 815.909,-321.397"/>
</g>
<!-- Node28&#45;&gt;Node29 -->
<g id="edge32" class="edge"><title>Node28&#45;&gt;Node29</title>
<path fill="none" stroke="midnightblue" d="M1090.09,-360.368C1079.9,-342.296 1056.16,-300.176 1042.71,-276.307"/>
<polygon fill="midnightblue" stroke="midnightblue" points="1045.75,-274.584 1037.79,-267.591 1039.65,-278.022 1045.75,-274.584"/>
</g>
<!-- Node29&#45;&gt;Node14 -->
<g id="edge34" class="edge"><title>Node29&#45;&gt;Node14</title>
<path fill="none" stroke="midnightblue" d="M1009.18,-248.444C984.058,-239.399 944.24,-225.064 916.051,-214.916"/>
<polygon fill="midnightblue" stroke="midnightblue" points="917.202,-211.611 906.608,-211.516 914.831,-218.197 917.202,-211.611"/>
</g>
<!-- Node30 -->
<g id="node30" class="node"><title>Node30</title>
<g id="a_node30"><a xlink:href="../../d6/d51/TPC_2base_2include_2TPCBase_2Constants_8h.html" target="_top" xlink:title="TPCBase/Constants.h">
<polygon fill="none" stroke="black" points="974.951,-192.5 974.951,-211.5 1090.95,-211.5 1090.95,-192.5 974.951,-192.5"/>
<text text-anchor="middle" x="1032.95" y="-199.5" font-family="Helvetica,sans-Serif" font-size="10.00">TPCBase/Constants.h</text>
</a>
</g>
</g>
<!-- Node29&#45;&gt;Node30 -->
<g id="edge33" class="edge"><title>Node29&#45;&gt;Node30</title>
<path fill="none" stroke="midnightblue" d="M1032.95,-248.083C1032.95,-241.006 1032.95,-230.861 1032.95,-221.986"/>
<polygon fill="midnightblue" stroke="midnightblue" points="1036.45,-221.751 1032.95,-211.751 1029.45,-221.751 1036.45,-221.751"/>
</g>
<!-- Node31&#45;&gt;Node14 -->
<g id="edge37" class="edge"><title>Node31&#45;&gt;Node14</title>
<path fill="none" stroke="midnightblue" d="M842.263,-360.075C849.032,-333.945 868.909,-257.211 878.139,-221.577"/>
<polygon fill="midnightblue" stroke="midnightblue" points="881.612,-222.126 880.732,-211.568 874.836,-220.371 881.612,-222.126"/>
</g>
<!-- Node31&#45;&gt;Node27 -->
<g id="edge41" class="edge"><title>Node31&#45;&gt;Node27</title>
<path fill="none" stroke="midnightblue" d="M825.973,-360.324C812.402,-351.9 791.571,-338.971 775.626,-329.074"/>
<polygon fill="midnightblue" stroke="midnightblue" points="777.237,-325.954 766.895,-323.655 773.545,-331.902 777.237,-325.954"/>
</g>
<!-- Node32 -->
<g id="node32" class="node"><title>Node32</title>
<g id="a_node32"><a xlink:href="../../dc/d14/ROC_8h.html" target="_top" xlink:title="TPCBase/ROC.h">
<polygon fill="none" stroke="black" points="911.451,-304.5 911.451,-323.5 1004.45,-323.5 1004.45,-304.5 911.451,-304.5"/>
<text text-anchor="middle" x="957.951" y="-311.5" font-family="Helvetica,sans-Serif" font-size="10.00">TPCBase/ROC.h</text>
</a>
</g>
</g>
<!-- Node31&#45;&gt;Node32 -->
<g id="edge38" class="edge"><title>Node31&#45;&gt;Node32</title>
<path fill="none" stroke="midnightblue" d="M858.649,-360.444C877.896,-351.636 908.104,-337.812 930.151,-327.722"/>
<polygon fill="midnightblue" stroke="midnightblue" points="931.705,-330.86 939.341,-323.516 928.792,-324.495 931.705,-330.86"/>
</g>
<!-- Node32&#45;&gt;Node14 -->
<g id="edge39" class="edge"><title>Node32&#45;&gt;Node14</title>
<path fill="none" stroke="midnightblue" d="M952.066,-304.368C939.689,-286.215 910.77,-243.802 894.535,-219.99"/>
<polygon fill="midnightblue" stroke="midnightblue" points="897.334,-217.882 888.809,-211.591 891.551,-221.825 897.334,-217.882"/>
</g>
<!-- Node32&#45;&gt;Node29 -->
<g id="edge40" class="edge"><title>Node32&#45;&gt;Node29</title>
<path fill="none" stroke="midnightblue" d="M970.001,-304.324C981.414,-296.107 998.782,-283.602 1012.39,-273.807"/>
<polygon fill="midnightblue" stroke="midnightblue" points="1014.61,-276.517 1020.68,-267.834 1010.52,-270.837 1014.61,-276.517"/>
</g>
<!-- Node33&#45;&gt;Node14 -->
<g id="edge43" class="edge"><title>Node33&#45;&gt;Node14</title>
<path fill="none" stroke="midnightblue" d="M902.914,-424.755C835.672,-421.016 725.482,-402.575 690.951,-324 663.51,-261.556 760.979,-228.234 826.972,-213.202"/>
<polygon fill="midnightblue" stroke="midnightblue" points="827.848,-216.593 836.865,-211.03 826.347,-209.755 827.848,-216.593"/>
</g>
<!-- Node33&#45;&gt;Node27 -->
<g id="edge48" class="edge"><title>Node33&#45;&gt;Node27</title>
<path fill="none" stroke="midnightblue" d="M902.509,-418.609C853.246,-411.707 785.634,-399.068 766.951,-380 755.222,-368.029 752.294,-348.729 751.957,-334.264"/>
<polygon fill="midnightblue" stroke="midnightblue" points="755.461,-333.987 752.123,-323.932 748.462,-333.875 755.461,-333.987"/>
</g>
<!-- Node33&#45;&gt;Node28 -->
<g id="edge49" class="edge"><title>Node33&#45;&gt;Node28</title>
<path fill="none" stroke="midnightblue" d="M978.818,-416.444C1001.73,-407.478 1037.93,-393.314 1063.82,-383.183"/>
<polygon fill="midnightblue" stroke="midnightblue" points="1065.15,-386.42 1073.19,-379.516 1062.6,-379.901 1065.15,-386.42"/>
</g>
<!-- Node34 -->
<g id="node34" class="node"><title>Node34</title>
<g id="a_node34"><a xlink:href="../../df/d26/CRU_8h.html" target="_top" xlink:title="TPCBase/CRU.h">
<polygon fill="none" stroke="black" points="922.451,-360.5 922.451,-379.5 1015.45,-379.5 1015.45,-360.5 922.451,-360.5"/>
<text text-anchor="middle" x="968.951" y="-367.5" font-family="Helvetica,sans-Serif" font-size="10.00">TPCBase/CRU.h</text>
</a>
</g>
</g>
<!-- Node33&#45;&gt;Node34 -->
<g id="edge44" class="edge"><title>Node33&#45;&gt;Node34</title>
<path fill="none" stroke="midnightblue" d="M958.933,-416.083C960.523,-408.927 962.81,-398.635 964.798,-389.691"/>
<polygon fill="midnightblue" stroke="midnightblue" points="968.254,-390.272 967.006,-379.751 961.42,-388.754 968.254,-390.272"/>
</g>
<!-- Node34&#45;&gt;Node14 -->
<g id="edge45" class="edge"><title>Node34&#45;&gt;Node14</title>
<path fill="none" stroke="midnightblue" d="M947.928,-360.466C932.641,-353.125 912.798,-341.014 901.951,-324 881.828,-292.435 880.396,-247.065 881.464,-221.802"/>
<polygon fill="midnightblue" stroke="midnightblue" points="884.963,-221.924 882.073,-211.731 877.976,-221.502 884.963,-221.924"/>
</g>
<!-- Node34&#45;&gt;Node29 -->
<g id="edge46" class="edge"><title>Node34&#45;&gt;Node29</title>
<path fill="none" stroke="midnightblue" d="M979.86,-360.472C989.808,-352.157 1004.24,-338.652 1012.95,-324 1021.53,-309.569 1026.75,-291.117 1029.69,-277.562"/>
<polygon fill="midnightblue" stroke="midnightblue" points="1033.17,-278.009 1031.66,-267.524 1026.3,-276.666 1033.17,-278.009"/>
</g>
<!-- Node34&#45;&gt;Node32 -->
<g id="edge47" class="edge"><title>Node34&#45;&gt;Node32</title>
<path fill="none" stroke="midnightblue" d="M967.135,-360.083C965.677,-352.927 963.581,-342.635 961.759,-333.691"/>
<polygon fill="midnightblue" stroke="midnightblue" points="965.159,-332.851 959.734,-323.751 958.3,-334.248 965.159,-332.851"/>
</g>
<!-- Node35&#45;&gt;Node26 -->
<g id="edge51" class="edge"><title>Node35&#45;&gt;Node26</title>
<path fill="none" stroke="midnightblue" d="M1422.88,-248.234C1434.93,-221.317 1471.56,-139.476 1487.92,-102.942"/>
<polygon fill="midnightblue" stroke="midnightblue" points="1491.23,-104.101 1492.13,-93.5442 1484.85,-101.241 1491.23,-104.101"/>
</g>
<!-- Node36&#45;&gt;Node7 -->
<g id="edge53" class="edge"><title>Node36&#45;&gt;Node7</title>
<path fill="none" stroke="midnightblue" d="M622.527,-416.324C607.412,-407.822 584.136,-394.729 566.48,-384.797"/>
<polygon fill="midnightblue" stroke="midnightblue" points="567.769,-381.507 557.337,-379.655 564.337,-387.608 567.769,-381.507"/>
</g>
<!-- Node36&#45;&gt;Node14 -->
<g id="edge54" class="edge"><title>Node36&#45;&gt;Node14</title>
<path fill="none" stroke="midnightblue" d="M638.171,-416.458C639.387,-387.928 647.317,-295.088 698.951,-248 717.571,-231.02 779.84,-218.243 826.823,-210.722"/>
<polygon fill="midnightblue" stroke="midnightblue" points="827.554,-214.15 836.896,-209.152 826.476,-207.234 827.554,-214.15"/>
</g>
<!-- Node36&#45;&gt;Node27 -->
<g id="edge55" class="edge"><title>Node36&#45;&gt;Node27</title>
<path fill="none" stroke="midnightblue" d="M645.011,-416.149C655.508,-403.215 676.13,-378.661 695.951,-360 707.396,-349.225 721.212,-338.272 732.375,-329.87"/>
<polygon fill="midnightblue" stroke="midnightblue" points="734.711,-332.496 740.664,-323.731 730.545,-326.871 734.711,-332.496"/>
</g>
</g>
</svg>
        <g id="navigator" transform="translate(0 0)" fill="#404254">
                <rect fill="#f2f5e9" fill-opacity="0.5" stroke="#606060" stroke-width=".5" x="0" y="0" width="60" height="60"/>
                <use id="zoomplus" xlink:href="#zoomPlus" x="17" y="9" onmousedown="handleZoom(evt,'in')"/>
                <use id="zoomminus" xlink:href="#zoomMin" x="42" y="9" onmousedown="handleZoom(evt,'out')"/>
                <use id="reset" xlink:href="#resetDef" x="30" y="36" onmousedown="handleReset()"/>
                <g id="arrowUp" xlink:href="#dirArrow" transform="translate(30 24)" onmousedown="handlePan(0,-1)">
                  <use xlink:href="#rim" fill="#404040">
                        <set attributeName="fill" to="#808080" begin="arrowUp.mouseover" end="arrowUp.mouseout"/>
                  </use>
                  <path fill="none" stroke="white" stroke-width="1.5" d="M0,-3.0v7 M-2.5,-0.5L0,-3.0L2.5,-0.5"/>
                </g>
                <g id="arrowRight" xlink:href="#dirArrow" transform="rotate(90) translate(36 -43)" onmousedown="handlePan(1,0)">
                  <use xlink:href="#rim" fill="#404040">
                        <set attributeName="fill" to="#808080" begin="arrowRight.mouseover" end="arrowRight.mouseout"/>
                  </use>
                  <path fill="none" stroke="white" stroke-width="1.5" d="M0,-3.0v7 M-2.5,-0.5L0,-3.0L2.5,-0.5"/>
                </g>
                <g id="arrowDown" xlink:href="#dirArrow" transform="rotate(180) translate(-30 -48)" onmousedown="handlePan(0,1)">
                  <use xlink:href="#rim" fill="#404040">
                        <set attributeName="fill" to="#808080" begin="arrowDown.mouseover" end="arrowDown.mouseout"/>
                  </use>
                  <path fill="none" stroke="white" stroke-width="1.5" d="M0,-3.0v7 M-2.5,-0.5L0,-3.0L2.5,-0.5"/>
                </g>
                <g id="arrowLeft" xlink:href="#dirArrow" transform="rotate(270) translate(-36 17)" onmousedown="handlePan(-1,0)">
                  <use xlink:href="#rim" fill="#404040">
                        <set attributeName="fill" to="#808080" begin="arrowLeft.mouseover" end="arrowLeft.mouseout"/>
                  </use>
                  <path fill="none" stroke="white" stroke-width="1.5" d="M0,-3.0v7 M-2.5,-0.5L0,-3.0L2.5,-0.5"/>
                </g>
        </g>
        <svg viewBox="0 0 15 15" width="100%" height="30px" preserveAspectRatio="xMaxYMin meet">
         <g id="arrow_out" transform="scale(0.3 0.3)">
          <a xlink:href="ElectronTransport_8h__incl_org.svg" target="_base">
           <rect id="button" ry="5" rx="5" y="6" x="6" height="38" width="38"
                fill="#f2f5e9" fill-opacity="0.5" stroke="#606060" stroke-width="1.0"/>
           <path id="arrow"
             d="M 11.500037,31.436501 C 11.940474,20.09759 22.043105,11.32322 32.158766,21.979434 L 37.068811,17.246167 C 37.068811,17.246167 37.088388,32 37.088388,32 L 22.160133,31.978069 C 22.160133,31.978069 26.997745,27.140456 26.997745,27.140456 C 18.528582,18.264221 13.291696,25.230495 11.500037,31.436501 z"
             style="fill:#404040;"/>
          </a>
         </g>
        </svg>
</svg>
