<?xml version="1.0" encoding="UTF-8" standalone="no"?>
<!DOCTYPE svg PUBLIC "-//W3C//DTD SVG 1.1//EN"
 "http://www.w3.org/Graphics/SVG/1.1/DTD/svg11.dtd">
<!-- Generated by graphviz version 2.36.0 (20140111.2315)
 -->
<!-- Title: /home/travis/build/AliceO2Group/AliceO2/DataFormats/Reconstruction/include/ReconstructionDataFormats/Track.h Pages: 1 -->
<svg width="2981pt" height="484pt"
 viewBox="0.00 0.00 2981.00 484.00" xmlns="http://www.w3.org/2000/svg" xmlns:xlink="http://www.w3.org/1999/xlink">
<g id="graph0" class="graph" transform="scale(1 1) rotate(0) translate(4 480)">
<title>/home/travis/build/AliceO2Group/AliceO2/DataFormats/Reconstruction/include/ReconstructionDataFormats/Track.h</title>
<!-- Node1 -->
<g id="node1" class="node"><title>Node1</title>
<polygon fill="#bfbfbf" stroke="black" points="1247.5,-412.5 1247.5,-475.5 1426.5,-475.5 1426.5,-412.5 1247.5,-412.5"/>
<text text-anchor="start" x="1255.5" y="-463.5" font-family="Helvetica,sans-Serif" font-size="10.00">/home/travis/build</text>
<text text-anchor="start" x="1255.5" y="-452.5" font-family="Helvetica,sans-Serif" font-size="10.00">/AliceO2Group/AliceO2</text>
<text text-anchor="start" x="1255.5" y="-441.5" font-family="Helvetica,sans-Serif" font-size="10.00">/DataFormats/Reconstruction</text>
<text text-anchor="start" x="1255.5" y="-430.5" font-family="Helvetica,sans-Serif" font-size="10.00">/include/ReconstructionDataFormats/</text>
<text text-anchor="middle" x="1337" y="-419.5" font-family="Helvetica,sans-Serif" font-size="10.00">Track.h</text>
</g>
<!-- Node2 -->
<g id="node2" class="node"><title>Node2</title>
<g id="a_node2"><a xlink:href="../../dd/d75/testTreeStream_8cxx.html" target="_top" xlink:title="/home/travis/build\l/AliceO2Group/AliceO2\l/Common/Utils/test/testTreeStream.cxx">
<polygon fill="none" stroke="black" points="128.5,-323.5 128.5,-364.5 319.5,-364.5 319.5,-323.5 128.5,-323.5"/>
<text text-anchor="start" x="136.5" y="-352.5" font-family="Helvetica,sans-Serif" font-size="10.00">/home/travis/build</text>
<text text-anchor="start" x="136.5" y="-341.5" font-family="Helvetica,sans-Serif" font-size="10.00">/AliceO2Group/AliceO2</text>
<text text-anchor="middle" x="224" y="-330.5" font-family="Helvetica,sans-Serif" font-size="10.00">/Common/Utils/test/testTreeStream.cxx</text>
</a>
</g>
</g>
<!-- Node1&#45;&gt;Node2 -->
<g id="edge1" class="edge"><title>Node1&#45;&gt;Node2</title>
<path fill="none" stroke="midnightblue" d="M1237.11,-443.621C1055.07,-443.15 657.735,-434.709 329,-376 313.47,-373.226 296.973,-368.993 281.768,-364.537"/>
<polygon fill="midnightblue" stroke="midnightblue" points="1237.2,-447.121 1247.21,-443.64 1237.21,-440.121 1237.2,-447.121"/>
</g>
<!-- Node3 -->
<g id="node3" class="node"><title>Node3</title>
<g id="a_node3"><a xlink:href="../../d3/d18/DataFormats_2Reconstruction_2src_2Track_8cxx.html" target="_top" xlink:title="/home/travis/build\l/AliceO2Group/AliceO2\l/DataFormats/Reconstruction\l/src/Track.cxx">
<polygon fill="none" stroke="black" points="338,-318 338,-370 484,-370 484,-318 338,-318"/>
<text text-anchor="start" x="346" y="-358" font-family="Helvetica,sans-Serif" font-size="10.00">/home/travis/build</text>
<text text-anchor="start" x="346" y="-347" font-family="Helvetica,sans-Serif" font-size="10.00">/AliceO2Group/AliceO2</text>
<text text-anchor="start" x="346" y="-336" font-family="Helvetica,sans-Serif" font-size="10.00">/DataFormats/Reconstruction</text>
<text text-anchor="middle" x="411" y="-325" font-family="Helvetica,sans-Serif" font-size="10.00">/src/Track.cxx</text>
</a>
</g>
</g>
<!-- Node1&#45;&gt;Node3 -->
<g id="edge2" class="edge"><title>Node1&#45;&gt;Node3</title>
<path fill="none" stroke="midnightblue" d="M1237.4,-438.618C1045.73,-429.605 632.241,-407.185 493,-376 486.02,-374.437 478.839,-372.402 471.766,-370.123"/>
<polygon fill="midnightblue" stroke="midnightblue" points="1237.32,-442.118 1247.47,-439.089 1237.64,-435.126 1237.32,-442.118"/>
</g>
<!-- Node4 -->
<g id="node4" class="node"><title>Node4</title>
<g id="a_node4"><a xlink:href="../../d2/df9/Propagator_8h.html" target="_top" xlink:title="/home/travis/build\l/AliceO2Group/AliceO2\l/Detectors/Base/include\l/DetectorsBase/Propagator.h">
<polygon fill="none" stroke="black" points="502.5,-318 502.5,-370 645.5,-370 645.5,-318 502.5,-318"/>
<text text-anchor="start" x="510.5" y="-358" font-family="Helvetica,sans-Serif" font-size="10.00">/home/travis/build</text>
<text text-anchor="start" x="510.5" y="-347" font-family="Helvetica,sans-Serif" font-size="10.00">/AliceO2Group/AliceO2</text>
<text text-anchor="start" x="510.5" y="-336" font-family="Helvetica,sans-Serif" font-size="10.00">/Detectors/Base/include</text>
<text text-anchor="middle" x="574" y="-325" font-family="Helvetica,sans-Serif" font-size="10.00">/DetectorsBase/Propagator.h</text>
</a>
</g>
</g>
<!-- Node1&#45;&gt;Node4 -->
<g id="edge3" class="edge"><title>Node1&#45;&gt;Node4</title>
<path fill="none" stroke="midnightblue" d="M1237.05,-441.653C1102.72,-437.935 857.333,-424.411 654,-376 647.19,-374.379 640.183,-372.308 633.283,-370.007"/>
<polygon fill="midnightblue" stroke="midnightblue" points="1237.23,-445.159 1247.32,-441.924 1237.41,-438.162 1237.23,-445.159"/>
</g>
<!-- Node7 -->
<g id="node7" class="node"><title>Node7</title>
<g id="a_node7"><a xlink:href="../../d1/db5/CAaux_8h.html" target="_top" xlink:title="/home/travis/build\l/AliceO2Group/AliceO2\l/Detectors/ITSMFT/ITS\l/reconstruction/include\l/ITSReconstruction/CAaux.h">
<polygon fill="none" stroke="black" points="1179.5,-312.5 1179.5,-375.5 1322.5,-375.5 1322.5,-312.5 1179.5,-312.5"/>
<text text-anchor="start" x="1187.5" y="-363.5" font-family="Helvetica,sans-Serif" font-size="10.00">/home/travis/build</text>
<text text-anchor="start" x="1187.5" y="-352.5" font-family="Helvetica,sans-Serif" font-size="10.00">/AliceO2Group/AliceO2</text>
<text text-anchor="start" x="1187.5" y="-341.5" font-family="Helvetica,sans-Serif" font-size="10.00">/Detectors/ITSMFT/ITS</text>
<text text-anchor="start" x="1187.5" y="-330.5" font-family="Helvetica,sans-Serif" font-size="10.00">/reconstruction/include</text>
<text text-anchor="middle" x="1251" y="-319.5" font-family="Helvetica,sans-Serif" font-size="10.00">/ITSReconstruction/CAaux.h</text>
</a>
</g>
</g>
<!-- Node1&#45;&gt;Node7 -->
<g id="edge6" class="edge"><title>Node1&#45;&gt;Node7</title>
<path fill="none" stroke="midnightblue" d="M1303.38,-404.687C1294.92,-395.051 1285.96,-384.835 1277.88,-375.63"/>
<polygon fill="midnightblue" stroke="midnightblue" points="1300.8,-407.053 1310.03,-412.261 1306.06,-402.436 1300.8,-407.053"/>
</g>
<!-- Node8 -->
<g id="node8" class="node"><title>Node8</title>
<g id="a_node8"><a xlink:href="../../d0/d37/CATracker_8h.html" target="_top" xlink:title="/home/travis/build\l/AliceO2Group/AliceO2\l/Detectors/ITSMFT/ITS\l/reconstruction/include\l/ITSReconstruction/CATracker.h">
<polygon fill="none" stroke="black" points="983,-106.5 983,-169.5 1143,-169.5 1143,-106.5 983,-106.5"/>
<text text-anchor="start" x="991" y="-157.5" font-family="Helvetica,sans-Serif" font-size="10.00">/home/travis/build</text>
<text text-anchor="start" x="991" y="-146.5" font-family="Helvetica,sans-Serif" font-size="10.00">/AliceO2Group/AliceO2</text>
<text text-anchor="start" x="991" y="-135.5" font-family="Helvetica,sans-Serif" font-size="10.00">/Detectors/ITSMFT/ITS</text>
<text text-anchor="start" x="991" y="-124.5" font-family="Helvetica,sans-Serif" font-size="10.00">/reconstruction/include</text>
<text text-anchor="middle" x="1063" y="-113.5" font-family="Helvetica,sans-Serif" font-size="10.00">/ITSReconstruction/CATracker.h</text>
</a>
</g>
</g>
<!-- Node1&#45;&gt;Node8 -->
<g id="edge13" class="edge"><title>Node1&#45;&gt;Node8</title>
<path fill="none" stroke="midnightblue" d="M1237.76,-420.049C1165.12,-397.216 1072.62,-353.965 1033,-276 1015.74,-242.029 1030.79,-198.393 1045.1,-169.605"/>
<polygon fill="midnightblue" stroke="midnightblue" points="1236.83,-423.425 1247.41,-423.002 1238.87,-416.731 1236.83,-423.425"/>
</g>
<!-- Node9 -->
<g id="node9" class="node"><title>Node9</title>
<g id="a_node9"><a xlink:href="../../df/de8/CATracker_8cxx.html" target="_top" xlink:title="/home/travis/build\l/AliceO2Group/AliceO2\l/Detectors/ITSMFT/ITS\l/reconstruction/src/CATracker.cxx">
<polygon fill="none" stroke="black" points="925.5,-6 925.5,-58 1092.5,-58 1092.5,-6 925.5,-6"/>
<text text-anchor="start" x="933.5" y="-46" font-family="Helvetica,sans-Serif" font-size="10.00">/home/travis/build</text>
<text text-anchor="start" x="933.5" y="-35" font-family="Helvetica,sans-Serif" font-size="10.00">/AliceO2Group/AliceO2</text>
<text text-anchor="start" x="933.5" y="-24" font-family="Helvetica,sans-Serif" font-size="10.00">/Detectors/ITSMFT/ITS</text>
<text text-anchor="middle" x="1009" y="-13" font-family="Helvetica,sans-Serif" font-size="10.00">/reconstruction/src/CATracker.cxx</text>
</a>
</g>
</g>
<!-- Node1&#45;&gt;Node9 -->
<g id="edge23" class="edge"><title>Node1&#45;&gt;Node9</title>
<path fill="none" stroke="midnightblue" d="M1237.27,-429.171C1167.62,-417.714 1082.38,-399.516 1055,-376 982.248,-313.515 992.338,-270.133 974,-176 967.541,-142.846 965.948,-132.804 974,-100 977.598,-85.3431 985.026,-70.3341 992.117,-58.247"/>
<polygon fill="midnightblue" stroke="midnightblue" points="1237,-432.672 1247.43,-430.812 1238.12,-425.762 1237,-432.672"/>
</g>
<!-- Node13 -->
<g id="node13" class="node"><title>Node13</title>
<g id="a_node13"><a xlink:href="../../d8/ddd/CookedTrack_8h.html" target="_top" xlink:title="Definition of the ITS cooked track. ">
<polygon fill="none" stroke="black" points="663.5,-312.5 663.5,-375.5 834.5,-375.5 834.5,-312.5 663.5,-312.5"/>
<text text-anchor="start" x="671.5" y="-363.5" font-family="Helvetica,sans-Serif" font-size="10.00">/home/travis/build</text>
<text text-anchor="start" x="671.5" y="-352.5" font-family="Helvetica,sans-Serif" font-size="10.00">/AliceO2Group/AliceO2</text>
<text text-anchor="start" x="671.5" y="-341.5" font-family="Helvetica,sans-Serif" font-size="10.00">/Detectors/ITSMFT/ITS</text>
<text text-anchor="start" x="671.5" y="-330.5" font-family="Helvetica,sans-Serif" font-size="10.00">/reconstruction/include</text>
<text text-anchor="middle" x="749" y="-319.5" font-family="Helvetica,sans-Serif" font-size="10.00">/ITSReconstruction/CookedTrack.h</text>
</a>
</g>
</g>
<!-- Node1&#45;&gt;Node13 -->
<g id="edge14" class="edge"><title>Node1&#45;&gt;Node13</title>
<path fill="none" stroke="midnightblue" d="M1237.33,-426.388C1124.25,-407.541 941.691,-377.115 834.732,-359.289"/>
<polygon fill="midnightblue" stroke="midnightblue" points="1236.94,-429.871 1247.38,-428.063 1238.09,-422.966 1236.94,-429.871"/>
</g>
<!-- Node21 -->
<g id="node21" class="node"><title>Node21</title>
<g id="a_node21"><a xlink:href="../../d5/dc9/TrackTPC_8h.html" target="_top" xlink:title="/home/travis/build\l/AliceO2Group/AliceO2\l/Detectors/TPC/reconstruction\l/include/TPCReconstruction\l/TrackTPC.h">
<polygon fill="none" stroke="black" points="2026,-312.5 2026,-375.5 2176,-375.5 2176,-312.5 2026,-312.5"/>
<text text-anchor="start" x="2034" y="-363.5" font-family="Helvetica,sans-Serif" font-size="10.00">/home/travis/build</text>
<text text-anchor="start" x="2034" y="-352.5" font-family="Helvetica,sans-Serif" font-size="10.00">/AliceO2Group/AliceO2</text>
<text text-anchor="start" x="2034" y="-341.5" font-family="Helvetica,sans-Serif" font-size="10.00">/Detectors/TPC/reconstruction</text>
<text text-anchor="start" x="2034" y="-330.5" font-family="Helvetica,sans-Serif" font-size="10.00">/include/TPCReconstruction</text>
<text text-anchor="middle" x="2101" y="-319.5" font-family="Helvetica,sans-Serif" font-size="10.00">/TrackTPC.h</text>
</a>
</g>
</g>
<!-- Node1&#45;&gt;Node21 -->
<g id="edge24" class="edge"><title>Node1&#45;&gt;Node21</title>
<path fill="none" stroke="midnightblue" d="M1436.52,-430.235C1591.58,-410.345 1887.38,-372.402 2025.92,-354.631"/>
<polygon fill="midnightblue" stroke="midnightblue" points="1435.98,-426.774 1426.51,-431.518 1436.88,-433.717 1435.98,-426.774"/>
</g>
<!-- Node22 -->
<g id="node22" class="node"><title>Node22</title>
<g id="a_node22"><a xlink:href="../../d9/d90/convertTracks_8C.html" target="_top" xlink:title="/home/travis/build\l/AliceO2Group/AliceO2\l/Detectors/TPC/reconstruction\l/macro/convertTracks.C">
<polygon fill="none" stroke="black" points="1438,-218 1438,-270 1588,-270 1588,-218 1438,-218"/>
<text text-anchor="start" x="1446" y="-258" font-family="Helvetica,sans-Serif" font-size="10.00">/home/travis/build</text>
<text text-anchor="start" x="1446" y="-247" font-family="Helvetica,sans-Serif" font-size="10.00">/AliceO2Group/AliceO2</text>
<text text-anchor="start" x="1446" y="-236" font-family="Helvetica,sans-Serif" font-size="10.00">/Detectors/TPC/reconstruction</text>
<text text-anchor="middle" x="1513" y="-225" font-family="Helvetica,sans-Serif" font-size="10.00">/macro/convertTracks.C</text>
</a>
</g>
</g>
<!-- Node1&#45;&gt;Node22 -->
<g id="edge36" class="edge"><title>Node1&#45;&gt;Node22</title>
<path fill="none" stroke="midnightblue" d="M1370.9,-404.862C1406.16,-365.196 1460.35,-304.233 1490.6,-270.196"/>
<polygon fill="midnightblue" stroke="midnightblue" points="1368.14,-402.697 1364.11,-412.496 1373.37,-407.348 1368.14,-402.697"/>
</g>
<!-- Node26 -->
<g id="node26" class="node"><title>Node26</title>
<g id="a_node26"><a xlink:href="../../d1/d27/runCATracking_8C.html" target="_top" xlink:title="/home/travis/build\l/AliceO2Group/AliceO2\l/Detectors/TPC/reconstruction\l/macro/runCATracking.C">
<polygon fill="none" stroke="black" points="1606,-218 1606,-270 1756,-270 1756,-218 1606,-218"/>
<text text-anchor="start" x="1614" y="-258" font-family="Helvetica,sans-Serif" font-size="10.00">/home/travis/build</text>
<text text-anchor="start" x="1614" y="-247" font-family="Helvetica,sans-Serif" font-size="10.00">/AliceO2Group/AliceO2</text>
<text text-anchor="start" x="1614" y="-236" font-family="Helvetica,sans-Serif" font-size="10.00">/Detectors/TPC/reconstruction</text>
<text text-anchor="middle" x="1681" y="-225" font-family="Helvetica,sans-Serif" font-size="10.00">/macro/runCATracking.C</text>
</a>
</g>
</g>
<!-- Node1&#45;&gt;Node26 -->
<g id="edge37" class="edge"><title>Node1&#45;&gt;Node26</title>
<path fill="none" stroke="midnightblue" d="M1399.02,-407.305C1467.85,-367.683 1577.18,-304.757 1637.49,-270.045"/>
<polygon fill="midnightblue" stroke="midnightblue" points="1396.92,-404.474 1390,-412.496 1400.41,-410.541 1396.92,-404.474"/>
</g>
<!-- Node28 -->
<g id="node28" class="node"><title>Node28</title>
<g id="a_node28"><a xlink:href="../../d1/df0/runCATrackingClusterNative_8C.html" target="_top" xlink:title="/home/travis/build\l/AliceO2Group/AliceO2\l/Detectors/TPC/reconstruction\l/macro/runCATrackingClusterNative.C">
<polygon fill="none" stroke="black" points="2277.5,-218 2277.5,-270 2462.5,-270 2462.5,-218 2277.5,-218"/>
<text text-anchor="start" x="2285.5" y="-258" font-family="Helvetica,sans-Serif" font-size="10.00">/home/travis/build</text>
<text text-anchor="start" x="2285.5" y="-247" font-family="Helvetica,sans-Serif" font-size="10.00">/AliceO2Group/AliceO2</text>
<text text-anchor="start" x="2285.5" y="-236" font-family="Helvetica,sans-Serif" font-size="10.00">/Detectors/TPC/reconstruction</text>
<text text-anchor="middle" x="2370" y="-225" font-family="Helvetica,sans-Serif" font-size="10.00">/macro/runCATrackingClusterNative.C</text>
</a>
</g>
</g>
<!-- Node1&#45;&gt;Node28 -->
<g id="edge38" class="edge"><title>Node1&#45;&gt;Node28</title>
<path fill="none" stroke="midnightblue" d="M1436.74,-441.688C1630.16,-438.07 2049.05,-424.691 2184,-376 2248.27,-352.809 2310.62,-301.137 2344.29,-270.069"/>
<polygon fill="midnightblue" stroke="midnightblue" points="1436.51,-438.192 1426.58,-441.873 1436.64,-445.191 1436.51,-438.192"/>
</g>
<!-- Node29 -->
<g id="node29" class="node"><title>Node29</title>
<g id="a_node29"><a xlink:href="../../db/d60/testTracks_8C.html" target="_top" xlink:title="/home/travis/build\l/AliceO2Group/AliceO2\l/Detectors/TPC/reconstruction\l/macro/testTracks.C">
<polygon fill="none" stroke="black" points="2480,-218 2480,-270 2630,-270 2630,-218 2480,-218"/>
<text text-anchor="start" x="2488" y="-258" font-family="Helvetica,sans-Serif" font-size="10.00">/home/travis/build</text>
<text text-anchor="start" x="2488" y="-247" font-family="Helvetica,sans-Serif" font-size="10.00">/AliceO2Group/AliceO2</text>
<text text-anchor="start" x="2488" y="-236" font-family="Helvetica,sans-Serif" font-size="10.00">/Detectors/TPC/reconstruction</text>
<text text-anchor="middle" x="2555" y="-225" font-family="Helvetica,sans-Serif" font-size="10.00">/macro/testTracks.C</text>
</a>
</g>
</g>
<!-- Node1&#45;&gt;Node29 -->
<g id="edge39" class="edge"><title>Node1&#45;&gt;Node29</title>
<path fill="none" stroke="midnightblue" d="M1436.62,-439.88C1640.5,-432.81 2098.93,-413.219 2251,-376 2347.43,-352.399 2452.15,-300.998 2510.06,-270.063"/>
<polygon fill="midnightblue" stroke="midnightblue" points="1436.39,-436.385 1426.52,-440.227 1436.63,-443.381 1436.39,-436.385"/>
</g>
<!-- Node30 -->
<g id="node30" class="node"><title>Node30</title>
<g id="a_node30"><a xlink:href="../../d8/ded/TPCCATracking_8cxx.html" target="_top" xlink:title="/home/travis/build\l/AliceO2Group/AliceO2\l/Detectors/TPC/reconstruction\l/src/TPCCATracking.cxx">
<polygon fill="none" stroke="black" points="2648,-218 2648,-270 2798,-270 2798,-218 2648,-218"/>
<text text-anchor="start" x="2656" y="-258" font-family="Helvetica,sans-Serif" font-size="10.00">/home/travis/build</text>
<text text-anchor="start" x="2656" y="-247" font-family="Helvetica,sans-Serif" font-size="10.00">/AliceO2Group/AliceO2</text>
<text text-anchor="start" x="2656" y="-236" font-family="Helvetica,sans-Serif" font-size="10.00">/Detectors/TPC/reconstruction</text>
<text text-anchor="middle" x="2723" y="-225" font-family="Helvetica,sans-Serif" font-size="10.00">/src/TPCCATracking.cxx</text>
</a>
</g>
</g>
<!-- Node1&#45;&gt;Node30 -->
<g id="edge40" class="edge"><title>Node1&#45;&gt;Node30</title>
<path fill="none" stroke="midnightblue" d="M1436.88,-439.777C1656.71,-432.133 2176.57,-410.885 2349,-376 2465.49,-352.433 2595.07,-301.02 2667.03,-270.074"/>
<polygon fill="midnightblue" stroke="midnightblue" points="1436.52,-436.288 1426.64,-440.131 1436.76,-443.283 1436.52,-436.288"/>
</g>
<!-- Node32 -->
<g id="node32" class="node"><title>Node32</title>
<g id="a_node32"><a xlink:href="../../d9/d59/testHitsDigitsClusters_8C.html" target="_top" xlink:title="/home/travis/build\l/AliceO2Group/AliceO2\l/Detectors/TPC/simulation\l/macro/testHitsDigitsClusters.C">
<polygon fill="none" stroke="black" points="2816.5,-218 2816.5,-270 2973.5,-270 2973.5,-218 2816.5,-218"/>
<text text-anchor="start" x="2824.5" y="-258" font-family="Helvetica,sans-Serif" font-size="10.00">/home/travis/build</text>
<text text-anchor="start" x="2824.5" y="-247" font-family="Helvetica,sans-Serif" font-size="10.00">/AliceO2Group/AliceO2</text>
<text text-anchor="start" x="2824.5" y="-236" font-family="Helvetica,sans-Serif" font-size="10.00">/Detectors/TPC/simulation</text>
<text text-anchor="middle" x="2895" y="-225" font-family="Helvetica,sans-Serif" font-size="10.00">/macro/testHitsDigitsClusters.C</text>
</a>
</g>
</g>
<!-- Node1&#45;&gt;Node32 -->
<g id="edge41" class="edge"><title>Node1&#45;&gt;Node32</title>
<path fill="none" stroke="midnightblue" d="M1436.6,-439.986C1674.3,-432.325 2269.59,-410.255 2466,-376 2598.72,-352.854 2747.98,-301.166 2830.81,-270.083"/>
<polygon fill="midnightblue" stroke="midnightblue" points="1436.46,-436.489 1426.58,-440.307 1436.69,-443.485 1436.46,-436.489"/>
</g>
<!-- Node5 -->
<g id="node5" class="node"><title>Node5</title>
<g id="a_node5"><a xlink:href="../../d8/dee/Propagator_8cxx.html" target="_top" xlink:title="/home/travis/build\l/AliceO2Group/AliceO2\l/Detectors/Base/src/Propagator.cxx">
<polygon fill="none" stroke="black" points="-0.5,-223.5 -0.5,-264.5 172.5,-264.5 172.5,-223.5 -0.5,-223.5"/>
<text text-anchor="start" x="7.5" y="-252.5" font-family="Helvetica,sans-Serif" font-size="10.00">/home/travis/build</text>
<text text-anchor="start" x="7.5" y="-241.5" font-family="Helvetica,sans-Serif" font-size="10.00">/AliceO2Group/AliceO2</text>
<text text-anchor="middle" x="86" y="-230.5" font-family="Helvetica,sans-Serif" font-size="10.00">/Detectors/Base/src/Propagator.cxx</text>
</a>
</g>
</g>
<!-- Node4&#45;&gt;Node5 -->
<g id="edge4" class="edge"><title>Node4&#45;&gt;Node5</title>
<path fill="none" stroke="midnightblue" d="M503.844,-314.952C500.202,-313.873 496.573,-312.879 493,-312 360.03,-279.275 321.002,-304.205 187,-276 172.641,-272.978 157.393,-268.817 143.214,-264.524"/>
<polygon fill="midnightblue" stroke="midnightblue" points="502.894,-318.322 513.483,-317.985 504.995,-311.645 502.894,-318.322"/>
</g>
<!-- Node6 -->
<g id="node6" class="node"><title>Node6</title>
<g id="a_node6"><a xlink:href="../../d7/dca/CookedTracker_8cxx.html" target="_top" xlink:title="Implementation of the &quot;Cooked Matrix&quot; ITS tracker. ">
<polygon fill="none" stroke="black" points="108,-112 108,-164 294,-164 294,-112 108,-112"/>
<text text-anchor="start" x="116" y="-152" font-family="Helvetica,sans-Serif" font-size="10.00">/home/travis/build</text>
<text text-anchor="start" x="116" y="-141" font-family="Helvetica,sans-Serif" font-size="10.00">/AliceO2Group/AliceO2</text>
<text text-anchor="start" x="116" y="-130" font-family="Helvetica,sans-Serif" font-size="10.00">/Detectors/ITSMFT/ITS</text>
<text text-anchor="middle" x="201" y="-119" font-family="Helvetica,sans-Serif" font-size="10.00">/reconstruction/src/CookedTracker.cxx</text>
</a>
</g>
</g>
<!-- Node4&#45;&gt;Node6 -->
<g id="edge5" class="edge"><title>Node4&#45;&gt;Node6</title>
<path fill="none" stroke="midnightblue" d="M503.277,-314.848C499.825,-313.816 496.387,-312.859 493,-312 433.685,-296.961 263.414,-319.124 220,-276 190.698,-246.894 192.194,-195.055 196.33,-164.17"/>
<polygon fill="midnightblue" stroke="midnightblue" points="502.424,-318.249 513.014,-317.931 504.537,-311.576 502.424,-318.249"/>
</g>
<!-- Node7&#45;&gt;Node8 -->
<g id="edge7" class="edge"><title>Node7&#45;&gt;Node8</title>
<path fill="none" stroke="midnightblue" d="M1169.37,-338.027C1126.11,-330.737 1076.39,-313.937 1049,-276 1026.68,-245.081 1037.61,-199.508 1049.02,-169.544"/>
<polygon fill="midnightblue" stroke="midnightblue" points="1168.93,-341.501 1179.34,-339.563 1169.99,-334.582 1168.93,-341.501"/>
</g>
<!-- Node10 -->
<g id="node10" class="node"><title>Node10</title>
<g id="a_node10"><a xlink:href="../../d5/df0/CATrackingStation_8h.html" target="_top" xlink:title="/home/travis/build\l/AliceO2Group/AliceO2\l/Detectors/ITSMFT/ITS\l/reconstruction/include\l/ITSReconstruction/CATrackingStation.h">
<polygon fill="none" stroke="black" points="1058.5,-212.5 1058.5,-275.5 1253.5,-275.5 1253.5,-212.5 1058.5,-212.5"/>
<text text-anchor="start" x="1066.5" y="-263.5" font-family="Helvetica,sans-Serif" font-size="10.00">/home/travis/build</text>
<text text-anchor="start" x="1066.5" y="-252.5" font-family="Helvetica,sans-Serif" font-size="10.00">/AliceO2Group/AliceO2</text>
<text text-anchor="start" x="1066.5" y="-241.5" font-family="Helvetica,sans-Serif" font-size="10.00">/Detectors/ITSMFT/ITS</text>
<text text-anchor="start" x="1066.5" y="-230.5" font-family="Helvetica,sans-Serif" font-size="10.00">/reconstruction/include</text>
<text text-anchor="middle" x="1156" y="-219.5" font-family="Helvetica,sans-Serif" font-size="10.00">/ITSReconstruction/CATrackingStation.h</text>
</a>
</g>
</g>
<!-- Node7&#45;&gt;Node10 -->
<g id="edge9" class="edge"><title>Node7&#45;&gt;Node10</title>
<path fill="none" stroke="midnightblue" d="M1214.14,-304.974C1204.71,-295.253 1194.7,-284.926 1185.69,-275.63"/>
<polygon fill="midnightblue" stroke="midnightblue" points="1211.73,-307.517 1221.2,-312.261 1216.75,-302.645 1211.73,-307.517"/>
</g>
<!-- Node12 -->
<g id="node12" class="node"><title>Node12</title>
<g id="a_node12"><a xlink:href="../../db/d2e/CAaux_8cxx.html" target="_top" xlink:title="/home/travis/build\l/AliceO2Group/AliceO2\l/Detectors/ITSMFT/ITS\l/reconstruction/src/CAaux.cxx">
<polygon fill="none" stroke="black" points="1271.5,-218 1271.5,-270 1420.5,-270 1420.5,-218 1271.5,-218"/>
<text text-anchor="start" x="1279.5" y="-258" font-family="Helvetica,sans-Serif" font-size="10.00">/home/travis/build</text>
<text text-anchor="start" x="1279.5" y="-247" font-family="Helvetica,sans-Serif" font-size="10.00">/AliceO2Group/AliceO2</text>
<text text-anchor="start" x="1279.5" y="-236" font-family="Helvetica,sans-Serif" font-size="10.00">/Detectors/ITSMFT/ITS</text>
<text text-anchor="middle" x="1346" y="-225" font-family="Helvetica,sans-Serif" font-size="10.00">/reconstruction/src/CAaux.cxx</text>
</a>
</g>
</g>
<!-- Node7&#45;&gt;Node12 -->
<g id="edge12" class="edge"><title>Node7&#45;&gt;Node12</title>
<path fill="none" stroke="midnightblue" d="M1288.07,-304.756C1299.37,-293.104 1311.49,-280.598 1321.71,-270.054"/>
<polygon fill="midnightblue" stroke="midnightblue" points="1285.25,-302.645 1280.8,-312.261 1290.27,-307.517 1285.25,-302.645"/>
</g>
<!-- Node8&#45;&gt;Node9 -->
<g id="edge8" class="edge"><title>Node8&#45;&gt;Node9</title>
<path fill="none" stroke="midnightblue" d="M1042.47,-97.4596C1035.62,-84.2778 1028.19,-69.9609 1022.07,-58.1755"/>
<polygon fill="midnightblue" stroke="midnightblue" points="1039.38,-99.097 1047.09,-106.359 1045.59,-95.8712 1039.38,-99.097"/>
</g>
<!-- Node10&#45;&gt;Node8 -->
<g id="edge10" class="edge"><title>Node10&#45;&gt;Node8</title>
<path fill="none" stroke="midnightblue" d="M1121.66,-204.597C1111.4,-193.123 1100.29,-180.699 1090.53,-169.781"/>
<polygon fill="midnightblue" stroke="midnightblue" points="1119.33,-207.238 1128.6,-212.359 1124.54,-202.572 1119.33,-207.238"/>
</g>
<!-- Node11 -->
<g id="node11" class="node"><title>Node11</title>
<g id="a_node11"><a xlink:href="../../d0/d81/CATrackingStation_8cxx.html" target="_top" xlink:title="/home/travis/build\l/AliceO2Group/AliceO2\l/Detectors/ITSMFT/ITS\l/reconstruction/src/CATracking\lStation.cxx">
<polygon fill="none" stroke="black" points="1161,-106.5 1161,-169.5 1313,-169.5 1313,-106.5 1161,-106.5"/>
<text text-anchor="start" x="1169" y="-157.5" font-family="Helvetica,sans-Serif" font-size="10.00">/home/travis/build</text>
<text text-anchor="start" x="1169" y="-146.5" font-family="Helvetica,sans-Serif" font-size="10.00">/AliceO2Group/AliceO2</text>
<text text-anchor="start" x="1169" y="-135.5" font-family="Helvetica,sans-Serif" font-size="10.00">/Detectors/ITSMFT/ITS</text>
<text text-anchor="start" x="1169" y="-124.5" font-family="Helvetica,sans-Serif" font-size="10.00">/reconstruction/src/CATracking</text>
<text text-anchor="middle" x="1237" y="-113.5" font-family="Helvetica,sans-Serif" font-size="10.00">Station.cxx</text>
</a>
</g>
</g>
<!-- Node10&#45;&gt;Node11 -->
<g id="edge11" class="edge"><title>Node10&#45;&gt;Node11</title>
<path fill="none" stroke="midnightblue" d="M1186.17,-204.266C1195.03,-192.884 1204.6,-180.594 1213.03,-169.781"/>
<polygon fill="midnightblue" stroke="midnightblue" points="1183.25,-202.319 1179.86,-212.359 1188.77,-206.62 1183.25,-202.319"/>
</g>
<!-- Node14 -->
<g id="node14" class="node"><title>Node14</title>
<g id="a_node14"><a xlink:href="../../dc/df8/CheckTracks_8C.html" target="_top" xlink:title="Simple macro to check ITSU tracks. ">
<polygon fill="none" stroke="black" points="426.5,-218 426.5,-270 569.5,-270 569.5,-218 426.5,-218"/>
<text text-anchor="start" x="434.5" y="-258" font-family="Helvetica,sans-Serif" font-size="10.00">/home/travis/build</text>
<text text-anchor="start" x="434.5" y="-247" font-family="Helvetica,sans-Serif" font-size="10.00">/AliceO2Group/AliceO2</text>
<text text-anchor="start" x="434.5" y="-236" font-family="Helvetica,sans-Serif" font-size="10.00">/Detectors/ITSMFT/ITS</text>
<text text-anchor="middle" x="498" y="-225" font-family="Helvetica,sans-Serif" font-size="10.00">/macros/test/CheckTracks.C</text>
</a>
</g>
</g>
<!-- Node13&#45;&gt;Node14 -->
<g id="edge15" class="edge"><title>Node13&#45;&gt;Node14</title>
<path fill="none" stroke="midnightblue" d="M661.105,-308.682C628.594,-295.989 592.374,-281.847 562.34,-270.121"/>
<polygon fill="midnightblue" stroke="midnightblue" points="660.026,-312.019 670.614,-312.395 662.572,-305.498 660.026,-312.019"/>
</g>
<!-- Node15 -->
<g id="node15" class="node"><title>Node15</title>
<g id="a_node15"><a xlink:href="../../d5/df6/DisplayTrack_8C.html" target="_top" xlink:title="Simple macro to display ITSU tracks. ">
<polygon fill="none" stroke="black" points="587.5,-218 587.5,-270 730.5,-270 730.5,-218 587.5,-218"/>
<text text-anchor="start" x="595.5" y="-258" font-family="Helvetica,sans-Serif" font-size="10.00">/home/travis/build</text>
<text text-anchor="start" x="595.5" y="-247" font-family="Helvetica,sans-Serif" font-size="10.00">/AliceO2Group/AliceO2</text>
<text text-anchor="start" x="595.5" y="-236" font-family="Helvetica,sans-Serif" font-size="10.00">/Detectors/ITSMFT/ITS</text>
<text text-anchor="middle" x="659" y="-225" font-family="Helvetica,sans-Serif" font-size="10.00">/macros/test/DisplayTrack.C</text>
</a>
</g>
</g>
<!-- Node13&#45;&gt;Node15 -->
<g id="edge16" class="edge"><title>Node13&#45;&gt;Node15</title>
<path fill="none" stroke="midnightblue" d="M713.878,-304.756C703.177,-293.104 691.692,-280.598 682.008,-270.054"/>
<polygon fill="midnightblue" stroke="midnightblue" points="711.428,-307.263 720.77,-312.261 716.584,-302.528 711.428,-307.263"/>
</g>
<!-- Node16 -->
<g id="node16" class="node"><title>Node16</title>
<g id="a_node16"><a xlink:href="../../d6/d0c/CookedTracker_8h.html" target="_top" xlink:title="Definition of the &quot;Cooked Matrix&quot; ITS tracker. ">
<polygon fill="none" stroke="black" points="229.5,-212.5 229.5,-275.5 408.5,-275.5 408.5,-212.5 229.5,-212.5"/>
<text text-anchor="start" x="237.5" y="-263.5" font-family="Helvetica,sans-Serif" font-size="10.00">/home/travis/build</text>
<text text-anchor="start" x="237.5" y="-252.5" font-family="Helvetica,sans-Serif" font-size="10.00">/AliceO2Group/AliceO2</text>
<text text-anchor="start" x="237.5" y="-241.5" font-family="Helvetica,sans-Serif" font-size="10.00">/Detectors/ITSMFT/ITS</text>
<text text-anchor="start" x="237.5" y="-230.5" font-family="Helvetica,sans-Serif" font-size="10.00">/reconstruction/include</text>
<text text-anchor="middle" x="319" y="-219.5" font-family="Helvetica,sans-Serif" font-size="10.00">/ITSReconstruction/CookedTracker.h</text>
</a>
</g>
</g>
<!-- Node13&#45;&gt;Node16 -->
<g id="edge17" class="edge"><title>Node13&#45;&gt;Node16</title>
<path fill="none" stroke="midnightblue" d="M653.43,-312.033C548.481,-288.129 517.629,-299.409 417,-276 414.219,-275.353 411.403,-274.666 408.567,-273.946"/>
<polygon fill="midnightblue" stroke="midnightblue" points="652.946,-315.514 663.48,-314.376 654.536,-308.697 652.946,-315.514"/>
</g>
<!-- Node20 -->
<g id="node20" class="node"><title>Node20</title>
<g id="a_node20"><a xlink:href="../../d1/d6b/CookedTrack_8cxx.html" target="_top" xlink:title="Implementation of the ITS cooked track. ">
<polygon fill="none" stroke="black" points="749,-218 749,-270 927,-270 927,-218 749,-218"/>
<text text-anchor="start" x="757" y="-258" font-family="Helvetica,sans-Serif" font-size="10.00">/home/travis/build</text>
<text text-anchor="start" x="757" y="-247" font-family="Helvetica,sans-Serif" font-size="10.00">/AliceO2Group/AliceO2</text>
<text text-anchor="start" x="757" y="-236" font-family="Helvetica,sans-Serif" font-size="10.00">/Detectors/ITSMFT/ITS</text>
<text text-anchor="middle" x="838" y="-225" font-family="Helvetica,sans-Serif" font-size="10.00">/reconstruction/src/CookedTrack.cxx</text>
</a>
</g>
</g>
<!-- Node13&#45;&gt;Node20 -->
<g id="edge22" class="edge"><title>Node13&#45;&gt;Node20</title>
<path fill="none" stroke="midnightblue" d="M783.732,-304.756C794.314,-293.104 805.671,-280.598 815.247,-270.054"/>
<polygon fill="midnightblue" stroke="midnightblue" points="781.048,-302.505 776.916,-312.261 786.23,-307.211 781.048,-302.505"/>
</g>
<!-- Node16&#45;&gt;Node6 -->
<g id="edge21" class="edge"><title>Node16&#45;&gt;Node6</title>
<path fill="none" stroke="midnightblue" d="M276.712,-205.729C261.064,-191.938 243.708,-176.641 229.565,-164.175"/>
<polygon fill="midnightblue" stroke="midnightblue" points="274.418,-208.373 284.234,-212.359 279.046,-203.121 274.418,-208.373"/>
</g>
<!-- Node17 -->
<g id="node17" class="node"><title>Node17</title>
<g id="a_node17"><a xlink:href="../../d3/d9f/CookedTrackerTask_8h.html" target="_top" xlink:title="Definition of the ITS &quot;Cooked Matrix&quot; tracker task. ">
<polygon fill="none" stroke="black" points="312.5,-101 312.5,-175 483.5,-175 483.5,-101 312.5,-101"/>
<text text-anchor="start" x="320.5" y="-163" font-family="Helvetica,sans-Serif" font-size="10.00">/home/travis/build</text>
<text text-anchor="start" x="320.5" y="-152" font-family="Helvetica,sans-Serif" font-size="10.00">/AliceO2Group/AliceO2</text>
<text text-anchor="start" x="320.5" y="-141" font-family="Helvetica,sans-Serif" font-size="10.00">/Detectors/ITSMFT/ITS</text>
<text text-anchor="start" x="320.5" y="-130" font-family="Helvetica,sans-Serif" font-size="10.00">/reconstruction/include</text>
<text text-anchor="start" x="320.5" y="-119" font-family="Helvetica,sans-Serif" font-size="10.00">/ITSReconstruction/CookedTracker</text>
<text text-anchor="middle" x="398" y="-108" font-family="Helvetica,sans-Serif" font-size="10.00">Task.h</text>
</a>
</g>
</g>
<!-- Node16&#45;&gt;Node17 -->
<g id="edge18" class="edge"><title>Node16&#45;&gt;Node17</title>
<path fill="none" stroke="midnightblue" d="M348.452,-204.228C355.65,-194.751 363.326,-184.647 370.432,-175.292"/>
<polygon fill="midnightblue" stroke="midnightblue" points="345.537,-202.279 342.275,-212.359 351.111,-206.513 345.537,-202.279"/>
</g>
<!-- Node18 -->
<g id="node18" class="node"><title>Node18</title>
<g id="a_node18"><a xlink:href="../../d5/da2/CookedTrackerTask_8cxx.html" target="_top" xlink:title="Implementation of the ITS &quot;Cooked Matrix&quot; tracker task. ">
<polygon fill="none" stroke="black" points="394.5,-0.5 394.5,-63.5 561.5,-63.5 561.5,-0.5 394.5,-0.5"/>
<text text-anchor="start" x="402.5" y="-51.5" font-family="Helvetica,sans-Serif" font-size="10.00">/home/travis/build</text>
<text text-anchor="start" x="402.5" y="-40.5" font-family="Helvetica,sans-Serif" font-size="10.00">/AliceO2Group/AliceO2</text>
<text text-anchor="start" x="402.5" y="-29.5" font-family="Helvetica,sans-Serif" font-size="10.00">/Detectors/ITSMFT/ITS</text>
<text text-anchor="start" x="402.5" y="-18.5" font-family="Helvetica,sans-Serif" font-size="10.00">/reconstruction/src/CookedTracker</text>
<text text-anchor="middle" x="478" y="-7.5" font-family="Helvetica,sans-Serif" font-size="10.00">Task.cxx</text>
</a>
</g>
</g>
<!-- Node17&#45;&gt;Node18 -->
<g id="edge19" class="edge"><title>Node17&#45;&gt;Node18</title>
<path fill="none" stroke="midnightblue" d="M431.973,-92.8356C439.484,-83.0712 447.285,-72.9296 454.284,-63.8307"/>
<polygon fill="midnightblue" stroke="midnightblue" points="429.079,-90.8575 425.756,-100.918 434.627,-95.1255 429.079,-90.8575"/>
</g>
<!-- Node19 -->
<g id="node19" class="node"><title>Node19</title>
<g id="a_node19"><a xlink:href="../../dd/d4e/run__trac__its_8C.html" target="_top" xlink:title="/home/travis/build\l/AliceO2Group/AliceO2\l/macro/run_trac_its.C">
<polygon fill="none" stroke="black" points="258,-11.5 258,-52.5 376,-52.5 376,-11.5 258,-11.5"/>
<text text-anchor="start" x="266" y="-40.5" font-family="Helvetica,sans-Serif" font-size="10.00">/home/travis/build</text>
<text text-anchor="start" x="266" y="-29.5" font-family="Helvetica,sans-Serif" font-size="10.00">/AliceO2Group/AliceO2</text>
<text text-anchor="middle" x="317" y="-18.5" font-family="Helvetica,sans-Serif" font-size="10.00">/macro/run_trac_its.C</text>
</a>
</g>
</g>
<!-- Node17&#45;&gt;Node19 -->
<g id="edge20" class="edge"><title>Node17&#45;&gt;Node19</title>
<path fill="none" stroke="midnightblue" d="M363.572,-92.7957C352.668,-78.7961 341.164,-64.0252 332.317,-52.6667"/>
<polygon fill="midnightblue" stroke="midnightblue" points="360.991,-95.1789 369.897,-100.918 366.514,-90.8776 360.991,-95.1789"/>
</g>
<!-- Node21&#45;&gt;Node22 -->
<g id="edge25" class="edge"><title>Node21&#45;&gt;Node22</title>
<path fill="none" stroke="midnightblue" d="M2015.58,-337.433C1914.46,-329.52 1741.55,-311.81 1597,-276 1590.21,-274.318 1583.21,-272.269 1576.29,-270.035"/>
<polygon fill="midnightblue" stroke="midnightblue" points="2015.5,-340.937 2025.74,-338.214 2016.04,-333.958 2015.5,-340.937"/>
</g>
<!-- Node23 -->
<g id="node23" class="node"><title>Node23</title>
<g id="a_node23"><a xlink:href="../../d6/dee/dEdxRes_8C.html" target="_top" xlink:title="/home/travis/build\l/AliceO2Group/AliceO2\l/Detectors/TPC/reconstruction\l/macro/dEdxRes.C">
<polygon fill="none" stroke="black" points="1774,-218 1774,-270 1924,-270 1924,-218 1774,-218"/>
<text text-anchor="start" x="1782" y="-258" font-family="Helvetica,sans-Serif" font-size="10.00">/home/travis/build</text>
<text text-anchor="start" x="1782" y="-247" font-family="Helvetica,sans-Serif" font-size="10.00">/AliceO2Group/AliceO2</text>
<text text-anchor="start" x="1782" y="-236" font-family="Helvetica,sans-Serif" font-size="10.00">/Detectors/TPC/reconstruction</text>
<text text-anchor="middle" x="1849" y="-225" font-family="Helvetica,sans-Serif" font-size="10.00">/macro/dEdxRes.C</text>
</a>
</g>
</g>
<!-- Node21&#45;&gt;Node23 -->
<g id="edge26" class="edge"><title>Node21&#45;&gt;Node23</title>
<path fill="none" stroke="midnightblue" d="M2016.4,-310.1C1982.86,-297.058 1944.92,-282.303 1913.65,-270.142"/>
<polygon fill="midnightblue" stroke="midnightblue" points="2015.14,-313.367 2025.73,-313.73 2017.68,-306.843 2015.14,-313.367"/>
</g>
<!-- Node24 -->
<g id="node24" class="node"><title>Node24</title>
<g id="a_node24"><a xlink:href="../../d5/db8/RawClusterFinder_8C.html" target="_top" xlink:title="/home/travis/build\l/AliceO2Group/AliceO2\l/Detectors/TPC/reconstruction\l/macro/RawClusterFinder.C">
<polygon fill="none" stroke="black" points="1942,-218 1942,-270 2092,-270 2092,-218 1942,-218"/>
<text text-anchor="start" x="1950" y="-258" font-family="Helvetica,sans-Serif" font-size="10.00">/home/travis/build</text>
<text text-anchor="start" x="1950" y="-247" font-family="Helvetica,sans-Serif" font-size="10.00">/AliceO2Group/AliceO2</text>
<text text-anchor="start" x="1950" y="-236" font-family="Helvetica,sans-Serif" font-size="10.00">/Detectors/TPC/reconstruction</text>
<text text-anchor="middle" x="2017" y="-225" font-family="Helvetica,sans-Serif" font-size="10.00">/macro/RawClusterFinder.C</text>
</a>
</g>
</g>
<!-- Node21&#45;&gt;Node24 -->
<g id="edge27" class="edge"><title>Node21&#45;&gt;Node24</title>
<path fill="none" stroke="midnightblue" d="M2067.93,-304.423C2058.03,-292.866 2047.43,-280.497 2038.47,-270.054"/>
<polygon fill="midnightblue" stroke="midnightblue" points="2065.49,-306.946 2074.65,-312.261 2070.8,-302.391 2065.49,-306.946"/>
</g>
<!-- Node21&#45;&gt;Node26 -->
<g id="edge29" class="edge"><title>Node21&#45;&gt;Node26</title>
<path fill="none" stroke="midnightblue" d="M2015.92,-329.831C1947.47,-318.329 1849.16,-299.762 1765,-276 1758.72,-274.226 1752.23,-272.2 1745.79,-270.052"/>
<polygon fill="midnightblue" stroke="midnightblue" points="2015.36,-333.285 2025.8,-331.476 2016.51,-326.38 2015.36,-333.285"/>
</g>
<!-- Node21&#45;&gt;Node28 -->
<g id="edge31" class="edge"><title>Node21&#45;&gt;Node28</title>
<path fill="none" stroke="midnightblue" d="M2186.09,-312.002C2223.19,-298.483 2266.13,-282.842 2301.18,-270.073"/>
<polygon fill="midnightblue" stroke="midnightblue" points="2184.49,-308.86 2176.29,-315.571 2186.88,-315.437 2184.49,-308.86"/>
</g>
<!-- Node21&#45;&gt;Node29 -->
<g id="edge32" class="edge"><title>Node21&#45;&gt;Node29</title>
<path fill="none" stroke="midnightblue" d="M2186.22,-331.881C2261.82,-320.999 2374.86,-302.228 2471,-276 2477.45,-274.241 2484.1,-272.198 2490.71,-270.016"/>
<polygon fill="midnightblue" stroke="midnightblue" points="2185.67,-328.423 2176.27,-333.299 2186.66,-335.353 2185.67,-328.423"/>
</g>
<!-- Node21&#45;&gt;Node30 -->
<g id="edge33" class="edge"><title>Node21&#45;&gt;Node30</title>
<path fill="none" stroke="midnightblue" d="M2186.31,-338.308C2293.14,-331.078 2481.18,-313.865 2638,-276 2644.87,-274.341 2651.95,-272.307 2658.96,-270.082"/>
<polygon fill="midnightblue" stroke="midnightblue" points="2185.97,-334.822 2176.23,-338.976 2186.44,-341.807 2185.97,-334.822"/>
</g>
<!-- Node31 -->
<g id="node31" class="node"><title>Node31</title>
<g id="a_node31"><a xlink:href="../../d6/da8/TrackTPC_8cxx.html" target="_top" xlink:title="Implementation of the TPC track. ">
<polygon fill="none" stroke="black" points="2110,-218 2110,-270 2260,-270 2260,-218 2110,-218"/>
<text text-anchor="start" x="2118" y="-258" font-family="Helvetica,sans-Serif" font-size="10.00">/home/travis/build</text>
<text text-anchor="start" x="2118" y="-247" font-family="Helvetica,sans-Serif" font-size="10.00">/AliceO2Group/AliceO2</text>
<text text-anchor="start" x="2118" y="-236" font-family="Helvetica,sans-Serif" font-size="10.00">/Detectors/TPC/reconstruction</text>
<text text-anchor="middle" x="2185" y="-225" font-family="Helvetica,sans-Serif" font-size="10.00">/src/TrackTPC.cxx</text>
</a>
</g>
</g>
<!-- Node21&#45;&gt;Node31 -->
<g id="edge34" class="edge"><title>Node21&#45;&gt;Node31</title>
<path fill="none" stroke="midnightblue" d="M2134.07,-304.423C2143.97,-292.866 2154.57,-280.497 2163.53,-270.054"/>
<polygon fill="midnightblue" stroke="midnightblue" points="2131.2,-302.391 2127.35,-312.261 2136.51,-306.946 2131.2,-302.391"/>
</g>
<!-- Node21&#45;&gt;Node32 -->
<g id="edge35" class="edge"><title>Node21&#45;&gt;Node32</title>
<path fill="none" stroke="midnightblue" d="M2186.17,-341.485C2319.72,-337.642 2585.91,-324.053 2806,-276 2813.35,-274.395 2820.94,-272.365 2828.43,-270.116"/>
<polygon fill="midnightblue" stroke="midnightblue" points="2185.9,-337.991 2176,-341.766 2186.09,-344.988 2185.9,-337.991"/>
</g>
<!-- Node25 -->
<g id="node25" class="node"><title>Node25</title>
<g id="a_node25"><a xlink:href="../../df/da0/runRawClusterFinder_8C.html" target="_top" xlink:title="/home/travis/build\l/AliceO2Group/AliceO2\l/Detectors/TPC/reconstruction\l/macro/runRawClusterFinder.C">
<polygon fill="none" stroke="black" points="1941,-112 1941,-164 2093,-164 2093,-112 1941,-112"/>
<text text-anchor="start" x="1949" y="-152" font-family="Helvetica,sans-Serif" font-size="10.00">/home/travis/build</text>
<text text-anchor="start" x="1949" y="-141" font-family="Helvetica,sans-Serif" font-size="10.00">/AliceO2Group/AliceO2</text>
<text text-anchor="start" x="1949" y="-130" font-family="Helvetica,sans-Serif" font-size="10.00">/Detectors/TPC/reconstruction</text>
<text text-anchor="middle" x="2017" y="-119" font-family="Helvetica,sans-Serif" font-size="10.00">/macro/runRawClusterFinder.C</text>
</a>
</g>
</g>
<!-- Node24&#45;&gt;Node25 -->
<g id="edge28" class="edge"><title>Node24&#45;&gt;Node25</title>
<path fill="none" stroke="midnightblue" d="M2017,-207.42C2017,-193.246 2017,-177.258 2017,-164.304"/>
<polygon fill="midnightblue" stroke="midnightblue" points="2013.5,-207.824 2017,-217.825 2020.5,-207.825 2013.5,-207.824"/>
</g>
<!-- Node27 -->
<g id="node27" class="node"><title>Node27</title>
<g id="a_node27"><a xlink:href="../../d3/d56/runTPC_8cxx.html" target="_top" xlink:title="/home/travis/build\l/AliceO2Group/AliceO2\l/run/runTPC.cxx">
<polygon fill="none" stroke="black" points="1622,-117.5 1622,-158.5 1740,-158.5 1740,-117.5 1622,-117.5"/>
<text text-anchor="start" x="1630" y="-146.5" font-family="Helvetica,sans-Serif" font-size="10.00">/home/travis/build</text>
<text text-anchor="start" x="1630" y="-135.5" font-family="Helvetica,sans-Serif" font-size="10.00">/AliceO2Group/AliceO2</text>
<text text-anchor="middle" x="1681" y="-124.5" font-family="Helvetica,sans-Serif" font-size="10.00">/run/runTPC.cxx</text>
</a>
</g>
</g>
<!-- Node26&#45;&gt;Node27 -->
<g id="edge30" class="edge"><title>Node26&#45;&gt;Node27</title>
<path fill="none" stroke="midnightblue" d="M1681,-207.534C1681,-191.225 1681,-172.495 1681,-158.741"/>
<polygon fill="midnightblue" stroke="midnightblue" points="1677.5,-207.824 1681,-217.825 1684.5,-207.825 1677.5,-207.824"/>
</g>
</g>
</svg>
