<?xml version="1.0" encoding="UTF-8" standalone="no"?>
<!DOCTYPE svg PUBLIC "-//W3C//DTD SVG 1.1//EN"
 "http://www.w3.org/Graphics/SVG/1.1/DTD/svg11.dtd">
<!-- Generated by graphviz version 2.36.0 (20140111.2315)
 -->
<!-- Title: /home/travis/build/AliceO2Group/AliceO2/Framework/Core/src/DriverInfo.cxx Pages: 1 -->
<svg width="326pt" height="162pt"
 viewBox="0.00 0.00 326.00 162.00" xmlns="http://www.w3.org/2000/svg" xmlns:xlink="http://www.w3.org/1999/xlink">
<g id="graph0" class="graph" transform="scale(1 1) rotate(0) translate(4 158)">
<title>/home/travis/build/AliceO2Group/AliceO2/Framework/Core/src/DriverInfo.cxx</title>
<!-- Node1 -->
<g id="node1" class="node"><title>Node1</title>
<polygon fill="#bfbfbf" stroke="black" points="55.5,-112.5 55.5,-153.5 228.5,-153.5 228.5,-112.5 55.5,-112.5"/>
<text text-anchor="start" x="63.5" y="-141.5" font-family="Helvetica,sans-Serif" font-size="10.00">/home/travis/build</text>
<text text-anchor="start" x="63.5" y="-130.5" font-family="Helvetica,sans-Serif" font-size="10.00">/AliceO2Group/AliceO2</text>
<text text-anchor="middle" x="142" y="-119.5" font-family="Helvetica,sans-Serif" font-size="10.00">/Framework/Core/src/DriverInfo.cxx</text>
</g>
<!-- Node2 -->
<g id="node2" class="node"><title>Node2</title>
<g id="a_node2"><a xlink:href="../../de/da9/DriverInfo_8h.html" target="_top" xlink:title="DriverInfo.h">
<polygon fill="none" stroke="black" points="108,-56.5 108,-75.5 176,-75.5 176,-56.5 108,-56.5"/>
<text text-anchor="middle" x="142" y="-63.5" font-family="Helvetica,sans-Serif" font-size="10.00">DriverInfo.h</text>
</a>
</g>
</g>
<!-- Node1&#45;&gt;Node2 -->
<g id="edge1" class="edge"><title>Node1&#45;&gt;Node2</title>
<path fill="none" stroke="midnightblue" d="M142,-112.498C142,-104.065 142,-94.2351 142,-85.874"/>
<polygon fill="midnightblue" stroke="midnightblue" points="145.5,-85.6525 142,-75.6525 138.5,-85.6525 145.5,-85.6525"/>
</g>
<!-- Node3 -->
<g id="node3" class="node"><title>Node3</title>
<polygon fill="none" stroke="#bfbfbf" points="-0.5,-0.5 -0.5,-19.5 48.5,-19.5 48.5,-0.5 -0.5,-0.5"/>
<text text-anchor="middle" x="24" y="-7.5" font-family="Helvetica,sans-Serif" font-size="10.00">cstddef</text>
</g>
<!-- Node2&#45;&gt;Node3 -->
<g id="edge2" class="edge"><title>Node2&#45;&gt;Node3</title>
<path fill="none" stroke="midnightblue" d="M123.303,-56.4435C104.056,-47.6356 73.8475,-33.8116 51.7999,-23.722"/>
<polygon fill="midnightblue" stroke="midnightblue" points="53.1595,-20.4951 42.61,-19.5164 50.2466,-26.8603 53.1595,-20.4951"/>
</g>
<!-- Node4 -->
<g id="node4" class="node"><title>Node4</title>
<polygon fill="none" stroke="#bfbfbf" points="66.5,-0.5 66.5,-19.5 101.5,-19.5 101.5,-0.5 66.5,-0.5"/>
<text text-anchor="middle" x="84" y="-7.5" font-family="Helvetica,sans-Serif" font-size="10.00">map</text>
</g>
<!-- Node2&#45;&gt;Node4 -->
<g id="edge3" class="edge"><title>Node2&#45;&gt;Node4</title>
<path fill="none" stroke="midnightblue" d="M132.681,-56.324C124.107,-48.3414 111.188,-36.3128 100.812,-26.6529"/>
<polygon fill="midnightblue" stroke="midnightblue" points="103.192,-24.0865 93.4883,-19.8339 98.4223,-29.2098 103.192,-24.0865"/>
</g>
<!-- Node5 -->
<g id="node5" class="node"><title>Node5</title>
<polygon fill="none" stroke="#bfbfbf" points="120,-0.5 120,-19.5 164,-19.5 164,-0.5 120,-0.5"/>
<text text-anchor="middle" x="142" y="-7.5" font-family="Helvetica,sans-Serif" font-size="10.00">vector</text>
</g>
<!-- Node2&#45;&gt;Node5 -->
<g id="edge4" class="edge"><title>Node2&#45;&gt;Node5</title>
<path fill="none" stroke="midnightblue" d="M142,-56.083C142,-49.0059 142,-38.8611 142,-29.9865"/>
<polygon fill="midnightblue" stroke="midnightblue" points="145.5,-29.751 142,-19.7511 138.5,-29.7511 145.5,-29.751"/>
</g>
<!-- Node6 -->
<g id="node6" class="node"><title>Node6</title>
<polygon fill="none" stroke="#bfbfbf" points="182.5,-0.5 182.5,-19.5 229.5,-19.5 229.5,-0.5 182.5,-0.5"/>
<text text-anchor="middle" x="206" y="-7.5" font-family="Helvetica,sans-Serif" font-size="10.00">csignal</text>
</g>
<!-- Node2&#45;&gt;Node6 -->
<g id="edge5" class="edge"><title>Node2&#45;&gt;Node6</title>
<path fill="none" stroke="midnightblue" d="M152.283,-56.324C161.836,-48.2631 176.28,-36.0765 187.784,-26.3695"/>
<polygon fill="midnightblue" stroke="midnightblue" points="190.144,-28.9577 195.53,-19.8339 185.63,-23.6076 190.144,-28.9577"/>
</g>
<!-- Node7 -->
<g id="node7" class="node"><title>Node7</title>
<polygon fill="none" stroke="#bfbfbf" points="248,-0.5 248,-19.5 318,-19.5 318,-0.5 248,-0.5"/>
<text text-anchor="middle" x="283" y="-7.5" font-family="Helvetica,sans-Serif" font-size="10.00">sys/select.h</text>
</g>
<!-- Node2&#45;&gt;Node7 -->
<g id="edge6" class="edge"><title>Node2&#45;&gt;Node7</title>
<path fill="none" stroke="midnightblue" d="M164.342,-56.4435C187.753,-47.4776 224.736,-33.314 251.19,-23.1827"/>
<polygon fill="midnightblue" stroke="midnightblue" points="252.676,-26.3615 260.763,-19.5164 250.172,-19.8245 252.676,-26.3615"/>
</g>
</g>
</svg>
