<?xml version="1.0" encoding="UTF-8" standalone="no"?>
<!DOCTYPE svg PUBLIC "-//W3C//DTD SVG 1.1//EN"
 "http://www.w3.org/Graphics/SVG/1.1/DTD/svg11.dtd">
<!-- Generated by graphviz version 2.36.0 (20140111.2315)
 -->
<!-- Title: /home/travis/build/AliceO2Group/AliceO2/Detectors/TPC/base/include/TPCBase/Mapper.h Pages: 1 -->
<svg width="1359pt" height="534pt"
 viewBox="0.00 0.00 1359.00 534.00" xmlns="http://www.w3.org/2000/svg" xmlns:xlink="http://www.w3.org/1999/xlink">
<g id="graph0" class="graph" transform="scale(1 1) rotate(0) translate(4 530)">
<title>/home/travis/build/AliceO2Group/AliceO2/Detectors/TPC/base/include/TPCBase/Mapper.h</title>
<!-- Node1 -->
<g id="node1" class="node"><title>Node1</title>
<polygon fill="#bfbfbf" stroke="black" points="512.5,-473 512.5,-525 655.5,-525 655.5,-473 512.5,-473"/>
<text text-anchor="start" x="520.5" y="-513" font-family="Helvetica,sans-Serif" font-size="10.00">/home/travis/build</text>
<text text-anchor="start" x="520.5" y="-502" font-family="Helvetica,sans-Serif" font-size="10.00">/AliceO2Group/AliceO2</text>
<text text-anchor="start" x="520.5" y="-491" font-family="Helvetica,sans-Serif" font-size="10.00">/Detectors/TPC/base/include</text>
<text text-anchor="middle" x="584" y="-480" font-family="Helvetica,sans-Serif" font-size="10.00">/TPCBase/Mapper.h</text>
</g>
<!-- Node2 -->
<g id="node2" class="node"><title>Node2</title>
<polygon fill="none" stroke="#bfbfbf" points="184.5,-416.5 184.5,-435.5 219.5,-435.5 219.5,-416.5 184.5,-416.5"/>
<text text-anchor="middle" x="202" y="-423.5" font-family="Helvetica,sans-Serif" font-size="10.00">map</text>
</g>
<!-- Node1&#45;&gt;Node2 -->
<g id="edge1" class="edge"><title>Node1&#45;&gt;Node2</title>
<path fill="none" stroke="midnightblue" d="M512.194,-487.408C441.149,-476.429 329.501,-457.832 234,-436 232.523,-435.662 231.013,-435.299 229.491,-434.92"/>
<polygon fill="midnightblue" stroke="midnightblue" points="230.089,-431.457 219.525,-432.266 228.288,-438.221 230.089,-431.457"/>
</g>
<!-- Node3 -->
<g id="node3" class="node"><title>Node3</title>
<polygon fill="none" stroke="#bfbfbf" points="422,-360.5 422,-379.5 466,-379.5 466,-360.5 422,-360.5"/>
<text text-anchor="middle" x="444" y="-367.5" font-family="Helvetica,sans-Serif" font-size="10.00">vector</text>
</g>
<!-- Node1&#45;&gt;Node3 -->
<g id="edge2" class="edge"><title>Node1&#45;&gt;Node3</title>
<path fill="none" stroke="midnightblue" d="M512.185,-475.491C492.409,-466.132 472.664,-453.298 459,-436 448.577,-422.805 445.152,-403.67 444.14,-389.577"/>
<polygon fill="midnightblue" stroke="midnightblue" points="447.637,-389.424 443.758,-379.565 440.642,-389.691 447.637,-389.424"/>
</g>
<!-- Node4 -->
<g id="node4" class="node"><title>Node4</title>
<polygon fill="none" stroke="#bfbfbf" points="276,-416.5 276,-435.5 314,-435.5 314,-416.5 276,-416.5"/>
<text text-anchor="middle" x="295" y="-423.5" font-family="Helvetica,sans-Serif" font-size="10.00">array</text>
</g>
<!-- Node1&#45;&gt;Node4 -->
<g id="edge3" class="edge"><title>Node1&#45;&gt;Node4</title>
<path fill="none" stroke="midnightblue" d="M512.443,-482.578C462.145,-471.373 393.123,-455.269 323.976,-436.117"/>
<polygon fill="midnightblue" stroke="midnightblue" points="324.793,-432.712 314.22,-433.395 322.911,-439.454 324.793,-432.712"/>
</g>
<!-- Node5 -->
<g id="node5" class="node"><title>Node5</title>
<polygon fill="none" stroke="#bfbfbf" points="332.5,-416.5 332.5,-435.5 373.5,-435.5 373.5,-416.5 332.5,-416.5"/>
<text text-anchor="middle" x="353" y="-423.5" font-family="Helvetica,sans-Serif" font-size="10.00">string</text>
</g>
<!-- Node1&#45;&gt;Node5 -->
<g id="edge4" class="edge"><title>Node1&#45;&gt;Node5</title>
<path fill="none" stroke="midnightblue" d="M512.492,-476.021C469.21,-462.718 416.237,-446.437 383.556,-436.392"/>
<polygon fill="midnightblue" stroke="midnightblue" points="384.283,-432.954 373.696,-433.361 382.226,-439.645 384.283,-432.954"/>
</g>
<!-- Node6 -->
<g id="node6" class="node"><title>Node6</title>
<polygon fill="none" stroke="#bfbfbf" points="460,-136.5 460,-155.5 504,-155.5 504,-136.5 460,-136.5"/>
<text text-anchor="middle" x="482" y="-143.5" font-family="Helvetica,sans-Serif" font-size="10.00">cmath</text>
</g>
<!-- Node1&#45;&gt;Node6 -->
<g id="edge5" class="edge"><title>Node1&#45;&gt;Node6</title>
<path fill="none" stroke="midnightblue" d="M512.269,-492.555C430.068,-484.88 302.155,-468.085 267,-436 244.769,-415.71 248,-401.098 248,-371 248,-371 248,-371 248,-257 248,-168.948 385.38,-151.25 449.613,-147.788"/>
<polygon fill="midnightblue" stroke="midnightblue" points="450.154,-151.267 459.986,-147.319 449.838,-144.274 450.154,-151.267"/>
</g>
<!-- Node7 -->
<g id="node7" class="node"><title>Node7</title>
<g id="a_node7"><a xlink:href="../../d1/d73/Defs_8h.html" target="_top" xlink:title="Common definitions for 2D coordinates. ">
<polygon fill="none" stroke="black" points="815,-192.5 815,-211.5 907,-211.5 907,-192.5 815,-192.5"/>
<text text-anchor="middle" x="861" y="-199.5" font-family="Helvetica,sans-Serif" font-size="10.00">TPCBase/Defs.h</text>
</a>
</g>
</g>
<!-- Node1&#45;&gt;Node7 -->
<g id="edge6" class="edge"><title>Node1&#45;&gt;Node7</title>
<path fill="none" stroke="midnightblue" d="M655.616,-494.606C793.423,-486.11 1082,-457.939 1082,-371 1082,-371 1082,-371 1082,-313 1082,-239.468 982.734,-215.09 917.258,-207.008"/>
<polygon fill="midnightblue" stroke="midnightblue" points="917.392,-203.501 907.06,-205.846 916.599,-210.456 917.392,-203.501"/>
</g>
<!-- Node20 -->
<g id="node20" class="node"><title>Node20</title>
<g id="a_node20"><a xlink:href="../../de/d41/PadPos_8h.html" target="_top" xlink:title="TPCBase/PadPos.h">
<polygon fill="none" stroke="black" points="649.5,-304.5 649.5,-323.5 754.5,-323.5 754.5,-304.5 649.5,-304.5"/>
<text text-anchor="middle" x="702" y="-311.5" font-family="Helvetica,sans-Serif" font-size="10.00">TPCBase/PadPos.h</text>
</a>
</g>
</g>
<!-- Node1&#45;&gt;Node20 -->
<g id="edge21" class="edge"><title>Node1&#45;&gt;Node20</title>
<path fill="none" stroke="midnightblue" d="M615.018,-472.815C639.705,-450.958 673,-417.065 691,-380 698.031,-365.522 700.657,-347.337 701.595,-333.885"/>
<polygon fill="midnightblue" stroke="midnightblue" points="705.092,-334.033 702.047,-323.885 698.099,-333.717 705.092,-334.033"/>
</g>
<!-- Node21 -->
<g id="node21" class="node"><title>Node21</title>
<g id="a_node21"><a xlink:href="../../dd/d0b/PadSecPos_8h.html" target="_top" xlink:title="TPCBase/PadSecPos.h">
<polygon fill="none" stroke="black" points="560,-360.5 560,-379.5 682,-379.5 682,-360.5 560,-360.5"/>
<text text-anchor="middle" x="621" y="-367.5" font-family="Helvetica,sans-Serif" font-size="10.00">TPCBase/PadSecPos.h</text>
</a>
</g>
</g>
<!-- Node1&#45;&gt;Node21 -->
<g id="edge22" class="edge"><title>Node1&#45;&gt;Node21</title>
<path fill="none" stroke="midnightblue" d="M597.275,-472.984C602.619,-461.925 608.366,-448.596 612,-436 616.397,-420.761 618.673,-402.874 619.835,-389.725"/>
<polygon fill="midnightblue" stroke="midnightblue" points="623.338,-389.809 620.594,-379.575 616.358,-389.286 623.338,-389.809"/>
</g>
<!-- Node22 -->
<g id="node22" class="node"><title>Node22</title>
<g id="a_node22"><a xlink:href="../../d3/dd6/Sector_8h.html" target="_top" xlink:title="TPCBase/Sector.h">
<polygon fill="none" stroke="black" points="692.5,-248.5 692.5,-267.5 791.5,-267.5 791.5,-248.5 692.5,-248.5"/>
<text text-anchor="middle" x="742" y="-255.5" font-family="Helvetica,sans-Serif" font-size="10.00">TPCBase/Sector.h</text>
</a>
</g>
</g>
<!-- Node1&#45;&gt;Node22 -->
<g id="edge48" class="edge"><title>Node1&#45;&gt;Node22</title>
<path fill="none" stroke="midnightblue" d="M512.258,-474.124C450.709,-449.68 377.175,-408.474 413,-360 445.196,-316.438 596.832,-283.916 682.562,-268.649"/>
<polygon fill="midnightblue" stroke="midnightblue" points="683.18,-272.094 692.424,-266.917 681.969,-265.2 683.18,-272.094"/>
</g>
<!-- Node24 -->
<g id="node24" class="node"><title>Node24</title>
<g id="a_node24"><a xlink:href="../../da/d61/PadROCPos_8h.html" target="_top" xlink:title="TPCBase/PadROCPos.h">
<polygon fill="none" stroke="black" points="888,-360.5 888,-379.5 1016,-379.5 1016,-360.5 888,-360.5"/>
<text text-anchor="middle" x="952" y="-367.5" font-family="Helvetica,sans-Serif" font-size="10.00">TPCBase/PadROCPos.h</text>
</a>
</g>
</g>
<!-- Node1&#45;&gt;Node24 -->
<g id="edge27" class="edge"><title>Node1&#45;&gt;Node24</title>
<path fill="none" stroke="midnightblue" d="M655.562,-488.924C711.532,-480.118 790.419,-463.888 855,-436 884.883,-423.096 915.44,-400.807 934.07,-385.983"/>
<polygon fill="midnightblue" stroke="midnightblue" points="936.414,-388.588 941.973,-379.569 932.003,-383.153 936.414,-388.588"/>
</g>
<!-- Node26 -->
<g id="node26" class="node"><title>Node26</title>
<g id="a_node26"><a xlink:href="../../d3/d54/DigitPos_8h.html" target="_top" xlink:title="TPCBase/DigitPos.h">
<polygon fill="none" stroke="black" points="738,-416.5 738,-435.5 846,-435.5 846,-416.5 738,-416.5"/>
<text text-anchor="middle" x="792" y="-423.5" font-family="Helvetica,sans-Serif" font-size="10.00">TPCBase/DigitPos.h</text>
</a>
</g>
</g>
<!-- Node1&#45;&gt;Node26 -->
<g id="edge33" class="edge"><title>Node1&#45;&gt;Node26</title>
<path fill="none" stroke="midnightblue" d="M655.582,-473.566C689.91,-461.848 729.475,-448.343 757.126,-438.904"/>
<polygon fill="midnightblue" stroke="midnightblue" points="758.409,-442.165 766.742,-435.622 756.147,-435.54 758.409,-442.165"/>
</g>
<!-- Node28 -->
<g id="node28" class="node"><title>Node28</title>
<g id="a_node28"><a xlink:href="../../d1/d1f/FECInfo_8h.html" target="_top" xlink:title="TPCBase/FECInfo.h">
<polygon fill="none" stroke="black" points="1190.5,-248.5 1190.5,-267.5 1297.5,-267.5 1297.5,-248.5 1190.5,-248.5"/>
<text text-anchor="middle" x="1244" y="-255.5" font-family="Helvetica,sans-Serif" font-size="10.00">TPCBase/FECInfo.h</text>
</a>
</g>
</g>
<!-- Node1&#45;&gt;Node28 -->
<g id="edge41" class="edge"><title>Node1&#45;&gt;Node28</title>
<path fill="none" stroke="midnightblue" d="M655.574,-495.78C778.008,-490.928 1021.64,-476.376 1096,-436 1165.5,-398.261 1215.83,-313.452 1235.22,-276.625"/>
<polygon fill="midnightblue" stroke="midnightblue" points="1238.4,-278.084 1239.86,-267.59 1232.18,-274.887 1238.4,-278.084"/>
</g>
<!-- Node29 -->
<g id="node29" class="node"><title>Node29</title>
<g id="a_node29"><a xlink:href="../../da/d9d/PadRegionInfo_8h.html" target="_top" xlink:title="TPCBase/PadRegionInfo.h">
<polygon fill="none" stroke="black" points="468.5,-416.5 468.5,-435.5 603.5,-435.5 603.5,-416.5 468.5,-416.5"/>
<text text-anchor="middle" x="536" y="-423.5" font-family="Helvetica,sans-Serif" font-size="10.00">TPCBase/PadRegionInfo.h</text>
</a>
</g>
</g>
<!-- Node1&#45;&gt;Node29 -->
<g id="edge43" class="edge"><title>Node1&#45;&gt;Node29</title>
<path fill="none" stroke="midnightblue" d="M566.942,-472.768C560.53,-463.284 553.396,-452.731 547.594,-444.15"/>
<polygon fill="midnightblue" stroke="midnightblue" points="550.421,-442.081 541.92,-435.757 544.622,-446.002 550.421,-442.081"/>
</g>
<!-- Node30 -->
<g id="node30" class="node"><title>Node30</title>
<g id="a_node30"><a xlink:href="../../d6/d42/PartitionInfo_8h.html" target="_top" xlink:title="TPCBase/PartitionInfo.h">
<polygon fill="none" stroke="black" points="1148.5,-416.5 1148.5,-435.5 1271.5,-435.5 1271.5,-416.5 1148.5,-416.5"/>
<text text-anchor="middle" x="1210" y="-423.5" font-family="Helvetica,sans-Serif" font-size="10.00">TPCBase/PartitionInfo.h</text>
</a>
</g>
</g>
<!-- Node1&#45;&gt;Node30 -->
<g id="edge47" class="edge"><title>Node1&#45;&gt;Node30</title>
<path fill="none" stroke="midnightblue" d="M655.648,-490.053C760.632,-478.38 962.419,-455.83 1134,-436 1135.3,-435.85 1136.61,-435.698 1137.93,-435.545"/>
<polygon fill="midnightblue" stroke="midnightblue" points="1138.67,-438.982 1148.2,-434.348 1137.86,-432.029 1138.67,-438.982"/>
</g>
<!-- Node7&#45;&gt;Node6 -->
<g id="edge7" class="edge"><title>Node7&#45;&gt;Node6</title>
<path fill="none" stroke="midnightblue" d="M814.867,-193.507C811.529,-192.989 808.214,-192.482 805,-192 698.788,-176.068 572.632,-159.039 514.406,-151.286"/>
<polygon fill="midnightblue" stroke="midnightblue" points="514.718,-147.797 504.344,-149.949 513.796,-154.736 514.718,-147.797"/>
</g>
<!-- Node8 -->
<g id="node8" class="node"><title>Node8</title>
<g id="a_node8"><a xlink:href="../../d2/dd0/Cartesian2D_8h.html" target="_top" xlink:title="MathUtils/Cartesian2D.h">
<polygon fill="none" stroke="black" points="103.5,-74.5 103.5,-93.5 228.5,-93.5 228.5,-74.5 103.5,-74.5"/>
<text text-anchor="middle" x="166" y="-81.5" font-family="Helvetica,sans-Serif" font-size="10.00">MathUtils/Cartesian2D.h</text>
</a>
</g>
</g>
<!-- Node7&#45;&gt;Node8 -->
<g id="edge8" class="edge"><title>Node7&#45;&gt;Node8</title>
<path fill="none" stroke="midnightblue" d="M819.223,-192.464C753.871,-179.282 623.397,-153.652 512,-136 390.254,-116.708 358.505,-120.756 237,-100 229.488,-98.7167 221.561,-97.2024 213.836,-95.6378"/>
<polygon fill="midnightblue" stroke="midnightblue" points="214.35,-92.1701 203.848,-93.5673 212.929,-99.0243 214.35,-92.1701"/>
</g>
<!-- Node11 -->
<g id="node11" class="node"><title>Node11</title>
<g id="a_node11"><a xlink:href="../../dd/d76/Cartesian3D_8h.html" target="_top" xlink:title="MathUtils/Cartesian3D.h">
<polygon fill="none" stroke="black" points="798.5,-136.5 798.5,-155.5 923.5,-155.5 923.5,-136.5 798.5,-136.5"/>
<text text-anchor="middle" x="861" y="-143.5" font-family="Helvetica,sans-Serif" font-size="10.00">MathUtils/Cartesian3D.h</text>
</a>
</g>
</g>
<!-- Node7&#45;&gt;Node11 -->
<g id="edge11" class="edge"><title>Node7&#45;&gt;Node11</title>
<path fill="none" stroke="midnightblue" d="M861,-192.083C861,-185.006 861,-174.861 861,-165.986"/>
<polygon fill="midnightblue" stroke="midnightblue" points="864.5,-165.751 861,-155.751 857.5,-165.751 864.5,-165.751"/>
</g>
<!-- Node9 -->
<g id="node9" class="node"><title>Node9</title>
<polygon fill="none" stroke="#bfbfbf" points="-0.5,-1 -0.5,-31 150.5,-31 150.5,-1 -0.5,-1"/>
<text text-anchor="start" x="7.5" y="-19" font-family="Helvetica,sans-Serif" font-size="10.00">Math/GenVector/Displacement</text>
<text text-anchor="middle" x="75" y="-8" font-family="Helvetica,sans-Serif" font-size="10.00">Vector2D.h</text>
</g>
<!-- Node8&#45;&gt;Node9 -->
<g id="edge9" class="edge"><title>Node8&#45;&gt;Node9</title>
<path fill="none" stroke="midnightblue" d="M154.103,-74.3717C141.221,-65.0286 120.22,-49.7966 103.093,-37.375"/>
<polygon fill="midnightblue" stroke="midnightblue" points="104.703,-34.2194 94.5532,-31.1815 100.593,-39.8859 104.703,-34.2194"/>
</g>
<!-- Node10 -->
<g id="node10" class="node"><title>Node10</title>
<polygon fill="none" stroke="#bfbfbf" points="169,-6.5 169,-25.5 345,-25.5 345,-6.5 169,-6.5"/>
<text text-anchor="middle" x="257" y="-13.5" font-family="Helvetica,sans-Serif" font-size="10.00">Math/GenVector/PositionVector2D.h</text>
</g>
<!-- Node8&#45;&gt;Node10 -->
<g id="edge10" class="edge"><title>Node8&#45;&gt;Node10</title>
<path fill="none" stroke="midnightblue" d="M177.897,-74.3717C192.884,-63.5015 218.862,-44.6602 236.942,-31.5474"/>
<polygon fill="midnightblue" stroke="midnightblue" points="239.06,-34.3349 245.1,-25.6305 234.95,-28.6684 239.06,-34.3349"/>
</g>
<!-- Node11&#45;&gt;Node8 -->
<g id="edge20" class="edge"><title>Node11&#45;&gt;Node8</title>
<path fill="none" stroke="midnightblue" d="M798.398,-141.574C662.513,-133.959 344.147,-115.11 237,-100 228.752,-98.8368 220.028,-97.2739 211.625,-95.5954"/>
<polygon fill="midnightblue" stroke="midnightblue" points="212.09,-92.1173 201.587,-93.5096 210.666,-98.9709 212.09,-92.1173"/>
</g>
<!-- Node12 -->
<g id="node12" class="node"><title>Node12</title>
<polygon fill="none" stroke="#bfbfbf" points="1127.5,-69 1127.5,-99 1278.5,-99 1278.5,-69 1127.5,-69"/>
<text text-anchor="start" x="1135.5" y="-87" font-family="Helvetica,sans-Serif" font-size="10.00">Math/GenVector/Displacement</text>
<text text-anchor="middle" x="1203" y="-76" font-family="Helvetica,sans-Serif" font-size="10.00">Vector3D.h</text>
</g>
<!-- Node11&#45;&gt;Node12 -->
<g id="edge12" class="edge"><title>Node11&#45;&gt;Node12</title>
<path fill="none" stroke="midnightblue" d="M909.794,-136.476C959.371,-127.811 1038.67,-113.94 1117.37,-100.11"/>
<polygon fill="midnightblue" stroke="midnightblue" points="1118.21,-103.515 1127.46,-98.3365 1117,-96.6205 1118.21,-103.515"/>
</g>
<!-- Node13 -->
<g id="node13" class="node"><title>Node13</title>
<polygon fill="none" stroke="#bfbfbf" points="246,-74.5 246,-93.5 422,-93.5 422,-74.5 246,-74.5"/>
<text text-anchor="middle" x="334" y="-81.5" font-family="Helvetica,sans-Serif" font-size="10.00">Math/GenVector/PositionVector3D.h</text>
</g>
<!-- Node11&#45;&gt;Node13 -->
<g id="edge13" class="edge"><title>Node11&#45;&gt;Node13</title>
<path fill="none" stroke="midnightblue" d="M798.22,-139.405C714.374,-131.709 561.267,-116.878 431,-100 419.694,-98.5351 407.673,-96.8115 396.082,-95.0643"/>
<polygon fill="midnightblue" stroke="midnightblue" points="396.45,-91.58 386.036,-93.5288 395.392,-98.4996 396.45,-91.58"/>
</g>
<!-- Node14 -->
<g id="node14" class="node"><title>Node14</title>
<polygon fill="none" stroke="#bfbfbf" points="439.5,-74.5 439.5,-93.5 588.5,-93.5 588.5,-74.5 439.5,-74.5"/>
<text text-anchor="middle" x="514" y="-81.5" font-family="Helvetica,sans-Serif" font-size="10.00">Math/GenVector/Rotation3D.h</text>
</g>
<!-- Node11&#45;&gt;Node14 -->
<g id="edge14" class="edge"><title>Node11&#45;&gt;Node14</title>
<path fill="none" stroke="midnightblue" d="M810.562,-136.482C757.606,-127.512 671.922,-112.924 598,-100 589.412,-98.4985 580.333,-96.8946 571.443,-95.3148"/>
<polygon fill="midnightblue" stroke="midnightblue" points="571.981,-91.8557 561.523,-93.5481 570.754,-98.7472 571.981,-91.8557"/>
</g>
<!-- Node15 -->
<g id="node15" class="node"><title>Node15</title>
<polygon fill="none" stroke="#bfbfbf" points="607,-74.5 607,-93.5 763,-93.5 763,-74.5 607,-74.5"/>
<text text-anchor="middle" x="685" y="-81.5" font-family="Helvetica,sans-Serif" font-size="10.00">Math/GenVector/Transform3D.h</text>
</g>
<!-- Node11&#45;&gt;Node15 -->
<g id="edge15" class="edge"><title>Node11&#45;&gt;Node15</title>
<path fill="none" stroke="midnightblue" d="M835.783,-136.403C805.332,-126.022 753.951,-108.506 719.757,-96.849"/>
<polygon fill="midnightblue" stroke="midnightblue" points="720.764,-93.4946 710.17,-93.5806 718.505,-100.12 720.764,-93.4946"/>
</g>
<!-- Node16 -->
<g id="node16" class="node"><title>Node16</title>
<polygon fill="none" stroke="#bfbfbf" points="781,-74.5 781,-93.5 941,-93.5 941,-74.5 781,-74.5"/>
<text text-anchor="middle" x="861" y="-81.5" font-family="Helvetica,sans-Serif" font-size="10.00">Math/GenVector/Translation3D.h</text>
</g>
<!-- Node11&#45;&gt;Node16 -->
<g id="edge16" class="edge"><title>Node11&#45;&gt;Node16</title>
<path fill="none" stroke="midnightblue" d="M861,-136.403C861,-127.938 861,-114.728 861,-103.82"/>
<polygon fill="midnightblue" stroke="midnightblue" points="864.5,-103.581 861,-93.5806 857.5,-103.581 864.5,-103.581"/>
</g>
<!-- Node17 -->
<g id="node17" class="node"><title>Node17</title>
<polygon fill="none" stroke="#bfbfbf" points="959,-74.5 959,-93.5 1015,-93.5 1015,-74.5 959,-74.5"/>
<text text-anchor="middle" x="987" y="-81.5" font-family="Helvetica,sans-Serif" font-size="10.00">Rtypes.h</text>
</g>
<!-- Node11&#45;&gt;Node17 -->
<g id="edge17" class="edge"><title>Node11&#45;&gt;Node17</title>
<path fill="none" stroke="midnightblue" d="M879.053,-136.403C900.198,-126.334 935.44,-109.552 959.878,-97.9151"/>
<polygon fill="midnightblue" stroke="midnightblue" points="961.457,-101.04 968.981,-93.5806 958.447,-94.72 961.457,-101.04"/>
</g>
<!-- Node18 -->
<g id="node18" class="node"><title>Node18</title>
<polygon fill="none" stroke="#bfbfbf" points="1033,-74.5 1033,-93.5 1109,-93.5 1109,-74.5 1033,-74.5"/>
<text text-anchor="middle" x="1071" y="-81.5" font-family="Helvetica,sans-Serif" font-size="10.00">TGeoMatrix.h</text>
</g>
<!-- Node11&#45;&gt;Node18 -->
<g id="edge18" class="edge"><title>Node11&#45;&gt;Node18</title>
<path fill="none" stroke="midnightblue" d="M893.053,-136.42C925.797,-127.58 978.065,-113.258 1023,-100 1026.76,-98.892 1030.67,-97.7119 1034.57,-96.519"/>
<polygon fill="midnightblue" stroke="midnightblue" points="1035.62,-99.8583 1044.14,-93.561 1033.55,-93.1705 1035.62,-99.8583"/>
</g>
<!-- Node19 -->
<g id="node19" class="node"><title>Node19</title>
<polygon fill="none" stroke="#bfbfbf" points="1297,-74.5 1297,-93.5 1351,-93.5 1351,-74.5 1297,-74.5"/>
<text text-anchor="middle" x="1324" y="-81.5" font-family="Helvetica,sans-Serif" font-size="10.00">iostream</text>
</g>
<!-- Node11&#45;&gt;Node19 -->
<g id="edge19" class="edge"><title>Node11&#45;&gt;Node19</title>
<path fill="none" stroke="midnightblue" d="M923.677,-143.836C1007.6,-141.048 1160.57,-131.638 1287,-100 1290.06,-99.2339 1293.2,-98.2658 1296.3,-97.1918"/>
<polygon fill="midnightblue" stroke="midnightblue" points="1297.81,-100.363 1305.9,-93.5179 1295.31,-93.8261 1297.81,-100.363"/>
</g>
<!-- Node21&#45;&gt;Node20 -->
<g id="edge26" class="edge"><title>Node21&#45;&gt;Node20</title>
<path fill="none" stroke="midnightblue" d="M634.014,-360.324C646.532,-351.979 665.682,-339.212 680.471,-329.352"/>
<polygon fill="midnightblue" stroke="midnightblue" points="682.639,-332.114 689.018,-323.655 678.756,-326.289 682.639,-332.114"/>
</g>
<!-- Node21&#45;&gt;Node22 -->
<g id="edge23" class="edge"><title>Node21&#45;&gt;Node22</title>
<path fill="none" stroke="midnightblue" d="M621.437,-360.326C622.564,-346.725 626.592,-320.26 641,-304 654.985,-288.217 675.565,-277.693 694.506,-270.821"/>
<polygon fill="midnightblue" stroke="midnightblue" points="695.856,-274.06 704.217,-267.552 693.623,-267.426 695.856,-274.06"/>
</g>
<!-- Node22&#45;&gt;Node7 -->
<g id="edge25" class="edge"><title>Node22&#45;&gt;Node7</title>
<path fill="none" stroke="midnightblue" d="M760.856,-248.444C780.266,-239.636 810.73,-225.812 832.965,-215.722"/>
<polygon fill="midnightblue" stroke="midnightblue" points="834.572,-218.836 842.232,-211.516 831.68,-212.462 834.572,-218.836"/>
</g>
<!-- Node23 -->
<g id="node23" class="node"><title>Node23</title>
<g id="a_node23"><a xlink:href="../../d6/d51/TPC_2base_2include_2TPCBase_2Constants_8h.html" target="_top" xlink:title="TPCBase/Constants.h">
<polygon fill="none" stroke="black" points="681,-192.5 681,-211.5 797,-211.5 797,-192.5 681,-192.5"/>
<text text-anchor="middle" x="739" y="-199.5" font-family="Helvetica,sans-Serif" font-size="10.00">TPCBase/Constants.h</text>
</a>
</g>
</g>
<!-- Node22&#45;&gt;Node23 -->
<g id="edge24" class="edge"><title>Node22&#45;&gt;Node23</title>
<path fill="none" stroke="midnightblue" d="M741.505,-248.083C741.111,-241.006 740.548,-230.861 740.055,-221.986"/>
<polygon fill="midnightblue" stroke="midnightblue" points="743.536,-221.542 739.486,-211.751 736.546,-221.93 743.536,-221.542"/>
</g>
<!-- Node24&#45;&gt;Node7 -->
<g id="edge28" class="edge"><title>Node24&#45;&gt;Node7</title>
<path fill="none" stroke="midnightblue" d="M953.738,-360.22C955.874,-347.374 958.377,-322.928 951,-304 936.77,-267.488 902.857,-235.666 880.964,-217.93"/>
<polygon fill="midnightblue" stroke="midnightblue" points="882.98,-215.063 872.955,-211.634 878.654,-220.566 882.98,-215.063"/>
</g>
<!-- Node24&#45;&gt;Node20 -->
<g id="edge32" class="edge"><title>Node24&#45;&gt;Node20</title>
<path fill="none" stroke="midnightblue" d="M912.387,-360.444C868.775,-351.023 798.6,-335.866 751.422,-325.675"/>
<polygon fill="midnightblue" stroke="midnightblue" points="751.941,-322.207 741.428,-323.516 750.464,-329.049 751.941,-322.207"/>
</g>
<!-- Node25 -->
<g id="node25" class="node"><title>Node25</title>
<g id="a_node25"><a xlink:href="../../dc/d14/ROC_8h.html" target="_top" xlink:title="TPCBase/ROC.h">
<polygon fill="none" stroke="black" points="849.5,-304.5 849.5,-323.5 942.5,-323.5 942.5,-304.5 849.5,-304.5"/>
<text text-anchor="middle" x="896" y="-311.5" font-family="Helvetica,sans-Serif" font-size="10.00">TPCBase/ROC.h</text>
</a>
</g>
</g>
<!-- Node24&#45;&gt;Node25 -->
<g id="edge29" class="edge"><title>Node24&#45;&gt;Node25</title>
<path fill="none" stroke="midnightblue" d="M943.003,-360.324C934.806,-352.42 922.494,-340.548 912.528,-330.938"/>
<polygon fill="midnightblue" stroke="midnightblue" points="914.789,-328.256 905.161,-323.834 909.93,-333.295 914.789,-328.256"/>
</g>
<!-- Node25&#45;&gt;Node7 -->
<g id="edge30" class="edge"><title>Node25&#45;&gt;Node7</title>
<path fill="none" stroke="midnightblue" d="M893.254,-304.368C887.58,-286.537 874.458,-245.295 866.814,-221.272"/>
<polygon fill="midnightblue" stroke="midnightblue" points="870.101,-220.059 863.734,-211.591 863.43,-222.182 870.101,-220.059"/>
</g>
<!-- Node25&#45;&gt;Node22 -->
<g id="edge31" class="edge"><title>Node25&#45;&gt;Node22</title>
<path fill="none" stroke="midnightblue" d="M871.598,-304.444C845.803,-295.399 804.923,-281.064 775.982,-270.916"/>
<polygon fill="midnightblue" stroke="midnightblue" points="776.882,-267.523 766.288,-267.516 774.566,-274.128 776.882,-267.523"/>
</g>
<!-- Node26&#45;&gt;Node7 -->
<g id="edge34" class="edge"><title>Node26&#45;&gt;Node7</title>
<path fill="none" stroke="midnightblue" d="M846.216,-422.282C907.836,-417.925 1002.77,-406.929 1025,-380 1078.05,-315.729 949.627,-244.467 889.73,-215.887"/>
<polygon fill="midnightblue" stroke="midnightblue" points="890.947,-212.592 880.407,-211.519 887.977,-218.931 890.947,-212.592"/>
</g>
<!-- Node26&#45;&gt;Node20 -->
<g id="edge39" class="edge"><title>Node26&#45;&gt;Node20</title>
<path fill="none" stroke="midnightblue" d="M784.938,-416.368C769.954,-398.055 734.767,-355.049 715.387,-331.362"/>
<polygon fill="midnightblue" stroke="midnightblue" points="718.071,-329.115 709.029,-323.591 712.653,-333.547 718.071,-329.115"/>
</g>
<!-- Node26&#45;&gt;Node21 -->
<g id="edge40" class="edge"><title>Node26&#45;&gt;Node21</title>
<path fill="none" stroke="midnightblue" d="M764.905,-416.444C736.012,-407.32 690.075,-392.813 657.895,-382.651"/>
<polygon fill="midnightblue" stroke="midnightblue" points="658.559,-379.19 647.969,-379.516 656.451,-385.865 658.559,-379.19"/>
</g>
<!-- Node27 -->
<g id="node27" class="node"><title>Node27</title>
<g id="a_node27"><a xlink:href="../../df/d26/CRU_8h.html" target="_top" xlink:title="TPCBase/CRU.h">
<polygon fill="none" stroke="black" points="776.5,-360.5 776.5,-379.5 869.5,-379.5 869.5,-360.5 776.5,-360.5"/>
<text text-anchor="middle" x="823" y="-367.5" font-family="Helvetica,sans-Serif" font-size="10.00">TPCBase/CRU.h</text>
</a>
</g>
</g>
<!-- Node26&#45;&gt;Node27 -->
<g id="edge35" class="edge"><title>Node26&#45;&gt;Node27</title>
<path fill="none" stroke="midnightblue" d="M797.119,-416.083C801.408,-408.613 807.658,-397.724 812.942,-388.52"/>
<polygon fill="midnightblue" stroke="midnightblue" points="816.033,-390.166 817.976,-379.751 809.962,-386.681 816.033,-390.166"/>
</g>
<!-- Node27&#45;&gt;Node7 -->
<g id="edge36" class="edge"><title>Node27&#45;&gt;Node7</title>
<path fill="none" stroke="midnightblue" d="M825.043,-360.075C831.025,-333.945 848.59,-257.211 856.747,-221.577"/>
<polygon fill="midnightblue" stroke="midnightblue" points="860.219,-222.097 859.039,-211.568 853.395,-220.535 860.219,-222.097"/>
</g>
<!-- Node27&#45;&gt;Node22 -->
<g id="edge37" class="edge"><title>Node27&#45;&gt;Node22</title>
<path fill="none" stroke="midnightblue" d="M816.644,-360.368C803.218,-342.135 771.768,-299.426 754.279,-275.675"/>
<polygon fill="midnightblue" stroke="midnightblue" points="757.074,-273.568 748.326,-267.591 751.438,-277.719 757.074,-273.568"/>
</g>
<!-- Node27&#45;&gt;Node25 -->
<g id="edge38" class="edge"><title>Node27&#45;&gt;Node25</title>
<path fill="none" stroke="midnightblue" d="M834.729,-360.324C845.837,-352.107 862.742,-339.602 875.983,-329.807"/>
<polygon fill="midnightblue" stroke="midnightblue" points="878.1,-332.595 884.058,-323.834 873.937,-326.967 878.1,-332.595"/>
</g>
<!-- Node28&#45;&gt;Node19 -->
<g id="edge42" class="edge"><title>Node28&#45;&gt;Node19</title>
<path fill="none" stroke="midnightblue" d="M1248.08,-248.234C1260.6,-221.317 1298.66,-139.476 1315.65,-102.942"/>
<polygon fill="midnightblue" stroke="midnightblue" points="1318.98,-104.087 1320.03,-93.5442 1312.64,-101.135 1318.98,-104.087"/>
</g>
<!-- Node29&#45;&gt;Node3 -->
<g id="edge44" class="edge"><title>Node29&#45;&gt;Node3</title>
<path fill="none" stroke="midnightblue" d="M521.219,-416.324C506.733,-407.822 484.427,-394.729 467.507,-384.797"/>
<polygon fill="midnightblue" stroke="midnightblue" points="469.141,-381.698 458.745,-379.655 465.597,-387.735 469.141,-381.698"/>
</g>
<!-- Node29&#45;&gt;Node7 -->
<g id="edge45" class="edge"><title>Node29&#45;&gt;Node7</title>
<path fill="none" stroke="midnightblue" d="M533.708,-416.456C530.713,-403.485 526.855,-378.39 536,-360 572.731,-286.14 609.665,-283.76 684,-248 706.001,-237.416 765.587,-223.281 809.575,-213.697"/>
<polygon fill="midnightblue" stroke="midnightblue" points="810.51,-217.076 819.546,-211.545 809.032,-210.234 810.51,-217.076"/>
</g>
<!-- Node29&#45;&gt;Node20 -->
<g id="edge46" class="edge"><title>Node29&#45;&gt;Node20</title>
<path fill="none" stroke="midnightblue" d="M535.43,-416.154C535.046,-402.317 536.413,-375.534 551,-360 573.628,-335.904 608.538,-324.529 639.094,-319.235"/>
<polygon fill="midnightblue" stroke="midnightblue" points="639.917,-322.65 649.266,-317.664 638.848,-315.732 639.917,-322.65"/>
</g>
</g>
</svg>
