<?xml version="1.0" encoding="UTF-8" standalone="no"?>
<!DOCTYPE svg PUBLIC "-//W3C//DTD SVG 1.1//EN"
 "http://www.w3.org/Graphics/SVG/1.1/DTD/svg11.dtd">
<!-- Generated by graphviz version 2.36.0 (20140111.2315)
 -->
<!-- Title: /home/travis/build/AliceO2Group/AliceO2/Detectors/TPC/simulation/include/TPCSimulation/Baseline.h Pages: 1 -->
<!--zoomable 422 -->
<svg id="main" version="1.1" xmlns="http://www.w3.org/2000/svg" xmlns:xlink="http://www.w3.org/1999/xlink" xml:space="preserve" onload="init(evt)">
<style type="text/css"><![CDATA[
.edge:hover path { stroke: red; }
.edge:hover polygon { stroke: red; fill: red; }
]]></style>
<script type="text/javascript"><![CDATA[
var edges = document.getElementsByTagName('g');
if (edges && edges.length) {
  for (var i=0;i<edges.length;i++) {
    if (edges[i].id.substr(0,4)=='edge') {
      edges[i].setAttribute('class','edge');
    }
  }
}
]]></script>
        <defs>
                <circle id="rim" cx="0" cy="0" r="7"/>
                <circle id="rim2" cx="0" cy="0" r="3.5"/>
                <g id="zoomPlus">
                        <use xlink:href="#rim" fill="#404040">
                                <set attributeName="fill" to="#808080" begin="zoomplus.mouseover" end="zoomplus.mouseout"/>
                        </use>
                        <path d="M-4,0h8M0,-4v8" fill="none" stroke="white" stroke-width="1.5" pointer-events="none"/>
                </g>
                <g id="zoomMin">
                        <use xlink:href="#rim" fill="#404040">
                                <set attributeName="fill" to="#808080" begin="zoomminus.mouseover" end="zoomminus.mouseout"/>
                        </use>
                        <path d="M-4,0h8" fill="none" stroke="white" stroke-width="1.5" pointer-events="none"/>
                </g>
                <g id="dirArrow">
                        <path fill="none" stroke="white" stroke-width="1.5" d="M0,-3.0v7 M-2.5,-0.5L0,-3.0L2.5,-0.5"/>
                </g>
               <g id="resetDef">
                       <use xlink:href="#rim2" fill="#404040">
                               <set attributeName="fill" to="#808080" begin="reset.mouseover" end="reset.mouseout"/>
                       </use>
               </g>
        </defs>

<script type="text/javascript">
var viewWidth = 1358;
var viewHeight = 422;
var sectionId = 'dynsection-0';
</script>
<script xlink:href="../../svgpan.js"/>
<svg id="graph" class="graph">
<g id="viewport">
<title>/home/travis/build/AliceO2Group/AliceO2/Detectors/TPC/simulation/include/TPCSimulation/Baseline.h</title>
<!-- Node1 -->
<g id="node1" class="node"><title>Node1</title>
<polygon fill="#bfbfbf" stroke="black" points="536,-361 536,-413 704,-413 704,-361 536,-361"/>
<text text-anchor="start" x="544" y="-401" font-family="Helvetica,sans-Serif" font-size="10.00">/home/travis/build</text>
<text text-anchor="start" x="544" y="-390" font-family="Helvetica,sans-Serif" font-size="10.00">/AliceO2Group/AliceO2</text>
<text text-anchor="start" x="544" y="-379" font-family="Helvetica,sans-Serif" font-size="10.00">/Detectors/TPC/simulation</text>
<text text-anchor="middle" x="620" y="-368" font-family="Helvetica,sans-Serif" font-size="10.00">/include/TPCSimulation/Baseline.h</text>
</g>
<!-- Node2 -->
<g id="node2" class="node"><title>Node2</title>
<polygon fill="none" stroke="#bfbfbf" points="598,-248.5 598,-267.5 642,-267.5 642,-248.5 598,-248.5"/>
<text text-anchor="middle" x="620" y="-255.5" font-family="Helvetica,sans-Serif" font-size="10.00">Vc/Vc</text>
</g>
<!-- Node1&#45;&gt;Node2 -->
<g id="edge1" class="edge"><title>Node1&#45;&gt;Node2</title>
<path fill="none" stroke="midnightblue" d="M620,-360.909C620,-336.409 620,-299.69 620,-277.664"/>
<polygon fill="midnightblue" stroke="midnightblue" points="623.5,-277.628 620,-267.628 616.5,-277.628 623.5,-277.628"/>
</g>
<!-- Node3 -->
<g id="node3" class="node"><title>Node3</title>
<g id="a_node3"><a xlink:href="../../dd/d0b/PadSecPos_8h.html" target="_top" xlink:title="TPCBase/PadSecPos.h">
<polygon fill="none" stroke="black" points="466,-304.5 466,-323.5 588,-323.5 588,-304.5 466,-304.5"/>
<text text-anchor="middle" x="527" y="-311.5" font-family="Helvetica,sans-Serif" font-size="10.00">TPCBase/PadSecPos.h</text>
</a>
</g>
</g>
<!-- Node1&#45;&gt;Node3 -->
<g id="edge2" class="edge"><title>Node1&#45;&gt;Node3</title>
<path fill="none" stroke="midnightblue" d="M587.212,-360.968C573.71,-350.66 558.514,-339.059 546.766,-330.09"/>
<polygon fill="midnightblue" stroke="midnightblue" points="548.612,-327.096 538.539,-323.81 544.364,-332.66 548.612,-327.096"/>
</g>
<!-- Node21 -->
<g id="node21" class="node"><title>Node21</title>
<g id="a_node21"><a xlink:href="../../db/dac/RandomRing_8h.html" target="_top" xlink:title="TPCBase/RandomRing.h">
<polygon fill="none" stroke="black" points="687,-304.5 687,-323.5 815,-323.5 815,-304.5 687,-304.5"/>
<text text-anchor="middle" x="751" y="-311.5" font-family="Helvetica,sans-Serif" font-size="10.00">TPCBase/RandomRing.h</text>
</a>
</g>
</g>
<!-- Node1&#45;&gt;Node21 -->
<g id="edge21" class="edge"><title>Node1&#45;&gt;Node21</title>
<path fill="none" stroke="midnightblue" d="M666.186,-360.968C686.26,-350.088 708.993,-337.767 725.867,-328.622"/>
<polygon fill="midnightblue" stroke="midnightblue" points="727.937,-331.481 735.061,-323.639 724.601,-325.327 727.937,-331.481"/>
</g>
<!-- Node4 -->
<g id="node4" class="node"><title>Node4</title>
<g id="a_node4"><a xlink:href="../../d3/dd6/Sector_8h.html" target="_top" xlink:title="TPCBase/Sector.h">
<polygon fill="none" stroke="black" points="357.5,-248.5 357.5,-267.5 456.5,-267.5 456.5,-248.5 357.5,-248.5"/>
<text text-anchor="middle" x="407" y="-255.5" font-family="Helvetica,sans-Serif" font-size="10.00">TPCBase/Sector.h</text>
</a>
</g>
</g>
<!-- Node3&#45;&gt;Node4 -->
<g id="edge3" class="edge"><title>Node3&#45;&gt;Node4</title>
<path fill="none" stroke="midnightblue" d="M507.986,-304.444C488.412,-295.636 457.692,-281.812 435.271,-271.722"/>
<polygon fill="midnightblue" stroke="midnightblue" points="436.481,-268.428 425.925,-267.516 433.608,-274.812 436.481,-268.428"/>
</g>
<!-- Node20 -->
<g id="node20" class="node"><title>Node20</title>
<g id="a_node20"><a xlink:href="../../de/d41/PadPos_8h.html" target="_top" xlink:title="TPCBase/PadPos.h">
<polygon fill="none" stroke="black" points="474.5,-248.5 474.5,-267.5 579.5,-267.5 579.5,-248.5 474.5,-248.5"/>
<text text-anchor="middle" x="527" y="-255.5" font-family="Helvetica,sans-Serif" font-size="10.00">TPCBase/PadPos.h</text>
</a>
</g>
</g>
<!-- Node3&#45;&gt;Node20 -->
<g id="edge20" class="edge"><title>Node3&#45;&gt;Node20</title>
<path fill="none" stroke="midnightblue" d="M527,-304.083C527,-297.006 527,-286.861 527,-277.986"/>
<polygon fill="midnightblue" stroke="midnightblue" points="530.5,-277.751 527,-267.751 523.5,-277.751 530.5,-277.751"/>
</g>
<!-- Node5 -->
<g id="node5" class="node"><title>Node5</title>
<g id="a_node5"><a xlink:href="../../d6/d51/TPC_2base_2include_2TPCBase_2Constants_8h.html" target="_top" xlink:title="TPCBase/Constants.h">
<polygon fill="none" stroke="black" points="288,-192.5 288,-211.5 404,-211.5 404,-192.5 288,-192.5"/>
<text text-anchor="middle" x="346" y="-199.5" font-family="Helvetica,sans-Serif" font-size="10.00">TPCBase/Constants.h</text>
</a>
</g>
</g>
<!-- Node4&#45;&gt;Node5 -->
<g id="edge4" class="edge"><title>Node4&#45;&gt;Node5</title>
<path fill="none" stroke="midnightblue" d="M397.199,-248.324C388.182,-240.341 374.594,-228.313 363.682,-218.653"/>
<polygon fill="midnightblue" stroke="midnightblue" points="365.787,-215.842 355.979,-211.834 361.147,-221.083 365.787,-215.842"/>
</g>
<!-- Node6 -->
<g id="node6" class="node"><title>Node6</title>
<g id="a_node6"><a xlink:href="../../d1/d73/Defs_8h.html" target="_top" xlink:title="Common definitions for 2D coordinates. ">
<polygon fill="none" stroke="black" points="422,-192.5 422,-211.5 514,-211.5 514,-192.5 422,-192.5"/>
<text text-anchor="middle" x="468" y="-199.5" font-family="Helvetica,sans-Serif" font-size="10.00">TPCBase/Defs.h</text>
</a>
</g>
</g>
<!-- Node4&#45;&gt;Node6 -->
<g id="edge5" class="edge"><title>Node4&#45;&gt;Node6</title>
<path fill="none" stroke="midnightblue" d="M416.801,-248.324C425.818,-240.341 439.406,-228.313 450.318,-218.653"/>
<polygon fill="midnightblue" stroke="midnightblue" points="452.853,-221.083 458.021,-211.834 448.213,-215.842 452.853,-221.083"/>
</g>
<!-- Node7 -->
<g id="node7" class="node"><title>Node7</title>
<polygon fill="none" stroke="#bfbfbf" points="396,-136.5 396,-155.5 440,-155.5 440,-136.5 396,-136.5"/>
<text text-anchor="middle" x="418" y="-143.5" font-family="Helvetica,sans-Serif" font-size="10.00">cmath</text>
</g>
<!-- Node6&#45;&gt;Node7 -->
<g id="edge6" class="edge"><title>Node6&#45;&gt;Node7</title>
<path fill="none" stroke="midnightblue" d="M459.744,-192.083C452.535,-184.298 441.89,-172.801 433.154,-163.367"/>
<polygon fill="midnightblue" stroke="midnightblue" points="435.465,-160.711 426.103,-155.751 430.329,-165.467 435.465,-160.711"/>
</g>
<!-- Node8 -->
<g id="node8" class="node"><title>Node8</title>
<g id="a_node8"><a xlink:href="../../d2/dd0/Cartesian2D_8h.html" target="_top" xlink:title="MathUtils/Cartesian2D.h">
<polygon fill="none" stroke="black" points="103.5,-74.5 103.5,-93.5 228.5,-93.5 228.5,-74.5 103.5,-74.5"/>
<text text-anchor="middle" x="166" y="-81.5" font-family="Helvetica,sans-Serif" font-size="10.00">MathUtils/Cartesian2D.h</text>
</a>
</g>
</g>
<!-- Node6&#45;&gt;Node8 -->
<g id="edge7" class="edge"><title>Node6&#45;&gt;Node8</title>
<path fill="none" stroke="midnightblue" d="M468.033,-192.328C467.582,-178.238 464.501,-150.491 448,-136 376.519,-73.2248 330.446,-117.836 237,-100 229.853,-98.636 222.318,-97.124 214.933,-95.6003"/>
<polygon fill="midnightblue" stroke="midnightblue" points="215.51,-92.1454 205.006,-93.528 214.08,-98.9977 215.51,-92.1454"/>
</g>
<!-- Node11 -->
<g id="node11" class="node"><title>Node11</title>
<g id="a_node11"><a xlink:href="../../dd/d76/Cartesian3D_8h.html" target="_top" xlink:title="MathUtils/Cartesian3D.h">
<polygon fill="none" stroke="black" points="710.5,-136.5 710.5,-155.5 835.5,-155.5 835.5,-136.5 710.5,-136.5"/>
<text text-anchor="middle" x="773" y="-143.5" font-family="Helvetica,sans-Serif" font-size="10.00">MathUtils/Cartesian3D.h</text>
</a>
</g>
</g>
<!-- Node6&#45;&gt;Node11 -->
<g id="edge10" class="edge"><title>Node6&#45;&gt;Node11</title>
<path fill="none" stroke="midnightblue" d="M514.323,-192.799C568.009,-183.293 656.548,-167.618 714.825,-157.3"/>
<polygon fill="midnightblue" stroke="midnightblue" points="715.744,-160.692 724.981,-155.502 714.524,-153.799 715.744,-160.692"/>
</g>
<!-- Node9 -->
<g id="node9" class="node"><title>Node9</title>
<polygon fill="none" stroke="#bfbfbf" points="-0.5,-1 -0.5,-31 150.5,-31 150.5,-1 -0.5,-1"/>
<text text-anchor="start" x="7.5" y="-19" font-family="Helvetica,sans-Serif" font-size="10.00">Math/GenVector/Displacement</text>
<text text-anchor="middle" x="75" y="-8" font-family="Helvetica,sans-Serif" font-size="10.00">Vector2D.h</text>
</g>
<!-- Node8&#45;&gt;Node9 -->
<g id="edge8" class="edge"><title>Node8&#45;&gt;Node9</title>
<path fill="none" stroke="midnightblue" d="M154.103,-74.3717C141.221,-65.0286 120.22,-49.7966 103.093,-37.375"/>
<polygon fill="midnightblue" stroke="midnightblue" points="104.703,-34.2194 94.5532,-31.1815 100.593,-39.8859 104.703,-34.2194"/>
</g>
<!-- Node10 -->
<g id="node10" class="node"><title>Node10</title>
<polygon fill="none" stroke="#bfbfbf" points="169,-6.5 169,-25.5 345,-25.5 345,-6.5 169,-6.5"/>
<text text-anchor="middle" x="257" y="-13.5" font-family="Helvetica,sans-Serif" font-size="10.00">Math/GenVector/PositionVector2D.h</text>
</g>
<!-- Node8&#45;&gt;Node10 -->
<g id="edge9" class="edge"><title>Node8&#45;&gt;Node10</title>
<path fill="none" stroke="midnightblue" d="M177.897,-74.3717C192.884,-63.5015 218.862,-44.6602 236.942,-31.5474"/>
<polygon fill="midnightblue" stroke="midnightblue" points="239.06,-34.3349 245.1,-25.6305 234.95,-28.6684 239.06,-34.3349"/>
</g>
<!-- Node11&#45;&gt;Node8 -->
<g id="edge19" class="edge"><title>Node11&#45;&gt;Node8</title>
<path fill="none" stroke="midnightblue" d="M710.404,-142.275C610.072,-137.34 407.228,-125.028 237,-100 228.847,-98.8013 220.226,-97.236 211.908,-95.5697"/>
<polygon fill="midnightblue" stroke="midnightblue" points="212.466,-92.111 201.963,-93.5048 211.043,-98.9648 212.466,-92.111"/>
</g>
<!-- Node12 -->
<g id="node12" class="node"><title>Node12</title>
<polygon fill="none" stroke="#bfbfbf" points="1199.5,-69 1199.5,-99 1350.5,-99 1350.5,-69 1199.5,-69"/>
<text text-anchor="start" x="1207.5" y="-87" font-family="Helvetica,sans-Serif" font-size="10.00">Math/GenVector/Displacement</text>
<text text-anchor="middle" x="1275" y="-76" font-family="Helvetica,sans-Serif" font-size="10.00">Vector3D.h</text>
</g>
<!-- Node11&#45;&gt;Node12 -->
<g id="edge11" class="edge"><title>Node11&#45;&gt;Node12</title>
<path fill="none" stroke="midnightblue" d="M835.686,-139.559C915.344,-132.349 1057.3,-118.516 1189.21,-100.048"/>
<polygon fill="midnightblue" stroke="midnightblue" points="1190.09,-103.459 1199.5,-98.5951 1189.11,-96.5278 1190.09,-103.459"/>
</g>
<!-- Node13 -->
<g id="node13" class="node"><title>Node13</title>
<polygon fill="none" stroke="#bfbfbf" points="246,-74.5 246,-93.5 422,-93.5 422,-74.5 246,-74.5"/>
<text text-anchor="middle" x="334" y="-81.5" font-family="Helvetica,sans-Serif" font-size="10.00">Math/GenVector/PositionVector3D.h</text>
</g>
<!-- Node11&#45;&gt;Node13 -->
<g id="edge12" class="edge"><title>Node11&#45;&gt;Node13</title>
<path fill="none" stroke="midnightblue" d="M710.347,-137.249C641.533,-128.626 527.792,-114.053 430,-100 419.325,-98.4661 407.995,-96.7628 397.003,-95.0705"/>
<polygon fill="midnightblue" stroke="midnightblue" points="397.45,-91.598 387.032,-93.5245 396.377,-98.5153 397.45,-91.598"/>
</g>
<!-- Node14 -->
<g id="node14" class="node"><title>Node14</title>
<polygon fill="none" stroke="#bfbfbf" points="439.5,-74.5 439.5,-93.5 588.5,-93.5 588.5,-74.5 439.5,-74.5"/>
<text text-anchor="middle" x="514" y="-81.5" font-family="Helvetica,sans-Serif" font-size="10.00">Math/GenVector/Rotation3D.h</text>
</g>
<!-- Node11&#45;&gt;Node14 -->
<g id="edge13" class="edge"><title>Node11&#45;&gt;Node14</title>
<path fill="none" stroke="midnightblue" d="M736.167,-136.467C690.045,-125.783 610.99,-107.469 560.676,-95.8129"/>
<polygon fill="midnightblue" stroke="midnightblue" points="561.238,-92.3506 550.706,-93.5034 559.658,-99.17 561.238,-92.3506"/>
</g>
<!-- Node15 -->
<g id="node15" class="node"><title>Node15</title>
<polygon fill="none" stroke="#bfbfbf" points="607,-74.5 607,-93.5 763,-93.5 763,-74.5 607,-74.5"/>
<text text-anchor="middle" x="685" y="-81.5" font-family="Helvetica,sans-Serif" font-size="10.00">Math/GenVector/Transform3D.h</text>
</g>
<!-- Node11&#45;&gt;Node15 -->
<g id="edge14" class="edge"><title>Node11&#45;&gt;Node15</title>
<path fill="none" stroke="midnightblue" d="M760.392,-136.403C746.277,-126.78 723.169,-111.024 706.251,-99.4891"/>
<polygon fill="midnightblue" stroke="midnightblue" points="707.819,-96.3222 697.585,-93.5806 703.875,-102.106 707.819,-96.3222"/>
</g>
<!-- Node16 -->
<g id="node16" class="node"><title>Node16</title>
<polygon fill="none" stroke="#bfbfbf" points="781,-74.5 781,-93.5 941,-93.5 941,-74.5 781,-74.5"/>
<text text-anchor="middle" x="861" y="-81.5" font-family="Helvetica,sans-Serif" font-size="10.00">Math/GenVector/Translation3D.h</text>
</g>
<!-- Node11&#45;&gt;Node16 -->
<g id="edge15" class="edge"><title>Node11&#45;&gt;Node16</title>
<path fill="none" stroke="midnightblue" d="M785.608,-136.403C799.723,-126.78 822.831,-111.024 839.749,-99.4891"/>
<polygon fill="midnightblue" stroke="midnightblue" points="842.125,-102.106 848.415,-93.5806 838.181,-96.3222 842.125,-102.106"/>
</g>
<!-- Node17 -->
<g id="node17" class="node"><title>Node17</title>
<polygon fill="none" stroke="#bfbfbf" points="959,-74.5 959,-93.5 1015,-93.5 1015,-74.5 959,-74.5"/>
<text text-anchor="middle" x="987" y="-81.5" font-family="Helvetica,sans-Serif" font-size="10.00">Rtypes.h</text>
</g>
<!-- Node11&#45;&gt;Node17 -->
<g id="edge16" class="edge"><title>Node11&#45;&gt;Node17</title>
<path fill="none" stroke="midnightblue" d="M813.163,-136.432C849.332,-128.33 903.756,-115.174 950,-100 952.566,-99.1579 955.209,-98.2246 957.845,-97.2473"/>
<polygon fill="midnightblue" stroke="midnightblue" points="959.165,-100.489 967.214,-93.6003 956.626,-93.9661 959.165,-100.489"/>
</g>
<!-- Node18 -->
<g id="node18" class="node"><title>Node18</title>
<polygon fill="none" stroke="#bfbfbf" points="1033,-74.5 1033,-93.5 1109,-93.5 1109,-74.5 1033,-74.5"/>
<text text-anchor="middle" x="1071" y="-81.5" font-family="Helvetica,sans-Serif" font-size="10.00">TGeoMatrix.h</text>
</g>
<!-- Node11&#45;&gt;Node18 -->
<g id="edge17" class="edge"><title>Node11&#45;&gt;Node18</title>
<path fill="none" stroke="midnightblue" d="M832.284,-136.465C883.217,-128.624 958.432,-115.834 1023,-100 1027.2,-98.9707 1031.57,-97.7786 1035.88,-96.5252"/>
<polygon fill="midnightblue" stroke="midnightblue" points="1037.2,-99.7836 1045.76,-93.5369 1035.17,-93.0837 1037.2,-99.7836"/>
</g>
<!-- Node19 -->
<g id="node19" class="node"><title>Node19</title>
<polygon fill="none" stroke="#bfbfbf" points="1127,-74.5 1127,-93.5 1181,-93.5 1181,-74.5 1127,-74.5"/>
<text text-anchor="middle" x="1154" y="-81.5" font-family="Helvetica,sans-Serif" font-size="10.00">iostream</text>
</g>
<!-- Node11&#45;&gt;Node19 -->
<g id="edge18" class="edge"><title>Node11&#45;&gt;Node19</title>
<path fill="none" stroke="midnightblue" d="M835.665,-141.821C905.547,-137.131 1021.45,-125.917 1118,-100 1120.82,-99.243 1123.71,-98.3154 1126.57,-97.2961"/>
<polygon fill="midnightblue" stroke="midnightblue" points="1127.98,-100.502 1136.01,-93.5923 1125.43,-93.9855 1127.98,-100.502"/>
</g>
<!-- Node21&#45;&gt;Node2 -->
<g id="edge23" class="edge"><title>Node21&#45;&gt;Node2</title>
<path fill="none" stroke="midnightblue" d="M730.243,-304.444C708.684,-295.557 674.737,-281.563 650.206,-271.451"/>
<polygon fill="midnightblue" stroke="midnightblue" points="651.239,-268.092 640.66,-267.516 648.572,-274.563 651.239,-268.092"/>
</g>
<!-- Node22 -->
<g id="node22" class="node"><title>Node22</title>
<polygon fill="none" stroke="#bfbfbf" points="746,-248.5 746,-267.5 836,-267.5 836,-248.5 746,-248.5"/>
<text text-anchor="middle" x="791" y="-255.5" font-family="Helvetica,sans-Serif" font-size="10.00">boost/format.hpp</text>
</g>
<!-- Node21&#45;&gt;Node22 -->
<g id="edge22" class="edge"><title>Node21&#45;&gt;Node22</title>
<path fill="none" stroke="midnightblue" d="M757.605,-304.083C763.255,-296.455 771.545,-285.264 778.451,-275.941"/>
<polygon fill="midnightblue" stroke="midnightblue" points="781.378,-277.87 784.518,-267.751 775.753,-273.703 781.378,-277.87"/>
</g>
<!-- Node23 -->
<g id="node23" class="node"><title>Node23</title>
<polygon fill="none" stroke="#bfbfbf" points="854,-248.5 854,-267.5 898,-267.5 898,-248.5 854,-248.5"/>
<text text-anchor="middle" x="876" y="-255.5" font-family="Helvetica,sans-Serif" font-size="10.00">vector</text>
</g>
<!-- Node21&#45;&gt;Node23 -->
<g id="edge24" class="edge"><title>Node21&#45;&gt;Node23</title>
<path fill="none" stroke="midnightblue" d="M770.807,-304.444C791.287,-295.596 823.483,-281.687 846.865,-271.586"/>
<polygon fill="midnightblue" stroke="midnightblue" points="848.494,-274.695 856.286,-267.516 845.718,-268.269 848.494,-274.695"/>
</g>
<!-- Node24 -->
<g id="node24" class="node"><title>Node24</title>
<polygon fill="none" stroke="#bfbfbf" points="916,-248.5 916,-267.5 958,-267.5 958,-248.5 916,-248.5"/>
<text text-anchor="middle" x="937" y="-255.5" font-family="Helvetica,sans-Serif" font-size="10.00">TF1.h</text>
</g>
<!-- Node21&#45;&gt;Node24 -->
<g id="edge25" class="edge"><title>Node21&#45;&gt;Node24</title>
<path fill="none" stroke="midnightblue" d="M780.472,-304.444C814.782,-294.483 871.188,-278.107 906.098,-267.972"/>
<polygon fill="midnightblue" stroke="midnightblue" points="907.138,-271.314 915.765,-265.165 905.186,-264.592 907.138,-271.314"/>
</g>
<!-- Node25 -->
<g id="node25" class="node"><title>Node25</title>
<polygon fill="none" stroke="#bfbfbf" points="660,-248.5 660,-267.5 728,-267.5 728,-248.5 660,-248.5"/>
<text text-anchor="middle" x="694" y="-255.5" font-family="Helvetica,sans-Serif" font-size="10.00">TRandom.h</text>
</g>
<!-- Node21&#45;&gt;Node25 -->
<g id="edge26" class="edge"><title>Node21&#45;&gt;Node25</title>
<path fill="none" stroke="midnightblue" d="M741.842,-304.324C733.499,-296.42 720.968,-284.548 710.823,-274.938"/>
<polygon fill="midnightblue" stroke="midnightblue" points="712.991,-272.171 703.325,-267.834 708.177,-277.252 712.991,-272.171"/>
</g>
</g>
</svg>
        <g id="navigator" transform="translate(0 0)" fill="#404254">
                <rect fill="#f2f5e9" fill-opacity="0.5" stroke="#606060" stroke-width=".5" x="0" y="0" width="60" height="60"/>
                <use id="zoomplus" xlink:href="#zoomPlus" x="17" y="9" onmousedown="handleZoom(evt,'in')"/>
                <use id="zoomminus" xlink:href="#zoomMin" x="42" y="9" onmousedown="handleZoom(evt,'out')"/>
                <use id="reset" xlink:href="#resetDef" x="30" y="36" onmousedown="handleReset()"/>
                <g id="arrowUp" xlink:href="#dirArrow" transform="translate(30 24)" onmousedown="handlePan(0,-1)">
                  <use xlink:href="#rim" fill="#404040">
                        <set attributeName="fill" to="#808080" begin="arrowUp.mouseover" end="arrowUp.mouseout"/>
                  </use>
                  <path fill="none" stroke="white" stroke-width="1.5" d="M0,-3.0v7 M-2.5,-0.5L0,-3.0L2.5,-0.5"/>
                </g>
                <g id="arrowRight" xlink:href="#dirArrow" transform="rotate(90) translate(36 -43)" onmousedown="handlePan(1,0)">
                  <use xlink:href="#rim" fill="#404040">
                        <set attributeName="fill" to="#808080" begin="arrowRight.mouseover" end="arrowRight.mouseout"/>
                  </use>
                  <path fill="none" stroke="white" stroke-width="1.5" d="M0,-3.0v7 M-2.5,-0.5L0,-3.0L2.5,-0.5"/>
                </g>
                <g id="arrowDown" xlink:href="#dirArrow" transform="rotate(180) translate(-30 -48)" onmousedown="handlePan(0,1)">
                  <use xlink:href="#rim" fill="#404040">
                        <set attributeName="fill" to="#808080" begin="arrowDown.mouseover" end="arrowDown.mouseout"/>
                  </use>
                  <path fill="none" stroke="white" stroke-width="1.5" d="M0,-3.0v7 M-2.5,-0.5L0,-3.0L2.5,-0.5"/>
                </g>
                <g id="arrowLeft" xlink:href="#dirArrow" transform="rotate(270) translate(-36 17)" onmousedown="handlePan(-1,0)">
                  <use xlink:href="#rim" fill="#404040">
                        <set attributeName="fill" to="#808080" begin="arrowLeft.mouseover" end="arrowLeft.mouseout"/>
                  </use>
                  <path fill="none" stroke="white" stroke-width="1.5" d="M0,-3.0v7 M-2.5,-0.5L0,-3.0L2.5,-0.5"/>
                </g>
        </g>
        <svg viewBox="0 0 15 15" width="100%" height="30px" preserveAspectRatio="xMaxYMin meet">
         <g id="arrow_out" transform="scale(0.3 0.3)">
          <a xlink:href="Baseline_8h__incl_org.svg" target="_base">
           <rect id="button" ry="5" rx="5" y="6" x="6" height="38" width="38"
                fill="#f2f5e9" fill-opacity="0.5" stroke="#606060" stroke-width="1.0"/>
           <path id="arrow"
             d="M 11.500037,31.436501 C 11.940474,20.09759 22.043105,11.32322 32.158766,21.979434 L 37.068811,17.246167 C 37.068811,17.246167 37.088388,32 37.088388,32 L 22.160133,31.978069 C 22.160133,31.978069 26.997745,27.140456 26.997745,27.140456 C 18.528582,18.264221 13.291696,25.230495 11.500037,31.436501 z"
             style="fill:#404040;"/>
          </a>
         </g>
        </svg>
</svg>
