<?xml version="1.0" encoding="UTF-8" standalone="no"?>
<!DOCTYPE svg PUBLIC "-//W3C//DTD SVG 1.1//EN"
 "http://www.w3.org/Graphics/SVG/1.1/DTD/svg11.dtd">
<!-- Generated by graphviz version 2.36.0 (20140111.2315)
 -->
<!-- Title: /home/travis/build/AliceO2Group/AliceO2/Detectors/TPC/simulation/src/DigitTime.cxx Pages: 1 -->
<!--zoomable 614 -->
<svg id="main" version="1.1" xmlns="http://www.w3.org/2000/svg" xmlns:xlink="http://www.w3.org/1999/xlink" xml:space="preserve" onload="init(evt)">
<style type="text/css"><![CDATA[
.edge:hover path { stroke: red; }
.edge:hover polygon { stroke: red; fill: red; }
]]></style>
<script type="text/javascript"><![CDATA[
var edges = document.getElementsByTagName('g');
if (edges && edges.length) {
  for (var i=0;i<edges.length;i++) {
    if (edges[i].id.substr(0,4)=='edge') {
      edges[i].setAttribute('class','edge');
    }
  }
}
]]></script>
        <defs>
                <circle id="rim" cx="0" cy="0" r="7"/>
                <circle id="rim2" cx="0" cy="0" r="3.5"/>
                <g id="zoomPlus">
                        <use xlink:href="#rim" fill="#404040">
                                <set attributeName="fill" to="#808080" begin="zoomplus.mouseover" end="zoomplus.mouseout"/>
                        </use>
                        <path d="M-4,0h8M0,-4v8" fill="none" stroke="white" stroke-width="1.5" pointer-events="none"/>
                </g>
                <g id="zoomMin">
                        <use xlink:href="#rim" fill="#404040">
                                <set attributeName="fill" to="#808080" begin="zoomminus.mouseover" end="zoomminus.mouseout"/>
                        </use>
                        <path d="M-4,0h8" fill="none" stroke="white" stroke-width="1.5" pointer-events="none"/>
                </g>
                <g id="dirArrow">
                        <path fill="none" stroke="white" stroke-width="1.5" d="M0,-3.0v7 M-2.5,-0.5L0,-3.0L2.5,-0.5"/>
                </g>
               <g id="resetDef">
                       <use xlink:href="#rim2" fill="#404040">
                               <set attributeName="fill" to="#808080" begin="reset.mouseover" end="reset.mouseout"/>
                       </use>
               </g>
        </defs>

<script type="text/javascript">
var viewWidth = 1485;
var viewHeight = 614;
var sectionId = 'dynsection-0';
</script>
<script xlink:href="../../svgpan.js"/>
<svg id="graph" class="graph">
<g id="viewport">
<title>/home/travis/build/AliceO2Group/AliceO2/Detectors/TPC/simulation/src/DigitTime.cxx</title>
<!-- Node1 -->
<g id="node1" class="node"><title>Node1</title>
<polygon fill="#bfbfbf" stroke="black" points="299.5,-553 299.5,-605 432.5,-605 432.5,-553 299.5,-553"/>
<text text-anchor="start" x="307.5" y="-593" font-family="Helvetica,sans-Serif" font-size="10.00">/home/travis/build</text>
<text text-anchor="start" x="307.5" y="-582" font-family="Helvetica,sans-Serif" font-size="10.00">/AliceO2Group/AliceO2</text>
<text text-anchor="start" x="307.5" y="-571" font-family="Helvetica,sans-Serif" font-size="10.00">/Detectors/TPC/simulation</text>
<text text-anchor="middle" x="366" y="-560" font-family="Helvetica,sans-Serif" font-size="10.00">/src/DigitTime.cxx</text>
</g>
<!-- Node2 -->
<g id="node2" class="node"><title>Node2</title>
<g id="a_node2"><a xlink:href="../../d0/d60/DigitTime_8h.html" target="_top" xlink:title="Definition of the Time Bin container. ">
<polygon fill="none" stroke="black" points="298,-496.5 298,-515.5 434,-515.5 434,-496.5 298,-496.5"/>
<text text-anchor="middle" x="366" y="-503.5" font-family="Helvetica,sans-Serif" font-size="10.00">TPCSimulation/DigitTime.h</text>
</a>
</g>
</g>
<!-- Node1&#45;&gt;Node2 -->
<g id="edge1" class="edge"><title>Node1&#45;&gt;Node2</title>
<path fill="none" stroke="midnightblue" d="M366,-552.768C366,-543.89 366,-534.074 366,-525.816"/>
<polygon fill="midnightblue" stroke="midnightblue" points="369.5,-525.757 366,-515.757 362.5,-525.757 369.5,-525.757"/>
</g>
<!-- Node3 -->
<g id="node3" class="node"><title>Node3</title>
<g id="a_node3"><a xlink:href="../../de/dc8/DigitRow_8h.html" target="_top" xlink:title="Definition of the Row container. ">
<polygon fill="none" stroke="black" points="203,-440.5 203,-459.5 337,-459.5 337,-440.5 203,-440.5"/>
<text text-anchor="middle" x="270" y="-447.5" font-family="Helvetica,sans-Serif" font-size="10.00">TPCSimulation/DigitRow.h</text>
</a>
</g>
</g>
<!-- Node1&#45;&gt;Node3 -->
<g id="edge21" class="edge"><title>Node1&#45;&gt;Node3</title>
<path fill="none" stroke="midnightblue" d="M325.685,-552.892C312.363,-542.857 298.529,-530.274 289,-516 279.718,-502.097 274.886,-483.586 272.423,-469.875"/>
<polygon fill="midnightblue" stroke="midnightblue" points="275.838,-469.049 270.867,-459.693 268.918,-470.107 275.838,-469.049"/>
</g>
<!-- Node20 -->
<g id="node20" class="node"><title>Node20</title>
<g id="a_node20"><a xlink:href="../../d7/d2c/Mapper_8h.html" target="_top" xlink:title="TPCBase/Mapper.h">
<polygon fill="none" stroke="black" points="922.5,-496.5 922.5,-515.5 1025.5,-515.5 1025.5,-496.5 922.5,-496.5"/>
<text text-anchor="middle" x="974" y="-503.5" font-family="Helvetica,sans-Serif" font-size="10.00">TPCBase/Mapper.h</text>
</a>
</g>
</g>
<!-- Node1&#45;&gt;Node20 -->
<g id="edge22" class="edge"><title>Node1&#45;&gt;Node20</title>
<path fill="none" stroke="midnightblue" d="M432.515,-570.233C551.108,-556.384 797.391,-527.624 912.372,-514.197"/>
<polygon fill="midnightblue" stroke="midnightblue" points="912.891,-517.66 922.417,-513.024 912.079,-510.707 912.891,-517.66"/>
</g>
<!-- Node2&#45;&gt;Node3 -->
<g id="edge2" class="edge"><title>Node2&#45;&gt;Node3</title>
<path fill="none" stroke="midnightblue" d="M350.576,-496.324C335.46,-487.822 312.185,-474.729 294.529,-464.797"/>
<polygon fill="midnightblue" stroke="midnightblue" points="295.817,-461.507 285.386,-459.655 292.386,-467.608 295.817,-461.507"/>
</g>
<!-- Node4 -->
<g id="node4" class="node"><title>Node4</title>
<g id="a_node4"><a xlink:href="../../d3/d5d/DigitPad_8h.html" target="_top" xlink:title="Definition of the Pad container. ">
<polygon fill="none" stroke="black" points="314.5,-384.5 314.5,-403.5 445.5,-403.5 445.5,-384.5 314.5,-384.5"/>
<text text-anchor="middle" x="380" y="-391.5" font-family="Helvetica,sans-Serif" font-size="10.00">TPCSimulation/DigitPad.h</text>
</a>
</g>
</g>
<!-- Node3&#45;&gt;Node4 -->
<g id="edge3" class="edge"><title>Node3&#45;&gt;Node4</title>
<path fill="none" stroke="midnightblue" d="M287.673,-440.324C305.394,-431.625 332.903,-418.12 353.288,-408.113"/>
<polygon fill="midnightblue" stroke="midnightblue" points="354.936,-411.203 362.37,-403.655 351.851,-404.919 354.936,-411.203"/>
</g>
<!-- Node15 -->
<g id="node15" class="node"><title>Node15</title>
<g id="a_node15"><a xlink:href="../../df/db1/TPC_2base_2include_2TPCBase_2Digit_8h.html" target="_top" xlink:title="TPCBase/Digit.h">
<polygon fill="none" stroke="black" points="134.5,-384.5 134.5,-403.5 225.5,-403.5 225.5,-384.5 134.5,-384.5"/>
<text text-anchor="middle" x="180" y="-391.5" font-family="Helvetica,sans-Serif" font-size="10.00">TPCBase/Digit.h</text>
</a>
</g>
</g>
<!-- Node3&#45;&gt;Node15 -->
<g id="edge14" class="edge"><title>Node3&#45;&gt;Node15</title>
<path fill="none" stroke="midnightblue" d="M255.54,-440.324C241.5,-431.9 219.952,-418.971 203.457,-409.074"/>
<polygon fill="midnightblue" stroke="midnightblue" points="204.8,-405.798 194.424,-403.655 201.198,-411.801 204.8,-405.798"/>
</g>
<!-- Node18 -->
<g id="node18" class="node"><title>Node18</title>
<g id="a_node18"><a xlink:href="../../dd/df5/DigitMCMetaData_8h.html" target="_top" xlink:title="Definition of the Meta Data object of the Monte Carlo Digit. ">
<polygon fill="none" stroke="black" points="-0.5,-193 -0.5,-223 142.5,-223 142.5,-193 -0.5,-193"/>
<text text-anchor="start" x="7.5" y="-211" font-family="Helvetica,sans-Serif" font-size="10.00">TPCSimulation/DigitMCMeta</text>
<text text-anchor="middle" x="71" y="-200" font-family="Helvetica,sans-Serif" font-size="10.00">Data.h</text>
</a>
</g>
</g>
<!-- Node3&#45;&gt;Node18 -->
<g id="edge18" class="edge"><title>Node3&#45;&gt;Node18</title>
<path fill="none" stroke="midnightblue" d="M211.317,-440.444C183.053,-434.046 149.966,-422.987 125,-404 71.8842,-363.605 67.863,-275.787 69.3228,-233.168"/>
<polygon fill="midnightblue" stroke="midnightblue" points="72.8212,-233.282 69.7998,-223.127 65.8291,-232.95 72.8212,-233.282"/>
</g>
<!-- Node19 -->
<g id="node19" class="node"><title>Node19</title>
<polygon fill="none" stroke="#bfbfbf" points="244,-384.5 244,-403.5 296,-403.5 296,-384.5 244,-384.5"/>
<text text-anchor="middle" x="270" y="-391.5" font-family="Helvetica,sans-Serif" font-size="10.00">memory</text>
</g>
<!-- Node3&#45;&gt;Node19 -->
<g id="edge20" class="edge"><title>Node3&#45;&gt;Node19</title>
<path fill="none" stroke="midnightblue" d="M270,-440.083C270,-433.006 270,-422.861 270,-413.986"/>
<polygon fill="midnightblue" stroke="midnightblue" points="273.5,-413.751 270,-403.751 266.5,-413.751 273.5,-413.751"/>
</g>
<!-- Node5 -->
<g id="node5" class="node"><title>Node5</title>
<polygon fill="none" stroke="#bfbfbf" points="566.5,-322.5 566.5,-341.5 601.5,-341.5 601.5,-322.5 566.5,-322.5"/>
<text text-anchor="middle" x="584" y="-329.5" font-family="Helvetica,sans-Serif" font-size="10.00">map</text>
</g>
<!-- Node4&#45;&gt;Node5 -->
<g id="edge4" class="edge"><title>Node4&#45;&gt;Node5</title>
<path fill="none" stroke="midnightblue" d="M427.249,-384.45C463.514,-377.068 514.419,-364.91 557,-348 558.371,-347.456 559.758,-346.855 561.143,-346.217"/>
<polygon fill="midnightblue" stroke="midnightblue" points="562.744,-349.33 570.044,-341.651 559.549,-343.101 562.744,-349.33"/>
</g>
<!-- Node6 -->
<g id="node6" class="node"><title>Node6</title>
<polygon fill="none" stroke="#bfbfbf" points="448,-322.5 448,-341.5 548,-341.5 548,-322.5 448,-322.5"/>
<text text-anchor="middle" x="498" y="-329.5" font-family="Helvetica,sans-Serif" font-size="10.00">FairRootManager.h</text>
</g>
<!-- Node4&#45;&gt;Node6 -->
<g id="edge5" class="edge"><title>Node4&#45;&gt;Node6</title>
<path fill="none" stroke="midnightblue" d="M396.907,-384.403C416.534,-374.423 449.131,-357.849 471.99,-346.225"/>
<polygon fill="midnightblue" stroke="midnightblue" points="473.797,-349.233 481.125,-341.581 470.625,-342.993 473.797,-349.233"/>
</g>
<!-- Node7 -->
<g id="node7" class="node"><title>Node7</title>
<g id="a_node7"><a xlink:href="../../db/d14/MCTruthContainer_8h.html" target="_top" xlink:title="Definition of a container to keep Monte Carlo truth external to simulation objects. ">
<polygon fill="none" stroke="black" points="316,-317 316,-347 430,-347 430,-317 316,-317"/>
<text text-anchor="start" x="324" y="-335" font-family="Helvetica,sans-Serif" font-size="10.00">SimulationDataFormat</text>
<text text-anchor="middle" x="373" y="-324" font-family="Helvetica,sans-Serif" font-size="10.00">/MCTruthContainer.h</text>
</a>
</g>
</g>
<!-- Node4&#45;&gt;Node7 -->
<g id="edge6" class="edge"><title>Node4&#45;&gt;Node7</title>
<path fill="none" stroke="midnightblue" d="M378.997,-384.403C378.164,-377.265 376.938,-366.752 375.811,-357.09"/>
<polygon fill="midnightblue" stroke="midnightblue" points="379.285,-356.668 374.65,-347.141 372.332,-357.479 379.285,-356.668"/>
</g>
<!-- Node13 -->
<g id="node13" class="node"><title>Node13</title>
<g id="a_node13"><a xlink:href="../../d7/dcd/MCCompLabel_8h.html" target="_top" xlink:title="SimulationDataFormat\l/MCCompLabel.h">
<polygon fill="none" stroke="black" points="228,-193 228,-223 342,-223 342,-193 228,-193"/>
<text text-anchor="start" x="236" y="-211" font-family="Helvetica,sans-Serif" font-size="10.00">SimulationDataFormat</text>
<text text-anchor="middle" x="285" y="-200" font-family="Helvetica,sans-Serif" font-size="10.00">/MCCompLabel.h</text>
</a>
</g>
</g>
<!-- Node4&#45;&gt;Node13 -->
<g id="edge12" class="edge"><title>Node4&#45;&gt;Node13</title>
<path fill="none" stroke="midnightblue" d="M360.139,-384.478C327.558,-369.186 264.254,-333.594 243,-280 235.962,-262.252 247.643,-243.735 260.457,-230.062"/>
<polygon fill="midnightblue" stroke="midnightblue" points="262.943,-232.526 267.58,-223.001 258.014,-227.555 262.943,-232.526"/>
</g>
<!-- Node8 -->
<g id="node8" class="node"><title>Node8</title>
<polygon fill="none" stroke="#bfbfbf" points="332,-260.5 332,-279.5 394,-279.5 394,-260.5 332,-260.5"/>
<text text-anchor="middle" x="363" y="-267.5" font-family="Helvetica,sans-Serif" font-size="10.00">TNamed.h</text>
</g>
<!-- Node7&#45;&gt;Node8 -->
<g id="edge7" class="edge"><title>Node7&#45;&gt;Node8</title>
<path fill="none" stroke="midnightblue" d="M370.63,-316.781C369.282,-308.691 367.577,-298.462 366.121,-289.725"/>
<polygon fill="midnightblue" stroke="midnightblue" points="369.552,-289.019 364.455,-279.731 362.647,-290.17 369.552,-289.019"/>
</g>
<!-- Node9 -->
<g id="node9" class="node"><title>Node9</title>
<polygon fill="none" stroke="#bfbfbf" points="412.5,-260.5 412.5,-279.5 461.5,-279.5 461.5,-260.5 412.5,-260.5"/>
<text text-anchor="middle" x="437" y="-267.5" font-family="Helvetica,sans-Serif" font-size="10.00">cassert</text>
</g>
<!-- Node7&#45;&gt;Node9 -->
<g id="edge8" class="edge"><title>Node7&#45;&gt;Node9</title>
<path fill="none" stroke="midnightblue" d="M388.167,-316.781C397.851,-307.703 410.409,-295.929 420.365,-286.595"/>
<polygon fill="midnightblue" stroke="midnightblue" points="422.786,-289.123 427.687,-279.731 417.998,-284.017 422.786,-289.123"/>
</g>
<!-- Node10 -->
<g id="node10" class="node"><title>Node10</title>
<polygon fill="none" stroke="#bfbfbf" points="479.5,-260.5 479.5,-279.5 538.5,-279.5 538.5,-260.5 479.5,-260.5"/>
<text text-anchor="middle" x="509" y="-267.5" font-family="Helvetica,sans-Serif" font-size="10.00">stdexcept</text>
</g>
<!-- Node7&#45;&gt;Node10 -->
<g id="edge9" class="edge"><title>Node7&#45;&gt;Node10</title>
<path fill="none" stroke="midnightblue" d="M404.886,-316.933C427.728,-306.855 458.23,-293.399 480.31,-283.657"/>
<polygon fill="midnightblue" stroke="midnightblue" points="481.77,-286.839 489.507,-279.6 478.945,-280.434 481.77,-286.839"/>
</g>
<!-- Node11 -->
<g id="node11" class="node"><title>Node11</title>
<polygon fill="none" stroke="#bfbfbf" points="556.5,-260.5 556.5,-279.5 601.5,-279.5 601.5,-260.5 556.5,-260.5"/>
<text text-anchor="middle" x="579" y="-267.5" font-family="Helvetica,sans-Serif" font-size="10.00">gsl/gsl</text>
</g>
<!-- Node7&#45;&gt;Node11 -->
<g id="edge10" class="edge"><title>Node7&#45;&gt;Node11</title>
<path fill="none" stroke="midnightblue" d="M421.298,-316.933C459.88,-305.695 512.889,-290.256 546.548,-280.452"/>
<polygon fill="midnightblue" stroke="midnightblue" points="547.714,-283.758 556.336,-277.601 545.756,-277.037 547.714,-283.758"/>
</g>
<!-- Node12 -->
<g id="node12" class="node"><title>Node12</title>
<polygon fill="none" stroke="#bfbfbf" points="252,-260.5 252,-279.5 314,-279.5 314,-260.5 252,-260.5"/>
<text text-anchor="middle" x="283" y="-267.5" font-family="Helvetica,sans-Serif" font-size="10.00">type_traits</text>
</g>
<!-- Node7&#45;&gt;Node12 -->
<g id="edge11" class="edge"><title>Node7&#45;&gt;Node12</title>
<path fill="none" stroke="midnightblue" d="M351.671,-316.781C337.429,-307.286 318.765,-294.843 304.49,-285.327"/>
<polygon fill="midnightblue" stroke="midnightblue" points="306.096,-282.191 295.834,-279.556 302.213,-288.015 306.096,-282.191"/>
</g>
<!-- Node14 -->
<g id="node14" class="node"><title>Node14</title>
<polygon fill="none" stroke="#bfbfbf" points="160,-74.5 160,-93.5 216,-93.5 216,-74.5 160,-74.5"/>
<text text-anchor="middle" x="188" y="-81.5" font-family="Helvetica,sans-Serif" font-size="10.00">Rtypes.h</text>
</g>
<!-- Node13&#45;&gt;Node14 -->
<g id="edge13" class="edge"><title>Node13&#45;&gt;Node14</title>
<path fill="none" stroke="midnightblue" d="M287.454,-192.969C289.349,-177.695 290.051,-153.16 279,-136 266.753,-116.983 244.795,-104.382 225.518,-96.464"/>
<polygon fill="midnightblue" stroke="midnightblue" points="226.627,-93.141 216.036,-92.8432 224.129,-99.6804 226.627,-93.141"/>
</g>
<!-- Node16 -->
<g id="node16" class="node"><title>Node16</title>
<g id="a_node16"><a xlink:href="../../df/d5d/common_2include_2CommonDataFormat_2TimeStamp_8h.html" target="_top" xlink:title="CommonDataFormat/TimeStamp.h">
<polygon fill="none" stroke="black" points="100,-136.5 100,-155.5 270,-155.5 270,-136.5 100,-136.5"/>
<text text-anchor="middle" x="185" y="-143.5" font-family="Helvetica,sans-Serif" font-size="10.00">CommonDataFormat/TimeStamp.h</text>
</a>
</g>
</g>
<!-- Node15&#45;&gt;Node16 -->
<g id="edge15" class="edge"><title>Node15&#45;&gt;Node16</title>
<path fill="none" stroke="midnightblue" d="M180.178,-384.245C180.898,-348.825 183.604,-215.677 184.616,-165.917"/>
<polygon fill="midnightblue" stroke="midnightblue" points="188.12,-165.719 184.824,-155.65 181.122,-165.577 188.12,-165.719"/>
</g>
<!-- Node17 -->
<g id="node17" class="node"><title>Node17</title>
<polygon fill="none" stroke="#bfbfbf" points="98.5,-322.5 98.5,-341.5 157.5,-341.5 157.5,-322.5 98.5,-322.5"/>
<text text-anchor="middle" x="128" y="-329.5" font-family="Helvetica,sans-Serif" font-size="10.00">TObject.h</text>
</g>
<!-- Node15&#45;&gt;Node17 -->
<g id="edge17" class="edge"><title>Node15&#45;&gt;Node17</title>
<path fill="none" stroke="midnightblue" d="M172.55,-384.403C164.672,-375.314 152.055,-360.756 142.256,-349.449"/>
<polygon fill="midnightblue" stroke="midnightblue" points="144.631,-346.845 135.437,-341.581 139.341,-351.43 144.631,-346.845"/>
</g>
<!-- Node16&#45;&gt;Node14 -->
<g id="edge16" class="edge"><title>Node16&#45;&gt;Node14</title>
<path fill="none" stroke="midnightblue" d="M185.43,-136.403C185.853,-127.938 186.514,-114.728 187.059,-103.82"/>
<polygon fill="midnightblue" stroke="midnightblue" points="190.567,-103.743 187.571,-93.5806 183.576,-103.393 190.567,-103.743"/>
</g>
<!-- Node18&#45;&gt;Node14 -->
<g id="edge19" class="edge"><title>Node18&#45;&gt;Node14</title>
<path fill="none" stroke="midnightblue" d="M71.7173,-192.97C73.1843,-177.47 77.6221,-152.521 91,-136 106.126,-117.321 129.944,-104.658 150.192,-96.6218"/>
<polygon fill="midnightblue" stroke="midnightblue" points="151.645,-99.8157 159.792,-93.0425 149.199,-93.2567 151.645,-99.8157"/>
</g>
<!-- Node20&#45;&gt;Node5 -->
<g id="edge23" class="edge"><title>Node20&#45;&gt;Node5</title>
<path fill="none" stroke="midnightblue" d="M922.399,-505.756C832.944,-505.943 654.37,-500.999 610,-460 579.927,-432.212 579.467,-379.778 581.718,-351.763"/>
<polygon fill="midnightblue" stroke="midnightblue" points="585.211,-352.003 582.732,-341.702 578.247,-351.301 585.211,-352.003"/>
</g>
<!-- Node21 -->
<g id="node21" class="node"><title>Node21</title>
<polygon fill="none" stroke="#bfbfbf" points="660,-384.5 660,-403.5 704,-403.5 704,-384.5 660,-384.5"/>
<text text-anchor="middle" x="682" y="-391.5" font-family="Helvetica,sans-Serif" font-size="10.00">vector</text>
</g>
<!-- Node20&#45;&gt;Node21 -->
<g id="edge24" class="edge"><title>Node20&#45;&gt;Node21</title>
<path fill="none" stroke="midnightblue" d="M922.352,-504.803C846.724,-503.291 711.499,-495.54 681,-460 670.223,-447.442 672.119,-427.946 675.707,-413.58"/>
<polygon fill="midnightblue" stroke="midnightblue" points="679.121,-414.375 678.598,-403.793 672.408,-412.392 679.121,-414.375"/>
</g>
<!-- Node22 -->
<g id="node22" class="node"><title>Node22</title>
<polygon fill="none" stroke="#bfbfbf" points="1046,-440.5 1046,-459.5 1084,-459.5 1084,-440.5 1046,-440.5"/>
<text text-anchor="middle" x="1065" y="-447.5" font-family="Helvetica,sans-Serif" font-size="10.00">array</text>
</g>
<!-- Node20&#45;&gt;Node22 -->
<g id="edge25" class="edge"><title>Node20&#45;&gt;Node22</title>
<path fill="none" stroke="midnightblue" d="M988.621,-496.324C1002.95,-487.822 1025.01,-474.729 1041.75,-464.797"/>
<polygon fill="midnightblue" stroke="midnightblue" points="1043.6,-467.768 1050.42,-459.655 1040.03,-461.748 1043.6,-467.768"/>
</g>
<!-- Node23 -->
<g id="node23" class="node"><title>Node23</title>
<polygon fill="none" stroke="#bfbfbf" points="1102.5,-440.5 1102.5,-459.5 1143.5,-459.5 1143.5,-440.5 1102.5,-440.5"/>
<text text-anchor="middle" x="1123" y="-447.5" font-family="Helvetica,sans-Serif" font-size="10.00">string</text>
</g>
<!-- Node20&#45;&gt;Node23 -->
<g id="edge26" class="edge"><title>Node20&#45;&gt;Node23</title>
<path fill="none" stroke="midnightblue" d="M997.609,-496.444C1023.33,-487.12 1064.57,-472.177 1092.67,-461.991"/>
<polygon fill="midnightblue" stroke="midnightblue" points="1094.17,-465.171 1102.38,-458.473 1091.79,-458.59 1094.17,-465.171"/>
</g>
<!-- Node24 -->
<g id="node24" class="node"><title>Node24</title>
<polygon fill="none" stroke="#bfbfbf" points="1251,-136.5 1251,-155.5 1295,-155.5 1295,-136.5 1251,-136.5"/>
<text text-anchor="middle" x="1273" y="-143.5" font-family="Helvetica,sans-Serif" font-size="10.00">cmath</text>
</g>
<!-- Node20&#45;&gt;Node24 -->
<g id="edge27" class="edge"><title>Node20&#45;&gt;Node24</title>
<path fill="none" stroke="midnightblue" d="M1025.7,-502.849C1111.3,-498.566 1278.19,-486.956 1330,-460 1364.61,-441.993 1389,-434.015 1389,-395 1389,-395 1389,-395 1389,-269 1389,-217.707 1334.48,-179.405 1300.2,-160.388"/>
<polygon fill="midnightblue" stroke="midnightblue" points="1301.59,-157.167 1291.12,-155.541 1298.3,-163.341 1301.59,-157.167"/>
</g>
<!-- Node25 -->
<g id="node25" class="node"><title>Node25</title>
<g id="a_node25"><a xlink:href="../../d1/d73/Defs_8h.html" target="_top" xlink:title="Common definitions for 2D coordinates. ">
<polygon fill="none" stroke="black" points="957,-198.5 957,-217.5 1049,-217.5 1049,-198.5 957,-198.5"/>
<text text-anchor="middle" x="1003" y="-205.5" font-family="Helvetica,sans-Serif" font-size="10.00">TPCBase/Defs.h</text>
</a>
</g>
</g>
<!-- Node20&#45;&gt;Node25 -->
<g id="edge28" class="edge"><title>Node20&#45;&gt;Node25</title>
<path fill="none" stroke="midnightblue" d="M922.456,-503.715C845.962,-500.779 707.382,-491.189 670,-460 643.266,-437.695 634.609,-414.718 651,-384 709.522,-274.323 862.974,-232.125 946.635,-216.906"/>
<polygon fill="midnightblue" stroke="midnightblue" points="947.481,-220.311 956.728,-215.139 946.274,-213.416 947.481,-220.311"/>
</g>
<!-- Node37 -->
<g id="node37" class="node"><title>Node37</title>
<g id="a_node37"><a xlink:href="../../de/d41/PadPos_8h.html" target="_top" xlink:title="TPCBase/PadPos.h">
<polygon fill="none" stroke="black" points="844.5,-322.5 844.5,-341.5 949.5,-341.5 949.5,-322.5 844.5,-322.5"/>
<text text-anchor="middle" x="897" y="-329.5" font-family="Helvetica,sans-Serif" font-size="10.00">TPCBase/PadPos.h</text>
</a>
</g>
</g>
<!-- Node20&#45;&gt;Node37 -->
<g id="edge43" class="edge"><title>Node20&#45;&gt;Node37</title>
<path fill="none" stroke="midnightblue" d="M950.699,-496.466C934.712,-489.309 914.548,-477.427 904,-460 883.582,-426.265 888.244,-377.798 892.931,-351.566"/>
<polygon fill="midnightblue" stroke="midnightblue" points="896.414,-351.992 894.932,-341.502 889.549,-350.627 896.414,-351.992"/>
</g>
<!-- Node38 -->
<g id="node38" class="node"><title>Node38</title>
<g id="a_node38"><a xlink:href="../../dd/d0b/PadSecPos_8h.html" target="_top" xlink:title="TPCBase/PadSecPos.h">
<polygon fill="none" stroke="black" points="1178,-384.5 1178,-403.5 1300,-403.5 1300,-384.5 1178,-384.5"/>
<text text-anchor="middle" x="1239" y="-391.5" font-family="Helvetica,sans-Serif" font-size="10.00">TPCBase/PadSecPos.h</text>
</a>
</g>
</g>
<!-- Node20&#45;&gt;Node38 -->
<g id="edge44" class="edge"><title>Node20&#45;&gt;Node38</title>
<path fill="none" stroke="midnightblue" d="M1025.51,-505.551C1106.77,-505.196 1258.98,-499.16 1293,-460 1308.09,-442.635 1284.44,-422.158 1263.84,-408.895"/>
<polygon fill="midnightblue" stroke="midnightblue" points="1265.39,-405.741 1255.03,-403.514 1261.74,-411.714 1265.39,-405.741"/>
</g>
<!-- Node39 -->
<g id="node39" class="node"><title>Node39</title>
<g id="a_node39"><a xlink:href="../../d3/dd6/Sector_8h.html" target="_top" xlink:title="TPCBase/Sector.h">
<polygon fill="none" stroke="black" points="1122.5,-260.5 1122.5,-279.5 1221.5,-279.5 1221.5,-260.5 1122.5,-260.5"/>
<text text-anchor="middle" x="1172" y="-267.5" font-family="Helvetica,sans-Serif" font-size="10.00">TPCBase/Sector.h</text>
</a>
</g>
</g>
<!-- Node20&#45;&gt;Node39 -->
<g id="edge70" class="edge"><title>Node20&#45;&gt;Node39</title>
<path fill="none" stroke="midnightblue" d="M1025.83,-505.979C1110.75,-506.349 1273.71,-501.469 1310,-460 1363.88,-398.418 1247.56,-316.749 1195.5,-284.718"/>
<polygon fill="midnightblue" stroke="midnightblue" points="1197.24,-281.678 1186.87,-279.5 1193.62,-287.668 1197.24,-281.678"/>
</g>
<!-- Node41 -->
<g id="node41" class="node"><title>Node41</title>
<g id="a_node41"><a xlink:href="../../da/d61/PadROCPos_8h.html" target="_top" xlink:title="TPCBase/PadROCPos.h">
<polygon fill="none" stroke="black" points="920,-384.5 920,-403.5 1048,-403.5 1048,-384.5 920,-384.5"/>
<text text-anchor="middle" x="984" y="-391.5" font-family="Helvetica,sans-Serif" font-size="10.00">TPCBase/PadROCPos.h</text>
</a>
</g>
</g>
<!-- Node20&#45;&gt;Node41 -->
<g id="edge49" class="edge"><title>Node20&#45;&gt;Node41</title>
<path fill="none" stroke="midnightblue" d="M954.248,-496.419C931.177,-485.077 897.747,-463.739 911,-440 919.156,-425.391 934.22,-414.936 948.554,-407.804"/>
<polygon fill="midnightblue" stroke="midnightblue" points="950.146,-410.924 957.789,-403.586 947.238,-404.557 950.146,-410.924"/>
</g>
<!-- Node43 -->
<g id="node43" class="node"><title>Node43</title>
<g id="a_node43"><a xlink:href="../../d3/d54/DigitPos_8h.html" target="_top" xlink:title="TPCBase/DigitPos.h">
<polygon fill="none" stroke="black" points="920,-440.5 920,-459.5 1028,-459.5 1028,-440.5 920,-440.5"/>
<text text-anchor="middle" x="974" y="-447.5" font-family="Helvetica,sans-Serif" font-size="10.00">TPCBase/DigitPos.h</text>
</a>
</g>
</g>
<!-- Node20&#45;&gt;Node43 -->
<g id="edge55" class="edge"><title>Node20&#45;&gt;Node43</title>
<path fill="none" stroke="midnightblue" d="M974,-496.083C974,-489.006 974,-478.861 974,-469.986"/>
<polygon fill="midnightblue" stroke="midnightblue" points="977.5,-469.751 974,-459.751 970.5,-469.751 977.5,-469.751"/>
</g>
<!-- Node45 -->
<g id="node45" class="node"><title>Node45</title>
<g id="a_node45"><a xlink:href="../../d1/d1f/FECInfo_8h.html" target="_top" xlink:title="TPCBase/FECInfo.h">
<polygon fill="none" stroke="black" points="1370.5,-136.5 1370.5,-155.5 1477.5,-155.5 1477.5,-136.5 1370.5,-136.5"/>
<text text-anchor="middle" x="1424" y="-143.5" font-family="Helvetica,sans-Serif" font-size="10.00">TPCBase/FECInfo.h</text>
</a>
</g>
</g>
<!-- Node20&#45;&gt;Node45 -->
<g id="edge63" class="edge"><title>Node20&#45;&gt;Node45</title>
<path fill="none" stroke="midnightblue" d="M1025.78,-503.192C1117.39,-499.308 1303.85,-488.12 1362,-460 1398.78,-442.214 1427,-435.855 1427,-395 1427,-395 1427,-395 1427,-269 1427,-232.403 1425.63,-189.649 1424.75,-165.709"/>
<polygon fill="midnightblue" stroke="midnightblue" points="1428.24,-165.435 1424.36,-155.577 1421.24,-165.704 1428.24,-165.435"/>
</g>
<!-- Node46 -->
<g id="node46" class="node"><title>Node46</title>
<g id="a_node46"><a xlink:href="../../da/d9d/PadRegionInfo_8h.html" target="_top" xlink:title="TPCBase/PadRegionInfo.h">
<polygon fill="none" stroke="black" points="690.5,-440.5 690.5,-459.5 825.5,-459.5 825.5,-440.5 690.5,-440.5"/>
<text text-anchor="middle" x="758" y="-447.5" font-family="Helvetica,sans-Serif" font-size="10.00">TPCBase/PadRegionInfo.h</text>
</a>
</g>
</g>
<!-- Node20&#45;&gt;Node46 -->
<g id="edge65" class="edge"><title>Node20&#45;&gt;Node46</title>
<path fill="none" stroke="midnightblue" d="M939.774,-496.444C902.488,-487.122 842.731,-472.183 801.989,-461.997"/>
<polygon fill="midnightblue" stroke="midnightblue" points="802.616,-458.546 792.066,-459.516 800.918,-465.337 802.616,-458.546"/>
</g>
<!-- Node47 -->
<g id="node47" class="node"><title>Node47</title>
<g id="a_node47"><a xlink:href="../../d6/d42/PartitionInfo_8h.html" target="_top" xlink:title="TPCBase/PartitionInfo.h">
<polygon fill="none" stroke="black" points="1161.5,-440.5 1161.5,-459.5 1284.5,-459.5 1284.5,-440.5 1161.5,-440.5"/>
<text text-anchor="middle" x="1223" y="-447.5" font-family="Helvetica,sans-Serif" font-size="10.00">TPCBase/PartitionInfo.h</text>
</a>
</g>
</g>
<!-- Node20&#45;&gt;Node47 -->
<g id="edge69" class="edge"><title>Node20&#45;&gt;Node47</title>
<path fill="none" stroke="midnightblue" d="M1013.45,-496.444C1056.89,-487.023 1126.79,-471.866 1173.78,-461.675"/>
<polygon fill="midnightblue" stroke="midnightblue" points="1174.7,-465.056 1183.73,-459.516 1173.22,-458.215 1174.7,-465.056"/>
</g>
<!-- Node25&#45;&gt;Node24 -->
<g id="edge29" class="edge"><title>Node25&#45;&gt;Node24</title>
<path fill="none" stroke="midnightblue" d="M1041.4,-198.467C1094.95,-186.566 1191.1,-165.201 1240.99,-154.113"/>
<polygon fill="midnightblue" stroke="midnightblue" points="1241.9,-157.496 1250.91,-151.91 1240.38,-150.663 1241.9,-157.496"/>
</g>
<!-- Node26 -->
<g id="node26" class="node"><title>Node26</title>
<g id="a_node26"><a xlink:href="../../d2/dd0/Cartesian2D_8h.html" target="_top" xlink:title="MathUtils/Cartesian2D.h">
<polygon fill="none" stroke="black" points="1223.5,-74.5 1223.5,-93.5 1348.5,-93.5 1348.5,-74.5 1223.5,-74.5"/>
<text text-anchor="middle" x="1286" y="-81.5" font-family="Helvetica,sans-Serif" font-size="10.00">MathUtils/Cartesian2D.h</text>
</a>
</g>
</g>
<!-- Node25&#45;&gt;Node26 -->
<g id="edge30" class="edge"><title>Node25&#45;&gt;Node26</title>
<path fill="none" stroke="midnightblue" d="M1022.9,-198.421C1072.02,-177.246 1199.21,-122.416 1256.85,-97.5683"/>
<polygon fill="midnightblue" stroke="midnightblue" points="1258.32,-100.742 1266.12,-93.5693 1255.55,-94.3141 1258.32,-100.742"/>
</g>
<!-- Node29 -->
<g id="node29" class="node"><title>Node29</title>
<g id="a_node29"><a xlink:href="../../dd/d76/Cartesian3D_8h.html" target="_top" xlink:title="MathUtils/Cartesian3D.h">
<polygon fill="none" stroke="black" points="803.5,-136.5 803.5,-155.5 928.5,-155.5 928.5,-136.5 803.5,-136.5"/>
<text text-anchor="middle" x="866" y="-143.5" font-family="Helvetica,sans-Serif" font-size="10.00">MathUtils/Cartesian3D.h</text>
</a>
</g>
</g>
<!-- Node25&#45;&gt;Node29 -->
<g id="edge33" class="edge"><title>Node25&#45;&gt;Node29</title>
<path fill="none" stroke="midnightblue" d="M983.371,-198.403C960.176,-188.245 921.381,-171.255 894.787,-159.607"/>
<polygon fill="midnightblue" stroke="midnightblue" points="896.157,-156.386 885.592,-155.581 893.348,-162.798 896.157,-156.386"/>
</g>
<!-- Node27 -->
<g id="node27" class="node"><title>Node27</title>
<polygon fill="none" stroke="#bfbfbf" points="1119.5,-1 1119.5,-31 1270.5,-31 1270.5,-1 1119.5,-1"/>
<text text-anchor="start" x="1127.5" y="-19" font-family="Helvetica,sans-Serif" font-size="10.00">Math/GenVector/Displacement</text>
<text text-anchor="middle" x="1195" y="-8" font-family="Helvetica,sans-Serif" font-size="10.00">Vector2D.h</text>
</g>
<!-- Node26&#45;&gt;Node27 -->
<g id="edge31" class="edge"><title>Node26&#45;&gt;Node27</title>
<path fill="none" stroke="midnightblue" d="M1274.1,-74.3717C1261.22,-65.0286 1240.22,-49.7966 1223.09,-37.375"/>
<polygon fill="midnightblue" stroke="midnightblue" points="1224.7,-34.2194 1214.55,-31.1815 1220.59,-39.8859 1224.7,-34.2194"/>
</g>
<!-- Node28 -->
<g id="node28" class="node"><title>Node28</title>
<polygon fill="none" stroke="#bfbfbf" points="1289,-6.5 1289,-25.5 1465,-25.5 1465,-6.5 1289,-6.5"/>
<text text-anchor="middle" x="1377" y="-13.5" font-family="Helvetica,sans-Serif" font-size="10.00">Math/GenVector/PositionVector2D.h</text>
</g>
<!-- Node26&#45;&gt;Node28 -->
<g id="edge32" class="edge"><title>Node26&#45;&gt;Node28</title>
<path fill="none" stroke="midnightblue" d="M1297.9,-74.3717C1312.88,-63.5015 1338.86,-44.6602 1356.94,-31.5474"/>
<polygon fill="midnightblue" stroke="midnightblue" points="1359.06,-34.3349 1365.1,-25.6305 1354.95,-28.6684 1359.06,-34.3349"/>
</g>
<!-- Node29&#45;&gt;Node14 -->
<g id="edge39" class="edge"><title>Node29&#45;&gt;Node14</title>
<path fill="none" stroke="midnightblue" d="M803.359,-145.171C689.572,-144.454 441.761,-138.158 237,-100 232.119,-99.0903 227.037,-97.8643 222.074,-96.5032"/>
<polygon fill="midnightblue" stroke="midnightblue" points="222.737,-93.0499 212.155,-93.5774 220.757,-99.7639 222.737,-93.0499"/>
</g>
<!-- Node29&#45;&gt;Node26 -->
<g id="edge42" class="edge"><title>Node29&#45;&gt;Node26</title>
<path fill="none" stroke="midnightblue" d="M928.765,-138.353C998.615,-130.614 1114.73,-116.733 1214,-100 1221.7,-98.7017 1229.83,-97.1674 1237.75,-95.584"/>
<polygon fill="midnightblue" stroke="midnightblue" points="1238.52,-98.9993 1247.62,-93.5662 1237.12,-92.1413 1238.52,-98.9993"/>
</g>
<!-- Node30 -->
<g id="node30" class="node"><title>Node30</title>
<polygon fill="none" stroke="#bfbfbf" points="518.5,-69 518.5,-99 669.5,-99 669.5,-69 518.5,-69"/>
<text text-anchor="start" x="526.5" y="-87" font-family="Helvetica,sans-Serif" font-size="10.00">Math/GenVector/Displacement</text>
<text text-anchor="middle" x="594" y="-76" font-family="Helvetica,sans-Serif" font-size="10.00">Vector3D.h</text>
</g>
<!-- Node29&#45;&gt;Node30 -->
<g id="edge34" class="edge"><title>Node29&#45;&gt;Node30</title>
<path fill="none" stroke="midnightblue" d="M827.318,-136.467C785.93,-127.337 719.29,-112.638 667.806,-101.281"/>
<polygon fill="midnightblue" stroke="midnightblue" points="668.242,-97.7929 657.723,-99.0565 666.734,-104.629 668.242,-97.7929"/>
</g>
<!-- Node31 -->
<g id="node31" class="node"><title>Node31</title>
<polygon fill="none" stroke="#bfbfbf" points="688,-74.5 688,-93.5 864,-93.5 864,-74.5 688,-74.5"/>
<text text-anchor="middle" x="776" y="-81.5" font-family="Helvetica,sans-Serif" font-size="10.00">Math/GenVector/PositionVector3D.h</text>
</g>
<!-- Node29&#45;&gt;Node31 -->
<g id="edge35" class="edge"><title>Node29&#45;&gt;Node31</title>
<path fill="none" stroke="midnightblue" d="M853.105,-136.403C838.536,-126.691 814.598,-110.732 797.255,-99.1697"/>
<polygon fill="midnightblue" stroke="midnightblue" points="799.133,-96.2155 788.871,-93.5806 795.25,-102.04 799.133,-96.2155"/>
</g>
<!-- Node32 -->
<g id="node32" class="node"><title>Node32</title>
<polygon fill="none" stroke="#bfbfbf" points="881.5,-74.5 881.5,-93.5 1030.5,-93.5 1030.5,-74.5 881.5,-74.5"/>
<text text-anchor="middle" x="956" y="-81.5" font-family="Helvetica,sans-Serif" font-size="10.00">Math/GenVector/Rotation3D.h</text>
</g>
<!-- Node29&#45;&gt;Node32 -->
<g id="edge36" class="edge"><title>Node29&#45;&gt;Node32</title>
<path fill="none" stroke="midnightblue" d="M878.895,-136.403C893.464,-126.691 917.402,-110.732 934.745,-99.1697"/>
<polygon fill="midnightblue" stroke="midnightblue" points="936.75,-102.04 943.129,-93.5806 932.867,-96.2155 936.75,-102.04"/>
</g>
<!-- Node33 -->
<g id="node33" class="node"><title>Node33</title>
<polygon fill="none" stroke="#bfbfbf" points="1049,-74.5 1049,-93.5 1205,-93.5 1205,-74.5 1049,-74.5"/>
<text text-anchor="middle" x="1127" y="-81.5" font-family="Helvetica,sans-Serif" font-size="10.00">Math/GenVector/Transform3D.h</text>
</g>
<!-- Node29&#45;&gt;Node33 -->
<g id="edge37" class="edge"><title>Node29&#45;&gt;Node33</title>
<path fill="none" stroke="midnightblue" d="M903.118,-136.467C949.596,-125.783 1029.26,-107.469 1079.96,-95.8129"/>
<polygon fill="midnightblue" stroke="midnightblue" points="1081.05,-99.1549 1090.01,-93.5034 1079.48,-92.3328 1081.05,-99.1549"/>
</g>
<!-- Node34 -->
<g id="node34" class="node"><title>Node34</title>
<polygon fill="none" stroke="#bfbfbf" points="246,-74.5 246,-93.5 406,-93.5 406,-74.5 246,-74.5"/>
<text text-anchor="middle" x="326" y="-81.5" font-family="Helvetica,sans-Serif" font-size="10.00">Math/GenVector/Translation3D.h</text>
</g>
<!-- Node29&#45;&gt;Node34 -->
<g id="edge38" class="edge"><title>Node29&#45;&gt;Node34</title>
<path fill="none" stroke="midnightblue" d="M803.468,-140.104C716.255,-132.97 553.238,-118.524 415,-100 404.643,-98.6121 393.643,-96.9295 383.037,-95.1997"/>
<polygon fill="midnightblue" stroke="midnightblue" points="383.462,-91.7224 373.023,-93.535 382.314,-98.6276 383.462,-91.7224"/>
</g>
<!-- Node35 -->
<g id="node35" class="node"><title>Node35</title>
<polygon fill="none" stroke="#bfbfbf" points="424,-74.5 424,-93.5 500,-93.5 500,-74.5 424,-74.5"/>
<text text-anchor="middle" x="462" y="-81.5" font-family="Helvetica,sans-Serif" font-size="10.00">TGeoMatrix.h</text>
</g>
<!-- Node29&#45;&gt;Node35 -->
<g id="edge40" class="edge"><title>Node29&#45;&gt;Node35</title>
<path fill="none" stroke="midnightblue" d="M803.495,-140.615C731.756,-134.779 610.874,-122.477 509,-100 504.766,-99.0657 500.368,-97.9144 496.037,-96.6684"/>
<polygon fill="midnightblue" stroke="midnightblue" points="496.748,-93.2258 486.162,-93.6467 494.7,-99.9195 496.748,-93.2258"/>
</g>
<!-- Node36 -->
<g id="node36" class="node"><title>Node36</title>
<polygon fill="none" stroke="#bfbfbf" points="1373,-74.5 1373,-93.5 1427,-93.5 1427,-74.5 1373,-74.5"/>
<text text-anchor="middle" x="1400" y="-81.5" font-family="Helvetica,sans-Serif" font-size="10.00">iostream</text>
</g>
<!-- Node29&#45;&gt;Node36 -->
<g id="edge41" class="edge"><title>Node29&#45;&gt;Node36</title>
<path fill="none" stroke="midnightblue" d="M928.747,-144.13C1022.83,-141.732 1205.58,-132.831 1357,-100 1360.97,-99.1388 1365.08,-98.0186 1369.12,-96.7781"/>
<polygon fill="midnightblue" stroke="midnightblue" points="1370.48,-100.012 1378.86,-93.5261 1368.27,-93.3718 1370.48,-100.012"/>
</g>
<!-- Node38&#45;&gt;Node37 -->
<g id="edge48" class="edge"><title>Node38&#45;&gt;Node37</title>
<path fill="none" stroke="midnightblue" d="M1190.36,-384.467C1128.44,-373.604 1021.57,-354.855 955.337,-343.235"/>
<polygon fill="midnightblue" stroke="midnightblue" points="955.924,-339.784 945.469,-341.503 954.714,-346.679 955.924,-339.784"/>
</g>
<!-- Node38&#45;&gt;Node39 -->
<g id="edge45" class="edge"><title>Node38&#45;&gt;Node39</title>
<path fill="none" stroke="midnightblue" d="M1234.18,-384.226C1223.22,-364.266 1196.24,-315.144 1181.69,-288.638"/>
<polygon fill="midnightblue" stroke="midnightblue" points="1184.66,-286.775 1176.77,-279.694 1178.52,-290.144 1184.66,-286.775"/>
</g>
<!-- Node39&#45;&gt;Node25 -->
<g id="edge47" class="edge"><title>Node39&#45;&gt;Node25</title>
<path fill="none" stroke="midnightblue" d="M1147.79,-260.403C1118.67,-250.067 1069.63,-232.656 1036.8,-220.999"/>
<polygon fill="midnightblue" stroke="midnightblue" points="1037.76,-217.628 1027.17,-217.581 1035.42,-224.225 1037.76,-217.628"/>
</g>
<!-- Node40 -->
<g id="node40" class="node"><title>Node40</title>
<g id="a_node40"><a xlink:href="../../d6/d51/TPC_2base_2include_2TPCBase_2Constants_8h.html" target="_top" xlink:title="TPCBase/Constants.h">
<polygon fill="none" stroke="black" points="1114,-198.5 1114,-217.5 1230,-217.5 1230,-198.5 1114,-198.5"/>
<text text-anchor="middle" x="1172" y="-205.5" font-family="Helvetica,sans-Serif" font-size="10.00">TPCBase/Constants.h</text>
</a>
</g>
</g>
<!-- Node39&#45;&gt;Node40 -->
<g id="edge46" class="edge"><title>Node39&#45;&gt;Node40</title>
<path fill="none" stroke="midnightblue" d="M1172,-260.403C1172,-251.938 1172,-238.728 1172,-227.82"/>
<polygon fill="midnightblue" stroke="midnightblue" points="1175.5,-227.581 1172,-217.581 1168.5,-227.581 1175.5,-227.581"/>
</g>
<!-- Node41&#45;&gt;Node25 -->
<g id="edge50" class="edge"><title>Node41&#45;&gt;Node25</title>
<path fill="none" stroke="midnightblue" d="M984.916,-384.125C987.844,-355.769 997.018,-266.93 1001.06,-227.811"/>
<polygon fill="midnightblue" stroke="midnightblue" points="1004.55,-228.092 1002.09,-217.786 997.584,-227.373 1004.55,-228.092"/>
</g>
<!-- Node41&#45;&gt;Node37 -->
<g id="edge54" class="edge"><title>Node41&#45;&gt;Node37</title>
<path fill="none" stroke="midnightblue" d="M971.535,-384.403C957.581,-374.78 934.735,-359.024 918.009,-347.489"/>
<polygon fill="midnightblue" stroke="midnightblue" points="919.661,-344.377 909.442,-341.581 915.687,-350.139 919.661,-344.377"/>
</g>
<!-- Node42 -->
<g id="node42" class="node"><title>Node42</title>
<g id="a_node42"><a xlink:href="../../dc/d14/ROC_8h.html" target="_top" xlink:title="TPCBase/ROC.h">
<polygon fill="none" stroke="black" points="1050.5,-322.5 1050.5,-341.5 1143.5,-341.5 1143.5,-322.5 1050.5,-322.5"/>
<text text-anchor="middle" x="1097" y="-329.5" font-family="Helvetica,sans-Serif" font-size="10.00">TPCBase/ROC.h</text>
</a>
</g>
</g>
<!-- Node41&#45;&gt;Node42 -->
<g id="edge51" class="edge"><title>Node41&#45;&gt;Node42</title>
<path fill="none" stroke="midnightblue" d="M1000.19,-384.403C1018.9,-374.468 1049.92,-357.997 1071.8,-346.381"/>
<polygon fill="midnightblue" stroke="midnightblue" points="1073.65,-349.362 1080.84,-341.581 1070.37,-343.179 1073.65,-349.362"/>
</g>
<!-- Node42&#45;&gt;Node25 -->
<g id="edge52" class="edge"><title>Node42&#45;&gt;Node25</title>
<path fill="none" stroke="midnightblue" d="M1090.24,-322.226C1074.73,-302.09 1036.34,-252.276 1016.05,-225.943"/>
<polygon fill="midnightblue" stroke="midnightblue" points="1018.57,-223.48 1009.7,-217.694 1013.03,-227.752 1018.57,-223.48"/>
</g>
<!-- Node42&#45;&gt;Node39 -->
<g id="edge53" class="edge"><title>Node42&#45;&gt;Node39</title>
<path fill="none" stroke="midnightblue" d="M1107.75,-322.403C1119.55,-312.958 1138.74,-297.606 1153.08,-286.134"/>
<polygon fill="midnightblue" stroke="midnightblue" points="1155.65,-288.561 1161.27,-279.581 1151.28,-283.095 1155.65,-288.561"/>
</g>
<!-- Node43&#45;&gt;Node25 -->
<g id="edge56" class="edge"><title>Node43&#45;&gt;Node25</title>
<path fill="none" stroke="midnightblue" d="M950.571,-440.398C903.229,-421.59 803.269,-373.83 835,-316 862.431,-266.008 924.231,-236.023 964.741,-221.013"/>
<polygon fill="midnightblue" stroke="midnightblue" points="966.054,-224.261 974.295,-217.603 963.701,-217.668 966.054,-224.261"/>
</g>
<!-- Node43&#45;&gt;Node37 -->
<g id="edge61" class="edge"><title>Node43&#45;&gt;Node37</title>
<path fill="none" stroke="midnightblue" d="M954.99,-440.351C940.629,-432.811 921.633,-420.494 911,-404 900.91,-388.349 897.811,-367.02 896.99,-351.836"/>
<polygon fill="midnightblue" stroke="midnightblue" points="900.483,-351.524 896.728,-341.617 893.485,-351.703 900.483,-351.524"/>
</g>
<!-- Node43&#45;&gt;Node38 -->
<g id="edge62" class="edge"><title>Node43&#45;&gt;Node38</title>
<path fill="none" stroke="midnightblue" d="M1015.99,-440.444C1062.41,-430.984 1137.23,-415.738 1187.24,-405.547"/>
<polygon fill="midnightblue" stroke="midnightblue" points="1188.11,-408.943 1197.21,-403.516 1186.71,-402.084 1188.11,-408.943"/>
</g>
<!-- Node44 -->
<g id="node44" class="node"><title>Node44</title>
<g id="a_node44"><a xlink:href="../../df/d26/CRU_8h.html" target="_top" xlink:title="TPCBase/CRU.h">
<polygon fill="none" stroke="black" points="1066.5,-384.5 1066.5,-403.5 1159.5,-403.5 1159.5,-384.5 1066.5,-384.5"/>
<text text-anchor="middle" x="1113" y="-391.5" font-family="Helvetica,sans-Serif" font-size="10.00">TPCBase/CRU.h</text>
</a>
</g>
</g>
<!-- Node43&#45;&gt;Node44 -->
<g id="edge57" class="edge"><title>Node43&#45;&gt;Node44</title>
<path fill="none" stroke="midnightblue" d="M996.025,-440.444C1019.1,-431.478 1055.56,-417.314 1081.64,-407.183"/>
<polygon fill="midnightblue" stroke="midnightblue" points="1083.02,-410.4 1091.08,-403.516 1080.49,-403.875 1083.02,-410.4"/>
</g>
<!-- Node44&#45;&gt;Node25 -->
<g id="edge58" class="edge"><title>Node44&#45;&gt;Node25</title>
<path fill="none" stroke="midnightblue" d="M1090.99,-384.477C1074.87,-377.141 1053.67,-365.032 1041,-348 1026.78,-328.877 1012.67,-261.22 1006.39,-227.869"/>
<polygon fill="midnightblue" stroke="midnightblue" points="1009.76,-226.839 1004.51,-217.638 1002.88,-228.107 1009.76,-226.839"/>
</g>
<!-- Node44&#45;&gt;Node39 -->
<g id="edge59" class="edge"><title>Node44&#45;&gt;Node39</title>
<path fill="none" stroke="midnightblue" d="M1122.77,-384.299C1131.65,-375.862 1144.49,-362.274 1152,-348 1161.72,-329.507 1166.94,-305.981 1169.58,-289.829"/>
<polygon fill="midnightblue" stroke="midnightblue" points="1173.1,-289.947 1171.07,-279.548 1166.17,-288.94 1173.1,-289.947"/>
</g>
<!-- Node44&#45;&gt;Node42 -->
<g id="edge60" class="edge"><title>Node44&#45;&gt;Node42</title>
<path fill="none" stroke="midnightblue" d="M1110.71,-384.403C1108.43,-375.849 1104.85,-362.45 1101.93,-351.476"/>
<polygon fill="midnightblue" stroke="midnightblue" points="1105.25,-350.341 1099.29,-341.581 1098.48,-352.145 1105.25,-350.341"/>
</g>
<!-- Node45&#45;&gt;Node36 -->
<g id="edge64" class="edge"><title>Node45&#45;&gt;Node36</title>
<path fill="none" stroke="midnightblue" d="M1420.56,-136.403C1417.1,-127.76 1411.67,-114.17 1407.25,-103.134"/>
<polygon fill="midnightblue" stroke="midnightblue" points="1410.4,-101.565 1403.43,-93.5806 1403.9,-104.165 1410.4,-101.565"/>
</g>
<!-- Node46&#45;&gt;Node21 -->
<g id="edge66" class="edge"><title>Node46&#45;&gt;Node21</title>
<path fill="none" stroke="midnightblue" d="M745.789,-440.324C734.224,-432.107 716.625,-419.602 702.839,-409.807"/>
<polygon fill="midnightblue" stroke="midnightblue" points="704.612,-406.773 694.433,-403.834 700.557,-412.479 704.612,-406.773"/>
</g>
<!-- Node46&#45;&gt;Node25 -->
<g id="edge67" class="edge"><title>Node46&#45;&gt;Node25</title>
<path fill="none" stroke="midnightblue" d="M760.132,-440.28C767.935,-410.258 797.84,-310.259 861,-260 885.736,-240.317 918.706,-227.858 946.65,-220.186"/>
<polygon fill="midnightblue" stroke="midnightblue" points="947.898,-223.478 956.694,-217.572 946.135,-216.704 947.898,-223.478"/>
</g>
<!-- Node46&#45;&gt;Node37 -->
<g id="edge68" class="edge"><title>Node46&#45;&gt;Node37</title>
<path fill="none" stroke="midnightblue" d="M768.448,-440.281C792.008,-420.619 849.512,-372.63 878.966,-348.05"/>
<polygon fill="midnightblue" stroke="midnightblue" points="881.374,-350.599 886.809,-341.505 876.889,-345.225 881.374,-350.599"/>
</g>
</g>
</svg>
        <g id="navigator" transform="translate(0 0)" fill="#404254">
                <rect fill="#f2f5e9" fill-opacity="0.5" stroke="#606060" stroke-width=".5" x="0" y="0" width="60" height="60"/>
                <use id="zoomplus" xlink:href="#zoomPlus" x="17" y="9" onmousedown="handleZoom(evt,'in')"/>
                <use id="zoomminus" xlink:href="#zoomMin" x="42" y="9" onmousedown="handleZoom(evt,'out')"/>
                <use id="reset" xlink:href="#resetDef" x="30" y="36" onmousedown="handleReset()"/>
                <g id="arrowUp" xlink:href="#dirArrow" transform="translate(30 24)" onmousedown="handlePan(0,-1)">
                  <use xlink:href="#rim" fill="#404040">
                        <set attributeName="fill" to="#808080" begin="arrowUp.mouseover" end="arrowUp.mouseout"/>
                  </use>
                  <path fill="none" stroke="white" stroke-width="1.5" d="M0,-3.0v7 M-2.5,-0.5L0,-3.0L2.5,-0.5"/>
                </g>
                <g id="arrowRight" xlink:href="#dirArrow" transform="rotate(90) translate(36 -43)" onmousedown="handlePan(1,0)">
                  <use xlink:href="#rim" fill="#404040">
                        <set attributeName="fill" to="#808080" begin="arrowRight.mouseover" end="arrowRight.mouseout"/>
                  </use>
                  <path fill="none" stroke="white" stroke-width="1.5" d="M0,-3.0v7 M-2.5,-0.5L0,-3.0L2.5,-0.5"/>
                </g>
                <g id="arrowDown" xlink:href="#dirArrow" transform="rotate(180) translate(-30 -48)" onmousedown="handlePan(0,1)">
                  <use xlink:href="#rim" fill="#404040">
                        <set attributeName="fill" to="#808080" begin="arrowDown.mouseover" end="arrowDown.mouseout"/>
                  </use>
                  <path fill="none" stroke="white" stroke-width="1.5" d="M0,-3.0v7 M-2.5,-0.5L0,-3.0L2.5,-0.5"/>
                </g>
                <g id="arrowLeft" xlink:href="#dirArrow" transform="rotate(270) translate(-36 17)" onmousedown="handlePan(-1,0)">
                  <use xlink:href="#rim" fill="#404040">
                        <set attributeName="fill" to="#808080" begin="arrowLeft.mouseover" end="arrowLeft.mouseout"/>
                  </use>
                  <path fill="none" stroke="white" stroke-width="1.5" d="M0,-3.0v7 M-2.5,-0.5L0,-3.0L2.5,-0.5"/>
                </g>
        </g>
        <svg viewBox="0 0 15 15" width="100%" height="30px" preserveAspectRatio="xMaxYMin meet">
         <g id="arrow_out" transform="scale(0.3 0.3)">
          <a xlink:href="DigitTime_8cxx__incl_org.svg" target="_base">
           <rect id="button" ry="5" rx="5" y="6" x="6" height="38" width="38"
                fill="#f2f5e9" fill-opacity="0.5" stroke="#606060" stroke-width="1.0"/>
           <path id="arrow"
             d="M 11.500037,31.436501 C 11.940474,20.09759 22.043105,11.32322 32.158766,21.979434 L 37.068811,17.246167 C 37.068811,17.246167 37.088388,32 37.088388,32 L 22.160133,31.978069 C 22.160133,31.978069 26.997745,27.140456 26.997745,27.140456 C 18.528582,18.264221 13.291696,25.230495 11.500037,31.436501 z"
             style="fill:#404040;"/>
          </a>
         </g>
        </svg>
</svg>
