<?xml version="1.0" encoding="UTF-8" standalone="no"?>
<!DOCTYPE svg PUBLIC "-//W3C//DTD SVG 1.1//EN"
 "http://www.w3.org/Graphics/SVG/1.1/DTD/svg11.dtd">
<!-- Generated by graphviz version 2.36.0 (20140111.2315)
 -->
<!-- Title: /home/travis/build/AliceO2Group/AliceO2/Detectors/TPC/base/include/TPCBase/ParameterGas.h Pages: 1 -->
<svg width="1745pt" height="420pt"
 viewBox="0.00 0.00 1745.00 420.00" xmlns="http://www.w3.org/2000/svg" xmlns:xlink="http://www.w3.org/1999/xlink">
<g id="graph0" class="graph" transform="scale(1 1) rotate(0) translate(4 416)">
<title>/home/travis/build/AliceO2Group/AliceO2/Detectors/TPC/base/include/TPCBase/ParameterGas.h</title>
<!-- Node1 -->
<g id="node1" class="node"><title>Node1</title>
<polygon fill="#bfbfbf" stroke="black" points="822.5,-359 822.5,-411 965.5,-411 965.5,-359 822.5,-359"/>
<text text-anchor="start" x="830.5" y="-399" font-family="Helvetica,sans-Serif" font-size="10.00">/home/travis/build</text>
<text text-anchor="start" x="830.5" y="-388" font-family="Helvetica,sans-Serif" font-size="10.00">/AliceO2Group/AliceO2</text>
<text text-anchor="start" x="830.5" y="-377" font-family="Helvetica,sans-Serif" font-size="10.00">/Detectors/TPC/base/include</text>
<text text-anchor="middle" x="894" y="-366" font-family="Helvetica,sans-Serif" font-size="10.00">/TPCBase/ParameterGas.h</text>
</g>
<!-- Node2 -->
<g id="node2" class="node"><title>Node2</title>
<g id="a_node2"><a xlink:href="../../dd/d64/ParameterGas_8cxx.html" target="_top" xlink:title="Implementation of the parameter class for the detector gas. ">
<polygon fill="none" stroke="black" points="0,-269 0,-321 126,-321 126,-269 0,-269"/>
<text text-anchor="start" x="8" y="-309" font-family="Helvetica,sans-Serif" font-size="10.00">/home/travis/build</text>
<text text-anchor="start" x="8" y="-298" font-family="Helvetica,sans-Serif" font-size="10.00">/AliceO2Group/AliceO2</text>
<text text-anchor="start" x="8" y="-287" font-family="Helvetica,sans-Serif" font-size="10.00">/Detectors/TPC/base/src</text>
<text text-anchor="middle" x="63" y="-276" font-family="Helvetica,sans-Serif" font-size="10.00">/ParameterGas.cxx</text>
</a>
</g>
</g>
<!-- Node1&#45;&gt;Node2 -->
<g id="edge1" class="edge"><title>Node1&#45;&gt;Node2</title>
<path fill="none" stroke="midnightblue" d="M812.211,-384.368C671.971,-383.441 377.31,-374.666 135,-322 132.143,-321.379 129.245,-320.673 126.335,-319.9"/>
<polygon fill="midnightblue" stroke="midnightblue" points="812.427,-387.869 822.446,-384.424 812.465,-380.869 812.427,-387.869"/>
</g>
<!-- Node3 -->
<g id="node3" class="node"><title>Node3</title>
<g id="a_node3"><a xlink:href="../../da/d69/testTPCParameters_8cxx.html" target="_top" xlink:title="This task tests the Parameter handling. ">
<polygon fill="none" stroke="black" points="144.5,-269 144.5,-321 273.5,-321 273.5,-269 144.5,-269"/>
<text text-anchor="start" x="152.5" y="-309" font-family="Helvetica,sans-Serif" font-size="10.00">/home/travis/build</text>
<text text-anchor="start" x="152.5" y="-298" font-family="Helvetica,sans-Serif" font-size="10.00">/AliceO2Group/AliceO2</text>
<text text-anchor="start" x="152.5" y="-287" font-family="Helvetica,sans-Serif" font-size="10.00">/Detectors/TPC/base/test</text>
<text text-anchor="middle" x="209" y="-276" font-family="Helvetica,sans-Serif" font-size="10.00">/testTPCParameters.cxx</text>
</a>
</g>
</g>
<!-- Node1&#45;&gt;Node3 -->
<g id="edge2" class="edge"><title>Node1&#45;&gt;Node3</title>
<path fill="none" stroke="midnightblue" d="M812.041,-381.828C693.857,-377.316 469.306,-363.564 283,-322 279.943,-321.318 276.838,-320.549 273.719,-319.713"/>
<polygon fill="midnightblue" stroke="midnightblue" points="811.978,-385.328 822.1,-382.2 812.236,-378.333 811.978,-385.328"/>
</g>
<!-- Node4 -->
<g id="node4" class="node"><title>Node4</title>
<g id="a_node4"><a xlink:href="../../d4/d7c/HardwareClusterDecoder_8cxx.html" target="_top" xlink:title="/home/travis/build\l/AliceO2Group/AliceO2\l/Detectors/TPC/reconstruction\l/src/HardwareClusterDecoder.cxx">
<polygon fill="none" stroke="black" points="291.5,-269 291.5,-321 456.5,-321 456.5,-269 291.5,-269"/>
<text text-anchor="start" x="299.5" y="-309" font-family="Helvetica,sans-Serif" font-size="10.00">/home/travis/build</text>
<text text-anchor="start" x="299.5" y="-298" font-family="Helvetica,sans-Serif" font-size="10.00">/AliceO2Group/AliceO2</text>
<text text-anchor="start" x="299.5" y="-287" font-family="Helvetica,sans-Serif" font-size="10.00">/Detectors/TPC/reconstruction</text>
<text text-anchor="middle" x="374" y="-276" font-family="Helvetica,sans-Serif" font-size="10.00">/src/HardwareClusterDecoder.cxx</text>
</a>
</g>
</g>
<!-- Node1&#45;&gt;Node4 -->
<g id="edge3" class="edge"><title>Node1&#45;&gt;Node4</title>
<path fill="none" stroke="midnightblue" d="M812.283,-375.402C725.733,-365.543 585.382,-347.401 466,-322 462.915,-321.344 459.782,-320.642 456.624,-319.904"/>
<polygon fill="midnightblue" stroke="midnightblue" points="811.976,-378.89 822.305,-376.535 812.761,-371.934 811.976,-378.89"/>
</g>
<!-- Node5 -->
<g id="node5" class="node"><title>Node5</title>
<g id="a_node5"><a xlink:href="../../d8/ded/TPCCATracking_8cxx.html" target="_top" xlink:title="/home/travis/build\l/AliceO2Group/AliceO2\l/Detectors/TPC/reconstruction\l/src/TPCCATracking.cxx">
<polygon fill="none" stroke="black" points="475,-269 475,-321 625,-321 625,-269 475,-269"/>
<text text-anchor="start" x="483" y="-309" font-family="Helvetica,sans-Serif" font-size="10.00">/home/travis/build</text>
<text text-anchor="start" x="483" y="-298" font-family="Helvetica,sans-Serif" font-size="10.00">/AliceO2Group/AliceO2</text>
<text text-anchor="start" x="483" y="-287" font-family="Helvetica,sans-Serif" font-size="10.00">/Detectors/TPC/reconstruction</text>
<text text-anchor="middle" x="550" y="-276" font-family="Helvetica,sans-Serif" font-size="10.00">/src/TPCCATracking.cxx</text>
</a>
</g>
</g>
<!-- Node1&#45;&gt;Node5 -->
<g id="edge4" class="edge"><title>Node1&#45;&gt;Node5</title>
<path fill="none" stroke="midnightblue" d="M812.441,-366.007C761.03,-354.306 693.375,-338.249 634,-322 631.055,-321.194 628.058,-320.355 625.034,-319.494"/>
<polygon fill="midnightblue" stroke="midnightblue" points="811.973,-369.49 822.499,-368.288 813.521,-362.663 811.973,-369.49"/>
</g>
<!-- Node6 -->
<g id="node6" class="node"><title>Node6</title>
<g id="a_node6"><a xlink:href="../../d6/da8/TrackTPC_8cxx.html" target="_top" xlink:title="Implementation of the TPC track. ">
<polygon fill="none" stroke="black" points="643,-269 643,-321 793,-321 793,-269 643,-269"/>
<text text-anchor="start" x="651" y="-309" font-family="Helvetica,sans-Serif" font-size="10.00">/home/travis/build</text>
<text text-anchor="start" x="651" y="-298" font-family="Helvetica,sans-Serif" font-size="10.00">/AliceO2Group/AliceO2</text>
<text text-anchor="start" x="651" y="-287" font-family="Helvetica,sans-Serif" font-size="10.00">/Detectors/TPC/reconstruction</text>
<text text-anchor="middle" x="718" y="-276" font-family="Helvetica,sans-Serif" font-size="10.00">/src/TrackTPC.cxx</text>
</a>
</g>
</g>
<!-- Node1&#45;&gt;Node6 -->
<g id="edge5" class="edge"><title>Node1&#45;&gt;Node6</title>
<path fill="none" stroke="midnightblue" d="M834.498,-354.249C812.936,-343.468 788.814,-331.407 768.137,-321.069"/>
<polygon fill="midnightblue" stroke="midnightblue" points="833.056,-357.441 843.565,-358.783 836.186,-351.18 833.056,-357.441"/>
</g>
<!-- Node7 -->
<g id="node7" class="node"><title>Node7</title>
<g id="a_node7"><a xlink:href="../../de/d92/TPC_2simulation_2include_2TPCSimulation_2Digitizer_8h.html" target="_top" xlink:title="/home/travis/build\l/AliceO2Group/AliceO2\l/Detectors/TPC/simulation\l/include/TPCSimulation/Digitizer.h">
<polygon fill="none" stroke="black" points="810.5,-269 810.5,-321 977.5,-321 977.5,-269 810.5,-269"/>
<text text-anchor="start" x="818.5" y="-309" font-family="Helvetica,sans-Serif" font-size="10.00">/home/travis/build</text>
<text text-anchor="start" x="818.5" y="-298" font-family="Helvetica,sans-Serif" font-size="10.00">/AliceO2Group/AliceO2</text>
<text text-anchor="start" x="818.5" y="-287" font-family="Helvetica,sans-Serif" font-size="10.00">/Detectors/TPC/simulation</text>
<text text-anchor="middle" x="894" y="-276" font-family="Helvetica,sans-Serif" font-size="10.00">/include/TPCSimulation/Digitizer.h</text>
</a>
</g>
</g>
<!-- Node1&#45;&gt;Node7 -->
<g id="edge6" class="edge"><title>Node1&#45;&gt;Node7</title>
<path fill="none" stroke="midnightblue" d="M894,-348.489C894,-339.309 894,-329.616 894,-321.092"/>
<polygon fill="midnightblue" stroke="midnightblue" points="890.5,-348.547 894,-358.547 897.5,-348.547 890.5,-348.547"/>
</g>
<!-- Node17 -->
<g id="node17" class="node"><title>Node17</title>
<g id="a_node17"><a xlink:href="../../d2/da8/ElectronTransport_8h.html" target="_top" xlink:title="Definition of the electron transport. ">
<polygon fill="none" stroke="black" points="996,-269 996,-321 1204,-321 1204,-269 996,-269"/>
<text text-anchor="start" x="1004" y="-309" font-family="Helvetica,sans-Serif" font-size="10.00">/home/travis/build</text>
<text text-anchor="start" x="1004" y="-298" font-family="Helvetica,sans-Serif" font-size="10.00">/AliceO2Group/AliceO2</text>
<text text-anchor="start" x="1004" y="-287" font-family="Helvetica,sans-Serif" font-size="10.00">/Detectors/TPC/simulation</text>
<text text-anchor="middle" x="1100" y="-276" font-family="Helvetica,sans-Serif" font-size="10.00">/include/TPCSimulation/ElectronTransport.h</text>
</a>
</g>
</g>
<!-- Node1&#45;&gt;Node17 -->
<g id="edge17" class="edge"><title>Node1&#45;&gt;Node17</title>
<path fill="none" stroke="midnightblue" d="M962.023,-354.942C987.617,-344.008 1016.48,-331.679 1041.17,-321.133"/>
<polygon fill="midnightblue" stroke="midnightblue" points="960.577,-351.753 952.756,-358.901 963.327,-358.191 960.577,-351.753"/>
</g>
<!-- Node19 -->
<g id="node19" class="node"><title>Node19</title>
<g id="a_node19"><a xlink:href="../../d4/d82/testTPCElectronTransport_8cxx.html" target="_top" xlink:title="This task tests the ElectronTransport module of the TPC digitization. ">
<polygon fill="none" stroke="black" points="1310,-174 1310,-226 1482,-226 1482,-174 1310,-174"/>
<text text-anchor="start" x="1318" y="-214" font-family="Helvetica,sans-Serif" font-size="10.00">/home/travis/build</text>
<text text-anchor="start" x="1318" y="-203" font-family="Helvetica,sans-Serif" font-size="10.00">/AliceO2Group/AliceO2</text>
<text text-anchor="start" x="1318" y="-192" font-family="Helvetica,sans-Serif" font-size="10.00">/Detectors/TPC/simulation</text>
<text text-anchor="middle" x="1396" y="-181" font-family="Helvetica,sans-Serif" font-size="10.00">/test/testTPCElectronTransport.cxx</text>
</a>
</g>
</g>
<!-- Node1&#45;&gt;Node19 -->
<g id="edge23" class="edge"><title>Node1&#45;&gt;Node19</title>
<path fill="none" stroke="midnightblue" d="M975.766,-375.027C1056.88,-364.915 1174.48,-346.618 1213,-322 1237.95,-306.058 1229.17,-286.854 1252,-268 1273.05,-250.616 1299.35,-236.657 1323.7,-226.074"/>
<polygon fill="midnightblue" stroke="midnightblue" points="975.066,-371.587 965.568,-376.28 975.92,-378.535 975.066,-371.587"/>
</g>
<!-- Node20 -->
<g id="node20" class="node"><title>Node20</title>
<g id="a_node20"><a xlink:href="../../d2/d2c/TPC_2simulation_2src_2Detector_8cxx.html" target="_top" xlink:title="/home/travis/build\l/AliceO2Group/AliceO2\l/Detectors/TPC/simulation\l/src/Detector.cxx">
<polygon fill="none" stroke="black" points="1260.5,-269 1260.5,-321 1393.5,-321 1393.5,-269 1260.5,-269"/>
<text text-anchor="start" x="1268.5" y="-309" font-family="Helvetica,sans-Serif" font-size="10.00">/home/travis/build</text>
<text text-anchor="start" x="1268.5" y="-298" font-family="Helvetica,sans-Serif" font-size="10.00">/AliceO2Group/AliceO2</text>
<text text-anchor="start" x="1268.5" y="-287" font-family="Helvetica,sans-Serif" font-size="10.00">/Detectors/TPC/simulation</text>
<text text-anchor="middle" x="1327" y="-276" font-family="Helvetica,sans-Serif" font-size="10.00">/src/Detector.cxx</text>
</a>
</g>
</g>
<!-- Node1&#45;&gt;Node20 -->
<g id="edge21" class="edge"><title>Node1&#45;&gt;Node20</title>
<path fill="none" stroke="midnightblue" d="M976.052,-372.784C1047.82,-362.208 1154.57,-344.614 1246,-322 1250.73,-320.83 1255.59,-319.529 1260.46,-318.151"/>
<polygon fill="midnightblue" stroke="midnightblue" points="975.112,-369.384 965.724,-374.294 976.125,-376.311 975.112,-369.384"/>
</g>
<!-- Node21 -->
<g id="node21" class="node"><title>Node21</title>
<g id="a_node21"><a xlink:href="../../db/d6c/GEMAmplification_8cxx.html" target="_top" xlink:title="Implementation of the GEM amplification. ">
<polygon fill="none" stroke="black" points="1412,-269 1412,-321 1546,-321 1546,-269 1412,-269"/>
<text text-anchor="start" x="1420" y="-309" font-family="Helvetica,sans-Serif" font-size="10.00">/home/travis/build</text>
<text text-anchor="start" x="1420" y="-298" font-family="Helvetica,sans-Serif" font-size="10.00">/AliceO2Group/AliceO2</text>
<text text-anchor="start" x="1420" y="-287" font-family="Helvetica,sans-Serif" font-size="10.00">/Detectors/TPC/simulation</text>
<text text-anchor="middle" x="1479" y="-276" font-family="Helvetica,sans-Serif" font-size="10.00">/src/GEMAmplification.cxx</text>
</a>
</g>
</g>
<!-- Node1&#45;&gt;Node21 -->
<g id="edge22" class="edge"><title>Node1&#45;&gt;Node21</title>
<path fill="none" stroke="midnightblue" d="M976.035,-379.158C1077.2,-372.007 1253.95,-355.658 1402,-322 1405.16,-321.281 1408.38,-320.481 1411.62,-319.62"/>
<polygon fill="midnightblue" stroke="midnightblue" points="975.616,-375.679 965.883,-379.863 976.101,-382.662 975.616,-375.679"/>
</g>
<!-- Node22 -->
<g id="node22" class="node"><title>Node22</title>
<g id="a_node22"><a xlink:href="../../d5/d97/testTPCGEMAmplification_8cxx.html" target="_top" xlink:title="/home/travis/build\l/AliceO2Group/AliceO2\l/Detectors/TPC/simulation\l/test/testTPCGEMAmplification.cxx">
<polygon fill="none" stroke="black" points="1564.5,-269 1564.5,-321 1737.5,-321 1737.5,-269 1564.5,-269"/>
<text text-anchor="start" x="1572.5" y="-309" font-family="Helvetica,sans-Serif" font-size="10.00">/home/travis/build</text>
<text text-anchor="start" x="1572.5" y="-298" font-family="Helvetica,sans-Serif" font-size="10.00">/AliceO2Group/AliceO2</text>
<text text-anchor="start" x="1572.5" y="-287" font-family="Helvetica,sans-Serif" font-size="10.00">/Detectors/TPC/simulation</text>
<text text-anchor="middle" x="1651" y="-276" font-family="Helvetica,sans-Serif" font-size="10.00">/test/testTPCGEMAmplification.cxx</text>
</a>
</g>
</g>
<!-- Node1&#45;&gt;Node22 -->
<g id="edge24" class="edge"><title>Node1&#45;&gt;Node22</title>
<path fill="none" stroke="midnightblue" d="M976.254,-380.805C1101.88,-374.911 1348.71,-359.327 1555,-322 1558.06,-321.447 1561.16,-320.842 1564.29,-320.198"/>
<polygon fill="midnightblue" stroke="midnightblue" points="975.778,-377.323 965.95,-381.28 976.1,-384.316 975.778,-377.323"/>
</g>
<!-- Node8 -->
<g id="node8" class="node"><title>Node8</title>
<g id="a_node8"><a xlink:href="../../db/d60/testTracks_8C.html" target="_top" xlink:title="/home/travis/build\l/AliceO2Group/AliceO2\l/Detectors/TPC/reconstruction\l/macro/testTracks.C">
<polygon fill="none" stroke="black" points="293,-174 293,-226 443,-226 443,-174 293,-174"/>
<text text-anchor="start" x="301" y="-214" font-family="Helvetica,sans-Serif" font-size="10.00">/home/travis/build</text>
<text text-anchor="start" x="301" y="-203" font-family="Helvetica,sans-Serif" font-size="10.00">/AliceO2Group/AliceO2</text>
<text text-anchor="start" x="301" y="-192" font-family="Helvetica,sans-Serif" font-size="10.00">/Detectors/TPC/reconstruction</text>
<text text-anchor="middle" x="368" y="-181" font-family="Helvetica,sans-Serif" font-size="10.00">/macro/testTracks.C</text>
</a>
</g>
</g>
<!-- Node7&#45;&gt;Node8 -->
<g id="edge7" class="edge"><title>Node7&#45;&gt;Node8</title>
<path fill="none" stroke="midnightblue" d="M800.085,-267.988C648.102,-240.306 603.805,-264.786 457,-232 449.654,-230.36 442.075,-228.308 434.583,-226.045"/>
<polygon fill="midnightblue" stroke="midnightblue" points="799.781,-271.492 810.253,-269.888 801.066,-264.611 799.781,-271.492"/>
</g>
<!-- Node9 -->
<g id="node9" class="node"><title>Node9</title>
<g id="a_node9"><a xlink:href="../../dd/d4b/TPC_2simulation_2include_2TPCSimulation_2DigitizerTask_8h.html" target="_top" xlink:title="/home/travis/build\l/AliceO2Group/AliceO2\l/Detectors/TPC/simulation\l/include/TPCSimulation/Digitizer\lTask.h">
<polygon fill="none" stroke="black" points="499,-168.5 499,-231.5 657,-231.5 657,-168.5 499,-168.5"/>
<text text-anchor="start" x="507" y="-219.5" font-family="Helvetica,sans-Serif" font-size="10.00">/home/travis/build</text>
<text text-anchor="start" x="507" y="-208.5" font-family="Helvetica,sans-Serif" font-size="10.00">/AliceO2Group/AliceO2</text>
<text text-anchor="start" x="507" y="-197.5" font-family="Helvetica,sans-Serif" font-size="10.00">/Detectors/TPC/simulation</text>
<text text-anchor="start" x="507" y="-186.5" font-family="Helvetica,sans-Serif" font-size="10.00">/include/TPCSimulation/Digitizer</text>
<text text-anchor="middle" x="578" y="-175.5" font-family="Helvetica,sans-Serif" font-size="10.00">Task.h</text>
</a>
</g>
</g>
<!-- Node7&#45;&gt;Node9 -->
<g id="edge8" class="edge"><title>Node7&#45;&gt;Node9</title>
<path fill="none" stroke="midnightblue" d="M800.646,-267.929C739.9,-251.508 723.057,-249.268 667,-232 663.716,-230.988 660.372,-229.934 657,-228.851"/>
<polygon fill="midnightblue" stroke="midnightblue" points="799.791,-271.323 810.36,-270.574 801.631,-264.569 799.791,-271.323"/>
</g>
<!-- Node10 -->
<g id="node10" class="node"><title>Node10</title>
<g id="a_node10"><a xlink:href="../../df/d46/TPC_2simulation_2src_2DigitizerTask_8cxx.html" target="_top" xlink:title="/home/travis/build\l/AliceO2Group/AliceO2\l/Detectors/TPC/simulation\l/src/DigitizerTask.cxx">
<polygon fill="none" stroke="black" points="386.5,-79 386.5,-131 519.5,-131 519.5,-79 386.5,-79"/>
<text text-anchor="start" x="394.5" y="-119" font-family="Helvetica,sans-Serif" font-size="10.00">/home/travis/build</text>
<text text-anchor="start" x="394.5" y="-108" font-family="Helvetica,sans-Serif" font-size="10.00">/AliceO2Group/AliceO2</text>
<text text-anchor="start" x="394.5" y="-97" font-family="Helvetica,sans-Serif" font-size="10.00">/Detectors/TPC/simulation</text>
<text text-anchor="middle" x="453" y="-86" font-family="Helvetica,sans-Serif" font-size="10.00">/src/DigitizerTask.cxx</text>
</a>
</g>
</g>
<!-- Node7&#45;&gt;Node10 -->
<g id="edge15" class="edge"><title>Node7&#45;&gt;Node10</title>
<path fill="none" stroke="midnightblue" d="M800.635,-268.312C717.773,-256.266 541.073,-275.036 490,-232 460.536,-207.172 453.849,-160.213 452.707,-131.163"/>
<polygon fill="midnightblue" stroke="midnightblue" points="800.053,-271.763 810.497,-269.987 801.225,-264.862 800.053,-271.763"/>
</g>
<!-- Node14 -->
<g id="node14" class="node"><title>Node14</title>
<g id="a_node14"><a xlink:href="../../d9/d59/testHitsDigitsClusters_8C.html" target="_top" xlink:title="/home/travis/build\l/AliceO2Group/AliceO2\l/Detectors/TPC/simulation\l/macro/testHitsDigitsClusters.C">
<polygon fill="none" stroke="black" points="675.5,-174 675.5,-226 832.5,-226 832.5,-174 675.5,-174"/>
<text text-anchor="start" x="683.5" y="-214" font-family="Helvetica,sans-Serif" font-size="10.00">/home/travis/build</text>
<text text-anchor="start" x="683.5" y="-203" font-family="Helvetica,sans-Serif" font-size="10.00">/AliceO2Group/AliceO2</text>
<text text-anchor="start" x="683.5" y="-192" font-family="Helvetica,sans-Serif" font-size="10.00">/Detectors/TPC/simulation</text>
<text text-anchor="middle" x="754" y="-181" font-family="Helvetica,sans-Serif" font-size="10.00">/macro/testHitsDigitsClusters.C</text>
</a>
</g>
</g>
<!-- Node7&#45;&gt;Node14 -->
<g id="edge13" class="edge"><title>Node7&#45;&gt;Node14</title>
<path fill="none" stroke="midnightblue" d="M847.472,-263.092C829.432,-251.108 809.04,-237.562 791.916,-226.187"/>
<polygon fill="midnightblue" stroke="midnightblue" points="845.848,-266.215 856.114,-268.833 849.721,-260.384 845.848,-266.215"/>
</g>
<!-- Node15 -->
<g id="node15" class="node"><title>Node15</title>
<g id="a_node15"><a xlink:href="../../d7/d0a/TPC_2simulation_2src_2Digitizer_8cxx.html" target="_top" xlink:title="/home/travis/build\l/AliceO2Group/AliceO2\l/Detectors/TPC/simulation\l/src/Digitizer.cxx">
<polygon fill="none" stroke="black" points="1007.5,-174 1007.5,-226 1140.5,-226 1140.5,-174 1007.5,-174"/>
<text text-anchor="start" x="1015.5" y="-214" font-family="Helvetica,sans-Serif" font-size="10.00">/home/travis/build</text>
<text text-anchor="start" x="1015.5" y="-203" font-family="Helvetica,sans-Serif" font-size="10.00">/AliceO2Group/AliceO2</text>
<text text-anchor="start" x="1015.5" y="-192" font-family="Helvetica,sans-Serif" font-size="10.00">/Detectors/TPC/simulation</text>
<text text-anchor="middle" x="1074" y="-181" font-family="Helvetica,sans-Serif" font-size="10.00">/src/Digitizer.cxx</text>
</a>
</g>
</g>
<!-- Node7&#45;&gt;Node15 -->
<g id="edge14" class="edge"><title>Node7&#45;&gt;Node15</title>
<path fill="none" stroke="midnightblue" d="M951.655,-264.212C975.481,-251.902 1002.8,-237.789 1025.56,-226.026"/>
<polygon fill="midnightblue" stroke="midnightblue" points="949.988,-261.133 942.711,-268.833 953.201,-267.352 949.988,-261.133"/>
</g>
<!-- Node16 -->
<g id="node16" class="node"><title>Node16</title>
<g id="a_node16"><a xlink:href="../../d1/dd8/SAMPAProcessing_8cxx.html" target="_top" xlink:title="Implementation of the SAMPA response. ">
<polygon fill="none" stroke="black" points="850.5,-174 850.5,-226 989.5,-226 989.5,-174 850.5,-174"/>
<text text-anchor="start" x="858.5" y="-214" font-family="Helvetica,sans-Serif" font-size="10.00">/home/travis/build</text>
<text text-anchor="start" x="858.5" y="-203" font-family="Helvetica,sans-Serif" font-size="10.00">/AliceO2Group/AliceO2</text>
<text text-anchor="start" x="858.5" y="-192" font-family="Helvetica,sans-Serif" font-size="10.00">/Detectors/TPC/simulation</text>
<text text-anchor="middle" x="920" y="-181" font-family="Helvetica,sans-Serif" font-size="10.00">/src/SAMPAProcessing.cxx</text>
</a>
</g>
</g>
<!-- Node7&#45;&gt;Node16 -->
<g id="edge16" class="edge"><title>Node7&#45;&gt;Node16</title>
<path fill="none" stroke="midnightblue" d="M903.817,-258.884C906.871,-247.963 910.173,-236.149 912.994,-226.06"/>
<polygon fill="midnightblue" stroke="midnightblue" points="900.426,-258.014 901.105,-268.587 907.168,-259.899 900.426,-258.014"/>
</g>
<!-- Node9&#45;&gt;Node10 -->
<g id="edge9" class="edge"><title>Node9&#45;&gt;Node10</title>
<path fill="none" stroke="midnightblue" d="M528.592,-162.24C514.561,-151.801 499.608,-140.676 486.737,-131.1"/>
<polygon fill="midnightblue" stroke="midnightblue" points="526.612,-165.129 536.724,-168.291 530.79,-159.513 526.612,-165.129"/>
</g>
<!-- Node11 -->
<g id="node11" class="node"><title>Node11</title>
<g id="a_node11"><a xlink:href="../../d7/d11/macro_2run__digi_8C.html" target="_top" xlink:title="/home/travis/build\l/AliceO2Group/AliceO2\l/macro/run_digi.C">
<polygon fill="none" stroke="black" points="538,-84.5 538,-125.5 656,-125.5 656,-84.5 538,-84.5"/>
<text text-anchor="start" x="546" y="-113.5" font-family="Helvetica,sans-Serif" font-size="10.00">/home/travis/build</text>
<text text-anchor="start" x="546" y="-102.5" font-family="Helvetica,sans-Serif" font-size="10.00">/AliceO2Group/AliceO2</text>
<text text-anchor="middle" x="597" y="-91.5" font-family="Helvetica,sans-Serif" font-size="10.00">/macro/run_digi.C</text>
</a>
</g>
</g>
<!-- Node9&#45;&gt;Node11 -->
<g id="edge10" class="edge"><title>Node9&#45;&gt;Node11</title>
<path fill="none" stroke="midnightblue" d="M586.283,-158.458C588.614,-147.047 591.045,-135.149 593.001,-125.575"/>
<polygon fill="midnightblue" stroke="midnightblue" points="582.847,-157.792 584.274,-168.291 589.705,-159.194 582.847,-157.792"/>
</g>
<!-- Node12 -->
<g id="node12" class="node"><title>Node12</title>
<g id="a_node12"><a xlink:href="../../d3/db7/run__digi__tpc_8C.html" target="_top" xlink:title="/home/travis/build\l/AliceO2Group/AliceO2\l/macro/run_digi_tpc.C">
<polygon fill="none" stroke="black" points="674,-84.5 674,-125.5 792,-125.5 792,-84.5 674,-84.5"/>
<text text-anchor="start" x="682" y="-113.5" font-family="Helvetica,sans-Serif" font-size="10.00">/home/travis/build</text>
<text text-anchor="start" x="682" y="-102.5" font-family="Helvetica,sans-Serif" font-size="10.00">/AliceO2Group/AliceO2</text>
<text text-anchor="middle" x="733" y="-91.5" font-family="Helvetica,sans-Serif" font-size="10.00">/macro/run_digi_tpc.C</text>
</a>
</g>
</g>
<!-- Node9&#45;&gt;Node12 -->
<g id="edge11" class="edge"><title>Node9&#45;&gt;Node12</title>
<path fill="none" stroke="midnightblue" d="M637.846,-163.092C659.108,-150.335 682.242,-136.455 700.376,-125.575"/>
<polygon fill="midnightblue" stroke="midnightblue" points="635.957,-160.144 629.182,-168.291 639.558,-166.147 635.957,-160.144"/>
</g>
<!-- Node13 -->
<g id="node13" class="node"><title>Node13</title>
<g id="a_node13"><a xlink:href="../../d3/d56/runTPC_8cxx.html" target="_top" xlink:title="/home/travis/build\l/AliceO2Group/AliceO2\l/run/runTPC.cxx">
<polygon fill="none" stroke="black" points="674,-0.5 674,-41.5 792,-41.5 792,-0.5 674,-0.5"/>
<text text-anchor="start" x="682" y="-29.5" font-family="Helvetica,sans-Serif" font-size="10.00">/home/travis/build</text>
<text text-anchor="start" x="682" y="-18.5" font-family="Helvetica,sans-Serif" font-size="10.00">/AliceO2Group/AliceO2</text>
<text text-anchor="middle" x="733" y="-7.5" font-family="Helvetica,sans-Serif" font-size="10.00">/run/runTPC.cxx</text>
</a>
</g>
</g>
<!-- Node12&#45;&gt;Node13 -->
<g id="edge12" class="edge"><title>Node12&#45;&gt;Node13</title>
<path fill="none" stroke="midnightblue" d="M733,-73.881C733,-63.1328 733,-51.309 733,-41.6671"/>
<polygon fill="midnightblue" stroke="midnightblue" points="729.5,-74.1501 733,-84.1501 736.5,-74.1501 729.5,-74.1501"/>
</g>
<!-- Node17&#45;&gt;Node15 -->
<g id="edge18" class="edge"><title>Node17&#45;&gt;Node15</title>
<path fill="none" stroke="midnightblue" d="M1090.18,-258.884C1087.13,-247.963 1083.83,-236.149 1081.01,-226.06"/>
<polygon fill="midnightblue" stroke="midnightblue" points="1086.83,-259.899 1092.9,-268.587 1093.57,-258.014 1086.83,-259.899"/>
</g>
<!-- Node18 -->
<g id="node18" class="node"><title>Node18</title>
<g id="a_node18"><a xlink:href="../../d1/d98/ElectronTransport_8cxx.html" target="_top" xlink:title="Implementation of the electron transport. ">
<polygon fill="none" stroke="black" points="1158.5,-174 1158.5,-226 1291.5,-226 1291.5,-174 1158.5,-174"/>
<text text-anchor="start" x="1166.5" y="-214" font-family="Helvetica,sans-Serif" font-size="10.00">/home/travis/build</text>
<text text-anchor="start" x="1166.5" y="-203" font-family="Helvetica,sans-Serif" font-size="10.00">/AliceO2Group/AliceO2</text>
<text text-anchor="start" x="1166.5" y="-192" font-family="Helvetica,sans-Serif" font-size="10.00">/Detectors/TPC/simulation</text>
<text text-anchor="middle" x="1225" y="-181" font-family="Helvetica,sans-Serif" font-size="10.00">/src/ElectronTransport.cxx</text>
</a>
</g>
</g>
<!-- Node17&#45;&gt;Node18 -->
<g id="edge19" class="edge"><title>Node17&#45;&gt;Node18</title>
<path fill="none" stroke="midnightblue" d="M1141.98,-262.765C1157.98,-250.862 1176,-237.459 1191.15,-226.187"/>
<polygon fill="midnightblue" stroke="midnightblue" points="1139.76,-260.056 1133.83,-268.833 1143.94,-265.672 1139.76,-260.056"/>
</g>
<!-- Node17&#45;&gt;Node19 -->
<g id="edge20" class="edge"><title>Node17&#45;&gt;Node19</title>
<path fill="none" stroke="midnightblue" d="M1191.73,-265.81C1225.76,-255.287 1264.67,-243.18 1300,-232 1306.09,-230.071 1312.4,-228.062 1318.74,-226.035"/>
<polygon fill="midnightblue" stroke="midnightblue" points="1190.33,-262.581 1181.81,-268.878 1192.39,-269.269 1190.33,-262.581"/>
</g>
</g>
</svg>
