<?xml version="1.0" encoding="UTF-8" standalone="no"?>
<!DOCTYPE svg PUBLIC "-//W3C//DTD SVG 1.1//EN"
 "http://www.w3.org/Graphics/SVG/1.1/DTD/svg11.dtd">
<!-- Generated by graphviz version 2.36.0 (20140111.2315)
 -->
<!-- Title: o2::framework::DriverControl Pages: 1 -->
<svg width="235pt" height="172pt"
 viewBox="0.00 0.00 235.00 172.00" xmlns="http://www.w3.org/2000/svg" xmlns:xlink="http://www.w3.org/1999/xlink">
<g id="graph0" class="graph" transform="scale(1 1) rotate(0) translate(4 168)">
<title>o2::framework::DriverControl</title>
<!-- Node1 -->
<g id="node1" class="node"><title>Node1</title>
<polygon fill="#bfbfbf" stroke="black" points="38.5,-0.5 38.5,-57.5 181.5,-57.5 181.5,-0.5 38.5,-0.5"/>
<text text-anchor="middle" x="110" y="-45.5" font-family="Helvetica,sans-Serif" font-size="10.00">o2::framework::DriverControl</text>
<polyline fill="none" stroke="black" points="38.5,-38.5 181.5,-38.5 "/>
<text text-anchor="middle" x="110" y="-26.5" font-family="Helvetica,sans-Serif" font-size="10.00"> </text>
<polyline fill="none" stroke="black" points="38.5,-19.5 181.5,-19.5 "/>
<text text-anchor="middle" x="110" y="-7.5" font-family="Helvetica,sans-Serif" font-size="10.00"> </text>
</g>
<!-- Node2 -->
<g id="node2" class="node"><title>Node2</title>
<polygon fill="none" stroke="#bfbfbf" points="0,-106.5 0,-163.5 98,-163.5 98,-106.5 0,-106.5"/>
<text text-anchor="middle" x="49" y="-151.5" font-family="Helvetica,sans-Serif" font-size="10.00">DriverControlState</text>
<polyline fill="none" stroke="#bfbfbf" points="0,-144.5 98,-144.5 "/>
<text text-anchor="middle" x="49" y="-132.5" font-family="Helvetica,sans-Serif" font-size="10.00"> </text>
<polyline fill="none" stroke="#bfbfbf" points="0,-125.5 98,-125.5 "/>
<text text-anchor="middle" x="49" y="-113.5" font-family="Helvetica,sans-Serif" font-size="10.00"> </text>
</g>
<!-- Node2&#45;&gt;Node1 -->
<g id="edge1" class="edge"><title>Node2&#45;&gt;Node1</title>
<path fill="none" stroke="#404040" d="M65.1867,-106.403C72.0115,-94.7672 80.0729,-81.0232 87.4635,-68.4229"/>
<polygon fill="none" stroke="#404040" points="87.6664,-68.0769 87.2517,-60.8777 93.7376,-57.726 94.1523,-64.9252 87.6664,-68.0769"/>
<text text-anchor="middle" x="97.5" y="-79.5" font-family="Helvetica,sans-Serif" font-size="10.00"> +state</text>
</g>
<!-- Node3 -->
<g id="node3" class="node"><title>Node3</title>
<polygon fill="none" stroke="#bfbfbf" points="115.5,-106.5 115.5,-163.5 226.5,-163.5 226.5,-106.5 115.5,-106.5"/>
<text text-anchor="middle" x="171" y="-151.5" font-family="Helvetica,sans-Serif" font-size="10.00">vector&lt; DriverState &gt;</text>
<polyline fill="none" stroke="#bfbfbf" points="115.5,-144.5 226.5,-144.5 "/>
<text text-anchor="middle" x="171" y="-132.5" font-family="Helvetica,sans-Serif" font-size="10.00"> </text>
<polyline fill="none" stroke="#bfbfbf" points="115.5,-125.5 226.5,-125.5 "/>
<text text-anchor="middle" x="171" y="-113.5" font-family="Helvetica,sans-Serif" font-size="10.00"> </text>
</g>
<!-- Node3&#45;&gt;Node1 -->
<g id="edge2" class="edge"><title>Node3&#45;&gt;Node1</title>
<path fill="none" stroke="#404040" d="M154.813,-106.403C147.988,-94.7672 139.927,-81.0232 132.536,-68.4229"/>
<polygon fill="none" stroke="#404040" points="132.334,-68.0769 125.848,-64.9252 126.262,-57.726 132.748,-60.8777 132.334,-68.0769"/>
<text text-anchor="middle" x="184.5" y="-79.5" font-family="Helvetica,sans-Serif" font-size="10.00"> +forcedTransitions</text>
</g>
</g>
</svg>
