<?xml version="1.0" encoding="UTF-8" standalone="no"?>
<!DOCTYPE svg PUBLIC "-//W3C//DTD SVG 1.1//EN"
 "http://www.w3.org/Graphics/SVG/1.1/DTD/svg11.dtd">
<!-- Generated by graphviz version 2.36.0 (20140111.2315)
 -->
<!-- Title: o2::ITSMFT::Digit Pages: 1 -->
<svg width="221pt" height="600pt"
 viewBox="0.00 0.00 221.00 600.00" xmlns="http://www.w3.org/2000/svg" xmlns:xlink="http://www.w3.org/1999/xlink">
<g id="graph0" class="graph" transform="scale(1 1) rotate(0) translate(4 596)">
<title>o2::ITSMFT::Digit</title>
<!-- Node1 -->
<g id="node1" class="node"><title>Node1</title>
<polygon fill="#bfbfbf" stroke="black" points="79.5,-1 79.5,-311 204.5,-311 204.5,-1 79.5,-1"/>
<text text-anchor="middle" x="142" y="-299" font-family="Helvetica,sans-Serif" font-size="10.00">o2::ITSMFT::Digit</text>
<polyline fill="none" stroke="black" points="79.5,-292 204.5,-292 "/>
<text text-anchor="middle" x="142" y="-280" font-family="Helvetica,sans-Serif" font-size="10.00"> </text>
<polyline fill="none" stroke="black" points="79.5,-273 204.5,-273 "/>
<text text-anchor="start" x="87.5" y="-261" font-family="Helvetica,sans-Serif" font-size="10.00">+ Digit()</text>
<text text-anchor="start" x="87.5" y="-250" font-family="Helvetica,sans-Serif" font-size="10.00">+ Digit()</text>
<text text-anchor="start" x="87.5" y="-239" font-family="Helvetica,sans-Serif" font-size="10.00">+ ~Digit()</text>
<text text-anchor="start" x="87.5" y="-228" font-family="Helvetica,sans-Serif" font-size="10.00">+ operator+()</text>
<text text-anchor="start" x="87.5" y="-217" font-family="Helvetica,sans-Serif" font-size="10.00">+ operator+=()</text>
<text text-anchor="start" x="87.5" y="-206" font-family="Helvetica,sans-Serif" font-size="10.00">+ getChipIndex()</text>
<text text-anchor="start" x="87.5" y="-195" font-family="Helvetica,sans-Serif" font-size="10.00">+ getColumn()</text>
<text text-anchor="start" x="87.5" y="-184" font-family="Helvetica,sans-Serif" font-size="10.00">+ getRow()</text>
<text text-anchor="start" x="87.5" y="-173" font-family="Helvetica,sans-Serif" font-size="10.00">+ getCharge()</text>
<text text-anchor="start" x="87.5" y="-162" font-family="Helvetica,sans-Serif" font-size="10.00">+ getLabel()</text>
<text text-anchor="start" x="87.5" y="-151" font-family="Helvetica,sans-Serif" font-size="10.00">+ setLabel()</text>
<text text-anchor="start" x="87.5" y="-140" font-family="Helvetica,sans-Serif" font-size="10.00">+ setLabel()</text>
<text text-anchor="start" x="87.5" y="-129" font-family="Helvetica,sans-Serif" font-size="10.00">+ setChipIndex()</text>
<text text-anchor="start" x="87.5" y="-118" font-family="Helvetica,sans-Serif" font-size="10.00">+ setPixelIndex()</text>
<text text-anchor="start" x="87.5" y="-107" font-family="Helvetica,sans-Serif" font-size="10.00">+ setCharge()</text>
<text text-anchor="start" x="87.5" y="-96" font-family="Helvetica,sans-Serif" font-size="10.00">+ addCharge()</text>
<text text-anchor="start" x="87.5" y="-85" font-family="Helvetica,sans-Serif" font-size="10.00">+ getROFrame()</text>
<text text-anchor="start" x="87.5" y="-74" font-family="Helvetica,sans-Serif" font-size="10.00">+ getNOverflowFrames()</text>
<text text-anchor="start" x="87.5" y="-63" font-family="Helvetica,sans-Serif" font-size="10.00">+ setROFrame()</text>
<text text-anchor="start" x="87.5" y="-52" font-family="Helvetica,sans-Serif" font-size="10.00">+ setNOverflowFrames()</text>
<text text-anchor="start" x="87.5" y="-41" font-family="Helvetica,sans-Serif" font-size="10.00">+ operator&lt;()</text>
<text text-anchor="start" x="87.5" y="-30" font-family="Helvetica,sans-Serif" font-size="10.00">+ print()</text>
<text text-anchor="start" x="87.5" y="-19" font-family="Helvetica,sans-Serif" font-size="10.00">+ getOrderingKey()</text>
<text text-anchor="start" x="87.5" y="-8" font-family="Helvetica,sans-Serif" font-size="10.00">+ key2ROFrame()</text>
</g>
<!-- Node2 -->
<g id="node2" class="node"><title>Node2</title>
<g id="a_node2"><a xlink:href="../../d0/d94/classo2_1_1dataformats_1_1TimeStamp.html" target="_top" xlink:title="{DigitBase\n||+ TimeStamp()\l+ TimeStamp()\l+ getTimeStamp()\l+ setTimeStamp()\l}">
<polygon fill="none" stroke="black" points="34.5,-361 34.5,-451 129.5,-451 129.5,-361 34.5,-361"/>
<text text-anchor="middle" x="82" y="-439" font-family="Helvetica,sans-Serif" font-size="10.00">DigitBase</text>
<polyline fill="none" stroke="black" points="34.5,-432 129.5,-432 "/>
<text text-anchor="middle" x="82" y="-420" font-family="Helvetica,sans-Serif" font-size="10.00"> </text>
<polyline fill="none" stroke="black" points="34.5,-413 129.5,-413 "/>
<text text-anchor="start" x="42.5" y="-401" font-family="Helvetica,sans-Serif" font-size="10.00">+ TimeStamp()</text>
<text text-anchor="start" x="42.5" y="-390" font-family="Helvetica,sans-Serif" font-size="10.00">+ TimeStamp()</text>
<text text-anchor="start" x="42.5" y="-379" font-family="Helvetica,sans-Serif" font-size="10.00">+ getTimeStamp()</text>
<text text-anchor="start" x="42.5" y="-368" font-family="Helvetica,sans-Serif" font-size="10.00">+ setTimeStamp()</text>
</a>
</g>
</g>
<!-- Node2&#45;&gt;Node1 -->
<g id="edge1" class="edge"><title>Node2&#45;&gt;Node1</title>
<path fill="none" stroke="midnightblue" d="M95.0636,-351.004C98.0244,-338.766 101.313,-325.174 104.735,-311.028"/>
<polygon fill="none" stroke="midnightblue" points="91.6074,-350.406 92.6577,-360.948 98.4111,-352.052 91.6074,-350.406"/>
</g>
<!-- Node3 -->
<g id="node3" class="node"><title>Node3</title>
<g id="a_node3"><a xlink:href="../../d0/d94/classo2_1_1dataformats_1_1TimeStamp.html" target="_top" xlink:title="{o2::dataformats::TimeStamp\&lt; T \&gt;\n||+ TimeStamp()\l+ TimeStamp()\l+ getTimeStamp()\l+ setTimeStamp()\l}">
<polygon fill="none" stroke="black" points="-0.5,-501 -0.5,-591 164.5,-591 164.5,-501 -0.5,-501"/>
<text text-anchor="middle" x="82" y="-579" font-family="Helvetica,sans-Serif" font-size="10.00">o2::dataformats::TimeStamp&lt; T &gt;</text>
<polyline fill="none" stroke="black" points="-0.5,-572 164.5,-572 "/>
<text text-anchor="middle" x="82" y="-560" font-family="Helvetica,sans-Serif" font-size="10.00"> </text>
<polyline fill="none" stroke="black" points="-0.5,-553 164.5,-553 "/>
<text text-anchor="start" x="7.5" y="-541" font-family="Helvetica,sans-Serif" font-size="10.00">+ TimeStamp()</text>
<text text-anchor="start" x="7.5" y="-530" font-family="Helvetica,sans-Serif" font-size="10.00">+ TimeStamp()</text>
<text text-anchor="start" x="7.5" y="-519" font-family="Helvetica,sans-Serif" font-size="10.00">+ getTimeStamp()</text>
<text text-anchor="start" x="7.5" y="-508" font-family="Helvetica,sans-Serif" font-size="10.00">+ setTimeStamp()</text>
</a>
</g>
</g>
<!-- Node3&#45;&gt;Node2 -->
<g id="edge2" class="edge"><title>Node3&#45;&gt;Node2</title>
<path fill="none" stroke="orange" d="M82,-490.638C82,-477.526 82,-463.675 82,-451.098"/>
<polygon fill="orange" stroke="orange" points="78.5001,-490.956 82,-500.957 85.5001,-490.957 78.5001,-490.956"/>
<text text-anchor="middle" x="107" y="-473.5" font-family="Helvetica,sans-Serif" font-size="10.00"> &lt; double &gt;</text>
</g>
<!-- Node4 -->
<g id="node4" class="node"><title>Node4</title>
<polygon fill="none" stroke="#bfbfbf" points="147.5,-377.5 147.5,-434.5 176.5,-434.5 176.5,-377.5 147.5,-377.5"/>
<text text-anchor="middle" x="162" y="-422.5" font-family="Helvetica,sans-Serif" font-size="10.00">int</text>
<polyline fill="none" stroke="#bfbfbf" points="147.5,-415.5 176.5,-415.5 "/>
<text text-anchor="middle" x="162" y="-403.5" font-family="Helvetica,sans-Serif" font-size="10.00"> </text>
<polyline fill="none" stroke="#bfbfbf" points="147.5,-396.5 176.5,-396.5 "/>
<text text-anchor="middle" x="162" y="-384.5" font-family="Helvetica,sans-Serif" font-size="10.00"> </text>
</g>
<!-- Node4&#45;&gt;Node1 -->
<g id="edge3" class="edge"><title>Node4&#45;&gt;Node1</title>
<path fill="none" stroke="#404040" d="M159.745,-377.033C158.582,-362.618 157.06,-343.74 155.395,-323.097"/>
<polygon fill="none" stroke="#404040" points="155.393,-323.074 150.924,-317.415 154.428,-311.113 158.898,-316.772 155.393,-323.074"/>
<text text-anchor="middle" x="184.5" y="-333.5" font-family="Helvetica,sans-Serif" font-size="10.00"> +maxLabels</text>
</g>
</g>
</svg>
