<?xml version="1.0" encoding="UTF-8" standalone="no"?>
<!DOCTYPE svg PUBLIC "-//W3C//DTD SVG 1.1//EN"
 "http://www.w3.org/Graphics/SVG/1.1/DTD/svg11.dtd">
<!-- Generated by graphviz version 2.36.0 (20140111.2315)
 -->
<!-- Title: o2::tof::Digit Pages: 1 -->
<svg width="172pt" height="468pt"
 viewBox="0.00 0.00 172.00 468.00" xmlns="http://www.w3.org/2000/svg" xmlns:xlink="http://www.w3.org/1999/xlink">
<g id="graph0" class="graph" transform="scale(1 1) rotate(0) translate(4 464)">
<title>o2::tof::Digit</title>
<!-- Node1 -->
<g id="node1" class="node"><title>Node1</title>
<polygon fill="#bfbfbf" stroke="black" points="41,-1 41,-179 123,-179 123,-1 41,-1"/>
<text text-anchor="middle" x="82" y="-167" font-family="Helvetica,sans-Serif" font-size="10.00">o2::tof::Digit</text>
<polyline fill="none" stroke="black" points="41,-160 123,-160 "/>
<text text-anchor="middle" x="82" y="-148" font-family="Helvetica,sans-Serif" font-size="10.00"> </text>
<polyline fill="none" stroke="black" points="41,-141 123,-141 "/>
<text text-anchor="start" x="49" y="-129" font-family="Helvetica,sans-Serif" font-size="10.00">+ Digit()</text>
<text text-anchor="start" x="49" y="-118" font-family="Helvetica,sans-Serif" font-size="10.00">+ Digit()</text>
<text text-anchor="start" x="49" y="-107" font-family="Helvetica,sans-Serif" font-size="10.00">+ ~Digit()</text>
<text text-anchor="start" x="49" y="-96" font-family="Helvetica,sans-Serif" font-size="10.00">+ getChannel()</text>
<text text-anchor="start" x="49" y="-85" font-family="Helvetica,sans-Serif" font-size="10.00">+ setChannel()</text>
<text text-anchor="start" x="49" y="-74" font-family="Helvetica,sans-Serif" font-size="10.00">+ getTDC()</text>
<text text-anchor="start" x="49" y="-63" font-family="Helvetica,sans-Serif" font-size="10.00">+ setTDC()</text>
<text text-anchor="start" x="49" y="-52" font-family="Helvetica,sans-Serif" font-size="10.00">+ getTOT()</text>
<text text-anchor="start" x="49" y="-41" font-family="Helvetica,sans-Serif" font-size="10.00">+ setTOT()</text>
<text text-anchor="start" x="49" y="-30" font-family="Helvetica,sans-Serif" font-size="10.00">+ getBC()</text>
<text text-anchor="start" x="49" y="-19" font-family="Helvetica,sans-Serif" font-size="10.00">+ setBC()</text>
<text text-anchor="start" x="49" y="-8" font-family="Helvetica,sans-Serif" font-size="10.00">+ printStream()</text>
</g>
<!-- Node2 -->
<g id="node2" class="node"><title>Node2</title>
<g id="a_node2"><a xlink:href="../../d0/d94/classo2_1_1dataformats_1_1TimeStamp.html" target="_top" xlink:title="{o2::dataformats::TimeStamp\l\&lt; double \&gt;\n||+ TimeStamp()\l+ TimeStamp()\l+ getTimeStamp()\l+ setTimeStamp()\l}">
<polygon fill="none" stroke="black" points="11.5,-218.5 11.5,-319.5 152.5,-319.5 152.5,-218.5 11.5,-218.5"/>
<text text-anchor="start" x="19.5" y="-307.5" font-family="Helvetica,sans-Serif" font-size="10.00">o2::dataformats::TimeStamp</text>
<text text-anchor="middle" x="82" y="-296.5" font-family="Helvetica,sans-Serif" font-size="10.00">&lt; double &gt;</text>
<polyline fill="none" stroke="black" points="11.5,-289.5 152.5,-289.5 "/>
<text text-anchor="middle" x="82" y="-277.5" font-family="Helvetica,sans-Serif" font-size="10.00"> </text>
<polyline fill="none" stroke="black" points="11.5,-270.5 152.5,-270.5 "/>
<text text-anchor="start" x="19.5" y="-258.5" font-family="Helvetica,sans-Serif" font-size="10.00">+ TimeStamp()</text>
<text text-anchor="start" x="19.5" y="-247.5" font-family="Helvetica,sans-Serif" font-size="10.00">+ TimeStamp()</text>
<text text-anchor="start" x="19.5" y="-236.5" font-family="Helvetica,sans-Serif" font-size="10.00">+ getTimeStamp()</text>
<text text-anchor="start" x="19.5" y="-225.5" font-family="Helvetica,sans-Serif" font-size="10.00">+ setTimeStamp()</text>
</a>
</g>
</g>
<!-- Node2&#45;&gt;Node1 -->
<g id="edge1" class="edge"><title>Node2&#45;&gt;Node1</title>
<path fill="none" stroke="midnightblue" d="M82,-207.995C82,-198.738 82,-189.014 82,-179.294"/>
<polygon fill="none" stroke="midnightblue" points="78.5001,-208.225 82,-218.225 85.5001,-208.225 78.5001,-208.225"/>
</g>
<!-- Node3 -->
<g id="node3" class="node"><title>Node3</title>
<g id="a_node3"><a xlink:href="../../d0/d94/classo2_1_1dataformats_1_1TimeStamp.html" target="_top" xlink:title="{o2::dataformats::TimeStamp\&lt; T \&gt;\n||+ TimeStamp()\l+ TimeStamp()\l+ getTimeStamp()\l+ setTimeStamp()\l}">
<polygon fill="none" stroke="black" points="-0.5,-369 -0.5,-459 164.5,-459 164.5,-369 -0.5,-369"/>
<text text-anchor="middle" x="82" y="-447" font-family="Helvetica,sans-Serif" font-size="10.00">o2::dataformats::TimeStamp&lt; T &gt;</text>
<polyline fill="none" stroke="black" points="-0.5,-440 164.5,-440 "/>
<text text-anchor="middle" x="82" y="-428" font-family="Helvetica,sans-Serif" font-size="10.00"> </text>
<polyline fill="none" stroke="black" points="-0.5,-421 164.5,-421 "/>
<text text-anchor="start" x="7.5" y="-409" font-family="Helvetica,sans-Serif" font-size="10.00">+ TimeStamp()</text>
<text text-anchor="start" x="7.5" y="-398" font-family="Helvetica,sans-Serif" font-size="10.00">+ TimeStamp()</text>
<text text-anchor="start" x="7.5" y="-387" font-family="Helvetica,sans-Serif" font-size="10.00">+ getTimeStamp()</text>
<text text-anchor="start" x="7.5" y="-376" font-family="Helvetica,sans-Serif" font-size="10.00">+ setTimeStamp()</text>
</a>
</g>
</g>
<!-- Node3&#45;&gt;Node2 -->
<g id="edge2" class="edge"><title>Node3&#45;&gt;Node2</title>
<path fill="none" stroke="orange" d="M82,-358.822C82,-345.965 82,-332.313 82,-319.668"/>
<polygon fill="orange" stroke="orange" points="78.5001,-358.928 82,-368.928 85.5001,-358.928 78.5001,-358.928"/>
<text text-anchor="middle" x="107" y="-341.5" font-family="Helvetica,sans-Serif" font-size="10.00"> &lt; double &gt;</text>
</g>
</g>
</svg>
