<?xml version="1.0" encoding="UTF-8" standalone="no"?>
<!DOCTYPE svg PUBLIC "-//W3C//DTD SVG 1.1//EN"
 "http://www.w3.org/Graphics/SVG/1.1/DTD/svg11.dtd">
<!-- Generated by graphviz version 2.36.0 (20140111.2315)
 -->
<!-- Title: /home/travis/build/AliceO2Group/AliceO2/Detectors/TPC/base/include/TPCBase/CalArray.h Pages: 1 -->
<svg width="1391pt" height="590pt"
 viewBox="0.00 0.00 1390.54 590.00" xmlns="http://www.w3.org/2000/svg" xmlns:xlink="http://www.w3.org/1999/xlink">
<g id="graph0" class="graph" transform="scale(1 1) rotate(0) translate(4 586)">
<title>/home/travis/build/AliceO2Group/AliceO2/Detectors/TPC/base/include/TPCBase/CalArray.h</title>
<!-- Node1 -->
<g id="node1" class="node"><title>Node1</title>
<polygon fill="#bfbfbf" stroke="black" points="785.5,-529 785.5,-581 928.5,-581 928.5,-529 785.5,-529"/>
<text text-anchor="start" x="793.5" y="-569" font-family="Helvetica,sans-Serif" font-size="10.00">/home/travis/build</text>
<text text-anchor="start" x="793.5" y="-558" font-family="Helvetica,sans-Serif" font-size="10.00">/AliceO2Group/AliceO2</text>
<text text-anchor="start" x="793.5" y="-547" font-family="Helvetica,sans-Serif" font-size="10.00">/Detectors/TPC/base/include</text>
<text text-anchor="middle" x="857" y="-536" font-family="Helvetica,sans-Serif" font-size="10.00">/TPCBase/CalArray.h</text>
</g>
<!-- Node2 -->
<g id="node2" class="node"><title>Node2</title>
<polygon fill="none" stroke="#bfbfbf" points="585,-472.5 585,-491.5 629,-491.5 629,-472.5 585,-472.5"/>
<text text-anchor="middle" x="607" y="-479.5" font-family="Helvetica,sans-Serif" font-size="10.00">Vc/Vc</text>
</g>
<!-- Node1&#45;&gt;Node2 -->
<g id="edge1" class="edge"><title>Node1&#45;&gt;Node2</title>
<path fill="none" stroke="midnightblue" d="M785.458,-533.876C745.079,-522.487 693.433,-507.87 638.868,-492.236"/>
<polygon fill="midnightblue" stroke="midnightblue" points="639.588,-488.802 629.01,-489.41 637.658,-495.53 639.588,-488.802"/>
</g>
<!-- Node3 -->
<g id="node3" class="node"><title>Node3</title>
<polygon fill="none" stroke="#bfbfbf" points="647,-472.5 647,-491.5 699,-491.5 699,-472.5 647,-472.5"/>
<text text-anchor="middle" x="673" y="-479.5" font-family="Helvetica,sans-Serif" font-size="10.00">memory</text>
</g>
<!-- Node1&#45;&gt;Node3 -->
<g id="edge2" class="edge"><title>Node1&#45;&gt;Node3</title>
<path fill="none" stroke="midnightblue" d="M792.128,-528.968C762.615,-517.58 729.01,-504.613 705.034,-495.361"/>
<polygon fill="midnightblue" stroke="midnightblue" points="705.978,-491.974 695.388,-491.639 703.458,-498.504 705.978,-491.974"/>
</g>
<!-- Node4 -->
<g id="node4" class="node"><title>Node4</title>
<polygon fill="none" stroke="#bfbfbf" points="1151,-360.5 1151,-379.5 1195,-379.5 1195,-360.5 1151,-360.5"/>
<text text-anchor="middle" x="1173" y="-367.5" font-family="Helvetica,sans-Serif" font-size="10.00">vector</text>
</g>
<!-- Node1&#45;&gt;Node4 -->
<g id="edge3" class="edge"><title>Node1&#45;&gt;Node4</title>
<path fill="none" stroke="midnightblue" d="M928.555,-548.508C1057.27,-536.972 1319.57,-505.342 1374,-436 1419.03,-378.63 1272.81,-371.168 1205.3,-370.695"/>
<polygon fill="midnightblue" stroke="midnightblue" points="1205.19,-367.195 1195.18,-370.672 1205.17,-374.195 1205.19,-367.195"/>
</g>
<!-- Node5 -->
<g id="node5" class="node"><title>Node5</title>
<polygon fill="none" stroke="#bfbfbf" points="351.5,-416.5 351.5,-435.5 392.5,-435.5 392.5,-416.5 351.5,-416.5"/>
<text text-anchor="middle" x="372" y="-423.5" font-family="Helvetica,sans-Serif" font-size="10.00">string</text>
</g>
<!-- Node1&#45;&gt;Node5 -->
<g id="edge4" class="edge"><title>Node1&#45;&gt;Node5</title>
<path fill="none" stroke="midnightblue" d="M812.227,-528.817C770.42,-505.387 713.622,-473.807 708,-472 579.735,-430.762 539.423,-460.831 407,-436 405.535,-435.725 404.041,-435.424 402.536,-435.104"/>
<polygon fill="midnightblue" stroke="midnightblue" points="403.161,-431.656 392.626,-432.788 401.567,-438.472 403.161,-431.656"/>
</g>
<!-- Node6 -->
<g id="node6" class="node"><title>Node6</title>
<polygon fill="none" stroke="#bfbfbf" points="877,-472.5 877,-491.5 939,-491.5 939,-472.5 877,-472.5"/>
<text text-anchor="middle" x="908" y="-479.5" font-family="Helvetica,sans-Serif" font-size="10.00">type_traits</text>
</g>
<!-- Node1&#45;&gt;Node6 -->
<g id="edge5" class="edge"><title>Node1&#45;&gt;Node6</title>
<path fill="none" stroke="midnightblue" d="M875.124,-528.768C881.937,-519.284 889.517,-508.731 895.681,-500.15"/>
<polygon fill="midnightblue" stroke="midnightblue" points="898.718,-501.921 901.71,-491.757 893.033,-497.837 898.718,-501.921"/>
</g>
<!-- Node7 -->
<g id="node7" class="node"><title>Node7</title>
<polygon fill="none" stroke="#bfbfbf" points="957,-472.5 957,-491.5 1047,-491.5 1047,-472.5 957,-472.5"/>
<text text-anchor="middle" x="1002" y="-479.5" font-family="Helvetica,sans-Serif" font-size="10.00">boost/format.hpp</text>
</g>
<!-- Node1&#45;&gt;Node7 -->
<g id="edge6" class="edge"><title>Node1&#45;&gt;Node7</title>
<path fill="none" stroke="midnightblue" d="M908.122,-528.968C930.757,-517.885 956.445,-505.306 975.221,-496.112"/>
<polygon fill="midnightblue" stroke="midnightblue" points="976.915,-499.18 984.357,-491.639 973.837,-492.893 976.915,-499.18"/>
</g>
<!-- Node8 -->
<g id="node8" class="node"><title>Node8</title>
<polygon fill="none" stroke="#bfbfbf" points="1065.5,-472.5 1065.5,-491.5 1136.5,-491.5 1136.5,-472.5 1065.5,-472.5"/>
<text text-anchor="middle" x="1101" y="-479.5" font-family="Helvetica,sans-Serif" font-size="10.00">FairLogger.h</text>
</g>
<!-- Node1&#45;&gt;Node8 -->
<g id="edge7" class="edge"><title>Node1&#45;&gt;Node8</title>
<path fill="none" stroke="midnightblue" d="M928.559,-533.177C972.133,-520.498 1026.13,-504.787 1061.97,-494.358"/>
<polygon fill="midnightblue" stroke="midnightblue" points="1062.95,-497.718 1071.57,-491.564 1060.99,-490.997 1062.95,-497.718"/>
</g>
<!-- Node9 -->
<g id="node9" class="node"><title>Node9</title>
<g id="a_node9"><a xlink:href="../../d7/d2c/Mapper_8h.html" target="_top" xlink:title="TPCBase/Mapper.h">
<polygon fill="none" stroke="black" points="755.5,-472.5 755.5,-491.5 858.5,-491.5 858.5,-472.5 755.5,-472.5"/>
<text text-anchor="middle" x="807" y="-479.5" font-family="Helvetica,sans-Serif" font-size="10.00">TPCBase/Mapper.h</text>
</a>
</g>
</g>
<!-- Node1&#45;&gt;Node9 -->
<g id="edge8" class="edge"><title>Node1&#45;&gt;Node9</title>
<path fill="none" stroke="midnightblue" d="M839.231,-528.768C832.552,-519.284 825.12,-508.731 819.077,-500.15"/>
<polygon fill="midnightblue" stroke="midnightblue" points="821.786,-497.918 813.167,-491.757 816.063,-501.948 821.786,-497.918"/>
</g>
<!-- Node9&#45;&gt;Node4 -->
<g id="edge10" class="edge"><title>Node9&#45;&gt;Node4</title>
<path fill="none" stroke="midnightblue" d="M858.578,-473.34C861.765,-472.882 864.926,-472.432 868,-472 927.723,-463.598 1087.19,-470.005 1137,-436 1152.95,-425.114 1162.55,-404.738 1167.78,-389.691"/>
<polygon fill="midnightblue" stroke="midnightblue" points="1171.2,-390.476 1170.84,-379.887 1164.52,-388.389 1171.2,-390.476"/>
</g>
<!-- Node9&#45;&gt;Node5 -->
<g id="edge12" class="edge"><title>Node9&#45;&gt;Node5</title>
<path fill="none" stroke="midnightblue" d="M755.495,-473.834C750.598,-473.196 745.706,-472.574 741,-472 592.796,-453.912 553.905,-462.661 407,-436 405.534,-435.734 404.039,-435.44 402.532,-435.125"/>
<polygon fill="midnightblue" stroke="midnightblue" points="403.151,-431.676 392.619,-432.828 401.571,-438.495 403.151,-431.676"/>
</g>
<!-- Node10 -->
<g id="node10" class="node"><title>Node10</title>
<polygon fill="none" stroke="#bfbfbf" points="1330.5,-416.5 1330.5,-435.5 1365.5,-435.5 1365.5,-416.5 1330.5,-416.5"/>
<text text-anchor="middle" x="1348" y="-423.5" font-family="Helvetica,sans-Serif" font-size="10.00">map</text>
</g>
<!-- Node9&#45;&gt;Node10 -->
<g id="edge9" class="edge"><title>Node9&#45;&gt;Node10</title>
<path fill="none" stroke="midnightblue" d="M858.553,-473.145C861.747,-472.736 864.915,-472.35 868,-472 1065.45,-449.614 1121.29,-475.373 1320.54,-435.541"/>
<polygon fill="midnightblue" stroke="midnightblue" points="1321.34,-438.95 1330.45,-433.531 1319.95,-432.09 1321.34,-438.95"/>
</g>
<!-- Node11 -->
<g id="node11" class="node"><title>Node11</title>
<polygon fill="none" stroke="#bfbfbf" points="449,-416.5 449,-435.5 487,-435.5 487,-416.5 449,-416.5"/>
<text text-anchor="middle" x="468" y="-423.5" font-family="Helvetica,sans-Serif" font-size="10.00">array</text>
</g>
<!-- Node9&#45;&gt;Node11 -->
<g id="edge11" class="edge"><title>Node9&#45;&gt;Node11</title>
<path fill="none" stroke="midnightblue" d="M755.38,-473.755C674.69,-462.377 525.342,-441.09 501,-436 499.725,-435.733 498.426,-435.446 497.117,-435.144"/>
<polygon fill="midnightblue" stroke="midnightblue" points="497.652,-431.67 487.1,-432.628 495.946,-438.459 497.652,-431.67"/>
</g>
<!-- Node12 -->
<g id="node12" class="node"><title>Node12</title>
<polygon fill="none" stroke="#bfbfbf" points="516,-136.5 516,-155.5 560,-155.5 560,-136.5 516,-136.5"/>
<text text-anchor="middle" x="538" y="-143.5" font-family="Helvetica,sans-Serif" font-size="10.00">cmath</text>
</g>
<!-- Node9&#45;&gt;Node12 -->
<g id="edge13" class="edge"><title>Node9&#45;&gt;Node12</title>
<path fill="none" stroke="midnightblue" d="M755.488,-473.892C750.593,-473.242 745.703,-472.602 741,-472 674.179,-463.449 491.406,-479.538 440,-436 417.033,-416.548 421,-401.098 421,-371 421,-371 421,-371 421,-257 421,-209.599 472.604,-176.642 507.269,-159.85"/>
<polygon fill="midnightblue" stroke="midnightblue" points="508.945,-162.931 516.54,-155.544 505.997,-156.582 508.945,-162.931"/>
</g>
<!-- Node13 -->
<g id="node13" class="node"><title>Node13</title>
<g id="a_node13"><a xlink:href="../../d1/d73/Defs_8h.html" target="_top" xlink:title="Common definitions for 2D coordinates. ">
<polygon fill="none" stroke="black" points="748,-192.5 748,-211.5 840,-211.5 840,-192.5 748,-192.5"/>
<text text-anchor="middle" x="794" y="-199.5" font-family="Helvetica,sans-Serif" font-size="10.00">TPCBase/Defs.h</text>
</a>
</g>
</g>
<!-- Node9&#45;&gt;Node13 -->
<g id="edge14" class="edge"><title>Node9&#45;&gt;Node13</title>
<path fill="none" stroke="midnightblue" d="M825.806,-472.445C879.152,-448.173 1027.63,-380.582 1028,-380 1032.8,-372.522 1031.81,-368.032 1028,-360 990.039,-279.934 888.658,-234.573 832.601,-214.888"/>
<polygon fill="midnightblue" stroke="midnightblue" points="833.612,-211.534 823.017,-211.617 831.351,-218.159 833.612,-211.534"/>
</g>
<!-- Node26 -->
<g id="node26" class="node"><title>Node26</title>
<g id="a_node26"><a xlink:href="../../de/d41/PadPos_8h.html" target="_top" xlink:title="TPCBase/PadPos.h">
<polygon fill="none" stroke="black" points="582.5,-304.5 582.5,-323.5 687.5,-323.5 687.5,-304.5 582.5,-304.5"/>
<text text-anchor="middle" x="635" y="-311.5" font-family="Helvetica,sans-Serif" font-size="10.00">TPCBase/PadPos.h</text>
</a>
</g>
</g>
<!-- Node9&#45;&gt;Node26 -->
<g id="edge29" class="edge"><title>Node9&#45;&gt;Node26</title>
<path fill="none" stroke="midnightblue" d="M760.55,-472.491C736.397,-466.011 707.857,-454.863 688,-436 658.308,-407.794 644.251,-360.062 638.464,-333.769"/>
<polygon fill="midnightblue" stroke="midnightblue" points="641.827,-332.745 636.414,-323.638 634.966,-334.134 641.827,-332.745"/>
</g>
<!-- Node27 -->
<g id="node27" class="node"><title>Node27</title>
<g id="a_node27"><a xlink:href="../../dd/d0b/PadSecPos_8h.html" target="_top" xlink:title="TPCBase/PadSecPos.h">
<polygon fill="none" stroke="black" points="487,-360.5 487,-379.5 609,-379.5 609,-360.5 487,-360.5"/>
<text text-anchor="middle" x="548" y="-367.5" font-family="Helvetica,sans-Serif" font-size="10.00">TPCBase/PadSecPos.h</text>
</a>
</g>
</g>
<!-- Node9&#45;&gt;Node27 -->
<g id="edge30" class="edge"><title>Node9&#45;&gt;Node27</title>
<path fill="none" stroke="midnightblue" d="M761.647,-472.455C715.314,-463.275 646.884,-448.342 623,-436 598.977,-423.586 576.222,-401.964 562.208,-387.09"/>
<polygon fill="midnightblue" stroke="midnightblue" points="564.705,-384.633 555.37,-379.622 559.542,-389.361 564.705,-384.633"/>
</g>
<!-- Node28 -->
<g id="node28" class="node"><title>Node28</title>
<g id="a_node28"><a xlink:href="../../d3/dd6/Sector_8h.html" target="_top" xlink:title="TPCBase/Sector.h">
<polygon fill="none" stroke="black" points="623.5,-248.5 623.5,-267.5 722.5,-267.5 722.5,-248.5 623.5,-248.5"/>
<text text-anchor="middle" x="673" y="-255.5" font-family="Helvetica,sans-Serif" font-size="10.00">TPCBase/Sector.h</text>
</a>
</g>
</g>
<!-- Node9&#45;&gt;Node28 -->
<g id="edge56" class="edge"><title>Node9&#45;&gt;Node28</title>
<path fill="none" stroke="midnightblue" d="M755.264,-473.41C670.249,-459.68 507.449,-427.649 478,-380 441.266,-320.562 546.376,-285.775 616.227,-269.759"/>
<polygon fill="midnightblue" stroke="midnightblue" points="617.253,-273.117 626.256,-267.532 615.735,-266.283 617.253,-273.117"/>
</g>
<!-- Node30 -->
<g id="node30" class="node"><title>Node30</title>
<g id="a_node30"><a xlink:href="../../da/d61/PadROCPos_8h.html" target="_top" xlink:title="TPCBase/PadROCPos.h">
<polygon fill="none" stroke="black" points="891,-360.5 891,-379.5 1019,-379.5 1019,-360.5 891,-360.5"/>
<text text-anchor="middle" x="955" y="-367.5" font-family="Helvetica,sans-Serif" font-size="10.00">TPCBase/PadROCPos.h</text>
</a>
</g>
</g>
<!-- Node9&#45;&gt;Node30 -->
<g id="edge35" class="edge"><title>Node9&#45;&gt;Node30</title>
<path fill="none" stroke="midnightblue" d="M818.613,-472.368C843.794,-453.653 903.67,-409.151 935.044,-385.832"/>
<polygon fill="midnightblue" stroke="midnightblue" points="937.503,-388.366 943.441,-379.591 933.327,-382.748 937.503,-388.366"/>
</g>
<!-- Node32 -->
<g id="node32" class="node"><title>Node32</title>
<g id="a_node32"><a xlink:href="../../d3/d54/DigitPos_8h.html" target="_top" xlink:title="TPCBase/DigitPos.h">
<polygon fill="none" stroke="black" points="697,-416.5 697,-435.5 805,-435.5 805,-416.5 697,-416.5"/>
<text text-anchor="middle" x="751" y="-423.5" font-family="Helvetica,sans-Serif" font-size="10.00">TPCBase/DigitPos.h</text>
</a>
</g>
</g>
<!-- Node9&#45;&gt;Node32 -->
<g id="edge41" class="edge"><title>Node9&#45;&gt;Node32</title>
<path fill="none" stroke="midnightblue" d="M798.003,-472.324C789.806,-464.42 777.494,-452.548 767.528,-442.938"/>
<polygon fill="midnightblue" stroke="midnightblue" points="769.789,-440.256 760.161,-435.834 764.93,-445.295 769.789,-440.256"/>
</g>
<!-- Node34 -->
<g id="node34" class="node"><title>Node34</title>
<g id="a_node34"><a xlink:href="../../d1/d1f/FECInfo_8h.html" target="_top" xlink:title="TPCBase/FECInfo.h">
<polygon fill="none" stroke="black" points="1193.5,-248.5 1193.5,-267.5 1300.5,-267.5 1300.5,-248.5 1193.5,-248.5"/>
<text text-anchor="middle" x="1247" y="-255.5" font-family="Helvetica,sans-Serif" font-size="10.00">TPCBase/FECInfo.h</text>
</a>
</g>
</g>
<!-- Node9&#45;&gt;Node34 -->
<g id="edge49" class="edge"><title>Node9&#45;&gt;Node34</title>
<path fill="none" stroke="midnightblue" d="M858.634,-473.3C943.13,-460.679 1101.76,-436.891 1103,-436 1133.82,-413.824 1119.34,-390.464 1142,-360 1167.56,-325.626 1205.26,-292.528 1227.85,-274.063"/>
<polygon fill="midnightblue" stroke="midnightblue" points="1230.11,-276.729 1235.71,-267.73 1225.72,-271.279 1230.11,-276.729"/>
</g>
<!-- Node35 -->
<g id="node35" class="node"><title>Node35</title>
<g id="a_node35"><a xlink:href="../../da/d9d/PadRegionInfo_8h.html" target="_top" xlink:title="TPCBase/PadRegionInfo.h">
<polygon fill="none" stroke="black" points="959.5,-416.5 959.5,-435.5 1094.5,-435.5 1094.5,-416.5 959.5,-416.5"/>
<text text-anchor="middle" x="1027" y="-423.5" font-family="Helvetica,sans-Serif" font-size="10.00">TPCBase/PadRegionInfo.h</text>
</a>
</g>
</g>
<!-- Node9&#45;&gt;Node35 -->
<g id="edge51" class="edge"><title>Node9&#45;&gt;Node35</title>
<path fill="none" stroke="midnightblue" d="M841.86,-472.444C879.916,-463.102 940.958,-448.119 982.46,-437.933"/>
<polygon fill="midnightblue" stroke="midnightblue" points="983.426,-441.299 992.303,-435.516 981.757,-434.501 983.426,-441.299"/>
</g>
<!-- Node36 -->
<g id="node36" class="node"><title>Node36</title>
<g id="a_node36"><a xlink:href="../../d6/d42/PartitionInfo_8h.html" target="_top" xlink:title="TPCBase/PartitionInfo.h">
<polygon fill="none" stroke="black" points="1189.5,-416.5 1189.5,-435.5 1312.5,-435.5 1312.5,-416.5 1189.5,-416.5"/>
<text text-anchor="middle" x="1251" y="-423.5" font-family="Helvetica,sans-Serif" font-size="10.00">TPCBase/PartitionInfo.h</text>
</a>
</g>
</g>
<!-- Node9&#45;&gt;Node36 -->
<g id="edge55" class="edge"><title>Node9&#45;&gt;Node36</title>
<path fill="none" stroke="midnightblue" d="M858.57,-473.281C861.759,-472.838 864.922,-472.407 868,-472 1004.19,-453.972 1038.56,-452.078 1175,-436 1176.3,-435.847 1177.61,-435.692 1178.93,-435.537"/>
<polygon fill="midnightblue" stroke="midnightblue" points="1179.68,-438.973 1189.2,-434.325 1178.86,-432.021 1179.68,-438.973"/>
</g>
<!-- Node13&#45;&gt;Node12 -->
<g id="edge15" class="edge"><title>Node13&#45;&gt;Node12</title>
<path fill="none" stroke="midnightblue" d="M753.436,-192.444C702.58,-181.716 616.449,-163.548 569.99,-153.748"/>
<polygon fill="midnightblue" stroke="midnightblue" points="570.67,-150.314 560.163,-151.675 569.225,-157.164 570.67,-150.314"/>
</g>
<!-- Node14 -->
<g id="node14" class="node"><title>Node14</title>
<g id="a_node14"><a xlink:href="../../d2/dd0/Cartesian2D_8h.html" target="_top" xlink:title="MathUtils/Cartesian2D.h">
<polygon fill="none" stroke="black" points="103.5,-74.5 103.5,-93.5 228.5,-93.5 228.5,-74.5 103.5,-74.5"/>
<text text-anchor="middle" x="166" y="-81.5" font-family="Helvetica,sans-Serif" font-size="10.00">MathUtils/Cartesian2D.h</text>
</a>
</g>
</g>
<!-- Node13&#45;&gt;Node14 -->
<g id="edge16" class="edge"><title>Node13&#45;&gt;Node14</title>
<path fill="none" stroke="midnightblue" d="M769.592,-192.478C728.512,-178.476 642.711,-150.693 568,-136 422.803,-107.444 383.129,-123.323 237,-100 229.215,-98.7574 220.993,-97.226 213.013,-95.6212"/>
<polygon fill="midnightblue" stroke="midnightblue" points="213.589,-92.1662 203.087,-93.5655 212.169,-99.0207 213.589,-92.1662"/>
</g>
<!-- Node17 -->
<g id="node17" class="node"><title>Node17</title>
<g id="a_node17"><a xlink:href="../../dd/d76/Cartesian3D_8h.html" target="_top" xlink:title="MathUtils/Cartesian3D.h">
<polygon fill="none" stroke="black" points="731.5,-136.5 731.5,-155.5 856.5,-155.5 856.5,-136.5 731.5,-136.5"/>
<text text-anchor="middle" x="794" y="-143.5" font-family="Helvetica,sans-Serif" font-size="10.00">MathUtils/Cartesian3D.h</text>
</a>
</g>
</g>
<!-- Node13&#45;&gt;Node17 -->
<g id="edge19" class="edge"><title>Node13&#45;&gt;Node17</title>
<path fill="none" stroke="midnightblue" d="M794,-192.083C794,-185.006 794,-174.861 794,-165.986"/>
<polygon fill="midnightblue" stroke="midnightblue" points="797.5,-165.751 794,-155.751 790.5,-165.751 797.5,-165.751"/>
</g>
<!-- Node15 -->
<g id="node15" class="node"><title>Node15</title>
<polygon fill="none" stroke="#bfbfbf" points="-0.5,-1 -0.5,-31 150.5,-31 150.5,-1 -0.5,-1"/>
<text text-anchor="start" x="7.5" y="-19" font-family="Helvetica,sans-Serif" font-size="10.00">Math/GenVector/Displacement</text>
<text text-anchor="middle" x="75" y="-8" font-family="Helvetica,sans-Serif" font-size="10.00">Vector2D.h</text>
</g>
<!-- Node14&#45;&gt;Node15 -->
<g id="edge17" class="edge"><title>Node14&#45;&gt;Node15</title>
<path fill="none" stroke="midnightblue" d="M154.103,-74.3717C141.221,-65.0286 120.22,-49.7966 103.093,-37.375"/>
<polygon fill="midnightblue" stroke="midnightblue" points="104.703,-34.2194 94.5532,-31.1815 100.593,-39.8859 104.703,-34.2194"/>
</g>
<!-- Node16 -->
<g id="node16" class="node"><title>Node16</title>
<polygon fill="none" stroke="#bfbfbf" points="169,-6.5 169,-25.5 345,-25.5 345,-6.5 169,-6.5"/>
<text text-anchor="middle" x="257" y="-13.5" font-family="Helvetica,sans-Serif" font-size="10.00">Math/GenVector/PositionVector2D.h</text>
</g>
<!-- Node14&#45;&gt;Node16 -->
<g id="edge18" class="edge"><title>Node14&#45;&gt;Node16</title>
<path fill="none" stroke="midnightblue" d="M177.897,-74.3717C192.884,-63.5015 218.862,-44.6602 236.942,-31.5474"/>
<polygon fill="midnightblue" stroke="midnightblue" points="239.06,-34.3349 245.1,-25.6305 234.95,-28.6684 239.06,-34.3349"/>
</g>
<!-- Node17&#45;&gt;Node14 -->
<g id="edge28" class="edge"><title>Node17&#45;&gt;Node14</title>
<path fill="none" stroke="midnightblue" d="M731.325,-140.39C596.014,-130.373 284.853,-106.959 237,-100 228.846,-98.8142 220.223,-97.2551 211.905,-95.591"/>
<polygon fill="midnightblue" stroke="midnightblue" points="212.462,-92.1323 201.96,-93.527 211.04,-98.9862 212.462,-92.1323"/>
</g>
<!-- Node18 -->
<g id="node18" class="node"><title>Node18</title>
<polygon fill="none" stroke="#bfbfbf" points="934.5,-69 934.5,-99 1085.5,-99 1085.5,-69 934.5,-69"/>
<text text-anchor="start" x="942.5" y="-87" font-family="Helvetica,sans-Serif" font-size="10.00">Math/GenVector/Displacement</text>
<text text-anchor="middle" x="1010" y="-76" font-family="Helvetica,sans-Serif" font-size="10.00">Vector3D.h</text>
</g>
<!-- Node17&#45;&gt;Node18 -->
<g id="edge20" class="edge"><title>Node17&#45;&gt;Node18</title>
<path fill="none" stroke="midnightblue" d="M824.948,-136.403C857.385,-127.393 909.173,-113.007 949.724,-101.743"/>
<polygon fill="midnightblue" stroke="midnightblue" points="950.81,-105.074 959.509,-99.0253 948.937,-98.3295 950.81,-105.074"/>
</g>
<!-- Node19 -->
<g id="node19" class="node"><title>Node19</title>
<polygon fill="none" stroke="#bfbfbf" points="1104,-74.5 1104,-93.5 1280,-93.5 1280,-74.5 1104,-74.5"/>
<text text-anchor="middle" x="1192" y="-81.5" font-family="Helvetica,sans-Serif" font-size="10.00">Math/GenVector/PositionVector3D.h</text>
</g>
<!-- Node17&#45;&gt;Node19 -->
<g id="edge21" class="edge"><title>Node17&#45;&gt;Node19</title>
<path fill="none" stroke="midnightblue" d="M851.24,-136.466C911.614,-127.453 1009.51,-112.802 1094,-100 1104.55,-98.4008 1115.75,-96.6961 1126.65,-95.031"/>
<polygon fill="midnightblue" stroke="midnightblue" points="1127.19,-98.4882 1136.55,-93.517 1126.13,-91.5686 1127.19,-98.4882"/>
</g>
<!-- Node20 -->
<g id="node20" class="node"><title>Node20</title>
<polygon fill="none" stroke="#bfbfbf" points="246.5,-74.5 246.5,-93.5 395.5,-93.5 395.5,-74.5 246.5,-74.5"/>
<text text-anchor="middle" x="321" y="-81.5" font-family="Helvetica,sans-Serif" font-size="10.00">Math/GenVector/Rotation3D.h</text>
</g>
<!-- Node17&#45;&gt;Node20 -->
<g id="edge22" class="edge"><title>Node17&#45;&gt;Node20</title>
<path fill="none" stroke="midnightblue" d="M731.187,-138.935C654.156,-131.221 519.682,-116.856 405,-100 395.536,-98.609 385.503,-96.9654 375.788,-95.2851"/>
<polygon fill="midnightblue" stroke="midnightblue" points="376.274,-91.8168 365.818,-93.5299 375.06,-98.7108 376.274,-91.8168"/>
</g>
<!-- Node21 -->
<g id="node21" class="node"><title>Node21</title>
<polygon fill="none" stroke="#bfbfbf" points="414,-74.5 414,-93.5 570,-93.5 570,-74.5 414,-74.5"/>
<text text-anchor="middle" x="492" y="-81.5" font-family="Helvetica,sans-Serif" font-size="10.00">Math/GenVector/Transform3D.h</text>
</g>
<!-- Node17&#45;&gt;Node21 -->
<g id="edge23" class="edge"><title>Node17&#45;&gt;Node21</title>
<path fill="none" stroke="midnightblue" d="M751.051,-136.467C696.823,-125.693 603.55,-107.162 544.962,-95.5223"/>
<polygon fill="midnightblue" stroke="midnightblue" points="545.291,-92.0192 534.8,-93.5034 543.927,-98.885 545.291,-92.0192"/>
</g>
<!-- Node22 -->
<g id="node22" class="node"><title>Node22</title>
<polygon fill="none" stroke="#bfbfbf" points="588,-74.5 588,-93.5 748,-93.5 748,-74.5 588,-74.5"/>
<text text-anchor="middle" x="668" y="-81.5" font-family="Helvetica,sans-Serif" font-size="10.00">Math/GenVector/Translation3D.h</text>
</g>
<!-- Node17&#45;&gt;Node22 -->
<g id="edge24" class="edge"><title>Node17&#45;&gt;Node22</title>
<path fill="none" stroke="midnightblue" d="M775.947,-136.403C754.802,-126.334 719.56,-109.552 695.122,-97.9151"/>
<polygon fill="midnightblue" stroke="midnightblue" points="696.553,-94.72 686.019,-93.5806 693.543,-101.04 696.553,-94.72"/>
</g>
<!-- Node23 -->
<g id="node23" class="node"><title>Node23</title>
<polygon fill="none" stroke="#bfbfbf" points="766,-74.5 766,-93.5 822,-93.5 822,-74.5 766,-74.5"/>
<text text-anchor="middle" x="794" y="-81.5" font-family="Helvetica,sans-Serif" font-size="10.00">Rtypes.h</text>
</g>
<!-- Node17&#45;&gt;Node23 -->
<g id="edge25" class="edge"><title>Node17&#45;&gt;Node23</title>
<path fill="none" stroke="midnightblue" d="M794,-136.403C794,-127.938 794,-114.728 794,-103.82"/>
<polygon fill="midnightblue" stroke="midnightblue" points="797.5,-103.581 794,-93.5806 790.5,-103.581 797.5,-103.581"/>
</g>
<!-- Node24 -->
<g id="node24" class="node"><title>Node24</title>
<polygon fill="none" stroke="#bfbfbf" points="840,-74.5 840,-93.5 916,-93.5 916,-74.5 840,-74.5"/>
<text text-anchor="middle" x="878" y="-81.5" font-family="Helvetica,sans-Serif" font-size="10.00">TGeoMatrix.h</text>
</g>
<!-- Node17&#45;&gt;Node24 -->
<g id="edge26" class="edge"><title>Node17&#45;&gt;Node24</title>
<path fill="none" stroke="midnightblue" d="M806.035,-136.403C819.508,-126.78 841.566,-111.024 857.715,-99.4891"/>
<polygon fill="midnightblue" stroke="midnightblue" points="859.884,-102.241 865.987,-93.5806 855.815,-96.5449 859.884,-102.241"/>
</g>
<!-- Node25 -->
<g id="node25" class="node"><title>Node25</title>
<polygon fill="none" stroke="#bfbfbf" points="1298,-74.5 1298,-93.5 1352,-93.5 1352,-74.5 1298,-74.5"/>
<text text-anchor="middle" x="1325" y="-81.5" font-family="Helvetica,sans-Serif" font-size="10.00">iostream</text>
</g>
<!-- Node17&#45;&gt;Node25 -->
<g id="edge27" class="edge"><title>Node17&#45;&gt;Node25</title>
<path fill="none" stroke="midnightblue" d="M856.567,-145.148C951.276,-144.068 1136.1,-136.851 1288,-100 1291.07,-99.256 1294.21,-98.3021 1297.31,-97.2366"/>
<polygon fill="midnightblue" stroke="midnightblue" points="1298.82,-100.41 1306.91,-93.5726 1296.32,-93.8703 1298.82,-100.41"/>
</g>
<!-- Node27&#45;&gt;Node26 -->
<g id="edge34" class="edge"><title>Node27&#45;&gt;Node26</title>
<path fill="none" stroke="midnightblue" d="M561.978,-360.324C575.55,-351.9 596.38,-338.971 612.325,-329.074"/>
<polygon fill="midnightblue" stroke="midnightblue" points="614.406,-331.902 621.057,-323.655 610.714,-325.954 614.406,-331.902"/>
</g>
<!-- Node27&#45;&gt;Node28 -->
<g id="edge31" class="edge"><title>Node27&#45;&gt;Node28</title>
<path fill="none" stroke="midnightblue" d="M549.193,-360.303C551.486,-346.671 557.713,-320.163 573,-304 587.705,-288.453 608.776,-277.883 627.788,-270.917"/>
<polygon fill="midnightblue" stroke="midnightblue" points="629.169,-274.143 637.497,-267.595 626.903,-267.52 629.169,-274.143"/>
</g>
<!-- Node28&#45;&gt;Node13 -->
<g id="edge33" class="edge"><title>Node28&#45;&gt;Node13</title>
<path fill="none" stroke="midnightblue" d="M692.173,-248.444C711.909,-239.636 742.885,-225.812 765.493,-215.722"/>
<polygon fill="midnightblue" stroke="midnightblue" points="767.211,-218.788 774.917,-211.516 764.359,-212.396 767.211,-218.788"/>
</g>
<!-- Node29 -->
<g id="node29" class="node"><title>Node29</title>
<g id="a_node29"><a xlink:href="../../d6/d51/TPC_2base_2include_2TPCBase_2Constants_8h.html" target="_top" xlink:title="TPCBase/Constants.h">
<polygon fill="none" stroke="black" points="614,-192.5 614,-211.5 730,-211.5 730,-192.5 614,-192.5"/>
<text text-anchor="middle" x="672" y="-199.5" font-family="Helvetica,sans-Serif" font-size="10.00">TPCBase/Constants.h</text>
</a>
</g>
</g>
<!-- Node28&#45;&gt;Node29 -->
<g id="edge32" class="edge"><title>Node28&#45;&gt;Node29</title>
<path fill="none" stroke="midnightblue" d="M672.835,-248.083C672.704,-241.006 672.516,-230.861 672.352,-221.986"/>
<polygon fill="midnightblue" stroke="midnightblue" points="675.847,-221.685 672.162,-211.751 668.848,-221.814 675.847,-221.685"/>
</g>
<!-- Node30&#45;&gt;Node13 -->
<g id="edge36" class="edge"><title>Node30&#45;&gt;Node13</title>
<path fill="none" stroke="midnightblue" d="M952.142,-360.301C947.516,-347.127 937.43,-321.771 923,-304 892.555,-266.505 845.743,-234.314 817.671,-216.888"/>
<polygon fill="midnightblue" stroke="midnightblue" points="819.281,-213.77 808.92,-211.558 815.639,-219.749 819.281,-213.77"/>
</g>
<!-- Node30&#45;&gt;Node26 -->
<g id="edge40" class="edge"><title>Node30&#45;&gt;Node26</title>
<path fill="none" stroke="midnightblue" d="M904.295,-360.444C847.653,-350.885 756.004,-335.419 695.621,-325.23"/>
<polygon fill="midnightblue" stroke="midnightblue" points="695.911,-321.729 685.468,-323.516 694.746,-328.632 695.911,-321.729"/>
</g>
<!-- Node31 -->
<g id="node31" class="node"><title>Node31</title>
<g id="a_node31"><a xlink:href="../../dc/d14/ROC_8h.html" target="_top" xlink:title="TPCBase/ROC.h">
<polygon fill="none" stroke="black" points="821.5,-304.5 821.5,-323.5 914.5,-323.5 914.5,-304.5 821.5,-304.5"/>
<text text-anchor="middle" x="868" y="-311.5" font-family="Helvetica,sans-Serif" font-size="10.00">TPCBase/ROC.h</text>
</a>
</g>
</g>
<!-- Node30&#45;&gt;Node31 -->
<g id="edge37" class="edge"><title>Node30&#45;&gt;Node31</title>
<path fill="none" stroke="midnightblue" d="M941.022,-360.324C927.45,-351.9 906.62,-338.971 890.675,-329.074"/>
<polygon fill="midnightblue" stroke="midnightblue" points="892.286,-325.954 881.943,-323.655 888.594,-331.902 892.286,-325.954"/>
</g>
<!-- Node31&#45;&gt;Node13 -->
<g id="edge38" class="edge"><title>Node31&#45;&gt;Node13</title>
<path fill="none" stroke="midnightblue" d="M862.193,-304.368C849.981,-286.215 821.448,-243.802 805.43,-219.99"/>
<polygon fill="midnightblue" stroke="midnightblue" points="808.266,-217.935 799.78,-211.591 802.457,-221.842 808.266,-217.935"/>
</g>
<!-- Node31&#45;&gt;Node28 -->
<g id="edge39" class="edge"><title>Node31&#45;&gt;Node28</title>
<path fill="none" stroke="midnightblue" d="M837.102,-304.444C803.726,-295.201 750.406,-280.436 713.651,-270.257"/>
<polygon fill="midnightblue" stroke="midnightblue" points="714.325,-266.812 703.754,-267.516 712.457,-273.558 714.325,-266.812"/>
</g>
<!-- Node32&#45;&gt;Node13 -->
<g id="edge42" class="edge"><title>Node32&#45;&gt;Node13</title>
<path fill="none" stroke="midnightblue" d="M752.686,-416.297C759.013,-383.633 781.436,-267.866 790.328,-221.957"/>
<polygon fill="midnightblue" stroke="midnightblue" points="793.814,-222.367 792.279,-211.884 786.941,-221.036 793.814,-222.367"/>
</g>
<!-- Node32&#45;&gt;Node26 -->
<g id="edge47" class="edge"><title>Node32&#45;&gt;Node26</title>
<path fill="none" stroke="midnightblue" d="M740.425,-416.274C729.763,-407.378 712.934,-393.066 699,-380 681.78,-363.853 662.915,-344.472 650.158,-331.098"/>
<polygon fill="midnightblue" stroke="midnightblue" points="652.496,-328.476 643.075,-323.629 647.417,-333.293 652.496,-328.476"/>
</g>
<!-- Node32&#45;&gt;Node27 -->
<g id="edge48" class="edge"><title>Node32&#45;&gt;Node27</title>
<path fill="none" stroke="midnightblue" d="M718.834,-416.444C683.941,-407.162 628.107,-392.309 589.829,-382.127"/>
<polygon fill="midnightblue" stroke="midnightblue" points="590.579,-378.705 580.015,-379.516 588.78,-385.47 590.579,-378.705"/>
</g>
<!-- Node33 -->
<g id="node33" class="node"><title>Node33</title>
<g id="a_node33"><a xlink:href="../../df/d26/CRU_8h.html" target="_top" xlink:title="TPCBase/CRU.h">
<polygon fill="none" stroke="black" points="779.5,-360.5 779.5,-379.5 872.5,-379.5 872.5,-360.5 779.5,-360.5"/>
<text text-anchor="middle" x="826" y="-367.5" font-family="Helvetica,sans-Serif" font-size="10.00">TPCBase/CRU.h</text>
</a>
</g>
</g>
<!-- Node32&#45;&gt;Node33 -->
<g id="edge43" class="edge"><title>Node32&#45;&gt;Node33</title>
<path fill="none" stroke="midnightblue" d="M763.05,-416.324C774.463,-408.107 791.831,-395.602 805.435,-385.807"/>
<polygon fill="midnightblue" stroke="midnightblue" points="807.66,-388.517 813.731,-379.834 803.57,-382.837 807.66,-388.517"/>
</g>
<!-- Node33&#45;&gt;Node13 -->
<g id="edge44" class="edge"><title>Node33&#45;&gt;Node13</title>
<path fill="none" stroke="midnightblue" d="M822.918,-360.481C819.775,-351.51 814.953,-336.922 812,-324 803.828,-288.236 798.489,-245.646 795.88,-221.725"/>
<polygon fill="midnightblue" stroke="midnightblue" points="799.342,-221.174 794.819,-211.593 792.38,-221.903 799.342,-221.174"/>
</g>
<!-- Node33&#45;&gt;Node28 -->
<g id="edge45" class="edge"><title>Node33&#45;&gt;Node28</title>
<path fill="none" stroke="midnightblue" d="M813.994,-360.368C787.851,-341.573 725.532,-296.768 693.215,-273.533"/>
<polygon fill="midnightblue" stroke="midnightblue" points="695.112,-270.587 684.95,-267.591 691.026,-276.271 695.112,-270.587"/>
</g>
<!-- Node33&#45;&gt;Node31 -->
<g id="edge46" class="edge"><title>Node33&#45;&gt;Node31</title>
<path fill="none" stroke="midnightblue" d="M832.935,-360.083C838.929,-352.377 847.752,-341.033 855.048,-331.653"/>
<polygon fill="midnightblue" stroke="midnightblue" points="857.817,-333.793 861.194,-323.751 852.291,-329.496 857.817,-333.793"/>
</g>
<!-- Node34&#45;&gt;Node25 -->
<g id="edge50" class="edge"><title>Node34&#45;&gt;Node25</title>
<path fill="none" stroke="midnightblue" d="M1250.98,-248.234C1263.18,-221.317 1300.3,-139.476 1316.86,-102.942"/>
<polygon fill="midnightblue" stroke="midnightblue" points="1320.18,-104.097 1321.13,-93.5442 1313.81,-101.206 1320.18,-104.097"/>
</g>
<!-- Node35&#45;&gt;Node4 -->
<g id="edge52" class="edge"><title>Node35&#45;&gt;Node4</title>
<path fill="none" stroke="midnightblue" d="M1050.13,-416.444C1074.77,-407.332 1113.92,-392.853 1141.39,-382.693"/>
<polygon fill="midnightblue" stroke="midnightblue" points="1142.76,-385.915 1150.93,-379.163 1140.34,-379.349 1142.76,-385.915"/>
</g>
<!-- Node35&#45;&gt;Node13 -->
<g id="edge53" class="edge"><title>Node35&#45;&gt;Node13</title>
<path fill="none" stroke="midnightblue" d="M1036.29,-416.395C1044.58,-408.025 1056.14,-394.483 1061,-380 1079.65,-324.377 1098.88,-292.798 1061,-248 1034.57,-216.738 920.496,-207.185 850.283,-204.272"/>
<polygon fill="midnightblue" stroke="midnightblue" points="850.384,-200.773 840.258,-203.888 850.117,-207.768 850.384,-200.773"/>
</g>
<!-- Node35&#45;&gt;Node26 -->
<g id="edge54" class="edge"><title>Node35&#45;&gt;Node26</title>
<path fill="none" stroke="midnightblue" d="M959.488,-418.326C906.93,-411.909 832.637,-400.136 770,-380 728.976,-366.812 684.516,-343.474 658.245,-328.645"/>
<polygon fill="midnightblue" stroke="midnightblue" points="659.847,-325.529 649.429,-323.601 656.371,-331.605 659.847,-325.529"/>
</g>
</g>
</svg>
