<?xml version="1.0" encoding="UTF-8" standalone="no"?>
<!DOCTYPE svg PUBLIC "-//W3C//DTD SVG 1.1//EN"
 "http://www.w3.org/Graphics/SVG/1.1/DTD/svg11.dtd">
<!-- Generated by graphviz version 2.36.0 (20140111.2315)
 -->
<!-- Title: o2::TPC::ClusterHardwareContainer Pages: 1 -->
<svg width="450pt" height="356pt"
 viewBox="0.00 0.00 450.00 356.00" xmlns="http://www.w3.org/2000/svg" xmlns:xlink="http://www.w3.org/1999/xlink">
<g id="graph0" class="graph" transform="scale(1 1) rotate(0) translate(4 352)">
<title>o2::TPC::ClusterHardwareContainer</title>
<!-- Node1 -->
<g id="node1" class="node"><title>Node1</title>
<polygon fill="#bfbfbf" stroke="black" points="78.5,-1 78.5,-69 211.5,-69 211.5,-1 78.5,-1"/>
<text text-anchor="start" x="86.5" y="-57" font-family="Helvetica,sans-Serif" font-size="10.00">o2::TPC::ClusterHardware</text>
<text text-anchor="middle" x="145" y="-46" font-family="Helvetica,sans-Serif" font-size="10.00">Container</text>
<polyline fill="none" stroke="black" points="78.5,-39 211.5,-39 "/>
<text text-anchor="middle" x="145" y="-27" font-family="Helvetica,sans-Serif" font-size="10.00"> </text>
<polyline fill="none" stroke="black" points="78.5,-20 211.5,-20 "/>
<text text-anchor="middle" x="145" y="-8" font-family="Helvetica,sans-Serif" font-size="10.00"> </text>
</g>
<!-- Node2 -->
<g id="node2" class="node"><title>Node2</title>
<polygon fill="none" stroke="#bfbfbf" points="-0.5,-135.5 -0.5,-192.5 50.5,-192.5 50.5,-135.5 -0.5,-135.5"/>
<text text-anchor="middle" x="25" y="-180.5" font-family="Helvetica,sans-Serif" font-size="10.00">uint32_t</text>
<polyline fill="none" stroke="#bfbfbf" points="-0.5,-173.5 50.5,-173.5 "/>
<text text-anchor="middle" x="25" y="-161.5" font-family="Helvetica,sans-Serif" font-size="10.00"> </text>
<polyline fill="none" stroke="#bfbfbf" points="-0.5,-154.5 50.5,-154.5 "/>
<text text-anchor="middle" x="25" y="-142.5" font-family="Helvetica,sans-Serif" font-size="10.00"> </text>
</g>
<!-- Node2&#45;&gt;Node1 -->
<g id="edge1" class="edge"><title>Node2&#45;&gt;Node1</title>
<path fill="none" stroke="#404040" d="M29.1345,-135.252C32.5859,-119.941 38.8259,-101.378 50,-88 55.2638,-81.6979 61.4964,-76.0326 68.214,-70.9704"/>
<polygon fill="none" stroke="#404040" points="68.4687,-70.7947 71.1366,-64.0952 78.3468,-63.9811 75.6789,-70.6806 68.4687,-70.7947"/>
<text text-anchor="middle" x="85" y="-91.5" font-family="Helvetica,sans-Serif" font-size="10.00"> +timeBinOffset</text>
</g>
<!-- Node3 -->
<g id="node3" class="node"><title>Node3</title>
<polygon fill="none" stroke="#bfbfbf" points="85.5,-135.5 85.5,-192.5 136.5,-192.5 136.5,-135.5 85.5,-135.5"/>
<text text-anchor="middle" x="111" y="-180.5" font-family="Helvetica,sans-Serif" font-size="10.00">uint64_t</text>
<polyline fill="none" stroke="#bfbfbf" points="85.5,-173.5 136.5,-173.5 "/>
<text text-anchor="middle" x="111" y="-161.5" font-family="Helvetica,sans-Serif" font-size="10.00"> </text>
<polyline fill="none" stroke="#bfbfbf" points="85.5,-154.5 136.5,-154.5 "/>
<text text-anchor="middle" x="111" y="-142.5" font-family="Helvetica,sans-Serif" font-size="10.00"> </text>
</g>
<!-- Node3&#45;&gt;Node1 -->
<g id="edge2" class="edge"><title>Node3&#45;&gt;Node1</title>
<path fill="none" stroke="#404040" d="M115.489,-135.332C118.066,-121.07 121.655,-103.468 126,-88 126.68,-85.5782 127.42,-83.1081 128.2,-80.6249"/>
<polygon fill="none" stroke="#404040" points="128.268,-80.4226 126.375,-73.4641 132.071,-69.0412 133.963,-75.9997 128.268,-80.4226"/>
<text text-anchor="middle" x="142.5" y="-91.5" font-family="Helvetica,sans-Serif" font-size="10.00"> +mDH</text>
</g>
<!-- Node4 -->
<g id="node4" class="node"><title>Node4</title>
<polygon fill="none" stroke="#bfbfbf" points="171.5,-290.5 171.5,-347.5 222.5,-347.5 222.5,-290.5 171.5,-290.5"/>
<text text-anchor="middle" x="197" y="-335.5" font-family="Helvetica,sans-Serif" font-size="10.00">uint16_t</text>
<polyline fill="none" stroke="#bfbfbf" points="171.5,-328.5 222.5,-328.5 "/>
<text text-anchor="middle" x="197" y="-316.5" font-family="Helvetica,sans-Serif" font-size="10.00"> </text>
<polyline fill="none" stroke="#bfbfbf" points="171.5,-309.5 222.5,-309.5 "/>
<text text-anchor="middle" x="197" y="-297.5" font-family="Helvetica,sans-Serif" font-size="10.00"> </text>
</g>
<!-- Node4&#45;&gt;Node1 -->
<g id="edge3" class="edge"><title>Node4&#45;&gt;Node1</title>
<path fill="none" stroke="#404040" d="M193.318,-290.217C187.362,-246.812 174.683,-160.384 159,-88 158.503,-85.7043 157.968,-83.3583 157.408,-80.994"/>
<polygon fill="none" stroke="#404040" points="157.363,-80.8112 152.029,-75.9586 154.456,-69.1684 159.79,-74.021 157.363,-80.8112"/>
<text text-anchor="middle" x="226.5" y="-167" font-family="Helvetica,sans-Serif" font-size="10.00"> +numberOfClusters</text>
<text text-anchor="middle" x="226.5" y="-156" font-family="Helvetica,sans-Serif" font-size="10.00">+CRU</text>
</g>
<!-- Node5 -->
<g id="node5" class="node"><title>Node5</title>
<g id="a_node5"><a xlink:href="../../db/d62/structo2_1_1TPC_1_1ClusterHardware.html" target="_top" xlink:title="{o2::TPC::ClusterHardware\n||+ getPad()\l+ getTimeLocal()\l+ getSigmaPad2()\l+ getSigmaTime2()\l}">
<polygon fill="none" stroke="black" points="280.5,-119 280.5,-209 413.5,-209 413.5,-119 280.5,-119"/>
<text text-anchor="middle" x="347" y="-197" font-family="Helvetica,sans-Serif" font-size="10.00">o2::TPC::ClusterHardware</text>
<polyline fill="none" stroke="black" points="280.5,-190 413.5,-190 "/>
<text text-anchor="middle" x="347" y="-178" font-family="Helvetica,sans-Serif" font-size="10.00"> </text>
<polyline fill="none" stroke="black" points="280.5,-171 413.5,-171 "/>
<text text-anchor="start" x="288.5" y="-159" font-family="Helvetica,sans-Serif" font-size="10.00">+ getPad()</text>
<text text-anchor="start" x="288.5" y="-148" font-family="Helvetica,sans-Serif" font-size="10.00">+ getTimeLocal()</text>
<text text-anchor="start" x="288.5" y="-137" font-family="Helvetica,sans-Serif" font-size="10.00">+ getSigmaPad2()</text>
<text text-anchor="start" x="288.5" y="-126" font-family="Helvetica,sans-Serif" font-size="10.00">+ getSigmaTime2()</text>
</a>
</g>
</g>
<!-- Node4&#45;&gt;Node5 -->
<g id="edge5" class="edge"><title>Node4&#45;&gt;Node5</title>
<path fill="none" stroke="#404040" d="M222.768,-291.106C240.02,-273.158 263.279,-249.075 284,-228 287.262,-224.682 290.627,-221.275 294.026,-217.844"/>
<polygon fill="none" stroke="#404040" points="294.049,-217.821 295.439,-210.745 302.505,-209.306 301.115,-216.382 294.049,-217.821"/>
<text text-anchor="middle" x="299.5" y="-253" font-family="Helvetica,sans-Serif" font-size="10.00"> +qTot</text>
<text text-anchor="middle" x="299.5" y="-242" font-family="Helvetica,sans-Serif" font-size="10.00">+qMax</text>
</g>
<!-- Node5&#45;&gt;Node1 -->
<g id="edge4" class="edge"><title>Node5&#45;&gt;Node1</title>
<path fill="none" stroke="#404040" d="M280.298,-121.063C256.978,-106.402 230.891,-90.0008 207.893,-75.5414"/>
<polygon fill="none" stroke="#404040" points="207.723,-75.435 200.515,-75.6278 197.564,-69.0479 204.773,-68.8551 207.723,-75.435"/>
<text text-anchor="middle" x="268" y="-91.5" font-family="Helvetica,sans-Serif" font-size="10.00"> +clusters</text>
</g>
<!-- Node6 -->
<g id="node6" class="node"><title>Node6</title>
<polygon fill="none" stroke="#bfbfbf" points="294,-290.5 294,-347.5 340,-347.5 340,-290.5 294,-290.5"/>
<text text-anchor="middle" x="317" y="-335.5" font-family="Helvetica,sans-Serif" font-size="10.00">uint8_t</text>
<polyline fill="none" stroke="#bfbfbf" points="294,-328.5 340,-328.5 "/>
<text text-anchor="middle" x="317" y="-316.5" font-family="Helvetica,sans-Serif" font-size="10.00"> </text>
<polyline fill="none" stroke="#bfbfbf" points="294,-309.5 340,-309.5 "/>
<text text-anchor="middle" x="317" y="-297.5" font-family="Helvetica,sans-Serif" font-size="10.00"> </text>
</g>
<!-- Node6&#45;&gt;Node5 -->
<g id="edge6" class="edge"><title>Node6&#45;&gt;Node5</title>
<path fill="none" stroke="#404040" d="M317.701,-290.162C318.586,-272.244 320.571,-248.548 325,-228 325.524,-225.567 326.116,-223.098 326.759,-220.618"/>
<polygon fill="none" stroke="#404040" points="326.782,-220.54 324.593,-213.669 330.093,-209.006 332.282,-215.877 326.782,-220.54"/>
<text text-anchor="middle" x="340.5" y="-253" font-family="Helvetica,sans-Serif" font-size="10.00"> +flags</text>
<text text-anchor="middle" x="340.5" y="-242" font-family="Helvetica,sans-Serif" font-size="10.00">+row</text>
</g>
<!-- Node7 -->
<g id="node7" class="node"><title>Node7</title>
<g id="a_node7"><a xlink:href="../../d4/dc3/classfloat.html" target="_top" xlink:title="{float\n||}">
<polygon fill="none" stroke="black" points="358.5,-290.5 358.5,-347.5 393.5,-347.5 393.5,-290.5 358.5,-290.5"/>
<text text-anchor="middle" x="376" y="-335.5" font-family="Helvetica,sans-Serif" font-size="10.00">float</text>
<polyline fill="none" stroke="black" points="358.5,-328.5 393.5,-328.5 "/>
<text text-anchor="middle" x="376" y="-316.5" font-family="Helvetica,sans-Serif" font-size="10.00"> </text>
<polyline fill="none" stroke="black" points="358.5,-309.5 393.5,-309.5 "/>
<text text-anchor="middle" x="376" y="-297.5" font-family="Helvetica,sans-Serif" font-size="10.00"> </text>
</a>
</g>
</g>
<!-- Node7&#45;&gt;Node5 -->
<g id="edge7" class="edge"><title>Node7&#45;&gt;Node5</title>
<path fill="none" stroke="#404040" d="M370.748,-290.293C367.093,-271.007 362.091,-244.619 357.621,-221.034"/>
<polygon fill="none" stroke="#404040" points="357.576,-220.798 352.529,-215.648 355.341,-209.008 360.389,-214.158 357.576,-220.798"/>
<text text-anchor="middle" x="404.5" y="-264" font-family="Helvetica,sans-Serif" font-size="10.00"> +sigmaPad2Pre</text>
<text text-anchor="middle" x="404.5" y="-253" font-family="Helvetica,sans-Serif" font-size="10.00">+timePre</text>
<text text-anchor="middle" x="404.5" y="-242" font-family="Helvetica,sans-Serif" font-size="10.00">+sigmaTime2Pre</text>
<text text-anchor="middle" x="404.5" y="-231" font-family="Helvetica,sans-Serif" font-size="10.00">+padPre</text>
</g>
</g>
</svg>
