<?xml version="1.0" encoding="UTF-8" standalone="no"?>
<!DOCTYPE svg PUBLIC "-//W3C//DTD SVG 1.1//EN"
 "http://www.w3.org/Graphics/SVG/1.1/DTD/svg11.dtd">
<!-- Generated by graphviz version 2.36.0 (20140111.2315)
 -->
<!-- Title: o2::DataFlow::SubframeBuilderDevice Pages: 1 -->
<svg width="586pt" height="422pt"
 viewBox="0.00 0.00 586.00 422.00" xmlns="http://www.w3.org/2000/svg" xmlns:xlink="http://www.w3.org/1999/xlink">
<g id="graph0" class="graph" transform="scale(1 1) rotate(0) translate(4 418)">
<title>o2::DataFlow::SubframeBuilderDevice</title>
<!-- Node1 -->
<g id="node1" class="node"><title>Node1</title>
<polygon fill="#bfbfbf" stroke="black" points="147.5,-1 147.5,-113 300.5,-113 300.5,-1 147.5,-1"/>
<text text-anchor="start" x="155.5" y="-101" font-family="Helvetica,sans-Serif" font-size="10.00">o2::DataFlow::SubframeBuilder</text>
<text text-anchor="middle" x="224" y="-90" font-family="Helvetica,sans-Serif" font-size="10.00">Device</text>
<polyline fill="none" stroke="black" points="147.5,-83 300.5,-83 "/>
<text text-anchor="middle" x="224" y="-71" font-family="Helvetica,sans-Serif" font-size="10.00"> </text>
<polyline fill="none" stroke="black" points="147.5,-64 300.5,-64 "/>
<text text-anchor="start" x="155.5" y="-52" font-family="Helvetica,sans-Serif" font-size="10.00">+ SubframeBuilderDevice()</text>
<text text-anchor="start" x="155.5" y="-41" font-family="Helvetica,sans-Serif" font-size="10.00">+ ~SubframeBuilderDevice()</text>
<text text-anchor="start" x="155.5" y="-30" font-family="Helvetica,sans-Serif" font-size="10.00"># InitTask()</text>
<text text-anchor="start" x="155.5" y="-19" font-family="Helvetica,sans-Serif" font-size="10.00"># HandleData()</text>
<text text-anchor="start" x="155.5" y="-8" font-family="Helvetica,sans-Serif" font-size="10.00"># BuildAndSendFrame()</text>
</g>
<!-- Node2 -->
<g id="node2" class="node"><title>Node2</title>
<g id="a_node2"><a xlink:href="../../da/df6/classo2_1_1Base_1_1O2Device.html" target="_top" xlink:title="{o2::Base::O2Device\n||+ ~O2Device()\l+ AddMessage()\l+ ForEach()\l}">
<polygon fill="none" stroke="black" points="-0.5,-238.5 -0.5,-317.5 104.5,-317.5 104.5,-238.5 -0.5,-238.5"/>
<text text-anchor="middle" x="52" y="-305.5" font-family="Helvetica,sans-Serif" font-size="10.00">o2::Base::O2Device</text>
<polyline fill="none" stroke="black" points="-0.5,-298.5 104.5,-298.5 "/>
<text text-anchor="middle" x="52" y="-286.5" font-family="Helvetica,sans-Serif" font-size="10.00"> </text>
<polyline fill="none" stroke="black" points="-0.5,-279.5 104.5,-279.5 "/>
<text text-anchor="start" x="7.5" y="-267.5" font-family="Helvetica,sans-Serif" font-size="10.00">+ ~O2Device()</text>
<text text-anchor="start" x="7.5" y="-256.5" font-family="Helvetica,sans-Serif" font-size="10.00">+ AddMessage()</text>
<text text-anchor="start" x="7.5" y="-245.5" font-family="Helvetica,sans-Serif" font-size="10.00">+ ForEach()</text>
</a>
</g>
</g>
<!-- Node2&#45;&gt;Node1 -->
<g id="edge1" class="edge"><title>Node2&#45;&gt;Node1</title>
<path fill="none" stroke="midnightblue" d="M73.5827,-228.904C88.2069,-199.236 109.326,-161.373 134,-132 139.465,-125.495 145.559,-119.132 151.928,-113.04"/>
<polygon fill="none" stroke="midnightblue" points="70.276,-227.702 69.0666,-238.228 76.5759,-230.754 70.276,-227.702"/>
</g>
<!-- Node3 -->
<g id="node3" class="node"><title>Node3</title>
<g id="a_node3"><a xlink:href="../../db/dfe/classFairMQDevice.html" target="_top" xlink:title="{FairMQDevice\n||}">
<polygon fill="none" stroke="black" points="12,-356.5 12,-413.5 92,-413.5 92,-356.5 12,-356.5"/>
<text text-anchor="middle" x="52" y="-401.5" font-family="Helvetica,sans-Serif" font-size="10.00">FairMQDevice</text>
<polyline fill="none" stroke="black" points="12,-394.5 92,-394.5 "/>
<text text-anchor="middle" x="52" y="-382.5" font-family="Helvetica,sans-Serif" font-size="10.00"> </text>
<polyline fill="none" stroke="black" points="12,-375.5 92,-375.5 "/>
<text text-anchor="middle" x="52" y="-363.5" font-family="Helvetica,sans-Serif" font-size="10.00"> </text>
</a>
</g>
</g>
<!-- Node3&#45;&gt;Node2 -->
<g id="edge2" class="edge"><title>Node3&#45;&gt;Node2</title>
<path fill="none" stroke="midnightblue" d="M52,-346.322C52,-337.073 52,-327.155 52,-317.851"/>
<polygon fill="none" stroke="midnightblue" points="48.5001,-346.412 52,-356.412 55.5001,-346.413 48.5001,-346.412"/>
</g>
<!-- Node4 -->
<g id="node4" class="node"><title>Node4</title>
<polygon fill="none" stroke="#bfbfbf" points="122.5,-249.5 122.5,-306.5 173.5,-306.5 173.5,-249.5 122.5,-249.5"/>
<text text-anchor="middle" x="148" y="-294.5" font-family="Helvetica,sans-Serif" font-size="10.00">uint32_t</text>
<polyline fill="none" stroke="#bfbfbf" points="122.5,-287.5 173.5,-287.5 "/>
<text text-anchor="middle" x="148" y="-275.5" font-family="Helvetica,sans-Serif" font-size="10.00"> </text>
<polyline fill="none" stroke="#bfbfbf" points="122.5,-268.5 173.5,-268.5 "/>
<text text-anchor="middle" x="148" y="-256.5" font-family="Helvetica,sans-Serif" font-size="10.00"> </text>
</g>
<!-- Node4&#45;&gt;Node1 -->
<g id="edge3" class="edge"><title>Node4&#45;&gt;Node1</title>
<path fill="none" stroke="#404040" d="M142.119,-249.291C137.073,-219.143 132.893,-170.151 149,-132 150.214,-129.125 151.599,-126.304 153.128,-123.543"/>
<polygon fill="none" stroke="#404040" points="153.254,-123.344 153.084,-116.134 159.673,-113.204 159.843,-120.414 153.254,-123.344"/>
<text text-anchor="middle" x="213.5" y="-179" font-family="Helvetica,sans-Serif" font-size="10.00"> +DefaultOrbitsPerTimeframe</text>
<text text-anchor="middle" x="213.5" y="-168" font-family="Helvetica,sans-Serif" font-size="10.00">+DefaultOrbitDuration</text>
</g>
<!-- Node5 -->
<g id="node5" class="node"><title>Node5</title>
<polygon fill="none" stroke="#bfbfbf" points="274.5,-249.5 274.5,-306.5 325.5,-306.5 325.5,-249.5 274.5,-249.5"/>
<text text-anchor="middle" x="300" y="-294.5" font-family="Helvetica,sans-Serif" font-size="10.00">uint64_t</text>
<polyline fill="none" stroke="#bfbfbf" points="274.5,-287.5 325.5,-287.5 "/>
<text text-anchor="middle" x="300" y="-275.5" font-family="Helvetica,sans-Serif" font-size="10.00"> </text>
<polyline fill="none" stroke="#bfbfbf" points="274.5,-268.5 325.5,-268.5 "/>
<text text-anchor="middle" x="300" y="-256.5" font-family="Helvetica,sans-Serif" font-size="10.00"> </text>
</g>
<!-- Node5&#45;&gt;Node1 -->
<g id="edge4" class="edge"><title>Node5&#45;&gt;Node1</title>
<path fill="none" stroke="#404040" d="M299.677,-249.24C298.453,-219.262 293.894,-170.614 278,-132 276.902,-129.332 275.688,-126.671 274.381,-124.028"/>
<polygon fill="none" stroke="#404040" points="274.278,-123.84 267.895,-120.487 268.535,-113.304 274.919,-116.658 274.278,-123.84"/>
<text text-anchor="middle" x="349.5" y="-173.5" font-family="Helvetica,sans-Serif" font-size="10.00"> +DefaultHeartbeatStart</text>
</g>
<!-- Node6 -->
<g id="node6" class="node"><title>Node6</title>
<polygon fill="none" stroke="#bfbfbf" points="410.5,-249.5 410.5,-306.5 445.5,-306.5 445.5,-249.5 410.5,-249.5"/>
<text text-anchor="middle" x="428" y="-294.5" font-family="Helvetica,sans-Serif" font-size="10.00">char</text>
<polyline fill="none" stroke="#bfbfbf" points="410.5,-287.5 445.5,-287.5 "/>
<text text-anchor="middle" x="428" y="-275.5" font-family="Helvetica,sans-Serif" font-size="10.00"> </text>
<polyline fill="none" stroke="#bfbfbf" points="410.5,-268.5 445.5,-268.5 "/>
<text text-anchor="middle" x="428" y="-256.5" font-family="Helvetica,sans-Serif" font-size="10.00"> </text>
</g>
<!-- Node6&#45;&gt;Node1 -->
<g id="edge5" class="edge"><title>Node6&#45;&gt;Node1</title>
<path fill="none" stroke="#404040" d="M431.376,-249.286C433.681,-217.541 432.482,-165.592 406,-132 382.949,-102.76 346.464,-85.0014 312.194,-74.2492"/>
<polygon fill="none" stroke="#404040" points="312.192,-74.2488 305.307,-76.3945 300.679,-70.8649 307.563,-68.7192 312.192,-74.2488"/>
<text text-anchor="middle" x="504.5" y="-212" font-family="Helvetica,sans-Serif" font-size="10.00"> +OptionKeyOutputChannelName</text>
<text text-anchor="middle" x="504.5" y="-201" font-family="Helvetica,sans-Serif" font-size="10.00">+OptionKeyOrbitsPerTimeframe</text>
<text text-anchor="middle" x="504.5" y="-190" font-family="Helvetica,sans-Serif" font-size="10.00">+OptionKeyInDataFile</text>
<text text-anchor="middle" x="504.5" y="-179" font-family="Helvetica,sans-Serif" font-size="10.00">+OptionKeyStripHBF</text>
<text text-anchor="middle" x="504.5" y="-168" font-family="Helvetica,sans-Serif" font-size="10.00">+OptionKeyOrbitDuration</text>
<text text-anchor="middle" x="504.5" y="-157" font-family="Helvetica,sans-Serif" font-size="10.00">+OptionKeyFLPId</text>
<text text-anchor="middle" x="504.5" y="-146" font-family="Helvetica,sans-Serif" font-size="10.00">+OptionKeyDetector</text>
<text text-anchor="middle" x="504.5" y="-135" font-family="Helvetica,sans-Serif" font-size="10.00">+OptionKeyInputChannelName</text>
</g>
</g>
</svg>
