<?xml version="1.0" encoding="UTF-8" standalone="no"?>
<!DOCTYPE svg PUBLIC "-//W3C//DTD SVG 1.1//EN"
 "http://www.w3.org/Graphics/SVG/1.1/DTD/svg11.dtd">
<!-- Generated by graphviz version 2.36.0 (20140111.2315)
 -->
<!-- Title: /home/travis/build/AliceO2Group/AliceO2/Detectors/TPC/reconstruction/src/Cluster.cxx Pages: 1 -->
<svg width="304pt" height="242pt"
 viewBox="0.00 0.00 304.41 242.00" xmlns="http://www.w3.org/2000/svg" xmlns:xlink="http://www.w3.org/1999/xlink">
<g id="graph0" class="graph" transform="scale(1 1) rotate(0) translate(4 238)">
<title>/home/travis/build/AliceO2Group/AliceO2/Detectors/TPC/reconstruction/src/Cluster.cxx</title>
<!-- Node1 -->
<g id="node1" class="node"><title>Node1</title>
<polygon fill="#bfbfbf" stroke="black" points="82.407,-181 82.407,-233 232.407,-233 232.407,-181 82.407,-181"/>
<text text-anchor="start" x="90.407" y="-221" font-family="Helvetica,sans-Serif" font-size="10.00">/home/travis/build</text>
<text text-anchor="start" x="90.407" y="-210" font-family="Helvetica,sans-Serif" font-size="10.00">/AliceO2Group/AliceO2</text>
<text text-anchor="start" x="90.407" y="-199" font-family="Helvetica,sans-Serif" font-size="10.00">/Detectors/TPC/reconstruction</text>
<text text-anchor="middle" x="157.407" y="-188" font-family="Helvetica,sans-Serif" font-size="10.00">/src/Cluster.cxx</text>
</g>
<!-- Node2 -->
<g id="node2" class="node"><title>Node2</title>
<g id="a_node2"><a xlink:href="../../d6/d6f/TPC_2reconstruction_2include_2TPCReconstruction_2Cluster_8h.html" target="_top" xlink:title="TPCReconstruction/Cluster.h">
<polygon fill="none" stroke="black" points="25.407,-124.5 25.407,-143.5 171.407,-143.5 171.407,-124.5 25.407,-124.5"/>
<text text-anchor="middle" x="98.407" y="-131.5" font-family="Helvetica,sans-Serif" font-size="10.00">TPCReconstruction/Cluster.h</text>
</a>
</g>
</g>
<!-- Node1&#45;&gt;Node2 -->
<g id="edge1" class="edge"><title>Node1&#45;&gt;Node2</title>
<path fill="none" stroke="midnightblue" d="M136.44,-180.768C128.391,-171.083 119.415,-160.281 112.206,-151.605"/>
<polygon fill="midnightblue" stroke="midnightblue" points="114.767,-149.211 105.684,-143.757 109.383,-153.685 114.767,-149.211"/>
</g>
<!-- Node6 -->
<g id="node6" class="node"><title>Node6</title>
<polygon fill="none" stroke="#bfbfbf" points="189.407,-124.5 189.407,-143.5 243.407,-143.5 243.407,-124.5 189.407,-124.5"/>
<text text-anchor="middle" x="216.407" y="-131.5" font-family="Helvetica,sans-Serif" font-size="10.00">iostream</text>
</g>
<!-- Node1&#45;&gt;Node6 -->
<g id="edge6" class="edge"><title>Node1&#45;&gt;Node6</title>
<path fill="none" stroke="midnightblue" d="M178.374,-180.768C186.423,-171.083 195.399,-160.281 202.608,-151.605"/>
<polygon fill="midnightblue" stroke="midnightblue" points="205.431,-153.685 209.13,-143.757 200.047,-149.211 205.431,-153.685"/>
</g>
<!-- Node3 -->
<g id="node3" class="node"><title>Node3</title>
<polygon fill="none" stroke="#bfbfbf" points="13.407,-0.5 13.407,-19.5 69.407,-19.5 69.407,-0.5 13.407,-0.5"/>
<text text-anchor="middle" x="41.407" y="-7.5" font-family="Helvetica,sans-Serif" font-size="10.00">Rtypes.h</text>
</g>
<!-- Node2&#45;&gt;Node3 -->
<g id="edge2" class="edge"><title>Node2&#45;&gt;Node3</title>
<path fill="none" stroke="midnightblue" d="M58.2595,-124.429C38.4322,-117.953 16.2689,-106.83 4.40699,-88 -8.11423,-68.1238 9.02248,-43.3668 23.9108,-27.3775"/>
<polygon fill="midnightblue" stroke="midnightblue" points="26.7765,-29.4575 31.3225,-19.8875 21.8008,-24.5338 26.7765,-29.4575"/>
</g>
<!-- Node4 -->
<g id="node4" class="node"><title>Node4</title>
<g id="a_node4"><a xlink:href="../../df/d5d/common_2include_2CommonDataFormat_2TimeStamp_8h.html" target="_top" xlink:title="CommonDataFormat/TimeStamp.h">
<polygon fill="none" stroke="black" points="13.407,-62.5 13.407,-81.5 183.407,-81.5 183.407,-62.5 13.407,-62.5"/>
<text text-anchor="middle" x="98.407" y="-69.5" font-family="Helvetica,sans-Serif" font-size="10.00">CommonDataFormat/TimeStamp.h</text>
</a>
</g>
</g>
<!-- Node2&#45;&gt;Node4 -->
<g id="edge3" class="edge"><title>Node2&#45;&gt;Node4</title>
<path fill="none" stroke="midnightblue" d="M98.407,-124.403C98.407,-115.938 98.407,-102.728 98.407,-91.8199"/>
<polygon fill="midnightblue" stroke="midnightblue" points="101.907,-91.5806 98.407,-81.5806 94.9071,-91.5806 101.907,-91.5806"/>
</g>
<!-- Node5 -->
<g id="node5" class="node"><title>Node5</title>
<polygon fill="none" stroke="#bfbfbf" points="201.907,-57 201.907,-87 296.907,-87 296.907,-57 201.907,-57"/>
<text text-anchor="start" x="209.907" y="-75" font-family="Helvetica,sans-Serif" font-size="10.00">boost/serialization</text>
<text text-anchor="middle" x="249.407" y="-64" font-family="Helvetica,sans-Serif" font-size="10.00">/base_object.hpp</text>
</g>
<!-- Node2&#45;&gt;Node5 -->
<g id="edge5" class="edge"><title>Node2&#45;&gt;Node5</title>
<path fill="none" stroke="midnightblue" d="M120.042,-124.403C141.999,-115.679 176.639,-101.914 204.55,-90.824"/>
<polygon fill="midnightblue" stroke="midnightblue" points="206.109,-93.9707 214.11,-87.0253 203.524,-87.4654 206.109,-93.9707"/>
</g>
<!-- Node4&#45;&gt;Node3 -->
<g id="edge4" class="edge"><title>Node4&#45;&gt;Node3</title>
<path fill="none" stroke="midnightblue" d="M90.2403,-62.4035C81.5209,-53.2252 67.5034,-38.4699 56.7184,-27.1173"/>
<polygon fill="midnightblue" stroke="midnightblue" points="58.9836,-24.42 49.5585,-19.5806 53.9086,-29.2412 58.9836,-24.42"/>
</g>
</g>
</svg>
