<?xml version="1.0" encoding="UTF-8" standalone="no"?>
<!DOCTYPE svg PUBLIC "-//W3C//DTD SVG 1.1//EN"
 "http://www.w3.org/Graphics/SVG/1.1/DTD/svg11.dtd">
<!-- Generated by graphviz version 2.36.0 (20140111.2315)
 -->
<!-- Title: Polymorphic Pages: 1 -->
<svg width="78pt" height="160pt"
 viewBox="0.00 0.00 78.00 160.00" xmlns="http://www.w3.org/2000/svg" xmlns:xlink="http://www.w3.org/1999/xlink">
<g id="graph0" class="graph" transform="scale(1 1) rotate(0) translate(4 156)">
<title>Polymorphic</title>
<!-- Node1 -->
<g id="node1" class="node"><title>Node1</title>
<polygon fill="#bfbfbf" stroke="black" points="-0.5,-0.5 -0.5,-57.5 70.5,-57.5 70.5,-0.5 -0.5,-0.5"/>
<text text-anchor="middle" x="35" y="-45.5" font-family="Helvetica,sans-Serif" font-size="10.00">Polymorphic</text>
<polyline fill="none" stroke="black" points="-0.5,-38.5 70.5,-38.5 "/>
<text text-anchor="middle" x="35" y="-26.5" font-family="Helvetica,sans-Serif" font-size="10.00"> </text>
<polyline fill="none" stroke="black" points="-0.5,-19.5 70.5,-19.5 "/>
<text text-anchor="middle" x="35" y="-7.5" font-family="Helvetica,sans-Serif" font-size="10.00"> </text>
</g>
<!-- Node2 -->
<g id="node2" class="node"><title>Node2</title>
<g id="a_node2"><a xlink:href="../../d9/de5/classBase.html" target="_top" xlink:title="{Base\n||+ f()\l}">
<polygon fill="none" stroke="black" points="15.5,-94.5 15.5,-151.5 54.5,-151.5 54.5,-94.5 15.5,-94.5"/>
<text text-anchor="middle" x="35" y="-139.5" font-family="Helvetica,sans-Serif" font-size="10.00">Base</text>
<polyline fill="none" stroke="black" points="15.5,-132.5 54.5,-132.5 "/>
<text text-anchor="middle" x="35" y="-120.5" font-family="Helvetica,sans-Serif" font-size="10.00"> </text>
<polyline fill="none" stroke="black" points="15.5,-113.5 54.5,-113.5 "/>
<text text-anchor="start" x="23.5" y="-101.5" font-family="Helvetica,sans-Serif" font-size="10.00">+ f()</text>
</a>
</g>
</g>
<!-- Node2&#45;&gt;Node1 -->
<g id="edge1" class="edge"><title>Node2&#45;&gt;Node1</title>
<path fill="none" stroke="#8b1a1a" d="M35,-84.2092C35,-75.2929 35,-65.9513 35,-57.5836"/>
<polygon fill="none" stroke="#8b1a1a" points="31.5001,-84.3969 35,-94.397 38.5001,-84.397 31.5001,-84.3969"/>
</g>
</g>
</svg>
