<?xml version="1.0" encoding="UTF-8" standalone="no"?>
<!DOCTYPE svg PUBLIC "-//W3C//DTD SVG 1.1//EN"
 "http://www.w3.org/Graphics/SVG/1.1/DTD/svg11.dtd">
<!-- Generated by graphviz version 2.36.0 (20140111.2315)
 -->
<!-- Title: /home/travis/build/AliceO2Group/AliceO2/Framework/Core/src/DataRelayer.cxx Pages: 1 -->
<svg width="1904pt" height="342pt"
 viewBox="0.00 0.00 1904.11 342.00" xmlns="http://www.w3.org/2000/svg" xmlns:xlink="http://www.w3.org/1999/xlink">
<g id="graph0" class="graph" transform="scale(1 1) rotate(0) translate(4 338)">
<title>/home/travis/build/AliceO2Group/AliceO2/Framework/Core/src/DataRelayer.cxx</title>
<!-- Node1 -->
<g id="node1" class="node"><title>Node1</title>
<polygon fill="#bfbfbf" stroke="black" points="637.5,-292.5 637.5,-333.5 822.5,-333.5 822.5,-292.5 637.5,-292.5"/>
<text text-anchor="start" x="645.5" y="-321.5" font-family="Helvetica,sans-Serif" font-size="10.00">/home/travis/build</text>
<text text-anchor="start" x="645.5" y="-310.5" font-family="Helvetica,sans-Serif" font-size="10.00">/AliceO2Group/AliceO2</text>
<text text-anchor="middle" x="730" y="-299.5" font-family="Helvetica,sans-Serif" font-size="10.00">/Framework/Core/src/DataRelayer.cxx</text>
</g>
<!-- Node2 -->
<g id="node2" class="node"><title>Node2</title>
<g id="a_node2"><a xlink:href="../../df/d59/DataRelayer_8h.html" target="_top" xlink:title="Framework/DataRelayer.h">
<polygon fill="none" stroke="black" points="664.5,-236.5 664.5,-255.5 795.5,-255.5 795.5,-236.5 664.5,-236.5"/>
<text text-anchor="middle" x="730" y="-243.5" font-family="Helvetica,sans-Serif" font-size="10.00">Framework/DataRelayer.h</text>
</a>
</g>
</g>
<!-- Node1&#45;&gt;Node2 -->
<g id="edge1" class="edge"><title>Node1&#45;&gt;Node2</title>
<path fill="none" stroke="midnightblue" d="M730,-292.498C730,-284.065 730,-274.235 730,-265.874"/>
<polygon fill="midnightblue" stroke="midnightblue" points="733.5,-265.652 730,-255.652 726.5,-265.653 733.5,-265.652"/>
</g>
<!-- Node16 -->
<g id="node16" class="node"><title>Node16</title>
<g id="a_node16"><a xlink:href="../../d6/d68/DataSpecUtils_8h.html" target="_top" xlink:title="Framework/DataSpecUtils.h">
<polygon fill="none" stroke="black" points="176,-180.5 176,-199.5 316,-199.5 316,-180.5 176,-180.5"/>
<text text-anchor="middle" x="246" y="-187.5" font-family="Helvetica,sans-Serif" font-size="10.00">Framework/DataSpecUtils.h</text>
</a>
</g>
</g>
<!-- Node1&#45;&gt;Node16 -->
<g id="edge20" class="edge"><title>Node1&#45;&gt;Node16</title>
<path fill="none" stroke="midnightblue" d="M637.309,-308.011C560.133,-302.377 448.342,-288.786 356,-256 321.796,-243.856 286.378,-220.682 265.271,-205.539"/>
<polygon fill="midnightblue" stroke="midnightblue" points="267.284,-202.675 257.146,-199.596 263.151,-208.325 267.284,-202.675"/>
</g>
<!-- Node18 -->
<g id="node18" class="node"><title>Node18</title>
<g id="a_node18"><a xlink:href="../../d3/d26/MetricsService_8h.html" target="_top" xlink:title="Framework/MetricsService.h">
<polygon fill="none" stroke="black" points="365,-236.5 365,-255.5 507,-255.5 507,-236.5 365,-236.5"/>
<text text-anchor="middle" x="436" y="-243.5" font-family="Helvetica,sans-Serif" font-size="10.00">Framework/MetricsService.h</text>
</a>
</g>
</g>
<!-- Node1&#45;&gt;Node18 -->
<g id="edge25" class="edge"><title>Node1&#45;&gt;Node18</title>
<path fill="none" stroke="midnightblue" d="M641.79,-292.498C590.273,-281.108 527.223,-267.168 484.592,-257.743"/>
<polygon fill="midnightblue" stroke="midnightblue" points="485.269,-254.308 474.75,-255.567 483.758,-261.143 485.269,-254.308"/>
</g>
<!-- Node27 -->
<g id="node27" class="node"><title>Node27</title>
<g id="a_node27"><a xlink:href="../../d6/dc9/DataProcessingHeader_8h.html" target="_top" xlink:title="Framework/DataProcessing\lHeader.h">
<polygon fill="none" stroke="black" points="0,-113 0,-143 138,-143 138,-113 0,-113"/>
<text text-anchor="start" x="8" y="-131" font-family="Helvetica,sans-Serif" font-size="10.00">Framework/DataProcessing</text>
<text text-anchor="middle" x="69" y="-120" font-family="Helvetica,sans-Serif" font-size="10.00">Header.h</text>
</a>
</g>
</g>
<!-- Node1&#45;&gt;Node27 -->
<g id="edge38" class="edge"><title>Node1&#45;&gt;Node27</title>
<path fill="none" stroke="midnightblue" d="M637.309,-310.268C520.806,-304.481 317.844,-282.198 167,-200 140.484,-185.551 112.851,-164.946 93.7132,-149.652"/>
<polygon fill="midnightblue" stroke="midnightblue" points="95.7805,-146.822 85.8066,-143.248 91.3748,-152.262 95.7805,-146.822"/>
</g>
<!-- Node29 -->
<g id="node29" class="node"><title>Node29</title>
<g id="a_node29"><a xlink:href="../../d5/dfb/DataRef_8h.html" target="_top" xlink:title="Framework/DataRef.h">
<polygon fill="none" stroke="black" points="1442.5,-118.5 1442.5,-137.5 1555.5,-137.5 1555.5,-118.5 1442.5,-118.5"/>
<text text-anchor="middle" x="1499" y="-125.5" font-family="Helvetica,sans-Serif" font-size="10.00">Framework/DataRef.h</text>
</a>
</g>
</g>
<!-- Node1&#45;&gt;Node29 -->
<g id="edge45" class="edge"><title>Node1&#45;&gt;Node29</title>
<path fill="none" stroke="midnightblue" d="M822.557,-311.951C1004.23,-309.761 1397.63,-293.993 1487,-200 1500.03,-186.294 1501.85,-163.993 1501.16,-148.041"/>
<polygon fill="midnightblue" stroke="midnightblue" points="1504.62,-147.451 1500.34,-137.762 1497.65,-148.01 1504.62,-147.451"/>
</g>
<!-- Node30 -->
<g id="node30" class="node"><title>Node30</title>
<g id="a_node30"><a xlink:href="../../d6/d5c/InputRecord_8h.html" target="_top" xlink:title="Framework/InputRecord.h">
<polygon fill="none" stroke="black" points="1095,-236.5 1095,-255.5 1225,-255.5 1225,-236.5 1095,-236.5"/>
<text text-anchor="middle" x="1160" y="-243.5" font-family="Helvetica,sans-Serif" font-size="10.00">Framework/InputRecord.h</text>
</a>
</g>
</g>
<!-- Node1&#45;&gt;Node30 -->
<g id="edge46" class="edge"><title>Node1&#45;&gt;Node30</title>
<path fill="none" stroke="midnightblue" d="M822.51,-298.016C904.078,-285.686 1020.94,-268.02 1093.56,-257.043"/>
<polygon fill="midnightblue" stroke="midnightblue" points="1094.14,-260.495 1103.51,-255.539 1093.1,-253.574 1094.14,-260.495"/>
</g>
<!-- Node46 -->
<g id="node46" class="node"><title>Node46</title>
<polygon fill="none" stroke="#bfbfbf" points="1624,-236.5 1624,-255.5 1740,-255.5 1740,-236.5 1624,-236.5"/>
<text text-anchor="middle" x="1682" y="-243.5" font-family="Helvetica,sans-Serif" font-size="10.00">fairmq/FairMQLogger.h</text>
</g>
<!-- Node1&#45;&gt;Node46 -->
<g id="edge81" class="edge"><title>Node1&#45;&gt;Node46</title>
<path fill="none" stroke="midnightblue" d="M822.634,-307.961C983.189,-300.545 1323.47,-283 1610,-256 1611.27,-255.88 1612.55,-255.756 1613.84,-255.628"/>
<polygon fill="midnightblue" stroke="midnightblue" points="1614.3,-259.1 1623.87,-254.574 1613.56,-252.138 1614.3,-259.1"/>
</g>
<!-- Node3 -->
<g id="node3" class="node"><title>Node3</title>
<polygon fill="none" stroke="#bfbfbf" points="1149.5,-56.5 1149.5,-75.5 1276.5,-75.5 1276.5,-56.5 1149.5,-56.5"/>
<text text-anchor="middle" x="1213" y="-63.5" font-family="Helvetica,sans-Serif" font-size="10.00">fairmq/FairMQMessage.h</text>
</g>
<!-- Node2&#45;&gt;Node3 -->
<g id="edge2" class="edge"><title>Node2&#45;&gt;Node3</title>
<path fill="none" stroke="midnightblue" d="M771.57,-236.484C804.879,-228.948 852.419,-216.569 892,-200 964.361,-169.708 972.5,-141.957 1045,-112 1081.8,-96.7953 1125.26,-85.3151 1158.76,-77.7565"/>
<polygon fill="midnightblue" stroke="midnightblue" points="1159.8,-81.1097 1168.81,-75.5368 1158.3,-74.2742 1159.8,-81.1097"/>
</g>
<!-- Node4 -->
<g id="node4" class="node"><title>Node4</title>
<g id="a_node4"><a xlink:href="../../d5/d19/InputRoute_8h.html" target="_top" xlink:title="Framework/InputRoute.h">
<polygon fill="none" stroke="black" points="758.5,-180.5 758.5,-199.5 883.5,-199.5 883.5,-180.5 758.5,-180.5"/>
<text text-anchor="middle" x="821" y="-187.5" font-family="Helvetica,sans-Serif" font-size="10.00">Framework/InputRoute.h</text>
</a>
</g>
</g>
<!-- Node2&#45;&gt;Node4 -->
<g id="edge3" class="edge"><title>Node2&#45;&gt;Node4</title>
<path fill="none" stroke="midnightblue" d="M744.621,-236.324C758.949,-227.822 781.013,-214.729 797.749,-204.797"/>
<polygon fill="midnightblue" stroke="midnightblue" points="799.602,-207.768 806.416,-199.655 796.03,-201.748 799.602,-207.768"/>
</g>
<!-- Node13 -->
<g id="node13" class="node"><title>Node13</title>
<polygon fill="none" stroke="#bfbfbf" points="758.5,-118.5 758.5,-137.5 807.5,-137.5 807.5,-118.5 758.5,-118.5"/>
<text text-anchor="middle" x="783" y="-125.5" font-family="Helvetica,sans-Serif" font-size="10.00">cstddef</text>
</g>
<!-- Node2&#45;&gt;Node13 -->
<g id="edge18" class="edge"><title>Node2&#45;&gt;Node13</title>
<path fill="none" stroke="midnightblue" d="M731.665,-236.287C734.298,-223.524 740.059,-199.181 749,-180 754.656,-167.867 762.963,-155.343 769.95,-145.743"/>
<polygon fill="midnightblue" stroke="midnightblue" points="772.904,-147.638 776.115,-137.542 767.309,-143.432 772.904,-147.638"/>
</g>
<!-- Node14 -->
<g id="node14" class="node"><title>Node14</title>
<g id="a_node14"><a xlink:href="../../d7/d12/ForwardRoute_8h.html" target="_top" xlink:title="Framework/ForwardRoute.h">
<polygon fill="none" stroke="black" points="564,-180.5 564,-199.5 702,-199.5 702,-180.5 564,-180.5"/>
<text text-anchor="middle" x="633" y="-187.5" font-family="Helvetica,sans-Serif" font-size="10.00">Framework/ForwardRoute.h</text>
</a>
</g>
</g>
<!-- Node2&#45;&gt;Node14 -->
<g id="edge14" class="edge"><title>Node2&#45;&gt;Node14</title>
<path fill="none" stroke="midnightblue" d="M714.415,-236.324C699.001,-227.743 675.188,-214.486 657.29,-204.522"/>
<polygon fill="midnightblue" stroke="midnightblue" points="658.986,-201.461 648.546,-199.655 655.581,-207.577 658.986,-201.461"/>
</g>
<!-- Node15 -->
<g id="node15" class="node"><title>Node15</title>
<polygon fill="none" stroke="#bfbfbf" points="464,-180.5 464,-199.5 508,-199.5 508,-180.5 464,-180.5"/>
<text text-anchor="middle" x="486" y="-187.5" font-family="Helvetica,sans-Serif" font-size="10.00">vector</text>
</g>
<!-- Node2&#45;&gt;Node15 -->
<g id="edge19" class="edge"><title>Node2&#45;&gt;Node15</title>
<path fill="none" stroke="midnightblue" d="M688.475,-236.423C646.428,-227.643 579.571,-213.42 522,-200 520.729,-199.704 519.435,-199.398 518.127,-199.086"/>
<polygon fill="midnightblue" stroke="midnightblue" points="518.602,-195.6 508.058,-196.633 516.945,-202.401 518.602,-195.6"/>
</g>
<!-- Node5 -->
<g id="node5" class="node"><title>Node5</title>
<g id="a_node5"><a xlink:href="../../d5/d3f/InputSpec_8h.html" target="_top" xlink:title="Framework/InputSpec.h">
<polygon fill="none" stroke="black" points="378.5,-118.5 378.5,-137.5 499.5,-137.5 499.5,-118.5 378.5,-118.5"/>
<text text-anchor="middle" x="439" y="-125.5" font-family="Helvetica,sans-Serif" font-size="10.00">Framework/InputSpec.h</text>
</a>
</g>
</g>
<!-- Node4&#45;&gt;Node5 -->
<g id="edge4" class="edge"><title>Node4&#45;&gt;Node5</title>
<path fill="none" stroke="midnightblue" d="M758.229,-180.769C696.074,-172.391 598.262,-158.592 514,-144 506.18,-142.646 497.924,-141.106 489.861,-139.542"/>
<polygon fill="midnightblue" stroke="midnightblue" points="490.287,-136.059 479.799,-137.559 488.934,-142.927 490.287,-136.059"/>
</g>
<!-- Node6 -->
<g id="node6" class="node"><title>Node6</title>
<polygon fill="none" stroke="#bfbfbf" points="815.5,-56.5 815.5,-75.5 856.5,-75.5 856.5,-56.5 815.5,-56.5"/>
<text text-anchor="middle" x="836" y="-63.5" font-family="Helvetica,sans-Serif" font-size="10.00">string</text>
</g>
<!-- Node4&#45;&gt;Node6 -->
<g id="edge13" class="edge"><title>Node4&#45;&gt;Node6</title>
<path fill="none" stroke="midnightblue" d="M822.079,-180.226C824.5,-160.53 830.413,-112.437 833.701,-85.7004"/>
<polygon fill="midnightblue" stroke="midnightblue" points="837.184,-86.0468 834.931,-75.6944 830.237,-85.1926 837.184,-86.0468"/>
</g>
<!-- Node4&#45;&gt;Node13 -->
<g id="edge12" class="edge"><title>Node4&#45;&gt;Node13</title>
<path fill="none" stroke="midnightblue" d="M815.556,-180.403C809.912,-171.493 800.939,-157.325 793.841,-146.118"/>
<polygon fill="midnightblue" stroke="midnightblue" points="796.742,-144.156 788.434,-137.581 790.828,-147.901 796.742,-144.156"/>
</g>
<!-- Node5&#45;&gt;Node6 -->
<g id="edge5" class="edge"><title>Node5&#45;&gt;Node6</title>
<path fill="none" stroke="midnightblue" d="M495.459,-118.467C580.425,-105.626 738.304,-81.7651 804.992,-71.6864"/>
<polygon fill="midnightblue" stroke="midnightblue" points="805.888,-75.0907 815.253,-70.1356 804.842,-68.1693 805.888,-75.0907"/>
</g>
<!-- Node7 -->
<g id="node7" class="node"><title>Node7</title>
<g id="a_node7"><a xlink:href="../../dc/dcd/DataHeader_8h.html" target="_top" xlink:title="Headers/DataHeader.h">
<polygon fill="none" stroke="black" points="313.5,-56.5 313.5,-75.5 430.5,-75.5 430.5,-56.5 313.5,-56.5"/>
<text text-anchor="middle" x="372" y="-63.5" font-family="Helvetica,sans-Serif" font-size="10.00">Headers/DataHeader.h</text>
</a>
</g>
</g>
<!-- Node5&#45;&gt;Node7 -->
<g id="edge6" class="edge"><title>Node5&#45;&gt;Node7</title>
<path fill="none" stroke="midnightblue" d="M429.401,-118.403C418.952,-109.047 402.032,-93.8948 389.264,-82.4599"/>
<polygon fill="midnightblue" stroke="midnightblue" points="391.366,-79.6445 381.582,-75.5806 386.696,-84.8592 391.366,-79.6445"/>
</g>
<!-- Node8 -->
<g id="node8" class="node"><title>Node8</title>
<polygon fill="none" stroke="#bfbfbf" points="383,-0.5 383,-19.5 429,-19.5 429,-0.5 383,-0.5"/>
<text text-anchor="middle" x="406" y="-7.5" font-family="Helvetica,sans-Serif" font-size="10.00">cstdint</text>
</g>
<!-- Node7&#45;&gt;Node8 -->
<g id="edge7" class="edge"><title>Node7&#45;&gt;Node8</title>
<path fill="none" stroke="midnightblue" d="M377.614,-56.083C382.367,-48.5341 389.318,-37.4948 395.152,-28.2298"/>
<polygon fill="midnightblue" stroke="midnightblue" points="398.124,-30.0783 400.49,-19.7511 392.2,-26.3486 398.124,-30.0783"/>
</g>
<!-- Node9 -->
<g id="node9" class="node"><title>Node9</title>
<polygon fill="none" stroke="#bfbfbf" points="554,-0.5 554,-19.5 606,-19.5 606,-0.5 554,-0.5"/>
<text text-anchor="middle" x="580" y="-7.5" font-family="Helvetica,sans-Serif" font-size="10.00">memory</text>
</g>
<!-- Node7&#45;&gt;Node9 -->
<g id="edge8" class="edge"><title>Node7&#45;&gt;Node9</title>
<path fill="none" stroke="midnightblue" d="M404.958,-56.4435C442.814,-46.6156 504.725,-30.5427 543.867,-20.3807"/>
<polygon fill="midnightblue" stroke="midnightblue" points="544.982,-23.7073 553.782,-17.8067 543.223,-16.9319 544.982,-23.7073"/>
</g>
<!-- Node10 -->
<g id="node10" class="node"><title>Node10</title>
<polygon fill="none" stroke="#bfbfbf" points="184.5,-0.5 184.5,-19.5 233.5,-19.5 233.5,-0.5 184.5,-0.5"/>
<text text-anchor="middle" x="209" y="-7.5" font-family="Helvetica,sans-Serif" font-size="10.00">cassert</text>
</g>
<!-- Node7&#45;&gt;Node10 -->
<g id="edge9" class="edge"><title>Node7&#45;&gt;Node10</title>
<path fill="none" stroke="midnightblue" d="M346.172,-56.4435C318.428,-47.2522 274.196,-32.5987 243.491,-22.4265"/>
<polygon fill="midnightblue" stroke="midnightblue" points="244.233,-18.9854 233.64,-19.1629 242.032,-25.6302 244.233,-18.9854"/>
</g>
<!-- Node11 -->
<g id="node11" class="node"><title>Node11</title>
<polygon fill="none" stroke="#bfbfbf" points="764,-0.5 764,-19.5 810,-19.5 810,-0.5 764,-0.5"/>
<text text-anchor="middle" x="787" y="-7.5" font-family="Helvetica,sans-Serif" font-size="10.00">cstring</text>
</g>
<!-- Node7&#45;&gt;Node11 -->
<g id="edge10" class="edge"><title>Node7&#45;&gt;Node11</title>
<path fill="none" stroke="midnightblue" d="M430.604,-57.2337C433.782,-56.8156 436.93,-56.4022 440,-56 555.301,-40.8935 692.189,-23.2177 753.912,-15.2616"/>
<polygon fill="midnightblue" stroke="midnightblue" points="754.38,-18.7303 763.85,-13.9808 753.485,-11.7877 754.38,-18.7303"/>
</g>
<!-- Node12 -->
<g id="node12" class="node"><title>Node12</title>
<polygon fill="none" stroke="#bfbfbf" points="309,-0.5 309,-19.5 365,-19.5 365,-0.5 309,-0.5"/>
<text text-anchor="middle" x="337" y="-7.5" font-family="Helvetica,sans-Serif" font-size="10.00">algorithm</text>
</g>
<!-- Node7&#45;&gt;Node12 -->
<g id="edge11" class="edge"><title>Node7&#45;&gt;Node12</title>
<path fill="none" stroke="midnightblue" d="M366.22,-56.083C361.328,-48.5341 354.173,-37.4948 348.167,-28.2298"/>
<polygon fill="midnightblue" stroke="midnightblue" points="351.048,-26.239 342.672,-19.7511 345.174,-30.0463 351.048,-26.239"/>
</g>
<!-- Node14&#45;&gt;Node5 -->
<g id="edge15" class="edge"><title>Node14&#45;&gt;Node5</title>
<path fill="none" stroke="midnightblue" d="M605.205,-180.403C571.35,-169.933 514.029,-152.205 476.345,-140.55"/>
<polygon fill="midnightblue" stroke="midnightblue" points="477.332,-137.192 466.744,-137.581 475.263,-143.879 477.332,-137.192"/>
</g>
<!-- Node14&#45;&gt;Node6 -->
<g id="edge17" class="edge"><title>Node14&#45;&gt;Node6</title>
<path fill="none" stroke="midnightblue" d="M647.781,-180.404C662.7,-171.608 686.287,-157.373 706,-144 725.714,-130.626 728.798,-124.625 749,-112 768.103,-100.062 790.731,-88.4294 808.121,-79.9829"/>
<polygon fill="midnightblue" stroke="midnightblue" points="809.684,-83.1154 817.188,-75.6364 806.658,-76.8032 809.684,-83.1154"/>
</g>
<!-- Node14&#45;&gt;Node13 -->
<g id="edge16" class="edge"><title>Node14&#45;&gt;Node13</title>
<path fill="none" stroke="midnightblue" d="M654.491,-180.403C680.11,-170.156 723.11,-152.956 752.245,-141.302"/>
<polygon fill="midnightblue" stroke="midnightblue" points="753.564,-144.544 761.549,-137.581 750.964,-138.045 753.564,-144.544"/>
</g>
<!-- Node16&#45;&gt;Node5 -->
<g id="edge23" class="edge"><title>Node16&#45;&gt;Node5</title>
<path fill="none" stroke="midnightblue" d="M273.652,-180.403C307.332,-169.933 364.357,-152.205 401.847,-140.55"/>
<polygon fill="midnightblue" stroke="midnightblue" points="402.889,-143.892 411.399,-137.581 400.811,-137.207 402.889,-143.892"/>
</g>
<!-- Node16&#45;&gt;Node7 -->
<g id="edge24" class="edge"><title>Node16&#45;&gt;Node7</title>
<path fill="none" stroke="midnightblue" d="M226.094,-180.41C211.775,-173.04 193.542,-160.916 185,-144 178.589,-131.305 176.198,-123.171 185,-112 193.089,-101.734 261.226,-87.1938 312.938,-77.4471"/>
<polygon fill="midnightblue" stroke="midnightblue" points="313.849,-80.8376 323.039,-75.5644 312.566,-73.9561 313.849,-80.8376"/>
</g>
<!-- Node17 -->
<g id="node17" class="node"><title>Node17</title>
<g id="a_node17"><a xlink:href="../../db/d2d/OutputSpec_8h.html" target="_top" xlink:title="Framework/OutputSpec.h">
<polygon fill="none" stroke="black" points="194,-118.5 194,-137.5 322,-137.5 322,-118.5 194,-118.5"/>
<text text-anchor="middle" x="258" y="-125.5" font-family="Helvetica,sans-Serif" font-size="10.00">Framework/OutputSpec.h</text>
</a>
</g>
</g>
<!-- Node16&#45;&gt;Node17 -->
<g id="edge21" class="edge"><title>Node16&#45;&gt;Node17</title>
<path fill="none" stroke="midnightblue" d="M247.719,-180.403C249.43,-171.849 252.11,-158.45 254.305,-147.476"/>
<polygon fill="midnightblue" stroke="midnightblue" points="257.755,-148.073 256.284,-137.581 250.891,-146.7 257.755,-148.073"/>
</g>
<!-- Node17&#45;&gt;Node7 -->
<g id="edge22" class="edge"><title>Node17&#45;&gt;Node7</title>
<path fill="none" stroke="midnightblue" d="M274.333,-118.403C293.211,-108.468 324.507,-91.9966 346.576,-80.3812"/>
<polygon fill="midnightblue" stroke="midnightblue" points="348.478,-83.3353 355.697,-75.5806 345.218,-77.1409 348.478,-83.3353"/>
</g>
<!-- Node18&#45;&gt;Node6 -->
<g id="edge36" class="edge"><title>Node18&#45;&gt;Node6</title>
<path fill="none" stroke="midnightblue" d="M435.815,-236.332C436.022,-222.247 438.638,-194.508 455,-180 528.149,-115.14 584.389,-187.38 672,-144 690.597,-134.792 688.246,-122.743 706,-112 737.527,-92.9226 778.272,-80.4951 805.673,-73.6315"/>
<polygon fill="midnightblue" stroke="midnightblue" points="806.572,-77.0152 815.474,-71.2711 804.933,-70.2098 806.572,-77.0152"/>
</g>
<!-- Node18&#45;&gt;Node15 -->
<g id="edge37" class="edge"><title>Node18&#45;&gt;Node15</title>
<path fill="none" stroke="midnightblue" d="M444.256,-236.083C451.465,-228.298 462.11,-216.801 470.846,-207.367"/>
<polygon fill="midnightblue" stroke="midnightblue" points="473.671,-209.467 477.897,-199.751 468.535,-204.711 473.671,-209.467"/>
</g>
<!-- Node19 -->
<g id="node19" class="node"><title>Node19</title>
<g id="a_node19"><a xlink:href="../../de/d56/Variant_8h.html" target="_top" xlink:title="Framework/Variant.h">
<polygon fill="none" stroke="black" points="556.5,-118.5 556.5,-137.5 663.5,-137.5 663.5,-118.5 556.5,-118.5"/>
<text text-anchor="middle" x="610" y="-125.5" font-family="Helvetica,sans-Serif" font-size="10.00">Framework/Variant.h</text>
</a>
</g>
</g>
<!-- Node18&#45;&gt;Node19 -->
<g id="edge26" class="edge"><title>Node18&#45;&gt;Node19</title>
<path fill="none" stroke="midnightblue" d="M430.238,-236.471C421.974,-223.069 409.096,-196.871 422,-180 437.201,-160.126 497.642,-146.187 545.945,-137.963"/>
<polygon fill="midnightblue" stroke="midnightblue" points="546.751,-141.377 556.047,-136.294 545.611,-134.471 546.751,-141.377"/>
</g>
<!-- Node26 -->
<g id="node26" class="node"><title>Node26</title>
<polygon fill="none" stroke="#bfbfbf" points="334.5,-180.5 334.5,-199.5 369.5,-199.5 369.5,-180.5 334.5,-180.5"/>
<text text-anchor="middle" x="352" y="-187.5" font-family="Helvetica,sans-Serif" font-size="10.00">map</text>
</g>
<!-- Node18&#45;&gt;Node26 -->
<g id="edge35" class="edge"><title>Node18&#45;&gt;Node26</title>
<path fill="none" stroke="midnightblue" d="M422.504,-236.324C409.4,-227.9 389.288,-214.971 373.893,-205.074"/>
<polygon fill="midnightblue" stroke="midnightblue" points="375.767,-202.118 365.463,-199.655 371.982,-208.006 375.767,-202.118"/>
</g>
<!-- Node19&#45;&gt;Node8 -->
<g id="edge29" class="edge"><title>Node19&#45;&gt;Node8</title>
<path fill="none" stroke="midnightblue" d="M599.657,-118.289C582.341,-103.992 546.024,-75.2209 512,-56 488.408,-42.6722 460.084,-30.8433 438.653,-22.6619"/>
<polygon fill="midnightblue" stroke="midnightblue" points="439.628,-19.2895 429.035,-19.0578 437.171,-25.8444 439.628,-19.2895"/>
</g>
<!-- Node19&#45;&gt;Node11 -->
<g id="edge28" class="edge"><title>Node19&#45;&gt;Node11</title>
<path fill="none" stroke="midnightblue" d="M649.868,-118.463C690.717,-108.967 750.513,-92.7463 767,-76 779.026,-63.7846 783.844,-44.5179 785.762,-30.127"/>
<polygon fill="midnightblue" stroke="midnightblue" points="789.276,-30.1508 786.761,-19.859 782.309,-29.4733 789.276,-30.1508"/>
</g>
<!-- Node20 -->
<g id="node20" class="node"><title>Node20</title>
<polygon fill="none" stroke="#bfbfbf" points="1057,-56.5 1057,-75.5 1119,-75.5 1119,-56.5 1057,-56.5"/>
<text text-anchor="middle" x="1088" y="-63.5" font-family="Helvetica,sans-Serif" font-size="10.00">type_traits</text>
</g>
<!-- Node19&#45;&gt;Node20 -->
<g id="edge27" class="edge"><title>Node19&#45;&gt;Node20</title>
<path fill="none" stroke="midnightblue" d="M663.904,-120.234C760.333,-108.13 960.343,-83.0239 1046.76,-72.1771"/>
<polygon fill="midnightblue" stroke="midnightblue" points="1047.23,-75.6451 1056.72,-70.9268 1046.36,-68.6996 1047.23,-75.6451"/>
</g>
<!-- Node21 -->
<g id="node21" class="node"><title>Node21</title>
<polygon fill="none" stroke="#bfbfbf" points="713.5,-56.5 713.5,-75.5 758.5,-75.5 758.5,-56.5 713.5,-56.5"/>
<text text-anchor="middle" x="736" y="-63.5" font-family="Helvetica,sans-Serif" font-size="10.00">cstdlib</text>
</g>
<!-- Node19&#45;&gt;Node21 -->
<g id="edge30" class="edge"><title>Node19&#45;&gt;Node21</title>
<path fill="none" stroke="midnightblue" d="M628.053,-118.403C649.198,-108.334 684.44,-91.5522 708.878,-79.9151"/>
<polygon fill="midnightblue" stroke="midnightblue" points="710.457,-83.04 717.981,-75.5806 707.447,-76.72 710.457,-83.04"/>
</g>
<!-- Node22 -->
<g id="node22" class="node"><title>Node22</title>
<polygon fill="none" stroke="#bfbfbf" points="887.5,-56.5 887.5,-75.5 946.5,-75.5 946.5,-56.5 887.5,-56.5"/>
<text text-anchor="middle" x="917" y="-63.5" font-family="Helvetica,sans-Serif" font-size="10.00">stdexcept</text>
</g>
<!-- Node19&#45;&gt;Node22 -->
<g id="edge31" class="edge"><title>Node19&#45;&gt;Node22</title>
<path fill="none" stroke="midnightblue" d="M653.66,-118.467C713.347,-106.802 819.565,-86.0428 877.178,-74.7829"/>
<polygon fill="midnightblue" stroke="midnightblue" points="878.204,-78.1485 887.347,-72.7953 876.862,-71.2785 878.204,-78.1485"/>
</g>
<!-- Node23 -->
<g id="node23" class="node"><title>Node23</title>
<polygon fill="none" stroke="#bfbfbf" points="559.5,-56.5 559.5,-75.5 604.5,-75.5 604.5,-56.5 559.5,-56.5"/>
<text text-anchor="middle" x="582" y="-63.5" font-family="Helvetica,sans-Serif" font-size="10.00">iosfwd</text>
</g>
<!-- Node19&#45;&gt;Node23 -->
<g id="edge32" class="edge"><title>Node19&#45;&gt;Node23</title>
<path fill="none" stroke="midnightblue" d="M605.988,-118.403C601.913,-109.671 595.482,-95.8893 590.304,-84.7936"/>
<polygon fill="midnightblue" stroke="midnightblue" points="593.405,-83.1623 586.004,-75.5806 587.062,-86.1225 593.405,-83.1623"/>
</g>
<!-- Node24 -->
<g id="node24" class="node"><title>Node24</title>
<polygon fill="none" stroke="#bfbfbf" points="449,-56.5 449,-75.5 503,-75.5 503,-56.5 449,-56.5"/>
<text text-anchor="middle" x="476" y="-63.5" font-family="Helvetica,sans-Serif" font-size="10.00">iostream</text>
</g>
<!-- Node19&#45;&gt;Node24 -->
<g id="edge33" class="edge"><title>Node19&#45;&gt;Node24</title>
<path fill="none" stroke="midnightblue" d="M590.801,-118.403C568.213,-108.29 530.501,-91.4036 504.499,-79.761"/>
<polygon fill="midnightblue" stroke="midnightblue" points="505.721,-76.4729 495.163,-75.5806 502.86,-82.8617 505.721,-76.4729"/>
</g>
<!-- Node25 -->
<g id="node25" class="node"><title>Node25</title>
<polygon fill="none" stroke="#bfbfbf" points="622.5,-56.5 622.5,-75.5 695.5,-75.5 695.5,-56.5 622.5,-56.5"/>
<text text-anchor="middle" x="659" y="-63.5" font-family="Helvetica,sans-Serif" font-size="10.00">initializer_list</text>
</g>
<!-- Node19&#45;&gt;Node25 -->
<g id="edge34" class="edge"><title>Node19&#45;&gt;Node25</title>
<path fill="none" stroke="midnightblue" d="M617.021,-118.403C624.443,-109.314 636.333,-94.7559 645.567,-83.4489"/>
<polygon fill="midnightblue" stroke="midnightblue" points="648.378,-85.5398 651.993,-75.5806 642.956,-81.1121 648.378,-85.5398"/>
</g>
<!-- Node27&#45;&gt;Node7 -->
<g id="edge39" class="edge"><title>Node27&#45;&gt;Node7</title>
<path fill="none" stroke="midnightblue" d="M138.135,-113.31C193.039,-102.438 268.679,-87.4597 318.897,-77.5154"/>
<polygon fill="midnightblue" stroke="midnightblue" points="319.77,-80.9107 328.899,-75.5348 318.41,-74.044 319.77,-80.9107"/>
</g>
<!-- Node27&#45;&gt;Node8 -->
<g id="edge40" class="edge"><title>Node27&#45;&gt;Node8</title>
<path fill="none" stroke="midnightblue" d="M108.415,-112.933C149.081,-98.4703 214.379,-75.3862 271,-56 305.612,-44.1495 345.352,-30.9518 372.707,-21.9306"/>
<polygon fill="midnightblue" stroke="midnightblue" points="374.145,-25.142 382.548,-18.6892 371.955,-18.4934 374.145,-25.142"/>
</g>
<!-- Node27&#45;&gt;Node9 -->
<g id="edge43" class="edge"><title>Node27&#45;&gt;Node9</title>
<path fill="none" stroke="midnightblue" d="M130.123,-112.921C167.474,-103.725 215.98,-90.715 258,-76 279.04,-68.6318 282.612,-62.2866 304,-56 387.842,-31.3566 490.232,-19.1207 543.636,-14.0275"/>
<polygon fill="midnightblue" stroke="midnightblue" points="544.008,-17.5081 553.643,-13.1026 543.364,-10.5378 544.008,-17.5081"/>
</g>
<!-- Node27&#45;&gt;Node10 -->
<g id="edge44" class="edge"><title>Node27&#45;&gt;Node10</title>
<path fill="none" stroke="midnightblue" d="M86.1667,-112.776C112.653,-90.8307 163.265,-48.8951 190.522,-26.31"/>
<polygon fill="midnightblue" stroke="midnightblue" points="193.024,-28.7823 198.492,-19.707 188.558,-23.3921 193.024,-28.7823"/>
</g>
<!-- Node27&#45;&gt;Node24 -->
<g id="edge42" class="edge"><title>Node27&#45;&gt;Node24</title>
<path fill="none" stroke="midnightblue" d="M138.242,-117.843C237.149,-104.704 410.174,-81.4778 439,-76 439.101,-75.9807 439.203,-75.9613 439.305,-75.9418"/>
<polygon fill="midnightblue" stroke="midnightblue" points="439.925,-79.388 448.991,-73.9054 438.485,-72.5378 439.925,-79.388"/>
</g>
<!-- Node28 -->
<g id="node28" class="node"><title>Node28</title>
<polygon fill="none" stroke="#bfbfbf" points="47.5,-56.5 47.5,-75.5 90.5,-75.5 90.5,-56.5 47.5,-56.5"/>
<text text-anchor="middle" x="69" y="-63.5" font-family="Helvetica,sans-Serif" font-size="10.00">cstdio</text>
</g>
<!-- Node27&#45;&gt;Node28 -->
<g id="edge41" class="edge"><title>Node27&#45;&gt;Node28</title>
<path fill="none" stroke="midnightblue" d="M69,-112.781C69,-104.781 69,-94.6887 69,-86.0168"/>
<polygon fill="midnightblue" stroke="midnightblue" points="72.5001,-85.7305 69,-75.7305 65.5001,-85.7306 72.5001,-85.7305"/>
</g>
<!-- Node30&#45;&gt;Node3 -->
<g id="edge70" class="edge"><title>Node30&#45;&gt;Node3</title>
<path fill="none" stroke="midnightblue" d="M1225.05,-245.279C1292.81,-243.484 1400.88,-234.674 1487,-200 1526.25,-184.195 1544.8,-181.708 1564,-144 1603.67,-66.1014 1452.73,-96.15 1287.12,-76.7277"/>
<polygon fill="midnightblue" stroke="midnightblue" points="1287.06,-73.1931 1276.7,-75.4413 1286.2,-80.1404 1287.06,-73.1931"/>
</g>
<!-- Node30&#45;&gt;Node4 -->
<g id="edge68" class="edge"><title>Node30&#45;&gt;Node4</title>
<path fill="none" stroke="midnightblue" d="M1106.28,-236.444C1046.03,-226.846 948.386,-211.292 884.429,-201.104"/>
<polygon fill="midnightblue" stroke="midnightblue" points="884.89,-197.633 874.464,-199.516 883.789,-204.546 884.89,-197.633"/>
</g>
<!-- Node30&#45;&gt;Node6 -->
<g id="edge74" class="edge"><title>Node30&#45;&gt;Node6</title>
<path fill="none" stroke="midnightblue" d="M1094.96,-237.851C1057.78,-231.719 1011.28,-220.469 974,-200 919.259,-169.941 870.608,-112.468 848.541,-83.9359"/>
<polygon fill="midnightblue" stroke="midnightblue" points="851.17,-81.6105 842.337,-75.7605 845.594,-85.8422 851.17,-81.6105"/>
</g>
<!-- Node30&#45;&gt;Node9 -->
<g id="edge79" class="edge"><title>Node30&#45;&gt;Node9</title>
<path fill="none" stroke="midnightblue" d="M1134.22,-236.418C1114.22,-228.916 1086.54,-216.616 1066,-200 1003.18,-149.171 1025.26,-95.9241 955,-56 925.897,-39.4616 704.628,-20.6757 616.274,-13.7504"/>
<polygon fill="midnightblue" stroke="midnightblue" points="616.421,-10.2513 606.18,-12.9656 615.878,-17.2303 616.421,-10.2513"/>
</g>
<!-- Node30&#45;&gt;Node10 -->
<g id="edge77" class="edge"><title>Node30&#45;&gt;Node10</title>
<path fill="none" stroke="midnightblue" d="M1094.83,-243.42C960.076,-239.619 655,-228.112 555,-200 536.247,-194.728 534.251,-186.808 516,-180 452.977,-156.493 428.969,-174.465 369,-144 349.315,-134 347.948,-126.151 331,-112 294.343,-81.3931 251.274,-45.8303 227.364,-26.1222"/>
<polygon fill="midnightblue" stroke="midnightblue" points="229.412,-23.275 219.469,-19.6172 224.961,-28.6775 229.412,-23.275"/>
</g>
<!-- Node30&#45;&gt;Node11 -->
<g id="edge76" class="edge"><title>Node30&#45;&gt;Node11</title>
<path fill="none" stroke="midnightblue" d="M1225.19,-242.697C1312.96,-238.635 1473.66,-227.803 1608,-200 1688.38,-183.364 1710.1,-179.727 1784,-144 1837.6,-118.087 1926.23,-98.9526 1885,-56 1847.21,-16.6306 999.712,-11.6883 820.213,-11.0827"/>
<polygon fill="midnightblue" stroke="midnightblue" points="820.072,-7.58233 810.061,-11.0507 820.05,-14.5823 820.072,-7.58233"/>
</g>
<!-- Node30&#45;&gt;Node15 -->
<g id="edge75" class="edge"><title>Node30&#45;&gt;Node15</title>
<path fill="none" stroke="midnightblue" d="M1094.82,-244.148C978.894,-241.802 729.534,-233.002 522,-200 520.747,-199.801 519.475,-199.579 518.192,-199.339"/>
<polygon fill="midnightblue" stroke="midnightblue" points="518.855,-195.902 508.344,-197.228 517.388,-202.747 518.855,-195.902"/>
</g>
<!-- Node30&#45;&gt;Node20 -->
<g id="edge80" class="edge"><title>Node30&#45;&gt;Node20</title>
<path fill="none" stroke="midnightblue" d="M1143.05,-236.337C1116.3,-221.587 1065.27,-188.784 1045,-144 1039.14,-131.043 1039.71,-125.201 1045,-112 1049.68,-100.328 1058.99,-89.9687 1067.76,-82.1405"/>
<polygon fill="midnightblue" stroke="midnightblue" points="1070.05,-84.7832 1075.5,-75.698 1065.58,-79.4011 1070.05,-84.7832"/>
</g>
<!-- Node30&#45;&gt;Node29 -->
<g id="edge47" class="edge"><title>Node30&#45;&gt;Node29</title>
<path fill="none" stroke="midnightblue" d="M1225.07,-242.356C1302.8,-238.018 1426.98,-226.988 1464,-200 1481.14,-187.503 1490.34,-164.26 1494.94,-147.775"/>
<polygon fill="midnightblue" stroke="midnightblue" points="1498.44,-148.204 1497.43,-137.657 1491.64,-146.531 1498.44,-148.204"/>
</g>
<!-- Node31 -->
<g id="node31" class="node"><title>Node31</title>
<g id="a_node31"><a xlink:href="../../d5/db8/DataRefUtils_8h.html" target="_top" xlink:title="Framework/DataRefUtils.h">
<polygon fill="none" stroke="black" points="1141,-180.5 1141,-199.5 1275,-199.5 1275,-180.5 1141,-180.5"/>
<text text-anchor="middle" x="1208" y="-187.5" font-family="Helvetica,sans-Serif" font-size="10.00">Framework/DataRefUtils.h</text>
</a>
</g>
</g>
<!-- Node30&#45;&gt;Node31 -->
<g id="edge48" class="edge"><title>Node30&#45;&gt;Node31</title>
<path fill="none" stroke="midnightblue" d="M1167.93,-236.083C1174.85,-228.298 1185.07,-216.801 1193.45,-207.367"/>
<polygon fill="midnightblue" stroke="midnightblue" points="1196.19,-209.55 1200.22,-199.751 1190.96,-204.9 1196.19,-209.55"/>
</g>
<!-- Node32 -->
<g id="node32" class="node"><title>Node32</title>
<g id="a_node32"><a xlink:href="../../d8/d3c/TMessageSerializer_8h.html" target="_top" xlink:title="Framework/TMessageSerializer.h">
<polygon fill="none" stroke="black" points="1612.5,-118.5 1612.5,-137.5 1775.5,-137.5 1775.5,-118.5 1612.5,-118.5"/>
<text text-anchor="middle" x="1694" y="-125.5" font-family="Helvetica,sans-Serif" font-size="10.00">Framework/TMessageSerializer.h</text>
</a>
</g>
</g>
<!-- Node30&#45;&gt;Node32 -->
<g id="edge71" class="edge"><title>Node30&#45;&gt;Node32</title>
<path fill="none" stroke="midnightblue" d="M1225.33,-241.182C1324.8,-234.81 1509.29,-220.637 1572,-200 1611.25,-187.083 1651.72,-160.38 1674.78,-143.655"/>
<polygon fill="midnightblue" stroke="midnightblue" points="1677.04,-146.338 1683,-137.578 1672.88,-140.71 1677.04,-146.338"/>
</g>
<!-- Node40 -->
<g id="node40" class="node"><title>Node40</title>
<g id="a_node40"><a xlink:href="../../d0/d95/TypeTraits_8h.html" target="_top" xlink:title="Framework/TypeTraits.h">
<polygon fill="none" stroke="black" points="1054.5,-118.5 1054.5,-137.5 1177.5,-137.5 1177.5,-118.5 1054.5,-118.5"/>
<text text-anchor="middle" x="1116" y="-125.5" font-family="Helvetica,sans-Serif" font-size="10.00">Framework/TypeTraits.h</text>
</a>
</g>
</g>
<!-- Node30&#45;&gt;Node40 -->
<g id="edge69" class="edge"><title>Node30&#45;&gt;Node40</title>
<path fill="none" stroke="midnightblue" d="M1153.26,-236.179C1146.89,-227.44 1137.52,-213.451 1132,-200 1125.04,-183.026 1120.83,-162.469 1118.49,-147.852"/>
<polygon fill="midnightblue" stroke="midnightblue" points="1121.9,-146.976 1116.99,-137.585 1114.97,-147.985 1121.9,-146.976"/>
</g>
<!-- Node41 -->
<g id="node41" class="node"><title>Node41</title>
<polygon fill="none" stroke="#bfbfbf" points="1368,-118.5 1368,-137.5 1424,-137.5 1424,-118.5 1368,-118.5"/>
<text text-anchor="middle" x="1396" y="-125.5" font-family="Helvetica,sans-Serif" font-size="10.00">TClass.h</text>
</g>
<!-- Node30&#45;&gt;Node41 -->
<g id="edge72" class="edge"><title>Node30&#45;&gt;Node41</title>
<path fill="none" stroke="midnightblue" d="M1189.04,-236.431C1214.65,-228.419 1252.65,-215.397 1284,-200 1317.81,-183.393 1354.16,-159.009 1375.98,-143.575"/>
<polygon fill="midnightblue" stroke="midnightblue" points="1378.3,-146.221 1384.4,-137.557 1374.23,-140.527 1378.3,-146.221"/>
</g>
<!-- Node44 -->
<g id="node44" class="node"><title>Node44</title>
<polygon fill="none" stroke="#bfbfbf" points="1331.5,-180.5 1331.5,-199.5 1378.5,-199.5 1378.5,-180.5 1331.5,-180.5"/>
<text text-anchor="middle" x="1355" y="-187.5" font-family="Helvetica,sans-Serif" font-size="10.00">iterator</text>
</g>
<!-- Node30&#45;&gt;Node44 -->
<g id="edge73" class="edge"><title>Node30&#45;&gt;Node44</title>
<path fill="none" stroke="midnightblue" d="M1190.9,-236.444C1226.53,-226.576 1284.9,-210.413 1321.57,-200.258"/>
<polygon fill="midnightblue" stroke="midnightblue" points="1322.6,-203.605 1331.3,-197.563 1320.73,-196.859 1322.6,-203.605"/>
</g>
<!-- Node45 -->
<g id="node45" class="node"><title>Node45</title>
<polygon fill="none" stroke="#bfbfbf" points="1396.5,-180.5 1396.5,-199.5 1455.5,-199.5 1455.5,-180.5 1396.5,-180.5"/>
<text text-anchor="middle" x="1426" y="-187.5" font-family="Helvetica,sans-Serif" font-size="10.00">exception</text>
</g>
<!-- Node30&#45;&gt;Node45 -->
<g id="edge78" class="edge"><title>Node30&#45;&gt;Node45</title>
<path fill="none" stroke="midnightblue" d="M1205.31,-236.448C1249.04,-228.098 1317.37,-214.799 1386.07,-200.146"/>
<polygon fill="midnightblue" stroke="midnightblue" points="1387.17,-203.492 1396.21,-197.975 1385.7,-196.647 1387.17,-203.492"/>
</g>
<!-- Node31&#45;&gt;Node7 -->
<g id="edge50" class="edge"><title>Node31&#45;&gt;Node7</title>
<path fill="none" stroke="midnightblue" d="M1140.84,-186.748C983.688,-181.148 601.162,-165.479 547,-144 526.158,-135.735 527.641,-122.815 508,-112 480.376,-96.7889 446.751,-85.6062 419.847,-78.1931"/>
<polygon fill="midnightblue" stroke="midnightblue" points="420.456,-74.7332 409.892,-75.536 418.651,-81.4964 420.456,-74.7332"/>
</g>
<!-- Node31&#45;&gt;Node20 -->
<g id="edge66" class="edge"><title>Node31&#45;&gt;Node20</title>
<path fill="none" stroke="midnightblue" d="M1207.8,-180.282C1206.99,-164.75 1203.2,-132.044 1186,-112 1171.29,-94.8642 1148.69,-83.8861 1128.89,-77.0672"/>
<polygon fill="midnightblue" stroke="midnightblue" points="1129.74,-73.6646 1119.15,-73.9575 1127.61,-80.3331 1129.74,-73.6646"/>
</g>
<!-- Node31&#45;&gt;Node22 -->
<g id="edge64" class="edge"><title>Node31&#45;&gt;Node22</title>
<path fill="none" stroke="midnightblue" d="M1164.7,-180.426C1131.21,-172.997 1084.12,-160.791 1045,-144 1004.64,-126.675 961.659,-98.5723 937.19,-81.535"/>
<polygon fill="midnightblue" stroke="midnightblue" points="938.952,-78.4949 928.762,-75.5926 934.918,-84.2157 938.952,-78.4949"/>
</g>
<!-- Node31&#45;&gt;Node29 -->
<g id="edge49" class="edge"><title>Node31&#45;&gt;Node29</title>
<path fill="none" stroke="midnightblue" d="M1251.84,-180.489C1297.04,-171.644 1369.53,-157.266 1432,-144 1438.27,-142.668 1444.87,-141.232 1451.38,-139.797"/>
<polygon fill="midnightblue" stroke="midnightblue" points="1452.47,-143.14 1461.47,-137.555 1450.95,-136.307 1452.47,-143.14"/>
</g>
<!-- Node31&#45;&gt;Node32 -->
<g id="edge51" class="edge"><title>Node31&#45;&gt;Node32</title>
<path fill="none" stroke="midnightblue" d="M1275.07,-180.72C1363.88,-169.756 1520.27,-150.448 1614.8,-138.778"/>
<polygon fill="midnightblue" stroke="midnightblue" points="1615.38,-142.233 1624.88,-137.534 1614.52,-135.285 1615.38,-142.233"/>
</g>
<!-- Node31&#45;&gt;Node40 -->
<g id="edge61" class="edge"><title>Node31&#45;&gt;Node40</title>
<path fill="none" stroke="midnightblue" d="M1194.82,-180.403C1179.93,-170.691 1155.46,-154.732 1137.73,-143.17"/>
<polygon fill="midnightblue" stroke="midnightblue" points="1139.44,-140.112 1129.16,-137.581 1135.62,-145.975 1139.44,-140.112"/>
</g>
<!-- Node31&#45;&gt;Node41 -->
<g id="edge63" class="edge"><title>Node31&#45;&gt;Node41</title>
<path fill="none" stroke="midnightblue" d="M1239.27,-180.451C1269.79,-171.914 1317.41,-158.071 1358,-144 1360.55,-143.116 1363.18,-142.163 1365.82,-141.181"/>
<polygon fill="midnightblue" stroke="midnightblue" points="1367.13,-144.425 1375.21,-137.572 1364.62,-137.891 1367.13,-144.425"/>
</g>
<!-- Node42 -->
<g id="node42" class="node"><title>Node42</title>
<polygon fill="none" stroke="#bfbfbf" points="1234,-118.5 1234,-137.5 1286,-137.5 1286,-118.5 1234,-118.5"/>
<text text-anchor="middle" x="1260" y="-125.5" font-family="Helvetica,sans-Serif" font-size="10.00">sstream</text>
</g>
<!-- Node31&#45;&gt;Node42 -->
<g id="edge65" class="edge"><title>Node31&#45;&gt;Node42</title>
<path fill="none" stroke="midnightblue" d="M1215.45,-180.403C1223.33,-171.314 1235.94,-156.756 1245.74,-145.449"/>
<polygon fill="midnightblue" stroke="midnightblue" points="1248.66,-147.43 1252.56,-137.581 1243.37,-142.845 1248.66,-147.43"/>
</g>
<!-- Node43 -->
<g id="node43" class="node"><title>Node43</title>
<polygon fill="none" stroke="#bfbfbf" points="1304.5,-118.5 1304.5,-137.5 1349.5,-137.5 1349.5,-118.5 1304.5,-118.5"/>
<text text-anchor="middle" x="1327" y="-125.5" font-family="Helvetica,sans-Serif" font-size="10.00">gsl/gsl</text>
</g>
<!-- Node31&#45;&gt;Node43 -->
<g id="edge67" class="edge"><title>Node31&#45;&gt;Node43</title>
<path fill="none" stroke="midnightblue" d="M1225.05,-180.403C1244.84,-170.423 1277.72,-153.849 1300.77,-142.225"/>
<polygon fill="midnightblue" stroke="midnightblue" points="1302.63,-145.208 1309.98,-137.581 1299.48,-138.958 1302.63,-145.208"/>
</g>
<!-- Node32&#45;&gt;Node3 -->
<g id="edge52" class="edge"><title>Node32&#45;&gt;Node3</title>
<path fill="none" stroke="midnightblue" d="M1641.74,-118.459C1627.56,-116.245 1612.21,-113.939 1598,-112 1582.82,-109.928 1394.38,-88.0283 1286.89,-75.5617"/>
<polygon fill="midnightblue" stroke="midnightblue" points="1287.08,-72.0609 1276.75,-74.3856 1286.28,-79.0143 1287.08,-72.0609"/>
</g>
<!-- Node32&#45;&gt;Node9 -->
<g id="edge59" class="edge"><title>Node32&#45;&gt;Node9</title>
<path fill="none" stroke="midnightblue" d="M1640.97,-118.477C1627,-116.298 1611.94,-114.005 1598,-112 1476.43,-94.5181 1441.26,-112.56 1324,-76 1305.4,-70.2016 1303.78,-61.1733 1285,-56 1252.52,-47.0521 756.214,-20.3021 616.404,-12.9107"/>
<polygon fill="midnightblue" stroke="midnightblue" points="616.388,-9.40508 606.218,-12.3731 616.019,-16.3954 616.388,-9.40508"/>
</g>
<!-- Node33 -->
<g id="node33" class="node"><title>Node33</title>
<polygon fill="none" stroke="#bfbfbf" points="1829.5,-56.5 1829.5,-75.5 1876.5,-75.5 1876.5,-56.5 1829.5,-56.5"/>
<text text-anchor="middle" x="1853" y="-63.5" font-family="Helvetica,sans-Serif" font-size="10.00">TList.h</text>
</g>
<!-- Node32&#45;&gt;Node33 -->
<g id="edge53" class="edge"><title>Node32&#45;&gt;Node33</title>
<path fill="none" stroke="midnightblue" d="M1716.78,-118.403C1744.05,-108.111 1789.91,-90.8064 1820.8,-79.1504"/>
<polygon fill="midnightblue" stroke="midnightblue" points="1822.14,-82.3858 1830.26,-75.5806 1819.67,-75.8366 1822.14,-82.3858"/>
</g>
<!-- Node34 -->
<g id="node34" class="node"><title>Node34</title>
<polygon fill="none" stroke="#bfbfbf" points="1333.5,-56.5 1333.5,-75.5 1404.5,-75.5 1404.5,-56.5 1333.5,-56.5"/>
<text text-anchor="middle" x="1369" y="-63.5" font-family="Helvetica,sans-Serif" font-size="10.00">TMessage.h</text>
</g>
<!-- Node32&#45;&gt;Node34 -->
<g id="edge54" class="edge"><title>Node32&#45;&gt;Node34</title>
<path fill="none" stroke="midnightblue" d="M1645.21,-118.483C1591.19,-108.979 1501.28,-92.937 1414.54,-76.2674"/>
<polygon fill="midnightblue" stroke="midnightblue" points="1415.01,-72.7934 1404.53,-74.3376 1413.68,-79.6669 1415.01,-72.7934"/>
</g>
<!-- Node35 -->
<g id="node35" class="node"><title>Node35</title>
<polygon fill="none" stroke="#bfbfbf" points="1422.5,-56.5 1422.5,-75.5 1491.5,-75.5 1491.5,-56.5 1422.5,-56.5"/>
<text text-anchor="middle" x="1457" y="-63.5" font-family="Helvetica,sans-Serif" font-size="10.00">TObjArray.h</text>
</g>
<!-- Node32&#45;&gt;Node35 -->
<g id="edge55" class="edge"><title>Node32&#45;&gt;Node35</title>
<path fill="none" stroke="midnightblue" d="M1660.3,-118.467C1618.27,-107.827 1546.36,-89.6215 1500.29,-77.9593"/>
<polygon fill="midnightblue" stroke="midnightblue" points="1501.14,-74.5647 1490.59,-75.5034 1499.42,-81.3506 1501.14,-74.5647"/>
</g>
<!-- Node36 -->
<g id="node36" class="node"><title>Node36</title>
<polygon fill="none" stroke="#bfbfbf" points="1509.5,-56.5 1509.5,-75.5 1596.5,-75.5 1596.5,-56.5 1509.5,-56.5"/>
<text text-anchor="middle" x="1553" y="-63.5" font-family="Helvetica,sans-Serif" font-size="10.00">TStreamerInfo.h</text>
</g>
<!-- Node32&#45;&gt;Node36 -->
<g id="edge56" class="edge"><title>Node32&#45;&gt;Node36</title>
<path fill="none" stroke="midnightblue" d="M1673.8,-118.403C1649.93,-108.245 1610,-91.2547 1582.63,-79.6074"/>
<polygon fill="midnightblue" stroke="midnightblue" points="1583.74,-76.2757 1573.16,-75.5806 1581,-82.7167 1583.74,-76.2757"/>
</g>
<!-- Node37 -->
<g id="node37" class="node"><title>Node37</title>
<polygon fill="none" stroke="#bfbfbf" points="1614.5,-56.5 1614.5,-75.5 1677.5,-75.5 1677.5,-56.5 1614.5,-56.5"/>
<text text-anchor="middle" x="1646" y="-63.5" font-family="Helvetica,sans-Serif" font-size="10.00">gsl/gsl_util</text>
</g>
<!-- Node32&#45;&gt;Node37 -->
<g id="edge57" class="edge"><title>Node32&#45;&gt;Node37</title>
<path fill="none" stroke="midnightblue" d="M1687.12,-118.403C1679.85,-109.314 1668.2,-94.7559 1659.16,-83.4489"/>
<polygon fill="midnightblue" stroke="midnightblue" points="1661.84,-81.2029 1652.86,-75.5806 1656.38,-85.5757 1661.84,-81.2029"/>
</g>
<!-- Node38 -->
<g id="node38" class="node"><title>Node38</title>
<polygon fill="none" stroke="#bfbfbf" points="1695.5,-56.5 1695.5,-75.5 1748.5,-75.5 1748.5,-56.5 1695.5,-56.5"/>
<text text-anchor="middle" x="1722" y="-63.5" font-family="Helvetica,sans-Serif" font-size="10.00">gsl/span</text>
</g>
<!-- Node32&#45;&gt;Node38 -->
<g id="edge58" class="edge"><title>Node32&#45;&gt;Node38</title>
<path fill="none" stroke="midnightblue" d="M1698.01,-118.403C1702.09,-109.671 1708.52,-95.8893 1713.7,-84.7936"/>
<polygon fill="midnightblue" stroke="midnightblue" points="1716.94,-86.1225 1718,-75.5806 1710.6,-83.1623 1716.94,-86.1225"/>
</g>
<!-- Node39 -->
<g id="node39" class="node"><title>Node39</title>
<polygon fill="none" stroke="#bfbfbf" points="1767,-56.5 1767,-75.5 1811,-75.5 1811,-56.5 1767,-56.5"/>
<text text-anchor="middle" x="1789" y="-63.5" font-family="Helvetica,sans-Serif" font-size="10.00">mutex</text>
</g>
<!-- Node32&#45;&gt;Node39 -->
<g id="edge60" class="edge"><title>Node32&#45;&gt;Node39</title>
<path fill="none" stroke="midnightblue" d="M1707.61,-118.403C1723.06,-108.646 1748.49,-92.5854 1766.82,-81.0109"/>
<polygon fill="midnightblue" stroke="midnightblue" points="1768.83,-83.8798 1775.41,-75.5806 1765.09,-77.9613 1768.83,-83.8798"/>
</g>
<!-- Node40&#45;&gt;Node20 -->
<g id="edge62" class="edge"><title>Node40&#45;&gt;Node20</title>
<path fill="none" stroke="midnightblue" d="M1111.99,-118.403C1107.91,-109.671 1101.48,-95.8893 1096.3,-84.7936"/>
<polygon fill="midnightblue" stroke="midnightblue" points="1099.4,-83.1623 1092,-75.5806 1093.06,-86.1225 1099.4,-83.1623"/>
</g>
</g>
</svg>
