<?xml version="1.0" encoding="UTF-8" standalone="no"?>
<!DOCTYPE svg PUBLIC "-//W3C//DTD SVG 1.1//EN"
 "http://www.w3.org/Graphics/SVG/1.1/DTD/svg11.dtd">
<!-- Generated by graphviz version 2.36.0 (20140111.2315)
 -->
<!-- Title: /home/travis/build/AliceO2Group/AliceO2/Detectors/ITSMFT/common/reconstruction/src/Clusterer.cxx Pages: 1 -->
<svg width="2142pt" height="538pt"
 viewBox="0.00 0.00 2142.00 538.00" xmlns="http://www.w3.org/2000/svg" xmlns:xlink="http://www.w3.org/1999/xlink">
<g id="graph0" class="graph" transform="scale(1 1) rotate(0) translate(4 534)">
<title>/home/travis/build/AliceO2Group/AliceO2/Detectors/ITSMFT/common/reconstruction/src/Clusterer.cxx</title>
<!-- Node1 -->
<g id="node1" class="node"><title>Node1</title>
<polygon fill="#bfbfbf" stroke="black" points="1500.5,-477 1500.5,-529 1659.5,-529 1659.5,-477 1500.5,-477"/>
<text text-anchor="start" x="1508.5" y="-517" font-family="Helvetica,sans-Serif" font-size="10.00">/home/travis/build</text>
<text text-anchor="start" x="1508.5" y="-506" font-family="Helvetica,sans-Serif" font-size="10.00">/AliceO2Group/AliceO2</text>
<text text-anchor="start" x="1508.5" y="-495" font-family="Helvetica,sans-Serif" font-size="10.00">/Detectors/ITSMFT/common</text>
<text text-anchor="middle" x="1580" y="-484" font-family="Helvetica,sans-Serif" font-size="10.00">/reconstruction/src/Clusterer.cxx</text>
</g>
<!-- Node2 -->
<g id="node2" class="node"><title>Node2</title>
<polygon fill="none" stroke="#bfbfbf" points="742,-414.5 742,-433.5 798,-433.5 798,-414.5 742,-414.5"/>
<text text-anchor="middle" x="770" y="-421.5" font-family="Helvetica,sans-Serif" font-size="10.00">algorithm</text>
</g>
<!-- Node1&#45;&gt;Node2 -->
<g id="edge1" class="edge"><title>Node1&#45;&gt;Node2</title>
<path fill="none" stroke="midnightblue" d="M1500.23,-502.402C1359.59,-501.601 1059.01,-493.11 812,-440 808.109,-439.163 804.087,-438.058 800.143,-436.825"/>
<polygon fill="midnightblue" stroke="midnightblue" points="801.217,-433.493 790.622,-433.58 798.958,-440.119 801.217,-433.493"/>
</g>
<!-- Node3 -->
<g id="node3" class="node"><title>Node3</title>
<polygon fill="none" stroke="#bfbfbf" points="841.5,-142.5 841.5,-161.5 912.5,-161.5 912.5,-142.5 841.5,-142.5"/>
<text text-anchor="middle" x="877" y="-149.5" font-family="Helvetica,sans-Serif" font-size="10.00">FairLogger.h</text>
</g>
<!-- Node1&#45;&gt;Node3 -->
<g id="edge2" class="edge"><title>Node1&#45;&gt;Node3</title>
<path fill="none" stroke="midnightblue" d="M1500.38,-494.997C1306.56,-476.885 826,-425.109 826,-357 826,-357 826,-357 826,-287 826,-242.611 850.747,-195.041 865.764,-170.262"/>
<polygon fill="midnightblue" stroke="midnightblue" points="868.81,-171.993 871.15,-161.66 862.877,-168.279 868.81,-171.993"/>
</g>
<!-- Node4 -->
<g id="node4" class="node"><title>Node4</title>
<g id="a_node4"><a xlink:href="../../d3/dba/SegmentationAlpide_8h.html" target="_top" xlink:title="Definition of the SegmentationAlpide class. ">
<polygon fill="none" stroke="black" points="1854.5,-414.5 1854.5,-433.5 2027.5,-433.5 2027.5,-414.5 1854.5,-414.5"/>
<text text-anchor="middle" x="1941" y="-421.5" font-family="Helvetica,sans-Serif" font-size="10.00">ITSMFTBase/SegmentationAlpide.h</text>
</a>
</g>
</g>
<!-- Node1&#45;&gt;Node4 -->
<g id="edge3" class="edge"><title>Node1&#45;&gt;Node4</title>
<path fill="none" stroke="midnightblue" d="M1659.67,-485.007C1730.33,-469.935 1831.35,-448.388 1891.15,-435.633"/>
<polygon fill="midnightblue" stroke="midnightblue" points="1892.05,-439.019 1901.1,-433.51 1890.59,-432.173 1892.05,-439.019"/>
</g>
<!-- Node6 -->
<g id="node6" class="node"><title>Node6</title>
<g id="a_node6"><a xlink:href="../../dc/de1/ITSMFT_2common_2reconstruction_2include_2ITSMFTReconstruction_2Cluster_8h.html" target="_top" xlink:title="ITSMFTReconstruction\l/Cluster.h">
<polygon fill="none" stroke="black" points="1227.5,-341 1227.5,-371 1346.5,-371 1346.5,-341 1227.5,-341"/>
<text text-anchor="start" x="1235.5" y="-359" font-family="Helvetica,sans-Serif" font-size="10.00">ITSMFTReconstruction</text>
<text text-anchor="middle" x="1287" y="-348" font-family="Helvetica,sans-Serif" font-size="10.00">/Cluster.h</text>
</a>
</g>
</g>
<!-- Node1&#45;&gt;Node6 -->
<g id="edge5" class="edge"><title>Node1&#45;&gt;Node6</title>
<path fill="none" stroke="midnightblue" d="M1529.3,-476.908C1471.01,-448.064 1376.7,-401.392 1324.6,-375.607"/>
<polygon fill="midnightblue" stroke="midnightblue" points="1325.9,-372.343 1315.38,-371.045 1322.79,-378.617 1325.9,-372.343"/>
</g>
<!-- Node33 -->
<g id="node33" class="node"><title>Node33</title>
<g id="a_node33"><a xlink:href="../../d6/d04/ITSMFT_2common_2reconstruction_2include_2ITSMFTReconstruction_2Clusterer_8h.html" target="_top" xlink:title="ITSMFTReconstruction\l/Clusterer.h">
<polygon fill="none" stroke="black" points="1520.5,-409 1520.5,-439 1639.5,-439 1639.5,-409 1520.5,-409"/>
<text text-anchor="start" x="1528.5" y="-427" font-family="Helvetica,sans-Serif" font-size="10.00">ITSMFTReconstruction</text>
<text text-anchor="middle" x="1580" y="-416" font-family="Helvetica,sans-Serif" font-size="10.00">/Clusterer.h</text>
</a>
</g>
</g>
<!-- Node1&#45;&gt;Node33 -->
<g id="edge41" class="edge"><title>Node1&#45;&gt;Node33</title>
<path fill="none" stroke="midnightblue" d="M1580,-476.787C1580,-468.029 1580,-458.225 1580,-449.523"/>
<polygon fill="midnightblue" stroke="midnightblue" points="1583.5,-449.252 1580,-439.252 1576.5,-449.252 1583.5,-449.252"/>
</g>
<!-- Node40 -->
<g id="node40" class="node"><title>Node40</title>
<g id="a_node40"><a xlink:href="../../d7/dcd/MCCompLabel_8h.html" target="_top" xlink:title="SimulationDataFormat\l/MCCompLabel.h">
<polygon fill="none" stroke="black" points="1723,-137 1723,-167 1837,-167 1837,-137 1723,-137"/>
<text text-anchor="start" x="1731" y="-155" font-family="Helvetica,sans-Serif" font-size="10.00">SimulationDataFormat</text>
<text text-anchor="middle" x="1780" y="-144" font-family="Helvetica,sans-Serif" font-size="10.00">/MCCompLabel.h</text>
</a>
</g>
</g>
<!-- Node1&#45;&gt;Node40 -->
<g id="edge59" class="edge"><title>Node1&#45;&gt;Node40</title>
<path fill="none" stroke="midnightblue" d="M1646.83,-476.999C1713.46,-447.561 1809.82,-391.315 1838,-304 1853,-257.541 1820.88,-204.549 1798.72,-175.32"/>
<polygon fill="midnightblue" stroke="midnightblue" points="1801.43,-173.101 1792.51,-167.388 1795.92,-177.418 1801.43,-173.101"/>
</g>
<!-- Node42 -->
<g id="node42" class="node"><title>Node42</title>
<g id="a_node42"><a xlink:href="../../db/d14/MCTruthContainer_8h.html" target="_top" xlink:title="Definition of a container to keep Monte Carlo truth external to simulation objects. ">
<polygon fill="none" stroke="black" points="1969,-137 1969,-167 2083,-167 2083,-137 1969,-137"/>
<text text-anchor="start" x="1977" y="-155" font-family="Helvetica,sans-Serif" font-size="10.00">SimulationDataFormat</text>
<text text-anchor="middle" x="2026" y="-144" font-family="Helvetica,sans-Serif" font-size="10.00">/MCTruthContainer.h</text>
</a>
</g>
</g>
<!-- Node1&#45;&gt;Node42 -->
<g id="edge60" class="edge"><title>Node1&#45;&gt;Node42</title>
<path fill="none" stroke="midnightblue" d="M1659.71,-501.653C1775.47,-499.455 1982.2,-488.607 2036,-440 2064.16,-414.562 2056,-394.945 2056,-357 2056,-357 2056,-357 2056,-287 2056,-247.644 2043.52,-203.322 2034.66,-176.806"/>
<polygon fill="midnightblue" stroke="midnightblue" points="2037.93,-175.552 2031.36,-167.241 2031.32,-177.835 2037.93,-175.552"/>
</g>
<!-- Node5 -->
<g id="node5" class="node"><title>Node5</title>
<polygon fill="none" stroke="#bfbfbf" points="1592,-74.5 1592,-93.5 1648,-93.5 1648,-74.5 1592,-74.5"/>
<text text-anchor="middle" x="1620" y="-81.5" font-family="Helvetica,sans-Serif" font-size="10.00">Rtypes.h</text>
</g>
<!-- Node4&#45;&gt;Node5 -->
<g id="edge4" class="edge"><title>Node4&#45;&gt;Node5</title>
<path fill="none" stroke="midnightblue" d="M1941,-414.22C1941,-392.814 1941,-336.226 1941,-289 1941,-289 1941,-289 1941,-219 1941,-173.482 1919.46,-160.339 1881,-136 1806.9,-89.1082 1772.91,-117.582 1687,-100 1677.65,-98.087 1667.6,-95.9037 1658.2,-93.8063"/>
<polygon fill="midnightblue" stroke="midnightblue" points="1658.84,-90.363 1648.31,-91.5809 1657.3,-97.192 1658.84,-90.363"/>
</g>
<!-- Node7 -->
<g id="node7" class="node"><title>Node7</title>
<g id="a_node7"><a xlink:href="../../d4/de2/BaseCluster_8h.html" target="_top" xlink:title="ReconstructionDataFormats\l/BaseCluster.h">
<polygon fill="none" stroke="black" points="1036,-273 1036,-303 1176,-303 1176,-273 1036,-273"/>
<text text-anchor="start" x="1044" y="-291" font-family="Helvetica,sans-Serif" font-size="10.00">ReconstructionDataFormats</text>
<text text-anchor="middle" x="1106" y="-280" font-family="Helvetica,sans-Serif" font-size="10.00">/BaseCluster.h</text>
</a>
</g>
</g>
<!-- Node6&#45;&gt;Node7 -->
<g id="edge6" class="edge"><title>Node6&#45;&gt;Node7</title>
<path fill="none" stroke="midnightblue" d="M1248.17,-340.841C1220.64,-330.802 1183.52,-317.265 1154.11,-306.542"/>
<polygon fill="midnightblue" stroke="midnightblue" points="1155.05,-303.159 1144.45,-303.022 1152.65,-309.736 1155.05,-303.159"/>
</g>
<!-- Node8 -->
<g id="node8" class="node"><title>Node8</title>
<polygon fill="none" stroke="#bfbfbf" points="1159.5,-210.5 1159.5,-229.5 1218.5,-229.5 1218.5,-210.5 1159.5,-210.5"/>
<text text-anchor="middle" x="1189" y="-217.5" font-family="Helvetica,sans-Serif" font-size="10.00">TObject.h</text>
</g>
<!-- Node7&#45;&gt;Node8 -->
<g id="edge7" class="edge"><title>Node7&#45;&gt;Node8</title>
<path fill="none" stroke="midnightblue" d="M1124.01,-272.679C1137.59,-261.879 1156.18,-247.098 1170,-236.11"/>
<polygon fill="midnightblue" stroke="midnightblue" points="1172.25,-238.792 1177.9,-229.828 1167.89,-233.313 1172.25,-238.792"/>
</g>
<!-- Node9 -->
<g id="node9" class="node"><title>Node9</title>
<polygon fill="none" stroke="#bfbfbf" points="1231.5,-74.5 1231.5,-93.5 1272.5,-93.5 1272.5,-74.5 1231.5,-74.5"/>
<text text-anchor="middle" x="1252" y="-81.5" font-family="Helvetica,sans-Serif" font-size="10.00">bitset</text>
</g>
<!-- Node7&#45;&gt;Node9 -->
<g id="edge8" class="edge"><title>Node7&#45;&gt;Node9</title>
<path fill="none" stroke="midnightblue" d="M1101.69,-272.974C1097.24,-255.788 1092.31,-226.219 1103,-204 1127.9,-152.242 1187.49,-115.982 1223.31,-97.9856"/>
<polygon fill="midnightblue" stroke="midnightblue" points="1224.84,-101.13 1232.3,-93.6006 1221.78,-94.838 1224.84,-101.13"/>
</g>
<!-- Node10 -->
<g id="node10" class="node"><title>Node10</title>
<polygon fill="none" stroke="#bfbfbf" points="968,-210.5 968,-229.5 1018,-229.5 1018,-210.5 968,-210.5"/>
<text text-anchor="middle" x="993" y="-217.5" font-family="Helvetica,sans-Serif" font-size="10.00">iomanip</text>
</g>
<!-- Node7&#45;&gt;Node10 -->
<g id="edge9" class="edge"><title>Node7&#45;&gt;Node10</title>
<path fill="none" stroke="midnightblue" d="M1081.76,-272.841C1062.48,-261.579 1035.65,-245.913 1016.55,-234.757"/>
<polygon fill="midnightblue" stroke="midnightblue" points="1018.26,-231.703 1007.86,-229.682 1014.73,-237.748 1018.26,-231.703"/>
</g>
<!-- Node11 -->
<g id="node11" class="node"><title>Node11</title>
<polygon fill="none" stroke="#bfbfbf" points="1112.5,-210.5 1112.5,-229.5 1141.5,-229.5 1141.5,-210.5 1112.5,-210.5"/>
<text text-anchor="middle" x="1127" y="-217.5" font-family="Helvetica,sans-Serif" font-size="10.00">ios</text>
</g>
<!-- Node7&#45;&gt;Node11 -->
<g id="edge10" class="edge"><title>Node7&#45;&gt;Node11</title>
<path fill="none" stroke="midnightblue" d="M1110.56,-272.679C1113.64,-262.999 1117.73,-250.123 1121.07,-239.645"/>
<polygon fill="midnightblue" stroke="midnightblue" points="1124.49,-240.419 1124.19,-229.828 1117.82,-238.296 1124.49,-240.419"/>
</g>
<!-- Node12 -->
<g id="node12" class="node"><title>Node12</title>
<polygon fill="none" stroke="#bfbfbf" points="0,-74.5 0,-93.5 54,-93.5 54,-74.5 0,-74.5"/>
<text text-anchor="middle" x="27" y="-81.5" font-family="Helvetica,sans-Serif" font-size="10.00">iostream</text>
</g>
<!-- Node7&#45;&gt;Node12 -->
<g id="edge11" class="edge"><title>Node7&#45;&gt;Node12</title>
<path fill="none" stroke="midnightblue" d="M1035.84,-279.756C866.084,-261.086 420.825,-205.261 63,-100 60.351,-99.2207 57.6324,-98.3091 54.9336,-97.327"/>
<polygon fill="midnightblue" stroke="midnightblue" points="55.9928,-93.9825 45.4058,-93.5724 53.4263,-100.495 55.9928,-93.9825"/>
</g>
<!-- Node13 -->
<g id="node13" class="node"><title>Node13</title>
<g id="a_node13"><a xlink:href="../../d4/d20/DetMatrixCache_8h.html" target="_top" xlink:title="DetectorsCommonDataFormats\l/DetMatrixCache.h">
<polygon fill="none" stroke="black" points="1237,-205 1237,-235 1393,-235 1393,-205 1237,-205"/>
<text text-anchor="start" x="1245" y="-223" font-family="Helvetica,sans-Serif" font-size="10.00">DetectorsCommonDataFormats</text>
<text text-anchor="middle" x="1315" y="-212" font-family="Helvetica,sans-Serif" font-size="10.00">/DetMatrixCache.h</text>
</a>
</g>
</g>
<!-- Node7&#45;&gt;Node13 -->
<g id="edge12" class="edge"><title>Node7&#45;&gt;Node13</title>
<path fill="none" stroke="midnightblue" d="M1150.58,-272.922C1182.77,-262.757 1226.41,-248.975 1260.65,-238.164"/>
<polygon fill="midnightblue" stroke="midnightblue" points="1262.01,-241.405 1270.49,-235.056 1259.9,-234.73 1262.01,-241.405"/>
</g>
<!-- Node23 -->
<g id="node23" class="node"><title>Node23</title>
<g id="a_node23"><a xlink:href="../../dd/d76/Cartesian3D_8h.html" target="_top" xlink:title="MathUtils/Cartesian3D.h">
<polygon fill="none" stroke="black" points="930.5,-142.5 930.5,-161.5 1055.5,-161.5 1055.5,-142.5 930.5,-142.5"/>
<text text-anchor="middle" x="993" y="-149.5" font-family="Helvetica,sans-Serif" font-size="10.00">MathUtils/Cartesian3D.h</text>
</a>
</g>
</g>
<!-- Node7&#45;&gt;Node23 -->
<g id="edge40" class="edge"><title>Node7&#45;&gt;Node23</title>
<path fill="none" stroke="midnightblue" d="M1093.91,-272.66C1072.83,-247.668 1029.49,-196.269 1007.09,-169.709"/>
<polygon fill="midnightblue" stroke="midnightblue" points="1009.48,-167.116 1000.36,-161.728 1004.13,-171.629 1009.48,-167.116"/>
</g>
<!-- Node13&#45;&gt;Node3 -->
<g id="edge13" class="edge"><title>Node13&#45;&gt;Node3</title>
<path fill="none" stroke="midnightblue" d="M1236.82,-205.459C1233.51,-204.952 1230.22,-204.464 1227,-204 1091.46,-184.489 1054.55,-198.262 921,-168 917.04,-167.103 912.937,-165.979 908.9,-164.752"/>
<polygon fill="midnightblue" stroke="midnightblue" points="909.713,-161.336 899.121,-161.56 907.542,-167.99 909.713,-161.336"/>
</g>
<!-- Node13&#45;&gt;Node5 -->
<g id="edge39" class="edge"><title>Node13&#45;&gt;Node5</title>
<path fill="none" stroke="midnightblue" d="M1336.13,-204.98C1350.9,-194.999 1370.96,-181.088 1388,-168 1405.51,-154.553 1406.4,-146.166 1426,-136 1476.48,-109.818 1541.49,-96.287 1581.96,-89.9203"/>
<polygon fill="midnightblue" stroke="midnightblue" points="1582.57,-93.3669 1591.94,-88.4169 1581.53,-86.445 1582.57,-93.3669"/>
</g>
<!-- Node14 -->
<g id="node14" class="node"><title>Node14</title>
<polygon fill="none" stroke="#bfbfbf" points="1282,-6.5 1282,-25.5 1320,-25.5 1320,-6.5 1282,-6.5"/>
<text text-anchor="middle" x="1301" y="-13.5" font-family="Helvetica,sans-Serif" font-size="10.00">array</text>
</g>
<!-- Node13&#45;&gt;Node14 -->
<g id="edge14" class="edge"><title>Node13&#45;&gt;Node14</title>
<path fill="none" stroke="midnightblue" d="M1262.05,-204.925C1243.56,-197.191 1224.76,-185.483 1214,-168 1203.67,-151.21 1212.22,-83.6867 1222,-68 1233.66,-49.2963 1254.99,-36.1365 1272.55,-27.8749"/>
<polygon fill="midnightblue" stroke="midnightblue" points="1274.09,-31.0198 1281.83,-23.7849 1271.27,-24.614 1274.09,-31.0198"/>
</g>
<!-- Node15 -->
<g id="node15" class="node"><title>Node15</title>
<polygon fill="none" stroke="#bfbfbf" points="1435,-142.5 1435,-161.5 1479,-161.5 1479,-142.5 1435,-142.5"/>
<text text-anchor="middle" x="1457" y="-149.5" font-family="Helvetica,sans-Serif" font-size="10.00">vector</text>
</g>
<!-- Node13&#45;&gt;Node15 -->
<g id="edge15" class="edge"><title>Node13&#45;&gt;Node15</title>
<path fill="none" stroke="midnightblue" d="M1345.46,-204.841C1370.24,-193.323 1404.94,-177.199 1429.02,-166.004"/>
<polygon fill="midnightblue" stroke="midnightblue" points="1430.73,-169.071 1438.32,-161.682 1427.78,-162.723 1430.73,-169.071"/>
</g>
<!-- Node16 -->
<g id="node16" class="node"><title>Node16</title>
<g id="a_node16"><a xlink:href="../../d6/d31/DetID_8h.html" target="_top" xlink:title="DetectorsCommonDataFormats\l/DetID.h">
<polygon fill="none" stroke="black" points="1223,-137 1223,-167 1379,-167 1379,-137 1223,-137"/>
<text text-anchor="start" x="1231" y="-155" font-family="Helvetica,sans-Serif" font-size="10.00">DetectorsCommonDataFormats</text>
<text text-anchor="middle" x="1301" y="-144" font-family="Helvetica,sans-Serif" font-size="10.00">/DetID.h</text>
</a>
</g>
</g>
<!-- Node13&#45;&gt;Node16 -->
<g id="edge16" class="edge"><title>Node13&#45;&gt;Node16</title>
<path fill="none" stroke="midnightblue" d="M1311.96,-204.679C1310.26,-196.636 1308.08,-186.385 1306.12,-177.137"/>
<polygon fill="midnightblue" stroke="midnightblue" points="1309.53,-176.349 1304.03,-167.293 1302.68,-177.802 1309.53,-176.349"/>
</g>
<!-- Node13&#45;&gt;Node23 -->
<g id="edge27" class="edge"><title>Node13&#45;&gt;Node23</title>
<path fill="none" stroke="midnightblue" d="M1246.32,-204.922C1185.81,-192.52 1099.02,-174.731 1044.36,-163.526"/>
<polygon fill="midnightblue" stroke="midnightblue" points="1045.04,-160.093 1034.54,-161.514 1043.63,-166.951 1045.04,-160.093"/>
</g>
<!-- Node16&#45;&gt;Node5 -->
<g id="edge17" class="edge"><title>Node16&#45;&gt;Node5</title>
<path fill="none" stroke="midnightblue" d="M1369.04,-136.922C1433.89,-123.506 1529.19,-103.788 1581.73,-92.9187"/>
<polygon fill="midnightblue" stroke="midnightblue" points="1582.56,-96.3208 1591.64,-90.8673 1581.14,-89.466 1582.56,-96.3208"/>
</g>
<!-- Node16&#45;&gt;Node9 -->
<g id="edge19" class="edge"><title>Node16&#45;&gt;Node9</title>
<path fill="none" stroke="midnightblue" d="M1290.37,-136.679C1282.8,-126.49 1272.61,-112.759 1264.63,-102.011"/>
<polygon fill="midnightblue" stroke="midnightblue" points="1267.33,-99.7711 1258.55,-93.8283 1261.71,-103.944 1267.33,-99.7711"/>
</g>
<!-- Node16&#45;&gt;Node14 -->
<g id="edge18" class="edge"><title>Node16&#45;&gt;Node14</title>
<path fill="none" stroke="midnightblue" d="M1301,-136.66C1301,-112.32 1301,-62.9332 1301,-35.8373"/>
<polygon fill="midnightblue" stroke="midnightblue" points="1304.5,-35.7275 1301,-25.7275 1297.5,-35.7276 1304.5,-35.7275"/>
</g>
<!-- Node17 -->
<g id="node17" class="node"><title>Node17</title>
<polygon fill="none" stroke="#bfbfbf" points="1696.5,-74.5 1696.5,-93.5 1745.5,-93.5 1745.5,-74.5 1696.5,-74.5"/>
<text text-anchor="middle" x="1721" y="-81.5" font-family="Helvetica,sans-Serif" font-size="10.00">cassert</text>
</g>
<!-- Node16&#45;&gt;Node17 -->
<g id="edge20" class="edge"><title>Node16&#45;&gt;Node17</title>
<path fill="none" stroke="midnightblue" d="M1379.22,-141.683C1451.36,-132.637 1561.28,-117.7 1656,-100 1665.97,-98.1369 1676.73,-95.793 1686.56,-93.5153"/>
<polygon fill="midnightblue" stroke="midnightblue" points="1687.48,-96.8944 1696.41,-91.1887 1685.87,-90.082 1687.48,-96.8944"/>
</g>
<!-- Node18 -->
<g id="node18" class="node"><title>Node18</title>
<polygon fill="none" stroke="#bfbfbf" points="1437,-74.5 1437,-93.5 1483,-93.5 1483,-74.5 1437,-74.5"/>
<text text-anchor="middle" x="1460" y="-81.5" font-family="Helvetica,sans-Serif" font-size="10.00">cstdint</text>
</g>
<!-- Node16&#45;&gt;Node18 -->
<g id="edge21" class="edge"><title>Node16&#45;&gt;Node18</title>
<path fill="none" stroke="midnightblue" d="M1337.63,-136.923C1363.12,-126.972 1397.82,-113.12 1428,-100 1429.59,-99.3105 1431.21,-98.5909 1432.85,-97.8563"/>
<polygon fill="midnightblue" stroke="midnightblue" points="1434.51,-100.942 1442.14,-93.5888 1431.59,-94.5807 1434.51,-100.942"/>
</g>
<!-- Node19 -->
<g id="node19" class="node"><title>Node19</title>
<polygon fill="none" stroke="#bfbfbf" points="1822,-74.5 1822,-93.5 1884,-93.5 1884,-74.5 1822,-74.5"/>
<text text-anchor="middle" x="1853" y="-81.5" font-family="Helvetica,sans-Serif" font-size="10.00">type_traits</text>
</g>
<!-- Node16&#45;&gt;Node19 -->
<g id="edge22" class="edge"><title>Node16&#45;&gt;Node19</title>
<path fill="none" stroke="midnightblue" d="M1379,-141.516C1394.57,-139.659 1410.8,-137.746 1426,-136 1571.7,-119.263 1608.58,-118.989 1754,-100 1773.02,-97.5163 1794.04,-94.3869 1811.8,-91.6299"/>
<polygon fill="midnightblue" stroke="midnightblue" points="1812.5,-95.0628 1821.83,-90.0573 1811.41,-88.1471 1812.5,-95.0628"/>
</g>
<!-- Node20 -->
<g id="node20" class="node"><title>Node20</title>
<g id="a_node20"><a xlink:href="../../d9/ded/Utils_8h.html" target="_top" xlink:title="General auxilliary methods. ">
<polygon fill="none" stroke="black" points="1329,-74.5 1329,-93.5 1419,-93.5 1419,-74.5 1329,-74.5"/>
<text text-anchor="middle" x="1374" y="-81.5" font-family="Helvetica,sans-Serif" font-size="10.00">MathUtils/Utils.h</text>
</a>
</g>
</g>
<!-- Node16&#45;&gt;Node20 -->
<g id="edge23" class="edge"><title>Node16&#45;&gt;Node20</title>
<path fill="none" stroke="midnightblue" d="M1316.84,-136.679C1328.56,-126.082 1344.52,-111.655 1356.59,-100.736"/>
<polygon fill="midnightblue" stroke="midnightblue" points="1359.16,-103.131 1364.24,-93.8283 1354.47,-97.9386 1359.16,-103.131"/>
</g>
<!-- Node20&#45;&gt;Node14 -->
<g id="edge24" class="edge"><title>Node20&#45;&gt;Node14</title>
<path fill="none" stroke="midnightblue" d="M1364.46,-74.3717C1352.83,-63.8564 1332.95,-45.8819 1318.53,-32.8496"/>
<polygon fill="midnightblue" stroke="midnightblue" points="1320.54,-29.9514 1310.78,-25.8411 1315.85,-35.1438 1320.54,-29.9514"/>
</g>
<!-- Node21 -->
<g id="node21" class="node"><title>Node21</title>
<polygon fill="none" stroke="#bfbfbf" points="1345,-6.5 1345,-25.5 1389,-25.5 1389,-6.5 1345,-6.5"/>
<text text-anchor="middle" x="1367" y="-13.5" font-family="Helvetica,sans-Serif" font-size="10.00">cmath</text>
</g>
<!-- Node20&#45;&gt;Node21 -->
<g id="edge25" class="edge"><title>Node20&#45;&gt;Node21</title>
<path fill="none" stroke="midnightblue" d="M1373.08,-74.3717C1372.05,-64.6426 1370.34,-48.528 1369,-35.8504"/>
<polygon fill="midnightblue" stroke="midnightblue" points="1372.47,-35.4162 1367.94,-25.8411 1365.51,-36.1545 1372.47,-35.4162"/>
</g>
<!-- Node22 -->
<g id="node22" class="node"><title>Node22</title>
<g id="a_node22"><a xlink:href="../../d6/d84/MathConstants_8h.html" target="_top" xlink:title="useful math constants ">
<polygon fill="none" stroke="black" points="1407.5,-6.5 1407.5,-25.5 1586.5,-25.5 1586.5,-6.5 1407.5,-6.5"/>
<text text-anchor="middle" x="1497" y="-13.5" font-family="Helvetica,sans-Serif" font-size="10.00">CommonConstants/MathConstants.h</text>
</a>
</g>
</g>
<!-- Node20&#45;&gt;Node22 -->
<g id="edge26" class="edge"><title>Node20&#45;&gt;Node22</title>
<path fill="none" stroke="midnightblue" d="M1390.08,-74.3717C1410.89,-63.2051 1447.38,-43.6266 1471.86,-30.4876"/>
<polygon fill="midnightblue" stroke="midnightblue" points="1473.76,-33.4428 1480.92,-25.6305 1470.45,-27.2746 1473.76,-33.4428"/>
</g>
<!-- Node23&#45;&gt;Node5 -->
<g id="edge33" class="edge"><title>Node23&#45;&gt;Node5</title>
<path fill="none" stroke="midnightblue" d="M1055.66,-144.897C1150.24,-135.615 1335.1,-117.21 1492,-100 1522.2,-96.6872 1556.38,-92.6685 1581.81,-89.6248"/>
<polygon fill="midnightblue" stroke="midnightblue" points="1582.28,-93.0934 1591.8,-88.4266 1581.45,-86.1433 1582.28,-93.0934"/>
</g>
<!-- Node23&#45;&gt;Node12 -->
<g id="edge35" class="edge"><title>Node23&#45;&gt;Node12</title>
<path fill="none" stroke="midnightblue" d="M957.67,-142.439C946.056,-139.948 933.037,-137.496 921,-136 542.246,-88.9214 435.606,-182.681 63,-100 59.9263,-99.318 56.7815,-98.3888 53.6928,-97.3248"/>
<polygon fill="midnightblue" stroke="midnightblue" points="54.7611,-93.9845 44.1731,-93.6038 52.2127,-100.504 54.7611,-93.9845"/>
</g>
<!-- Node24 -->
<g id="node24" class="node"><title>Node24</title>
<polygon fill="none" stroke="#bfbfbf" points="72.5,-69 72.5,-99 223.5,-99 223.5,-69 72.5,-69"/>
<text text-anchor="start" x="80.5" y="-87" font-family="Helvetica,sans-Serif" font-size="10.00">Math/GenVector/Displacement</text>
<text text-anchor="middle" x="148" y="-76" font-family="Helvetica,sans-Serif" font-size="10.00">Vector3D.h</text>
</g>
<!-- Node23&#45;&gt;Node24 -->
<g id="edge28" class="edge"><title>Node23&#45;&gt;Node24</title>
<path fill="none" stroke="midnightblue" d="M957.293,-142.435C945.772,-139.974 932.903,-137.542 921,-136 620.604,-97.0824 538.974,-133.863 233.949,-100.003"/>
<polygon fill="midnightblue" stroke="midnightblue" points="234.262,-96.5159 223.933,-98.8744 233.478,-103.472 234.262,-96.5159"/>
</g>
<!-- Node25 -->
<g id="node25" class="node"><title>Node25</title>
<polygon fill="none" stroke="#bfbfbf" points="242,-74.5 242,-93.5 418,-93.5 418,-74.5 242,-74.5"/>
<text text-anchor="middle" x="330" y="-81.5" font-family="Helvetica,sans-Serif" font-size="10.00">Math/GenVector/PositionVector3D.h</text>
</g>
<!-- Node23&#45;&gt;Node25 -->
<g id="edge29" class="edge"><title>Node23&#45;&gt;Node25</title>
<path fill="none" stroke="midnightblue" d="M956.536,-142.423C945.204,-140.023 932.634,-137.628 921,-136 702.546,-105.438 645.154,-125.048 426,-100 414.216,-98.6532 401.663,-96.9146 389.652,-95.1011"/>
<polygon fill="midnightblue" stroke="midnightblue" points="390.137,-91.6346 379.72,-93.5671 389.069,-98.5525 390.137,-91.6346"/>
</g>
<!-- Node26 -->
<g id="node26" class="node"><title>Node26</title>
<polygon fill="none" stroke="#bfbfbf" points="435.5,-74.5 435.5,-93.5 584.5,-93.5 584.5,-74.5 435.5,-74.5"/>
<text text-anchor="middle" x="510" y="-81.5" font-family="Helvetica,sans-Serif" font-size="10.00">Math/GenVector/Rotation3D.h</text>
</g>
<!-- Node23&#45;&gt;Node26 -->
<g id="edge30" class="edge"><title>Node23&#45;&gt;Node26</title>
<path fill="none" stroke="midnightblue" d="M955.384,-142.454C944.345,-140.139 932.223,-137.783 921,-136 776.599,-113.064 738.715,-120.863 594,-100 584.532,-98.6351 574.497,-97.0044 564.782,-95.3289"/>
<polygon fill="midnightblue" stroke="midnightblue" points="565.267,-91.8605 554.812,-93.5759 564.054,-98.7548 565.267,-91.8605"/>
</g>
<!-- Node27 -->
<g id="node27" class="node"><title>Node27</title>
<polygon fill="none" stroke="#bfbfbf" points="603,-74.5 603,-93.5 759,-93.5 759,-74.5 603,-74.5"/>
<text text-anchor="middle" x="681" y="-81.5" font-family="Helvetica,sans-Serif" font-size="10.00">Math/GenVector/Transform3D.h</text>
</g>
<!-- Node23&#45;&gt;Node27 -->
<g id="edge31" class="edge"><title>Node23&#45;&gt;Node27</title>
<path fill="none" stroke="midnightblue" d="M952.531,-142.439C895.835,-130.446 792.821,-108.654 731.275,-95.6351"/>
<polygon fill="midnightblue" stroke="midnightblue" points="731.905,-92.191 721.397,-93.5455 730.456,-99.0394 731.905,-92.191"/>
</g>
<!-- Node28 -->
<g id="node28" class="node"><title>Node28</title>
<polygon fill="none" stroke="#bfbfbf" points="777,-74.5 777,-93.5 937,-93.5 937,-74.5 777,-74.5"/>
<text text-anchor="middle" x="857" y="-81.5" font-family="Helvetica,sans-Serif" font-size="10.00">Math/GenVector/Translation3D.h</text>
</g>
<!-- Node23&#45;&gt;Node28 -->
<g id="edge32" class="edge"><title>Node23&#45;&gt;Node28</title>
<path fill="none" stroke="midnightblue" d="M975.22,-142.372C952.007,-131.106 911.151,-111.279 884.077,-98.1403"/>
<polygon fill="midnightblue" stroke="midnightblue" points="885.309,-94.8477 874.784,-93.6305 882.252,-101.145 885.309,-94.8477"/>
</g>
<!-- Node29 -->
<g id="node29" class="node"><title>Node29</title>
<polygon fill="none" stroke="#bfbfbf" points="955,-74.5 955,-93.5 1031,-93.5 1031,-74.5 955,-74.5"/>
<text text-anchor="middle" x="993" y="-81.5" font-family="Helvetica,sans-Serif" font-size="10.00">TGeoMatrix.h</text>
</g>
<!-- Node23&#45;&gt;Node29 -->
<g id="edge34" class="edge"><title>Node23&#45;&gt;Node29</title>
<path fill="none" stroke="midnightblue" d="M993,-142.372C993,-132.643 993,-116.528 993,-103.85"/>
<polygon fill="midnightblue" stroke="midnightblue" points="996.5,-103.841 993,-93.8411 989.5,-103.841 996.5,-103.841"/>
</g>
<!-- Node30 -->
<g id="node30" class="node"><title>Node30</title>
<g id="a_node30"><a xlink:href="../../d2/dd0/Cartesian2D_8h.html" target="_top" xlink:title="MathUtils/Cartesian2D.h">
<polygon fill="none" stroke="black" points="1049.5,-74.5 1049.5,-93.5 1174.5,-93.5 1174.5,-74.5 1049.5,-74.5"/>
<text text-anchor="middle" x="1112" y="-81.5" font-family="Helvetica,sans-Serif" font-size="10.00">MathUtils/Cartesian2D.h</text>
</a>
</g>
</g>
<!-- Node23&#45;&gt;Node30 -->
<g id="edge36" class="edge"><title>Node23&#45;&gt;Node30</title>
<path fill="none" stroke="midnightblue" d="M1008.56,-142.372C1028.69,-131.205 1063.99,-111.627 1087.68,-98.4876"/>
<polygon fill="midnightblue" stroke="midnightblue" points="1089.39,-101.541 1096.44,-93.6305 1086,-95.4199 1089.39,-101.541"/>
</g>
<!-- Node31 -->
<g id="node31" class="node"><title>Node31</title>
<polygon fill="none" stroke="#bfbfbf" points="886.5,-1 886.5,-31 1037.5,-31 1037.5,-1 886.5,-1"/>
<text text-anchor="start" x="894.5" y="-19" font-family="Helvetica,sans-Serif" font-size="10.00">Math/GenVector/Displacement</text>
<text text-anchor="middle" x="962" y="-8" font-family="Helvetica,sans-Serif" font-size="10.00">Vector2D.h</text>
</g>
<!-- Node30&#45;&gt;Node31 -->
<g id="edge37" class="edge"><title>Node30&#45;&gt;Node31</title>
<path fill="none" stroke="midnightblue" d="M1092.39,-74.3717C1069.92,-64.4829 1032.45,-47.9973 1003.43,-35.2289"/>
<polygon fill="midnightblue" stroke="midnightblue" points="1004.51,-31.8801 993.946,-31.0562 1001.69,-38.2873 1004.51,-31.8801"/>
</g>
<!-- Node32 -->
<g id="node32" class="node"><title>Node32</title>
<polygon fill="none" stroke="#bfbfbf" points="1056,-6.5 1056,-25.5 1232,-25.5 1232,-6.5 1056,-6.5"/>
<text text-anchor="middle" x="1144" y="-13.5" font-family="Helvetica,sans-Serif" font-size="10.00">Math/GenVector/PositionVector2D.h</text>
</g>
<!-- Node30&#45;&gt;Node32 -->
<g id="edge38" class="edge"><title>Node30&#45;&gt;Node32</title>
<path fill="none" stroke="midnightblue" d="M1116.18,-74.3717C1121,-64.4461 1129.03,-47.8743 1135.23,-35.0864"/>
<polygon fill="midnightblue" stroke="midnightblue" points="1138.5,-36.3662 1139.71,-25.8411 1132.2,-33.3123 1138.5,-36.3662"/>
</g>
<!-- Node33&#45;&gt;Node5 -->
<g id="edge58" class="edge"><title>Node33&#45;&gt;Node5</title>
<path fill="none" stroke="midnightblue" d="M1639.64,-411.838C1699.2,-397.461 1788.78,-366.477 1838,-304 1876.14,-255.595 1858.97,-229.328 1865,-168 1866.39,-153.846 1874,-147.008 1865,-136 1813.9,-73.5261 1765.94,-116.818 1687,-100 1677.58,-97.9937 1667.44,-95.7599 1657.96,-93.6421"/>
<polygon fill="midnightblue" stroke="midnightblue" points="1658.53,-90.183 1648.01,-91.4058 1657,-97.0127 1658.53,-90.183"/>
</g>
<!-- Node33&#45;&gt;Node6 -->
<g id="edge48" class="edge"><title>Node33&#45;&gt;Node6</title>
<path fill="none" stroke="midnightblue" d="M1520.35,-409.564C1472.92,-398.88 1406.48,-383.914 1356.62,-372.682"/>
<polygon fill="midnightblue" stroke="midnightblue" points="1357.09,-369.2 1346.56,-370.417 1355.55,-376.029 1357.09,-369.2"/>
</g>
<!-- Node33&#45;&gt;Node15 -->
<g id="edge43" class="edge"><title>Node33&#45;&gt;Node15</title>
<path fill="none" stroke="midnightblue" d="M1583.84,-408.833C1587.72,-392.013 1592.21,-363.306 1585,-340 1562.78,-268.2 1502.44,-199.424 1473.25,-169.143"/>
<polygon fill="midnightblue" stroke="midnightblue" points="1475.4,-166.338 1465.9,-161.652 1470.41,-171.241 1475.4,-166.338"/>
</g>
<!-- Node34 -->
<g id="node34" class="node"><title>Node34</title>
<polygon fill="none" stroke="#bfbfbf" points="1536,-346.5 1536,-365.5 1576,-365.5 1576,-346.5 1536,-346.5"/>
<text text-anchor="middle" x="1556" y="-353.5" font-family="Helvetica,sans-Serif" font-size="10.00">utility</text>
</g>
<!-- Node33&#45;&gt;Node34 -->
<g id="edge42" class="edge"><title>Node33&#45;&gt;Node34</title>
<path fill="none" stroke="midnightblue" d="M1574.79,-408.679C1571.24,-398.898 1566.49,-385.852 1562.66,-375.315"/>
<polygon fill="midnightblue" stroke="midnightblue" points="1565.92,-374.03 1559.21,-365.828 1559.34,-376.422 1565.92,-374.03"/>
</g>
<!-- Node35 -->
<g id="node35" class="node"><title>Node35</title>
<g id="a_node35"><a xlink:href="../../d0/d2d/common_2base_2include_2ITSMFTBase_2GeometryTGeo_8h.html" target="_top" xlink:title="ITSMFTBase/GeometryTGeo.h">
<polygon fill="none" stroke="black" points="1364.5,-346.5 1364.5,-365.5 1517.5,-365.5 1517.5,-346.5 1364.5,-346.5"/>
<text text-anchor="middle" x="1441" y="-353.5" font-family="Helvetica,sans-Serif" font-size="10.00">ITSMFTBase/GeometryTGeo.h</text>
</a>
</g>
</g>
<!-- Node33&#45;&gt;Node35 -->
<g id="edge44" class="edge"><title>Node33&#45;&gt;Node35</title>
<path fill="none" stroke="midnightblue" d="M1550.18,-408.841C1525.92,-397.323 1491.96,-381.199 1468.39,-370.004"/>
<polygon fill="midnightblue" stroke="midnightblue" points="1469.82,-366.809 1459.28,-365.682 1466.82,-373.133 1469.82,-366.809"/>
</g>
<!-- Node38 -->
<g id="node38" class="node"><title>Node38</title>
<g id="a_node38"><a xlink:href="../../df/d2e/PixelReader_8h.html" target="_top" xlink:title="Definition of the ITS pixel reader. ">
<polygon fill="none" stroke="black" points="1710.5,-273 1710.5,-303 1829.5,-303 1829.5,-273 1710.5,-273"/>
<text text-anchor="start" x="1718.5" y="-291" font-family="Helvetica,sans-Serif" font-size="10.00">ITSMFTReconstruction</text>
<text text-anchor="middle" x="1770" y="-280" font-family="Helvetica,sans-Serif" font-size="10.00">/PixelReader.h</text>
</a>
</g>
</g>
<!-- Node33&#45;&gt;Node38 -->
<g id="edge49" class="edge"><title>Node33&#45;&gt;Node38</title>
<path fill="none" stroke="midnightblue" d="M1599.97,-408.913C1633.9,-384.987 1702.87,-336.343 1741.74,-308.934"/>
<polygon fill="midnightblue" stroke="midnightblue" points="1743.85,-311.723 1750.01,-303.099 1739.82,-306.003 1743.85,-311.723"/>
</g>
<!-- Node35&#45;&gt;Node13 -->
<g id="edge47" class="edge"><title>Node35&#45;&gt;Node13</title>
<path fill="none" stroke="midnightblue" d="M1427.46,-346.477C1413.2,-337.116 1390.57,-321.122 1374,-304 1356.26,-285.671 1339.78,-261.638 1328.77,-244.153"/>
<polygon fill="midnightblue" stroke="midnightblue" points="1331.47,-241.865 1323.24,-235.19 1325.51,-245.539 1331.47,-241.865"/>
</g>
<!-- Node36 -->
<g id="node36" class="node"><title>Node36</title>
<polygon fill="none" stroke="#bfbfbf" points="1442.5,-278.5 1442.5,-297.5 1511.5,-297.5 1511.5,-278.5 1442.5,-278.5"/>
<text text-anchor="middle" x="1477" y="-285.5" font-family="Helvetica,sans-Serif" font-size="10.00">TObjArray.h</text>
</g>
<!-- Node35&#45;&gt;Node36 -->
<g id="edge45" class="edge"><title>Node35&#45;&gt;Node36</title>
<path fill="none" stroke="midnightblue" d="M1445.71,-346.372C1451.17,-336.348 1460.34,-319.546 1467.34,-306.708"/>
<polygon fill="midnightblue" stroke="midnightblue" points="1470.46,-308.296 1472.18,-297.841 1464.32,-304.944 1470.46,-308.296"/>
</g>
<!-- Node37 -->
<g id="node37" class="node"><title>Node37</title>
<polygon fill="none" stroke="#bfbfbf" points="1383.5,-278.5 1383.5,-297.5 1424.5,-297.5 1424.5,-278.5 1383.5,-278.5"/>
<text text-anchor="middle" x="1404" y="-285.5" font-family="Helvetica,sans-Serif" font-size="10.00">string</text>
</g>
<!-- Node35&#45;&gt;Node37 -->
<g id="edge46" class="edge"><title>Node35&#45;&gt;Node37</title>
<path fill="none" stroke="midnightblue" d="M1436.16,-346.372C1430.54,-336.348 1421.12,-319.546 1413.93,-306.708"/>
<polygon fill="midnightblue" stroke="midnightblue" points="1416.9,-304.852 1408.96,-297.841 1410.79,-308.275 1416.9,-304.852"/>
</g>
<!-- Node38&#45;&gt;Node5 -->
<g id="edge50" class="edge"><title>Node38&#45;&gt;Node5</title>
<path fill="none" stroke="midnightblue" d="M1786.98,-272.979C1818.93,-244.915 1881.74,-180.7 1846,-136 1845.81,-135.768 1722.24,-107.972 1657.92,-93.5191"/>
<polygon fill="midnightblue" stroke="midnightblue" points="1658.66,-90.0979 1648.14,-91.3203 1657.13,-96.9276 1658.66,-90.0979"/>
</g>
<!-- Node39 -->
<g id="node39" class="node"><title>Node39</title>
<g id="a_node39"><a xlink:href="../../d0/d06/ITSMFT_2common_2base_2include_2ITSMFTBase_2Digit_8h.html" target="_top" xlink:title="ITSMFTBase/Digit.h">
<polygon fill="none" stroke="black" points="1634.5,-210.5 1634.5,-229.5 1741.5,-229.5 1741.5,-210.5 1634.5,-210.5"/>
<text text-anchor="middle" x="1688" y="-217.5" font-family="Helvetica,sans-Serif" font-size="10.00">ITSMFTBase/Digit.h</text>
</a>
</g>
</g>
<!-- Node38&#45;&gt;Node39 -->
<g id="edge51" class="edge"><title>Node38&#45;&gt;Node39</title>
<path fill="none" stroke="midnightblue" d="M1752.21,-272.679C1738.79,-261.879 1720.43,-247.098 1706.77,-236.11"/>
<polygon fill="midnightblue" stroke="midnightblue" points="1708.95,-233.372 1698.97,-229.828 1704.56,-238.825 1708.95,-233.372"/>
</g>
<!-- Node38&#45;&gt;Node40 -->
<g id="edge57" class="edge"><title>Node38&#45;&gt;Node40</title>
<path fill="none" stroke="midnightblue" d="M1771.07,-272.66C1772.77,-249.891 1776.1,-205.203 1778.18,-177.349"/>
<polygon fill="midnightblue" stroke="midnightblue" points="1781.68,-177.47 1778.94,-167.237 1774.7,-176.949 1781.68,-177.47"/>
</g>
<!-- Node39&#45;&gt;Node5 -->
<g id="edge52" class="edge"><title>Node39&#45;&gt;Node5</title>
<path fill="none" stroke="midnightblue" d="M1653.44,-210.433C1608.21,-198.873 1533.72,-178.52 1526,-168 1517.59,-156.532 1518.73,-148.222 1526,-136 1538.21,-115.477 1561.89,-102.703 1582.42,-95.0711"/>
<polygon fill="midnightblue" stroke="midnightblue" points="1583.56,-98.3803 1591.88,-91.8218 1581.28,-91.7599 1583.56,-98.3803"/>
</g>
<!-- Node39&#45;&gt;Node40 -->
<g id="edge53" class="edge"><title>Node39&#45;&gt;Node40</title>
<path fill="none" stroke="midnightblue" d="M1700.03,-210.372C1713.17,-200.943 1734.67,-185.517 1752.07,-173.034"/>
<polygon fill="midnightblue" stroke="midnightblue" points="1754.15,-175.854 1760.23,-167.181 1750.07,-170.167 1754.15,-175.854"/>
</g>
<!-- Node41 -->
<g id="node41" class="node"><title>Node41</title>
<g id="a_node41"><a xlink:href="../../df/d5d/common_2include_2CommonDataFormat_2TimeStamp_8h.html" target="_top" xlink:title="CommonDataFormat/TimeStamp.h">
<polygon fill="none" stroke="black" points="1535,-142.5 1535,-161.5 1705,-161.5 1705,-142.5 1535,-142.5"/>
<text text-anchor="middle" x="1620" y="-149.5" font-family="Helvetica,sans-Serif" font-size="10.00">CommonDataFormat/TimeStamp.h</text>
</a>
</g>
</g>
<!-- Node39&#45;&gt;Node41 -->
<g id="edge55" class="edge"><title>Node39&#45;&gt;Node41</title>
<path fill="none" stroke="midnightblue" d="M1679.11,-210.372C1668.28,-199.856 1649.76,-181.882 1636.33,-168.85"/>
<polygon fill="midnightblue" stroke="midnightblue" points="1638.72,-166.294 1629.11,-161.841 1633.85,-171.317 1638.72,-166.294"/>
</g>
<!-- Node40&#45;&gt;Node5 -->
<g id="edge54" class="edge"><title>Node40&#45;&gt;Node5</title>
<path fill="none" stroke="midnightblue" d="M1745.68,-136.841C1717.38,-125.169 1677.62,-108.768 1650.44,-97.5585"/>
<polygon fill="midnightblue" stroke="midnightblue" points="1651.63,-94.2597 1641.05,-93.6819 1648.96,-100.731 1651.63,-94.2597"/>
</g>
<!-- Node41&#45;&gt;Node5 -->
<g id="edge56" class="edge"><title>Node41&#45;&gt;Node5</title>
<path fill="none" stroke="midnightblue" d="M1620,-142.372C1620,-132.643 1620,-116.528 1620,-103.85"/>
<polygon fill="midnightblue" stroke="midnightblue" points="1623.5,-103.841 1620,-93.8411 1616.5,-103.841 1623.5,-103.841"/>
</g>
<!-- Node42&#45;&gt;Node17 -->
<g id="edge62" class="edge"><title>Node42&#45;&gt;Node17</title>
<path fill="none" stroke="midnightblue" d="M1968.99,-138.663C1906.4,-125.12 1807.91,-103.807 1755.88,-92.5488"/>
<polygon fill="midnightblue" stroke="midnightblue" points="1756.33,-89.0651 1745.82,-90.3709 1754.85,-95.9068 1756.33,-89.0651"/>
</g>
<!-- Node42&#45;&gt;Node19 -->
<g id="edge65" class="edge"><title>Node42&#45;&gt;Node19</title>
<path fill="none" stroke="midnightblue" d="M1988.89,-136.841C1958.02,-125.067 1914.55,-108.48 1885.15,-97.2647"/>
<polygon fill="midnightblue" stroke="midnightblue" points="1886.35,-93.9763 1875.76,-93.6819 1883.85,-100.517 1886.35,-93.9763"/>
</g>
<!-- Node43 -->
<g id="node43" class="node"><title>Node43</title>
<polygon fill="none" stroke="#bfbfbf" points="1995,-74.5 1995,-93.5 2057,-93.5 2057,-74.5 1995,-74.5"/>
<text text-anchor="middle" x="2026" y="-81.5" font-family="Helvetica,sans-Serif" font-size="10.00">TNamed.h</text>
</g>
<!-- Node42&#45;&gt;Node43 -->
<g id="edge61" class="edge"><title>Node42&#45;&gt;Node43</title>
<path fill="none" stroke="midnightblue" d="M2026,-136.679C2026,-127.101 2026,-114.394 2026,-103.977"/>
<polygon fill="midnightblue" stroke="midnightblue" points="2029.5,-103.828 2026,-93.8283 2022.5,-103.828 2029.5,-103.828"/>
</g>
<!-- Node44 -->
<g id="node44" class="node"><title>Node44</title>
<polygon fill="none" stroke="#bfbfbf" points="2075.5,-74.5 2075.5,-93.5 2134.5,-93.5 2134.5,-74.5 2075.5,-74.5"/>
<text text-anchor="middle" x="2105" y="-81.5" font-family="Helvetica,sans-Serif" font-size="10.00">stdexcept</text>
</g>
<!-- Node42&#45;&gt;Node44 -->
<g id="edge63" class="edge"><title>Node42&#45;&gt;Node44</title>
<path fill="none" stroke="midnightblue" d="M2043.14,-136.679C2055.95,-125.981 2073.43,-111.377 2086.54,-100.422"/>
<polygon fill="midnightblue" stroke="midnightblue" points="2089,-102.926 2094.43,-93.8283 2084.51,-97.5537 2089,-102.926"/>
</g>
<!-- Node45 -->
<g id="node45" class="node"><title>Node45</title>
<polygon fill="none" stroke="#bfbfbf" points="1931.5,-74.5 1931.5,-93.5 1976.5,-93.5 1976.5,-74.5 1931.5,-74.5"/>
<text text-anchor="middle" x="1954" y="-81.5" font-family="Helvetica,sans-Serif" font-size="10.00">gsl/gsl</text>
</g>
<!-- Node42&#45;&gt;Node45 -->
<g id="edge64" class="edge"><title>Node42&#45;&gt;Node45</title>
<path fill="none" stroke="midnightblue" d="M2010.38,-136.679C1998.82,-126.082 1983.08,-111.655 1971.17,-100.736"/>
<polygon fill="midnightblue" stroke="midnightblue" points="1973.37,-98.0055 1963.63,-93.8283 1968.64,-103.166 1973.37,-98.0055"/>
</g>
</g>
</svg>
