<?xml version="1.0" encoding="UTF-8" standalone="no"?>
<!DOCTYPE svg PUBLIC "-//W3C//DTD SVG 1.1//EN"
 "http://www.w3.org/Graphics/SVG/1.1/DTD/svg11.dtd">
<!-- Generated by graphviz version 2.36.0 (20140111.2315)
 -->
<!-- Title: /home/travis/build/AliceO2Group/AliceO2/Common/Utils/include/CommonUtils/TreeStream.h Pages: 1 -->
<svg width="474pt" height="242pt"
 viewBox="0.00 0.00 474.00 242.00" xmlns="http://www.w3.org/2000/svg" xmlns:xlink="http://www.w3.org/1999/xlink">
<g id="graph0" class="graph" transform="scale(1 1) rotate(0) translate(4 238)">
<title>/home/travis/build/AliceO2Group/AliceO2/Common/Utils/include/CommonUtils/TreeStream.h</title>
<!-- Node1 -->
<g id="node1" class="node"><title>Node1</title>
<polygon fill="#bfbfbf" stroke="black" points="195,-181 195,-233 337,-233 337,-181 195,-181"/>
<text text-anchor="start" x="203" y="-221" font-family="Helvetica,sans-Serif" font-size="10.00">/home/travis/build</text>
<text text-anchor="start" x="203" y="-210" font-family="Helvetica,sans-Serif" font-size="10.00">/AliceO2Group/AliceO2</text>
<text text-anchor="start" x="203" y="-199" font-family="Helvetica,sans-Serif" font-size="10.00">/Common/Utils/include</text>
<text text-anchor="middle" x="266" y="-188" font-family="Helvetica,sans-Serif" font-size="10.00">/CommonUtils/TreeStream.h</text>
</g>
<!-- Node2 -->
<g id="node2" class="node"><title>Node2</title>
<g id="a_node2"><a xlink:href="../../d1/d22/TreeStreamRedirector_8h.html" target="_top" xlink:title="/home/travis/build\l/AliceO2Group/AliceO2\l/Common/Utils/include\l/CommonUtils/TreeStreamRedirector.h">
<polygon fill="none" stroke="black" points="51.5,-91 51.5,-143 238.5,-143 238.5,-91 51.5,-91"/>
<text text-anchor="start" x="59.5" y="-131" font-family="Helvetica,sans-Serif" font-size="10.00">/home/travis/build</text>
<text text-anchor="start" x="59.5" y="-120" font-family="Helvetica,sans-Serif" font-size="10.00">/AliceO2Group/AliceO2</text>
<text text-anchor="start" x="59.5" y="-109" font-family="Helvetica,sans-Serif" font-size="10.00">/Common/Utils/include</text>
<text text-anchor="middle" x="145" y="-98" font-family="Helvetica,sans-Serif" font-size="10.00">/CommonUtils/TreeStreamRedirector.h</text>
</a>
</g>
</g>
<!-- Node1&#45;&gt;Node2 -->
<g id="edge1" class="edge"><title>Node1&#45;&gt;Node2</title>
<path fill="none" stroke="midnightblue" d="M223.133,-174.824C208.892,-164.467 193.223,-153.071 179.679,-143.221"/>
<polygon fill="midnightblue" stroke="midnightblue" points="221.18,-177.732 231.326,-180.783 225.297,-172.07 221.18,-177.732"/>
</g>
<!-- Node4 -->
<g id="node4" class="node"><title>Node4</title>
<g id="a_node4"><a xlink:href="../../dd/d75/testTreeStream_8cxx.html" target="_top" xlink:title="/home/travis/build\l/AliceO2Group/AliceO2\l/Common/Utils/test/testTreeStream.cxx">
<polygon fill="none" stroke="black" points="170.5,-6.5 170.5,-47.5 361.5,-47.5 361.5,-6.5 170.5,-6.5"/>
<text text-anchor="start" x="178.5" y="-35.5" font-family="Helvetica,sans-Serif" font-size="10.00">/home/travis/build</text>
<text text-anchor="start" x="178.5" y="-24.5" font-family="Helvetica,sans-Serif" font-size="10.00">/AliceO2Group/AliceO2</text>
<text text-anchor="middle" x="266" y="-13.5" font-family="Helvetica,sans-Serif" font-size="10.00">/Common/Utils/test/testTreeStream.cxx</text>
</a>
</g>
</g>
<!-- Node1&#45;&gt;Node4 -->
<g id="edge5" class="edge"><title>Node1&#45;&gt;Node4</title>
<path fill="none" stroke="midnightblue" d="M266,-170.552C266,-133.608 266,-77.0659 266,-47.5196"/>
<polygon fill="midnightblue" stroke="midnightblue" points="262.5,-170.874 266,-180.874 269.5,-170.875 262.5,-170.874"/>
</g>
<!-- Node5 -->
<g id="node5" class="node"><title>Node5</title>
<g id="a_node5"><a xlink:href="../../dd/dc1/TreeStream_8cxx.html" target="_top" xlink:title="/home/travis/build\l/AliceO2Group/AliceO2\l/Common/Utils/src/TreeStream.cxx">
<polygon fill="none" stroke="black" points="294,-96.5 294,-137.5 466,-137.5 466,-96.5 294,-96.5"/>
<text text-anchor="start" x="302" y="-125.5" font-family="Helvetica,sans-Serif" font-size="10.00">/home/travis/build</text>
<text text-anchor="start" x="302" y="-114.5" font-family="Helvetica,sans-Serif" font-size="10.00">/AliceO2Group/AliceO2</text>
<text text-anchor="middle" x="380" y="-103.5" font-family="Helvetica,sans-Serif" font-size="10.00">/Common/Utils/src/TreeStream.cxx</text>
</a>
</g>
</g>
<!-- Node1&#45;&gt;Node5 -->
<g id="edge4" class="edge"><title>Node1&#45;&gt;Node5</title>
<path fill="none" stroke="midnightblue" d="M306.806,-174.501C322.745,-162.197 340.527,-148.47 354.572,-137.628"/>
<polygon fill="midnightblue" stroke="midnightblue" points="304.445,-171.902 298.668,-180.783 308.722,-177.443 304.445,-171.902"/>
</g>
<!-- Node3 -->
<g id="node3" class="node"><title>Node3</title>
<g id="a_node3"><a xlink:href="../../d8/dc3/TreeStreamRedirector_8cxx.html" target="_top" xlink:title="/home/travis/build\l/AliceO2Group/AliceO2\l/Common/Utils/src/TreeStream\lRedirector.cxx">
<polygon fill="none" stroke="black" points="-0.5,-1 -0.5,-53 152.5,-53 152.5,-1 -0.5,-1"/>
<text text-anchor="start" x="7.5" y="-41" font-family="Helvetica,sans-Serif" font-size="10.00">/home/travis/build</text>
<text text-anchor="start" x="7.5" y="-30" font-family="Helvetica,sans-Serif" font-size="10.00">/AliceO2Group/AliceO2</text>
<text text-anchor="start" x="7.5" y="-19" font-family="Helvetica,sans-Serif" font-size="10.00">/Common/Utils/src/TreeStream</text>
<text text-anchor="middle" x="76" y="-8" font-family="Helvetica,sans-Serif" font-size="10.00">Redirector.cxx</text>
</a>
</g>
</g>
<!-- Node2&#45;&gt;Node3 -->
<g id="edge2" class="edge"><title>Node2&#45;&gt;Node3</title>
<path fill="none" stroke="midnightblue" d="M118.774,-82.5528C111.107,-72.7746 102.861,-62.2575 95.6745,-53.0921"/>
<polygon fill="midnightblue" stroke="midnightblue" points="116.118,-84.837 125.042,-90.5468 121.626,-80.5177 116.118,-84.837"/>
</g>
<!-- Node2&#45;&gt;Node4 -->
<g id="edge3" class="edge"><title>Node2&#45;&gt;Node4</title>
<path fill="none" stroke="midnightblue" d="M187.846,-84.8392C204.883,-72.4489 223.966,-58.5699 239.011,-47.6283"/>
<polygon fill="midnightblue" stroke="midnightblue" points="185.703,-82.0704 179.674,-90.7827 189.82,-87.7316 185.703,-82.0704"/>
</g>
</g>
</svg>
