<?xml version="1.0" encoding="UTF-8" standalone="no"?>
<!DOCTYPE svg PUBLIC "-//W3C//DTD SVG 1.1//EN"
 "http://www.w3.org/Graphics/SVG/1.1/DTD/svg11.dtd">
<!-- Generated by graphviz version 2.36.0 (20140111.2315)
 -->
<!-- Title: o2::TPC::Digit Pages: 1 -->
<svg width="104pt" height="316pt"
 viewBox="0.00 0.00 104.00 316.00" xmlns="http://www.w3.org/2000/svg" xmlns:xlink="http://www.w3.org/1999/xlink">
<g id="graph0" class="graph" transform="scale(1 1) rotate(0) translate(4 312)">
<title>o2::TPC::Digit</title>
<!-- Node1 -->
<g id="node1" class="node"><title>Node1</title>
<polygon fill="#bfbfbf" stroke="black" points="-1,-1 -1,-179 97,-179 97,-1 -1,-1"/>
<text text-anchor="middle" x="48" y="-167" font-family="Helvetica,sans-Serif" font-size="10.00">o2::TPC::Digit</text>
<polyline fill="none" stroke="black" points="-1,-160 97,-160 "/>
<text text-anchor="start" x="7" y="-148" font-family="Helvetica,sans-Serif" font-size="10.00"># mCharge</text>
<text text-anchor="start" x="7" y="-137" font-family="Helvetica,sans-Serif" font-size="10.00"># mCRU</text>
<text text-anchor="start" x="7" y="-126" font-family="Helvetica,sans-Serif" font-size="10.00"># mRow</text>
<text text-anchor="start" x="7" y="-115" font-family="Helvetica,sans-Serif" font-size="10.00"># mPad</text>
<polyline fill="none" stroke="black" points="-1,-108 97,-108 "/>
<text text-anchor="start" x="7" y="-96" font-family="Helvetica,sans-Serif" font-size="10.00">+ Digit()</text>
<text text-anchor="start" x="7" y="-85" font-family="Helvetica,sans-Serif" font-size="10.00">+ Digit()</text>
<text text-anchor="start" x="7" y="-74" font-family="Helvetica,sans-Serif" font-size="10.00">+ ~Digit()</text>
<text text-anchor="start" x="7" y="-63" font-family="Helvetica,sans-Serif" font-size="10.00">+ getCharge()</text>
<text text-anchor="start" x="7" y="-52" font-family="Helvetica,sans-Serif" font-size="10.00">+ getChargeFloat()</text>
<text text-anchor="start" x="7" y="-41" font-family="Helvetica,sans-Serif" font-size="10.00">+ getCRU()</text>
<text text-anchor="start" x="7" y="-30" font-family="Helvetica,sans-Serif" font-size="10.00">+ getRow()</text>
<text text-anchor="start" x="7" y="-19" font-family="Helvetica,sans-Serif" font-size="10.00">+ getPad()</text>
<text text-anchor="start" x="7" y="-8" font-family="Helvetica,sans-Serif" font-size="10.00"># ClassDefNV()</text>
</g>
<!-- Node2 -->
<g id="node2" class="node"><title>Node2</title>
<g id="a_node2"><a xlink:href="../../d0/d94/classo2_1_1dataformats_1_1TimeStamp.html" target="_top" xlink:title="{DigitBase\n||+ TimeStamp()\l+ TimeStamp()\l+ getTimeStamp()\l+ setTimeStamp()\l}">
<polygon fill="none" stroke="black" points="0.5,-217 0.5,-307 95.5,-307 95.5,-217 0.5,-217"/>
<text text-anchor="middle" x="48" y="-295" font-family="Helvetica,sans-Serif" font-size="10.00">DigitBase</text>
<polyline fill="none" stroke="black" points="0.5,-288 95.5,-288 "/>
<text text-anchor="middle" x="48" y="-276" font-family="Helvetica,sans-Serif" font-size="10.00"> </text>
<polyline fill="none" stroke="black" points="0.5,-269 95.5,-269 "/>
<text text-anchor="start" x="8.5" y="-257" font-family="Helvetica,sans-Serif" font-size="10.00">+ TimeStamp()</text>
<text text-anchor="start" x="8.5" y="-246" font-family="Helvetica,sans-Serif" font-size="10.00">+ TimeStamp()</text>
<text text-anchor="start" x="8.5" y="-235" font-family="Helvetica,sans-Serif" font-size="10.00">+ getTimeStamp()</text>
<text text-anchor="start" x="8.5" y="-224" font-family="Helvetica,sans-Serif" font-size="10.00">+ setTimeStamp()</text>
</a>
</g>
</g>
<!-- Node2&#45;&gt;Node1 -->
<g id="edge1" class="edge"><title>Node2&#45;&gt;Node1</title>
<path fill="none" stroke="midnightblue" d="M48,-206.695C48,-197.884 48,-188.564 48,-179.192"/>
<polygon fill="none" stroke="midnightblue" points="44.5001,-206.778 48,-216.778 51.5001,-206.778 44.5001,-206.778"/>
</g>
</g>
</svg>
