<?xml version="1.0" encoding="UTF-8" standalone="no"?>
<!DOCTYPE svg PUBLIC "-//W3C//DTD SVG 1.1//EN"
 "http://www.w3.org/Graphics/SVG/1.1/DTD/svg11.dtd">
<!-- Generated by graphviz version 2.36.0 (20140111.2315)
 -->
<!-- Title: /home/travis/build/AliceO2Group/AliceO2/Detectors/TPC/simulation/test/testTPCCommonMode.cxx Pages: 1 -->
<!--zoomable 658 -->
<svg id="main" version="1.1" xmlns="http://www.w3.org/2000/svg" xmlns:xlink="http://www.w3.org/1999/xlink" xml:space="preserve" onload="init(evt)">
<style type="text/css"><![CDATA[
.edge:hover path { stroke: red; }
.edge:hover polygon { stroke: red; fill: red; }
]]></style>
<script type="text/javascript"><![CDATA[
var edges = document.getElementsByTagName('g');
if (edges && edges.length) {
  for (var i=0;i<edges.length;i++) {
    if (edges[i].id.substr(0,4)=='edge') {
      edges[i].setAttribute('class','edge');
    }
  }
}
]]></script>
        <defs>
                <circle id="rim" cx="0" cy="0" r="7"/>
                <circle id="rim2" cx="0" cy="0" r="3.5"/>
                <g id="zoomPlus">
                        <use xlink:href="#rim" fill="#404040">
                                <set attributeName="fill" to="#808080" begin="zoomplus.mouseover" end="zoomplus.mouseout"/>
                        </use>
                        <path d="M-4,0h8M0,-4v8" fill="none" stroke="white" stroke-width="1.5" pointer-events="none"/>
                </g>
                <g id="zoomMin">
                        <use xlink:href="#rim" fill="#404040">
                                <set attributeName="fill" to="#808080" begin="zoomminus.mouseover" end="zoomminus.mouseout"/>
                        </use>
                        <path d="M-4,0h8" fill="none" stroke="white" stroke-width="1.5" pointer-events="none"/>
                </g>
                <g id="dirArrow">
                        <path fill="none" stroke="white" stroke-width="1.5" d="M0,-3.0v7 M-2.5,-0.5L0,-3.0L2.5,-0.5"/>
                </g>
               <g id="resetDef">
                       <use xlink:href="#rim2" fill="#404040">
                               <set attributeName="fill" to="#808080" begin="reset.mouseover" end="reset.mouseout"/>
                       </use>
               </g>
        </defs>

<script type="text/javascript">
var viewWidth = 1300;
var viewHeight = 658;
var sectionId = 'dynsection-0';
</script>
<script xlink:href="../../svgpan.js"/>
<svg id="graph" class="graph">
<g id="viewport">
<title>/home/travis/build/AliceO2Group/AliceO2/Detectors/TPC/simulation/test/testTPCCommonMode.cxx</title>
<!-- Node1 -->
<g id="node1" class="node"><title>Node1</title>
<polygon fill="#bfbfbf" stroke="black" points="467,-597 467,-649 625,-649 625,-597 467,-597"/>
<text text-anchor="start" x="475" y="-637" font-family="Helvetica,sans-Serif" font-size="10.00">/home/travis/build</text>
<text text-anchor="start" x="475" y="-626" font-family="Helvetica,sans-Serif" font-size="10.00">/AliceO2Group/AliceO2</text>
<text text-anchor="start" x="475" y="-615" font-family="Helvetica,sans-Serif" font-size="10.00">/Detectors/TPC/simulation</text>
<text text-anchor="middle" x="546" y="-604" font-family="Helvetica,sans-Serif" font-size="10.00">/test/testTPCCommonMode.cxx</text>
</g>
<!-- Node2 -->
<g id="node2" class="node"><title>Node2</title>
<polygon fill="none" stroke="#bfbfbf" points="334.5,-534.5 334.5,-553.5 453.5,-553.5 453.5,-534.5 334.5,-534.5"/>
<text text-anchor="middle" x="394" y="-541.5" font-family="Helvetica,sans-Serif" font-size="10.00">boost/test/unit_test.hpp</text>
</g>
<!-- Node1&#45;&gt;Node2 -->
<g id="edge1" class="edge"><title>Node1&#45;&gt;Node2</title>
<path fill="none" stroke="midnightblue" d="M496.23,-596.787C470.817,-583.914 440.944,-568.781 420.076,-558.21"/>
<polygon fill="midnightblue" stroke="midnightblue" points="421.395,-554.955 410.893,-553.558 418.232,-561.199 421.395,-554.955"/>
</g>
<!-- Node3 -->
<g id="node3" class="node"><title>Node3</title>
<g id="a_node3"><a xlink:href="../../d6/dba/CommonModeContainer_8h.html" target="_top" xlink:title="Definition of the Common Mode computation. ">
<polygon fill="none" stroke="black" points="471.5,-529 471.5,-559 620.5,-559 620.5,-529 471.5,-529"/>
<text text-anchor="start" x="479.5" y="-547" font-family="Helvetica,sans-Serif" font-size="10.00">TPCSimulation/CommonMode</text>
<text text-anchor="middle" x="546" y="-536" font-family="Helvetica,sans-Serif" font-size="10.00">Container.h</text>
</a>
</g>
</g>
<!-- Node1&#45;&gt;Node3 -->
<g id="edge2" class="edge"><title>Node1&#45;&gt;Node3</title>
<path fill="none" stroke="midnightblue" d="M546,-596.787C546,-588.029 546,-578.225 546,-569.523"/>
<polygon fill="midnightblue" stroke="midnightblue" points="549.5,-569.252 546,-559.252 542.5,-569.252 549.5,-569.252"/>
</g>
<!-- Node21 -->
<g id="node21" class="node"><title>Node21</title>
<g id="a_node21"><a xlink:href="../../d7/d2c/Mapper_8h.html" target="_top" xlink:title="TPCBase/Mapper.h">
<polygon fill="none" stroke="black" points="596.5,-472.5 596.5,-491.5 699.5,-491.5 699.5,-472.5 596.5,-472.5"/>
<text text-anchor="middle" x="648" y="-479.5" font-family="Helvetica,sans-Serif" font-size="10.00">TPCBase/Mapper.h</text>
</a>
</g>
</g>
<!-- Node1&#45;&gt;Node21 -->
<g id="edge54" class="edge"><title>Node1&#45;&gt;Node21</title>
<path fill="none" stroke="midnightblue" d="M591.123,-596.785C605.106,-586.963 619.358,-574.54 629,-560 640.624,-542.472 645.141,-518.447 646.894,-501.919"/>
<polygon fill="midnightblue" stroke="midnightblue" points="650.39,-502.098 647.719,-491.846 643.414,-501.527 650.39,-502.098"/>
</g>
<!-- Node4 -->
<g id="node4" class="node"><title>Node4</title>
<g id="a_node4"><a xlink:href="../../dc/d14/ROC_8h.html" target="_top" xlink:title="TPCBase/ROC.h">
<polygon fill="none" stroke="black" points="482.5,-304.5 482.5,-323.5 575.5,-323.5 575.5,-304.5 482.5,-304.5"/>
<text text-anchor="middle" x="529" y="-311.5" font-family="Helvetica,sans-Serif" font-size="10.00">TPCBase/ROC.h</text>
</a>
</g>
</g>
<!-- Node3&#45;&gt;Node4 -->
<g id="edge3" class="edge"><title>Node3&#45;&gt;Node4</title>
<path fill="none" stroke="midnightblue" d="M482.194,-528.951C433.587,-514.537 369.924,-486.796 339,-436 321.435,-407.148 318.048,-386.494 339,-360 355.426,-339.229 422.571,-327.05 472.409,-320.712"/>
<polygon fill="midnightblue" stroke="midnightblue" points="472.94,-324.174 482.441,-319.485 472.09,-317.225 472.94,-324.174"/>
</g>
<!-- Node3&#45;&gt;Node21 -->
<g id="edge22" class="edge"><title>Node3&#45;&gt;Node21</title>
<path fill="none" stroke="midnightblue" d="M569.914,-528.933C586.355,-519.262 608.085,-506.479 624.447,-496.855"/>
<polygon fill="midnightblue" stroke="midnightblue" points="626.535,-499.687 633.38,-491.6 622.986,-493.654 626.535,-499.687"/>
</g>
<!-- Node34 -->
<g id="node34" class="node"><title>Node34</title>
<polygon fill="none" stroke="#bfbfbf" points="524.5,-472.5 524.5,-491.5 567.5,-491.5 567.5,-472.5 524.5,-472.5"/>
<text text-anchor="middle" x="546" y="-479.5" font-family="Helvetica,sans-Serif" font-size="10.00">deque</text>
</g>
<!-- Node3&#45;&gt;Node34 -->
<g id="edge53" class="edge"><title>Node3&#45;&gt;Node34</title>
<path fill="none" stroke="midnightblue" d="M546,-528.781C546,-520.781 546,-510.689 546,-502.017"/>
<polygon fill="midnightblue" stroke="midnightblue" points="549.5,-501.73 546,-491.731 542.5,-501.731 549.5,-501.73"/>
</g>
<!-- Node5 -->
<g id="node5" class="node"><title>Node5</title>
<g id="a_node5"><a xlink:href="../../d1/d73/Defs_8h.html" target="_top" xlink:title="Common definitions for 2D coordinates. ">
<polygon fill="none" stroke="black" points="677,-192.5 677,-211.5 769,-211.5 769,-192.5 677,-192.5"/>
<text text-anchor="middle" x="723" y="-199.5" font-family="Helvetica,sans-Serif" font-size="10.00">TPCBase/Defs.h</text>
</a>
</g>
</g>
<!-- Node4&#45;&gt;Node5 -->
<g id="edge4" class="edge"><title>Node4&#45;&gt;Node5</title>
<path fill="none" stroke="midnightblue" d="M535.079,-304.123C545.017,-290.245 566.053,-263.407 590,-248 614.613,-232.165 645.393,-221.285 671.142,-214.195"/>
<polygon fill="midnightblue" stroke="midnightblue" points="672.326,-217.503 681.104,-211.57 670.542,-210.734 672.326,-217.503"/>
</g>
<!-- Node19 -->
<g id="node19" class="node"><title>Node19</title>
<g id="a_node19"><a xlink:href="../../d3/dd6/Sector_8h.html" target="_top" xlink:title="TPCBase/Sector.h">
<polygon fill="none" stroke="black" points="404.5,-248.5 404.5,-267.5 503.5,-267.5 503.5,-248.5 404.5,-248.5"/>
<text text-anchor="middle" x="454" y="-255.5" font-family="Helvetica,sans-Serif" font-size="10.00">TPCBase/Sector.h</text>
</a>
</g>
</g>
<!-- Node4&#45;&gt;Node19 -->
<g id="edge19" class="edge"><title>Node4&#45;&gt;Node19</title>
<path fill="none" stroke="midnightblue" d="M516.95,-304.324C505.537,-296.107 488.169,-283.602 474.565,-273.807"/>
<polygon fill="midnightblue" stroke="midnightblue" points="476.43,-270.837 466.269,-267.834 472.34,-276.517 476.43,-270.837"/>
</g>
<!-- Node6 -->
<g id="node6" class="node"><title>Node6</title>
<polygon fill="none" stroke="#bfbfbf" points="1039,-136.5 1039,-155.5 1083,-155.5 1083,-136.5 1039,-136.5"/>
<text text-anchor="middle" x="1061" y="-143.5" font-family="Helvetica,sans-Serif" font-size="10.00">cmath</text>
</g>
<!-- Node5&#45;&gt;Node6 -->
<g id="edge5" class="edge"><title>Node5&#45;&gt;Node6</title>
<path fill="none" stroke="midnightblue" d="M769.289,-193.605C838.877,-182.487 968.69,-161.748 1028.86,-152.135"/>
<polygon fill="midnightblue" stroke="midnightblue" points="1029.59,-155.563 1038.91,-150.529 1028.49,-148.65 1029.59,-155.563"/>
</g>
<!-- Node7 -->
<g id="node7" class="node"><title>Node7</title>
<g id="a_node7"><a xlink:href="../../d2/dd0/Cartesian2D_8h.html" target="_top" xlink:title="MathUtils/Cartesian2D.h">
<polygon fill="none" stroke="black" points="1050.5,-74.5 1050.5,-93.5 1175.5,-93.5 1175.5,-74.5 1050.5,-74.5"/>
<text text-anchor="middle" x="1113" y="-81.5" font-family="Helvetica,sans-Serif" font-size="10.00">MathUtils/Cartesian2D.h</text>
</a>
</g>
</g>
<!-- Node5&#45;&gt;Node7 -->
<g id="edge6" class="edge"><title>Node5&#45;&gt;Node7</title>
<path fill="none" stroke="midnightblue" d="M751.678,-192.47C820.702,-171.94 996.144,-119.757 1074.35,-96.4951"/>
<polygon fill="midnightblue" stroke="midnightblue" points="1075.69,-99.748 1084.28,-93.5423 1073.7,-93.0385 1075.69,-99.748"/>
</g>
<!-- Node10 -->
<g id="node10" class="node"><title>Node10</title>
<g id="a_node10"><a xlink:href="../../dd/d76/Cartesian3D_8h.html" target="_top" xlink:title="MathUtils/Cartesian3D.h">
<polygon fill="none" stroke="black" points="556.5,-136.5 556.5,-155.5 681.5,-155.5 681.5,-136.5 556.5,-136.5"/>
<text text-anchor="middle" x="619" y="-143.5" font-family="Helvetica,sans-Serif" font-size="10.00">MathUtils/Cartesian3D.h</text>
</a>
</g>
</g>
<!-- Node5&#45;&gt;Node10 -->
<g id="edge9" class="edge"><title>Node5&#45;&gt;Node10</title>
<path fill="none" stroke="midnightblue" d="M706.291,-192.324C689.688,-183.703 663.998,-170.364 644.78,-160.386"/>
<polygon fill="midnightblue" stroke="midnightblue" points="646.156,-157.156 635.668,-155.655 642.93,-163.369 646.156,-157.156"/>
</g>
<!-- Node8 -->
<g id="node8" class="node"><title>Node8</title>
<polygon fill="none" stroke="#bfbfbf" points="946.5,-1 946.5,-31 1097.5,-31 1097.5,-1 946.5,-1"/>
<text text-anchor="start" x="954.5" y="-19" font-family="Helvetica,sans-Serif" font-size="10.00">Math/GenVector/Displacement</text>
<text text-anchor="middle" x="1022" y="-8" font-family="Helvetica,sans-Serif" font-size="10.00">Vector2D.h</text>
</g>
<!-- Node7&#45;&gt;Node8 -->
<g id="edge7" class="edge"><title>Node7&#45;&gt;Node8</title>
<path fill="none" stroke="midnightblue" d="M1101.1,-74.3717C1088.22,-65.0286 1067.22,-49.7966 1050.09,-37.375"/>
<polygon fill="midnightblue" stroke="midnightblue" points="1051.7,-34.2194 1041.55,-31.1815 1047.59,-39.8859 1051.7,-34.2194"/>
</g>
<!-- Node9 -->
<g id="node9" class="node"><title>Node9</title>
<polygon fill="none" stroke="#bfbfbf" points="1116,-6.5 1116,-25.5 1292,-25.5 1292,-6.5 1116,-6.5"/>
<text text-anchor="middle" x="1204" y="-13.5" font-family="Helvetica,sans-Serif" font-size="10.00">Math/GenVector/PositionVector2D.h</text>
</g>
<!-- Node7&#45;&gt;Node9 -->
<g id="edge8" class="edge"><title>Node7&#45;&gt;Node9</title>
<path fill="none" stroke="midnightblue" d="M1124.9,-74.3717C1139.88,-63.5015 1165.86,-44.6602 1183.94,-31.5474"/>
<polygon fill="midnightblue" stroke="midnightblue" points="1186.06,-34.3349 1192.1,-25.6305 1181.95,-28.6684 1186.06,-34.3349"/>
</g>
<!-- Node10&#45;&gt;Node7 -->
<g id="edge18" class="edge"><title>Node10&#45;&gt;Node7</title>
<path fill="none" stroke="midnightblue" d="M681.816,-140.259C764.483,-133.573 914.169,-119.924 1041,-100 1048.89,-98.76 1057.23,-97.23 1065.32,-95.6257"/>
<polygon fill="midnightblue" stroke="midnightblue" points="1066.29,-99.0002 1075.39,-93.5703 1064.89,-92.1417 1066.29,-99.0002"/>
</g>
<!-- Node11 -->
<g id="node11" class="node"><title>Node11</title>
<polygon fill="none" stroke="#bfbfbf" points="520.5,-69 520.5,-99 671.5,-99 671.5,-69 520.5,-69"/>
<text text-anchor="start" x="528.5" y="-87" font-family="Helvetica,sans-Serif" font-size="10.00">Math/GenVector/Displacement</text>
<text text-anchor="middle" x="596" y="-76" font-family="Helvetica,sans-Serif" font-size="10.00">Vector3D.h</text>
</g>
<!-- Node10&#45;&gt;Node11 -->
<g id="edge10" class="edge"><title>Node10&#45;&gt;Node11</title>
<path fill="none" stroke="midnightblue" d="M615.705,-136.403C612.939,-129.189 608.852,-118.528 605.117,-108.782"/>
<polygon fill="midnightblue" stroke="midnightblue" points="608.268,-107.225 601.421,-99.1408 601.732,-109.731 608.268,-107.225"/>
</g>
<!-- Node12 -->
<g id="node12" class="node"><title>Node12</title>
<polygon fill="none" stroke="#bfbfbf" points="690,-74.5 690,-93.5 866,-93.5 866,-74.5 690,-74.5"/>
<text text-anchor="middle" x="778" y="-81.5" font-family="Helvetica,sans-Serif" font-size="10.00">Math/GenVector/PositionVector3D.h</text>
</g>
<!-- Node10&#45;&gt;Node12 -->
<g id="edge11" class="edge"><title>Node10&#45;&gt;Node12</title>
<path fill="none" stroke="midnightblue" d="M641.781,-136.403C669.055,-126.111 714.913,-108.806 745.801,-97.1504"/>
<polygon fill="midnightblue" stroke="midnightblue" points="747.141,-100.386 755.261,-93.5806 744.67,-93.8366 747.141,-100.386"/>
</g>
<!-- Node13 -->
<g id="node13" class="node"><title>Node13</title>
<polygon fill="none" stroke="#bfbfbf" points="883.5,-74.5 883.5,-93.5 1032.5,-93.5 1032.5,-74.5 883.5,-74.5"/>
<text text-anchor="middle" x="958" y="-81.5" font-family="Helvetica,sans-Serif" font-size="10.00">Math/GenVector/Rotation3D.h</text>
</g>
<!-- Node10&#45;&gt;Node13 -->
<g id="edge12" class="edge"><title>Node10&#45;&gt;Node13</title>
<path fill="none" stroke="midnightblue" d="M667.416,-136.486C718.713,-127.459 802.073,-112.769 874,-100 882.584,-98.4761 891.661,-96.8602 900.55,-95.275"/>
<polygon fill="midnightblue" stroke="midnightblue" points="901.24,-98.7072 910.47,-93.5049 900.01,-91.816 901.24,-98.7072"/>
</g>
<!-- Node14 -->
<g id="node14" class="node"><title>Node14</title>
<polygon fill="none" stroke="#bfbfbf" points="0,-74.5 0,-93.5 156,-93.5 156,-74.5 0,-74.5"/>
<text text-anchor="middle" x="78" y="-81.5" font-family="Helvetica,sans-Serif" font-size="10.00">Math/GenVector/Transform3D.h</text>
</g>
<!-- Node10&#45;&gt;Node14 -->
<g id="edge13" class="edge"><title>Node10&#45;&gt;Node14</title>
<path fill="none" stroke="midnightblue" d="M556.412,-140.23C468.699,-133.218 304.315,-118.889 165,-100 154.976,-98.6409 144.338,-96.9855 134.069,-95.277"/>
<polygon fill="midnightblue" stroke="midnightblue" points="134.404,-91.7839 123.959,-93.5598 133.231,-98.6851 134.404,-91.7839"/>
</g>
<!-- Node15 -->
<g id="node15" class="node"><title>Node15</title>
<polygon fill="none" stroke="#bfbfbf" points="174,-74.5 174,-93.5 334,-93.5 334,-74.5 174,-74.5"/>
<text text-anchor="middle" x="254" y="-81.5" font-family="Helvetica,sans-Serif" font-size="10.00">Math/GenVector/Translation3D.h</text>
</g>
<!-- Node10&#45;&gt;Node15 -->
<g id="edge14" class="edge"><title>Node10&#45;&gt;Node15</title>
<path fill="none" stroke="midnightblue" d="M566.332,-136.499C510.783,-127.512 420.711,-112.884 343,-100 333.707,-98.4593 323.87,-96.815 314.258,-95.2008"/>
<polygon fill="midnightblue" stroke="midnightblue" points="314.797,-91.7423 304.355,-93.535 313.636,-98.6453 314.797,-91.7423"/>
</g>
<!-- Node16 -->
<g id="node16" class="node"><title>Node16</title>
<polygon fill="none" stroke="#bfbfbf" points="352,-74.5 352,-93.5 408,-93.5 408,-74.5 352,-74.5"/>
<text text-anchor="middle" x="380" y="-81.5" font-family="Helvetica,sans-Serif" font-size="10.00">Rtypes.h</text>
</g>
<!-- Node10&#45;&gt;Node16 -->
<g id="edge15" class="edge"><title>Node10&#45;&gt;Node16</title>
<path fill="none" stroke="midnightblue" d="M570.247,-136.493C528.96,-128.732 468.452,-116.039 417,-100 414.361,-99.1775 411.647,-98.2473 408.945,-97.2628"/>
<polygon fill="midnightblue" stroke="midnightblue" points="409.955,-93.9011 399.366,-93.5559 407.429,-100.429 409.955,-93.9011"/>
</g>
<!-- Node17 -->
<g id="node17" class="node"><title>Node17</title>
<polygon fill="none" stroke="#bfbfbf" points="426,-74.5 426,-93.5 502,-93.5 502,-74.5 426,-74.5"/>
<text text-anchor="middle" x="464" y="-81.5" font-family="Helvetica,sans-Serif" font-size="10.00">TGeoMatrix.h</text>
</g>
<!-- Node10&#45;&gt;Node17 -->
<g id="edge16" class="edge"><title>Node10&#45;&gt;Node17</title>
<path fill="none" stroke="midnightblue" d="M596.792,-136.403C570.319,-126.156 525.886,-108.956 495.78,-97.3021"/>
<polygon fill="midnightblue" stroke="midnightblue" points="496.756,-93.9266 486.167,-93.5806 494.229,-100.455 496.756,-93.9266"/>
</g>
<!-- Node18 -->
<g id="node18" class="node"><title>Node18</title>
<polygon fill="none" stroke="#bfbfbf" points="1194,-74.5 1194,-93.5 1248,-93.5 1248,-74.5 1194,-74.5"/>
<text text-anchor="middle" x="1221" y="-81.5" font-family="Helvetica,sans-Serif" font-size="10.00">iostream</text>
</g>
<!-- Node10&#45;&gt;Node18 -->
<g id="edge17" class="edge"><title>Node10&#45;&gt;Node18</title>
<path fill="none" stroke="midnightblue" d="M681.612,-142.423C808.101,-136.823 1090.04,-122.23 1184,-100 1187.07,-99.2734 1190.22,-98.3308 1193.32,-97.2719"/>
<polygon fill="midnightblue" stroke="midnightblue" points="1194.82,-100.447 1202.92,-93.6159 1192.33,-93.9052 1194.82,-100.447"/>
</g>
<!-- Node19&#45;&gt;Node5 -->
<g id="edge21" class="edge"><title>Node19&#45;&gt;Node5</title>
<path fill="none" stroke="midnightblue" d="M496.624,-248.444C543.747,-238.984 619.692,-223.738 670.459,-213.547"/>
<polygon fill="midnightblue" stroke="midnightblue" points="671.46,-216.916 680.576,-211.516 670.082,-210.053 671.46,-216.916"/>
</g>
<!-- Node20 -->
<g id="node20" class="node"><title>Node20</title>
<g id="a_node20"><a xlink:href="../../d6/d51/TPC_2base_2include_2TPCBase_2Constants_8h.html" target="_top" xlink:title="TPCBase/Constants.h">
<polygon fill="none" stroke="black" points="396,-192.5 396,-211.5 512,-211.5 512,-192.5 396,-192.5"/>
<text text-anchor="middle" x="454" y="-199.5" font-family="Helvetica,sans-Serif" font-size="10.00">TPCBase/Constants.h</text>
</a>
</g>
</g>
<!-- Node19&#45;&gt;Node20 -->
<g id="edge20" class="edge"><title>Node19&#45;&gt;Node20</title>
<path fill="none" stroke="midnightblue" d="M454,-248.083C454,-241.006 454,-230.861 454,-221.986"/>
<polygon fill="midnightblue" stroke="midnightblue" points="457.5,-221.751 454,-211.751 450.5,-221.751 457.5,-221.751"/>
</g>
<!-- Node21&#45;&gt;Node5 -->
<g id="edge28" class="edge"><title>Node21&#45;&gt;Node5</title>
<path fill="none" stroke="midnightblue" d="M699.745,-478.794C808.266,-473.718 1052.06,-459.784 1081,-436 1104.35,-416.809 1101,-401.225 1101,-371 1101,-371 1101,-371 1101,-313 1101,-246.855 884.918,-217.85 779.501,-207.635"/>
<polygon fill="midnightblue" stroke="midnightblue" points="779.635,-204.132 769.35,-206.677 778.977,-211.101 779.635,-204.132"/>
</g>
<!-- Node21&#45;&gt;Node6 -->
<g id="edge27" class="edge"><title>Node21&#45;&gt;Node6</title>
<path fill="none" stroke="midnightblue" d="M699.599,-481.707C804.178,-482.218 1036.74,-478.39 1102,-436 1129.88,-417.893 1139,-404.241 1139,-371 1139,-371 1139,-371 1139,-257 1139,-216.967 1104.2,-181.336 1081.09,-162.087"/>
<polygon fill="midnightblue" stroke="midnightblue" points="1083.18,-159.28 1073.19,-155.759 1078.8,-164.743 1083.18,-159.28"/>
</g>
<!-- Node21&#45;&gt;Node19 -->
<g id="edge52" class="edge"><title>Node21&#45;&gt;Node19</title>
<path fill="none" stroke="midnightblue" d="M596.443,-474.362C509.616,-463.063 343.189,-440.843 339,-436 316.903,-410.452 325.071,-390.772 339,-360 357.213,-319.764 400.253,-289.2 428.204,-272.71"/>
<polygon fill="midnightblue" stroke="midnightblue" points="430.097,-275.659 437.047,-267.663 426.627,-269.58 430.097,-275.659"/>
</g>
<!-- Node22 -->
<g id="node22" class="node"><title>Node22</title>
<polygon fill="none" stroke="#bfbfbf" points="348.5,-416.5 348.5,-435.5 383.5,-435.5 383.5,-416.5 348.5,-416.5"/>
<text text-anchor="middle" x="366" y="-423.5" font-family="Helvetica,sans-Serif" font-size="10.00">map</text>
</g>
<!-- Node21&#45;&gt;Node22 -->
<g id="edge23" class="edge"><title>Node21&#45;&gt;Node22</title>
<path fill="none" stroke="midnightblue" d="M596.475,-473.21C545.722,-465.188 466.119,-451.672 398,-436 396.524,-435.66 395.014,-435.296 393.492,-434.915"/>
<polygon fill="midnightblue" stroke="midnightblue" points="394.091,-431.452 383.527,-432.257 392.287,-438.216 394.091,-431.452"/>
</g>
<!-- Node23 -->
<g id="node23" class="node"><title>Node23</title>
<polygon fill="none" stroke="#bfbfbf" points="865,-360.5 865,-379.5 909,-379.5 909,-360.5 865,-360.5"/>
<text text-anchor="middle" x="887" y="-367.5" font-family="Helvetica,sans-Serif" font-size="10.00">vector</text>
</g>
<!-- Node21&#45;&gt;Node23 -->
<g id="edge24" class="edge"><title>Node21&#45;&gt;Node23</title>
<path fill="none" stroke="midnightblue" d="M666.548,-472.331C693.332,-459.825 744.412,-436.025 788,-416 811.776,-405.077 838.822,-392.793 858.631,-383.822"/>
<polygon fill="midnightblue" stroke="midnightblue" points="860.333,-386.894 868,-379.582 857.447,-380.516 860.333,-386.894"/>
</g>
<!-- Node24 -->
<g id="node24" class="node"><title>Node24</title>
<polygon fill="none" stroke="#bfbfbf" points="440,-416.5 440,-435.5 478,-435.5 478,-416.5 440,-416.5"/>
<text text-anchor="middle" x="459" y="-423.5" font-family="Helvetica,sans-Serif" font-size="10.00">array</text>
</g>
<!-- Node21&#45;&gt;Node24 -->
<g id="edge25" class="edge"><title>Node21&#45;&gt;Node24</title>
<path fill="none" stroke="midnightblue" d="M616.126,-472.479C585.541,-464.218 537.833,-451.109 487.923,-436.199"/>
<polygon fill="midnightblue" stroke="midnightblue" points="488.833,-432.818 478.249,-433.295 486.82,-439.522 488.833,-432.818"/>
</g>
<!-- Node25 -->
<g id="node25" class="node"><title>Node25</title>
<polygon fill="none" stroke="#bfbfbf" points="496.5,-416.5 496.5,-435.5 537.5,-435.5 537.5,-416.5 496.5,-416.5"/>
<text text-anchor="middle" x="517" y="-423.5" font-family="Helvetica,sans-Serif" font-size="10.00">string</text>
</g>
<!-- Node21&#45;&gt;Node25 -->
<g id="edge26" class="edge"><title>Node21&#45;&gt;Node25</title>
<path fill="none" stroke="midnightblue" d="M627.243,-472.444C605.684,-463.557 571.737,-449.563 547.206,-439.451"/>
<polygon fill="midnightblue" stroke="midnightblue" points="548.239,-436.092 537.66,-435.516 545.572,-442.563 548.239,-436.092"/>
</g>
<!-- Node26 -->
<g id="node26" class="node"><title>Node26</title>
<g id="a_node26"><a xlink:href="../../de/d41/PadPos_8h.html" target="_top" xlink:title="TPCBase/PadPos.h">
<polygon fill="none" stroke="black" points="670.5,-304.5 670.5,-323.5 775.5,-323.5 775.5,-304.5 670.5,-304.5"/>
<text text-anchor="middle" x="723" y="-311.5" font-family="Helvetica,sans-Serif" font-size="10.00">TPCBase/PadPos.h</text>
</a>
</g>
</g>
<!-- Node21&#45;&gt;Node26 -->
<g id="edge29" class="edge"><title>Node21&#45;&gt;Node26</title>
<path fill="none" stroke="midnightblue" d="M663.922,-472.486C689.435,-457.725 738.123,-424.632 753,-380 758.684,-362.947 748.371,-344.417 738.322,-331.521"/>
<polygon fill="midnightblue" stroke="midnightblue" points="740.736,-328.956 731.606,-323.58 735.391,-333.476 740.736,-328.956"/>
</g>
<!-- Node27 -->
<g id="node27" class="node"><title>Node27</title>
<g id="a_node27"><a xlink:href="../../dd/d0b/PadSecPos_8h.html" target="_top" xlink:title="TPCBase/PadSecPos.h">
<polygon fill="none" stroke="black" points="348,-360.5 348,-379.5 470,-379.5 470,-360.5 348,-360.5"/>
<text text-anchor="middle" x="409" y="-367.5" font-family="Helvetica,sans-Serif" font-size="10.00">TPCBase/PadSecPos.h</text>
</a>
</g>
</g>
<!-- Node21&#45;&gt;Node27 -->
<g id="edge30" class="edge"><title>Node21&#45;&gt;Node27</title>
<path fill="none" stroke="midnightblue" d="M596.455,-473.059C536.272,-463.365 443.335,-446.917 431,-436 417.777,-424.297 412.491,-404.357 410.383,-389.64"/>
<polygon fill="midnightblue" stroke="midnightblue" points="413.856,-389.199 409.313,-379.628 406.896,-389.943 413.856,-389.199"/>
</g>
<!-- Node28 -->
<g id="node28" class="node"><title>Node28</title>
<g id="a_node28"><a xlink:href="../../da/d61/PadROCPos_8h.html" target="_top" xlink:title="TPCBase/PadROCPos.h">
<polygon fill="none" stroke="black" points="600,-360.5 600,-379.5 728,-379.5 728,-360.5 600,-360.5"/>
<text text-anchor="middle" x="664" y="-367.5" font-family="Helvetica,sans-Serif" font-size="10.00">TPCBase/PadROCPos.h</text>
</a>
</g>
</g>
<!-- Node21&#45;&gt;Node28 -->
<g id="edge33" class="edge"><title>Node21&#45;&gt;Node28</title>
<path fill="none" stroke="midnightblue" d="M628.119,-472.345C604.912,-460.926 571.338,-439.506 585,-416 593.736,-400.97 609.578,-390.543 624.795,-383.54"/>
<polygon fill="midnightblue" stroke="midnightblue" points="626.262,-386.72 634.119,-379.613 623.545,-380.269 626.262,-386.72"/>
</g>
<!-- Node29 -->
<g id="node29" class="node"><title>Node29</title>
<g id="a_node29"><a xlink:href="../../d3/d54/DigitPos_8h.html" target="_top" xlink:title="TPCBase/DigitPos.h">
<polygon fill="none" stroke="black" points="594,-416.5 594,-435.5 702,-435.5 702,-416.5 594,-416.5"/>
<text text-anchor="middle" x="648" y="-423.5" font-family="Helvetica,sans-Serif" font-size="10.00">TPCBase/DigitPos.h</text>
</a>
</g>
</g>
<!-- Node21&#45;&gt;Node29 -->
<g id="edge37" class="edge"><title>Node21&#45;&gt;Node29</title>
<path fill="none" stroke="midnightblue" d="M648,-472.083C648,-465.006 648,-454.861 648,-445.986"/>
<polygon fill="midnightblue" stroke="midnightblue" points="651.5,-445.751 648,-435.751 644.5,-445.751 651.5,-445.751"/>
</g>
<!-- Node31 -->
<g id="node31" class="node"><title>Node31</title>
<g id="a_node31"><a xlink:href="../../d1/d1f/FECInfo_8h.html" target="_top" xlink:title="TPCBase/FECInfo.h">
<polygon fill="none" stroke="black" points="1167.5,-248.5 1167.5,-267.5 1274.5,-267.5 1274.5,-248.5 1167.5,-248.5"/>
<text text-anchor="middle" x="1221" y="-255.5" font-family="Helvetica,sans-Serif" font-size="10.00">TPCBase/FECInfo.h</text>
</a>
</g>
</g>
<!-- Node21&#45;&gt;Node31 -->
<g id="edge45" class="edge"><title>Node21&#45;&gt;Node31</title>
<path fill="none" stroke="midnightblue" d="M699.837,-479.457C821.422,-475.406 1117.39,-462.874 1153,-436 1204.2,-397.365 1216.85,-315.007 1219.98,-277.863"/>
<polygon fill="midnightblue" stroke="midnightblue" points="1223.47,-278.105 1220.67,-267.885 1216.49,-277.618 1223.47,-278.105"/>
</g>
<!-- Node32 -->
<g id="node32" class="node"><title>Node32</title>
<g id="a_node32"><a xlink:href="../../da/d9d/PadRegionInfo_8h.html" target="_top" xlink:title="TPCBase/PadRegionInfo.h">
<polygon fill="none" stroke="black" points="937.5,-416.5 937.5,-435.5 1072.5,-435.5 1072.5,-416.5 937.5,-416.5"/>
<text text-anchor="middle" x="1005" y="-423.5" font-family="Helvetica,sans-Serif" font-size="10.00">TPCBase/PadRegionInfo.h</text>
</a>
</g>
</g>
<!-- Node21&#45;&gt;Node32 -->
<g id="edge47" class="edge"><title>Node21&#45;&gt;Node32</title>
<path fill="none" stroke="midnightblue" d="M699.53,-473.206C762.656,-463.657 869.71,-447.464 938.857,-437.005"/>
<polygon fill="midnightblue" stroke="midnightblue" points="939.411,-440.461 948.775,-435.505 938.364,-433.54 939.411,-440.461"/>
</g>
<!-- Node33 -->
<g id="node33" class="node"><title>Node33</title>
<g id="a_node33"><a xlink:href="../../d6/d42/PartitionInfo_8h.html" target="_top" xlink:title="TPCBase/PartitionInfo.h">
<polygon fill="none" stroke="black" points="796.5,-416.5 796.5,-435.5 919.5,-435.5 919.5,-416.5 796.5,-416.5"/>
<text text-anchor="middle" x="858" y="-423.5" font-family="Helvetica,sans-Serif" font-size="10.00">TPCBase/PartitionInfo.h</text>
</a>
</g>
</g>
<!-- Node21&#45;&gt;Node33 -->
<g id="edge51" class="edge"><title>Node21&#45;&gt;Node33</title>
<path fill="none" stroke="midnightblue" d="M681.275,-472.444C717.448,-463.142 775.377,-448.246 814.981,-438.062"/>
<polygon fill="midnightblue" stroke="midnightblue" points="816.067,-441.397 824.881,-435.516 814.324,-434.617 816.067,-441.397"/>
</g>
<!-- Node27&#45;&gt;Node19 -->
<g id="edge31" class="edge"><title>Node27&#45;&gt;Node19</title>
<path fill="none" stroke="midnightblue" d="M412.531,-360.368C419.859,-342.456 436.85,-300.923 446.658,-276.948"/>
<polygon fill="midnightblue" stroke="midnightblue" points="449.938,-278.172 450.485,-267.591 443.46,-275.522 449.938,-278.172"/>
</g>
<!-- Node27&#45;&gt;Node26 -->
<g id="edge32" class="edge"><title>Node27&#45;&gt;Node26</title>
<path fill="none" stroke="midnightblue" d="M458.754,-360.444C514.335,-350.885 604.264,-335.419 663.516,-325.23"/>
<polygon fill="midnightblue" stroke="midnightblue" points="664.216,-328.661 673.479,-323.516 663.03,-321.762 664.216,-328.661"/>
</g>
<!-- Node28&#45;&gt;Node4 -->
<g id="edge35" class="edge"><title>Node28&#45;&gt;Node4</title>
<path fill="none" stroke="midnightblue" d="M642.609,-360.444C620.293,-351.517 585.097,-337.439 559.792,-327.317"/>
<polygon fill="midnightblue" stroke="midnightblue" points="560.876,-323.981 550.291,-323.516 558.276,-330.48 560.876,-323.981"/>
</g>
<!-- Node28&#45;&gt;Node5 -->
<g id="edge34" class="edge"><title>Node28&#45;&gt;Node5</title>
<path fill="none" stroke="midnightblue" d="M662.134,-360.391C659.751,-347.759 656.547,-323.577 662,-304 671.111,-271.292 693.995,-238.598 708.998,-219.612"/>
<polygon fill="midnightblue" stroke="midnightblue" points="711.857,-221.645 715.448,-211.677 706.424,-217.23 711.857,-221.645"/>
</g>
<!-- Node28&#45;&gt;Node26 -->
<g id="edge36" class="edge"><title>Node28&#45;&gt;Node26</title>
<path fill="none" stroke="midnightblue" d="M673.479,-360.324C682.201,-352.341 695.343,-340.313 705.898,-330.653"/>
<polygon fill="midnightblue" stroke="midnightblue" points="708.334,-333.167 713.348,-323.834 703.608,-328.004 708.334,-333.167"/>
</g>
<!-- Node29&#45;&gt;Node5 -->
<g id="edge38" class="edge"><title>Node29&#45;&gt;Node5</title>
<path fill="none" stroke="midnightblue" d="M682.887,-416.378C705.026,-409.488 733.139,-397.955 753,-380 774.103,-360.922 776.885,-351.544 784,-324 794.428,-283.63 761.179,-241.162 739.732,-218.85"/>
<polygon fill="midnightblue" stroke="midnightblue" points="742.012,-216.181 732.467,-211.583 737.062,-221.13 742.012,-216.181"/>
</g>
<!-- Node29&#45;&gt;Node26 -->
<g id="edge43" class="edge"><title>Node29&#45;&gt;Node26</title>
<path fill="none" stroke="midnightblue" d="M684.702,-416.349C703.834,-409.775 725.572,-398.583 737,-380 745.856,-365.599 739.997,-346.402 733.362,-332.61"/>
<polygon fill="midnightblue" stroke="midnightblue" points="736.386,-330.844 728.592,-323.668 730.21,-334.138 736.386,-330.844"/>
</g>
<!-- Node29&#45;&gt;Node27 -->
<g id="edge44" class="edge"><title>Node29&#45;&gt;Node27</title>
<path fill="none" stroke="midnightblue" d="M610.13,-416.444C568.524,-407.043 501.631,-391.929 456.531,-381.739"/>
<polygon fill="midnightblue" stroke="midnightblue" points="457.219,-378.306 446.693,-379.516 455.676,-385.134 457.219,-378.306"/>
</g>
<!-- Node30 -->
<g id="node30" class="node"><title>Node30</title>
<g id="a_node30"><a xlink:href="../../df/d26/CRU_8h.html" target="_top" xlink:title="TPCBase/CRU.h">
<polygon fill="none" stroke="black" points="488.5,-360.5 488.5,-379.5 581.5,-379.5 581.5,-360.5 488.5,-360.5"/>
<text text-anchor="middle" x="535" y="-367.5" font-family="Helvetica,sans-Serif" font-size="10.00">TPCBase/CRU.h</text>
</a>
</g>
</g>
<!-- Node29&#45;&gt;Node30 -->
<g id="edge39" class="edge"><title>Node29&#45;&gt;Node30</title>
<path fill="none" stroke="midnightblue" d="M630.095,-416.444C611.746,-407.675 582.995,-393.935 561.906,-383.858"/>
<polygon fill="midnightblue" stroke="midnightblue" points="563.353,-380.67 552.821,-379.516 560.335,-386.986 563.353,-380.67"/>
</g>
<!-- Node30&#45;&gt;Node4 -->
<g id="edge42" class="edge"><title>Node30&#45;&gt;Node4</title>
<path fill="none" stroke="midnightblue" d="M534.009,-360.083C533.214,-352.927 532.071,-342.635 531.077,-333.691"/>
<polygon fill="midnightblue" stroke="midnightblue" points="534.555,-333.303 529.972,-323.751 527.598,-334.076 534.555,-333.303"/>
</g>
<!-- Node30&#45;&gt;Node5 -->
<g id="edge40" class="edge"><title>Node30&#45;&gt;Node5</title>
<path fill="none" stroke="midnightblue" d="M544.632,-360.49C566.997,-340.731 624.183,-290.212 672,-248 683.204,-238.11 695.795,-227 705.663,-218.294"/>
<polygon fill="midnightblue" stroke="midnightblue" points="708.038,-220.866 713.222,-211.625 703.407,-215.616 708.038,-220.866"/>
</g>
<!-- Node30&#45;&gt;Node19 -->
<g id="edge41" class="edge"><title>Node30&#45;&gt;Node19</title>
<path fill="none" stroke="midnightblue" d="M517.883,-360.37C504.146,-352.615 485.343,-339.995 474,-324 464.289,-310.306 459.195,-291.772 456.586,-277.999"/>
<polygon fill="midnightblue" stroke="midnightblue" points="459.982,-277.074 454.931,-267.76 453.071,-278.19 459.982,-277.074"/>
</g>
<!-- Node31&#45;&gt;Node18 -->
<g id="edge46" class="edge"><title>Node31&#45;&gt;Node18</title>
<path fill="none" stroke="midnightblue" d="M1221,-248.234C1221,-221.548 1221,-140.877 1221,-103.893"/>
<polygon fill="midnightblue" stroke="midnightblue" points="1224.5,-103.544 1221,-93.5442 1217.5,-103.544 1224.5,-103.544"/>
</g>
<!-- Node32&#45;&gt;Node5 -->
<g id="edge49" class="edge"><title>Node32&#45;&gt;Node5</title>
<path fill="none" stroke="midnightblue" d="M998.419,-416.431C988.207,-403.427 967.57,-378.29 947,-360 879.361,-299.859 788.283,-242.249 746.153,-216.734"/>
<polygon fill="midnightblue" stroke="midnightblue" points="747.839,-213.664 737.466,-211.508 744.231,-219.662 747.839,-213.664"/>
</g>
<!-- Node32&#45;&gt;Node23 -->
<g id="edge48" class="edge"><title>Node32&#45;&gt;Node23</title>
<path fill="none" stroke="midnightblue" d="M986.303,-416.444C967.056,-407.636 936.848,-393.812 914.8,-383.722"/>
<polygon fill="midnightblue" stroke="midnightblue" points="916.16,-380.495 905.61,-379.516 913.247,-386.86 916.16,-380.495"/>
</g>
<!-- Node32&#45;&gt;Node26 -->
<g id="edge50" class="edge"><title>Node32&#45;&gt;Node26</title>
<path fill="none" stroke="midnightblue" d="M996.055,-416.396C980.999,-402.403 949.082,-374.793 917,-360 875.352,-340.796 824.779,-329.411 785.711,-322.899"/>
<polygon fill="midnightblue" stroke="midnightblue" points="785.956,-319.393 775.528,-321.268 784.849,-326.305 785.956,-319.393"/>
</g>
</g>
</svg>
        <g id="navigator" transform="translate(0 0)" fill="#404254">
                <rect fill="#f2f5e9" fill-opacity="0.5" stroke="#606060" stroke-width=".5" x="0" y="0" width="60" height="60"/>
                <use id="zoomplus" xlink:href="#zoomPlus" x="17" y="9" onmousedown="handleZoom(evt,'in')"/>
                <use id="zoomminus" xlink:href="#zoomMin" x="42" y="9" onmousedown="handleZoom(evt,'out')"/>
                <use id="reset" xlink:href="#resetDef" x="30" y="36" onmousedown="handleReset()"/>
                <g id="arrowUp" xlink:href="#dirArrow" transform="translate(30 24)" onmousedown="handlePan(0,-1)">
                  <use xlink:href="#rim" fill="#404040">
                        <set attributeName="fill" to="#808080" begin="arrowUp.mouseover" end="arrowUp.mouseout"/>
                  </use>
                  <path fill="none" stroke="white" stroke-width="1.5" d="M0,-3.0v7 M-2.5,-0.5L0,-3.0L2.5,-0.5"/>
                </g>
                <g id="arrowRight" xlink:href="#dirArrow" transform="rotate(90) translate(36 -43)" onmousedown="handlePan(1,0)">
                  <use xlink:href="#rim" fill="#404040">
                        <set attributeName="fill" to="#808080" begin="arrowRight.mouseover" end="arrowRight.mouseout"/>
                  </use>
                  <path fill="none" stroke="white" stroke-width="1.5" d="M0,-3.0v7 M-2.5,-0.5L0,-3.0L2.5,-0.5"/>
                </g>
                <g id="arrowDown" xlink:href="#dirArrow" transform="rotate(180) translate(-30 -48)" onmousedown="handlePan(0,1)">
                  <use xlink:href="#rim" fill="#404040">
                        <set attributeName="fill" to="#808080" begin="arrowDown.mouseover" end="arrowDown.mouseout"/>
                  </use>
                  <path fill="none" stroke="white" stroke-width="1.5" d="M0,-3.0v7 M-2.5,-0.5L0,-3.0L2.5,-0.5"/>
                </g>
                <g id="arrowLeft" xlink:href="#dirArrow" transform="rotate(270) translate(-36 17)" onmousedown="handlePan(-1,0)">
                  <use xlink:href="#rim" fill="#404040">
                        <set attributeName="fill" to="#808080" begin="arrowLeft.mouseover" end="arrowLeft.mouseout"/>
                  </use>
                  <path fill="none" stroke="white" stroke-width="1.5" d="M0,-3.0v7 M-2.5,-0.5L0,-3.0L2.5,-0.5"/>
                </g>
        </g>
        <svg viewBox="0 0 15 15" width="100%" height="30px" preserveAspectRatio="xMaxYMin meet">
         <g id="arrow_out" transform="scale(0.3 0.3)">
          <a xlink:href="testTPCCommonMode_8cxx__incl_org.svg" target="_base">
           <rect id="button" ry="5" rx="5" y="6" x="6" height="38" width="38"
                fill="#f2f5e9" fill-opacity="0.5" stroke="#606060" stroke-width="1.0"/>
           <path id="arrow"
             d="M 11.500037,31.436501 C 11.940474,20.09759 22.043105,11.32322 32.158766,21.979434 L 37.068811,17.246167 C 37.068811,17.246167 37.088388,32 37.088388,32 L 22.160133,31.978069 C 22.160133,31.978069 26.997745,27.140456 26.997745,27.140456 C 18.528582,18.264221 13.291696,25.230495 11.500037,31.436501 z"
             style="fill:#404040;"/>
          </a>
         </g>
        </svg>
</svg>
