<?xml version="1.0" encoding="UTF-8" standalone="no"?>
<!DOCTYPE svg PUBLIC "-//W3C//DTD SVG 1.1//EN"
 "http://www.w3.org/Graphics/SVG/1.1/DTD/svg11.dtd">
<!-- Generated by graphviz version 2.36.0 (20140111.2315)
 -->
<!-- Title: /home/travis/build/AliceO2Group/AliceO2/Detectors/TPC/simulation/src/ElectronTransport.cxx Pages: 1 -->
<svg width="1389pt" height="646pt"
 viewBox="0.00 0.00 1389.00 646.00" xmlns="http://www.w3.org/2000/svg" xmlns:xlink="http://www.w3.org/1999/xlink">
<g id="graph0" class="graph" transform="scale(1 1) rotate(0) translate(4 642)">
<title>/home/travis/build/AliceO2Group/AliceO2/Detectors/TPC/simulation/src/ElectronTransport.cxx</title>
<!-- Node1 -->
<g id="node1" class="node"><title>Node1</title>
<polygon fill="#bfbfbf" stroke="black" points="1209.5,-585 1209.5,-637 1342.5,-637 1342.5,-585 1209.5,-585"/>
<text text-anchor="start" x="1217.5" y="-625" font-family="Helvetica,sans-Serif" font-size="10.00">/home/travis/build</text>
<text text-anchor="start" x="1217.5" y="-614" font-family="Helvetica,sans-Serif" font-size="10.00">/AliceO2Group/AliceO2</text>
<text text-anchor="start" x="1217.5" y="-603" font-family="Helvetica,sans-Serif" font-size="10.00">/Detectors/TPC/simulation</text>
<text text-anchor="middle" x="1276" y="-592" font-family="Helvetica,sans-Serif" font-size="10.00">/src/ElectronTransport.cxx</text>
</g>
<!-- Node2 -->
<g id="node2" class="node"><title>Node2</title>
<g id="a_node2"><a xlink:href="../../db/dad/ParameterDetector_8h.html" target="_top" xlink:title="Definition of the parameter class for the detector. ">
<polygon fill="none" stroke="black" points="1199.5,-528.5 1199.5,-547.5 1352.5,-547.5 1352.5,-528.5 1199.5,-528.5"/>
<text text-anchor="middle" x="1276" y="-535.5" font-family="Helvetica,sans-Serif" font-size="10.00">TPCBase/ParameterDetector.h</text>
</a>
</g>
</g>
<!-- Node1&#45;&gt;Node2 -->
<g id="edge1" class="edge"><title>Node1&#45;&gt;Node2</title>
<path fill="none" stroke="midnightblue" d="M1276,-584.768C1276,-575.89 1276,-566.074 1276,-557.816"/>
<polygon fill="midnightblue" stroke="midnightblue" points="1279.5,-557.757 1276,-547.757 1272.5,-557.757 1279.5,-557.757"/>
</g>
<!-- Node4 -->
<g id="node4" class="node"><title>Node4</title>
<g id="a_node4"><a xlink:href="../../d2/da8/ElectronTransport_8h.html" target="_top" xlink:title="Definition of the electron transport. ">
<polygon fill="none" stroke="black" points="926.5,-528.5 926.5,-547.5 1097.5,-547.5 1097.5,-528.5 926.5,-528.5"/>
<text text-anchor="middle" x="1012" y="-535.5" font-family="Helvetica,sans-Serif" font-size="10.00">TPCSimulation/ElectronTransport.h</text>
</a>
</g>
</g>
<!-- Node1&#45;&gt;Node4 -->
<g id="edge3" class="edge"><title>Node1&#45;&gt;Node4</title>
<path fill="none" stroke="midnightblue" d="M1209.38,-592.084C1160.41,-578.915 1095.39,-561.427 1053.61,-550.19"/>
<polygon fill="midnightblue" stroke="midnightblue" points="1054.34,-546.762 1043.77,-547.544 1052.52,-553.521 1054.34,-546.762"/>
</g>
<!-- Node15 -->
<g id="node15" class="node"><title>Node15</title>
<polygon fill="none" stroke="#bfbfbf" points="1282,-136.5 1282,-155.5 1326,-155.5 1326,-136.5 1282,-136.5"/>
<text text-anchor="middle" x="1304" y="-143.5" font-family="Helvetica,sans-Serif" font-size="10.00">cmath</text>
</g>
<!-- Node1&#45;&gt;Node15 -->
<g id="edge61" class="edge"><title>Node1&#45;&gt;Node15</title>
<path fill="none" stroke="midnightblue" d="M1321.29,-584.955C1335.71,-575.075 1350.61,-562.573 1361,-548 1378.55,-523.392 1381,-513.225 1381,-483 1381,-483 1381,-483 1381,-257 1381,-216.93 1346.29,-181.077 1323.47,-161.844"/>
<polygon fill="midnightblue" stroke="midnightblue" points="1325.67,-159.115 1315.69,-155.532 1321.26,-164.551 1325.67,-159.115"/>
</g>
<!-- Node3 -->
<g id="node3" class="node"><title>Node3</title>
<polygon fill="none" stroke="#bfbfbf" points="1315,-416.5 1315,-435.5 1353,-435.5 1353,-416.5 1315,-416.5"/>
<text text-anchor="middle" x="1334" y="-423.5" font-family="Helvetica,sans-Serif" font-size="10.00">array</text>
</g>
<!-- Node2&#45;&gt;Node3 -->
<g id="edge2" class="edge"><title>Node2&#45;&gt;Node3</title>
<path fill="none" stroke="midnightblue" d="M1280.55,-528.368C1290.04,-510.376 1312.09,-468.55 1324.71,-444.627"/>
<polygon fill="midnightblue" stroke="midnightblue" points="1327.9,-446.07 1329.47,-435.591 1321.71,-442.805 1327.9,-446.07"/>
</g>
<!-- Node5 -->
<g id="node5" class="node"><title>Node5</title>
<g id="a_node5"><a xlink:href="../../db/d5b/ParameterGas_8h.html" target="_top" xlink:title="Definition of the parameter class for the detector gas. ">
<polygon fill="none" stroke="black" points="1072,-472.5 1072,-491.5 1206,-491.5 1206,-472.5 1072,-472.5"/>
<text text-anchor="middle" x="1139" y="-479.5" font-family="Helvetica,sans-Serif" font-size="10.00">TPCBase/ParameterGas.h</text>
</a>
</g>
</g>
<!-- Node4&#45;&gt;Node5 -->
<g id="edge4" class="edge"><title>Node4&#45;&gt;Node5</title>
<path fill="none" stroke="midnightblue" d="M1032.12,-528.444C1053.02,-519.557 1085.93,-505.563 1109.72,-495.451"/>
<polygon fill="midnightblue" stroke="midnightblue" points="1111.14,-498.65 1118.97,-491.516 1108.4,-492.208 1111.14,-498.65"/>
</g>
<!-- Node6 -->
<g id="node6" class="node"><title>Node6</title>
<g id="a_node6"><a xlink:href="../../db/dac/RandomRing_8h.html" target="_top" xlink:title="TPCBase/RandomRing.h">
<polygon fill="none" stroke="black" points="234,-472.5 234,-491.5 362,-491.5 362,-472.5 234,-472.5"/>
<text text-anchor="middle" x="298" y="-479.5" font-family="Helvetica,sans-Serif" font-size="10.00">TPCBase/RandomRing.h</text>
</a>
</g>
</g>
<!-- Node4&#45;&gt;Node6 -->
<g id="edge6" class="edge"><title>Node4&#45;&gt;Node6</title>
<path fill="none" stroke="midnightblue" d="M926.23,-530.513C785.031,-519.834 506.005,-498.731 372.533,-488.637"/>
<polygon fill="midnightblue" stroke="midnightblue" points="372.639,-485.135 362.403,-487.871 372.111,-492.115 372.639,-485.135"/>
</g>
<!-- Node12 -->
<g id="node12" class="node"><title>Node12</title>
<g id="a_node12"><a xlink:href="../../d7/d2c/Mapper_8h.html" target="_top" xlink:title="TPCBase/Mapper.h">
<polygon fill="none" stroke="black" points="875.5,-472.5 875.5,-491.5 978.5,-491.5 978.5,-472.5 875.5,-472.5"/>
<text text-anchor="middle" x="927" y="-479.5" font-family="Helvetica,sans-Serif" font-size="10.00">TPCBase/Mapper.h</text>
</a>
</g>
</g>
<!-- Node4&#45;&gt;Node12 -->
<g id="edge12" class="edge"><title>Node4&#45;&gt;Node12</title>
<path fill="none" stroke="midnightblue" d="M998.343,-528.324C985.084,-519.9 964.732,-506.971 949.154,-497.074"/>
<polygon fill="midnightblue" stroke="midnightblue" points="950.94,-494.063 940.623,-491.655 947.187,-499.971 950.94,-494.063"/>
</g>
<!-- Node5&#45;&gt;Node3 -->
<g id="edge5" class="edge"><title>Node5&#45;&gt;Node3</title>
<path fill="none" stroke="midnightblue" d="M1169.9,-472.444C1206.94,-462.185 1268.56,-445.122 1304.82,-435.08"/>
<polygon fill="midnightblue" stroke="midnightblue" points="1306.07,-438.366 1314.77,-432.325 1304.2,-431.62 1306.07,-438.366"/>
</g>
<!-- Node7 -->
<g id="node7" class="node"><title>Node7</title>
<polygon fill="none" stroke="#bfbfbf" points="70,-416.5 70,-435.5 160,-435.5 160,-416.5 70,-416.5"/>
<text text-anchor="middle" x="115" y="-423.5" font-family="Helvetica,sans-Serif" font-size="10.00">boost/format.hpp</text>
</g>
<!-- Node6&#45;&gt;Node7 -->
<g id="edge7" class="edge"><title>Node6&#45;&gt;Node7</title>
<path fill="none" stroke="midnightblue" d="M269.003,-472.444C237.815,-463.241 188.07,-448.562 153.592,-438.388"/>
<polygon fill="midnightblue" stroke="midnightblue" points="154.443,-434.99 143.861,-435.516 152.462,-441.704 154.443,-434.99"/>
</g>
<!-- Node8 -->
<g id="node8" class="node"><title>Node8</title>
<polygon fill="none" stroke="#bfbfbf" points="178,-416.5 178,-435.5 222,-435.5 222,-416.5 178,-416.5"/>
<text text-anchor="middle" x="200" y="-423.5" font-family="Helvetica,sans-Serif" font-size="10.00">Vc/Vc</text>
</g>
<!-- Node6&#45;&gt;Node8 -->
<g id="edge8" class="edge"><title>Node6&#45;&gt;Node8</title>
<path fill="none" stroke="midnightblue" d="M282.255,-472.324C266.681,-463.743 242.623,-450.486 224.541,-440.522"/>
<polygon fill="midnightblue" stroke="midnightblue" points="226.154,-437.415 215.706,-435.655 222.776,-443.546 226.154,-437.415"/>
</g>
<!-- Node9 -->
<g id="node9" class="node"><title>Node9</title>
<polygon fill="none" stroke="#bfbfbf" points="513,-360.5 513,-379.5 557,-379.5 557,-360.5 513,-360.5"/>
<text text-anchor="middle" x="535" y="-367.5" font-family="Helvetica,sans-Serif" font-size="10.00">vector</text>
</g>
<!-- Node6&#45;&gt;Node9 -->
<g id="edge9" class="edge"><title>Node6&#45;&gt;Node9</title>
<path fill="none" stroke="midnightblue" d="M312.902,-472.357C339.642,-456.91 394.856,-425.31 415,-416 444.29,-402.463 478.904,-389.822 503.41,-381.406"/>
<polygon fill="midnightblue" stroke="midnightblue" points="504.579,-384.706 512.924,-378.177 502.329,-378.077 504.579,-384.706"/>
</g>
<!-- Node10 -->
<g id="node10" class="node"><title>Node10</title>
<polygon fill="none" stroke="#bfbfbf" points="240,-416.5 240,-435.5 282,-435.5 282,-416.5 240,-416.5"/>
<text text-anchor="middle" x="261" y="-423.5" font-family="Helvetica,sans-Serif" font-size="10.00">TF1.h</text>
</g>
<!-- Node6&#45;&gt;Node10 -->
<g id="edge10" class="edge"><title>Node6&#45;&gt;Node10</title>
<path fill="none" stroke="midnightblue" d="M291.89,-472.083C286.718,-464.534 279.154,-453.495 272.806,-444.23"/>
<polygon fill="midnightblue" stroke="midnightblue" points="275.536,-442.022 266.996,-435.751 269.761,-445.979 275.536,-442.022"/>
</g>
<!-- Node11 -->
<g id="node11" class="node"><title>Node11</title>
<polygon fill="none" stroke="#bfbfbf" points="300,-416.5 300,-435.5 368,-435.5 368,-416.5 300,-416.5"/>
<text text-anchor="middle" x="334" y="-423.5" font-family="Helvetica,sans-Serif" font-size="10.00">TRandom.h</text>
</g>
<!-- Node6&#45;&gt;Node11 -->
<g id="edge11" class="edge"><title>Node6&#45;&gt;Node11</title>
<path fill="none" stroke="midnightblue" d="M303.945,-472.083C308.977,-464.534 316.337,-453.495 322.513,-444.23"/>
<polygon fill="midnightblue" stroke="midnightblue" points="325.531,-446.013 328.166,-435.751 319.707,-442.13 325.531,-446.013"/>
</g>
<!-- Node12&#45;&gt;Node3 -->
<g id="edge15" class="edge"><title>Node12&#45;&gt;Node3</title>
<path fill="none" stroke="midnightblue" d="M978.796,-477.182C1051.33,-471.288 1187.07,-458.265 1301,-436 1302.28,-435.75 1303.58,-435.477 1304.89,-435.186"/>
<polygon fill="midnightblue" stroke="midnightblue" points="1306.05,-438.507 1314.92,-432.714 1304.37,-431.71 1306.05,-438.507"/>
</g>
<!-- Node12&#45;&gt;Node9 -->
<g id="edge14" class="edge"><title>Node12&#45;&gt;Node9</title>
<path fill="none" stroke="midnightblue" d="M875.252,-480.113C788.75,-477.716 619.484,-468.841 571,-436 555.015,-425.172 545.415,-404.787 540.199,-389.721"/>
<polygon fill="midnightblue" stroke="midnightblue" points="543.458,-388.414 537.147,-379.904 536.774,-390.492 543.458,-388.414"/>
</g>
<!-- Node13 -->
<g id="node13" class="node"><title>Node13</title>
<polygon fill="none" stroke="#bfbfbf" points="424.5,-416.5 424.5,-435.5 459.5,-435.5 459.5,-416.5 424.5,-416.5"/>
<text text-anchor="middle" x="442" y="-423.5" font-family="Helvetica,sans-Serif" font-size="10.00">map</text>
</g>
<!-- Node12&#45;&gt;Node13 -->
<g id="edge13" class="edge"><title>Node12&#45;&gt;Node13</title>
<path fill="none" stroke="midnightblue" d="M875.445,-479.889C791.704,-477.228 621.022,-468.242 469.683,-435.923"/>
<polygon fill="midnightblue" stroke="midnightblue" points="470.26,-432.467 459.744,-433.76 468.771,-439.307 470.26,-432.467"/>
</g>
<!-- Node14 -->
<g id="node14" class="node"><title>Node14</title>
<polygon fill="none" stroke="#bfbfbf" points="477.5,-416.5 477.5,-435.5 518.5,-435.5 518.5,-416.5 477.5,-416.5"/>
<text text-anchor="middle" x="498" y="-423.5" font-family="Helvetica,sans-Serif" font-size="10.00">string</text>
</g>
<!-- Node12&#45;&gt;Node14 -->
<g id="edge16" class="edge"><title>Node12&#45;&gt;Node14</title>
<path fill="none" stroke="midnightblue" d="M875.349,-477.386C799.74,-471.58 654.694,-458.485 533,-436 531.535,-435.729 530.04,-435.431 528.534,-435.113"/>
<polygon fill="midnightblue" stroke="midnightblue" points="529.156,-431.665 518.623,-432.806 527.569,-438.483 529.156,-431.665"/>
</g>
<!-- Node12&#45;&gt;Node15 -->
<g id="edge17" class="edge"><title>Node12&#45;&gt;Node15</title>
<path fill="none" stroke="midnightblue" d="M978.705,-478.623C1050.86,-474.357 1176.98,-463.16 1213,-436 1300.85,-369.752 1305.89,-218.812 1304.8,-165.817"/>
<polygon fill="midnightblue" stroke="midnightblue" points="1308.29,-165.438 1304.48,-155.552 1301.29,-165.657 1308.29,-165.438"/>
</g>
<!-- Node16 -->
<g id="node16" class="node"><title>Node16</title>
<g id="a_node16"><a xlink:href="../../d1/d73/Defs_8h.html" target="_top" xlink:title="Common definitions for 2D coordinates. ">
<polygon fill="none" stroke="black" points="894,-192.5 894,-211.5 986,-211.5 986,-192.5 894,-192.5"/>
<text text-anchor="middle" x="940" y="-199.5" font-family="Helvetica,sans-Serif" font-size="10.00">TPCBase/Defs.h</text>
</a>
</g>
</g>
<!-- Node12&#45;&gt;Node16 -->
<g id="edge18" class="edge"><title>Node12&#45;&gt;Node16</title>
<path fill="none" stroke="midnightblue" d="M875.392,-480.436C794.665,-478.489 643.634,-470.234 604,-436 581.223,-416.326 585,-401.098 585,-371 585,-371 585,-371 585,-313 585,-251.165 783.996,-220.261 884.012,-208.634"/>
<polygon fill="midnightblue" stroke="midnightblue" points="884.413,-212.111 893.954,-207.503 883.623,-205.155 884.413,-212.111"/>
</g>
<!-- Node29 -->
<g id="node29" class="node"><title>Node29</title>
<g id="a_node29"><a xlink:href="../../de/d41/PadPos_8h.html" target="_top" xlink:title="TPCBase/PadPos.h">
<polygon fill="none" stroke="black" points="779.5,-304.5 779.5,-323.5 884.5,-323.5 884.5,-304.5 779.5,-304.5"/>
<text text-anchor="middle" x="832" y="-311.5" font-family="Helvetica,sans-Serif" font-size="10.00">TPCBase/PadPos.h</text>
</a>
</g>
</g>
<!-- Node12&#45;&gt;Node29 -->
<g id="edge33" class="edge"><title>Node12&#45;&gt;Node29</title>
<path fill="none" stroke="midnightblue" d="M908.86,-472.469C894.597,-464.85 875.307,-452.367 864,-436 842.258,-404.528 835.286,-359.123 833.052,-333.829"/>
<polygon fill="midnightblue" stroke="midnightblue" points="836.535,-333.466 832.323,-323.745 829.553,-333.971 836.535,-333.466"/>
</g>
<!-- Node30 -->
<g id="node30" class="node"><title>Node30</title>
<g id="a_node30"><a xlink:href="../../dd/d0b/PadSecPos_8h.html" target="_top" xlink:title="TPCBase/PadSecPos.h">
<polygon fill="none" stroke="black" points="1061,-360.5 1061,-379.5 1183,-379.5 1183,-360.5 1061,-360.5"/>
<text text-anchor="middle" x="1122" y="-367.5" font-family="Helvetica,sans-Serif" font-size="10.00">TPCBase/PadSecPos.h</text>
</a>
</g>
</g>
<!-- Node12&#45;&gt;Node30 -->
<g id="edge34" class="edge"><title>Node12&#45;&gt;Node30</title>
<path fill="none" stroke="midnightblue" d="M939.589,-472.301C958.564,-459.345 995.811,-434.521 1029,-416 1050.21,-404.165 1075,-392.261 1093.65,-383.672"/>
<polygon fill="midnightblue" stroke="midnightblue" points="1095.14,-386.836 1102.79,-379.5 1092.24,-380.467 1095.14,-386.836"/>
</g>
<!-- Node31 -->
<g id="node31" class="node"><title>Node31</title>
<g id="a_node31"><a xlink:href="../../d3/dd6/Sector_8h.html" target="_top" xlink:title="TPCBase/Sector.h">
<polygon fill="none" stroke="black" points="1051.5,-248.5 1051.5,-267.5 1150.5,-267.5 1150.5,-248.5 1051.5,-248.5"/>
<text text-anchor="middle" x="1101" y="-255.5" font-family="Helvetica,sans-Serif" font-size="10.00">TPCBase/Sector.h</text>
</a>
</g>
</g>
<!-- Node12&#45;&gt;Node31 -->
<g id="edge60" class="edge"><title>Node12&#45;&gt;Node31</title>
<path fill="none" stroke="midnightblue" d="M978.584,-477.156C1040.75,-471.561 1140.44,-459.213 1169,-436 1196.39,-413.742 1204.65,-392.945 1192,-360 1177.88,-323.237 1143.51,-291.491 1121.28,-273.839"/>
<polygon fill="midnightblue" stroke="midnightblue" points="1123.21,-270.904 1113.15,-267.576 1118.94,-276.451 1123.21,-270.904"/>
</g>
<!-- Node33 -->
<g id="node33" class="node"><title>Node33</title>
<g id="a_node33"><a xlink:href="../../da/d61/PadROCPos_8h.html" target="_top" xlink:title="TPCBase/PadROCPos.h">
<polygon fill="none" stroke="black" points="689,-360.5 689,-379.5 817,-379.5 817,-360.5 689,-360.5"/>
<text text-anchor="middle" x="753" y="-367.5" font-family="Helvetica,sans-Serif" font-size="10.00">TPCBase/PadROCPos.h</text>
</a>
</g>
</g>
<!-- Node12&#45;&gt;Node33 -->
<g id="edge39" class="edge"><title>Node12&#45;&gt;Node33</title>
<path fill="none" stroke="midnightblue" d="M904.424,-472.349C884.412,-464.237 854.763,-451.115 831,-436 808.16,-421.472 784.655,-400.985 769.501,-386.915"/>
<polygon fill="midnightblue" stroke="midnightblue" points="771.675,-384.154 761.999,-379.837 766.871,-389.246 771.675,-384.154"/>
</g>
<!-- Node35 -->
<g id="node35" class="node"><title>Node35</title>
<g id="a_node35"><a xlink:href="../../d3/d54/DigitPos_8h.html" target="_top" xlink:title="TPCBase/DigitPos.h">
<polygon fill="none" stroke="black" points="873,-416.5 873,-435.5 981,-435.5 981,-416.5 873,-416.5"/>
<text text-anchor="middle" x="927" y="-423.5" font-family="Helvetica,sans-Serif" font-size="10.00">TPCBase/DigitPos.h</text>
</a>
</g>
</g>
<!-- Node12&#45;&gt;Node35 -->
<g id="edge45" class="edge"><title>Node12&#45;&gt;Node35</title>
<path fill="none" stroke="midnightblue" d="M927,-472.083C927,-465.006 927,-454.861 927,-445.986"/>
<polygon fill="midnightblue" stroke="midnightblue" points="930.5,-445.751 927,-435.751 923.5,-445.751 930.5,-445.751"/>
</g>
<!-- Node37 -->
<g id="node37" class="node"><title>Node37</title>
<g id="a_node37"><a xlink:href="../../d1/d1f/FECInfo_8h.html" target="_top" xlink:title="TPCBase/FECInfo.h">
<polygon fill="none" stroke="black" points="1168.5,-248.5 1168.5,-267.5 1275.5,-267.5 1275.5,-248.5 1168.5,-248.5"/>
<text text-anchor="middle" x="1222" y="-255.5" font-family="Helvetica,sans-Serif" font-size="10.00">TPCBase/FECInfo.h</text>
</a>
</g>
</g>
<!-- Node12&#45;&gt;Node37 -->
<g id="edge53" class="edge"><title>Node12&#45;&gt;Node37</title>
<path fill="none" stroke="midnightblue" d="M978.632,-478.643C1046.66,-474.486 1161.28,-463.513 1192,-436 1237.04,-395.661 1231.05,-314.811 1225.5,-278.017"/>
<polygon fill="midnightblue" stroke="midnightblue" points="1228.88,-277.012 1223.78,-267.726 1221.98,-278.166 1228.88,-277.012"/>
</g>
<!-- Node38 -->
<g id="node38" class="node"><title>Node38</title>
<g id="a_node38"><a xlink:href="../../da/d9d/PadRegionInfo_8h.html" target="_top" xlink:title="TPCBase/PadRegionInfo.h">
<polygon fill="none" stroke="black" points="613.5,-416.5 613.5,-435.5 748.5,-435.5 748.5,-416.5 613.5,-416.5"/>
<text text-anchor="middle" x="681" y="-423.5" font-family="Helvetica,sans-Serif" font-size="10.00">TPCBase/PadRegionInfo.h</text>
</a>
</g>
</g>
<!-- Node12&#45;&gt;Node38 -->
<g id="edge55" class="edge"><title>Node12&#45;&gt;Node38</title>
<path fill="none" stroke="midnightblue" d="M888.021,-472.444C845.106,-463.023 776.054,-447.866 729.631,-437.675"/>
<polygon fill="midnightblue" stroke="midnightblue" points="730.315,-434.242 719.797,-435.516 728.814,-441.079 730.315,-434.242"/>
</g>
<!-- Node39 -->
<g id="node39" class="node"><title>Node39</title>
<g id="a_node39"><a xlink:href="../../d6/d42/PartitionInfo_8h.html" target="_top" xlink:title="TPCBase/PartitionInfo.h">
<polygon fill="none" stroke="black" points="1037.5,-416.5 1037.5,-435.5 1160.5,-435.5 1160.5,-416.5 1037.5,-416.5"/>
<text text-anchor="middle" x="1099" y="-423.5" font-family="Helvetica,sans-Serif" font-size="10.00">TPCBase/PartitionInfo.h</text>
</a>
</g>
</g>
<!-- Node12&#45;&gt;Node39 -->
<g id="edge59" class="edge"><title>Node12&#45;&gt;Node39</title>
<path fill="none" stroke="midnightblue" d="M954.254,-472.444C983.441,-463.28 1029.92,-448.688 1062.31,-438.519"/>
<polygon fill="midnightblue" stroke="midnightblue" points="1063.38,-441.851 1071.87,-435.516 1061.28,-435.173 1063.38,-441.851"/>
</g>
<!-- Node16&#45;&gt;Node15 -->
<g id="edge19" class="edge"><title>Node16&#45;&gt;Node15</title>
<path fill="none" stroke="midnightblue" d="M986.101,-194.161C1060.94,-183.058 1207.02,-161.388 1271.77,-151.781"/>
<polygon fill="midnightblue" stroke="midnightblue" points="1272.42,-155.223 1281.8,-150.293 1271.4,-148.299 1272.42,-155.223"/>
</g>
<!-- Node17 -->
<g id="node17" class="node"><title>Node17</title>
<g id="a_node17"><a xlink:href="../../d2/dd0/Cartesian2D_8h.html" target="_top" xlink:title="MathUtils/Cartesian2D.h">
<polygon fill="none" stroke="black" points="1051.5,-74.5 1051.5,-93.5 1176.5,-93.5 1176.5,-74.5 1051.5,-74.5"/>
<text text-anchor="middle" x="1114" y="-81.5" font-family="Helvetica,sans-Serif" font-size="10.00">MathUtils/Cartesian2D.h</text>
</a>
</g>
</g>
<!-- Node16&#45;&gt;Node17 -->
<g id="edge20" class="edge"><title>Node16&#45;&gt;Node17</title>
<path fill="none" stroke="midnightblue" d="M952.795,-192.47C982.459,-172.694 1056.18,-123.548 1092.74,-99.1728"/>
<polygon fill="midnightblue" stroke="midnightblue" points="1094.81,-102.001 1101.19,-93.5423 1090.92,-96.1771 1094.81,-102.001"/>
</g>
<!-- Node20 -->
<g id="node20" class="node"><title>Node20</title>
<g id="a_node20"><a xlink:href="../../dd/d76/Cartesian3D_8h.html" target="_top" xlink:title="MathUtils/Cartesian3D.h">
<polygon fill="none" stroke="black" points="631.5,-136.5 631.5,-155.5 756.5,-155.5 756.5,-136.5 631.5,-136.5"/>
<text text-anchor="middle" x="694" y="-143.5" font-family="Helvetica,sans-Serif" font-size="10.00">MathUtils/Cartesian3D.h</text>
</a>
</g>
</g>
<!-- Node16&#45;&gt;Node20 -->
<g id="edge23" class="edge"><title>Node16&#45;&gt;Node20</title>
<path fill="none" stroke="midnightblue" d="M901.021,-192.444C858.106,-183.023 789.054,-167.866 742.631,-157.675"/>
<polygon fill="midnightblue" stroke="midnightblue" points="743.315,-154.242 732.797,-155.516 741.814,-161.079 743.315,-154.242"/>
</g>
<!-- Node18 -->
<g id="node18" class="node"><title>Node18</title>
<polygon fill="none" stroke="#bfbfbf" points="947.5,-1 947.5,-31 1098.5,-31 1098.5,-1 947.5,-1"/>
<text text-anchor="start" x="955.5" y="-19" font-family="Helvetica,sans-Serif" font-size="10.00">Math/GenVector/Displacement</text>
<text text-anchor="middle" x="1023" y="-8" font-family="Helvetica,sans-Serif" font-size="10.00">Vector2D.h</text>
</g>
<!-- Node17&#45;&gt;Node18 -->
<g id="edge21" class="edge"><title>Node17&#45;&gt;Node18</title>
<path fill="none" stroke="midnightblue" d="M1102.1,-74.3717C1089.22,-65.0286 1068.22,-49.7966 1051.09,-37.375"/>
<polygon fill="midnightblue" stroke="midnightblue" points="1052.7,-34.2194 1042.55,-31.1815 1048.59,-39.8859 1052.7,-34.2194"/>
</g>
<!-- Node19 -->
<g id="node19" class="node"><title>Node19</title>
<polygon fill="none" stroke="#bfbfbf" points="1117,-6.5 1117,-25.5 1293,-25.5 1293,-6.5 1117,-6.5"/>
<text text-anchor="middle" x="1205" y="-13.5" font-family="Helvetica,sans-Serif" font-size="10.00">Math/GenVector/PositionVector2D.h</text>
</g>
<!-- Node17&#45;&gt;Node19 -->
<g id="edge22" class="edge"><title>Node17&#45;&gt;Node19</title>
<path fill="none" stroke="midnightblue" d="M1125.9,-74.3717C1140.88,-63.5015 1166.86,-44.6602 1184.94,-31.5474"/>
<polygon fill="midnightblue" stroke="midnightblue" points="1187.06,-34.3349 1193.1,-25.6305 1182.95,-28.6684 1187.06,-34.3349"/>
</g>
<!-- Node20&#45;&gt;Node17 -->
<g id="edge32" class="edge"><title>Node20&#45;&gt;Node17</title>
<path fill="none" stroke="midnightblue" d="M756.765,-138.353C826.615,-130.614 942.731,-116.733 1042,-100 1049.7,-98.7017 1057.83,-97.1674 1065.75,-95.584"/>
<polygon fill="midnightblue" stroke="midnightblue" points="1066.52,-98.9993 1075.62,-93.5662 1065.12,-92.1413 1066.52,-98.9993"/>
</g>
<!-- Node21 -->
<g id="node21" class="node"><title>Node21</title>
<polygon fill="none" stroke="#bfbfbf" points="346.5,-69 346.5,-99 497.5,-99 497.5,-69 346.5,-69"/>
<text text-anchor="start" x="354.5" y="-87" font-family="Helvetica,sans-Serif" font-size="10.00">Math/GenVector/Displacement</text>
<text text-anchor="middle" x="422" y="-76" font-family="Helvetica,sans-Serif" font-size="10.00">Vector3D.h</text>
</g>
<!-- Node20&#45;&gt;Node21 -->
<g id="edge24" class="edge"><title>Node20&#45;&gt;Node21</title>
<path fill="none" stroke="midnightblue" d="M655.318,-136.467C613.93,-127.337 547.29,-112.638 495.806,-101.281"/>
<polygon fill="midnightblue" stroke="midnightblue" points="496.242,-97.7929 485.723,-99.0565 494.734,-104.629 496.242,-97.7929"/>
</g>
<!-- Node22 -->
<g id="node22" class="node"><title>Node22</title>
<polygon fill="none" stroke="#bfbfbf" points="516,-74.5 516,-93.5 692,-93.5 692,-74.5 516,-74.5"/>
<text text-anchor="middle" x="604" y="-81.5" font-family="Helvetica,sans-Serif" font-size="10.00">Math/GenVector/PositionVector3D.h</text>
</g>
<!-- Node20&#45;&gt;Node22 -->
<g id="edge25" class="edge"><title>Node20&#45;&gt;Node22</title>
<path fill="none" stroke="midnightblue" d="M681.105,-136.403C666.536,-126.691 642.598,-110.732 625.255,-99.1697"/>
<polygon fill="midnightblue" stroke="midnightblue" points="627.133,-96.2155 616.871,-93.5806 623.25,-102.04 627.133,-96.2155"/>
</g>
<!-- Node23 -->
<g id="node23" class="node"><title>Node23</title>
<polygon fill="none" stroke="#bfbfbf" points="709.5,-74.5 709.5,-93.5 858.5,-93.5 858.5,-74.5 709.5,-74.5"/>
<text text-anchor="middle" x="784" y="-81.5" font-family="Helvetica,sans-Serif" font-size="10.00">Math/GenVector/Rotation3D.h</text>
</g>
<!-- Node20&#45;&gt;Node23 -->
<g id="edge26" class="edge"><title>Node20&#45;&gt;Node23</title>
<path fill="none" stroke="midnightblue" d="M706.895,-136.403C721.464,-126.691 745.402,-110.732 762.745,-99.1697"/>
<polygon fill="midnightblue" stroke="midnightblue" points="764.75,-102.04 771.129,-93.5806 760.867,-96.2155 764.75,-102.04"/>
</g>
<!-- Node24 -->
<g id="node24" class="node"><title>Node24</title>
<polygon fill="none" stroke="#bfbfbf" points="877,-74.5 877,-93.5 1033,-93.5 1033,-74.5 877,-74.5"/>
<text text-anchor="middle" x="955" y="-81.5" font-family="Helvetica,sans-Serif" font-size="10.00">Math/GenVector/Transform3D.h</text>
</g>
<!-- Node20&#45;&gt;Node24 -->
<g id="edge27" class="edge"><title>Node20&#45;&gt;Node24</title>
<path fill="none" stroke="midnightblue" d="M731.118,-136.467C777.596,-125.783 857.261,-107.469 907.964,-95.8129"/>
<polygon fill="midnightblue" stroke="midnightblue" points="909.049,-99.1549 918.01,-93.5034 907.48,-92.3328 909.049,-99.1549"/>
</g>
<!-- Node25 -->
<g id="node25" class="node"><title>Node25</title>
<polygon fill="none" stroke="#bfbfbf" points="0,-74.5 0,-93.5 160,-93.5 160,-74.5 0,-74.5"/>
<text text-anchor="middle" x="80" y="-81.5" font-family="Helvetica,sans-Serif" font-size="10.00">Math/GenVector/Translation3D.h</text>
</g>
<!-- Node20&#45;&gt;Node25 -->
<g id="edge28" class="edge"><title>Node20&#45;&gt;Node25</title>
<path fill="none" stroke="midnightblue" d="M631.194,-141.277C532.529,-135.054 335.303,-121.106 169,-100 158.289,-98.6406 146.896,-96.9263 135.964,-95.1466"/>
<polygon fill="midnightblue" stroke="midnightblue" points="136.526,-91.692 126.087,-93.5021 135.376,-98.597 136.526,-91.692"/>
</g>
<!-- Node26 -->
<g id="node26" class="node"><title>Node26</title>
<polygon fill="none" stroke="#bfbfbf" points="178,-74.5 178,-93.5 234,-93.5 234,-74.5 178,-74.5"/>
<text text-anchor="middle" x="206" y="-81.5" font-family="Helvetica,sans-Serif" font-size="10.00">Rtypes.h</text>
</g>
<!-- Node20&#45;&gt;Node26 -->
<g id="edge29" class="edge"><title>Node20&#45;&gt;Node26</title>
<path fill="none" stroke="midnightblue" d="M631.406,-144.364C543.435,-142.211 378.781,-133.56 243,-100 239.936,-99.2428 236.792,-98.2804 233.692,-97.2098"/>
<polygon fill="midnightblue" stroke="midnightblue" points="234.689,-93.8439 224.099,-93.5399 232.188,-100.382 234.689,-93.8439"/>
</g>
<!-- Node27 -->
<g id="node27" class="node"><title>Node27</title>
<polygon fill="none" stroke="#bfbfbf" points="252,-74.5 252,-93.5 328,-93.5 328,-74.5 252,-74.5"/>
<text text-anchor="middle" x="290" y="-81.5" font-family="Helvetica,sans-Serif" font-size="10.00">TGeoMatrix.h</text>
</g>
<!-- Node20&#45;&gt;Node27 -->
<g id="edge30" class="edge"><title>Node20&#45;&gt;Node27</title>
<path fill="none" stroke="midnightblue" d="M631.495,-140.615C559.756,-134.779 438.874,-122.477 337,-100 332.766,-99.0657 328.368,-97.9144 324.037,-96.6684"/>
<polygon fill="midnightblue" stroke="midnightblue" points="324.748,-93.2258 314.162,-93.6467 322.7,-99.9195 324.748,-93.2258"/>
</g>
<!-- Node28 -->
<g id="node28" class="node"><title>Node28</title>
<polygon fill="none" stroke="#bfbfbf" points="1195,-74.5 1195,-93.5 1249,-93.5 1249,-74.5 1195,-74.5"/>
<text text-anchor="middle" x="1222" y="-81.5" font-family="Helvetica,sans-Serif" font-size="10.00">iostream</text>
</g>
<!-- Node20&#45;&gt;Node28 -->
<g id="edge31" class="edge"><title>Node20&#45;&gt;Node28</title>
<path fill="none" stroke="midnightblue" d="M756.577,-145.097C850.828,-143.943 1034.23,-136.62 1185,-100 1188.07,-99.2551 1191.21,-98.3007 1194.31,-97.2348"/>
<polygon fill="midnightblue" stroke="midnightblue" points="1195.82,-100.408 1203.91,-93.5705 1193.32,-93.8686 1195.82,-100.408"/>
</g>
<!-- Node30&#45;&gt;Node29 -->
<g id="edge38" class="edge"><title>Node30&#45;&gt;Node29</title>
<path fill="none" stroke="midnightblue" d="M1076.05,-360.444C1024.93,-350.925 942.346,-335.547 887.617,-325.356"/>
<polygon fill="midnightblue" stroke="midnightblue" points="888.208,-321.906 877.736,-323.516 886.927,-328.788 888.208,-321.906"/>
</g>
<!-- Node30&#45;&gt;Node31 -->
<g id="edge35" class="edge"><title>Node30&#45;&gt;Node31</title>
<path fill="none" stroke="midnightblue" d="M1121.59,-360.084C1120.88,-347.48 1119.1,-323.782 1115,-304 1113.15,-295.087 1110.27,-285.423 1107.59,-277.343"/>
<polygon fill="midnightblue" stroke="midnightblue" points="1110.88,-276.14 1104.31,-267.831 1104.26,-278.425 1110.88,-276.14"/>
</g>
<!-- Node31&#45;&gt;Node16 -->
<g id="edge37" class="edge"><title>Node31&#45;&gt;Node16</title>
<path fill="none" stroke="midnightblue" d="M1075.49,-248.444C1048.4,-239.359 1005.41,-224.939 975.131,-214.783"/>
<polygon fill="midnightblue" stroke="midnightblue" points="975.986,-211.378 965.392,-211.516 973.76,-218.015 975.986,-211.378"/>
</g>
<!-- Node32 -->
<g id="node32" class="node"><title>Node32</title>
<g id="a_node32"><a xlink:href="../../d6/d51/TPC_2base_2include_2TPCBase_2Constants_8h.html" target="_top" xlink:title="TPCBase/Constants.h">
<polygon fill="none" stroke="black" points="1043,-192.5 1043,-211.5 1159,-211.5 1159,-192.5 1043,-192.5"/>
<text text-anchor="middle" x="1101" y="-199.5" font-family="Helvetica,sans-Serif" font-size="10.00">TPCBase/Constants.h</text>
</a>
</g>
</g>
<!-- Node31&#45;&gt;Node32 -->
<g id="edge36" class="edge"><title>Node31&#45;&gt;Node32</title>
<path fill="none" stroke="midnightblue" d="M1101,-248.083C1101,-241.006 1101,-230.861 1101,-221.986"/>
<polygon fill="midnightblue" stroke="midnightblue" points="1104.5,-221.751 1101,-211.751 1097.5,-221.751 1104.5,-221.751"/>
</g>
<!-- Node33&#45;&gt;Node16 -->
<g id="edge40" class="edge"><title>Node33&#45;&gt;Node16</title>
<path fill="none" stroke="midnightblue" d="M753.405,-360.095C754.435,-346.653 758.084,-320.951 771,-304 805.136,-259.202 865.343,-230.23 903.918,-215.27"/>
<polygon fill="midnightblue" stroke="midnightblue" points="905.576,-218.386 913.707,-211.594 903.115,-211.833 905.576,-218.386"/>
</g>
<!-- Node33&#45;&gt;Node29 -->
<g id="edge44" class="edge"><title>Node33&#45;&gt;Node29</title>
<path fill="none" stroke="midnightblue" d="M765.693,-360.324C777.901,-351.979 796.578,-339.212 811.003,-329.352"/>
<polygon fill="midnightblue" stroke="midnightblue" points="813.058,-332.187 819.339,-323.655 809.108,-326.408 813.058,-332.187"/>
</g>
<!-- Node34 -->
<g id="node34" class="node"><title>Node34</title>
<g id="a_node34"><a xlink:href="../../dc/d14/ROC_8h.html" target="_top" xlink:title="TPCBase/ROC.h">
<polygon fill="none" stroke="black" points="941.5,-304.5 941.5,-323.5 1034.5,-323.5 1034.5,-304.5 941.5,-304.5"/>
<text text-anchor="middle" x="988" y="-311.5" font-family="Helvetica,sans-Serif" font-size="10.00">TPCBase/ROC.h</text>
</a>
</g>
</g>
<!-- Node33&#45;&gt;Node34 -->
<g id="edge41" class="edge"><title>Node33&#45;&gt;Node34</title>
<path fill="none" stroke="midnightblue" d="M790.236,-360.444C831.06,-351.063 896.643,-335.993 940.984,-325.804"/>
<polygon fill="midnightblue" stroke="midnightblue" points="941.976,-329.167 950.938,-323.516 940.408,-322.345 941.976,-329.167"/>
</g>
<!-- Node34&#45;&gt;Node16 -->
<g id="edge42" class="edge"><title>Node34&#45;&gt;Node16</title>
<path fill="none" stroke="midnightblue" d="M984.234,-304.368C976.417,-286.456 958.294,-244.923 947.832,-220.948"/>
<polygon fill="midnightblue" stroke="midnightblue" points="950.956,-219.357 943.749,-211.591 944.541,-222.157 950.956,-219.357"/>
</g>
<!-- Node34&#45;&gt;Node31 -->
<g id="edge43" class="edge"><title>Node34&#45;&gt;Node31</title>
<path fill="none" stroke="midnightblue" d="M1005.91,-304.444C1024.25,-295.675 1053.01,-281.935 1074.09,-271.858"/>
<polygon fill="midnightblue" stroke="midnightblue" points="1075.67,-274.986 1083.18,-267.516 1072.65,-268.67 1075.67,-274.986"/>
</g>
<!-- Node35&#45;&gt;Node16 -->
<g id="edge46" class="edge"><title>Node35&#45;&gt;Node16</title>
<path fill="none" stroke="midnightblue" d="M927.364,-416.488C928.223,-396.726 930.492,-346.201 933,-304 934.708,-275.265 937.095,-241.961 938.594,-221.694"/>
<polygon fill="midnightblue" stroke="midnightblue" points="942.09,-221.876 939.343,-211.643 935.109,-221.355 942.09,-221.876"/>
</g>
<!-- Node35&#45;&gt;Node29 -->
<g id="edge51" class="edge"><title>Node35&#45;&gt;Node29</title>
<path fill="none" stroke="midnightblue" d="M919.546,-416.368C903.729,-398.055 866.588,-355.049 846.131,-331.362"/>
<polygon fill="midnightblue" stroke="midnightblue" points="848.605,-328.872 839.42,-323.591 843.307,-333.447 848.605,-328.872"/>
</g>
<!-- Node35&#45;&gt;Node30 -->
<g id="edge52" class="edge"><title>Node35&#45;&gt;Node30</title>
<path fill="none" stroke="midnightblue" d="M957.898,-416.444C991.274,-407.201 1044.59,-392.436 1081.35,-382.257"/>
<polygon fill="midnightblue" stroke="midnightblue" points="1082.54,-385.558 1091.25,-379.516 1080.67,-378.812 1082.54,-385.558"/>
</g>
<!-- Node36 -->
<g id="node36" class="node"><title>Node36</title>
<g id="a_node36"><a xlink:href="../../df/d26/CRU_8h.html" target="_top" xlink:title="TPCBase/CRU.h">
<polygon fill="none" stroke="black" points="949.5,-360.5 949.5,-379.5 1042.5,-379.5 1042.5,-360.5 949.5,-360.5"/>
<text text-anchor="middle" x="996" y="-367.5" font-family="Helvetica,sans-Serif" font-size="10.00">TPCBase/CRU.h</text>
</a>
</g>
</g>
<!-- Node35&#45;&gt;Node36 -->
<g id="edge47" class="edge"><title>Node35&#45;&gt;Node36</title>
<path fill="none" stroke="midnightblue" d="M938.086,-416.324C948.486,-408.185 964.261,-395.839 976.722,-386.087"/>
<polygon fill="midnightblue" stroke="midnightblue" points="978.994,-388.753 984.712,-379.834 974.68,-383.241 978.994,-388.753"/>
</g>
<!-- Node36&#45;&gt;Node16 -->
<g id="edge48" class="edge"><title>Node36&#45;&gt;Node16</title>
<path fill="none" stroke="midnightblue" d="M1009.97,-360.344C1027.01,-348.593 1052.44,-326.469 1043,-304 1026.85,-265.543 988.119,-234.376 963.024,-217.291"/>
<polygon fill="midnightblue" stroke="midnightblue" points="964.737,-214.229 954.462,-211.646 960.884,-220.073 964.737,-214.229"/>
</g>
<!-- Node36&#45;&gt;Node31 -->
<g id="edge49" class="edge"><title>Node36&#45;&gt;Node31</title>
<path fill="none" stroke="midnightblue" d="M1021.04,-360.494C1038.84,-353.292 1062.13,-341.343 1077,-324 1088.37,-310.74 1094.56,-291.614 1097.79,-277.54"/>
<polygon fill="midnightblue" stroke="midnightblue" points="1101.26,-278.037 1099.79,-267.545 1094.4,-276.664 1101.26,-278.037"/>
</g>
<!-- Node36&#45;&gt;Node34 -->
<g id="edge50" class="edge"><title>Node36&#45;&gt;Node34</title>
<path fill="none" stroke="midnightblue" d="M994.679,-360.083C993.619,-352.927 992.094,-342.635 990.769,-333.691"/>
<polygon fill="midnightblue" stroke="midnightblue" points="994.224,-333.13 989.296,-323.751 987.3,-334.156 994.224,-333.13"/>
</g>
<!-- Node37&#45;&gt;Node28 -->
<g id="edge54" class="edge"><title>Node37&#45;&gt;Node28</title>
<path fill="none" stroke="midnightblue" d="M1222,-248.234C1222,-221.548 1222,-140.877 1222,-103.893"/>
<polygon fill="midnightblue" stroke="midnightblue" points="1225.5,-103.544 1222,-93.5442 1218.5,-103.544 1225.5,-103.544"/>
</g>
<!-- Node38&#45;&gt;Node9 -->
<g id="edge56" class="edge"><title>Node38&#45;&gt;Node9</title>
<path fill="none" stroke="midnightblue" d="M657.866,-416.444C633.231,-407.332 594.084,-392.853 566.614,-382.693"/>
<polygon fill="midnightblue" stroke="midnightblue" points="567.663,-379.349 557.07,-379.163 565.235,-385.915 567.663,-379.349"/>
</g>
<!-- Node38&#45;&gt;Node16 -->
<g id="edge57" class="edge"><title>Node38&#45;&gt;Node16</title>
<path fill="none" stroke="midnightblue" d="M675.905,-416.168C669.178,-403.258 659.159,-378.733 668,-360 701.419,-289.186 735.442,-285.831 804,-248 831.611,-232.764 865.235,-221.581 892.142,-214.174"/>
<polygon fill="midnightblue" stroke="midnightblue" points="893.338,-217.478 902.099,-211.52 891.535,-210.714 893.338,-217.478"/>
</g>
<!-- Node38&#45;&gt;Node29 -->
<g id="edge58" class="edge"><title>Node38&#45;&gt;Node29</title>
<path fill="none" stroke="midnightblue" d="M677.858,-416.416C673.527,-402.938 667.574,-376.638 680,-360 700.507,-332.542 737.028,-321.149 769.131,-316.689"/>
<polygon fill="midnightblue" stroke="midnightblue" points="769.856,-320.128 779.373,-315.473 769.031,-313.177 769.856,-320.128"/>
</g>
</g>
</svg>
