<?xml version="1.0" encoding="UTF-8" standalone="no"?>
<!DOCTYPE svg PUBLIC "-//W3C//DTD SVG 1.1//EN"
 "http://www.w3.org/Graphics/SVG/1.1/DTD/svg11.dtd">
<!-- Generated by graphviz version 2.36.0 (20140111.2315)
 -->
<!-- Title: /home/travis/build/AliceO2Group/AliceO2/Common/Constants/include/CommonConstants/PhysicsConstants.h Pages: 1 -->
<svg width="420pt" height="242pt"
 viewBox="0.00 0.00 420.00 242.00" xmlns="http://www.w3.org/2000/svg" xmlns:xlink="http://www.w3.org/1999/xlink">
<g id="graph0" class="graph" transform="scale(1 1) rotate(0) translate(4 238)">
<title>/home/travis/build/AliceO2Group/AliceO2/Common/Constants/include/CommonConstants/PhysicsConstants.h</title>
<!-- Node1 -->
<g id="node1" class="node"><title>Node1</title>
<polygon fill="#bfbfbf" stroke="black" points="44,-181 44,-233 240,-233 240,-181 44,-181"/>
<text text-anchor="start" x="52" y="-221" font-family="Helvetica,sans-Serif" font-size="10.00">/home/travis/build</text>
<text text-anchor="start" x="52" y="-210" font-family="Helvetica,sans-Serif" font-size="10.00">/AliceO2Group/AliceO2</text>
<text text-anchor="start" x="52" y="-199" font-family="Helvetica,sans-Serif" font-size="10.00">/Common/Constants/include</text>
<text text-anchor="middle" x="142" y="-188" font-family="Helvetica,sans-Serif" font-size="10.00">/CommonConstants/PhysicsConstants.h</text>
</g>
<!-- Node2 -->
<g id="node2" class="node"><title>Node2</title>
<g id="a_node2"><a xlink:href="../../d9/df6/GRPObject_8cxx.html" target="_top" xlink:title="Implementation of General Run Parameters object. ">
<polygon fill="none" stroke="black" points="0,-91 0,-143 130,-143 130,-91 0,-91"/>
<text text-anchor="start" x="8" y="-131" font-family="Helvetica,sans-Serif" font-size="10.00">/home/travis/build</text>
<text text-anchor="start" x="8" y="-120" font-family="Helvetica,sans-Serif" font-size="10.00">/AliceO2Group/AliceO2</text>
<text text-anchor="start" x="8" y="-109" font-family="Helvetica,sans-Serif" font-size="10.00">/DataFormats/Parameters</text>
<text text-anchor="middle" x="65" y="-98" font-family="Helvetica,sans-Serif" font-size="10.00">/src/GRPObject.cxx</text>
</a>
</g>
</g>
<!-- Node1&#45;&gt;Node2 -->
<g id="edge1" class="edge"><title>Node1&#45;&gt;Node2</title>
<path fill="none" stroke="midnightblue" d="M112.99,-172.846C104.362,-162.985 95.0555,-152.349 86.9556,-143.092"/>
<polygon fill="midnightblue" stroke="midnightblue" points="110.509,-175.326 119.728,-180.547 115.777,-170.716 110.509,-175.326"/>
</g>
<!-- Node3 -->
<g id="node3" class="node"><title>Node3</title>
<g id="a_node3"><a xlink:href="../../d2/df9/Propagator_8h.html" target="_top" xlink:title="/home/travis/build\l/AliceO2Group/AliceO2\l/Detectors/Base/include\l/DetectorsBase/Propagator.h">
<polygon fill="none" stroke="black" points="148.5,-91 148.5,-143 291.5,-143 291.5,-91 148.5,-91"/>
<text text-anchor="start" x="156.5" y="-131" font-family="Helvetica,sans-Serif" font-size="10.00">/home/travis/build</text>
<text text-anchor="start" x="156.5" y="-120" font-family="Helvetica,sans-Serif" font-size="10.00">/AliceO2Group/AliceO2</text>
<text text-anchor="start" x="156.5" y="-109" font-family="Helvetica,sans-Serif" font-size="10.00">/Detectors/Base/include</text>
<text text-anchor="middle" x="220" y="-98" font-family="Helvetica,sans-Serif" font-size="10.00">/DetectorsBase/Propagator.h</text>
</a>
</g>
</g>
<!-- Node1&#45;&gt;Node3 -->
<g id="edge2" class="edge"><title>Node1&#45;&gt;Node3</title>
<path fill="none" stroke="midnightblue" d="M171.387,-172.846C180.127,-162.985 189.554,-152.349 197.759,-143.092"/>
<polygon fill="midnightblue" stroke="midnightblue" points="168.575,-170.742 164.561,-180.547 173.813,-175.385 168.575,-170.742"/>
</g>
<!-- Node4 -->
<g id="node4" class="node"><title>Node4</title>
<g id="a_node4"><a xlink:href="../../d8/dee/Propagator_8cxx.html" target="_top" xlink:title="/home/travis/build\l/AliceO2Group/AliceO2\l/Detectors/Base/src/Propagator.cxx">
<polygon fill="none" stroke="black" points="34.5,-6.5 34.5,-47.5 207.5,-47.5 207.5,-6.5 34.5,-6.5"/>
<text text-anchor="start" x="42.5" y="-35.5" font-family="Helvetica,sans-Serif" font-size="10.00">/home/travis/build</text>
<text text-anchor="start" x="42.5" y="-24.5" font-family="Helvetica,sans-Serif" font-size="10.00">/AliceO2Group/AliceO2</text>
<text text-anchor="middle" x="121" y="-13.5" font-family="Helvetica,sans-Serif" font-size="10.00">/Detectors/Base/src/Propagator.cxx</text>
</a>
</g>
</g>
<!-- Node3&#45;&gt;Node4 -->
<g id="edge3" class="edge"><title>Node3&#45;&gt;Node4</title>
<path fill="none" stroke="midnightblue" d="M183.8,-83.8222C170.156,-71.6941 155.055,-58.2715 143.082,-47.6283"/>
<polygon fill="midnightblue" stroke="midnightblue" points="181.831,-86.755 191.631,-90.7827 186.482,-81.5231 181.831,-86.755"/>
</g>
<!-- Node5 -->
<g id="node5" class="node"><title>Node5</title>
<g id="a_node5"><a xlink:href="../../d7/dca/CookedTracker_8cxx.html" target="_top" xlink:title="Implementation of the &quot;Cooked Matrix&quot; ITS tracker. ">
<polygon fill="none" stroke="black" points="226,-1 226,-53 412,-53 412,-1 226,-1"/>
<text text-anchor="start" x="234" y="-41" font-family="Helvetica,sans-Serif" font-size="10.00">/home/travis/build</text>
<text text-anchor="start" x="234" y="-30" font-family="Helvetica,sans-Serif" font-size="10.00">/AliceO2Group/AliceO2</text>
<text text-anchor="start" x="234" y="-19" font-family="Helvetica,sans-Serif" font-size="10.00">/Detectors/ITSMFT/ITS</text>
<text text-anchor="middle" x="319" y="-8" font-family="Helvetica,sans-Serif" font-size="10.00">/reconstruction/src/CookedTracker.cxx</text>
</a>
</g>
</g>
<!-- Node3&#45;&gt;Node5 -->
<g id="edge4" class="edge"><title>Node3&#45;&gt;Node5</title>
<path fill="none" stroke="midnightblue" d="M256.056,-83.9506C267.442,-73.8293 279.856,-62.795 290.626,-53.221"/>
<polygon fill="midnightblue" stroke="midnightblue" points="253.518,-81.5231 248.369,-90.7827 258.169,-86.755 253.518,-81.5231"/>
</g>
</g>
</svg>
